<?xml version="1.0" standalone="no"?>
<!DOCTYPE svg PUBLIC "-//W3C//DTD SVG 20010904//EN"
 "http://www.w3.org/TR/2001/REC-SVG-20010904/DTD/svg10.dtd">
<svg version="1.0" xmlns="http://www.w3.org/2000/svg"
 width="246.000000pt" height="68.000000pt" viewBox="0 0 246.000000 68.000000"
 preserveAspectRatio="xMidYMid meet">

<g transform="translate(0.000000,68.000000) scale(0.100000,-0.100000)"
fill="#000000" stroke="none">
<path d="M0 340 l0 -340 1230 0 1230 0 0 340 0 340 -1230 0 -1230 0 0 -340z
m467 24 c2 -6 -12 -21 -32 -32 -30 -18 -35 -19 -35 -6 0 20 -40 12 -89 -18
l-34 -21 35 -18 c49 -25 88 -31 88 -14 0 11 8 10 35 -6 19 -12 35 -25 35 -30
0 -14 -63 -50 -70 -39 -3 5 -23 12 -44 15 -21 4 -58 20 -84 36 -25 16 -52 29
-59 29 -8 0 -13 12 -13 30 0 22 5 30 18 30 9 0 37 14 61 30 25 17 62 33 83 36
21 4 38 11 38 16 0 12 62 -23 67 -38z m330 11 c13 -9 28 -33 34 -54 32 -108
-76 -188 -152 -112 -63 63 -22 181 63 181 18 0 43 -7 55 -15z m721 -1 c26 -18
30 -69 6 -95 -14 -16 -14 -21 6 -58 19 -38 19 -41 3 -41 -10 0 -28 17 -41 40
-31 55 -62 55 -62 0 0 -29 -4 -40 -15 -40 -12 0 -15 18 -15 105 l0 105 48 0
c27 0 57 -7 70 -16z m442 -19 c0 -8 7 -15 15 -15 8 0 15 -7 15 -15 0 -8 -7
-15 -15 -15 -11 0 -15 -12 -15 -50 0 -36 4 -50 14 -50 8 0 16 -7 20 -15 4 -11
-1 -15 -17 -15 -35 0 -47 19 -47 77 0 29 -4 53 -10 53 -5 0 -10 7 -10 15 0 8
5 15 10 15 6 0 10 7 10 15 0 8 7 15 15 15 8 0 15 -7 15 -15z m-1058 -26 c3 -9
10 -8 25 2 45 28 103 -31 88 -91 -13 -52 -71 -80 -103 -48 -9 9 -12 3 -12 -30
0 -31 -4 -42 -15 -42 -12 0 -15 19 -15 110 0 88 3 110 14 110 8 0 16 -5 18
-11z m258 -9 c11 -11 20 -24 20 -29 0 -5 3 -16 6 -25 5 -13 -3 -16 -50 -16
-43 0 -56 -4 -56 -15 0 -24 35 -37 64 -23 32 14 48 1 22 -18 -64 -46 -144 18
-116 92 21 55 73 71 110 34z m90 11 c0 -5 13 -4 29 2 25 9 33 8 50 -8 17 -15
21 -30 21 -82 0 -49 -3 -63 -15 -63 -12 0 -15 13 -15 60 0 47 -4 62 -16 67
-32 12 -49 -11 -52 -71 -2 -41 -7 -56 -17 -56 -12 0 -15 17 -15 80 0 64 3 80
15 80 8 0 15 -4 15 -9z m440 -11 c25 -25 27 -95 3 -122 -22 -24 -77 -24 -103
2 -29 29 -27 84 5 115 29 30 68 32 95 5z m92 -42 c3 -58 5 -63 27 -66 31 -5
41 12 41 76 0 39 4 52 15 52 12 0 15 -16 15 -80 0 -64 -3 -80 -15 -80 -8 0
-15 5 -15 12 0 9 -3 9 -12 0 -17 -17 -48 -15 -70 5 -24 21 -27 143 -3 143 10
0 15 -16 17 -62z m353 37 c14 -13 25 -33 25 -45 0 -18 -6 -20 -55 -20 -57 0
-66 -8 -39 -34 18 -18 40 -21 49 -6 3 6 16 10 27 10 20 0 21 -1 3 -20 -24 -26
-79 -26 -105 0 -43 43 -8 140 50 140 12 0 32 -11 45 -25z m91 14 c4 -8 9 -8
17 0 16 16 37 14 37 -3 0 -8 -10 -16 -22 -18 -21 -3 -23 -9 -26 -65 -2 -47 -7
-63 -17 -63 -12 0 -15 17 -15 80 0 74 9 97 26 69z"/>
<path d="M696 338 c-35 -49 -9 -128 42 -128 36 0 49 10 62 44 13 34 -2 91 -26
100 -31 12 -63 5 -78 -16z"/>
<path d="M1430 326 c0 -34 2 -36 35 -36 63 0 59 62 -4 68 -30 3 -31 2 -31 -32z"/>
<path d="M910 285 c-11 -28 1 -70 22 -78 37 -13 61 38 42 87 -10 26 -53 20
-64 -9z"/>
<path d="M1087 304 c-18 -19 -5 -34 29 -34 28 0 35 3 32 18 -3 17 -48 29 -61
16z"/>
<path d="M1612 298 c-17 -17 -15 -64 4 -82 18 -19 20 -19 45 -6 37 20 20 100
-21 100 -9 0 -21 -5 -28 -12z"/>
<path d="M2062 298 c-21 -21 -13 -28 28 -28 22 0 40 4 40 8 0 14 -23 32 -40
32 -9 0 -21 -5 -28 -12z"/>
</g>
</svg>
