<svg width="25" height="21" viewBox="0 0 25 21" fill="none" xmlns="http://www.w3.org/2000/svg">
<path d="M1.05858 10.1738C1.76158 10.1738 4.47988 9.56715 5.88589 8.77041C7.2919 7.97367 7.2919 7.97367 10.1977 5.91152C13.8766 3.30069 16.4779 4.17486 20.7428 4.17486" fill="black"/>
<path fill-rule="evenodd" clip-rule="evenodd" d="M11.4182 7.63145L11.3787 7.65951C8.50565 9.69845 8.42504 9.75566 6.92566 10.6053C5.98567 11.138 4.74704 11.5436 3.75151 11.8089C2.80313 12.0615 1.71203 12.2829 1.05858 12.2829V8.06483C1.05075 8.06483 1.05422 8.06445 1.06984 8.06276C1.11491 8.05788 1.26116 8.04203 1.52896 7.9926C1.84599 7.9341 2.24205 7.84582 2.6657 7.73296C3.55657 7.49564 4.3801 7.1996 4.84612 6.93552C4.88175 6.91533 4.91635 6.89573 4.95001 6.87666C6.15007 6.19693 6.15657 6.19325 8.97708 4.1916C12.5199 1.67735 15.5815 1.83587 18.5849 1.99138C19.3056 2.0287 20.0229 2.06584 20.7428 2.06584V6.28388C19.6102 6.28388 18.6583 6.24193 17.8263 6.20527C15.1245 6.08621 13.685 6.02278 11.4182 7.63145Z" fill="black"/>
<path d="M24.8671 4.20087L17.6613 8.36117V0.0405881L24.8671 4.20087Z" fill="black"/>
<path fill-rule="evenodd" clip-rule="evenodd" d="M17.6378 0L24.9139 4.20087L17.6378 8.40176V0ZM17.6847 0.0811762V8.32058L24.8202 4.20087L17.6847 0.0811762Z" fill="black"/>
<path d="M0.917975 10.1764C1.62098 10.1764 4.33927 10.7831 5.74529 11.5799C7.1513 12.3766 7.1513 12.3766 10.0571 14.4388C13.736 17.0496 16.3373 16.1754 20.6022 16.1754" fill="black"/>
<path fill-rule="evenodd" clip-rule="evenodd" d="M0.929234 12.2875C0.913615 12.2858 0.910145 12.2854 0.917975 12.2854V8.06741C1.57142 8.06741 2.66253 8.28878 3.61091 8.54142C4.60644 8.80663 5.84507 9.21231 6.78506 9.74497C8.28444 10.5946 8.36505 10.6518 11.2381 12.6908L11.2776 12.7188C13.5444 14.3275 14.9839 14.2641 17.6857 14.145C18.5177 14.1083 19.4696 14.0664 20.6022 14.0664V18.2844C19.8823 18.2844 19.165 18.3216 18.4443 18.3589C15.4409 18.5144 12.3793 18.6729 8.83648 16.1587C6.01597 14.157 6.00947 14.1533 4.80941 13.4736C4.77575 13.4545 4.74115 13.4349 4.70551 13.4148C4.2395 13.1507 3.41597 12.8546 2.5251 12.6173C2.10145 12.5045 1.70538 12.4162 1.38836 12.3577C1.12056 12.3083 0.974309 12.2924 0.929234 12.2875Z" fill="black"/>
<path d="M24.7265 16.1494L17.5207 11.9892V20.3097L24.7265 16.1494Z" fill="black"/>
<path fill-rule="evenodd" clip-rule="evenodd" d="M17.4972 11.9486L24.7733 16.1494L17.4972 20.3503V11.9486ZM17.5441 12.0297V20.2691L24.6796 16.1494L17.5441 12.0297Z" fill="black"/>
</svg>
