<svg xmlns="http://www.w3.org/2000/svg" width="40" height="40" viewBox="0 0 40 40" fill="none">
  <path d="M12.0377 35C19.1243 35 23.7343 31.3 23.7343 25.7333C23.7343 21.4167 20.931 18.6733 15.9177 17.5367L12.701 16.585C9.87768 15.96 8.22935 15.21 8.61768 13.2933C8.94102 11.6983 9.90602 10.7983 12.1543 10.7983C19.296 10.7983 21.9427 13.2933 21.9427 13.2933V7.29333C21.9427 7.29333 19.366 5 12.1543 5C5.35435 5 1.66602 8.45 1.66602 13.7883C1.66602 18.105 4.22268 20.6167 9.40768 21.8083L9.96435 21.9467C10.7527 22.1867 11.8177 22.505 13.1577 22.9C15.8077 23.525 16.4893 24.1883 16.4893 26.1767C16.4893 27.9933 14.5727 29.0267 12.0393 29.0267C4.73435 29.0267 1.66602 25.385 1.66602 25.385V32.0333C1.66602 32.0333 3.58602 35 12.0377 35Z" fill="url(#paint0_linear_17756_15767)"/>
  <path d="M33.9561 34.55C36.4645 34.55 38.3328 32.7617 38.3328 30.34C38.3328 27.8667 36.5178 26.13 33.9561 26.13C31.4478 26.13 29.6328 27.8667 29.6328 30.34C29.6328 32.8133 31.4478 34.55 33.9561 34.55Z" fill="#E80000"/>
  <defs>
    <linearGradient id="paint0_linear_17756_15767" x1="1105.08" y1="5" x2="1105.08" y2="3005" gradientUnits="userSpaceOnUse">
      <stop stop-color="#9D39FF"/>
      <stop offset="1" stop-color="#A380FF"/>
    </linearGradient>
  </defs>
</svg>