<svg width="16" height="16" viewBox="0 0 16 16" fill="none" xmlns="http://www.w3.org/2000/svg">
<path d="M13.4375 8V10.8125C13.4375 11.2267 13.1017 11.5625 12.6875 11.5625H4.25C3.31802 11.5625 2.5625 12.318 2.5625 13.25C2.5625 14.182 3.31802 14.9375 4.25 14.9375H6.5M5.5625 4.25H10.4375M5.5625 7.25H8.1875M4.0625 1.0625H12.6875C13.1017 1.0625 13.4375 1.39829 13.4375 1.8125V14.1875C13.4375 14.6017 13.1017 14.9375 12.6875 14.9375H4.0625C3.23407 14.9375 2.5625 14.2659 2.5625 13.4375V2.5625C2.5625 1.73407 3.23407 1.0625 4.0625 1.0625Z" stroke="#667085" stroke-width="1.5" stroke-linecap="round" stroke-linejoin="round"/>
</svg>
