<svg t="1731213160484" class="icon" viewBox="0 0 1024 1024" version="1.1" xmlns="http://www.w3.org/2000/svg" p-id="1482" width="200" height="200"><path d="M886.9 312.8c5.6-0.8 10.1 3.5 10.1 9.5l-0.1 34.2-275 215.1-218.3 30.6-274.4-137.8 0.1-34.2c0-6 4.5-11.6 10.2-12.4l747.4-105z" fill="#D5E1FF" p-id="1483"></path><path d="M139.5 418c-5.6 0.8-10.1-3.5-10.1-9.5l0.1-50.5L501.7 66.9c3.8-2.6 7.9-4.3 12-4.9 4.1-0.6 8.2-0.1 12 1.5l371.4 186.6-0.1 50.5c0 6-4.6 11.6-10.2 12.4L139.5 418z" fill="#BBD2FF" p-id="1484"></path><path d="M800.1 104.9c4.3-0.6 7.9 2.7 7.9 7.3l-1 540.9c0 4.6-3.6 8.9-7.9 9.6L206.6 746c-4.3 0.6-7.9-2.7-7.9-7.3l1-540.9c0-4.7 3.6-8.9 7.9-9.6l592.5-83.3z" fill="#82A6FF" p-id="1485"></path><path d="M820.3 113.9c4.3-0.6 7.9 2.7 7.9 7.3l-1 540.9c0 4.6-3.6 8.9-7.9 9.6L226.8 755c-4.3 0.6-7.9-2.7-7.9-7.3l1-540.9c0-4.7 3.6-8.9 7.9-9.6l592.5-83.3z" fill="#344D66" p-id="1486"></path><path d="M264.7 218.2c4.4-0.6 7.9 2.7 7.9 7.4 0 4.8-3.5 9.1-7.9 9.7-4.4 0.6-7.9-2.7-7.9-7.5 0-4.6 3.5-8.9 7.9-9.6zM302.6 211.8c4.4-0.6 7.9 2.7 7.9 7.4 0 4.8-3.5 9.1-7.9 9.7s-7.9-2.7-7.9-7.5c0-4.6 3.5-8.9 7.9-9.6z" fill="#FF7777" p-id="1487"></path><path d="M340.4 206.5c4.4-0.6 7.9 2.7 7.9 7.4 0 4.8-3.5 9.1-7.9 9.7-4.4 0.6-7.9-2.7-7.9-7.5 0-4.7 3.5-9 7.9-9.6z" fill="#88FF8B" p-id="1488"></path><path d="M594.7 523.9l-22.5-12.3c-6.5-3.5-11.5-9.2-15.1-17l22.5 12.3c3.6 7.8 8.6 13.4 15.1 17" fill="#FFAFAF" p-id="1489"></path><path d="M592.2 478.6l22.5 12.3c0.2 0.1 0.3 0.2 0.5 0.3 0.9 0.4 1.9 0.8 3 1.1h0.2c1.5 0.4 3.2 0.6 5.1 0.7L601 480.6c-1.9-0.1-3.6-0.3-5.1-0.7-1.4-0.3-2.6-0.7-3.7-1.3zM640.2 310.9l-22.5-12.3c26.3 14.3 40.9 41.1 43.6 80.3-0.5 5.1-1.2 10-1.9 14.7-0.2 1.2-0.4 2.5-0.6 3.7-0.6 4.1-1.3 8-2.1 11.8-0.1 0.6-0.2 1.2-0.3 1.7-0.9 4.2-1.9 8.2-2.9 12-0.3 1-0.5 1.9-0.8 2.9-0.9 3.1-1.9 6.1-2.9 8.9-0.3 0.7-0.5 1.5-0.8 2.2-0.5 1.4-1.1 2.7-1.6 4.1-0.5 1.2-0.9 2.4-1.4 3.5-0.6 1.3-1.2 2.5-1.8 3.7l-1.5 3c-1.4 2.6-2.9 5-4.4 7.2l-1.5 2.1c-0.9 1.2-1.7 2.3-2.6 3.4-0.6 0.8-1.3 1.5-2 2.2-0.7 0.8-1.5 1.6-2.3 2.3-0.7 0.7-1.4 1.3-2.1 1.9-0.8 0.7-1.7 1.4-2.6 2-0.7 0.5-1.3 0.9-2 1.4-1.3 0.8-2.6 1.6-4 2.3-0.6 0.3-1.2 0.7-1.9 0.9-1.2 0.6-2.5 1-3.8 1.5-0.6 0.2-1.2 0.5-1.9 0.6-1.9 0.6-3.9 1-6 1.3-1.5 0.2-2.9 0.3-4.5 0.4l22.5 12.3c1.5-0.1 3-0.2 4.5-0.4 2.1-0.3 4-0.7 6-1.3 0.6-0.2 1.2-0.4 1.9-0.6 1.3-0.4 2.6-0.9 3.8-1.4 0.2-0.1 0.5-0.2 0.7-0.3 0.4-0.2 0.8-0.5 1.2-0.7 1.4-0.7 2.7-1.4 4-2.3 0.3-0.2 0.7-0.4 1.1-0.6 0.3-0.2 0.6-0.5 1-0.8 0.9-0.6 1.7-1.3 2.6-2 0.4-0.4 0.9-0.7 1.3-1 0.3-0.3 0.5-0.6 0.8-0.8 0.8-0.7 1.5-1.5 2.3-2.3 0.4-0.5 0.9-0.9 1.3-1.3 0.2-0.3 0.4-0.6 0.7-0.8 0.9-1.1 1.8-2.2 2.6-3.4l1.2-1.5 0.3-0.6c1.5-2.3 3-4.7 4.4-7.3 0.1-0.1 0.1-0.2 0.2-0.3l1.3-2.6c0.6-1.2 1.3-2.5 1.8-3.8 0.5-1.1 1-2.3 1.4-3.4 0.6-1.4 1.1-2.7 1.7-4.1 0.1-0.2 0.2-0.4 0.3-0.7 0.2-0.5 0.3-1 0.5-1.5 1-2.9 2-5.8 2.9-9 0.3-0.9 0.6-1.9 0.8-2.9 1-3.8 2-7.8 2.9-12 0.1-0.6 0.2-1.2 0.3-1.7 0.8-3.8 1.5-7.7 2.1-11.8 0.2-1.2 0.4-2.4 0.6-3.7 0.7-4.7 1.3-9.6 1.9-14.7-2.9-39.3-17.4-66-43.8-80.4zM607.7 348.2l-22.5-12.3-5.9 24.5 22.5 12.3zM574.1 385.8l-22.5-12.3c11.7 6.4 16.5 21.6 14.5 45.6-0.9 3.1-1.8 6-2.7 8.9l-0.9 2.7c-0.6 1.9-1.3 3.8-1.9 5.6-0.2 0.6-0.4 1.2-0.7 1.8-1.3 3.5-2.7 6.9-4.1 10.1-0.2 0.4-0.3 0.8-0.5 1.2-1.5 3.3-3 6.4-4.5 9.3-0.4 0.8-0.8 1.5-1.2 2.3-0.6 1-1.1 2-1.7 3-0.5 0.9-1.1 1.8-1.6 2.6l-1.8 2.7c-0.5 0.7-1 1.4-1.4 2.1-1.6 2.2-3.2 4.3-4.8 6.2-0.3 0.3-0.6 0.7-0.9 1-1.2 1.3-2.4 2.5-3.6 3.7-0.5 0.4-0.9 0.8-1.4 1.3-1.2 1.1-2.5 2.1-3.7 3-0.3 0.2-0.6 0.5-0.9 0.7-1.8 1.2-3.6 2.2-5.4 3.1-0.5 0.2-1 0.5-1.5 0.7-1.1 0.5-2.3 0.9-3.5 1.3-0.5 0.2-1 0.3-1.5 0.5-1.7 0.5-3.3 0.9-5 1.1-2 0.3-4.1 0.4-6.2 0.4-2.4-0.1-4.5-0.4-6.5-0.9-1.9-0.5-3.6-1.1-5.2-2l22.5 12.3c0.2 0.1 0.5 0.3 0.8 0.4 1.3 0.6 2.7 1.2 4.2 1.5h0.2c2 0.5 4.2 0.8 6.5 0.9 2.1 0 4.2-0.1 6.2-0.4 1.7-0.2 3.4-0.6 5-1.1 0.5-0.1 1-0.3 1.5-0.5 1.2-0.4 2.3-0.8 3.5-1.3l0.9-0.3 0.6-0.3c1.8-0.9 3.7-1.9 5.4-3.1 0.1 0 0.1-0.1 0.2-0.1 0.2-0.2 0.5-0.4 0.7-0.6 1.3-0.9 2.5-1.9 3.7-3 0.2-0.2 0.5-0.3 0.7-0.5l0.7-0.7c1.2-1.1 2.4-2.4 3.6-3.7 0.2-0.3 0.5-0.5 0.7-0.7 0.1-0.1 0.1-0.2 0.2-0.3 1.6-1.9 3.3-4 4.8-6.2 0.2-0.2 0.3-0.4 0.5-0.6 0.3-0.5 0.6-1 1-1.5l1.8-2.7c0.5-0.9 1.1-1.7 1.6-2.7 0.6-1 1.1-1.9 1.7-3 0.2-0.4 0.5-0.8 0.7-1.3 0.2-0.3 0.3-0.7 0.5-1 1.5-2.9 3.1-6 4.5-9.3 0.2-0.4 0.3-0.8 0.5-1.2 1.4-3.2 2.7-6.6 4.1-10.1 0.1-0.4 0.3-0.7 0.4-1.1 0.1-0.2 0.2-0.5 0.2-0.7 0.7-1.8 1.3-3.7 1.9-5.5 0.3-0.9 0.6-1.8 0.9-2.8 0.9-2.9 1.8-5.8 2.7-8.9 1.8-21.1-1.7-35.3-10.4-42.8-1.3-1.1-2.6-2-4.1-2.8zM578.4 569.5c0.8-0.2 1.6-0.5 2.4-0.8 4.1-1.3 8.2-2.8 12.5-4.5 0.5-0.2 1-0.4 1.6-0.6 4.5-1.8 9.1-3.8 13.8-6l1.5-0.6c0.5-0.3 1.1-0.6 1.6-0.8 4.4-2.1 8.7-4.3 13.2-6.7l-22.5-12.3c-4.5 2.4-8.9 4.6-13.2 6.7-1 0.5-2.1 1-3.1 1.5-4.6 2.2-9.2 4.2-13.8 6-0.5 0.2-1 0.4-1.6 0.6-4.2 1.6-8.4 3.1-12.5 4.5-0.8 0.3-1.6 0.5-2.4 0.8-4.3 1.3-8.5 2.5-12.7 3.5-0.9 0.2-1.7 0.4-2.6 0.6-4.3 1-8.5 1.8-12.7 2.4-2 0.3-4.1 0.5-6.1 0.7-4.8 0.3-9.4 0.4-14 0.4h-4.1c-3.2 0-6.3-0.2-9.4-0.3-1.4-0.1-2.7-0.2-4.1-0.3-3.3-0.3-6.6-0.7-9.8-1.1l-2.4-0.3c-3.9-0.6-7.6-1.4-11.2-2.3-1.1-0.3-2.1-0.6-3.1-0.9-2.3-0.6-4.5-1.3-6.6-2-1.2-0.4-2.3-0.9-3.5-1.3l-5.7-2.4c-1.8-0.8-3.5-1.6-5.2-2.5l22.5 12.3c1.1 0.6 2.2 1.2 3.4 1.7 0.6 0.3 1.3 0.5 1.9 0.8 1.8 0.9 3.7 1.7 5.7 2.4 1.1 0.4 2.3 0.9 3.5 1.3 2.1 0.7 4.3 1.4 6.6 2 0.8 0.2 1.6 0.5 2.4 0.7 0.2 0.1 0.5 0.1 0.8 0.2 3.6 0.9 7.3 1.7 11.2 2.3l2.4 0.3c3.2 0.5 6.4 0.8 9.7 1.1 1.3 0.1 2.7 0.2 4.1 0.3 3.1 0.2 6.2 0.3 9.4 0.3 1.4 0 2.7 0.1 4.1 0 4.5 0 9.2-0.1 14-0.4 2-0.2 4-0.4 6.1-0.7 4.1-0.6 8.4-1.4 12.7-2.4 0.9-0.2 1.7-0.4 2.6-0.6 4.1-1.1 8.3-2.3 12.6-3.6z" fill="#FF7777" p-id="1490"></path><path d="M618.8 331.2l-33.6 4.7 22.5 12.3 33.7-4.8zM574.9 352.4c1 0.2 2 0.5 3 0.8 1.9 0.6 3.7 1.2 5.4 2 1.1 0.5 2.2 0.8 3.2 1.4L564 344.3c-0.5-0.3-1-0.5-1.4-0.7-0.5-0.3-1.2-0.4-1.7-0.6-1.7-0.8-3.5-1.4-5.4-2-0.5-0.1-0.8-0.4-1.3-0.5-0.5-0.1-1.1-0.2-1.6-0.3-2-0.5-4.2-0.8-6.4-1.1-1-0.1-1.9-0.3-3-0.3h-0.5c-6.3-0.4-12.6 0.7-18.4 3h-0.1c-0.9 0.4-1.7 0.7-2.6 1.1l-3.6 1.5c-0.6 0.3-1.2 0.7-1.9 1-1.3 0.7-2.7 1.4-4 2.1-1.5 0.8-3 1.6-4.4 2.5-1.3 0.8-2.5 1.6-3.8 2.4-0.7 0.5-1.5 0.9-2.1 1.4-0.4 0.3-0.8 0.7-1.3 1-3.4 2.4-6.6 4.9-9.7 7.7-0.1 0.1-0.2 0.1-0.2 0.2-2.9 2.6-5.7 5.5-8.3 8.4l-0.9 0.9c-0.5 0.5-0.9 1.1-1.3 1.7-2.1 2.4-4 4.9-5.9 7.5-0.4 0.6-0.9 1.1-1.3 1.7-0.3 0.5-0.6 0.9-0.9 1.4-0.6 0.8-1.1 1.7-1.7 2.6-1.2 1.8-2.3 3.7-3.4 5.6-0.5 0.9-1.1 1.8-1.6 2.8-0.3 0.6-0.6 1.1-0.9 1.6l-1.5 3c-0.9 1.9-1.9 3.7-2.8 5.6-0.7 1.5-1.4 3.1-2.1 4.7-0.8 2-1.7 4-2.4 6-0.3 0.7-0.6 1.4-0.9 2.2l-0.9 2.7c-0.8 2.4-1.6 4.8-2.4 7.3-0.5 1.7-1 3.3-1.5 5-0.7 2.6-1.4 5.3-2.1 7.9-0.4 1.7-0.8 3.3-1.2 5.1-0.7 3-1.3 6.1-1.8 9.2-0.3 1.5-0.6 3-0.8 4.5-0.2 1.1-0.4 2.2-0.6 3.4-1.3 8-1.8 16.1-0.9 24.2 1.2 10.2 3.9 18.6 8.1 25.2 3.5 5.6 8.2 9.9 13.8 13l22.5 12.3c-15.1-8.2-22.7-25.3-22.7-51.3 0.6-5 1.3-9.8 2.1-14.5l0.9-4.5c0.6-3.1 1.2-6.2 1.8-9.2 0.4-1.7 0.8-3.4 1.2-5 0.7-2.7 1.3-5.4 2.1-8 0.5-1.7 1-3.4 1.5-5 0.8-2.5 1.6-4.9 2.4-7.3 0.6-1.6 1.2-3.3 1.8-4.9l2.4-6c0.7-1.6 1.3-3.2 2.1-4.7 0.9-1.9 1.8-3.8 2.8-5.6 0.8-1.6 1.6-3.1 2.4-4.7 0.5-0.9 1.1-1.9 1.6-2.8 1.1-1.9 2.3-3.8 3.4-5.6 0.6-0.9 1.1-1.7 1.7-2.6 0.7-1.1 1.5-2 2.2-3.1 1.9-2.6 3.9-5.1 5.9-7.6 0.7-0.9 1.5-1.7 2.2-2.6 2.7-2.9 5.4-5.8 8.3-8.4 0.1-0.1 0.2-0.1 0.3-0.2 3.1-2.8 6.4-5.3 9.7-7.7 1.1-0.8 2.3-1.6 3.4-2.4 1.2-0.8 2.5-1.6 3.8-2.4 1.4-0.9 2.9-1.7 4.4-2.5 1.3-0.7 2.6-1.4 4-2.1 1.8-0.9 3.6-1.7 5.4-2.5 0.9-0.4 1.7-0.8 2.6-1.1h0.1c5.8-2.4 12.1-3.5 18.4-3h0.5l3 0.3c2.1 0.4 4.2 0.7 6.3 1.2z" fill="#FFAFAF" p-id="1491"></path><path d="M641.4 343.4L609 469.7c-3 15.2 1.9 22.9 14.6 23.2 1.5-0.1 3-0.2 4.5-0.4 28.5-4 46.6-33.7 54.3-89.3 1.1-8.2 1.3-16.7 0.1-24.9-8.7-58.4-48-84.7-117.9-78.9-5.2 0.4-10.5 1.4-15.5 2.9-82 24.1-124.9 82.5-128.8 175 2.8 71.2 44.2 104.4 124.2 99.4 2-0.2 4-0.4 6.1-0.7 22.7-3.2 47.5-12 74.4-26.4l10.2 33.3c-26.4 17.4-57.1 29.1-92.3 35.1-105.4 6.3-160.9-39.5-166.6-137.7 11.6-119.4 75.2-193.3 191-221.8 7.4-1.8 15.2-2.4 22.8-2.2 72.4 2.7 115.1 38.1 127.9 106.2 4.2 22.1 2.8 44.9-2.8 66.7-14.9 57.4-45.5 90.2-91.7 98.4-21.5 3-36.1-3.8-43.9-20.7-20.4 22-37.6 34-51.6 36-1.4 0.2-2.8 0.3-4.1 0.3-40 4.6-60-14.2-59.9-56.3 8.3-68.8 35.2-112.9 80.7-132.1 7.5-3.2 15.8-4.4 23.9-3.5 16 1.8 27 9 33.3 21.5l5.9-24.5 33.6-4.9z m-52.8 88c3-35.2-8.7-51.4-35-48.8-24.4 8.7-40.6 36.3-48.5 82.6-4 26.9 3.3 40.6 21.9 41.2 2.1 0 4.2-0.1 6.2-0.4 23.3-3.2 41.8-28.1 55.4-74.6" fill="#FFDCDC" p-id="1492"></path><path d="M603 257.2c1.5 0.2 3 0.3 4.6 0.5 2.6 0.3 5.1 0.7 7.5 1.1 1.5 0.2 3 0.5 4.4 0.8 2.5 0.5 4.9 1 7.2 1.6 1.3 0.3 2.6 0.6 3.8 0.9 4 1.1 7.9 2.2 11.6 3.6 0.6 0.2 1.2 0.5 1.8 0.7 3.2 1.2 6.2 2.5 9.2 3.9 2 0.9 4 1.9 5.9 2.9l-22.5-12.3c-1.4-0.8-2.9-1.5-4.3-2.2-0.5-0.2-1-0.4-1.5-0.7-3-1.4-6-2.7-9.2-3.9-0.6-0.2-1.2-0.5-1.7-0.7-3.7-1.4-7.6-2.5-11.6-3.6-0.4-0.1-0.7-0.2-1-0.3-0.9-0.2-1.9-0.4-2.8-0.6-2.4-0.6-4.8-1.1-7.2-1.6-1.5-0.3-2.9-0.5-4.4-0.8-2.5-0.4-5-0.8-7.5-1.1-1.5-0.2-3-0.4-4.6-0.5-2.8-0.3-5.7-0.5-8.6-0.6-1.4-0.1-2.7-0.2-4.1-0.2h-0.1c-9-0.3-18 0.8-26.7 3.1-2.3 0.6-4.7 1.2-7 1.9-2.1 0.6-4.2 1.3-6.3 1.9-4.5 1.4-9 2.7-13.3 4.3-2.3 0.8-4.6 1.7-6.9 2.5-4 1.5-8 3.1-11.8 4.7-2.2 0.9-4.4 1.9-6.5 2.8-1.2 0.5-2.4 1-3.6 1.6-2 1-3.9 2.1-5.9 3.1-3.1 1.6-6.2 3.1-9.2 4.8-2.9 1.6-5.6 3.3-8.4 5-2.9 1.8-5.8 3.5-8.5 5.4-0.9 0.6-2 1.2-2.9 1.8-2.8 1.9-5.5 4-8.1 6l-2.4 1.8c-3.9 3.1-7.7 6.2-11.4 9.5-0.6 0.5-1.1 1.1-1.7 1.6-0.8 0.8-1.6 1.6-2.5 2.4-3.7 3.5-7.2 7.1-10.6 10.8-0.5 0.5-1 1.1-1.5 1.6-0.2 0.2-0.4 0.5-0.7 0.7-3.4 3.9-6.6 7.9-9.8 12.1-0.7 1-1.4 1.9-2.1 2.9-0.8 1.1-1.7 2.2-2.5 3.3-2.5 3.5-4.8 7.1-7.1 10.8-0.1 0.1-0.2 0.3-0.3 0.4-2.1 3.5-4.1 7-6.1 10.6-0.6 1.1-1.1 2.3-1.6 3.4-1 1.9-1.9 3.8-2.8 5.7-1.8 3.7-3.4 7.4-5 11.1-0.9 2.2-1.8 4.4-2.7 6.7-0.5 1.3-1.1 2.5-1.5 3.8-0.8 2.3-1.5 4.7-2.3 7-0.9 2.6-1.7 5.1-2.5 7.8-1.2 3.8-2.2 7.8-3.2 11.7-0.7 2.6-1.4 5.1-1.9 7.7-1 4.5-1.8 9.1-2.7 13.7-0.4 2.3-0.9 4.5-1.3 6.8v0.2c-2.6 16.5-2.4 33.4 0.6 49.8 7.9 43.4 28.1 73.9 60.5 91.6l22.5 12.3c-32.5-17.7-52.6-48.2-60.5-91.6-3-16.4-3.2-33.3-0.6-49.8v-0.2c0.4-2.3 0.9-4.5 1.3-6.8 0.8-4.6 1.7-9.2 2.7-13.7 0.6-2.6 1.3-5.2 2-7.7 1-4 2-7.9 3.2-11.7 0.8-2.6 1.7-5.2 2.5-7.8 1.2-3.7 2.5-7.3 3.8-10.8 0.9-2.3 1.8-4.5 2.7-6.7 1.5-3.6 3.1-7.1 4.7-10.5 1-2.1 2-4.2 3.1-6.3 2.5-4.8 5-9.4 7.7-13.9 0.1-0.1 0.2-0.3 0.3-0.4 3-4.9 6.2-9.5 9.5-14.1 0.7-1 1.4-1.9 2.1-2.9 3.3-4.4 6.8-8.7 10.4-12.8 0.5-0.5 1-1.1 1.5-1.6 3.4-3.7 6.9-7.3 10.6-10.8 0.8-0.8 1.6-1.6 2.5-2.4 4.2-3.8 8.5-7.5 13-11.1l2.4-1.8c3.6-2.7 7.3-5.3 11-7.8 2.8-1.9 5.7-3.6 8.5-5.4 2.8-1.7 5.5-3.4 8.4-5 3-1.7 6.1-3.2 9.2-4.8 3.1-1.6 6.3-3.2 9.5-4.6 2.1-1 4.3-1.9 6.5-2.8 3.9-1.6 7.8-3.2 11.8-4.7 2.3-0.9 4.6-1.7 6.9-2.5 4.3-1.5 8.8-2.9 13.3-4.3 2.1-0.6 4.1-1.3 6.3-1.9 2.3-0.6 4.6-1.3 7-1.9 8.7-2.3 17.7-3.4 26.7-3.1h0.1c1.4 0.1 2.7 0.2 4.1 0.2 3-0.1 5.8 0.1 8.6 0.4z" fill="#FFAFAF" p-id="1493"></path><path d="M621.9 552.9l-218.3 30.7-274.4-137.9-0.9 485.4c0 0.6 0.1 1.1 0.2 1.7 0.7 5.1 4.9 8.6 10 7.9l747.4-105c5.1-0.7 9.3-5.4 10-10.7 0.1-0.6 0.2-1.2 0.2-1.7l0.9-485.4-275.1 215z" fill="#D5E1FF" p-id="1494"></path><path d="M129.2 464.7l274.4 137.9-275.1 349.2c-0.1-0.6-0.2-1.1-0.2-1.7l0.9-485.4zM896.9 356.8l-0.9 485.4c0 0.6-0.1 1.2-0.2 1.7l-274-272.1 275.1-215z" fill="#BBD2FF" p-id="1495"></path><path d="M621.9 571.8l274 272.1c-0.7 5.3-4.9 10-10 10.7l-747.4 105c-5.1 0.7-9.2-2.8-10-7.9l275.1-349.2 218.3-30.7z" fill="#D5E1FF" p-id="1496"></path></svg>
