<svg xmlns="http://www.w3.org/2000/svg" viewBox="0 0 128 128"><path fill-rule="evenodd" clip-rule="evenodd" fill="#3A4D54" d="M73.8 50.8h11.3v11.5h5.7c2.6 0 5.3-.5 7.8-1.3 1.2-.4 2.6-1 3.8-1.7-1.6-2.1-2.4-4.7-2.6-7.3-.3-3.5.4-8.1 2.8-10.8l1.2-1.4 1.4 1.1c3.6 2.9 6.5 6.8 7.1 11.4 4.3-1.3 9.3-1 13.1 1.2l1.5.9-.8 1.6c-3.2 6.2-9.9 8.2-16.4 7.8-9.8 24.3-31 35.8-56.8 35.8-13.3 0-25.5-5-32.5-16.8l-.1-.2-1-2.1c-2.4-5.2-3.1-10.9-2.6-16.6l.2-1.7h9.6V50.8h11.3V39.6h22.5V28.3h13.5v22.5z"/><path fill="#00AADA" d="M110.4 55.1c.8-5.9-3.6-10.5-6.4-12.7-3.1 3.6-3.6 13.2 1.3 17.2-2.8 2.4-8.5 4.7-14.5 4.7H18.6c-.6 6.2.5 11.9 3 16.8l.8 1.5c.5.9 1.1 1.7 1.7 2.6 3 .2 5.7.3 8.2.2 4.9-.1 8.9-.7 12-1.7.5-.2.9.1 1.1.5.2.5-.1.9-.5 1.1-.4.1-.8.3-1.3.4-2.4.7-5 1.1-8.3 1.3h-.6c-1.3.1-2.7.1-4.2.1-1.6 0-3.1 0-4.9-.1 6 6.8 15.4 10.8 27.2 10.8 25 0 46.2-11.1 55.5-35.9 6.7.7 13.1-1 16-6.7-4.5-2.7-10.5-1.8-13.9-.1z"/><path fill="#28B8EB" d="M110.4 55.1c.8-5.9-3.6-10.5-6.4-12.7-3.1 3.6-3.6 13.2 1.3 17.2-2.8 2.4-8.5 4.7-14.5 4.7h-68c-.3 9.5 3.2 16.7 9.5 21 4.9-.1 8.9-.7 12-1.7.5-.2.9.1 1.1.5.2.5-.1.9-.5 1.1-.4.1-.8.3-1.3.4-2.4.7-5.2 1.2-8.5 1.4l-.1-.1c8.5 4.4 20.8 4.3 35-1.1 15.8-6.1 30.6-17.7 40.9-30.9-.2.1-.4.1-.5.2z"/><path fill="#028BB8" d="M18.7 71.8c.4 3.3 1.4 6.4 2.9 9.3l.8 1.5c.5.9 1.1 1.7 1.7 2.6 3 .2 5.7.3 8.2.2 4.9-.1 8.9-.7 12-1.7.5-.2.9.1 1.1.5.2.5-.1.9-.5 1.1-.4.1-.8.3-1.3.4-2.4.7-5.2 1.2-8.5 1.4h-.4c-1.3.1-2.7.1-4.1.1-1.6 0-3.2 0-4.9-.1 6 6.8 15.5 10.8 27.3 10.8 21.4 0 40-8.1 50.8-26H18.7v-.1z"/><path fill="#019BC6" d="M23.5 71.8c1.3 5.8 4.3 10.4 8.8 13.5 4.9-.1 8.9-.7 12-1.7.5-.2.9.1 1.1.5.2.5-.1.9-.5 1.1-.4.1-.8.3-1.3.4-2.4.7-5.2 1.2-8.6 1.4 8.5 4.4 20.8 4.3 34.9-1.1 8.5-3.3 16.8-8.2 24.2-14.1H23.5z"/><path fill-rule="evenodd" clip-rule="evenodd" fill="#00ACD3" d="M28.4 52.7h9.8v9.8h-9.8v-9.8zm.8.8h.8v8.1h-.8v-8.1zm1.4 0h.8v8.1h-.8v-8.1zm1.5 0h.8v8.1h-.8v-8.1zm1.5 0h.8v8.1h-.8v-8.1zm1.5 0h.8v8.1h-.8v-8.1zm1.5 0h.8v8.1h-.8v-8.1zm3-12h9.8v9.8h-9.8v-9.8zm.9.8h.8v8.1h-.8v-8.1zm1.4 0h.8v8.1h-.8v-8.1zm1.5 0h.8v8.1h-.8v-8.1zm1.5 0h.8v8.1h-.8v-8.1zm1.4 0h.8v8.1h-.8v-8.1zm1.5 0h.8v8.1h-.8v-8.1z"/><path fill-rule="evenodd" clip-rule="evenodd" fill="#23C2EE" d="M39.6 52.7h9.8v9.8h-9.8v-9.8zm.9.8h.8v8.1h-.8v-8.1zm1.4 0h.8v8.1h-.8v-8.1zm1.5 0h.8v8.1h-.8v-8.1zm1.5 0h.8v8.1h-.8v-8.1zm1.4 0h.8v8.1h-.8v-8.1zm1.5 0h.8v8.1h-.8v-8.1z"/><path fill-rule="evenodd" clip-rule="evenodd" fill="#00ACD3" d="M50.9 52.7h9.8v9.8h-9.8v-9.8zm.8.8h.8v8.1h-.8v-8.1zm1.5 0h.8v8.1h-.8v-8.1zm1.5 0h.8v8.1h-.8v-8.1zm1.4 0h.8v8.1h-.8v-8.1zm1.5 0h.8v8.1h-.8v-8.1zm1.5 0h.8v8.1h-.8v-8.1z"/><path fill-rule="evenodd" clip-rule="evenodd" fill="#23C2EE" d="M50.9 41.5h9.8v9.8h-9.8v-9.8zm.8.8h.8v8.1h-.8v-8.1zm1.5 0h.8v8.1h-.8v-8.1zm1.5 0h.8v8.1h-.8v-8.1zm1.4 0h.8v8.1h-.8v-8.1zm1.5 0h.8v8.1h-.8v-8.1zm1.5 0h.8v8.1h-.8v-8.1zm3.1 10.4H72v9.8h-9.8v-9.8zm.8.8h.8v8.1H63v-8.1zm1.5 0h.8v8.1h-.8v-8.1zm1.4 0h.8v8.1h-.8v-8.1zm1.5 0h.8v8.1h-.8v-8.1zm1.5 0h.8v8.1h-.8v-8.1zm1.5 0h.8v8.1h-.8v-8.1z"/><path fill-rule="evenodd" clip-rule="evenodd" fill="#00ACD3" d="M62.2 41.5H72v9.8h-9.8v-9.8zm.8.8h.8v8.1H63v-8.1zm1.5 0h.8v8.1h-.8v-8.1zm1.4 0h.8v8.1h-.8v-8.1zm1.5 0h.8v8.1h-.8v-8.1zm1.5 0h.8v8.1h-.8v-8.1zm1.5 0h.8v8.1h-.8v-8.1z"/><path fill-rule="evenodd" clip-rule="evenodd" fill="#23C2EE" d="M62.2 30.2H72V40h-9.8v-9.8zm.8.8h.8v8.1H63V31zm1.5 0h.8v8.1h-.8V31zm1.4 0h.8v8.1h-.8V31zm1.5 0h.8v8.1h-.8V31zm1.5 0h.8v8.1h-.8V31zm1.5 0h.8v8.1h-.8V31z"/><path fill-rule="evenodd" clip-rule="evenodd" fill="#00ACD3" d="M73.5 52.7h9.8v9.8h-9.8v-9.8zm.8.8h.8v8.1h-.8v-8.1zm1.4 0h.8v8.1h-.8v-8.1zm1.5 0h.8v8.1h-.8v-8.1zm1.5 0h.8v8.1h-.8v-8.1zm1.5 0h.8v8.1h-.8v-8.1zm1.5 0h.8v8.1h-.8v-8.1z"/><path fill-rule="evenodd" clip-rule="evenodd" fill="#D4EEF1" d="M48.8 78.3c1.5 0 2.7 1.2 2.7 2.7 0 1.5-1.2 2.7-2.7 2.7-1.5 0-2.7-1.2-2.7-2.7 0-1.5 1.2-2.7 2.7-2.7"/><path fill-rule="evenodd" clip-rule="evenodd" fill="#3A4D54" d="M48.8 79.1c.2 0 .5 0 .7.1-.2.1-.4.4-.4.7 0 .4.4.8.8.8.3 0 .6-.2.7-.4.1.2.1.5.1.7 0 1.1-.9 1.9-1.9 1.9-1.1 0-1.9-.9-1.9-1.9 0-1 .8-1.9 1.9-1.9M1.1 72.8h125.4c-2.7-.7-8.6-1.6-7.7-5.2-5 5.7-16.9 4-20 1.2-3.4 4.9-23 3-24.3-.8-4.2 5-17.3 5-21.5 0-1.4 3.8-21 5.7-24.3.8-3 2.8-15 4.5-20-1.2 1.1 3.5-4.9 4.5-7.6 5.2"/><path fill="#BFDBE0" d="M56 97.8c-6.7-3.2-10.3-7.5-12.4-12.2-2.5.7-5.5 1.2-8.9 1.4-1.3.1-2.7.1-4.1.1-1.7 0-3.4 0-5.2-.1 6 6 13.6 10.7 27.5 10.8H56z"/><path fill="#D4EEF1" d="M46.1 89.9c-.9-1.3-1.8-2.8-2.5-4.3-2.5.7-5.5 1.2-8.9 1.4 2.3 1.2 5.7 2.4 11.4 2.9z"/></svg>
