<svg xmlns="http://www.w3.org/2000/svg" width="29" height="10" viewBox="0 0 29 10" fill="none">
  <path d="M1.66667 0C0.666667 0 0 0.833333 0 1.66667V4.58333C0 5.41667 0.666667 6.25 1.66667 6.25H5.83333V7.5H0V10H6.66667C7.66667 10 8.33333 9.16667 8.33333 8.33333V5.41667C8.33333 4.58333 7.66667 3.75 6.66667 3.75H2.5V2.5H8.33333V0H1.66667ZM11.6667 0C10.6667 0 10 0.833333 10 1.66667V4.58333C10 5.41667 10.6667 6.25 11.6667 6.25H15.8333V7.5H10V10H16.6667C17.6667 10 18.3333 9.16667 18.3333 8.33333V5.41667C18.3333 4.58333 17.6667 3.75 16.6667 3.75H12.5V2.5H18.3333V0H11.6667ZM20 0V10H22.5V5.83333H25.8333V10H28.3333V0H25.8333V3.33333H22.5V0H20Z" fill="white"/>
</svg>
