<svg width="12" height="12" viewBox="0 0 12 12" fill="none" xmlns="http://www.w3.org/2000/svg">
<g id="robot, bot">
<path id="Icon" fill-rule="evenodd" clip-rule="evenodd" d="M6 0.5C6.27614 0.5 6.5 0.723858 6.5 1V1.5H8.5C9.32843 1.5 10 2.17157 10 3V5.5C10 5.94425 9.80688 6.34339 9.5 6.61805V7.29289L10.3536 8.14645C10.5488 8.34171 10.5488 8.65829 10.3536 8.85355C10.1583 9.04882 9.84171 9.04882 9.64645 8.85355L9.34052 8.54762C8.89526 9.96884 7.56805 11 6 11C4.43195 11 3.10474 9.96884 2.65948 8.54762L2.35355 8.85355C2.15829 9.04882 1.84171 9.04882 1.64645 8.85355C1.45118 8.65829 1.45118 8.34171 1.64645 8.14645L2.5 7.29289V6.61805C2.19313 6.34339 2 5.94425 2 5.5V3C2 2.17157 2.67157 1.5 3.5 1.5H5.5V1C5.5 0.723858 5.72386 0.5 6 0.5ZM3.5 2.5C3.22386 2.5 3 2.72386 3 3V5.5C3 5.77614 3.22386 6 3.5 6H8.5C8.77614 6 9 5.77614 9 5.5V3C9 2.72386 8.77614 2.5 8.5 2.5H3.5ZM4.5 3.5C4.77614 3.5 5 3.72386 5 4V4.5C5 4.77614 4.77614 5 4.5 5C4.22386 5 4 4.77614 4 4.5V4C4 3.72386 4.22386 3.5 4.5 3.5ZM7.5 3.5C7.77614 3.5 8 3.72386 8 4V4.5C8 4.77614 7.77614 5 7.5 5C7.22386 5 7 4.77614 7 4.5V4C7 3.72386 7.22386 3.5 7.5 3.5Z" fill="#667085"/>
</g>
</svg>
