<svg width="16" height="16" viewBox="0 0 16 16" fill="none" xmlns="http://www.w3.org/2000/svg">
<g clip-path="url(#clip0_109_6694)">
<path fill-rule="evenodd" clip-rule="evenodd" d="M0 2.86666C0 2.05664 0.656649 1.39999 1.46667 1.39999H5.86667C6.67668 1.39999 7.33333 2.05664 7.33333 2.86666C7.33333 3.27167 7.00501 3.59999 6.6 3.59999C6.19499 3.59999 5.86667 3.27167 5.86667 2.86666H4.4V7.99999C4.80501 7.99999 5.13333 8.32831 5.13333 8.73332C5.13333 9.13833 4.80501 9.46666 4.4 9.46666H2.93333C2.52832 9.46666 2.2 9.13833 2.2 8.73332C2.2 8.32831 2.52832 7.99999 2.93333 7.99999V2.86666H1.46667C1.46667 3.27167 1.13834 3.59999 0.733333 3.59999C0.328324 3.59999 0 3.27167 0 2.86666Z" fill="#444CE7"/>
<path d="M13.8205 0.782296C13.7434 0.62811 13.5233 0.62811 13.4462 0.782296C12.9664 1.74206 12.8754 1.83302 11.9156 2.3129C11.7615 2.39 11.7615 2.61003 11.9156 2.68712C12.8754 3.167 12.9664 3.25797 13.4462 4.21773C13.5233 4.37191 13.7434 4.37191 13.8205 4.21773C14.3003 3.25797 14.3913 3.167 15.3511 2.68712C15.5053 2.61003 15.5053 2.39 15.3511 2.3129C14.3913 1.83302 14.3003 1.74206 13.8205 0.782296Z" fill="#444CE7"/>
<path d="M9.79394 2.25319C9.71404 2.09337 9.48596 2.09337 9.40605 2.25319C9.04994 2.96543 8.96544 3.04993 8.2532 3.40605C8.09338 3.48595 8.09338 3.71402 8.2532 3.79393C8.96544 4.15005 9.04994 4.23455 9.40606 4.94679C9.48596 5.10661 9.71404 5.10661 9.79394 4.94679C10.1501 4.23455 10.2346 4.15005 10.9468 3.79393C11.1066 3.71402 11.1066 3.48595 10.9468 3.40605C10.2346 3.04993 10.1501 2.96543 9.79394 2.25319Z" fill="#444CE7"/>
<path d="M2.75377 11.049C2.67668 10.8948 2.45665 10.8948 2.37956 11.049C1.89969 12.0087 1.80872 12.0997 0.848971 12.5796C0.694788 12.6566 0.694787 12.8767 0.848971 12.9538C1.80872 13.4336 1.89969 13.5246 2.37956 14.4844C2.45665 14.6385 2.67668 14.6385 2.75377 14.4844C3.23365 13.5246 3.32461 13.4336 4.28436 12.9538C4.43855 12.8767 4.43855 12.6566 4.28436 12.5796C3.32461 12.0997 3.23365 12.0087 2.75377 11.049Z" fill="#444CE7"/>
<path fill-rule="evenodd" clip-rule="evenodd" d="M14.6741 8.65106C14.8886 8.50146 15.1837 8.55405 15.3333 8.76853C15.7614 9.38226 16.0125 10.1292 16.0125 10.9333C16.0125 11.7375 15.7614 12.4844 15.3333 13.0981C15.1837 13.3126 14.8886 13.3652 14.6741 13.2156C14.4596 13.066 14.407 12.7708 14.5567 12.5564C14.8775 12.0964 15.0656 11.5375 15.0656 10.9333C15.0656 10.3291 14.8775 9.77025 14.5567 9.31028C14.407 9.09581 14.4596 8.80066 14.6741 8.65106Z" fill="#444CE7"/>
<path fill-rule="evenodd" clip-rule="evenodd" d="M12.5674 6.53771C12.794 6.51987 13.0155 6.61161 13.1632 6.78449C13.2954 6.93929 13.3164 7.12549 13.3244 7.21587C13.3334 7.31718 13.3334 7.44301 13.3333 7.57103C13.3333 7.57691 13.3333 7.58278 13.3333 7.58866L13.3333 14.3C13.3334 14.428 13.3334 14.5539 13.3244 14.6552C13.3164 14.7455 13.2954 14.9317 13.1632 15.0865C13.0155 15.2594 12.794 15.3512 12.5674 15.3333C12.3644 15.3173 12.2179 15.2005 12.1484 15.1423C12.0704 15.077 11.9814 14.988 11.8909 14.8975L10.3795 13.3861C10.3357 13.3423 10.3137 13.3205 10.2971 13.3053L10.2958 13.3041L10.2941 13.3041C10.2716 13.303 10.2407 13.3029 10.1787 13.3029L9.34101 13.3029C9.22151 13.3029 9.10513 13.3029 9.00657 13.2949C8.89833 13.286 8.77062 13.2652 8.6421 13.1997C8.46392 13.1089 8.31906 12.964 8.22827 12.7859C8.16279 12.6574 8.14192 12.5296 8.13308 12.4214C8.12503 12.3228 8.12504 12.2065 8.12505 12.087V9.79916C8.12505 9.79413 8.12505 9.78909 8.12505 9.78406C8.12504 9.66456 8.12503 9.54819 8.13308 9.44963C8.14192 9.34139 8.16279 9.21368 8.22827 9.08517C8.31906 8.90699 8.46392 8.76212 8.6421 8.67133C8.77062 8.60585 8.89833 8.58498 9.00657 8.57614C9.10512 8.56809 9.2215 8.5681 9.341 8.56812C9.34603 8.56812 9.35106 8.56812 9.3561 8.56812H10.1787C10.2407 8.56812 10.2716 8.56801 10.2941 8.56698L10.2958 8.5669L10.2971 8.56575C10.3137 8.55058 10.3357 8.52877 10.3795 8.48491L11.8784 6.98602C11.8826 6.98186 11.8867 6.97771 11.8909 6.97355C11.9814 6.88302 12.0704 6.79403 12.1484 6.72874C12.2179 6.67049 12.3644 6.55368 12.5674 6.53771Z" fill="#444CE7"/>
</g>
<defs>
<clipPath id="clip0_109_6694">
<rect width="16" height="16" fill="white"/>
</clipPath>
</defs>
</svg>
