<?xml version="1.0" encoding="utf-8"?>
<!-- Generator: Adobe Illustrator 19.2.1, SVG Export Plug-In . SVG Version: 6.00 Build 0)  -->
<!DOCTYPE svg PUBLIC "-//W3C//DTD SVG 1.1//EN" "http://www.w3.org/Graphics/SVG/1.1/DTD/svg11.dtd">
<svg version="1.1" id="Layer_1" xmlns="http://www.w3.org/2000/svg" xmlns:xlink="http://www.w3.org/1999/xlink" x="0px" y="0px"
	 viewBox="0 0 200 130.2" style="enable-background:new 0 0 200 130.2;" xml:space="preserve">
<style type="text/css">
	.st0{fill:#3EB1C8;}
	.st1{fill:#D8D2C4;}
	.st2{fill:#4F5858;}
	.st3{fill:#FFC72C;}
	.st4{fill:#EF3340;}
</style>
<g>
	<polygon class="st0" points="111.8,95.5 111.8,66.8 135.4,59 177.2,73.3 	"/>
	<polygon class="st1" points="153.6,36.8 111.8,51.2 135.4,59 177.2,44.6 	"/>
	<polygon class="st2" points="135.4,59 177.2,44.6 177.2,73.3 	"/>
	<polygon class="st3" points="177.2,0.3 177.2,29 153.6,36.8 111.8,22.5 	"/>
	<polygon class="st4" points="153.6,36.8 111.8,51.2 111.8,22.5 	"/>
	<g>
		<g>
			<g>
				<g>
					<path class="st2" d="M26.3,104.8c-0.5-3.7-4.1-6.5-8.1-6.5c-7.3,0-10.1,6.2-10.1,12.7c0,6.2,2.8,12.4,10.1,12.4
						c5,0,7.8-3.4,8.4-8.3h7.9c-0.8,9.2-7.2,15.2-16.3,15.2C6.8,130.2,0,121.7,0,111c0-11,6.8-19.6,18.2-19.6c8.2,0,15,4.8,16,13.3
						H26.3z"/>
					<path class="st2" d="M37.4,102.5h7v5h0.1c1.4-3.4,5-5.7,8.6-5.7c0.5,0,1.1,0.1,1.6,0.3v6.9c-0.7-0.2-1.8-0.3-2.6-0.3
						c-5.4,0-7.3,3.9-7.3,8.6v12.1h-7.4V102.5z"/>
					<path class="st2" d="M68.7,101.8c8.5,0,13.9,5.6,13.9,14.2c0,8.5-5.5,14.1-13.9,14.1c-8.4,0-13.9-5.6-13.9-14.1
						C54.9,107.4,60.3,101.8,68.7,101.8z M68.7,124.5c5,0,6.5-4.3,6.5-8.6c0-4.3-1.5-8.6-6.5-8.6c-5,0-6.5,4.3-6.5,8.6
						C62.2,120.2,63.8,124.5,68.7,124.5z"/>
					<path class="st2" d="M91.2,120.6c0.1,3.2,2.8,4.5,5.7,4.5c2.1,0,4.8-0.8,4.8-3.4c0-2.2-3.1-3-8.4-4.2c-4.3-0.9-8.5-2.4-8.5-7.2
						c0-6.9,5.9-8.6,11.7-8.6c5.9,0,11.3,2,11.8,8.6h-7c-0.2-2.9-2.4-3.6-5-3.6c-1.7,0-4.1,0.3-4.1,2.5c0,2.6,4.2,3,8.4,4
						c4.3,1,8.5,2.5,8.5,7.5c0,7.1-6.1,9.3-12.3,9.3c-6.2,0-12.3-2.3-12.6-9.5H91.2z"/>
					<path class="st2" d="M118.1,120.6c0.1,3.2,2.8,4.5,5.7,4.5c2.1,0,4.8-0.8,4.8-3.4c0-2.2-3.1-3-8.4-4.2
						c-4.3-0.9-8.5-2.4-8.5-7.2c0-6.9,5.9-8.6,11.7-8.6c5.9,0,11.3,2,11.8,8.6h-7c-0.2-2.9-2.4-3.6-5-3.6c-1.7,0-4.1,0.3-4.1,2.5
						c0,2.6,4.2,3,8.4,4c4.3,1,8.5,2.5,8.5,7.5c0,7.1-6.1,9.3-12.3,9.3c-6.2,0-12.3-2.3-12.6-9.5H118.1z"/>
					<path class="st2" d="M138.4,102.5h7v5h0.1c1.4-3.4,5-5.7,8.6-5.7c0.5,0,1.1,0.1,1.6,0.3v6.9c-0.7-0.2-1.8-0.3-2.6-0.3
						c-5.4,0-7.3,3.9-7.3,8.6v12.1h-7.4V102.5z"/>
					<path class="st2" d="M163.7,117.7c0.2,4.7,2.5,6.8,6.6,6.8c3,0,5.3-1.8,5.8-3.5h6.5c-2.1,6.3-6.5,9-12.6,9
						c-8.5,0-13.7-5.8-13.7-14.1c0-8,5.6-14.2,13.7-14.2c9.1,0,13.6,7.7,13,15.9H163.7z M175.7,113.1c-0.7-3.7-2.3-5.7-5.9-5.7
						c-4.7,0-6,3.6-6.1,5.7H175.7z"/>
					<path class="st2" d="M187.2,107.5h-4.4v-4.9h4.4v-2.1c0-4.7,3-8.2,9-8.2c1.3,0,2.6,0.2,3.9,0.2V98c-0.9-0.1-1.8-0.2-2.7-0.2
						c-2,0-2.8,0.8-2.8,3.1v1.6h5.1v4.9h-5.1v21.9h-7.4V107.5z"/>
				</g>
			</g>
		</g>
	</g>
</g>
</svg>
