<svg width="12" height="12" viewBox="0 0 12 12" fill="none" xmlns="http://www.w3.org/2000/svg">
<path fill-rule="evenodd" clip-rule="evenodd" d="M0.631586 8.25C0.631586 6.46656 2.04586 5 3.8158 5C5.58573 5 7.00001 6.46656 7.00001 8.25C7.00001 10.0334 5.58573 11.5 3.8158 11.5C3.45197 11.5 3.10149 11.4375 2.77474 11.3222C2.72073 11.3031 2.68723 11.2913 2.66266 11.2832C2.65821 11.2817 2.65456 11.2806 2.65164 11.2796L2.64892 11.2799C2.63177 11.2818 2.60839 11.285 2.56507 11.2909L1.06766 11.4954C0.905637 11.5175 0.743029 11.459 0.632239 11.3387C0.521449 11.2185 0.476481 11.0516 0.511825 10.8919L0.817497 9.51109C0.828118 9.46311 0.833802 9.43722 0.837453 9.41817C0.83766 9.4171 0.838022 9.41517 0.838022 9.41517C0.837114 9.412 0.835963 9.40808 0.834525 9.40332C0.826292 9.37605 0.814183 9.33888 0.794499 9.27863C0.688657 8.95463 0.631586 8.60857 0.631586 8.25Z" fill="#98A2B3"/>
<path d="M2.57377 4.1863C2.96256 4.06535 3.37698 4 3.80894 4C6.16566 4 8.00006 5.94534 8.00006 8.24999C8.00006 8.65682 7.9429 9.05245 7.8358 9.42816C8.10681 9.37948 8.36964 9.30678 8.6219 9.21229C8.65748 9.19897 8.69298 9.18534 8.72893 9.17304C8.75795 9.17641 8.78684 9.18093 8.81574 9.18517L10.4222 9.42065C10.498 9.43179 10.5841 9.44444 10.6591 9.4487C10.7422 9.45343 10.8713 9.45292 11.0081 9.39408C11.1789 9.32061 11.3164 9.18628 11.3938 9.01716C11.4558 8.88174 11.4593 8.75269 11.4564 8.66955C11.4539 8.59442 11.4433 8.5081 11.4339 8.43202L11.2309 6.78307C11.2256 6.7402 11.2229 6.71768 11.2213 6.70118C11.23 6.66505 11.2466 6.6301 11.2598 6.59546C11.4492 6.09896 11.5526 5.56093 11.5526 5C11.5526 2.51163 9.52304 0.5 7.02632 0.5C4.80843 0.5 2.95915 2.08742 2.57377 4.1863Z" fill="#98A2B3"/>
</svg>
