<svg width="304" height="384" viewBox="0 0 304 384" fill="none" xmlns="http://www.w3.org/2000/svg">
<g filter="url(#filter0_dd_16666_88067)">
<g clip-path="url(#clip0_16666_88067)">
<rect x="12" width="280" height="360" rx="12" fill="white"/>
<mask id="path-2-inside-1_16666_88067" fill="white">
<path d="M12 0H292V32H12V0Z"/>
</mask>
<path d="M12 0H292V32H12V0Z" fill="#F9FAFB"/>
<path d="M292 31H12V33H292V31Z" fill="#F2F4F7" mask="url(#path-2-inside-1_16666_88067)"/>
<rect x="118" y="8" width="16" height="16" rx="4" fill="#D5F5F6"/>
<rect x="118.167" y="8.16667" width="15.6667" height="15.6667" rx="3.83333" stroke="black" stroke-opacity="0.05" stroke-width="0.333333"/>
<path d="M120.833 21.7467H131.5V11.08H120.833V21.7467Z" fill="black"/>
<g opacity="0.12">
<rect x="142" y="14" width="44" height="4" rx="2" fill="#101828"/>
</g>
<rect x="30" y="50" width="30" height="30" rx="15" fill="#D5F5F6"/>
<rect x="30.1875" y="50.1875" width="29.625" height="29.625" rx="14.8125" stroke="black" stroke-opacity="0.05" stroke-width="0.375"/>
<path d="M37.5 72.8H52.5V57.8H37.5V72.8Z" fill="#155EEF"/>
<path d="M72 50H224.8C231.521 50 234.881 50 237.448 51.3079C239.706 52.4584 241.542 54.2942 242.692 56.5521C244 59.1191 244 62.4794 244 69.2V153.3C244 160.021 244 163.381 242.692 165.948C241.542 168.206 239.706 170.042 237.448 171.192C234.881 172.5 231.521 172.5 224.8 172.5H91.2C84.4794 172.5 81.1191 172.5 78.5521 171.192C76.2942 170.042 74.4584 168.206 73.3079 165.948C72 163.381 72 160.021 72 153.3V50Z" fill="#F2F4F7"/>
<path fill-rule="evenodd" clip-rule="evenodd" d="M88.6877 62.25C86.7202 62.25 85.1252 63.845 85.1252 65.8125C85.1252 66.21 85.1904 66.593 85.3111 66.951C85.3323 67.014 85.3448 67.0512 85.3529 67.0787L85.3556 67.088L85.3542 67.0909C85.3446 67.1108 85.3302 67.1375 85.3034 67.1871L84.684 68.3336C84.6456 68.4047 84.6055 68.4788 84.578 68.5432C84.5506 68.6073 84.5062 68.7248 84.5281 68.8641C84.5536 69.0274 84.6498 69.1712 84.7909 69.2572C84.9112 69.3307 85.0368 69.3346 85.1064 69.3338C85.1765 69.333 85.2603 69.3243 85.3406 69.316L87.2737 69.1161C87.3047 69.1129 87.3209 69.1113 87.3327 69.1104L87.3342 69.1103L87.3389 69.1119C87.3535 69.1172 87.3732 69.1247 87.4073 69.1379C87.8052 69.2912 88.2371 69.375 88.6877 69.375C90.6552 69.375 92.2502 67.78 92.2502 65.8125C92.2502 63.845 90.6552 62.25 88.6877 62.25ZM87.3638 64.7183C87.7865 64.3616 88.3491 64.4664 88.6865 64.856C89.0239 64.4664 89.5793 64.3654 90.0093 64.7183C90.4393 65.0713 90.4915 65.6715 90.1595 66.0934C89.9539 66.3548 89.4377 66.8322 89.0746 67.1576C88.9413 67.2771 88.8746 67.3369 88.7946 67.361C88.726 67.3817 88.6471 67.3817 88.5785 67.361C88.4984 67.3369 88.4318 67.2771 88.2984 67.1576C87.9354 66.8322 87.4192 66.3548 87.2135 66.0934C86.8815 65.6715 86.9411 65.0751 87.3638 64.7183Z" fill="#667085"/>
<path d="M102.405 65.7273C102.405 66.4261 102.277 67.027 102.021 67.5298C101.766 68.0305 101.415 68.4162 100.97 68.6868C100.527 68.9553 100.023 69.0895 99.4581 69.0895C98.8913 69.0895 98.3853 68.9553 97.94 68.6868C97.4968 68.4162 97.1474 68.0295 96.8917 67.5266C96.636 67.0238 96.5082 66.424 96.5082 65.7273C96.5082 65.0284 96.636 64.4286 96.8917 63.9279C97.1474 63.4251 97.4968 63.0394 97.94 62.771C98.3853 62.5004 98.8913 62.3651 99.4581 62.3651C100.023 62.3651 100.527 62.5004 100.97 62.771C101.415 63.0394 101.766 63.4251 102.021 63.9279C102.277 64.4286 102.405 65.0284 102.405 65.7273ZM101.427 65.7273C101.427 65.1946 101.341 64.7461 101.168 64.3817C100.998 64.0153 100.763 63.7383 100.465 63.5508C100.169 63.3612 99.8331 63.2663 99.4581 63.2663C99.081 63.2663 98.7443 63.3612 98.4482 63.5508C98.152 63.7383 97.9176 64.0153 97.745 64.3817C97.5746 64.7461 97.4893 65.1946 97.4893 65.7273C97.4893 66.2599 97.5746 66.7095 97.745 67.076C97.9176 67.4403 98.152 67.7173 98.4482 67.907C98.7443 68.0945 99.081 68.1882 99.4581 68.1882C99.8331 68.1882 100.169 68.0945 100.465 67.907C100.763 67.7173 100.998 67.4403 101.168 67.076C101.341 66.7095 101.427 66.2599 101.427 65.7273ZM103.559 70.8409V64.0909H104.493V64.8867H104.573C104.628 64.7844 104.708 64.6662 104.812 64.532C104.917 64.3977 105.062 64.2805 105.247 64.1804C105.432 64.0781 105.677 64.027 105.982 64.027C106.378 64.027 106.732 64.1271 107.043 64.3274C107.354 64.5277 107.598 64.8164 107.775 65.1935C107.954 65.5707 108.043 66.0245 108.043 66.555C108.043 67.0856 107.955 67.5405 107.778 67.9197C107.601 68.2969 107.358 68.5877 107.049 68.7923C106.741 68.9947 106.388 69.0959 105.992 69.0959C105.693 69.0959 105.449 69.0458 105.26 68.9457C105.072 68.8455 104.925 68.7283 104.819 68.5941C104.712 68.4599 104.63 68.3406 104.573 68.2362H104.515V70.8409H103.559ZM104.496 66.5455C104.496 66.8906 104.546 67.1932 104.646 67.4531C104.746 67.7131 104.891 67.9165 105.081 68.0636C105.27 68.2085 105.503 68.2809 105.777 68.2809C106.063 68.2809 106.302 68.2053 106.493 68.054C106.685 67.9006 106.83 67.6928 106.928 67.4308C107.028 67.1687 107.078 66.8736 107.078 66.5455C107.078 66.2216 107.029 65.9308 106.931 65.6729C106.835 65.4151 106.69 65.2116 106.497 65.0625C106.305 64.9134 106.065 64.8388 105.777 64.8388C105.5 64.8388 105.266 64.9102 105.074 65.0529C104.885 65.1957 104.741 65.3949 104.643 65.6506C104.545 65.9062 104.496 66.2045 104.496 66.5455ZM111.23 69.0991C110.746 69.0991 110.33 68.9957 109.98 68.7891C109.633 68.5803 109.364 68.2873 109.175 67.9102C108.987 67.5309 108.894 67.0866 108.894 66.5774C108.894 66.0746 108.987 65.6314 109.175 65.2479C109.364 64.8643 109.629 64.565 109.967 64.3498C110.308 64.1346 110.707 64.027 111.163 64.027C111.44 64.027 111.708 64.0728 111.968 64.1644C112.228 64.256 112.461 64.3999 112.668 64.5959C112.875 64.7919 113.038 65.0465 113.157 65.3597C113.276 65.6708 113.336 66.049 113.336 66.4943V66.8331H109.434V66.1172H112.4C112.4 65.8658 112.348 65.6431 112.246 65.4492C112.144 65.2532 112 65.0987 111.815 64.9858C111.631 64.8729 111.416 64.8164 111.169 64.8164C110.901 64.8164 110.666 64.8825 110.466 65.0146C110.268 65.1445 110.114 65.315 110.006 65.5259C109.899 65.7347 109.846 65.9616 109.846 66.2067V66.766C109.846 67.0941 109.903 67.3732 110.019 67.6033C110.136 67.8335 110.299 68.0092 110.508 68.1307C110.716 68.25 110.96 68.3097 111.239 68.3097C111.421 68.3097 111.586 68.2841 111.735 68.233C111.884 68.1797 112.013 68.1009 112.122 67.9964C112.23 67.892 112.313 67.7631 112.371 67.6097L113.275 67.7727C113.203 68.0391 113.073 68.2724 112.885 68.4727C112.7 68.6708 112.467 68.8253 112.185 68.9361C111.906 69.0447 111.588 69.0991 111.23 69.0991ZM115.352 66.0852V69H114.396V64.0909H115.314V64.8899H115.374C115.487 64.63 115.664 64.4212 115.905 64.2635C116.148 64.1058 116.453 64.027 116.822 64.027C117.157 64.027 117.45 64.0973 117.701 64.2379C117.952 64.3764 118.147 64.5831 118.286 64.858C118.424 65.1328 118.494 65.4727 118.494 65.8775V69H117.538V65.9925C117.538 65.6367 117.445 65.3587 117.26 65.1584C117.075 64.956 116.82 64.8548 116.496 64.8548C116.275 64.8548 116.077 64.9027 115.905 64.9986C115.734 65.0945 115.599 65.2351 115.499 65.4205C115.401 65.6037 115.352 65.8253 115.352 66.0852ZM119.775 69V64.0909H120.731V69H119.775ZM120.258 63.3335C120.092 63.3335 119.949 63.2781 119.83 63.1673C119.712 63.0543 119.654 62.9201 119.654 62.7646C119.654 62.6069 119.712 62.4727 119.83 62.3619C119.949 62.2489 120.092 62.1925 120.258 62.1925C120.424 62.1925 120.566 62.2489 120.683 62.3619C120.802 62.4727 120.862 62.6069 120.862 62.7646C120.862 62.9201 120.802 63.0543 120.683 63.1673C120.566 63.2781 120.424 63.3335 120.258 63.3335ZM122.972 66.0852V69H122.016V64.0909H122.934V64.8899H122.994C123.107 64.63 123.284 64.4212 123.525 64.2635C123.768 64.1058 124.074 64.027 124.442 64.027C124.777 64.027 125.07 64.0973 125.321 64.2379C125.573 64.3764 125.767 64.5831 125.906 64.858C126.044 65.1328 126.114 65.4727 126.114 65.8775V69H125.158V65.9925C125.158 65.6367 125.065 65.3587 124.88 65.1584C124.695 64.956 124.44 64.8548 124.116 64.8548C123.895 64.8548 123.698 64.9027 123.525 64.9986C123.354 65.0945 123.219 65.2351 123.119 65.4205C123.021 65.6037 122.972 65.8253 122.972 66.0852ZM129.454 70.9432C129.064 70.9432 128.728 70.892 128.447 70.7898C128.168 70.6875 127.94 70.5522 127.763 70.3839C127.586 70.2156 127.454 70.0313 127.367 69.831L128.188 69.4922C128.245 69.5859 128.322 69.685 128.418 69.7894C128.516 69.896 128.648 69.9865 128.814 70.0611C128.983 70.1357 129.199 70.1729 129.463 70.1729C129.825 70.1729 130.125 70.0845 130.361 69.9077C130.598 69.733 130.716 69.4538 130.716 69.0703V68.1051H130.655C130.598 68.2095 130.515 68.3256 130.406 68.4535C130.299 68.5813 130.152 68.6921 129.965 68.7859C129.777 68.8796 129.533 68.9265 129.233 68.9265C128.845 68.9265 128.496 68.8359 128.185 68.6548C127.876 68.4716 127.631 68.2021 127.45 67.8462C127.271 67.4883 127.181 67.0483 127.181 66.5263C127.181 66.0043 127.27 65.5568 127.446 65.1839C127.625 64.8111 127.87 64.5256 128.182 64.3274C128.493 64.1271 128.845 64.027 129.239 64.027C129.544 64.027 129.79 64.0781 129.978 64.1804C130.165 64.2805 130.311 64.3977 130.416 64.532C130.522 64.6662 130.604 64.7844 130.662 64.8867H130.732V64.0909H131.668V69.1087C131.668 69.5305 131.57 69.8768 131.374 70.1474C131.178 70.418 130.913 70.6183 130.579 70.7482C130.246 70.8782 129.871 70.9432 129.454 70.9432ZM129.444 68.1339C129.719 68.1339 129.951 68.07 130.141 67.9421C130.332 67.8121 130.477 67.6268 130.575 67.386C130.676 67.1431 130.726 66.8523 130.726 66.5135C130.726 66.1832 130.677 65.8924 130.579 65.641C130.481 65.3896 130.337 65.1935 130.147 65.0529C129.957 64.9102 129.723 64.8388 129.444 64.8388C129.156 64.8388 128.917 64.9134 128.725 65.0625C128.533 65.2095 128.388 65.4098 128.29 65.6634C128.194 65.9169 128.146 66.2003 128.146 66.5135C128.146 66.8352 128.195 67.1175 128.293 67.3604C128.391 67.6033 128.536 67.793 128.728 67.9293C128.922 68.0657 129.161 68.1339 129.444 68.1339ZM139.01 65.2894L138.144 65.4428C138.108 65.332 138.051 65.2266 137.972 65.1264C137.895 65.0263 137.791 64.9442 137.659 64.8803C137.526 64.8164 137.361 64.7844 137.163 64.7844C136.893 64.7844 136.667 64.8452 136.486 64.9666C136.305 65.0859 136.214 65.2404 136.214 65.43C136.214 65.5941 136.275 65.7262 136.396 65.8263C136.518 65.9265 136.714 66.0085 136.984 66.0724L137.764 66.2514C138.216 66.3558 138.552 66.5167 138.774 66.734C138.996 66.9513 139.106 67.2337 139.106 67.581C139.106 67.875 139.021 68.1371 138.851 68.3672C138.682 68.5952 138.447 68.7741 138.144 68.9041C137.844 69.0341 137.496 69.0991 137.099 69.0991C136.55 69.0991 136.101 68.9819 135.754 68.7475C135.406 68.511 135.193 68.1754 135.115 67.7408L136.038 67.6001C136.096 67.8409 136.214 68.0231 136.393 68.1467C136.572 68.2681 136.805 68.3288 137.093 68.3288C137.406 68.3288 137.656 68.2638 137.844 68.1339C138.031 68.0018 138.125 67.8409 138.125 67.6513C138.125 67.4979 138.068 67.369 137.953 67.2646C137.84 67.1602 137.666 67.0813 137.432 67.0281L136.601 66.8459C136.143 66.7415 135.804 66.5753 135.584 66.3473C135.367 66.1193 135.258 65.8306 135.258 65.4812C135.258 65.1914 135.339 64.9379 135.501 64.7205C135.663 64.5032 135.887 64.3338 136.172 64.2124C136.458 64.0888 136.785 64.027 137.154 64.027C137.684 64.027 138.102 64.142 138.406 64.3722C138.711 64.6001 138.912 64.9059 139.01 65.2894ZM142.449 64.0909V64.858H139.767V64.0909H142.449ZM140.486 62.9148H141.442V67.5586C141.442 67.744 141.47 67.8835 141.525 67.9773C141.58 68.0689 141.652 68.1317 141.739 68.1658C141.829 68.1978 141.926 68.2138 142.03 68.2138C142.107 68.2138 142.174 68.2085 142.231 68.1978C142.289 68.1871 142.334 68.1786 142.366 68.1722L142.538 68.9616C142.483 68.983 142.404 69.0043 142.302 69.0256C142.199 69.049 142.071 69.0618 141.918 69.0639C141.667 69.0682 141.432 69.0234 141.215 68.9297C140.998 68.8359 140.822 68.6911 140.688 68.495C140.553 68.299 140.486 68.0529 140.486 67.7567V62.9148ZM144.934 69.1087C144.623 69.1087 144.342 69.0511 144.091 68.9361C143.839 68.8189 143.64 68.6495 143.493 68.4279C143.348 68.2063 143.276 67.9347 143.276 67.6129C143.276 67.3359 143.329 67.108 143.435 66.929C143.542 66.75 143.686 66.6083 143.867 66.5039C144.048 66.3995 144.25 66.3207 144.474 66.2674C144.698 66.2141 144.926 66.1737 145.158 66.146C145.452 66.1119 145.691 66.0842 145.874 66.0629C146.057 66.0394 146.19 66.0021 146.273 65.951C146.357 65.8999 146.398 65.8168 146.398 65.7017V65.6793C146.398 65.4002 146.319 65.1839 146.162 65.0305C146.006 64.8771 145.774 64.8004 145.465 64.8004C145.143 64.8004 144.89 64.8718 144.704 65.0146C144.521 65.1552 144.394 65.3118 144.324 65.4844L143.426 65.2798C143.532 64.9815 143.688 64.7408 143.892 64.5575C144.099 64.3722 144.337 64.2379 144.605 64.1548C144.874 64.0696 145.156 64.027 145.452 64.027C145.648 64.027 145.856 64.0504 146.075 64.0973C146.297 64.142 146.504 64.2251 146.695 64.3466C146.889 64.468 147.048 64.6417 147.172 64.8675C147.295 65.0913 147.357 65.3821 147.357 65.7401V69H146.424V68.3288H146.385C146.324 68.4524 146.231 68.5739 146.107 68.6932C145.984 68.8125 145.825 68.9116 145.631 68.9904C145.437 69.0692 145.205 69.1087 144.934 69.1087ZM145.142 68.3416C145.406 68.3416 145.632 68.2894 145.82 68.185C146.009 68.0806 146.153 67.9442 146.251 67.7759C146.351 67.6055 146.401 67.4233 146.401 67.2294V66.5966C146.367 66.6307 146.301 66.6626 146.203 66.6925C146.107 66.7202 145.998 66.7447 145.874 66.766C145.75 66.7852 145.63 66.8033 145.513 66.8203C145.396 66.8352 145.298 66.848 145.219 66.8587C145.033 66.8821 144.864 66.9215 144.711 66.9769C144.559 67.0323 144.438 67.1122 144.346 67.2166C144.257 67.3189 144.212 67.4553 144.212 67.6257C144.212 67.8622 144.299 68.0412 144.474 68.1626C144.649 68.282 144.871 68.3416 145.142 68.3416ZM150.921 64.0909V64.858H148.24V64.0909H150.921ZM148.959 62.9148H149.915V67.5586C149.915 67.744 149.942 67.8835 149.998 67.9773C150.053 68.0689 150.124 68.1317 150.212 68.1658C150.301 68.1978 150.398 68.2138 150.503 68.2138C150.579 68.2138 150.646 68.2085 150.704 68.1978C150.761 68.1871 150.806 68.1786 150.838 68.1722L151.011 68.9616C150.955 68.983 150.877 69.0043 150.774 69.0256C150.672 69.049 150.544 69.0618 150.391 69.0639C150.139 69.0682 149.905 69.0234 149.688 68.9297C149.47 68.8359 149.294 68.6911 149.16 68.495C149.026 68.299 148.959 68.0529 148.959 67.7567V62.9148ZM154.041 69.0991C153.558 69.0991 153.141 68.9957 152.792 68.7891C152.444 68.5803 152.176 68.2873 151.986 67.9102C151.799 67.5309 151.705 67.0866 151.705 66.5774C151.705 66.0746 151.799 65.6314 151.986 65.2479C152.176 64.8643 152.44 64.565 152.779 64.3498C153.12 64.1346 153.518 64.027 153.974 64.027C154.251 64.027 154.52 64.0728 154.78 64.1644C155.04 64.256 155.273 64.3999 155.48 64.5959C155.686 64.7919 155.849 65.0465 155.969 65.3597C156.088 65.6708 156.148 66.049 156.148 66.4943V66.8331H152.245V66.1172H155.211C155.211 65.8658 155.16 65.6431 155.058 65.4492C154.955 65.2532 154.812 65.0987 154.626 64.9858C154.443 64.8729 154.228 64.8164 153.981 64.8164C153.712 64.8164 153.478 64.8825 153.278 65.0146C153.079 65.1445 152.926 65.315 152.817 65.5259C152.711 65.7347 152.657 65.9616 152.657 66.2067V66.766C152.657 67.0941 152.715 67.3732 152.83 67.6033C152.947 67.8335 153.11 68.0092 153.319 68.1307C153.528 68.25 153.772 68.3097 154.051 68.3097C154.232 68.3097 154.397 68.2841 154.546 68.233C154.695 68.1797 154.824 68.1009 154.933 67.9964C155.042 67.892 155.125 67.7631 155.182 67.6097L156.087 67.7727C156.014 68.0391 155.884 68.2724 155.697 68.4727C155.512 68.6708 155.278 68.8253 154.997 68.9361C154.718 69.0447 154.399 69.0991 154.041 69.0991ZM157.208 69V64.0909H158.125V64.8899H158.186C158.288 64.6193 158.455 64.4084 158.688 64.2571C158.92 64.1037 159.198 64.027 159.522 64.027C159.85 64.027 160.125 64.1037 160.346 64.2571C160.57 64.4105 160.735 64.6214 160.842 64.8899H160.893C161.01 64.6278 161.196 64.419 161.452 64.2635C161.708 64.1058 162.013 64.027 162.366 64.027C162.812 64.027 163.175 64.1665 163.456 64.4457C163.739 64.7248 163.881 65.1456 163.881 65.7081V69H162.926V65.7976C162.926 65.4652 162.835 65.2244 162.654 65.0753C162.473 64.9261 162.256 64.8516 162.005 64.8516C161.694 64.8516 161.452 64.9474 161.28 65.1392C161.107 65.3288 161.021 65.5728 161.021 65.8711V69H160.068V65.7369C160.068 65.4705 159.985 65.2564 159.819 65.0945C159.653 64.9325 159.437 64.8516 159.17 64.8516C158.989 64.8516 158.822 64.8995 158.668 64.9954C158.517 65.0891 158.395 65.2202 158.301 65.3885C158.209 65.5568 158.163 65.7518 158.163 65.9734V69H157.208ZM167.278 69.0991C166.794 69.0991 166.377 68.9957 166.028 68.7891C165.681 68.5803 165.412 68.2873 165.223 67.9102C165.035 67.5309 164.941 67.0866 164.941 66.5774C164.941 66.0746 165.035 65.6314 165.223 65.2479C165.412 64.8643 165.676 64.565 166.015 64.3498C166.356 64.1346 166.755 64.027 167.211 64.027C167.488 64.027 167.756 64.0728 168.016 64.1644C168.276 64.256 168.509 64.3999 168.716 64.5959C168.923 64.7919 169.086 65.0465 169.205 65.3597C169.324 65.6708 169.384 66.049 169.384 66.4943V66.8331H165.482V66.1172H168.447C168.447 65.8658 168.396 65.6431 168.294 65.4492C168.192 65.2532 168.048 65.0987 167.863 64.9858C167.679 64.8729 167.464 64.8164 167.217 64.8164C166.949 64.8164 166.714 64.8825 166.514 65.0146C166.316 65.1445 166.162 65.315 166.054 65.5259C165.947 65.7347 165.894 65.9616 165.894 66.2067V66.766C165.894 67.0941 165.951 67.3732 166.066 67.6033C166.184 67.8335 166.347 68.0092 166.555 68.1307C166.764 68.25 167.008 68.3097 167.287 68.3097C167.468 68.3097 167.634 68.2841 167.783 68.233C167.932 68.1797 168.061 68.1009 168.169 67.9964C168.278 67.892 168.361 67.7631 168.419 67.6097L169.323 67.7727C169.251 68.0391 169.121 68.2724 168.933 68.4727C168.748 68.6708 168.515 68.8253 168.233 68.9361C167.954 69.0447 167.636 69.0991 167.278 69.0991ZM171.4 66.0852V69H170.444V64.0909H171.361V64.8899H171.422C171.535 64.63 171.712 64.4212 171.953 64.2635C172.196 64.1058 172.501 64.027 172.87 64.027C173.204 64.027 173.497 64.0973 173.749 64.2379C174 64.3764 174.195 64.5831 174.334 64.858C174.472 65.1328 174.541 65.4727 174.541 65.8775V69H173.586V65.9925C173.586 65.6367 173.493 65.3587 173.308 65.1584C173.122 64.956 172.868 64.8548 172.544 64.8548C172.322 64.8548 172.125 64.9027 171.953 64.9986C171.782 65.0945 171.647 65.2351 171.547 65.4205C171.449 65.6037 171.4 65.8253 171.4 66.0852ZM178.115 64.0909V64.858H175.433V64.0909H178.115ZM176.152 62.9148H177.108V67.5586C177.108 67.744 177.136 67.8835 177.191 67.9773C177.246 68.0689 177.318 68.1317 177.405 68.1658C177.495 68.1978 177.592 68.2138 177.696 68.2138C177.773 68.2138 177.84 68.2085 177.897 68.1978C177.955 68.1871 178 68.1786 178.032 68.1722L178.204 68.9616C178.149 68.983 178.07 69.0043 177.968 69.0256C177.865 69.049 177.737 69.0618 177.584 69.0639C177.333 69.0682 177.098 69.0234 176.881 68.9297C176.664 68.8359 176.488 68.6911 176.354 68.495C176.219 68.299 176.152 68.0529 176.152 67.7567V62.9148Z" fill="#667085"/>
<g opacity="0.1">
<rect x="84" y="77" width="148" height="4" rx="2" fill="#101828"/>
</g>
<g opacity="0.1">
<rect x="84" y="87" width="148" height="4" rx="2" fill="#101828"/>
</g>
<g opacity="0.1">
<rect x="84" y="97" width="92" height="4" rx="2" fill="#101828"/>
</g>
<path d="M66.7774 51.166C66.4451 50.6676 66.8024 50 67.4014 50H72V59L66.7774 51.166Z" fill="#F2F4F7"/>
<g filter="url(#filter1_d_16666_88067)">
<rect x="84" y="112" width="69.8" height="23.25" rx="6.6" fill="white"/>
<rect x="84.2063" y="112.206" width="69.3875" height="22.8375" rx="6.39375" stroke="#EAECF0" stroke-width="0.4125"/>
<path d="M97.3382 124.791H98.4069L99.1593 125.771L99.5144 126.207L100.713 127.772H99.6022L98.8007 126.728L98.5265 126.348L97.3382 124.791ZM100.945 123.525C100.945 124.294 100.805 124.955 100.523 125.508C100.242 126.059 99.8565 126.483 99.3667 126.78C98.8792 127.076 98.3249 127.223 97.7038 127.223C97.0804 127.223 96.5237 127.076 96.0339 126.78C95.5464 126.483 95.162 126.057 94.8808 125.504C94.5995 124.951 94.4589 124.291 94.4589 123.525C94.4589 122.756 94.5995 122.096 94.8808 121.546C95.162 120.993 95.5464 120.568 96.0339 120.273C96.5237 119.975 97.0804 119.827 97.7038 119.827C98.3249 119.827 98.8792 119.975 99.3667 120.273C99.8565 120.568 100.242 120.993 100.523 121.546C100.805 122.096 100.945 122.756 100.945 123.525ZM99.8694 123.525C99.8694 122.939 99.7745 122.446 99.5847 122.045C99.3972 121.642 99.1394 121.337 98.8112 121.131C98.4854 120.922 98.1163 120.818 97.7038 120.818C97.289 120.818 96.9187 120.922 96.5929 121.131C96.2671 121.337 96.0093 121.642 95.8194 122.045C95.6319 122.446 95.5382 122.939 95.5382 123.525C95.5382 124.111 95.6319 124.605 95.8194 125.009C96.0093 125.409 96.2671 125.714 96.5929 125.923C96.9187 126.129 97.289 126.232 97.7038 126.232C98.1163 126.232 98.4854 126.129 98.8112 125.923C99.1394 125.714 99.3972 125.409 99.5847 125.009C99.7745 124.605 99.8694 124.111 99.8694 123.525ZM105.636 124.886V121.725H106.691V127.125H105.657V126.19H105.601C105.477 126.478 105.277 126.718 105.003 126.911C104.731 127.1 104.393 127.195 103.987 127.195C103.64 127.195 103.333 127.119 103.066 126.967C102.801 126.812 102.593 126.584 102.44 126.281C102.29 125.979 102.215 125.605 102.215 125.16V121.725H103.266V125.033C103.266 125.401 103.368 125.694 103.572 125.912C103.776 126.13 104.041 126.239 104.367 126.239C104.564 126.239 104.759 126.19 104.954 126.091C105.151 125.993 105.314 125.844 105.443 125.645C105.574 125.446 105.638 125.193 105.636 124.886ZM110.43 127.234C109.898 127.234 109.44 127.12 109.056 126.893C108.674 126.663 108.378 126.341 108.17 125.926C107.964 125.509 107.86 125.02 107.86 124.46C107.86 123.907 107.964 123.42 108.17 122.998C108.378 122.576 108.669 122.246 109.042 122.01C109.417 121.773 109.855 121.655 110.357 121.655C110.661 121.655 110.957 121.705 111.242 121.806C111.528 121.907 111.785 122.065 112.012 122.28C112.24 122.496 112.419 122.776 112.55 123.121C112.682 123.463 112.747 123.879 112.747 124.369V124.741H108.455V123.954H111.717C111.717 123.677 111.661 123.432 111.548 123.219C111.436 123.004 111.278 122.834 111.074 122.709C110.872 122.585 110.635 122.523 110.364 122.523C110.068 122.523 109.81 122.596 109.59 122.741C109.372 122.884 109.203 123.071 109.084 123.304C108.967 123.533 108.908 123.783 108.908 124.052V124.668C108.908 125.029 108.971 125.336 109.098 125.589C109.227 125.842 109.406 126.035 109.636 126.169C109.866 126.3 110.134 126.366 110.441 126.366C110.64 126.366 110.822 126.337 110.986 126.281C111.15 126.223 111.292 126.136 111.411 126.021C111.531 125.906 111.622 125.764 111.685 125.596L112.68 125.775C112.601 126.068 112.458 126.325 112.251 126.545C112.048 126.763 111.791 126.933 111.482 127.055C111.175 127.174 110.824 127.234 110.43 127.234ZM117.96 123.043L117.007 123.212C116.967 123.09 116.904 122.974 116.817 122.864C116.733 122.754 116.618 122.664 116.473 122.593C116.328 122.523 116.146 122.488 115.928 122.488C115.63 122.488 115.382 122.555 115.183 122.688C114.983 122.82 114.884 122.989 114.884 123.198C114.884 123.379 114.951 123.524 115.084 123.634C115.218 123.744 115.433 123.834 115.731 123.905L116.589 124.102C117.086 124.216 117.456 124.393 117.7 124.632C117.944 124.871 118.065 125.182 118.065 125.564C118.065 125.887 117.972 126.176 117.784 126.429C117.599 126.68 117.34 126.877 117.007 127.02C116.677 127.163 116.294 127.234 115.858 127.234C115.253 127.234 114.76 127.105 114.378 126.847C113.996 126.587 113.761 126.218 113.674 125.74L114.69 125.585C114.754 125.85 114.884 126.05 115.081 126.186C115.278 126.32 115.534 126.387 115.851 126.387C116.195 126.387 116.471 126.315 116.677 126.172C116.883 126.027 116.986 125.85 116.986 125.641C116.986 125.473 116.923 125.331 116.796 125.216C116.672 125.101 116.481 125.014 116.223 124.956L115.309 124.755C114.805 124.641 114.433 124.458 114.191 124.207C113.952 123.956 113.833 123.639 113.833 123.254C113.833 122.936 113.922 122.657 114.1 122.418C114.278 122.179 114.524 121.992 114.838 121.859C115.152 121.723 115.512 121.655 115.917 121.655C116.501 121.655 116.96 121.781 117.296 122.034C117.631 122.285 117.852 122.621 117.96 123.043ZM121.742 121.725V122.569H118.792V121.725H121.742ZM119.583 120.431H120.634V125.539C120.634 125.743 120.665 125.897 120.726 126C120.787 126.101 120.865 126.17 120.961 126.207C121.06 126.243 121.167 126.26 121.281 126.26C121.366 126.26 121.44 126.254 121.503 126.243C121.566 126.231 121.615 126.221 121.65 126.214L121.84 127.083C121.779 127.106 121.693 127.13 121.58 127.153C121.468 127.179 121.327 127.193 121.158 127.195C120.882 127.2 120.624 127.151 120.385 127.048C120.146 126.945 119.952 126.785 119.805 126.57C119.657 126.354 119.583 126.083 119.583 125.757V120.431ZM122.905 127.125V121.725H123.956V127.125H122.905ZM123.436 120.892C123.253 120.892 123.096 120.831 122.964 120.709C122.836 120.585 122.771 120.437 122.771 120.266C122.771 120.093 122.836 119.945 122.964 119.823C123.096 119.699 123.253 119.637 123.436 119.637C123.618 119.637 123.774 119.699 123.903 119.823C124.034 119.945 124.1 120.093 124.1 120.266C124.1 120.437 124.034 120.585 123.903 120.709C123.774 120.831 123.618 120.892 123.436 120.892ZM127.645 127.234C127.138 127.234 126.697 127.118 126.319 126.886C125.942 126.654 125.649 126.329 125.44 125.912C125.232 125.495 125.127 125.007 125.127 124.45C125.127 123.889 125.232 123.4 125.44 122.98C125.649 122.561 125.942 122.235 126.319 122.003C126.697 121.771 127.138 121.655 127.645 121.655C128.151 121.655 128.593 121.771 128.97 122.003C129.347 122.235 129.64 122.561 129.849 122.98C130.058 123.4 130.162 123.889 130.162 124.45C130.162 125.007 130.058 125.495 129.849 125.912C129.64 126.329 129.347 126.654 128.97 126.886C128.593 127.118 128.151 127.234 127.645 127.234ZM127.648 126.352C127.976 126.352 128.248 126.265 128.464 126.091C128.679 125.918 128.839 125.687 128.942 125.399C129.047 125.111 129.1 124.793 129.1 124.446C129.1 124.102 129.047 123.785 128.942 123.497C128.839 123.206 128.679 122.973 128.464 122.797C128.248 122.621 127.976 122.534 127.648 122.534C127.318 122.534 127.043 122.621 126.825 122.797C126.61 122.973 126.449 123.206 126.344 123.497C126.241 123.785 126.189 124.102 126.189 124.446C126.189 124.793 126.241 125.111 126.344 125.399C126.449 125.687 126.61 125.918 126.825 126.091C127.043 126.265 127.318 126.352 127.648 126.352ZM132.386 123.919V127.125H131.335V121.725H132.344V122.604H132.411C132.535 122.318 132.73 122.088 132.995 121.915C133.262 121.741 133.598 121.655 134.004 121.655C134.371 121.655 134.694 121.732 134.97 121.887C135.247 122.039 135.461 122.266 135.614 122.569C135.766 122.871 135.842 123.245 135.842 123.69V127.125H134.791V123.817C134.791 123.425 134.689 123.12 134.485 122.899C134.281 122.677 134.001 122.565 133.645 122.565C133.401 122.565 133.184 122.618 132.995 122.723C132.807 122.829 132.658 122.984 132.548 123.187C132.44 123.389 132.386 123.633 132.386 123.919ZM142.59 119.925V127.125H141.5V121.015H141.458L139.735 122.14V121.099L141.531 119.925H142.59Z" fill="#155EEF"/>
</g>
<g filter="url(#filter2_d_16666_88067)">
<rect x="156.8" y="112" width="71.8" height="23.25" rx="6.6" fill="white"/>
<rect x="157.006" y="112.206" width="71.3875" height="22.8375" rx="6.39375" stroke="#EAECF0" stroke-width="0.4125"/>
<path d="M170.138 124.791H171.207L171.959 125.771L172.314 126.207L173.513 127.772H172.402L171.601 126.728L171.327 126.348L170.138 124.791ZM173.745 123.525C173.745 124.294 173.605 124.955 173.323 125.508C173.042 126.059 172.657 126.483 172.167 126.78C171.679 127.076 171.125 127.223 170.504 127.223C169.88 127.223 169.324 127.076 168.834 126.78C168.346 126.483 167.962 126.057 167.681 125.504C167.4 124.951 167.259 124.291 167.259 123.525C167.259 122.756 167.4 122.096 167.681 121.546C167.962 120.993 168.346 120.568 168.834 120.273C169.324 119.975 169.88 119.827 170.504 119.827C171.125 119.827 171.679 119.975 172.167 120.273C172.657 120.568 173.042 120.993 173.323 121.546C173.605 122.096 173.745 122.756 173.745 123.525ZM172.669 123.525C172.669 122.939 172.575 122.446 172.385 122.045C172.197 121.642 171.939 121.337 171.611 121.131C171.285 120.922 170.916 120.818 170.504 120.818C170.089 120.818 169.719 120.922 169.393 121.131C169.067 121.337 168.809 121.642 168.619 122.045C168.432 122.446 168.338 122.939 168.338 123.525C168.338 124.111 168.432 124.605 168.619 125.009C168.809 125.409 169.067 125.714 169.393 125.923C169.719 126.129 170.089 126.232 170.504 126.232C170.916 126.232 171.285 126.129 171.611 125.923C171.939 125.714 172.197 125.409 172.385 125.009C172.575 124.605 172.669 124.111 172.669 123.525ZM178.436 124.886V121.725H179.491V127.125H178.457V126.19H178.401C178.277 126.478 178.077 126.718 177.803 126.911C177.531 127.1 177.193 127.195 176.787 127.195C176.44 127.195 176.133 127.119 175.866 126.967C175.601 126.812 175.393 126.584 175.24 126.281C175.09 125.979 175.015 125.605 175.015 125.16V121.725H176.066V125.033C176.066 125.401 176.168 125.694 176.372 125.912C176.576 126.13 176.841 126.239 177.167 126.239C177.364 126.239 177.559 126.19 177.754 126.091C177.951 125.993 178.114 125.844 178.243 125.645C178.374 125.446 178.438 125.193 178.436 124.886ZM183.23 127.234C182.698 127.234 182.24 127.12 181.856 126.893C181.474 126.663 181.178 126.341 180.97 125.926C180.764 125.509 180.66 125.02 180.66 124.46C180.66 123.907 180.764 123.42 180.97 122.998C181.178 122.576 181.469 122.246 181.842 122.01C182.217 121.773 182.655 121.655 183.157 121.655C183.461 121.655 183.757 121.705 184.043 121.806C184.328 121.907 184.585 122.065 184.812 122.28C185.04 122.496 185.219 122.776 185.35 123.121C185.482 123.463 185.547 123.879 185.547 124.369V124.741H181.255V123.954H184.517C184.517 123.677 184.461 123.432 184.348 123.219C184.236 123.004 184.078 122.834 183.874 122.709C183.672 122.585 183.435 122.523 183.164 122.523C182.868 122.523 182.61 122.596 182.39 122.741C182.172 122.884 182.003 123.071 181.884 123.304C181.767 123.533 181.708 123.783 181.708 124.052V124.668C181.708 125.029 181.771 125.336 181.898 125.589C182.027 125.842 182.206 126.035 182.436 126.169C182.666 126.3 182.934 126.366 183.241 126.366C183.44 126.366 183.622 126.337 183.786 126.281C183.95 126.223 184.092 126.136 184.211 126.021C184.331 125.906 184.422 125.764 184.485 125.596L185.48 125.775C185.401 126.068 185.258 126.325 185.052 126.545C184.848 126.763 184.591 126.933 184.282 127.055C183.975 127.174 183.624 127.234 183.23 127.234ZM190.76 123.043L189.807 123.212C189.767 123.09 189.704 122.974 189.617 122.864C189.533 122.754 189.418 122.664 189.273 122.593C189.128 122.523 188.946 122.488 188.728 122.488C188.43 122.488 188.182 122.555 187.983 122.688C187.783 122.82 187.684 122.989 187.684 123.198C187.684 123.379 187.751 123.524 187.884 123.634C188.018 123.744 188.233 123.834 188.531 123.905L189.389 124.102C189.886 124.216 190.256 124.393 190.5 124.632C190.744 124.871 190.865 125.182 190.865 125.564C190.865 125.887 190.772 126.176 190.584 126.429C190.399 126.68 190.14 126.877 189.807 127.02C189.477 127.163 189.094 127.234 188.658 127.234C188.053 127.234 187.56 127.105 187.178 126.847C186.796 126.587 186.561 126.218 186.474 125.74L187.49 125.585C187.554 125.85 187.684 126.05 187.881 126.186C188.078 126.32 188.334 126.387 188.651 126.387C188.995 126.387 189.271 126.315 189.477 126.172C189.683 126.027 189.786 125.85 189.786 125.641C189.786 125.473 189.723 125.331 189.596 125.216C189.472 125.101 189.281 125.014 189.023 124.956L188.109 124.755C187.605 124.641 187.233 124.458 186.991 124.207C186.752 123.956 186.633 123.639 186.633 123.254C186.633 122.936 186.722 122.657 186.9 122.418C187.078 122.179 187.324 121.992 187.638 121.859C187.952 121.723 188.312 121.655 188.717 121.655C189.301 121.655 189.76 121.781 190.096 122.034C190.431 122.285 190.652 122.621 190.76 123.043ZM194.542 121.725V122.569H191.592V121.725H194.542ZM192.383 120.431H193.435V125.539C193.435 125.743 193.465 125.897 193.526 126C193.587 126.101 193.665 126.17 193.761 126.207C193.86 126.243 193.967 126.26 194.081 126.26C194.166 126.26 194.24 126.254 194.303 126.243C194.366 126.231 194.415 126.221 194.451 126.214L194.64 127.083C194.579 127.106 194.493 127.13 194.38 127.153C194.268 127.179 194.127 127.193 193.958 127.195C193.682 127.2 193.424 127.151 193.185 127.048C192.946 126.945 192.752 126.785 192.605 126.57C192.457 126.354 192.383 126.083 192.383 125.757V120.431ZM195.705 127.125V121.725H196.756V127.125H195.705ZM196.236 120.892C196.053 120.892 195.896 120.831 195.765 120.709C195.636 120.585 195.571 120.437 195.571 120.266C195.571 120.093 195.636 119.945 195.765 119.823C195.896 119.699 196.053 119.637 196.236 119.637C196.418 119.637 196.574 119.699 196.703 119.823C196.834 119.945 196.9 120.093 196.9 120.266C196.9 120.437 196.834 120.585 196.703 120.709C196.574 120.831 196.418 120.892 196.236 120.892ZM200.445 127.234C199.938 127.234 199.497 127.118 199.119 126.886C198.742 126.654 198.449 126.329 198.24 125.912C198.032 125.495 197.927 125.007 197.927 124.45C197.927 123.889 198.032 123.4 198.24 122.98C198.449 122.561 198.742 122.235 199.119 122.003C199.497 121.771 199.938 121.655 200.445 121.655C200.951 121.655 201.393 121.771 201.77 122.003C202.147 122.235 202.44 122.561 202.649 122.98C202.858 123.4 202.962 123.889 202.962 124.45C202.962 125.007 202.858 125.495 202.649 125.912C202.44 126.329 202.147 126.654 201.77 126.886C201.393 127.118 200.951 127.234 200.445 127.234ZM200.448 126.352C200.776 126.352 201.048 126.265 201.264 126.091C201.479 125.918 201.639 125.687 201.742 125.399C201.847 125.111 201.9 124.793 201.9 124.446C201.9 124.102 201.847 123.785 201.742 123.497C201.639 123.206 201.479 122.973 201.264 122.797C201.048 122.621 200.776 122.534 200.448 122.534C200.118 122.534 199.844 122.621 199.626 122.797C199.41 122.973 199.249 123.206 199.144 123.497C199.041 123.785 198.989 124.102 198.989 124.446C198.989 124.793 199.041 125.111 199.144 125.399C199.249 125.687 199.41 125.918 199.626 126.091C199.844 126.265 200.118 126.352 200.448 126.352ZM205.186 123.919V127.125H204.135V121.725H205.144V122.604H205.211C205.335 122.318 205.53 122.088 205.795 121.915C206.062 121.741 206.398 121.655 206.804 121.655C207.172 121.655 207.494 121.732 207.77 121.887C208.047 122.039 208.261 122.266 208.414 122.569C208.566 122.871 208.642 123.245 208.642 123.69V127.125H207.591V123.817C207.591 123.425 207.489 123.12 207.285 122.899C207.081 122.677 206.801 122.565 206.445 122.565C206.201 122.565 205.984 122.618 205.795 122.723C205.607 122.829 205.458 122.984 205.348 123.187C205.24 123.389 205.186 123.633 205.186 123.919ZM212.658 127.125V126.337L215.094 123.813C215.354 123.539 215.569 123.299 215.738 123.093C215.909 122.884 216.036 122.686 216.121 122.498C216.205 122.311 216.247 122.112 216.247 121.901C216.247 121.662 216.191 121.455 216.079 121.282C215.966 121.106 215.813 120.971 215.618 120.878C215.424 120.782 215.204 120.734 214.961 120.734C214.703 120.734 214.478 120.786 214.286 120.892C214.094 120.997 213.946 121.146 213.843 121.338C213.74 121.53 213.688 121.755 213.688 122.013H212.651C212.651 121.575 212.752 121.192 212.953 120.864C213.155 120.536 213.431 120.281 213.783 120.101C214.135 119.918 214.534 119.827 214.982 119.827C215.434 119.827 215.833 119.917 216.177 120.097C216.524 120.275 216.795 120.519 216.989 120.829C217.184 121.136 217.281 121.482 217.281 121.869C217.281 122.136 217.231 122.398 217.13 122.653C217.031 122.909 216.859 123.193 216.613 123.507C216.367 123.819 216.025 124.198 215.586 124.643L214.156 126.141V126.193H217.397V127.125H212.658Z" fill="#155EEF"/>
</g>
<g filter="url(#filter3_d_16666_88067)">
<rect x="84" y="138.25" width="71.8" height="23.25" rx="6.6" fill="white"/>
<rect x="84.2063" y="138.456" width="71.3875" height="22.8375" rx="6.39375" stroke="#EAECF0" stroke-width="0.4125"/>
<path d="M97.3382 151.041H98.4069L99.1593 152.021L99.5144 152.457L100.713 154.022H99.6022L98.8007 152.978L98.5265 152.598L97.3382 151.041ZM100.945 149.775C100.945 150.544 100.805 151.205 100.523 151.758C100.242 152.309 99.8565 152.733 99.3667 153.03C98.8792 153.326 98.3249 153.473 97.7038 153.473C97.0804 153.473 96.5237 153.326 96.0339 153.03C95.5464 152.733 95.162 152.307 94.8808 151.754C94.5995 151.201 94.4589 150.541 94.4589 149.775C94.4589 149.006 94.5995 148.346 94.8808 147.796C95.162 147.243 95.5464 146.818 96.0339 146.523C96.5237 146.225 97.0804 146.077 97.7038 146.077C98.3249 146.077 98.8792 146.225 99.3667 146.523C99.8565 146.818 100.242 147.243 100.523 147.796C100.805 148.346 100.945 149.006 100.945 149.775ZM99.8694 149.775C99.8694 149.189 99.7745 148.696 99.5847 148.295C99.3972 147.892 99.1394 147.587 98.8112 147.381C98.4854 147.172 98.1163 147.068 97.7038 147.068C97.289 147.068 96.9187 147.172 96.5929 147.381C96.2671 147.587 96.0093 147.892 95.8194 148.295C95.6319 148.696 95.5382 149.189 95.5382 149.775C95.5382 150.361 95.6319 150.855 95.8194 151.259C96.0093 151.659 96.2671 151.964 96.5929 152.173C96.9187 152.379 97.289 152.482 97.7038 152.482C98.1163 152.482 98.4854 152.379 98.8112 152.173C99.1394 151.964 99.3972 151.659 99.5847 151.259C99.7745 150.855 99.8694 150.361 99.8694 149.775ZM105.636 151.136V147.975H106.691V153.375H105.657V152.44H105.601C105.477 152.728 105.277 152.968 105.003 153.161C104.731 153.35 104.393 153.445 103.987 153.445C103.64 153.445 103.333 153.369 103.066 153.217C102.801 153.062 102.593 152.834 102.44 152.531C102.29 152.229 102.215 151.855 102.215 151.41V147.975H103.266V151.283C103.266 151.651 103.368 151.944 103.572 152.162C103.776 152.38 104.041 152.489 104.367 152.489C104.564 152.489 104.759 152.44 104.954 152.341C105.151 152.243 105.314 152.094 105.443 151.895C105.574 151.696 105.638 151.443 105.636 151.136ZM110.43 153.484C109.898 153.484 109.44 153.37 109.056 153.143C108.674 152.913 108.378 152.591 108.17 152.176C107.964 151.759 107.86 151.27 107.86 150.71C107.86 150.157 107.964 149.67 108.17 149.248C108.378 148.826 108.669 148.496 109.042 148.26C109.417 148.023 109.855 147.905 110.357 147.905C110.661 147.905 110.957 147.955 111.242 148.056C111.528 148.157 111.785 148.315 112.012 148.53C112.24 148.746 112.419 149.026 112.55 149.371C112.682 149.713 112.747 150.129 112.747 150.619V150.991H108.455V150.204H111.717C111.717 149.927 111.661 149.682 111.548 149.469C111.436 149.254 111.278 149.084 111.074 148.959C110.872 148.835 110.635 148.773 110.364 148.773C110.068 148.773 109.81 148.846 109.59 148.991C109.372 149.134 109.203 149.321 109.084 149.554C108.967 149.783 108.908 150.033 108.908 150.302V150.918C108.908 151.279 108.971 151.586 109.098 151.839C109.227 152.092 109.406 152.285 109.636 152.419C109.866 152.55 110.134 152.616 110.441 152.616C110.64 152.616 110.822 152.587 110.986 152.531C111.15 152.473 111.292 152.386 111.411 152.271C111.531 152.156 111.622 152.014 111.685 151.846L112.68 152.025C112.601 152.318 112.458 152.575 112.251 152.795C112.048 153.013 111.791 153.183 111.482 153.305C111.175 153.424 110.824 153.484 110.43 153.484ZM117.96 149.293L117.007 149.462C116.967 149.34 116.904 149.224 116.817 149.114C116.733 149.004 116.618 148.914 116.473 148.843C116.328 148.773 116.146 148.738 115.928 148.738C115.63 148.738 115.382 148.805 115.183 148.938C114.983 149.07 114.884 149.239 114.884 149.448C114.884 149.629 114.951 149.774 115.084 149.884C115.218 149.994 115.433 150.084 115.731 150.155L116.589 150.352C117.086 150.466 117.456 150.643 117.7 150.882C117.944 151.121 118.065 151.432 118.065 151.814C118.065 152.137 117.972 152.426 117.784 152.679C117.599 152.93 117.34 153.127 117.007 153.27C116.677 153.413 116.294 153.484 115.858 153.484C115.253 153.484 114.76 153.355 114.378 153.097C113.996 152.837 113.761 152.468 113.674 151.99L114.69 151.835C114.754 152.1 114.884 152.3 115.081 152.436C115.278 152.57 115.534 152.637 115.851 152.637C116.195 152.637 116.471 152.565 116.677 152.422C116.883 152.277 116.986 152.1 116.986 151.891C116.986 151.723 116.923 151.581 116.796 151.466C116.672 151.351 116.481 151.264 116.223 151.206L115.309 151.005C114.805 150.891 114.433 150.708 114.191 150.457C113.952 150.206 113.833 149.889 113.833 149.504C113.833 149.186 113.922 148.907 114.1 148.668C114.278 148.429 114.524 148.242 114.838 148.109C115.152 147.973 115.512 147.905 115.917 147.905C116.501 147.905 116.96 148.031 117.296 148.284C117.631 148.535 117.852 148.871 117.96 149.293ZM121.742 147.975V148.819H118.792V147.975H121.742ZM119.583 146.681H120.634V151.789C120.634 151.993 120.665 152.147 120.726 152.25C120.787 152.351 120.865 152.42 120.961 152.457C121.06 152.493 121.167 152.51 121.281 152.51C121.366 152.51 121.44 152.504 121.503 152.493C121.566 152.481 121.615 152.471 121.65 152.464L121.84 153.333C121.779 153.356 121.693 153.38 121.58 153.403C121.468 153.429 121.327 153.443 121.158 153.445C120.882 153.45 120.624 153.401 120.385 153.298C120.146 153.195 119.952 153.035 119.805 152.82C119.657 152.604 119.583 152.333 119.583 152.007V146.681ZM122.905 153.375V147.975H123.956V153.375H122.905ZM123.436 147.142C123.253 147.142 123.096 147.081 122.964 146.959C122.836 146.835 122.771 146.687 122.771 146.516C122.771 146.343 122.836 146.195 122.964 146.073C123.096 145.949 123.253 145.887 123.436 145.887C123.618 145.887 123.774 145.949 123.903 146.073C124.034 146.195 124.1 146.343 124.1 146.516C124.1 146.687 124.034 146.835 123.903 146.959C123.774 147.081 123.618 147.142 123.436 147.142ZM127.645 153.484C127.138 153.484 126.697 153.368 126.319 153.136C125.942 152.904 125.649 152.579 125.44 152.162C125.232 151.745 125.127 151.257 125.127 150.7C125.127 150.139 125.232 149.65 125.44 149.23C125.649 148.811 125.942 148.485 126.319 148.253C126.697 148.021 127.138 147.905 127.645 147.905C128.151 147.905 128.593 148.021 128.97 148.253C129.347 148.485 129.64 148.811 129.849 149.23C130.058 149.65 130.162 150.139 130.162 150.7C130.162 151.257 130.058 151.745 129.849 152.162C129.64 152.579 129.347 152.904 128.97 153.136C128.593 153.368 128.151 153.484 127.645 153.484ZM127.648 152.602C127.976 152.602 128.248 152.515 128.464 152.341C128.679 152.168 128.839 151.937 128.942 151.649C129.047 151.361 129.1 151.043 129.1 150.696C129.1 150.352 129.047 150.035 128.942 149.747C128.839 149.456 128.679 149.223 128.464 149.047C128.248 148.871 127.976 148.784 127.648 148.784C127.318 148.784 127.043 148.871 126.825 149.047C126.61 149.223 126.449 149.456 126.344 149.747C126.241 150.035 126.189 150.352 126.189 150.696C126.189 151.043 126.241 151.361 126.344 151.649C126.449 151.937 126.61 152.168 126.825 152.341C127.043 152.515 127.318 152.602 127.648 152.602ZM132.386 150.169V153.375H131.335V147.975H132.344V148.854H132.411C132.535 148.568 132.73 148.338 132.995 148.165C133.262 147.991 133.598 147.905 134.004 147.905C134.371 147.905 134.694 147.982 134.97 148.137C135.247 148.289 135.461 148.516 135.614 148.819C135.766 149.121 135.842 149.495 135.842 149.94V153.375H134.791V150.067C134.791 149.675 134.689 149.37 134.485 149.149C134.281 148.927 134.001 148.815 133.645 148.815C133.401 148.815 133.184 148.868 132.995 148.973C132.807 149.079 132.658 149.234 132.548 149.437C132.44 149.639 132.386 149.883 132.386 150.169ZM142.365 153.473C141.882 153.473 141.45 153.39 141.071 153.224C140.693 153.057 140.395 152.827 140.174 152.531C139.956 152.234 139.839 151.889 139.823 151.498H140.927C140.941 151.711 141.012 151.896 141.141 152.053C141.272 152.208 141.443 152.327 141.654 152.412C141.865 152.496 142.1 152.538 142.358 152.538C142.641 152.538 142.892 152.489 143.11 152.391C143.33 152.292 143.502 152.155 143.627 151.979C143.751 151.801 143.813 151.596 143.813 151.364C143.813 151.123 143.751 150.911 143.627 150.728C143.505 150.543 143.325 150.397 143.089 150.292C142.854 150.186 142.571 150.134 142.238 150.134H141.63V149.248H142.238C142.505 149.248 142.74 149.2 142.941 149.104C143.145 149.007 143.304 148.874 143.419 148.703C143.534 148.529 143.592 148.327 143.592 148.095C143.592 147.872 143.541 147.679 143.44 147.514C143.342 147.348 143.201 147.218 143.018 147.124C142.838 147.03 142.625 146.984 142.379 146.984C142.144 146.984 141.925 147.027 141.721 147.114C141.52 147.198 141.356 147.32 141.229 147.479C141.102 147.636 141.034 147.825 141.025 148.045H139.974C139.986 147.656 140.1 147.314 140.318 147.019C140.539 146.723 140.829 146.493 141.19 146.326C141.551 146.16 141.952 146.077 142.393 146.077C142.854 146.077 143.253 146.167 143.588 146.347C143.925 146.525 144.186 146.763 144.368 147.061C144.554 147.359 144.645 147.684 144.643 148.038C144.645 148.441 144.533 148.784 144.305 149.065C144.08 149.346 143.78 149.535 143.405 149.631V149.687C143.883 149.76 144.254 149.95 144.516 150.257C144.781 150.564 144.912 150.945 144.91 151.399C144.912 151.795 144.802 152.15 144.579 152.464C144.359 152.779 144.058 153.026 143.676 153.206C143.294 153.384 142.857 153.473 142.365 153.473Z" fill="#155EEF"/>
</g>
<rect width="280" height="78" transform="translate(12 282)" fill="url(#paint0_linear_16666_88067)"/>
<g filter="url(#filter4_dd_16666_88067)">
<rect x="30" y="312" width="244" height="36" rx="9" fill="white"/>
<rect x="30.375" y="312.375" width="243.25" height="35.25" rx="8.625" stroke="#EAECF0" stroke-width="0.75"/>
<path d="M48.25 325.5H45.9C45.0599 325.5 44.6399 325.5 44.319 325.663C44.0368 325.807 43.8073 326.037 43.6635 326.319C43.5 326.64 43.5 327.06 43.5 327.9V332.1C43.5 332.94 43.5 333.36 43.6635 333.681C43.8073 333.963 44.0368 334.193 44.319 334.337C44.6399 334.5 45.0599 334.5 45.9 334.5H50.5C50.965 334.5 51.1975 334.5 51.3882 334.449C51.9059 334.31 52.3102 333.906 52.4489 333.388C52.5 333.197 52.5 332.965 52.5 332.5M51.5 328V325M50 326.5H53M47.25 328.25C47.25 328.802 46.8023 329.25 46.25 329.25C45.6977 329.25 45.25 328.802 45.25 328.25C45.25 327.698 45.6977 327.25 46.25 327.25C46.8023 327.25 47.25 327.698 47.25 328.25ZM49.495 329.959L45.2656 333.804C45.0277 334.02 44.9087 334.128 44.8982 334.222C44.8891 334.303 44.9202 334.384 44.9816 334.438C45.0524 334.5 45.2131 334.5 45.5346 334.5H50.228C50.9476 334.5 51.3074 334.5 51.59 334.379C51.9447 334.227 52.2274 333.945 52.3791 333.59C52.5 333.307 52.5 332.948 52.5 332.228C52.5 331.986 52.5 331.865 52.4735 331.752C52.4403 331.61 52.3765 331.478 52.2866 331.363C52.2151 331.272 52.1206 331.196 51.9315 331.045L50.5329 329.926C50.3437 329.775 50.2491 329.699 50.1449 329.673C50.0531 329.649 49.9564 329.652 49.8663 329.681C49.764 329.715 49.6743 329.796 49.495 329.959Z" stroke="#667085" stroke-width="0.9375" stroke-linecap="round" stroke-linejoin="round"/>
<rect x="63" y="324" width="0.75" height="12" fill="black" fill-opacity="0.05"/>
<path d="M73.0185 325.864H74.0774L76.1953 329.428H76.2848L78.4027 325.864H79.4616L76.7024 330.353V333.5H75.7777V330.353L73.0185 325.864ZM82.055 333.619C81.5379 333.619 81.0843 333.496 80.694 333.25C80.3062 333.004 80.0029 332.66 79.7842 332.217C79.5679 331.775 79.4598 331.258 79.4598 330.666C79.4598 330.07 79.5679 329.549 79.7842 329.104C80.0029 328.659 80.3062 328.313 80.694 328.067C81.0843 327.821 81.5379 327.698 82.055 327.698C82.572 327.698 83.0244 327.821 83.4122 328.067C83.8025 328.313 84.1057 328.659 84.322 329.104C84.5407 329.549 84.6501 330.07 84.6501 330.666C84.6501 331.258 84.5407 331.775 84.322 332.217C84.1057 332.66 83.8025 333.004 83.4122 333.25C83.0244 333.496 82.572 333.619 82.055 333.619ZM82.055 332.829C82.4477 332.829 82.7709 332.728 83.0244 332.527C83.278 332.325 83.4656 332.061 83.5874 331.733C83.7093 331.404 83.7702 331.049 83.7702 330.666C83.7702 330.283 83.7093 329.927 83.5874 329.596C83.4656 329.265 83.278 328.998 83.0244 328.794C82.7709 328.591 82.4477 328.489 82.055 328.489C81.6622 328.489 81.339 328.591 81.0855 328.794C80.8319 328.998 80.6443 329.265 80.5225 329.596C80.4007 329.927 80.3398 330.283 80.3398 330.666C80.3398 331.049 80.4007 331.404 80.5225 331.733C80.6443 332.061 80.8319 332.325 81.0855 332.527C81.339 332.728 81.6622 332.829 82.055 332.829ZM89.6028 331.158V327.773H90.4827V333.5H89.6028V332.531H89.5431C89.4089 332.821 89.2001 333.069 88.9167 333.273C88.6333 333.474 88.2753 333.575 87.8428 333.575C87.4849 333.575 87.1667 333.496 86.8883 333.34C86.6099 333.181 86.3911 332.942 86.232 332.624C86.0729 332.303 85.9934 331.899 85.9934 331.412V327.773H86.8734V331.352C86.8734 331.77 86.9902 332.103 87.2239 332.352C87.46 332.6 87.7608 332.724 88.1262 332.724C88.3449 332.724 88.5674 332.669 88.7936 332.557C89.0223 332.445 89.2137 332.273 89.3679 332.042C89.5245 331.811 89.6028 331.516 89.6028 331.158ZM92.0945 333.5V327.773H92.9446V328.638H93.0043C93.1087 328.354 93.2976 328.124 93.571 327.948C93.8445 327.771 94.1527 327.683 94.4957 327.683C94.5604 327.683 94.6412 327.684 94.7381 327.687C94.835 327.689 94.9084 327.693 94.9581 327.698V328.593C94.9283 328.586 94.8599 328.574 94.753 328.559C94.6486 328.542 94.538 328.533 94.4212 328.533C94.1428 328.533 93.8942 328.592 93.6754 328.709C93.4592 328.823 93.2876 328.982 93.1609 329.186C93.0366 329.387 92.9744 329.617 92.9744 329.876V333.5H92.0945ZM98.9543 333.5V327.773H99.8045V328.668H99.879C99.9984 328.362 100.191 328.124 100.457 327.955C100.723 327.784 101.042 327.698 101.415 327.698C101.793 327.698 102.108 327.784 102.359 327.955C102.612 328.124 102.81 328.362 102.951 328.668H103.011C103.158 328.372 103.378 328.137 103.671 327.963C103.964 327.786 104.316 327.698 104.726 327.698C105.238 327.698 105.657 327.858 105.983 328.179C106.309 328.497 106.471 328.993 106.471 329.667V333.5H105.591V329.667C105.591 329.244 105.476 328.942 105.245 328.761C105.013 328.579 104.741 328.489 104.428 328.489C104.025 328.489 103.713 328.61 103.492 328.854C103.271 329.095 103.16 329.401 103.16 329.771V333.5H102.265V329.577C102.265 329.252 102.16 328.99 101.948 328.791C101.737 328.589 101.465 328.489 101.132 328.489C100.903 328.489 100.689 328.55 100.491 328.671C100.294 328.793 100.135 328.962 100.013 329.178C99.894 329.392 99.8343 329.64 99.8343 329.92V333.5H98.9543ZM110.482 333.619C109.93 333.619 109.454 333.498 109.053 333.254C108.656 333.008 108.349 332.665 108.133 332.225C107.919 331.782 107.812 331.268 107.812 330.681C107.812 330.094 107.919 329.577 108.133 329.13C108.349 328.68 108.65 328.33 109.035 328.078C109.423 327.825 109.875 327.698 110.392 327.698C110.69 327.698 110.985 327.748 111.276 327.847C111.567 327.947 111.831 328.108 112.07 328.332C112.309 328.553 112.499 328.847 112.64 329.212C112.782 329.577 112.853 330.027 112.853 330.562V330.935H108.438V330.174H111.958C111.958 329.851 111.894 329.562 111.764 329.309C111.637 329.055 111.456 328.855 111.22 328.709C110.986 328.562 110.71 328.489 110.392 328.489C110.042 328.489 109.738 328.576 109.482 328.75C109.229 328.921 109.034 329.145 108.897 329.421C108.76 329.697 108.692 329.993 108.692 330.308V330.815C108.692 331.248 108.766 331.615 108.916 331.915C109.067 332.214 109.277 332.441 109.546 332.598C109.814 332.752 110.126 332.829 110.482 332.829C110.713 332.829 110.922 332.797 111.108 332.732C111.297 332.665 111.46 332.565 111.596 332.434C111.733 332.299 111.839 332.133 111.913 331.934L112.764 332.173C112.674 332.461 112.524 332.714 112.312 332.933C112.101 333.15 111.84 333.319 111.529 333.44C111.219 333.56 110.869 333.619 110.482 333.619ZM118.248 329.055L117.458 329.279C117.408 329.147 117.335 329.019 117.238 328.895C117.144 328.768 117.014 328.664 116.85 328.582C116.686 328.5 116.476 328.459 116.22 328.459C115.87 328.459 115.577 328.54 115.344 328.701C115.113 328.86 114.997 329.063 114.997 329.309C114.997 329.528 115.077 329.7 115.236 329.827C115.395 329.954 115.643 330.06 115.981 330.144L116.832 330.353C117.344 330.477 117.725 330.667 117.976 330.923C118.227 331.177 118.353 331.504 118.353 331.904C118.353 332.232 118.258 332.526 118.069 332.784C117.883 333.043 117.622 333.246 117.286 333.396C116.951 333.545 116.561 333.619 116.116 333.619C115.531 333.619 115.048 333.493 114.665 333.239C114.282 332.985 114.04 332.615 113.938 332.128L114.773 331.919C114.853 332.227 115.003 332.458 115.224 332.613C115.448 332.767 115.74 332.844 116.101 332.844C116.511 332.844 116.837 332.757 117.078 332.583C117.321 332.406 117.443 332.195 117.443 331.949C117.443 331.75 117.373 331.583 117.234 331.449C117.095 331.312 116.881 331.211 116.593 331.143L115.638 330.92C115.114 330.795 114.729 330.603 114.482 330.342C114.239 330.078 114.117 329.749 114.117 329.354C114.117 329.031 114.208 328.745 114.389 328.496C114.573 328.248 114.823 328.052 115.139 327.911C115.457 327.769 115.817 327.698 116.22 327.698C116.787 327.698 117.232 327.822 117.555 328.071C117.881 328.32 118.112 328.648 118.248 329.055ZM123.734 329.055L122.944 329.279C122.894 329.147 122.821 329.019 122.724 328.895C122.629 328.768 122.5 328.664 122.336 328.582C122.172 328.5 121.962 328.459 121.706 328.459C121.355 328.459 121.063 328.54 120.83 328.701C120.598 328.86 120.483 329.063 120.483 329.309C120.483 329.528 120.562 329.7 120.722 329.827C120.881 329.954 121.129 330.06 121.467 330.144L122.317 330.353C122.829 330.477 123.211 330.667 123.462 330.923C123.713 331.177 123.839 331.504 123.839 331.904C123.839 332.232 123.744 332.526 123.555 332.784C123.369 333.043 123.108 333.246 122.772 333.396C122.437 333.545 122.046 333.619 121.601 333.619C121.017 333.619 120.534 333.493 120.151 333.239C119.768 332.985 119.526 332.615 119.424 332.128L120.259 331.919C120.339 332.227 120.489 332.458 120.71 332.613C120.934 332.767 121.226 332.844 121.587 332.844C121.997 332.844 122.322 332.757 122.563 332.583C122.807 332.406 122.929 332.195 122.929 331.949C122.929 331.75 122.859 331.583 122.72 331.449C122.581 331.312 122.367 331.211 122.079 331.143L121.124 330.92C120.6 330.795 120.214 330.603 119.968 330.342C119.725 330.078 119.603 329.749 119.603 329.354C119.603 329.031 119.694 328.745 119.875 328.496C120.059 328.248 120.309 328.052 120.625 327.911C120.943 327.769 121.303 327.698 121.706 327.698C122.273 327.698 122.718 327.822 123.041 328.071C123.366 328.32 123.598 328.648 123.734 329.055ZM126.849 333.634C126.486 333.634 126.156 333.566 125.861 333.429C125.565 333.29 125.33 333.09 125.156 332.829C124.982 332.565 124.895 332.247 124.895 331.874C124.895 331.546 124.959 331.28 125.089 331.076C125.218 330.87 125.391 330.708 125.607 330.592C125.823 330.475 126.062 330.388 126.323 330.331C126.586 330.271 126.851 330.224 127.117 330.189C127.465 330.144 127.747 330.111 127.964 330.088C128.182 330.063 128.341 330.022 128.441 329.965C128.543 329.908 128.594 329.809 128.594 329.667V329.637C128.594 329.269 128.493 328.983 128.292 328.779C128.093 328.576 127.791 328.474 127.386 328.474C126.966 328.474 126.636 328.566 126.398 328.75C126.159 328.934 125.991 329.13 125.894 329.339L125.059 329.04C125.208 328.692 125.407 328.422 125.655 328.228C125.907 328.031 126.18 327.895 126.476 327.817C126.774 327.738 127.067 327.698 127.356 327.698C127.54 327.698 127.751 327.721 127.99 327.765C128.231 327.808 128.463 327.896 128.687 328.03C128.913 328.164 129.101 328.367 129.25 328.638C129.399 328.909 129.474 329.272 129.474 329.727V333.5H128.594V332.724H128.549C128.489 332.849 128.39 332.982 128.251 333.123C128.111 333.265 127.926 333.386 127.695 333.485C127.464 333.585 127.182 333.634 126.849 333.634ZM126.983 332.844C127.331 332.844 127.624 332.775 127.863 332.639C128.104 332.502 128.285 332.325 128.407 332.109C128.532 331.893 128.594 331.665 128.594 331.427V330.621C128.556 330.666 128.474 330.707 128.348 330.744C128.223 330.779 128.079 330.81 127.915 330.838C127.754 330.863 127.596 330.885 127.442 330.905C127.29 330.922 127.167 330.937 127.072 330.95C126.844 330.979 126.63 331.028 126.431 331.095C126.235 331.16 126.076 331.258 125.954 331.39C125.834 331.519 125.775 331.695 125.775 331.919C125.775 332.225 125.888 332.456 126.114 332.613C126.343 332.767 126.632 332.844 126.983 332.844ZM133.392 335.767C132.967 335.767 132.601 335.712 132.295 335.603C131.99 335.496 131.735 335.354 131.531 335.178C131.33 335.004 131.169 334.817 131.05 334.619L131.751 334.126C131.831 334.231 131.931 334.35 132.053 334.484C132.175 334.621 132.341 334.739 132.553 334.839C132.766 334.941 133.046 334.991 133.392 334.991C133.854 334.991 134.236 334.88 134.536 334.656C134.837 334.432 134.987 334.082 134.987 333.604V332.441H134.913C134.848 332.545 134.756 332.675 134.637 332.829C134.52 332.98 134.351 333.116 134.13 333.235C133.911 333.352 133.615 333.411 133.242 333.411C132.78 333.411 132.365 333.301 131.997 333.082C131.632 332.864 131.342 332.545 131.128 332.128C130.917 331.71 130.811 331.203 130.811 330.607C130.811 330.02 130.915 329.509 131.121 329.074C131.327 328.637 131.614 328.298 131.982 328.06C132.35 327.819 132.775 327.698 133.257 327.698C133.63 327.698 133.926 327.76 134.145 327.885C134.366 328.006 134.535 328.146 134.652 328.302C134.771 328.456 134.863 328.583 134.928 328.683H135.017V327.773H135.867V333.664C135.867 334.156 135.756 334.556 135.532 334.865C135.311 335.175 135.012 335.403 134.637 335.547C134.264 335.694 133.849 335.767 133.392 335.767ZM133.362 332.62C133.715 332.62 134.013 332.539 134.257 332.378C134.5 332.216 134.685 331.984 134.812 331.68C134.939 331.377 135.002 331.014 135.002 330.592C135.002 330.179 134.94 329.815 134.816 329.499C134.692 329.183 134.508 328.936 134.264 328.757C134.021 328.578 133.72 328.489 133.362 328.489C132.989 328.489 132.678 328.583 132.43 328.772C132.184 328.961 131.998 329.214 131.874 329.533C131.752 329.851 131.691 330.204 131.691 330.592C131.691 330.989 131.753 331.341 131.878 331.647C132.005 331.95 132.191 332.189 132.437 332.363C132.686 332.534 132.994 332.62 133.362 332.62ZM139.88 333.619C139.328 333.619 138.852 333.498 138.451 333.254C138.054 333.008 137.747 332.665 137.53 332.225C137.317 331.782 137.21 331.268 137.21 330.681C137.21 330.094 137.317 329.577 137.53 329.13C137.747 328.68 138.047 328.33 138.433 328.078C138.821 327.825 139.273 327.698 139.79 327.698C140.088 327.698 140.383 327.748 140.674 327.847C140.965 327.947 141.229 328.108 141.468 328.332C141.707 328.553 141.897 328.847 142.038 329.212C142.18 329.577 142.251 330.027 142.251 330.562V330.935H137.836V330.174H141.356C141.356 329.851 141.291 329.562 141.162 329.309C141.035 329.055 140.854 328.855 140.618 328.709C140.384 328.562 140.108 328.489 139.79 328.489C139.44 328.489 139.136 328.576 138.88 328.75C138.627 328.921 138.432 329.145 138.295 329.421C138.158 329.697 138.09 329.993 138.09 330.308V330.815C138.09 331.248 138.164 331.615 138.313 331.915C138.465 332.214 138.675 332.441 138.944 332.598C139.212 332.752 139.524 332.829 139.88 332.829C140.111 332.829 140.32 332.797 140.506 332.732C140.695 332.665 140.858 332.565 140.994 332.434C141.131 332.299 141.237 332.133 141.311 331.934L142.161 332.173C142.072 332.461 141.922 332.714 141.71 332.933C141.499 333.15 141.238 333.319 140.927 333.44C140.617 333.56 140.267 333.619 139.88 333.619Z" fill="#D0D5DD"/>
<path d="M222.75 329V330C222.75 331.933 221.183 333.5 219.25 333.5M215.75 329V330C215.75 331.933 217.317 333.5 219.25 333.5M219.25 333.5V335M217.25 335H221.25M219.25 331.5C218.422 331.5 217.75 330.828 217.75 330V326.5C217.75 325.672 218.422 325 219.25 325C220.078 325 220.75 325.672 220.75 326.5V330C220.75 330.828 220.078 331.5 219.25 331.5Z" stroke="#667085" stroke-width="0.9375" stroke-linecap="round" stroke-linejoin="round"/>
<rect x="237.25" y="324" width="0.75" height="12" fill="black" fill-opacity="0.05"/>
<path d="M262.329 330.416C262.458 330.154 262.458 329.846 262.329 329.585C262.215 329.354 262.015 329.233 261.911 329.175C261.799 329.112 261.656 329.048 261.514 328.984L251.024 324.263C250.878 324.197 250.733 324.132 250.61 324.089C250.497 324.05 250.27 323.979 250.019 324.049C249.736 324.128 249.505 324.336 249.398 324.61C249.303 324.853 249.35 325.085 249.378 325.201C249.407 325.328 249.458 325.479 249.508 325.631L250.523 328.69C250.605 328.936 250.646 329.06 250.722 329.151C250.789 329.231 250.875 329.293 250.973 329.332C251.083 329.375 251.213 329.375 251.473 329.375H256C256.345 329.375 256.625 329.655 256.625 330C256.625 330.345 256.345 330.625 256 330.625H251.484C251.226 330.625 251.096 330.625 250.986 330.668C250.889 330.707 250.803 330.769 250.735 330.849C250.659 330.939 250.618 331.062 250.536 331.308L249.513 334.365C249.462 334.517 249.411 334.669 249.381 334.795C249.353 334.911 249.305 335.145 249.4 335.388C249.507 335.662 249.737 335.871 250.021 335.95C250.272 336.02 250.5 335.949 250.612 335.91C250.735 335.867 250.881 335.801 251.028 335.736L261.514 331.017C261.656 330.953 261.799 330.888 261.911 330.825C262.015 330.767 262.215 330.646 262.329 330.416Z" fill="#D0D5DD"/>
</g>
</g>
</g>
<defs>
<filter id="filter0_dd_16666_88067" x="0" y="0" width="304" height="384" filterUnits="userSpaceOnUse" color-interpolation-filters="sRGB">
<feFlood flood-opacity="0" result="BackgroundImageFix"/>
<feColorMatrix in="SourceAlpha" type="matrix" values="0 0 0 0 0 0 0 0 0 0 0 0 0 0 0 0 0 0 127 0" result="hardAlpha"/>
<feMorphology radius="2" operator="erode" in="SourceAlpha" result="effect1_dropShadow_16666_88067"/>
<feOffset dy="4"/>
<feGaussianBlur stdDeviation="3"/>
<feColorMatrix type="matrix" values="0 0 0 0 0.0627451 0 0 0 0 0.0941176 0 0 0 0 0.156863 0 0 0 0.03 0"/>
<feBlend mode="normal" in2="BackgroundImageFix" result="effect1_dropShadow_16666_88067"/>
<feColorMatrix in="SourceAlpha" type="matrix" values="0 0 0 0 0 0 0 0 0 0 0 0 0 0 0 0 0 0 127 0" result="hardAlpha"/>
<feMorphology radius="4" operator="erode" in="SourceAlpha" result="effect2_dropShadow_16666_88067"/>
<feOffset dy="12"/>
<feGaussianBlur stdDeviation="8"/>
<feColorMatrix type="matrix" values="0 0 0 0 0.0627451 0 0 0 0 0.0941176 0 0 0 0 0.156863 0 0 0 0.08 0"/>
<feBlend mode="normal" in2="effect1_dropShadow_16666_88067" result="effect2_dropShadow_16666_88067"/>
<feBlend mode="normal" in="SourceGraphic" in2="effect2_dropShadow_16666_88067" result="shape"/>
</filter>
<filter id="filter1_d_16666_88067" x="82.35" y="111.175" width="73.1" height="26.55" filterUnits="userSpaceOnUse" color-interpolation-filters="sRGB">
<feFlood flood-opacity="0" result="BackgroundImageFix"/>
<feColorMatrix in="SourceAlpha" type="matrix" values="0 0 0 0 0 0 0 0 0 0 0 0 0 0 0 0 0 0 127 0" result="hardAlpha"/>
<feOffset dy="0.825"/>
<feGaussianBlur stdDeviation="0.825"/>
<feColorMatrix type="matrix" values="0 0 0 0 0.0627451 0 0 0 0 0.0941176 0 0 0 0 0.156863 0 0 0 0.05 0"/>
<feBlend mode="normal" in2="BackgroundImageFix" result="effect1_dropShadow_16666_88067"/>
<feBlend mode="normal" in="SourceGraphic" in2="effect1_dropShadow_16666_88067" result="shape"/>
</filter>
<filter id="filter2_d_16666_88067" x="155.15" y="111.175" width="75.1" height="26.55" filterUnits="userSpaceOnUse" color-interpolation-filters="sRGB">
<feFlood flood-opacity="0" result="BackgroundImageFix"/>
<feColorMatrix in="SourceAlpha" type="matrix" values="0 0 0 0 0 0 0 0 0 0 0 0 0 0 0 0 0 0 127 0" result="hardAlpha"/>
<feOffset dy="0.825"/>
<feGaussianBlur stdDeviation="0.825"/>
<feColorMatrix type="matrix" values="0 0 0 0 0.0627451 0 0 0 0 0.0941176 0 0 0 0 0.156863 0 0 0 0.05 0"/>
<feBlend mode="normal" in2="BackgroundImageFix" result="effect1_dropShadow_16666_88067"/>
<feBlend mode="normal" in="SourceGraphic" in2="effect1_dropShadow_16666_88067" result="shape"/>
</filter>
<filter id="filter3_d_16666_88067" x="82.35" y="137.425" width="75.1" height="26.55" filterUnits="userSpaceOnUse" color-interpolation-filters="sRGB">
<feFlood flood-opacity="0" result="BackgroundImageFix"/>
<feColorMatrix in="SourceAlpha" type="matrix" values="0 0 0 0 0 0 0 0 0 0 0 0 0 0 0 0 0 0 127 0" result="hardAlpha"/>
<feOffset dy="0.825"/>
<feGaussianBlur stdDeviation="0.825"/>
<feColorMatrix type="matrix" values="0 0 0 0 0.0627451 0 0 0 0 0.0941176 0 0 0 0 0.156863 0 0 0 0.05 0"/>
<feBlend mode="normal" in2="BackgroundImageFix" result="effect1_dropShadow_16666_88067"/>
<feBlend mode="normal" in="SourceGraphic" in2="effect1_dropShadow_16666_88067" result="shape"/>
</filter>
<filter id="filter4_dd_16666_88067" x="21" y="312" width="262" height="54" filterUnits="userSpaceOnUse" color-interpolation-filters="sRGB">
<feFlood flood-opacity="0" result="BackgroundImageFix"/>
<feColorMatrix in="SourceAlpha" type="matrix" values="0 0 0 0 0 0 0 0 0 0 0 0 0 0 0 0 0 0 127 0" result="hardAlpha"/>
<feMorphology radius="1.5" operator="erode" in="SourceAlpha" result="effect1_dropShadow_16666_88067"/>
<feOffset dy="3"/>
<feGaussianBlur stdDeviation="2.25"/>
<feColorMatrix type="matrix" values="0 0 0 0 0.0627451 0 0 0 0 0.0941176 0 0 0 0 0.156863 0 0 0 0.03 0"/>
<feBlend mode="normal" in2="BackgroundImageFix" result="effect1_dropShadow_16666_88067"/>
<feColorMatrix in="SourceAlpha" type="matrix" values="0 0 0 0 0 0 0 0 0 0 0 0 0 0 0 0 0 0 127 0" result="hardAlpha"/>
<feMorphology radius="3" operator="erode" in="SourceAlpha" result="effect2_dropShadow_16666_88067"/>
<feOffset dy="9"/>
<feGaussianBlur stdDeviation="6"/>
<feColorMatrix type="matrix" values="0 0 0 0 0.0627451 0 0 0 0 0.0941176 0 0 0 0 0.156863 0 0 0 0.08 0"/>
<feBlend mode="normal" in2="effect1_dropShadow_16666_88067" result="effect2_dropShadow_16666_88067"/>
<feBlend mode="normal" in="SourceGraphic" in2="effect2_dropShadow_16666_88067" result="shape"/>
</filter>
<linearGradient id="paint0_linear_16666_88067" x1="199.59" y1="78" x2="199.59" y2="2.30719e-06" gradientUnits="userSpaceOnUse">
<stop offset="0.65" stop-color="white"/>
<stop offset="1" stop-color="white" stop-opacity="0"/>
</linearGradient>
<clipPath id="clip0_16666_88067">
<rect x="12" width="280" height="360" rx="12" fill="white"/>
</clipPath>
</defs>
</svg>
