<svg width="14" height="14" viewBox="0 0 50 50" fill="none" xmlns="http://www.w3.org/2000/svg">
<path d="M40.3533 20.014C36.1827 19.2294 31.6051 20.8013 28.8735 24.0676C27.4452 25.7752 26.5249 27.8392 25.4184 29.7729C24.0725 32.1215 22.4021 34.3345 20.2184 35.9357C18.0347 37.5369 15.2924 38.4838 12.606 38.1513C9.91959 37.8189 7.35552 36.074 6.41394 33.5365C5.29948 30.5363 6.75972 26.879 9.51796 25.2539C10.9525 24.4289 12.6891 24.1212 14.3178 24.4073C14.6508 24.4658 14.9595 24.1518 14.8861 23.8217C13.8881 19.3375 16.2669 14.2573 20.4312 12.2606C24.8359 10.1487 30.6795 11.7526 33.3899 15.8168L37.5631 12.6942C34.1612 7.50752 27.4319 4.73864 21.3621 6.02866C15.2924 7.31867 10.2494 12.6091 9.25995 18.732L9.23602 18.7266C9.22803 18.8091 8.09229 19.2187 7.9593 19.2852C7.52575 19.498 7.10018 19.7347 6.6879 19.9901C5.86336 20.4981 5.08935 21.0859 4.37386 21.7402C2.94288 23.0515 1.75127 24.6049 0.998545 26.3949C-0.161138 29.1478 -0.323387 32.313 0.578293 35.1644C1.57839 38.3295 3.87115 41.0612 6.81558 42.5932C11.0766 44.8115 16.4096 44.3939 20.6759 42.1863C24.9423 39.9786 28.2138 36.1618 30.4933 31.9327C31.5147 30.0389 32.419 27.9722 34.1266 26.6609C36.5896 24.7724 40.4809 25.1209 42.5662 27.4163C44.6542 29.7117 44.6276 33.6217 42.5131 35.8905C40.3985 38.1593 36.5019 38.4599 34.0628 36.5395C32.8925 38.0449 31.7195 39.5504 30.5492 41.0559C34.1931 43.987 39.6192 44.4844 43.7339 42.2581C47.8487 40.0345 50.4047 35.2202 49.9473 30.5655C49.4898 25.9108 46.04 21.6897 41.5715 20.3119C41.1725 20.1896 40.7655 20.0885 40.3559 20.0113L40.3533 20.014Z" fill="#1780ED"/>
</svg>