<svg width="18" height="18" viewBox="0 0 18 18" fill="none" xmlns="http://www.w3.org/2000/svg">
<path fill-rule="evenodd" clip-rule="evenodd" d="M10.678 1.6502C11.1023 1.50885 11.5679 1.56398 11.9473 1.80108L14.2947 3.26885C14.7333 3.54295 15 4.02396 15 4.54107V5.62505L15.9001 6.30035C16.2777 6.58359 16.5 7.02807 16.5 7.50005V9.75005C16.5 10.222 16.2777 10.6665 15.9001 10.9498L15 11.6251V13.4598C14.9999 13.9767 14.7336 14.4572 14.2954 14.7313L11.9473 16.199C11.6152 16.4066 11.217 16.4748 10.8384 16.3939L10.678 16.3499L9 15.7903L7.32202 16.3499C6.89768 16.4913 6.43213 16.4362 6.05273 16.199L3.70532 14.7313C3.2672 14.4572 3.00013 13.9768 3 13.4598V11.6251L2.09985 10.9498C1.72225 10.6665 1.5 10.222 1.5 9.75005V7.50005C1.50004 7.02809 1.72231 6.5836 2.09985 6.30035L3 5.62505V4.54107C3.00005 4.02394 3.26679 3.54294 3.70532 3.26885L6.05273 1.80108C6.43204 1.56403 6.89766 1.50884 7.32202 1.6502L9 2.20977L10.678 1.6502ZM9.75 3.54058V5.68951L10.8625 6.80206C10.9863 6.76904 11.1159 6.75005 11.25 6.75005C12.0784 6.75005 12.75 7.42165 12.75 8.25005C12.75 9.07848 12.0784 9.75005 11.25 9.75005C10.4216 9.75005 9.75 9.07848 9.75 8.25005C9.75001 8.11594 9.76898 7.98631 9.802 7.8626L8.68945 6.75005C8.40829 6.46885 8.25003 6.08736 8.25 5.68951V3.54058L6.84814 3.0733L4.5 4.54107V5.62505C4.5 6.09705 4.27767 6.54146 3.90015 6.82476L3 7.50005V9.75005L3.90015 10.4253C4.27764 10.7086 4.49996 11.1531 4.5 11.6251V13.459L6.84814 14.9268L8.25 14.4588V12.3106L7.13672 11.1973C7.01316 11.2303 6.88394 11.2501 6.75 11.2501C5.92157 11.2501 5.25 10.5785 5.25 9.75005C5.25003 8.92165 5.92159 8.25005 6.75 8.25005C7.57841 8.25005 8.24997 8.92165 8.25 9.75005C8.25 9.88396 8.23019 10.0132 8.19727 10.1368L9.31055 11.2501C9.59176 11.5313 9.74996 11.9128 9.75 12.3106V14.4588L11.1519 14.9268L13.5 13.459V11.6251C13.5 11.153 13.7224 10.7086 14.0999 10.4253L15 9.75005V7.50005L14.0999 6.82476C13.7224 6.54147 13.5 6.09707 13.5 5.62505V4.54107L11.1519 3.0733L9.75 3.54058Z" fill="#354052"/>
</svg>
