<svg width="60" height="50" viewBox="0 0 60 50" version="1.1" xmlns="http://www.w3.org/2000/svg" xmlns:xlink="http://www.w3.org/1999/xlink" xml:space="preserve" xmlns:serif="http://www.serif.com/" style="fill-rule:evenodd;clip-rule:evenodd;stroke-linejoin:round;stroke-miterlimit:2;">
    <path id="path" d="M55.613,3.471C55.018,3.179 54.761,3.735 54.413,4.018C54.294,4.109 54.193,4.227 54.092,4.337C53.222,5.266 52.206,5.876 50.878,5.803C48.936,5.694 47.278,6.305 45.813,7.79C45.501,5.959 44.466,4.865 42.891,4.164C42.067,3.799 41.233,3.435 40.656,2.642C40.253,2.077 40.143,1.448 39.942,0.829C39.814,0.455 39.685,0.073 39.255,0.009C38.788,-0.064 38.605,0.328 38.421,0.656C37.689,1.995 37.405,3.471 37.432,4.965C37.496,8.327 38.916,11.006 41.737,12.91C42.058,13.129 42.14,13.347 42.039,13.666C41.847,14.323 41.618,14.96 41.416,15.616C41.288,16.035 41.096,16.127 40.647,15.944C39.099,15.297 37.762,14.341 36.58,13.184C34.575,11.243 32.761,9.102 30.499,7.425C29.968,7.033 29.436,6.669 28.887,6.323C26.579,4.082 29.189,2.241 29.794,2.022C30.425,1.795 30.013,1.011 27.971,1.02C25.928,1.029 24.06,1.713 21.679,2.624C21.331,2.761 20.964,2.861 20.589,2.943C18.427,2.533 16.183,2.441 13.838,2.706C9.424,3.198 5.898,5.284 3.306,8.847C0.191,13.129 -0.541,17.994 0.356,23.069C1.3,28.417 4.029,32.845 8.224,36.308C12.575,39.897 17.584,41.656 23.3,41.319C26.771,41.118 30.636,40.654 34.996,36.964C36.095,37.51 37.249,37.729 39.163,37.893C40.638,38.03 42.058,37.82 43.157,37.592C44.878,37.228 44.759,35.633 44.137,35.342C39.09,32.991 40.198,33.948 39.191,33.173C41.755,30.139 45.62,26.987 47.132,16.773C47.251,15.962 47.15,15.452 47.132,14.796C47.122,14.395 47.214,14.241 47.672,14.195C48.936,14.049 50.163,13.703 51.29,13.083C54.56,11.298 55.878,8.364 56.19,4.847C56.236,4.309 56.181,3.753 55.613,3.471ZM27.119,35.123C22.228,31.278 19.856,30.012 18.876,30.066C17.96,30.121 18.125,31.169 18.326,31.852C18.537,32.526 18.812,32.991 19.196,33.583C19.462,33.975 19.645,34.558 18.931,34.996C17.356,35.971 14.617,34.667 14.489,34.604C11.301,32.727 8.636,30.249 6.758,26.859C4.945,23.597 3.892,20.099 3.718,16.363C3.672,15.461 3.938,15.142 4.835,14.979C6.017,14.76 7.235,14.714 8.416,14.887C13.408,15.616 17.658,17.848 21.221,21.384C23.254,23.397 24.793,25.802 26.377,28.153C28.062,30.649 29.876,33.028 32.184,34.977C32.999,35.661 33.649,36.18 34.272,36.563C32.395,36.772 29.262,36.818 27.119,35.123ZM29.464,20.044C29.464,19.643 29.784,19.325 30.187,19.325C30.279,19.325 30.361,19.343 30.435,19.37C30.535,19.407 30.627,19.461 30.7,19.543C30.828,19.671 30.902,19.853 30.902,20.044C30.902,20.445 30.581,20.764 30.178,20.764C29.775,20.764 29.464,20.445 29.464,20.044ZM36.745,23.78C36.278,23.971 35.811,24.135 35.362,24.153C34.666,24.19 33.906,23.907 33.494,23.561C32.853,23.023 32.395,22.723 32.202,21.784C32.12,21.384 32.166,20.764 32.239,20.409C32.404,19.643 32.221,19.151 31.68,18.705C31.241,18.34 30.682,18.24 30.068,18.24C29.839,18.24 29.629,18.14 29.473,18.058C29.216,17.93 29.006,17.612 29.207,17.22C29.271,17.092 29.583,16.783 29.656,16.728C30.49,16.254 31.451,16.409 32.34,16.764C33.164,17.101 33.787,17.721 34.684,18.596C35.6,19.652 35.765,19.944 36.287,20.737C36.7,21.356 37.075,21.994 37.331,22.723C37.487,23.179 37.286,23.552 36.745,23.78Z" style="fill:rgb(77,107,254);fill-rule:nonzero;"/>
</svg>
