<svg xmlns="http://www.w3.org/2000/svg" viewBox="0 0 1024 1024" width="24" height="24"><path fill="#4285F4" d="M1024 155.733C1024 70.4 953.6 0 868.267 0H155.733C70.4 0 0 70.4 0 155.733v712.534C0 953.6 70.4 1024 155.733 1024h712.534C953.6 1024 1024 953.6 1024 868.267V155.733z"/><path fill="#FFF" d="M810.667 422.4c-2.134 6.4-4.267 14.933-8.534 23.467C774.4 505.6 701.867 620.8 701.867 620.8l-21.334 36.267h102.4L588.8 915.2l44.8-174.933h-78.933l27.733-115.2c-23.467 6.4-49.067 12.8-81.067 23.466 0 0-42.666 25.6-121.6-46.933 0 0-53.333-46.933-23.466-59.733 12.8-4.267 64-10.667 104.533-17.067 55.467-6.4 87.467-10.667 87.467-10.667s-168.534 2.134-206.934-4.266c-40.533-6.4-89.6-72.534-100.266-132.267 0 0-17.067-32 36.266-17.067s268.8 59.734 268.8 59.734-281.6-87.467-300.8-108.8c-19.2-21.334-55.466-115.2-51.2-172.8 0 0 2.134-14.934 17.067-10.667 0 0 209.067 96 352 147.2 140.8 53.333 264.533 81.067 247.467 147.2z"/></svg>