<svg width="76" height="16" viewBox="0 0 76 16" fill="none" xmlns="http://www.w3.org/2000/svg">
<rect x="0.956787" y="13.8203" width="20.9866" height="1.5" fill="#1C64F2"/>
<rect x="32.1108" y="13.8203" width="42.8303" height="1.5" fill="#1C64F2"/>
<path d="M3.47679 9.522H6.23079V11.646H0.956787V0H3.47679V9.522Z" fill="#1C64F2"/>
<path d="M11.7995 2.862H13.8335V11.646H11.7995V10.998C11.4275 11.55 10.8095 11.826 9.94554 11.826H9.56754C8.07954 11.826 7.33554 11.034 7.33554 9.45V5.058C7.33554 3.474 8.07954 2.682 9.56754 2.682H9.94554C10.8095 2.682 11.4275 2.958 11.7995 3.51V2.862ZM11.4215 9.738V4.77C11.4215 4.674 11.3855 4.59 11.3135 4.518C11.2535 4.446 11.1755 4.41 11.0795 4.41H10.0895C9.99354 4.41 9.90954 4.446 9.83754 4.518C9.77754 4.59 9.74754 4.674 9.74754 4.77V9.738C9.74754 9.834 9.77754 9.918 9.83754 9.99C9.90954 10.062 9.99354 10.098 10.0895 10.098H11.0795C11.1755 10.098 11.2535 10.062 11.3135 9.99C11.3855 9.918 11.4215 9.834 11.4215 9.738Z" fill="#1C64F2"/>
<path d="M17.8862 11.646H15.4742V2.862H17.6702V3.312C18.0422 2.892 18.6062 2.682 19.3622 2.682H19.7402C21.2282 2.682 21.9722 3.474 21.9722 5.058V11.646H19.5602V4.77C19.5602 4.674 19.5242 4.59 19.4522 4.518C19.3922 4.446 19.3142 4.41 19.2182 4.41H18.2282C18.1322 4.41 18.0482 4.446 17.9762 4.518C17.9162 4.59 17.8862 4.674 17.8862 4.77V11.646Z" fill="#1C64F2"/>
<path d="M30.1109 2.862V12.312C30.1109 13.896 29.3669 14.688 27.8789 14.688H26.0789C24.5909 14.688 23.8469 13.896 23.8469 12.312V12.024H26.0249V12.6C26.0249 12.696 26.0549 12.78 26.1149 12.852C26.1869 12.924 26.2709 12.96 26.3669 12.96H27.3569C27.4529 12.96 27.5309 12.924 27.5909 12.852C27.6629 12.78 27.6989 12.696 27.6989 12.6V10.8C27.3269 11.088 26.8349 11.232 26.2229 11.232H25.8449C24.3569 11.232 23.6129 10.44 23.6129 8.856V5.058C23.6129 3.474 24.3569 2.682 25.8449 2.682H26.2229C27.0869 2.682 27.7049 2.958 28.0769 3.51V2.862H30.1109ZM27.6989 9.144V4.77C27.6989 4.674 27.6629 4.59 27.5909 4.518C27.5309 4.446 27.4529 4.41 27.3569 4.41H26.3669C26.2709 4.41 26.1869 4.446 26.1149 4.518C26.0549 4.59 26.0249 4.674 26.0249 4.77V9.144C26.0249 9.24 26.0549 9.324 26.1149 9.396C26.1869 9.468 26.2709 9.504 26.3669 9.504H27.3569C27.4529 9.504 27.5309 9.468 27.5909 9.396C27.6629 9.324 27.6989 9.24 27.6989 9.144Z" fill="#1C64F2"/>
<path d="M35.5128 7.524V5.67H38.8428V9.954C38.8428 11.538 38.0988 12.33 36.6108 12.33H34.3428C32.8548 12.33 32.1108 11.538 32.1108 9.954V2.7C32.1108 1.116 32.8548 0.324 34.3428 0.324H36.6108C38.0988 0.324 38.8428 1.116 38.8428 2.7V3.798H36.4488V2.394C36.4488 2.298 36.4128 2.214 36.3408 2.142C36.2808 2.07 36.2028 2.034 36.1068 2.034H34.9728C34.8768 2.034 34.7928 2.07 34.7208 2.142C34.6608 2.214 34.6308 2.298 34.6308 2.394V10.242C34.6308 10.338 34.6608 10.422 34.7208 10.494C34.7928 10.566 34.8768 10.602 34.9728 10.602H36.1068C36.2028 10.602 36.2808 10.566 36.3408 10.494C36.4128 10.422 36.4488 10.338 36.4488 10.242V7.524H35.5128Z" fill="#111928"/>
<path d="M44.4079 3.186C45.8959 3.186 46.6399 3.978 46.6399 5.562V8.406H42.5539V10.242C42.5539 10.338 42.5839 10.422 42.6439 10.494C42.7159 10.566 42.7999 10.602 42.8959 10.602H43.8859C43.9819 10.602 44.0599 10.566 44.1199 10.494C44.1919 10.422 44.2279 10.338 44.2279 10.242V9.27H46.6399V9.954C46.6399 11.538 45.8959 12.33 44.4079 12.33H42.3739C40.8859 12.33 40.1419 11.538 40.1419 9.954V5.562C40.1419 3.978 40.8859 3.186 42.3739 3.186H44.4079ZM42.5539 6.822H44.2279V5.202C44.2279 5.106 44.1919 5.022 44.1199 4.95C44.0599 4.878 43.9819 4.842 43.8859 4.842H42.8959C42.7999 4.842 42.7159 4.878 42.6439 4.95C42.5839 5.022 42.5539 5.106 42.5539 5.202V6.822Z" fill="#111928"/>
<path d="M50.3762 12.15H47.9642V3.366H50.1602V3.816C50.5322 3.396 51.0962 3.186 51.8522 3.186H52.2302C53.7182 3.186 54.4622 3.978 54.4622 5.562V12.15H52.0502V5.274C52.0502 5.178 52.0142 5.094 51.9422 5.022C51.8822 4.95 51.8042 4.914 51.7082 4.914H50.7182C50.6222 4.914 50.5382 4.95 50.4662 5.022C50.4062 5.094 50.3762 5.178 50.3762 5.274V12.15Z" fill="#111928"/>
<path d="M58.5509 2.268C58.2989 2.52 57.9929 2.646 57.6329 2.646C57.2729 2.646 56.9609 2.52 56.6969 2.268C56.4329 2.004 56.3009 1.692 56.3009 1.332C56.3009 0.96 56.4329 0.647999 56.6969 0.395999C56.9609 0.131999 57.2729 0 57.6329 0C57.9929 0 58.2989 0.131999 58.5509 0.395999C58.8149 0.647999 58.9469 0.96 58.9469 1.332C58.9469 1.704 58.8149 2.016 58.5509 2.268ZM56.4269 12.15V3.366H58.8389V12.15H56.4269Z" fill="#111928"/>
<path d="M64.6186 3.366H67.0306V12.15H64.8346V11.7C64.4626 12.12 63.8986 12.33 63.1426 12.33H62.7646C61.2766 12.33 60.5326 11.538 60.5326 9.954V3.366H62.9446V10.242C62.9446 10.338 62.9746 10.422 63.0346 10.494C63.1066 10.566 63.1906 10.602 63.2866 10.602H64.2766C64.3726 10.602 64.4506 10.566 64.5106 10.494C64.5826 10.422 64.6186 10.338 64.6186 10.242V3.366Z" fill="#111928"/>
<path d="M72.8112 6.642C74.2992 6.642 75.0432 7.434 75.0432 9.018V9.954C75.0432 11.538 74.2992 12.33 72.8112 12.33H70.8132C69.3252 12.33 68.5812 11.538 68.5812 9.954V9.396H70.8132V10.188C70.8132 10.284 70.8432 10.368 70.9032 10.44C70.9752 10.512 71.0592 10.548 71.1552 10.548H72.6312C72.7272 10.548 72.8052 10.512 72.8652 10.44C72.9372 10.368 72.9732 10.284 72.9732 10.188V9.108C72.9732 9.012 72.9372 8.928 72.8652 8.856C72.8052 8.784 72.7272 8.748 72.6312 8.748H70.7772C69.2892 8.748 68.5452 7.956 68.5452 6.372V5.562C68.5452 3.978 69.2892 3.186 70.7772 3.186H72.6672C74.1552 3.186 74.8992 3.978 74.8992 5.562V5.886H72.6672V5.328C72.6672 5.232 72.6312 5.148 72.5592 5.076C72.4992 5.004 72.4212 4.968 72.3252 4.968H70.9572C70.8612 4.968 70.7772 5.004 70.7052 5.076C70.6452 5.148 70.6152 5.232 70.6152 5.328V6.282C70.6152 6.378 70.6452 6.462 70.7052 6.534C70.7772 6.606 70.8612 6.642 70.9572 6.642H72.8112Z" fill="#111928"/>
</svg>
