<svg width="29" height="28" viewBox="0 0 29 28" fill="none" xmlns="http://www.w3.org/2000/svg">
<path d="M29 14C29 21.732 22.5081 28 14.5 28C12.5713 28 10.7305 27.6364 9.04718 26.9763C8.72501 26.85 8.56393 26.7869 8.43371 26.7587C8.30634 26.7311 8.21208 26.721 8.08155 26.721C7.9481 26.721 7.80275 26.7444 7.51205 26.7912L1.77989 27.7136C1.17963 27.8102 0.879495 27.8585 0.662464 27.7686C0.472511 27.6899 0.321142 27.5438 0.23967 27.3604C0.146582 27.1508 0.196605 26.861 0.296649 26.2815L1.25201 20.747C1.30046 20.4663 1.32468 20.326 1.32467 20.1971C1.32465 20.0711 1.31421 19.9801 1.28566 19.8571C1.25647 19.7314 1.19105 19.5759 1.06021 19.2648C0.376575 17.6395 0 15.8622 0 14C0 6.26801 6.49187 0 14.5 0C22.5081 0 29 6.26801 29 14Z" fill="#155EEF"/>
<path opacity="0.72" fill-rule="evenodd" clip-rule="evenodd" d="M24.8346 23.8202L13.2186 23.8202C12.8708 23.8202 12.548 23.6395 12.3662 23.3431L7.06478 14.702C7.01652 14.6234 6.99097 14.5329 6.99097 14.4406V11.7363L13.3252 21.9651C13.4619 22.1858 13.7031 22.3202 13.9628 22.3202H26.1627C25.7565 22.8501 25.3125 23.3513 24.8346 23.8202Z" fill="white"/>
<path d="M27.9351 19.2764C28.6217 17.6481 29 15.867 29 14.0005C29 13.7095 28.9908 13.4206 28.9727 13.1341H18.7973C18.6231 13.1341 18.4615 13.0435 18.3707 12.8949L14.2258 6.11473C14.1986 6.07015 14.1501 6.04297 14.0979 6.04297H7.43681C7.24156 6.04297 7.12167 6.25678 7.22351 6.42336L14.7884 18.798C14.9701 19.0952 15.2933 19.2764 15.6416 19.2764L27.9351 19.2764Z" fill="white"/>
</svg>
