<svg id="Layer_1" data-name="Layer 1" xmlns="http://www.w3.org/2000/svg" viewBox="0 0 209.51 94.74"><defs><style>.cls-1{fill:#f4801f;}.cls-2{fill:#f9ab41;}</style></defs><path class="cls-1" d="M143.05,93.42l1.07-3.71c1.27-4.41.8-8.48-1.34-11.48-2-2.76-5.26-4.38-9.25-4.57L58,72.7a1.47,1.47,0,0,1-1.35-2,2,2,0,0,1,1.75-1.34l76.26-1c9-.41,18.84-7.75,22.27-16.71l4.34-11.36a2.68,2.68,0,0,0,.18-1,3.31,3.31,0,0,0-.06-.54,49.67,49.67,0,0,0-95.49-5.14,22.35,22.35,0,0,0-35,23.42A31.73,31.73,0,0,0,.34,93.45a1.47,1.47,0,0,0,1.45,1.27l139.49,0h0A1.83,1.83,0,0,0,143.05,93.42Z"/><path class="cls-2" d="M168.22,41.15q-1,0-2.1.06a.88.88,0,0,0-.32.07,1.17,1.17,0,0,0-.76.8l-3,10.26c-1.28,4.41-.81,8.48,1.34,11.48a11.65,11.65,0,0,0,9.24,4.57l16.11,1a1.44,1.44,0,0,1,1.14.62,1.5,1.5,0,0,1,.17,1.37,2,2,0,0,1-1.75,1.34l-16.73,1c-9.09.42-18.88,7.75-22.31,16.7l-1.21,3.16a.9.9,0,0,0,.79,1.22h57.63A1.55,1.55,0,0,0,208,93.63a41.34,41.34,0,0,0-39.76-52.48Z"/></svg>