<svg width="345" height="118" viewBox="0 0 345 118" fill="none" xmlns="http://www.w3.org/2000/svg">
<mask id="mask0_17759_72539" style="mask-type:alpha" maskUnits="userSpaceOnUse" x="0" y="0" width="345" height="118">
<rect width="345" height="118" fill="url(#paint0_linear_17759_72539)"/>
</mask>
<g mask="url(#mask0_17759_72539)">
<path d="M8 0H0V8M8 0V8M8 0H16M8 8H0M8 8H16M8 8V16M0 8V16M16 0V8M16 0H24M16 8H24M16 8V16M24 0V8M24 0H32M24 8H32M24 8V16M32 0V8M32 0H40M32 8H40M32 8V16M40 0V8M40 0H48M40 8H48M40 8V16M48 0V8M48 0H56M48 8H56M48 8V16M56 0V8M56 0H64M56 8H64M56 8V16M64 0V8M64 0H72M64 8H72M64 8V16M72 0V8M72 0H80M72 8H80M72 8V16M80 0V8M80 0H88M80 8H88M80 8V16M88 0V8M88 0H96M88 8H96M88 8V16M96 0V8M96 0H104M96 8H104M96 8V16M104 0V8M104 0H112M104 8H112M104 8V16M112 0V8M112 0H120M112 8H120M112 8V16M120 0V8M120 0H128M120 8H128M120 8V16M128 0V8M128 0H136M128 8H136M128 8V16M136 0V8M136 0H144M136 8H144M136 8V16M144 0V8M144 0H152M144 8H152M144 8V16M152 0V8M152 0H160M152 8H160M152 8V16M160 0V8M160 0H168M160 8H168M160 8V16M168 0V8M168 0H176M168 8H176M168 8V16M176 0V8M176 0H184M176 8H184M176 8V16M184 0V8M184 0H192M184 8H192M184 8V16M192 0V8M192 0H200M192 8H200M192 8V16M200 0V8M200 0H208M200 8H208M200 8V16M208 0V8M208 0H216M208 8H216M208 8V16M216 0V8M216 0H224M216 8H224M216 8V16M224 0V8M224 0H232M224 8H232M224 8V16M232 0V8M232 0H240M232 8H240M232 8V16M240 0V8M240 0H248M240 8H248M240 8V16M248 0V8M248 0H256M248 8H256M248 8V16M256 0V8M256 0H264M256 8H264M256 8V16M264 0V8M264 0H272M264 8H272M264 8V16M272 0V8M272 0H280M272 8H280M272 8V16M280 0V8M280 0H288M280 8V16M280 8H288M8 16H0M8 16H16M8 16V24M0 16V24M16 16H24M16 16V24M24 16H32M24 16V24M32 16H40M32 16V24M40 16H48M40 16V24M48 16H56M48 16V24M56 16H64M56 16V24M64 16H72M64 16V24M72 16H80M72 16V24M80 16H88M80 16V24M88 16H96M88 16V24M96 16H104M96 16V24M104 16H112M104 16V24M112 16H120M112 16V24M120 16H128M120 16V24M128 16H136M128 16V24M136 16H144M136 16V24M144 16H152M144 16V24M152 16H160M152 16V24M160 16H168M160 16V24M168 16H176M168 16V24M176 16H184M176 16V24M184 16H192M184 16V24M192 16H200M192 16V24M200 16H208M200 16V24M208 16H216M208 16V24M216 16H224M216 16V24M224 16H232M224 16V24M232 16H240M232 16V24M240 16H248M240 16V24M248 16H256M248 16V24M256 16H264M256 16V24M264 16H272M264 16V24M272 16H280M272 16V24M280 16V24M280 16H288M8 24H0M8 24H16M8 24V32M0 24V32M16 24H24M16 24V32M24 24H32M24 24V32M32 24H40M32 24V32M40 24H48M40 24V32M48 24H56M48 24V32M56 24H64M56 24V32M64 24H72M64 24V32M72 24H80M72 24V32M80 24H88M80 24V32M88 24H96M88 24V32M96 24H104M96 24V32M104 24H112M104 24V32M112 24H120M112 24V32M120 24H128M120 24V32M128 24H136M128 24V32M136 24H144M136 24V32M144 24H152M144 24V32M152 24H160M152 24V32M160 24H168M160 24V32M168 24H176M168 24V32M176 24H184M176 24V32M184 24H192M184 24V32M192 24H200M192 24V32M200 24H208M200 24V32M208 24H216M208 24V32M216 24H224M216 24V32M224 24H232M224 24V32M232 24H240M232 24V32M240 24H248M240 24V32M248 24H256M248 24V32M256 24H264M256 24V32M264 24H272M264 24V32M272 24H280M272 24V32M280 24V32M280 24H288M8 32H0M8 32H16M8 32V40M0 32V40M16 32H24M16 32V40M24 32H32M24 32V40M32 32H40M32 32V40M40 32H48M40 32V40M48 32H56M48 32V40M56 32H64M56 32V40M64 32H72M64 32V40M72 32H80M72 32V40M80 32H88M80 32V40M88 32H96M88 32V40M96 32H104M96 32V40M104 32H112M104 32V40M112 32H120M112 32V40M120 32H128M120 32V40M128 32H136M128 32V40M136 32H144M136 32V40M144 32H152M144 32V40M152 32H160M152 32V40M160 32H168M160 32V40M168 32H176M168 32V40M176 32H184M176 32V40M184 32H192M184 32V40M192 32H200M192 32V40M200 32H208M200 32V40M208 32H216M208 32V40M216 32H224M216 32V40M224 32H232M224 32V40M232 32H240M232 32V40M240 32H248M240 32V40M248 32H256M248 32V40M256 32H264M256 32V40M264 32H272M264 32V40M272 32H280M272 32V40M280 32V40M280 32H288M8 40H0M8 40H16M8 40V48M0 40V48M16 40H24M16 40V48M24 40H32M24 40V48M32 40H40M32 40V48M40 40H48M40 40V48M48 40H56M48 40V48M56 40H64M56 40V48M64 40H72M64 40V48M72 40H80M72 40V48M80 40H88M80 40V48M88 40H96M88 40V48M96 40H104M96 40V48M104 40H112M104 40V48M112 40H120M112 40V48M120 40H128M120 40V48M128 40H136M128 40V48M136 40H144M136 40V48M144 40H152M144 40V48M152 40H160M152 40V48M160 40H168M160 40V48M168 40H176M168 40V48M176 40H184M176 40V48M184 40H192M184 40V48M192 40H200M192 40V48M200 40H208M200 40V48M208 40H216M208 40V48M216 40H224M216 40V48M224 40H232M224 40V48M232 40H240M232 40V48M240 40H248M240 40V48M248 40H256M248 40V48M256 40H264M256 40V48M264 40H272M264 40V48M272 40H280M272 40V48M280 40V48M280 40H288M8 48H0M8 48H16M8 48V56M0 48V56M16 48H24M16 48V56M24 48H32M24 48V56M32 48H40M32 48V56M40 48H48M40 48V56M48 48H56M48 48V56M56 48H64M56 48V56M64 48H72M64 48V56M72 48H80M72 48V56M80 48H88M80 48V56M88 48H96M88 48V56M96 48H104M96 48V56M104 48H112M104 48V56M112 48H120M112 48V56M120 48H128M120 48V56M128 48H136M128 48V56M136 48H144M136 48V56M144 48H152M144 48V56M152 48H160M152 48V56M160 48H168M160 48V56M168 48H176M168 48V56M176 48H184M176 48V56M184 48H192M184 48V56M192 48H200M192 48V56M200 48H208M200 48V56M208 48H216M208 48V56M216 48H224M216 48V56M224 48H232M224 48V56M232 48H240M232 48V56M240 48H248M240 48V56M248 48H256M248 48V56M256 48H264M256 48V56M264 48H272M264 48V56M272 48H280M272 48V56M280 48V56M280 48H288M8 56H0M8 56H16M8 56V64M0 56V64M16 56H24M16 56V64M24 56H32M24 56V64M32 56H40M32 56V64M40 56H48M40 56V64M48 56H56M48 56V64M56 56H64M56 56V64M64 56H72M64 56V64M72 56H80M72 56V64M80 56H88M80 56V64M88 56H96M88 56V64M96 56H104M96 56V64M104 56H112M104 56V64M112 56H120M112 56V64M120 56H128M120 56V64M128 56H136M128 56V64M136 56H144M136 56V64M144 56H152M144 56V64M152 56H160M152 56V64M160 56H168M160 56V64M168 56H176M168 56V64M176 56H184M176 56V64M184 56H192M184 56V64M192 56H200M192 56V64M200 56H208M200 56V64M208 56H216M208 56V64M216 56H224M216 56V64M224 56H232M224 56V64M232 56H240M232 56V64M240 56H248M240 56V64M248 56H256M248 56V64M256 56H264M256 56V64M264 56H272M264 56V64M272 56H280M272 56V64M280 56V64M280 56H288M8 64H0M8 64H16M8 64V72M0 64V72M16 64H24M16 64V72M24 64H32M24 64V72M32 64H40M32 64V72M40 64H48M40 64V72M48 64H56M48 64V72M56 64H64M56 64V72M64 64H72M64 64V72M72 64H80M72 64V72M80 64H88M80 64V72M88 64H96M88 64V72M96 64H104M96 64V72M104 64H112M104 64V72M112 64H120M112 64V72M120 64H128M120 64V72M128 64H136M128 64V72M136 64H144M136 64V72M144 64H152M144 64V72M152 64H160M152 64V72M160 64H168M160 64V72M168 64H176M168 64V72M176 64H184M176 64V72M184 64H192M184 64V72M192 64H200M192 64V72M200 64H208M200 64V72M208 64H216M208 64V72M216 64H224M216 64V72M224 64H232M224 64V72M232 64H240M232 64V72M240 64H248M240 64V72M248 64H256M248 64V72M256 64H264M256 64V72M264 64H272M264 64V72M272 64H280M272 64V72M280 64V72M280 64H288M8 72H0M8 72H16M8 72V80M0 72V80M16 72H24M16 72V80M24 72H32M24 72V80M32 72H40M32 72V80M40 72H48M40 72V80M48 72H56M48 72V80M56 72H64M56 72V80M64 72H72M64 72V80M72 72H80M72 72V80M80 72H88M80 72V80M88 72H96M88 72V80M96 72H104M96 72V80M104 72H112M104 72V80M112 72H120M112 72V80M120 72H128M120 72V80M128 72H136M128 72V80M136 72H144M136 72V80M144 72H152M144 72V80M152 72H160M152 72V80M160 72H168M160 72V80M168 72H176M168 72V80M176 72H184M176 72V80M184 72H192M184 72V80M192 72H200M192 72V80M200 72H208M200 72V80M208 72H216M208 72V80M216 72H224M216 72V80M224 72H232M224 72V80M232 72H240M232 72V80M240 72H248M240 72V80M248 72H256M248 72V80M256 72H264M256 72V80M264 72H272M264 72V80M272 72H280M272 72V80M280 72V80M280 72H288M8 80H0M8 80H16M8 80V88M0 80L0 88M16 80H24M16 80V88M24 80H32M24 80V88M32 80H40M32 80V88M40 80H48M40 80V88M48 80H56M48 80V88M56 80H64M56 80V88M64 80H72M64 80V88M72 80H80M72 80V88M80 80H88M80 80V88M88 80H96M88 80V88M96 80H104M96 80V88M104 80H112M104 80V88M112 80H120M112 80V88M120 80H128M120 80V88M128 80H136M128 80V88M136 80H144M136 80V88M144 80H152M144 80V88M152 80H160M152 80V88M160 80H168M160 80V88M168 80H176M168 80V88M176 80H184M176 80V88M184 80H192M184 80V88M192 80H200M192 80V88M200 80H208M200 80V88M208 80H216M208 80V88M216 80H224M216 80V88M224 80H232M224 80V88M232 80H240M232 80V88M240 80H248M240 80V88M248 80H256M248 80V88M256 80H264M256 80V88M264 80H272M264 80V88M272 80H280M272 80V88M280 80H288M280 80V88M288 0V8M288 0H296M288 8H296M288 8V16M296 0V8M296 0H304M296 8H304M296 8V16M304 0V8M304 0H312M304 8H312M304 8V16M312 0V8M312 0H320M312 8H320M312 8V16M320 0V8M320 0H328M320 8H328M320 8V16M328 0V8M328 0H336M328 8H336M328 8V16M336 0V8M336 0H344V8M336 8H344M336 8V16M344 8V16M288 16H296M288 16V24M296 16H304M296 16V24M304 16H312M304 16V24M312 16H320M312 16V24M320 16H328M320 16V24M328 16H336M328 16V24M336 16H344M336 16V24M344 16V24M288 24H296M288 24V32M296 24H304M296 24V32M304 24H312M304 24V32M312 24H320M312 24V32M320 24H328M320 24V32M328 24H336M328 24V32M336 24H344M336 24V32M344 24V32M288 32H296M288 32V40M296 32H304M296 32V40M304 32H312M304 32V40M312 32H320M312 32V40M320 32H328M320 32V40M328 32H336M328 32V40M336 32H344M336 32V40M344 32V40M288 40H296M288 40V48M296 40H304M296 40V48M304 40H312M304 40V48M312 40H320M312 40V48M320 40H328M320 40V48M328 40H336M328 40V48M336 40H344M336 40V48M344 40V48M288 48H296M288 48V56M296 48H304M296 48V56M304 48H312M304 48V56M312 48H320M312 48V56M320 48H328M320 48V56M328 48H336M328 48V56M336 48H344M336 48V56M344 48V56M288 56H296M288 56V64M296 56H304M296 56V64M304 56H312M304 56V64M312 56H320M312 56V64M320 56H328M320 56V64M328 56H336M328 56V64M336 56H344M336 56V64M344 56V64M288 64H296M288 64V72M296 64H304M296 64V72M304 64H312M304 64V72M312 64H320M312 64V72M320 64H328M320 64V72M328 64H336M328 64V72M336 64H344M336 64V72M344 64V72M288 72H296M288 72V80M296 72H304M296 72V80M304 72H312M304 72V80M312 72H320M312 72V80M320 72H328M320 72V80M328 72H336M328 72V80M336 72H344M336 72V80M344 72V80M288 80H296M288 80V88M296 80H304M296 80V88M304 80H312M304 80V88M312 80H320M312 80V88M320 80H328M320 80V88M328 80H336M328 80V88M336 80H344M336 80V88M344 80V88M8 88H0M8 88H16M8 88V96M0 88V96M16 88H24M16 88V96M24 88H32M24 88V96M32 88H40M32 88V96M40 88H48M40 88V96M48 88H56M48 88V96M56 88H64M56 88V96M64 88H72M64 88V96M72 88H80M72 88V96M80 88H88M80 88V96M88 88H96M88 88V96M96 88H104M96 88V96M104 88H112M104 88V96M112 88H120M112 88V96M120 88H128M120 88V96M128 88H136M128 88V96M136 88H144M136 88V96M144 88H152M144 88V96M152 88H160M152 88V96M160 88H168M160 88V96M168 88H176M168 88V96M176 88H184M176 88V96M184 88H192M184 88V96M192 88H200M192 88V96M200 88H208M200 88V96M208 88H216M208 88V96M216 88H224M216 88V96M224 88H232M224 88V96M232 88H240M232 88V96M240 88H248M240 88V96M248 88H256M248 88V96M256 88H264M256 88V96M264 88H272M264 88V96M272 88H280M272 88V96M280 88V96M280 88H288M8 96H0M8 96H16M8 96V104M0 96V104M16 96H24M16 96V104M24 96H32M24 96V104M32 96H40M32 96V104M40 96H48M40 96V104M48 96H56M48 96V104M56 96H64M56 96V104M64 96H72M64 96V104M72 96H80M72 96V104M80 96H88M80 96V104M88 96H96M88 96V104M96 96H104M96 96V104M104 96H112M104 96V104M112 96H120M112 96V104M120 96H128M120 96V104M128 96H136M128 96V104M136 96H144M136 96V104M144 96H152M144 96V104M152 96H160M152 96V104M160 96H168M160 96V104M168 96H176M168 96V104M176 96H184M176 96V104M184 96H192M184 96V104M192 96H200M192 96V104M200 96H208M200 96V104M208 96H216M208 96V104M216 96H224M216 96V104M224 96H232M224 96V104M232 96H240M232 96V104M240 96H248M240 96V104M248 96H256M248 96V104M256 96H264M256 96V104M264 96H272M264 96V104M272 96H280M272 96V104M280 96V104M280 96H288M8 104H0M8 104H16M8 104V112M0 104V112H8M16 104H24M16 104V112M24 104H32M24 104V112M32 104H40M32 104V112M40 104H48M40 104V112M48 104H56M48 104V112M56 104H64M56 104V112M64 104H72M64 104V112M72 104H80M72 104V112M80 104H88M80 104V112M88 104H96M88 104V112M96 104H104M96 104V112M104 104H112M104 104V112M112 104H120M112 104V112M120 104H128M120 104V112M128 104H136M128 104V112M136 104H144M136 104V112M144 104H152M144 104V112M152 104H160M152 104V112M160 104H168M160 104V112M168 104H176M168 104V112M176 104H184M176 104V112M184 104H192M184 104V112M192 104H200M192 104V112M200 104H208M200 104V112M208 104H216M208 104V112M216 104H224M216 104V112M224 104H232M224 104V112M232 104H240M232 104V112M240 104H248M240 104V112M248 104H256M248 104V112M256 104H264M256 104V112M264 104H272M264 104V112M272 104H280M272 104V112M280 104V112M280 104H288M8 112H16M16 112H24M24 112H32M32 112H40M40 112H48M48 112H56M56 112H64M64 112H72M72 112H80M80 112H88M88 112H96M96 112H104M104 112H112M112 112H120M120 112H128M128 112H136M136 112H144M144 112H152M152 112H160M160 112H168M168 112H176M176 112H184M184 112H192M192 112H200M200 112H208M208 112H216M216 112H224M224 112H232M232 112H240M240 112H248M248 112H256M256 112H264M264 112H272M272 112H280M280 112H288M288 88H296M288 88V96M296 88H304M296 88V96M304 88H312M304 88V96M312 88H320M312 88V96M320 88H328M320 88V96M328 88H336M328 88V96M336 88H344M336 88V96M344 88V96M288 96H296M288 96V104M296 96H304M296 96V104M304 96H312M304 96V104M312 96H320M312 96V104M320 96H328M320 96V104M328 96H336M328 96V104M336 96H344M336 96V104M344 96V104M288 104H296M288 104V112M296 104H304M296 104V112M304 104H312M304 104V112M312 104H320M312 104V112M320 104H328M320 104V112M328 104H336M328 104V112M336 104H344M336 104V112M344 104V112H336M288 112H296M296 112H304M304 112H312M312 112H320M320 112H328M328 112H336" stroke="#1570EF" stroke-width="0.5"/>
</g>
<defs>
<linearGradient id="paint0_linear_17759_72539" x1="172.5" y1="0" x2="172.5" y2="118" gradientUnits="userSpaceOnUse">
<stop stop-color="#D9D9D9" stop-opacity="0.08"/>
<stop offset="1" stop-color="#737373" stop-opacity="0"/>
</linearGradient>
</defs>
</svg>
