<svg width="24" height="24" viewBox="0 0 24 24" fill="none" xmlns="http://www.w3.org/2000/svg">
<path d="M12 1C9.82441 1 7.69767 1.64514 5.88873 2.85383C4.07979 4.06253 2.66989 5.7805 1.83733 7.79048C1.00477 9.80047 0.786929 12.0122 1.21137 14.146C1.6358 16.2798 2.68345 18.2398 4.22183 19.7782C5.76021 21.3166 7.72022 22.3642 9.85401 22.7886C11.9878 23.2131 14.1995 22.9952 16.2095 22.1627C18.2195 21.3301 19.9375 19.9202 21.1462 18.1113C22.3549 16.3023 23 14.1756 23 12C23 9.08262 21.8411 6.28473 19.7782 4.22183C17.7153 2.15893 14.9174 1 12 1ZM15.0296 6.26992L16.1076 4.78675C16.1784 4.6893 16.2677 4.60675 16.3703 4.54381C16.473 4.48087 16.5871 4.43877 16.7061 4.41992C16.825 4.40106 16.9465 4.40582 17.0636 4.43393C17.1807 4.46203 17.2912 4.51293 17.3886 4.58371C17.4861 4.65449 17.5686 4.74377 17.6316 4.84646C17.6945 4.94915 17.7366 5.06322 17.7555 5.18218C17.7743 5.30113 17.7696 5.42264 17.7415 5.53975C17.7134 5.65687 17.6625 5.7673 17.5917 5.86475L16.5137 7.34792C16.3707 7.54472 16.1554 7.67667 15.9152 7.71475C15.675 7.75283 15.4294 7.69391 15.2326 7.55096C15.0358 7.40801 14.9039 7.19273 14.8658 6.95249C14.8277 6.71225 14.8866 6.46672 15.0296 6.26992ZM6.61184 4.58417C6.70931 4.51294 6.81989 4.46167 6.93722 4.4333C7.05456 4.40493 7.17635 4.40002 7.29559 4.41884C7.41484 4.43766 7.52919 4.47985 7.63208 4.54299C7.73497 4.60613 7.82438 4.68897 7.89517 4.78675L8.97501 6.26992C9.11796 6.46733 9.17663 6.71344 9.13813 6.95411C9.09962 7.19478 8.96708 7.4103 8.76967 7.55325C8.57226 7.6962 8.32615 7.75488 8.08548 7.71637C7.84481 7.67786 7.62929 7.54533 7.48634 7.34792L6.40834 5.86475C6.33759 5.76731 6.28673 5.65689 6.25867 5.5398C6.23061 5.4227 6.22589 5.30122 6.24479 5.1823C6.26368 5.06338 6.30583 4.94935 6.36881 4.84672C6.43179 4.74409 6.51437 4.65487 6.61184 4.58417ZM6.18101 14.8508L4.43934 15.4173C4.32353 15.4604 4.2002 15.4797 4.07677 15.4739C3.95333 15.4681 3.83234 15.4375 3.72106 15.3837C3.60978 15.33 3.51051 15.2544 3.42922 15.1613C3.34793 15.0682 3.28629 14.9597 3.24801 14.8422C3.20973 14.7247 3.19561 14.6007 3.20648 14.4776C3.21735 14.3545 3.253 14.2349 3.31128 14.1259C3.36955 14.017 3.44926 13.9209 3.54561 13.8435C3.64195 13.7662 3.75295 13.7091 3.87192 13.6757L5.61359 13.1092C5.72952 13.0656 5.85308 13.046 5.9768 13.0515C6.10053 13.057 6.22185 13.0875 6.33345 13.1412C6.44505 13.1949 6.54461 13.2707 6.62613 13.3639C6.70764 13.4572 6.76941 13.566 6.80772 13.6837C6.84603 13.8015 6.86007 13.9258 6.84901 14.0492C6.83794 14.1725 6.802 14.2923 6.74334 14.4014C6.68468 14.5105 6.60453 14.6065 6.50773 14.6838C6.41092 14.761 6.30038 14.8179 6.18101 14.8508ZM12.9167 20.25C12.9167 20.4931 12.8201 20.7263 12.6482 20.8982C12.4763 21.0701 12.2431 21.1667 12 21.1667C11.7569 21.1667 11.5237 21.0701 11.3518 20.8982C11.1799 20.7263 11.0833 20.4931 11.0833 20.25V18.4167C11.0833 18.1736 11.1799 17.9404 11.3518 17.7685C11.5237 17.5966 11.7569 17.5 12 17.5C12.2431 17.5 12.4763 17.5966 12.6482 17.7685C12.8201 17.9404 12.9167 18.1736 12.9167 18.4167V20.25ZM12 14.9333L8.54967 16.7483L9.20876 12.9066L6.4175 10.1859L10.2748 9.62583L12 6.13333L13.7252 9.62583L17.5825 10.1859L14.7913 12.9066L15.4503 16.7483L12 14.9333ZM19.5625 15.4192L17.8208 14.8527C17.7015 14.8197 17.59 14.7629 17.4932 14.6856C17.3964 14.6084 17.3162 14.5123 17.2576 14.4032C17.1989 14.2942 17.163 14.1743 17.1519 14.051C17.1409 13.9276 17.1549 13.8033 17.1932 13.6856C17.2315 13.5678 17.2933 13.459 17.3748 13.3658C17.4563 13.2725 17.5559 13.1968 17.6675 13.1431C17.7791 13.0894 17.9004 13.0588 18.0241 13.0533C18.1479 13.0478 18.2714 13.0674 18.3873 13.111L20.129 13.6775C20.248 13.7109 20.359 13.768 20.4553 13.8454C20.5517 13.9227 20.6314 14.0188 20.6897 14.1278C20.7479 14.2367 20.7836 14.3563 20.7944 14.4794C20.8053 14.6025 20.7912 14.7265 20.7529 14.844C20.7146 14.9615 20.653 15.0701 20.5717 15.1631C20.4904 15.2562 20.3911 15.3319 20.2799 15.3856C20.1686 15.4393 20.0476 15.47 19.9242 15.4757C19.8007 15.4815 19.6783 15.4623 19.5625 15.4192Z" fill="black"/>
</svg>
