<?xml version="1.0" standalone="no"?><!DOCTYPE svg PUBLIC "-//W3C//DTD SVG 1.1//EN" "http://www.w3.org/Graphics/SVG/1.1/DTD/svg11.dtd"><svg t="1704903128716" class="icon" viewBox="0 0 1024 1024" version="1.1" xmlns="http://www.w3.org/2000/svg" p-id="5473" width="16" height="16" xmlns:xlink="http://www.w3.org/1999/xlink"><path d="M512 0c282.773333 0 512 229.226667 512 512S794.773333 1024 512 1024 0 794.773333 0 512 229.226667 0 512 0z m0 64C264.576 64 64 264.576 64 512s200.576 448 448 448 448-200.576 448-448S759.424 64 512 64z m0 213.333333a32 32 0 0 1 32 32v405.333334a32 32 0 0 1-64 0v-405.333334A32 32 0 0 1 512 277.333333z m-128 85.333334a32 32 0 0 1 32 32v234.666666a32 32 0 0 1-64 0v-234.666666A32 32 0 0 1 384 362.666667z m256 0a32 32 0 0 1 32 32v234.666666a32 32 0 0 1-64 0v-234.666666A32 32 0 0 1 640 362.666667z m-384 85.333333a32 32 0 0 1 32 32v64a32 32 0 0 1-64 0v-64A32 32 0 0 1 256 448z m512 0a32 32 0 0 1 32 32v64a32 32 0 0 1-64 0v-64A32 32 0 0 1 768 448z" fill="#42A6ED" p-id="5474"></path></svg>