<?xml version="1.0" standalone="no"?><!DOCTYPE svg PUBLIC "-//W3C//DTD SVG 1.1//EN" "http://www.w3.org/Graphics/SVG/1.1/DTD/svg11.dtd"><svg t="1696642426087" class="icon" viewBox="0 0 1024 1024" version="1.1" xmlns="http://www.w3.org/2000/svg" p-id="4393" xmlns:xlink="http://www.w3.org/1999/xlink" width="16" height="16"><path d="M149.897707 387.566843l154.232099 0c49.484303 0 89.577425-40.093122 89.577425-89.577425L393.707231 143.757319C393.707231 94.273016 353.614109 54.179894 304.491005 54.179894L149.897707 54.179894c-49.484303 0-89.577425 40.093122-89.577425 89.577425l0 154.232099C60.320282 347.473721 100.774603 387.566843 149.897707 387.566843zM136.533333 143.757319c0-7.223986 6.140388-13.364374 13.364374-13.364374l154.232099 0c7.223986 0 13.364374 6.140388 13.364374 13.364374l0 154.232099c0 7.223986-6.140388 13.364374-13.364374 13.364374L149.897707 311.353792c-7.223986 0-13.364374-6.140388-13.364374-13.364374L136.533333 143.757319z" fill="#8a8a8a" p-id="4394"></path><path d="M304.491005 628.486772 149.897707 628.486772c-49.484303 0-89.577425 40.093122-89.577425 89.577425l0 154.232099c0 49.484303 40.093122 89.577425 89.577425 89.577425l154.232099 0c49.484303 0 89.577425-40.093122 89.577425-89.577425l0-154.232099C393.707231 668.579894 353.614109 628.486772 304.491005 628.486772zM317.49418 872.296296c0 7.223986-6.140388 13.364374-13.364374 13.364374L149.897707 885.66067c-7.223986 0-13.364374-6.140388-13.364374-13.364374l0-154.232099c0-7.223986 6.140388-13.364374 13.364374-13.364374l154.232099 0c7.223986 0 13.364374 6.140388 13.364374 13.364374L317.49418 872.296296z" fill="#8a8a8a" p-id="4395"></path><path d="M878.797884 54.179894l-154.232099 0c-49.484303 0-89.577425 40.093122-89.577425 89.577425l0 154.232099c0 49.484303 40.093122 89.577425 89.577425 89.577425l154.232099 0c49.484303 0 89.577425-40.093122 89.577425-89.577425L968.375309 143.757319C968.014109 94.273016 927.920988 54.179894 878.797884 54.179894zM891.801058 297.989418c0 7.223986-6.140388 13.364374-13.364374 13.364374l-154.232099 0c-7.223986 0-13.364374-6.140388-13.364374-13.364374L710.840212 143.757319c0-7.223986 6.140388-13.364374 13.364374-13.364374l154.232099 0c7.223986 0 13.364374 6.140388 13.364374 13.364374L891.801058 297.989418z" fill="#8a8a8a" p-id="4396"></path><path d="M673.997884 552.273721c19.865961 0 36.119929-15.892769 35.75873-36.119929 0-19.865961-15.892769-36.119929-36.119929-36.119929l-126.058554 0L547.578131 338.443739c0-19.865961-15.892769-36.119929-36.119929-35.75873-19.865961 0-36.119929 15.892769-36.119929 36.119929L475.338272 480.395062 96.440212 480.395062c-19.865961 0-36.119929 15.892769-36.119929 36.119929 0 19.865961 15.892769 36.119929 36.119929 36.119929l379.620459 0 0 169.04127c0 19.865961 15.892769 36.119929 36.119929 36.119929s36.119929-15.892769 36.119929-36.119929l0-169.04127L673.997884 552.634921z" fill="#8a8a8a" p-id="4397"></path><path d="M932.255379 552.273721c19.865961 0 36.119929-15.892769 35.75873-36.119929 0-19.865961-15.892769-36.119929-36.119929-36.119929l-79.825044 0c-19.865961 0-36.119929 15.892769-36.119929 36.119929 0 19.865961 15.892769 36.119929 36.119929 36.119929L932.255379 552.273721z" fill="#8a8a8a" p-id="4398"></path><path d="M511.8194 166.874074c19.865961 0 36.119929-15.892769 36.119929-36.119929L547.93933 88.855026c0-19.865961-15.892769-36.119929-36.119929-35.75873-19.865961 0-36.119929 15.892769-36.119929 36.119929l0 41.899118C476.06067 150.620106 491.953439 166.874074 511.8194 166.874074z" fill="#8a8a8a" p-id="4399"></path><path d="M511.8194 849.179541c-19.865961 0-36.119929 15.892769-36.119929 36.119929l0 41.899118c0 19.865961 15.892769 36.119929 36.119929 36.119929s36.119929-15.892769 36.119929-36.119929l0-42.260317C547.93933 865.07231 531.685362 849.179541 511.8194 849.179541z" fill="#8a8a8a" p-id="4400"></path><path d="M892.884656 871.573898c0 7.223986-6.140388 13.003175-13.003175 13.003175l-38.648325 0 0 75.129453 38.648325 0c48.761905 0 88.493827-39.731922 88.493827-88.493827l0-43.705115-75.129453 0L893.245855 871.573898z" fill="#8a8a8a" p-id="4401"></path><path d="M879.520282 631.015168l-152.426102 0c-48.761905 0-88.493827 39.731922-88.493827 88.493827l0 152.426102c0 48.761905 39.731922 88.493827 88.493827 88.493827l38.648325 0L765.742504 884.938272l-38.648325 0c-7.223986 0-13.003175-6.140388-13.003175-13.003175l0-152.426102c0-7.223986 6.140388-13.003175 13.003175-13.003175l152.426102 0c7.223986 0 13.003175 6.140388 13.003175 13.003175l0 33.591534L968.014109 753.100529l0-33.591534C968.014109 670.74709 928.282187 631.015168 879.520282 631.015168z" fill="#8a8a8a" p-id="4402"></path></svg>