<svg xmlns="http://www.w3.org/2000/svg" width="16" height="16" viewBox="0 0 16 16" fill="none">
  <mask id="path-1-inside-1_1_3" fill="white">
    <path d="M13.6195 5.26062C13.991 5.07952 14.1487 4.62885 13.929 4.27877C13.2293 3.16393 12.2262 2.26431 11.0307 1.69008C9.6093 1.0074 7.99908 0.824603 6.46086 1.17131C4.92265 1.51801 3.54654 2.3739 2.55548 3.60032C1.56441 4.82675 1.01645 6.35186 1.00036 7.92858C0.984276 9.5053 1.501 11.0413 2.46683 12.2877C3.43267 13.5341 4.79102 14.4178 6.32184 14.7959C7.85267 15.1739 9.46628 15.024 10.9013 14.3704C12.1083 13.8207 13.1295 12.9418 13.8518 11.8414C14.0786 11.4959 13.9302 11.0421 13.5624 10.8535V10.8535C13.1947 10.6648 12.7476 10.8138 12.5108 11.1525C11.9495 11.9557 11.1809 12.5984 10.2809 13.0083C9.15276 13.5221 7.88417 13.64 6.68067 13.3428C5.47716 13.0456 4.40925 12.3508 3.64993 11.3709C2.89062 10.391 2.48438 9.18344 2.49702 7.94385C2.50967 6.70426 2.94047 5.50525 3.71962 4.54106C4.49878 3.57687 5.58064 2.90399 6.78996 2.63142C7.99928 2.35885 9.2652 2.50256 10.3826 3.03927C11.2741 3.46743 12.0294 4.12568 12.5742 4.94016C12.804 5.2837 13.248 5.44173 13.6195 5.26062V5.26062Z"/>
  </mask>
  <path d="M13.6195 5.26062C13.991 5.07952 14.1487 4.62885 13.929 4.27877C13.2293 3.16393 12.2262 2.26431 11.0307 1.69008C9.6093 1.0074 7.99908 0.824603 6.46086 1.17131C4.92265 1.51801 3.54654 2.3739 2.55548 3.60032C1.56441 4.82675 1.01645 6.35186 1.00036 7.92858C0.984276 9.5053 1.501 11.0413 2.46683 12.2877C3.43267 13.5341 4.79102 14.4178 6.32184 14.7959C7.85267 15.1739 9.46628 15.024 10.9013 14.3704C12.1083 13.8207 13.1295 12.9418 13.8518 11.8414C14.0786 11.4959 13.9302 11.0421 13.5624 10.8535V10.8535C13.1947 10.6648 12.7476 10.8138 12.5108 11.1525C11.9495 11.9557 11.1809 12.5984 10.2809 13.0083C9.15276 13.5221 7.88417 13.64 6.68067 13.3428C5.47716 13.0456 4.40925 12.3508 3.64993 11.3709C2.89062 10.391 2.48438 9.18344 2.49702 7.94385C2.50967 6.70426 2.94047 5.50525 3.71962 4.54106C4.49878 3.57687 5.58064 2.90399 6.78996 2.63142C7.99928 2.35885 9.2652 2.50256 10.3826 3.03927C11.2741 3.46743 12.0294 4.12568 12.5742 4.94016C12.804 5.2837 13.248 5.44173 13.6195 5.26062V5.26062Z" stroke="#667085" stroke-width="3" mask="url(#path-1-inside-1_1_3)"/>
  <path d="M7.5 12C7.5 12.2761 7.72386 12.5 8 12.5C8.27614 12.5 8.5 12.2761 8.5 12H7.5ZM8.35355 3.64645C8.15829 3.45118 7.84171 3.45118 7.64645 3.64645L4.46447 6.82843C4.2692 7.02369 4.2692 7.34027 4.46447 7.53553C4.65973 7.7308 4.97631 7.7308 5.17157 7.53553L8 4.70711L10.8284 7.53553C11.0237 7.7308 11.3403 7.7308 11.5355 7.53553C11.7308 7.34027 11.7308 7.02369 11.5355 6.82843L8.35355 3.64645ZM8.5 12L8.5 4H7.5L7.5 12H8.5Z" fill="#667085"/>
  <path d="M11 11.5198L13.4454 11" stroke="#667085" stroke-linecap="round"/>
  <path d="M13.7 13.4951L13.5443 11" stroke="#667085" stroke-linecap="round"/>
</svg>