<svg width="18" height="18" viewBox="0 0 18 18" fill="none" xmlns="http://www.w3.org/2000/svg">
<path d="M10.5996 0.5C11.7113 0.5 12.5755 0.500118 13.2676 0.556641C13.9655 0.61366 14.5329 0.730378 15.043 0.990234L15.3525 1.16406C16.0576 1.59644 16.6322 2.21605 17.0098 2.95703L17.1006 3.15137C17.2979 3.61108 17.3935 4.12184 17.4434 4.73242C17.4999 5.42447 17.5 6.28869 17.5 7.40039V10.5996C17.5 11.7113 17.4999 12.5755 17.4434 13.2676C17.3935 13.8782 17.2979 14.3889 17.1006 14.8486L17.0098 15.043C16.6322 15.7839 16.0576 16.4036 15.3525 16.8359L15.043 17.0098C14.5329 17.2696 13.9655 17.3863 13.2676 17.4434C12.5755 17.4999 11.7113 17.5 10.5996 17.5H7.40039C6.28869 17.5 5.42447 17.4999 4.73242 17.4434C4.12184 17.3935 3.61108 17.2979 3.15137 17.1006L2.95703 17.0098C2.21605 16.6322 1.59644 16.0576 1.16406 15.3525L0.990234 15.043C0.730378 14.5329 0.61366 13.9655 0.556641 13.2676C0.500118 12.5755 0.5 11.7113 0.5 10.5996V7.40039C0.5 6.28869 0.500118 5.42447 0.556641 4.73242C0.61366 4.03453 0.730378 3.46707 0.990234 2.95703L1.16406 2.64746C1.59644 1.94243 2.21605 1.36778 2.95703 0.990234L3.15137 0.899414C3.61108 0.702129 4.12184 0.606527 4.73242 0.556641C5.42447 0.500118 6.28869 0.5 7.40039 0.5H10.5996Z" stroke="white"/>
<path d="M1 7.4C1 5.15979 1 4.03969 1.43597 3.18404C1.81947 2.43139 2.43139 1.81947 3.18404 1.43597C4.03969 1 5.15979 1 7.4 1H10.6C12.8402 1 13.9603 1 14.816 1.43597C15.5686 1.81947 16.1805 2.43139 16.564 3.18404C17 4.03969 17 5.15979 17 7.4V10.6C17 12.8402 17 13.9603 16.564 14.816C16.1805 15.5686 15.5686 16.1805 14.816 16.564C13.9603 17 12.8402 17 10.6 17H7.4C5.15979 17 4.03969 17 3.18404 16.564C2.43139 16.1805 1.81947 15.5686 1.43597 14.816C1 13.9603 1 12.8402 1 10.6V7.4Z" fill="#828DAD"/>
<path d="M1 7.4C1 5.15979 1 4.03969 1.43597 3.18404C1.81947 2.43139 2.43139 1.81947 3.18404 1.43597C4.03969 1 5.15979 1 7.4 1H10.6C12.8402 1 13.9603 1 14.816 1.43597C15.5686 1.81947 16.1805 2.43139 16.564 3.18404C17 4.03969 17 5.15979 17 7.4V10.6C17 12.8402 17 13.9603 16.564 14.816C16.1805 15.5686 15.5686 16.1805 14.816 16.564C13.9603 17 12.8402 17 10.6 17H7.4C5.15979 17 4.03969 17 3.18404 16.564C2.43139 16.1805 1.81947 15.5686 1.43597 14.816C1 13.9603 1 12.8402 1 10.6V7.4Z" fill="url(#paint0_linear_5617_78238)"/>
<path d="M7.40039 1.5H10.5996C11.728 1.5 12.5446 1.50029 13.1865 1.55273C13.7434 1.59824 14.1352 1.68127 14.4561 1.81934L14.5889 1.88184C15.1651 2.17543 15.6471 2.62172 15.9834 3.16992L16.1182 3.41113C16.2942 3.75672 16.3953 4.17741 16.4473 4.81348C16.4997 5.4554 16.5 6.27204 16.5 7.40039V10.5996C16.5 11.728 16.4997 12.5446 16.4473 13.1865C16.4018 13.7434 16.3187 14.1352 16.1807 14.4561L16.1182 14.5889C15.8246 15.1651 15.3783 15.6471 14.8301 15.9834L14.5889 16.1182C14.2433 16.2942 13.8226 16.3953 13.1865 16.4473C12.5446 16.4997 11.728 16.5 10.5996 16.5H7.40039C6.27204 16.5 5.4554 16.4997 4.81348 16.4473C4.2566 16.4018 3.8648 16.3187 3.54395 16.1807L3.41113 16.1182C2.83494 15.8246 2.35287 15.3783 2.0166 14.8301L1.88184 14.5889C1.70575 14.2433 1.60471 13.8226 1.55273 13.1865C1.50029 12.5446 1.5 11.728 1.5 10.5996V7.40039C1.5 6.27204 1.50029 5.4554 1.55273 4.81348C1.59824 4.2566 1.68127 3.8648 1.81934 3.54395L1.88184 3.41113C2.17543 2.83494 2.62172 2.35287 3.16992 2.0166L3.41113 1.88184C3.75672 1.70575 4.17741 1.60471 4.81348 1.55273C5.4554 1.50029 6.27204 1.5 7.40039 1.5Z" stroke="#101828" stroke-opacity="0.08"/>
<g filter="url(#filter0_d_5617_78238)">
<path fill-rule="evenodd" clip-rule="evenodd" d="M9 5.5C7.067 5.5 5.5 7.067 5.5 9C5.5 10.933 7.067 12.5 9 12.5C10.2949 12.5 11.4261 11.7971 12.032 10.7496C12.1703 10.5106 12.4762 10.4289 12.7152 10.5672C12.9542 10.7055 13.0359 11.0113 12.8977 11.2504C12.1204 12.5941 10.6662 13.5 9 13.5C6.68372 13.5 4.77619 11.75 4.52746 9.5H4C3.72386 9.5 3.5 9.27614 3.5 9C3.5 8.72386 3.72386 8.5 4 8.5H4.52746C4.77619 6.25002 6.68372 4.5 9 4.5C10.6662 4.5 12.1204 5.40588 12.8977 6.74964C13.0359 6.98867 12.9542 7.29454 12.7152 7.43281C12.4762 7.57107 12.1703 7.48939 12.032 7.25036C11.4261 6.20291 10.2949 5.5 9 5.5ZM9 7.5C8.17157 7.5 7.5 8.17157 7.5 9C7.5 9.82841 8.17158 10.5 9 10.5C9.82841 10.5 10.5 9.82841 10.5 9C10.5 8.17158 9.82841 7.5 9 7.5ZM6.5 9C6.5 7.61929 7.61929 6.5 9 6.5C10.2095 6.5 11.2184 7.35888 11.45 8.5H14C14.2761 8.5 14.5 8.72386 14.5 9C14.5 9.27614 14.2761 9.5 14 9.5H11.45C11.2183 10.6411 10.2095 11.5 9 11.5C7.61928 11.5 6.5 10.3807 6.5 9Z" fill="url(#paint1_linear_5617_78238)" shape-rendering="crispEdges"/>
</g>
<defs>
<filter id="filter0_d_5617_78238" x="3" y="4.25" width="12" height="10" filterUnits="userSpaceOnUse" color-interpolation-filters="sRGB">
<feFlood flood-opacity="0" result="BackgroundImageFix"/>
<feColorMatrix in="SourceAlpha" type="matrix" values="0 0 0 0 0 0 0 0 0 0 0 0 0 0 0 0 0 0 127 0" result="hardAlpha"/>
<feOffset dy="0.25"/>
<feGaussianBlur stdDeviation="0.25"/>
<feComposite in2="hardAlpha" operator="out"/>
<feColorMatrix type="matrix" values="0 0 0 0 0 0 0 0 0 0 0 0 0 0 0 0 0 0 0.2 0"/>
<feBlend mode="normal" in2="BackgroundImageFix" result="effect1_dropShadow_5617_78238"/>
<feBlend mode="normal" in="SourceGraphic" in2="effect1_dropShadow_5617_78238" result="shape"/>
</filter>
<linearGradient id="paint0_linear_5617_78238" x1="1" y1="1" x2="17" y2="17" gradientUnits="userSpaceOnUse">
<stop stop-color="white" stop-opacity="0.12"/>
<stop offset="1" stop-color="white" stop-opacity="0.08"/>
</linearGradient>
<linearGradient id="paint1_linear_5617_78238" x1="9" y1="4.5" x2="9" y2="13.5" gradientUnits="userSpaceOnUse">
<stop stop-color="white"/>
<stop offset="1" stop-color="white" stop-opacity="0.9"/>
</linearGradient>
</defs>
</svg>
