<svg width="16" height="16" viewBox="0 0 16 16" fill="none" xmlns="http://www.w3.org/2000/svg">
<path d="M8.00016 14L7.93346 13.8999C7.47037 13.2053 7.23882 12.858 6.9329 12.6065C6.66207 12.3839 6.35001 12.2169 6.01457 12.1151C5.63566 12 5.21823 12 4.38338 12H3.46683C2.72009 12 2.34672 12 2.06151 11.8547C1.81063 11.7268 1.60665 11.5229 1.47882 11.272C1.3335 10.9868 1.3335 10.6134 1.3335 9.86667V4.13333C1.3335 3.3866 1.3335 3.01323 1.47882 2.72801C1.60665 2.47713 1.81063 2.27316 2.06151 2.14532C2.34672 2 2.72009 2 3.46683 2H3.7335C5.22697 2 5.97371 2 6.54414 2.29065C7.0459 2.54631 7.45385 2.95426 7.70951 3.45603C8.00016 4.02646 8.00016 4.77319 8.00016 6.26667M8.00016 14V6.26667M8.00016 14L8.06687 13.8999C8.52996 13.2053 8.76151 12.858 9.06743 12.6065C9.33826 12.3839 9.65032 12.2169 9.98576 12.1151C10.3647 12 10.7821 12 11.6169 12H12.5335C13.2802 12 13.6536 12 13.9388 11.8547C14.1897 11.7268 14.3937 11.5229 14.5215 11.272C14.6668 10.9868 14.6668 10.6134 14.6668 9.86667V4.13333C14.6668 3.3866 14.6668 3.01323 14.5215 2.72801C14.3937 2.47713 14.1897 2.27316 13.9388 2.14532C13.6536 2 13.2802 2 12.5335 2H12.2668C10.7734 2 10.0266 2 9.45619 2.29065C8.95442 2.54631 8.54647 2.95426 8.29081 3.45603C8.00016 4.02646 8.00016 4.77319 8.00016 6.26667" stroke="#344054" stroke-width="1.25" stroke-linecap="round" stroke-linejoin="round"/>
</svg>
