<svg width="16" height="16" viewBox="0 0 16 16" fill="none" xmlns="http://www.w3.org/2000/svg">
<path d="M5.3335 14V4.66667C5.3335 4.04669 5.3335 3.7367 5.40164 3.48236C5.58658 2.79218 6.12567 2.25308 6.81586 2.06815C7.07019 2 7.38018 2 8.00016 2C8.62014 2 8.93013 2 9.18447 2.06815C9.87465 2.25308 10.4137 2.79218 10.5987 3.48236C10.6668 3.7367 10.6668 4.04669 10.6668 4.66667V14M3.46683 14H12.5335C13.2802 14 13.6536 14 13.9388 13.8547C14.1897 13.7268 14.3937 13.5229 14.5215 13.272C14.6668 12.9868 14.6668 12.6134 14.6668 11.8667V6.8C14.6668 6.05326 14.6668 5.6799 14.5215 5.39468C14.3937 5.1438 14.1897 4.93982 13.9388 4.81199C13.6536 4.66667 13.2802 4.66667 12.5335 4.66667H3.46683C2.72009 4.66667 2.34672 4.66667 2.06151 4.81199C1.81063 4.93982 1.60665 5.1438 1.47882 5.39468C1.3335 5.6799 1.3335 6.05326 1.3335 6.8V11.8667C1.3335 12.6134 1.3335 12.9868 1.47882 13.272C1.60665 13.5229 1.81063 13.7268 2.06151 13.8547C2.34672 14 2.72009 14 3.46683 14Z" stroke="#344054" stroke-width="1.25" stroke-linecap="round" stroke-linejoin="round"/>
</svg>
