<svg width="16" height="16" viewBox="0 0 16 16" fill="none" xmlns="http://www.w3.org/2000/svg">
<path d="M9.33317 1.51306V4.26676C9.33317 4.64012 9.33317 4.82681 9.40583 4.96942C9.46975 5.09486 9.57173 5.19684 9.69718 5.26076C9.83978 5.33342 10.0265 5.33342 10.3998 5.33342H13.1535M10.6665 8.66671H5.33317M10.6665 11.3334H5.33317M6.6665 6.00004H5.33317M9.33317 1.33337H5.8665C4.7464 1.33337 4.18635 1.33337 3.75852 1.55136C3.3822 1.74311 3.07624 2.04907 2.88449 2.42539C2.6665 2.85322 2.6665 3.41327 2.6665 4.53337V11.4667C2.6665 12.5868 2.6665 13.1469 2.88449 13.5747C3.07624 13.951 3.3822 14.257 3.75852 14.4487C4.18635 14.6667 4.7464 14.6667 5.8665 14.6667H10.1332C11.2533 14.6667 11.8133 14.6667 12.2412 14.4487C12.6175 14.257 12.9234 13.951 13.1152 13.5747C13.3332 13.1469 13.3332 12.5868 13.3332 11.4667V5.33337L9.33317 1.33337Z" stroke="#344054" stroke-width="1.25" stroke-linecap="round" stroke-linejoin="round"/>
</svg>
