<svg width="16" height="16" viewBox="0 0 16 16" fill="none" xmlns="http://www.w3.org/2000/svg">
<g clip-path="url(#clip0_2427_26661)">
<path d="M1.79133 10.4301L3.06346 9.69574C3.13237 9.65596 3.21323 9.64214 3.29143 9.65678L5.79443 10.1252C6.00013 10.1637 6.19001 10.0054 6.18908 9.7961L6.17934 7.60301C6.17907 7.54342 6.19478 7.48486 6.22484 7.43341L7.48799 5.27085C7.55373 5.1583 7.54784 5.01776 7.47291 4.91111L5.34611 1.88383M12.667 3.23941C9.0003 5.00007 11.0002 7.3334 11.667 7.66674C12.9184 8.29232 14.6586 8.33337 14.6586 8.33337C14.664 8.22294 14.6668 8.11182 14.6668 8.00004C14.6668 4.31814 11.6821 1.33337 8.00016 1.33337C4.31826 1.33337 1.3335 4.31814 1.3335 8.00004C1.3335 11.6819 4.31826 14.6667 8.00016 14.6667C8.11194 14.6667 8.22307 14.664 8.3335 14.6585M11.172 14.6266L9.06083 9.06071L14.6267 11.1719L12.1586 12.1585L11.172 14.6266Z" stroke="#155EEF" stroke-width="1.25" stroke-linecap="round" stroke-linejoin="round"/>
</g>
<defs>
<clipPath id="clip0_2427_26661">
<rect width="16" height="16" fill="white"/>
</clipPath>
</defs>
</svg>
