<svg width="16" height="16" viewBox="0 0 16 16" fill="none" xmlns="http://www.w3.org/2000/svg">
<path d="M11.3335 9.66667V7.66295C11.3335 7.5433 11.3335 7.48348 11.3153 7.43066C11.2992 7.38395 11.2729 7.34141 11.2383 7.30611C11.1992 7.26619 11.1457 7.23944 11.0387 7.18593L8.00016 5.66667M2.66683 6.33334V10.8711C2.66683 11.119 2.66683 11.243 2.70551 11.3515C2.7397 11.4475 2.79543 11.5343 2.86842 11.6054C2.95097 11.6858 3.06368 11.7374 3.28906 11.8408L7.55573 13.7963C7.71922 13.8712 7.80097 13.9087 7.88612 13.9235C7.96159 13.9366 8.03874 13.9366 8.1142 13.9235C8.19936 13.9087 8.28111 13.8712 8.44459 13.7963L12.7113 11.8408C12.9367 11.7374 13.0494 11.6858 13.1319 11.6054C13.2049 11.5343 13.2606 11.4475 13.2948 11.3515C13.3335 11.243 13.3335 11.119 13.3335 10.8711V6.33334M1.3335 5.66667L7.76165 2.45259C7.8491 2.40887 7.89283 2.387 7.9387 2.3784C7.97932 2.37078 8.02101 2.37078 8.06163 2.3784C8.1075 2.387 8.15122 2.40887 8.23868 2.45259L14.6668 5.66667L8.23868 8.88075C8.15122 8.92447 8.1075 8.94634 8.06163 8.95494C8.02101 8.96256 7.97932 8.96256 7.9387 8.95494C7.89283 8.94634 7.8491 8.92447 7.76165 8.88075L1.3335 5.66667Z" stroke="#344054" stroke-width="1.25" stroke-linecap="round" stroke-linejoin="round"/>
</svg>
