<svg width="16" height="16" viewBox="0 0 16 16" fill="none" xmlns="http://www.w3.org/2000/svg">
<path d="M5.33333 6.33333H8M5.33333 8.66667H10M8 14C11.3137 14 14 11.3137 14 8C14 4.68629 11.3137 2 8 2C4.68629 2 2 4.68629 2 8C2 8.7981 2.15582 9.5598 2.43871 10.2563C2.49285 10.3897 2.51992 10.4563 2.532 10.5102C2.54381 10.5629 2.54813 10.6019 2.54814 10.6559C2.54814 10.7111 2.53812 10.7713 2.51807 10.8916L2.12275 13.2635C2.08135 13.5119 2.06065 13.6361 2.09917 13.7259C2.13289 13.8045 2.19552 13.8671 2.27412 13.9008C2.36393 13.9393 2.48812 13.9186 2.73651 13.8772L5.10843 13.4819C5.22872 13.4619 5.28887 13.4519 5.34409 13.4519C5.3981 13.4519 5.43711 13.4562 5.48981 13.468C5.54369 13.4801 5.61035 13.5072 5.74366 13.5613C6.4402 13.8442 7.2019 14 8 14Z" stroke="#344054" stroke-width="1.25" stroke-linecap="round" stroke-linejoin="round"/>
</svg>
