<svg width="12" height="12" viewBox="0 0 12 12" fill="none" xmlns="http://www.w3.org/2000/svg">
<path d="M5.75 4.5C6.7165 4.5 7.5 3.7165 7.5 2.75C7.5 1.7835 6.7165 1 5.75 1C4.7835 1 4 1.7835 4 2.75C4 3.7165 4.7835 4.5 5.75 4.5Z" fill="#444CE7"/>
<path d="M3.48775 4.314C3.36842 4.14172 3.30875 4.05558 3.24448 4.02712C3.18679 4.00157 3.12605 3.99844 3.06603 4.01794C2.99918 4.03965 2.94661 4.10099 2.84146 4.22367C2.41951 4.71598 2.13172 5.32705 2.03543 6.00009H2C1.72386 6.00009 1.5 5.77623 1.5 5.50009C1.5 5.31565 1.59961 5.15388 1.75036 5.06668C1.98939 4.9284 2.07107 4.62254 1.9328 4.38351C1.79453 4.14448 1.48867 4.0628 1.24964 4.20107C0.802591 4.45967 0.5 4.94425 0.5 5.50009C0.5 6.32852 1.17157 7.00009 2 7.00009H2.03545C2.14342 7.75422 2.49192 8.43113 2.99997 8.94961L2.99997 10.1117C2.99994 10.1712 2.99992 10.2424 3.00504 10.305C3.01097 10.3776 3.02619 10.4816 3.08171 10.5906C3.15362 10.7317 3.26835 10.8465 3.40948 10.9184C3.51845 10.9739 3.62245 10.9891 3.69505 10.9951C3.7577 11.0002 3.82881 11.0001 3.88836 11.0001H4.86154C4.92109 11.0001 4.99224 11.0002 5.05488 10.9951C5.12749 10.9891 5.23149 10.9739 5.34046 10.9184C5.48158 10.8465 5.59632 10.7317 5.66822 10.5906C5.72375 10.4816 5.73897 10.3776 5.7449 10.305C5.75002 10.2424 5.75 10.1712 5.74997 10.1117L5.74997 10.0001H6.24998L6.24997 10.1115C6.24995 10.1711 6.24992 10.2422 6.25504 10.3048C6.26097 10.3775 6.2762 10.4815 6.33172 10.5904C6.40363 10.7315 6.51836 10.8463 6.65948 10.9182C6.76846 10.9737 6.87245 10.9889 6.94506 10.9949C7.0077 11 7.0788 11 7.13835 10.9999H8.11159C8.17113 11 8.24229 11 8.30493 10.9949C8.37753 10.9889 8.48153 10.9737 8.5905 10.9182C8.73162 10.8463 8.84636 10.7315 8.91827 10.5904C8.97379 10.4815 8.98901 10.3775 8.99494 10.3048C9.00006 10.2422 9.00004 10.1711 9.00001 10.1115L9.00001 9.66299C9.55312 9.40029 10.0258 8.99721 10.3726 8.49993L10.6116 8.49994C10.6711 8.49996 10.7423 8.49999 10.8049 8.49487C10.8775 8.48893 10.9815 8.47371 11.0905 8.41819C11.2316 8.34628 11.3464 8.23155 11.4183 8.09043C11.4738 7.98145 11.489 7.87746 11.4949 7.80485C11.5001 7.74221 11.5 7.67109 11.5 7.61154V5.88181C11.5 5.82509 11.5001 5.75735 11.4954 5.69761C11.49 5.62851 11.4763 5.5294 11.4257 5.42448C11.352 5.27143 11.2285 5.14794 11.0755 5.07422C10.9705 5.02369 10.8714 5.00992 10.8023 5.00454C10.7577 5.00106 10.7087 5.0002 10.6631 4.99999C10.4953 4.64662 10.2702 4.32616 10 4.05044L10 3.51615C10 3.43874 10.0001 3.35111 9.99335 3.27574C9.98593 3.19252 9.96656 3.06385 9.88754 2.93633C9.78902 2.77733 9.63465 2.66089 9.4547 2.60984C9.31038 2.56889 9.18134 2.58561 9.09929 2.60134C9.02497 2.61559 8.94073 2.63969 8.8663 2.66098L8.78839 2.68324C8.6859 2.71252 8.63465 2.72716 8.59861 2.75356C8.5638 2.77904 8.54252 2.80415 8.52309 2.84266C8.50297 2.88255 8.49603 2.94339 8.48215 3.06506C8.32585 4.43546 7.16224 5.5 5.75 5.5C4.81225 5.5 3.98413 5.03063 3.48775 4.314Z" fill="#444CE7"/>
</svg>
