<svg width="16" height="18" viewBox="0 0 16 18" fill="none" xmlns="http://www.w3.org/2000/svg">
<g filter="url(#filter0_d_3434_4808)">
<path d="M2.75 4.38325C2.75 3.40316 2.75 2.91311 2.94074 2.53877C3.10852 2.20948 3.37623 1.94177 3.70552 1.77399C4.07986 1.58325 4.56991 1.58325 5.55 1.58325H9.16667L13.25 5.66659V11.6166C13.25 12.5967 13.25 13.0867 13.0593 13.4611C12.8915 13.7904 12.6238 14.0581 12.2945 14.2258C11.9201 14.4166 11.4301 14.4166 10.45 14.4166H5.55C4.56991 14.4166 4.07986 14.4166 3.70552 14.2258C3.37623 14.0581 3.10852 13.7904 2.94074 13.4611C2.75 13.0867 2.75 12.5967 2.75 11.6166V4.38325Z" fill="#E3E5E8"/>
<path d="M3 4.38325C3 3.88908 3.00019 3.53349 3.02301 3.25421C3.04559 2.97786 3.08907 2.79832 3.16349 2.65227C3.3073 2.37002 3.53677 2.14055 3.81901 1.99674C3.96507 1.92232 4.14461 1.87884 4.42096 1.85626C4.70024 1.83345 5.05583 1.83325 5.55 1.83325H9.06311L13 5.77014V11.6166C13 12.1108 12.9998 12.4664 12.977 12.7456C12.9544 13.022 12.9109 13.2015 12.8365 13.3476C12.6927 13.6298 12.4632 13.8593 12.181 14.0031C12.0349 14.0775 11.8554 14.121 11.579 14.1436C11.2998 14.1664 10.9442 14.1666 10.45 14.1666H5.55C5.05583 14.1666 4.70024 14.1664 4.42096 14.1436C4.14461 14.121 3.96507 14.0775 3.81901 14.0031C3.53677 13.8593 3.3073 13.6298 3.16349 13.3476C3.08907 13.2015 3.04559 13.022 3.02301 12.7456C3.00019 12.4664 3 12.1108 3 11.6166V4.38325Z" stroke="black" stroke-opacity="0.03" stroke-width="0.5"/>
</g>
<g opacity="0.96">
<path d="M6.78623 9.55406V9.00806H4.94873V9.55406H5.56123V11.5001H6.17373V9.55406H6.78623Z" fill="#667085"/>
<path d="M9.11009 11.5001L8.33309 10.2226L9.06109 9.00806H8.36459L8.00059 9.71156L7.63659 9.00806H6.94009L7.66809 10.2226L6.89109 11.5001H7.59109L8.00059 10.7336L8.41009 11.5001H9.11009Z" fill="#667085"/>
<path d="M11.0519 9.55406V9.00806H9.21436V9.55406H9.82686V11.5001H10.4394V9.55406H11.0519Z" fill="#667085"/>
</g>
<path opacity="0.5" d="M9.1665 1.58325L13.2498 5.66658H10.3332C9.68884 5.66658 9.1665 5.14425 9.1665 4.49992V1.58325Z" fill="white"/>
<defs>
<filter id="filter0_d_3434_4808" x="0.75" y="0.583252" width="14.5" height="16.8333" filterUnits="userSpaceOnUse" color-interpolation-filters="sRGB">
<feFlood flood-opacity="0" result="BackgroundImageFix"/>
<feColorMatrix in="SourceAlpha" type="matrix" values="0 0 0 0 0 0 0 0 0 0 0 0 0 0 0 0 0 0 127 0" result="hardAlpha"/>
<feOffset dy="1"/>
<feGaussianBlur stdDeviation="1"/>
<feColorMatrix type="matrix" values="0 0 0 0 0.0627451 0 0 0 0 0.0941176 0 0 0 0 0.156863 0 0 0 0.05 0"/>
<feBlend mode="normal" in2="BackgroundImageFix" result="effect1_dropShadow_3434_4808"/>
<feBlend mode="normal" in="SourceGraphic" in2="effect1_dropShadow_3434_4808" result="shape"/>
</filter>
</defs>
</svg>
