<svg width="24" height="24" viewBox="0 0 24 24" fill="none" xmlns="http://www.w3.org/2000/svg">
<g filter="url(#filter0_d_1816_6029)">
<path fill-rule="evenodd" clip-rule="evenodd" d="M3 4.25C3 3.00736 4.00736 2 5.25 2H15L21 8V19.75C21 20.9926 19.9926 22 18.75 22H5.25C4.00736 22 3 20.9926 3 19.75V4.25Z" fill="#169951"/>
</g>
<path opacity="0.9" d="M10.1953 16.75L8.69677 14.2862L10.1008 11.944H8.75752L8.05552 13.3007L7.35352 11.944H6.01027L7.41427 14.2862L5.91577 16.75H7.26577L8.05552 15.2717L8.84527 16.75H10.1953ZM13.8793 16.75V15.697H11.8611V11.944H10.6798V16.75H13.8793ZM17.7955 15.2785C17.7955 14.833 17.6943 14.4752 17.4378 14.2255C17.2353 14.023 16.9248 13.888 16.4928 13.8272L15.9123 13.7462C15.7435 13.726 15.6423 13.6652 15.5815 13.6045C15.5073 13.5302 15.487 13.4425 15.487 13.3817C15.487 13.1725 15.6558 12.9363 16.0675 12.9363C16.2768 12.9363 16.675 12.916 16.9788 13.2197L17.7213 12.4772C17.3095 12.0655 16.7898 11.9035 16.1013 11.9035C15.0078 11.9035 14.3463 12.5447 14.3463 13.4222C14.3463 13.834 14.4543 14.158 14.677 14.3875C14.893 14.6102 15.217 14.752 15.6423 14.8127L16.2228 14.8937C16.378 14.914 16.4793 14.9612 16.54 15.022C16.6075 15.0962 16.6345 15.1907 16.6345 15.3055C16.6345 15.5822 16.4118 15.7375 15.946 15.7375C15.5613 15.7375 15.1225 15.6497 14.8728 15.4L14.1168 16.156C14.6028 16.6555 15.2035 16.7905 15.9393 16.7905C16.9518 16.7905 17.7955 16.2572 17.7955 15.2785Z" fill="white"/>
<path opacity="0.4" fill-rule="evenodd" clip-rule="evenodd" d="M15 2L21 8H17.25C16.0074 8 15 6.99264 15 5.75V2Z" fill="white"/>
<defs>
<filter id="filter0_d_1816_6029" x="2" y="1" width="20" height="22" filterUnits="userSpaceOnUse" color-interpolation-filters="sRGB">
<feFlood flood-opacity="0" result="BackgroundImageFix"/>
<feColorMatrix in="SourceAlpha" type="matrix" values="0 0 0 0 0 0 0 0 0 0 0 0 0 0 0 0 0 0 127 0" result="hardAlpha"/>
<feOffset/>
<feGaussianBlur stdDeviation="0.5"/>
<feColorMatrix type="matrix" values="0 0 0 0 0 0 0 0 0 0 0 0 0 0 0 0 0 0 0.05 0"/>
<feBlend mode="normal" in2="BackgroundImageFix" result="effect1_dropShadow_1816_6029"/>
<feBlend mode="normal" in="SourceGraphic" in2="effect1_dropShadow_1816_6029" result="shape"/>
</filter>
</defs>
</svg>
