<svg width="16" height="16" viewBox="0 0 16 16" fill="none" xmlns="http://www.w3.org/2000/svg">
<g id="Icon">
<path id="Vector" d="M11.3344 5C11.3344 4.44771 11.7821 4 12.3344 4C12.8867 4 13.3344 4.44771 13.3344 5V9.21947C13.3344 11.8597 11.1941 14 8.55387 14C6.779 14 5.15019 13.0167 4.32353 11.446L2.53767 8.05287C2.41421 7.81827 2.44145 7.53287 2.60703 7.32587L2.83481 7.04113C3.29483 6.46614 4.13389 6.37291 4.7089 6.83293L5.33441 7.33333V3.66667C5.33441 3.11438 5.78213 2.66667 6.33441 2.66667C6.88667 2.66667 7.3344 3.11438 7.3344 3.66667M11.3344 5V3.66667C11.3344 3.11438 10.8867 2.66667 10.3344 2.66667C9.78213 2.66667 9.3344 3.11438 9.3344 3.66667M11.3344 5V8M7.3344 3.66667V3C7.3344 2.44771 7.78213 2 8.3344 2C8.88667 2 9.3344 2.44771 9.3344 3V3.66667M7.3344 3.66667V7.33333M9.3344 3.66667V7.66667" stroke="#667085" stroke-width="1.5" stroke-linecap="round" stroke-linejoin="round"/>
</g>
</svg>
