<svg width="17" height="16" viewBox="0 0 17 16" fill="none" xmlns="http://www.w3.org/2000/svg">
<g id="Icon">
<g id="Vector">
<path d="M2.0922 12.4865C2.57616 12.4865 2.84839 12.2445 3.01778 11.6638L3.47754 10.3026H6.62933L7.0891 11.6819C7.25243 12.2506 7.52463 12.4865 8.03887 12.4865C8.5712 12.4865 8.95232 12.1295 8.95232 11.6275C8.95232 11.4459 8.92208 11.2827 8.83743 11.0467L6.44179 4.54954C6.18167 3.83569 5.7582 3.52112 5.04436 3.52112C4.35471 3.52112 3.9252 3.84779 3.67112 4.55559L1.28762 11.0467C1.20897 11.2705 1.16663 11.4762 1.16663 11.6275C1.16663 12.1538 1.52355 12.4865 2.0922 12.4865ZM3.8768 8.88703L5.00806 5.31177H5.05041L6.20586 8.88703H3.8768Z" fill="#344054"/>
<path d="M12.1068 12.4744C12.9174 12.4744 13.7281 12.0691 14.091 11.3795H14.1273V11.7122C14.1636 12.2324 14.4963 12.4986 14.9742 12.4986C15.4764 12.4986 15.8333 12.1961 15.8333 11.6093V7.91309C15.8333 6.60636 14.7504 5.74734 13.0868 5.74734C11.7438 5.74734 10.7033 6.22525 10.4008 6.99957C10.3403 7.13269 10.3101 7.25973 10.3101 7.39885C10.3101 7.79813 10.6186 8.07638 11.0481 8.07638C11.3324 8.07638 11.5563 7.9675 11.7499 7.74973C12.1431 7.24157 12.4697 7.06613 13.0081 7.06613C13.6736 7.06613 14.0971 7.41701 14.0971 8.02198V8.4515L12.4637 8.54823C10.8424 8.64503 9.93506 9.32864 9.93506 10.5083C9.93506 11.6759 10.8727 12.4744 12.1068 12.4744ZM12.6876 11.1979C12.0947 11.1979 11.6954 10.8955 11.6954 10.4115C11.6954 9.95176 12.0705 9.65528 12.7299 9.60695L14.0971 9.52224V9.99408C14.0971 10.6958 13.4619 11.1979 12.6876 11.1979Z" fill="#344054"/>
</g>
</g>
</svg>
