<svg width="16" height="16" viewBox="0 0 16 16" fill="none" xmlns="http://www.w3.org/2000/svg">
<path opacity="0.12" d="M1.33337 4.13333C1.33337 3.3866 1.33337 3.01323 1.4787 2.72801C1.60653 2.47713 1.8105 2.27316 2.06139 2.14532C2.3466 2 2.71997 2 3.46671 2H3.73337C5.22685 2 5.97358 2 6.54401 2.29065C7.04578 2.54631 7.45373 2.95426 7.70939 3.45603C8.00004 4.02646 8.00004 4.77319 8.00004 6.26667V14L7.93334 13.8999C7.47024 13.2053 7.2387 12.858 6.93277 12.6065C6.66195 12.3839 6.34988 12.2169 6.01444 12.1151C5.63554 12 5.21811 12 4.38326 12H3.46671C2.71997 12 2.3466 12 2.06139 11.8547C1.8105 11.7268 1.60653 11.5229 1.4787 11.272C1.33337 10.9868 1.33337 10.6134 1.33337 9.86667V4.13333Z" fill="#155EEF"/>
<path d="M8.00004 14L7.93334 13.8999C7.47024 13.2053 7.2387 12.858 6.93278 12.6065C6.66195 12.3839 6.34988 12.2169 6.01444 12.1151C5.63554 12 5.21811 12 4.38326 12H3.46671C2.71997 12 2.3466 12 2.06139 11.8547C1.8105 11.7268 1.60653 11.5229 1.4787 11.272C1.33337 10.9868 1.33337 10.6134 1.33337 9.86667V4.13333C1.33337 3.3866 1.33337 3.01323 1.4787 2.72801C1.60653 2.47713 1.8105 2.27316 2.06139 2.14532C2.3466 2 2.71997 2 3.46671 2H3.73337C5.22685 2 5.97358 2 6.54402 2.29065C7.04578 2.54631 7.45373 2.95426 7.70939 3.45603C8.00004 4.02646 8.00004 4.77319 8.00004 6.26667M8.00004 14V6.26667M8.00004 14L8.06674 13.8999C8.52984 13.2053 8.76139 12.858 9.06731 12.6065C9.33814 12.3839 9.6502 12.2169 9.98564 12.1151C10.3645 12 10.782 12 11.6168 12H12.5334C13.2801 12 13.6535 12 13.9387 11.8547C14.1896 11.7268 14.3936 11.5229 14.5214 11.272C14.6667 10.9868 14.6667 10.6134 14.6667 9.86667V4.13333C14.6667 3.3866 14.6667 3.01323 14.5214 2.72801C14.3936 2.47713 14.1896 2.27316 13.9387 2.14532C13.6535 2 13.2801 2 12.5334 2H12.2667C10.7732 2 10.0265 2 9.45607 2.29065C8.9543 2.54631 8.54635 2.95426 8.29069 3.45603C8.00004 4.02646 8.00004 4.77319 8.00004 6.26667" stroke="#155EEF" stroke-width="1.5" stroke-linecap="round" stroke-linejoin="round"/>
</svg>
