<svg width="24" height="26" viewBox="0 0 24 26" fill="none" xmlns="http://www.w3.org/2000/svg">
<g filter="url(#filter0_d_5938_919)">
<path d="M3 5.8C3 4.11984 3 3.27976 3.32698 2.63803C3.6146 2.07354 4.07354 1.6146 4.63803 1.32698C5.27976 1 6.11984 1 7.8 1H14L21 8V18.2C21 19.8802 21 20.7202 20.673 21.362C20.3854 21.9265 19.9265 22.3854 19.362 22.673C18.7202 23 17.8802 23 16.2 23H7.8C6.11984 23 5.27976 23 4.63803 22.673C4.07354 22.3854 3.6146 21.9265 3.32698 21.362C3 20.7202 3 19.8802 3 18.2V5.8Z" fill="#169951"/>
</g>
<g opacity="0.96">
<path d="M9.81332 16.4181C9.63132 17.5171 8.86832 18.0421 7.92332 18.0421C7.34232 18.0421 6.90132 17.8461 6.53732 17.4821C6.01232 16.9571 6.03332 16.2571 6.03332 15.5081C6.03332 14.7591 6.01232 14.0591 6.53732 13.5341C6.90132 13.1701 7.34232 12.9741 7.92332 12.9741C8.86832 12.9741 9.63132 13.4991 9.81332 14.5981H8.56732C8.49032 14.3181 8.33632 14.0661 7.93032 14.0661C7.70632 14.0661 7.53832 14.1571 7.44732 14.2761C7.33532 14.4231 7.25832 14.5981 7.25832 15.5081C7.25832 16.4181 7.33532 16.5931 7.44732 16.7401C7.53832 16.8591 7.70632 16.9501 7.93032 16.9501C8.33632 16.9501 8.49032 16.6981 8.56732 16.4181H9.81332Z" fill="white"/>
<path d="M13.8059 16.4741C13.8059 17.4891 12.9309 18.0421 11.8809 18.0421C11.1179 18.0421 10.4949 17.9021 9.99094 17.3841L10.7749 16.6001C11.0339 16.8591 11.4889 16.9501 11.8879 16.9501C12.3709 16.9501 12.6019 16.7891 12.6019 16.5021C12.6019 16.3831 12.5739 16.2851 12.5039 16.2081C12.4409 16.1451 12.3359 16.0961 12.1749 16.0751L11.5729 15.9911C11.1319 15.9281 10.7959 15.7811 10.5719 15.5501C10.3409 15.3121 10.2289 14.9761 10.2289 14.5491C10.2289 13.6391 10.9149 12.9741 12.0489 12.9741C12.7629 12.9741 13.3019 13.1421 13.7289 13.5691L12.9589 14.3391C12.6439 14.0241 12.2309 14.0451 12.0139 14.0451C11.5869 14.0451 11.4119 14.2901 11.4119 14.5071C11.4119 14.5701 11.4329 14.6611 11.5099 14.7381C11.5729 14.8011 11.6779 14.8641 11.8529 14.8851L12.4549 14.9691C12.9029 15.0321 13.2249 15.1721 13.4349 15.3821C13.7009 15.6411 13.8059 16.0121 13.8059 16.4741Z" fill="white"/>
<path d="M18.3124 13.0161L16.6604 18.0001H15.7504L14.1054 13.0161H15.3724L16.2124 15.8021L17.0384 13.0161H18.3124Z" fill="white"/>
</g>
<path opacity="0.5" d="M14 1L21 8H16C14.8954 8 14 7.10457 14 6V1Z" fill="white"/>
<defs>
<filter id="filter0_d_5938_919" x="1" y="0" width="22" height="26" filterUnits="userSpaceOnUse" color-interpolation-filters="sRGB">
<feFlood flood-opacity="0" result="BackgroundImageFix"/>
<feColorMatrix in="SourceAlpha" type="matrix" values="0 0 0 0 0 0 0 0 0 0 0 0 0 0 0 0 0 0 127 0" result="hardAlpha"/>
<feOffset dy="1"/>
<feGaussianBlur stdDeviation="1"/>
<feColorMatrix type="matrix" values="0 0 0 0 0.0627451 0 0 0 0 0.0941176 0 0 0 0 0.156863 0 0 0 0.05 0"/>
<feBlend mode="normal" in2="BackgroundImageFix" result="effect1_dropShadow_5938_919"/>
<feBlend mode="normal" in="SourceGraphic" in2="effect1_dropShadow_5938_919" result="shape"/>
</filter>
</defs>
</svg>
