<svg width="20" height="20" viewBox="0 0 20 20" fill="none" xmlns="http://www.w3.org/2000/svg">
    <path d="M6.18055 6.45828C7.52291 6.45828 8.61111 5.37008 8.61111 4.02772C8.61111 2.68536 7.52291 1.59717 6.18055 1.59717C4.8382 1.59717 3.75 2.68536 3.75 4.02772C3.75 5.37008 4.8382 6.45828 6.18055 6.45828Z" fill="#EF6820"/>
    <path d="M13.8192 6.45828C15.1616 6.45828 16.2498 5.37008 16.2498 4.02772C16.2498 2.68536 15.1616 1.59717 13.8192 1.59717C12.4769 1.59717 11.3887 2.68536 11.3887 4.02772C11.3887 5.37008 12.4769 6.45828 13.8192 6.45828Z" fill="#EF6820"/>
    <path d="M13.8193 7.84719C13.0627 7.84805 12.3185 8.03933 11.6552 8.40341C10.992 8.7675 10.4311 9.29267 10.0241 9.93053C10.5745 9.93695 11.1 10.1609 11.4858 10.5535C11.8716 10.9461 12.0864 11.4755 12.0831 12.0259C12.0799 12.5763 11.859 13.1031 11.4687 13.4911C11.0783 13.8792 10.5503 14.097 9.99984 14.097C9.44942 14.097 8.92135 13.8792 8.53101 13.4911C8.14066 13.1031 7.91976 12.5763 7.91655 12.0259C7.91334 11.4755 8.12808 10.9461 8.51387 10.5535C8.89966 10.1609 9.42515 9.93695 9.97554 9.93053C9.45127 9.10686 8.67371 8.47572 7.75983 8.13205C6.84596 7.78839 5.84519 7.75078 4.9081 8.0249C3.97101 8.29902 3.14828 8.87003 2.56368 9.65203C1.97908 10.434 1.66424 11.3847 1.66652 12.3611V16.875C1.66652 17.0591 1.73968 17.2358 1.86991 17.366C2.00015 17.4962 2.17678 17.5694 2.36096 17.5694H7.22207V15.8333L4.72207 13.9583C4.64911 13.9036 4.58765 13.835 4.54118 13.7566C4.49472 13.6781 4.46417 13.5912 4.45127 13.501C4.42522 13.3186 4.47267 13.1334 4.58318 12.9861C4.69369 12.8387 4.8582 12.7413 5.04053 12.7153C5.22285 12.6892 5.40806 12.7367 5.5554 12.8472L8.14776 14.7916H11.8519L14.4443 12.8472C14.5916 12.7367 14.7768 12.6892 14.9592 12.7153C15.1415 12.7413 15.306 12.8387 15.4165 12.9861C15.527 13.1334 15.5745 13.3186 15.5484 13.501C15.5224 13.6833 15.425 13.8478 15.2776 13.9583L12.7776 15.8333V17.5694H17.6387C17.8229 17.5694 17.9995 17.4962 18.1298 17.366C18.26 17.2358 18.3332 17.0591 18.3332 16.875V12.3611C18.3317 11.1644 17.8557 10.0171 17.0095 9.17091C16.1633 8.32471 15.016 7.84867 13.8193 7.84719Z" fill="#EF6820"/>
    </svg>
    