<svg width="34" height="34" viewBox="0 0 34 34" fill="none" xmlns="http://www.w3.org/2000/svg">
<path d="M17.6878 17.5758C17.719 17.5447 17.7501 17.5136 17.7501 17.5136C17.8123 17.4513 17.8435 17.4202 17.9057 17.3579L17.9991 17.2645L18.3104 16.9533L18.7151 16.5486L19.0886 16.2062L19.431 15.8638L19.7734 15.5214L20.0847 15.2101L20.5205 14.7743C20.6139 14.6809 20.7073 14.6186 20.7695 14.5253C20.9252 14.3696 21.1119 14.2451 21.2676 14.0895C21.4232 13.9649 21.5789 13.8404 21.7656 13.7159C21.9835 13.5603 22.2326 13.4046 22.4816 13.249C22.7306 13.0934 22.9796 12.9688 23.2287 12.8443C23.4777 12.7198 23.6956 12.6264 23.9446 12.533C24.0691 12.4708 24.2248 12.4397 24.3493 12.3774C24.4115 12.3463 24.5049 12.3151 24.5672 12.3151C23.9446 9.82488 22.7617 7.52139 21.2053 5.59144C20.894 5.2179 20.4271 5 19.9291 5H6.94858C6.69955 5 6.60617 5.31128 6.79294 5.4358C11.3377 8.61088 15.0108 12.7821 17.6878 17.5758C17.6878 17.5758 17.6878 17.607 17.6878 17.5758Z" fill="#00D6B9"/>
<path d="M12.5525 29.0001C19.2451 29.0001 25.0972 25.2958 28.1478 19.8484C28.2411 19.6616 28.3657 19.4748 28.459 19.2569C28.3034 19.5682 28.1478 19.8484 27.961 20.0974C27.8987 20.1908 27.8365 20.2842 27.7431 20.3776C27.6497 20.5021 27.5563 20.5955 27.4629 20.72C27.4007 20.8133 27.3073 20.8756 27.245 20.969C27.0894 21.1246 26.9338 21.2803 26.747 21.4359C26.6536 21.5293 26.5602 21.5916 26.4668 21.6849C26.3423 21.7783 26.2489 21.8717 26.1244 21.934C26.0622 21.9962 25.9688 22.0274 25.9065 22.0896C25.8131 22.1519 25.7509 22.183 25.6575 22.2453C25.5019 22.3386 25.3151 22.432 25.1283 22.4943C24.9727 22.5565 24.817 22.6188 24.6614 22.681C24.5058 22.7433 24.319 22.8056 24.1322 22.8367C23.8832 22.8989 23.603 22.9612 23.3229 22.9923C23.1361 23.0235 22.9182 23.0546 22.7314 23.0546C22.5135 23.0546 22.3268 23.0857 22.1089 23.0857C21.891 23.0857 21.642 23.0546 21.3929 23.0546C21.2062 23.0235 21.0505 23.0235 20.8637 22.9923C20.7081 22.9612 20.5525 22.9301 20.3968 22.8989C20.3034 22.8678 20.2412 22.8678 20.1478 22.8367C19.9299 22.7744 19.712 22.7122 19.4941 22.6499C19.3696 22.6188 19.2762 22.5877 19.1517 22.5565C18.996 22.4943 18.8093 22.4631 18.6536 22.4009C18.5291 22.3698 18.3735 22.3075 18.249 22.2764C18.1245 22.2452 17.9999 22.183 17.8754 22.1519C17.782 22.1207 17.6887 22.0896 17.6264 22.0585C17.533 22.0274 17.4085 21.9962 17.3151 21.934C17.2529 21.9028 17.1595 21.8717 17.0972 21.8406C16.9416 21.7783 16.8171 21.7472 16.6614 21.6849C16.568 21.6538 16.5058 21.6227 16.4124 21.5916C16.2879 21.5604 16.1945 21.4982 16.07 21.467C15.9455 21.4048 15.821 21.3737 15.6964 21.3114C15.6342 21.2803 15.5408 21.2491 15.4785 21.218C15.3852 21.1869 15.2918 21.1246 15.1984 21.0935C15.1361 21.0624 15.0428 21.0312 14.9805 21.0001C14.9182 20.969 14.8249 20.9379 14.7626 20.9067C14.7003 20.8756 14.6381 20.8445 14.5758 20.8133C14.5136 20.7822 14.4513 20.7511 14.3891 20.72C14.3268 20.6888 14.2645 20.6577 14.2023 20.6266C14.14 20.5954 14.0778 20.5643 14.0155 20.5332C13.9221 20.5021 13.8599 20.4709 13.7665 20.4087C13.6731 20.3776 13.6109 20.3153 13.5175 20.2842C13.4241 20.253 13.3307 20.1908 13.2373 20.1597C13.1751 20.1285 13.0817 20.0974 13.0194 20.0351C9.00387 18.0429 5.45524 15.3659 2.40467 12.1286C2.24903 11.9729 2 12.0663 2 12.2842V23.7394V24.6733C2 25.2024 2.28015 25.7316 2.71595 26.0118C5.5175 27.9106 8.91048 29.0001 12.5525 29.0001Z" fill="#3370FF"/>
<path d="M28.1483 19.8174C28.1172 19.8485 28.1172 19.8485 28.1483 19.8174L28.2106 19.6929C28.1795 19.7551 28.1483 19.7863 28.1483 19.8174Z" fill="#133C9A"/>
<path d="M28.4277 19.3192L28.4589 19.2881C28.4277 19.2881 28.4277 19.2881 28.4277 19.3192Z" fill="#133C9A"/>
<path d="M32.2257 12.8445C30.856 12.1908 29.3307 11.7861 27.7121 11.7861C26.7471 11.7861 25.8132 11.9106 24.9417 12.1597C24.8483 12.1908 24.7238 12.2219 24.6304 12.2531C24.5681 12.2842 24.4747 12.2842 24.4125 12.3153C24.2568 12.3776 24.1323 12.4087 24.0078 12.471C23.7588 12.5643 23.5098 12.6889 23.2919 12.7822C23.0428 12.9068 22.7938 13.0313 22.5448 13.1869C22.2958 13.3425 22.0467 13.4982 21.8288 13.6538C21.6732 13.7783 21.4864 13.9029 21.3308 14.0274C21.144 14.1519 20.9884 14.3075 20.8327 14.4632C20.7393 14.5566 20.646 14.6188 20.5837 14.7122L20.1479 15.148L19.8366 15.4593L19.4942 15.8017L19.1518 16.1441L18.7783 16.4865L18.3425 16.9534L18.0312 17.2647L17.9378 17.3581C17.8755 17.4204 17.8444 17.4515 17.7821 17.5137C17.751 17.5449 17.7199 17.576 17.7199 17.576C17.6888 17.6071 17.6576 17.6383 17.5954 17.6694C17.5643 17.7005 17.502 17.7628 17.4709 17.7939C16.3502 18.8211 15.1051 19.6927 13.7666 20.4087C13.86 20.4398 13.9222 20.4709 14.0156 20.5332C14.0779 20.5643 14.1401 20.5954 14.2024 20.6266C14.2647 20.6577 14.3269 20.6888 14.3892 20.72C14.4514 20.7511 14.5137 20.7822 14.5759 20.8133C14.6382 20.8445 14.7004 20.8756 14.7627 20.9067C14.825 20.9378 14.9183 20.969 14.9806 21.0001C15.0429 21.0312 15.1362 21.0624 15.1985 21.0935C15.2919 21.1246 15.3853 21.1869 15.4787 21.218C15.5409 21.2491 15.6343 21.2803 15.6966 21.3114C15.8211 21.3736 15.9456 21.4048 16.0701 21.467C16.1946 21.4982 16.288 21.5604 16.4125 21.5915C16.5059 21.6227 16.5681 21.6538 16.6615 21.6849C16.8172 21.7472 16.9417 21.7783 17.0973 21.8406C17.1596 21.8717 17.253 21.9028 17.3152 21.934C17.4086 21.9651 17.5331 21.9962 17.6265 22.0585C17.7199 22.0896 17.8133 22.1207 17.8755 22.1519C18 22.183 18.1246 22.2452 18.2491 22.2764C18.3736 22.3075 18.5292 22.3698 18.6537 22.4009C18.8094 22.4631 18.9962 22.4943 19.1518 22.5565C19.2763 22.5876 19.3697 22.6188 19.4942 22.6499C19.7121 22.7122 19.93 22.7744 20.1479 22.8367C20.2413 22.8678 20.3035 22.8678 20.3969 22.8989C20.5526 22.9301 20.7082 22.9612 20.8638 22.9923C21.0506 23.0234 21.2063 23.0546 21.393 23.0546C21.6421 23.0857 21.86 23.0857 22.109 23.0857C22.3269 23.0857 22.5448 23.0857 22.7315 23.0546C22.9183 23.0546 23.1362 23.0234 23.323 22.9923C23.6031 22.9612 23.8522 22.8989 24.1323 22.8367C24.3191 22.7744 24.4747 22.7433 24.6615 22.681C24.8171 22.6188 24.9728 22.5565 25.1284 22.4943C25.3152 22.4009 25.4708 22.3386 25.6576 22.2452C25.751 22.2141 25.8132 22.1519 25.9066 22.0896C25.9689 22.0273 26.0623 21.9962 26.1245 21.934C26.249 21.8406 26.3736 21.7783 26.4669 21.6849C26.5603 21.6227 26.6537 21.5293 26.7471 21.4359C26.9027 21.2803 27.0895 21.1246 27.2451 20.969C27.3074 20.8756 27.4008 20.8133 27.463 20.72C27.5564 20.6266 27.6498 20.5021 27.7432 20.3775C27.8055 20.2842 27.8677 20.1908 27.9611 20.0974C28.1479 19.8484 28.3035 19.5682 28.4592 19.2569L28.6459 18.9145L30.2023 15.8017C30.6693 14.6811 31.3852 13.685 32.2257 12.8445Z" fill="#133C9A"/>
</svg>
