<svg width="20" height="20" viewBox="0 0 20 20" fill="none" xmlns="http://www.w3.org/2000/svg">
<g id="file-list-3-fill">
<path id="Vector" d="M15.8332 18.3333H4.1665C2.7858 18.3333 1.6665 17.2141 1.6665 15.8333V2.50001C1.6665 2.03977 2.0396 1.66667 2.49984 1.66667H14.1665C14.6268 1.66667 14.9998 2.03977 14.9998 2.50001V12.5H18.3332V15.8333C18.3332 17.2141 17.2139 18.3333 15.8332 18.3333ZM14.9998 14.1667V15.8333C14.9998 16.2936 15.3729 16.6667 15.8332 16.6667C16.2934 16.6667 16.6665 16.2936 16.6665 15.8333V14.1667H14.9998ZM4.99984 5.83334V7.50001H11.6665V5.83334H4.99984ZM4.99984 9.16667V10.8333H11.6665V9.16667H4.99984ZM4.99984 12.5V14.1667H9.1665V12.5H4.99984Z" fill="#1570EF"/>
</g>
</svg>
