<svg width="20" height="20" viewBox="0 0 20 20" fill="none" xmlns="http://www.w3.org/2000/svg">
    <path d="M9.99984 1.66663C8.35166 1.66663 6.7405 2.15537 5.37009 3.07105C3.99968 3.98672 2.93157 5.28821 2.30084 6.81093C1.67011 8.33365 1.50509 10.0092 1.82663 11.6257C2.14817 13.2422 2.94185 14.7271 4.10728 15.8925C5.27272 17.058 6.75758 17.8516 8.37409 18.1732C9.9906 18.4947 11.6662 18.3297 13.1889 17.699C14.7116 17.0682 16.0131 16.0001 16.9288 14.6297C17.8444 13.2593 18.3332 11.6481 18.3332 9.99996C18.3332 7.78982 17.4552 5.67021 15.8924 4.1074C14.3296 2.5446 12.21 1.66663 9.99984 1.66663ZM12.295 5.65899L13.1116 4.53538C13.1653 4.46155 13.2329 4.39901 13.3107 4.35133C13.3885 4.30365 13.4749 4.27175 13.565 4.25747C13.6551 4.24319 13.7472 4.24679 13.8359 4.26809C13.9246 4.28938 14.0083 4.32793 14.0821 4.38156C14.156 4.43518 14.2185 4.50282 14.2662 4.58061C14.3139 4.6584 14.3458 4.74482 14.36 4.83494C14.3743 4.92506 14.3707 5.01711 14.3494 5.10583C14.3281 5.19456 14.2896 5.27822 14.236 5.35204L13.4193 6.47565C13.311 6.62474 13.1479 6.72471 12.9659 6.75356C12.7839 6.7824 12.5979 6.73777 12.4488 6.62947C12.2997 6.52118 12.1997 6.35809 12.1709 6.17609C12.142 5.99408 12.1867 5.80808 12.295 5.65899ZM5.9179 4.3819C5.99174 4.32795 6.07551 4.28911 6.1644 4.26761C6.25329 4.24612 6.34556 4.2424 6.43589 4.25666C6.52623 4.27092 6.61286 4.30288 6.69081 4.35071C6.76875 4.39854 6.83649 4.4613 6.89012 4.53538L7.70817 5.65899C7.81647 5.80854 7.86092 5.99499 7.83175 6.17731C7.80258 6.35964 7.70217 6.52291 7.55262 6.63121C7.40307 6.73951 7.21662 6.78396 7.03429 6.75478C6.85196 6.72561 6.68869 6.62521 6.5804 6.47565L5.76373 5.35204C5.71013 5.27823 5.6716 5.19457 5.65034 5.10586C5.62908 5.01715 5.62551 4.92512 5.63983 4.83503C5.65414 4.74494 5.68607 4.65855 5.73378 4.5808C5.78149 4.50306 5.84406 4.43547 5.9179 4.3819ZM5.59151 12.1597L4.27206 12.5888C4.18433 12.6215 4.0909 12.6361 3.99739 12.6317C3.90388 12.6273 3.81222 12.6041 3.72791 12.5634C3.64361 12.5227 3.56841 12.4654 3.50682 12.3949C3.44524 12.3244 3.39854 12.2421 3.36954 12.1531C3.34055 12.0641 3.32984 11.9702 3.33808 11.8769C3.34631 11.7837 3.37332 11.693 3.41747 11.6105C3.46162 11.528 3.522 11.4552 3.59499 11.3966C3.66798 11.3379 3.75207 11.2947 3.8422 11.2694L5.16165 10.8402C5.24947 10.8072 5.34308 10.7924 5.43681 10.7965C5.53054 10.8007 5.62245 10.8238 5.707 10.8645C5.79154 10.9052 5.86697 10.9626 5.92872 11.0332C5.99047 11.1039 6.03727 11.1863 6.06629 11.2755C6.09531 11.3647 6.10595 11.4589 6.09757 11.5524C6.08919 11.6458 6.06195 11.7366 6.01752 11.8192C5.97308 11.9018 5.91236 11.9746 5.83902 12.0331C5.76568 12.0916 5.68194 12.1347 5.59151 12.1597ZM10.6943 16.25C10.6943 16.4341 10.6211 16.6108 10.4909 16.741C10.3607 16.8712 10.184 16.9444 9.99984 16.9444C9.81566 16.9444 9.63903 16.8712 9.50879 16.741C9.37856 16.6108 9.3054 16.4341 9.3054 16.25V14.8611C9.3054 14.6769 9.37856 14.5003 9.50879 14.37C9.63903 14.2398 9.81566 14.1666 9.99984 14.1666C10.184 14.1666 10.3607 14.2398 10.4909 14.37C10.6211 14.5003 10.6943 14.6769 10.6943 14.8611V16.25ZM9.99984 12.2222L7.38595 13.5972L7.88526 10.6868L5.77067 8.62565L8.6929 8.20135L9.99984 5.55551L11.3068 8.20135L14.229 8.62565L12.1144 10.6868L12.6137 13.5972L9.99984 12.2222ZM15.729 12.5902L14.4096 12.1611C14.3191 12.1361 14.2347 12.093 14.1614 12.0345C14.088 11.976 14.0273 11.9032 13.9829 11.8206C13.9384 11.738 13.9112 11.6472 13.9028 11.5537C13.8944 11.4603 13.9051 11.3661 13.9341 11.2769C13.9631 11.1877 14.0099 11.1053 14.0717 11.0346C14.1334 10.964 14.2088 10.9066 14.2934 10.8659C14.3779 10.8252 14.4698 10.8021 14.5636 10.7979C14.6573 10.7938 14.7509 10.8086 14.8387 10.8416L16.1582 11.2708C16.2483 11.2961 16.3324 11.3393 16.4054 11.398C16.4784 11.4566 16.5388 11.5293 16.5829 11.6119C16.6271 11.6944 16.6541 11.7851 16.6623 11.8783C16.6705 11.9716 16.6598 12.0655 16.6308 12.1545C16.6018 12.2435 16.5551 12.3258 16.4936 12.3963C16.432 12.4668 16.3568 12.5241 16.2725 12.5648C16.1882 12.6055 16.0965 12.6287 16.003 12.6331C15.9095 12.6375 15.8167 12.6229 15.729 12.5902Z" fill="#EF6820"/>
    </svg>
    