<svg width="20" height="20" viewBox="0 0 20 20" fill="none" xmlns="http://www.w3.org/2000/svg">
<g id="note-mod">
<path id="Vector" d="M17.6387 3.05555H2.36095C1.97762 3.05555 1.6665 3.36666 1.6665 3.74999V16.25C1.6665 16.6333 1.97762 16.9444 2.36095 16.9444H17.6387C18.0221 16.9444 18.3332 16.6333 18.3332 16.25V3.74999C18.3332 3.36666 18.0221 3.05555 17.6387 3.05555ZM9.30539 14.1667H5.13873C4.75539 14.1667 4.44428 13.8555 4.44428 13.4722C4.44428 13.0889 4.75539 12.7778 5.13873 12.7778H9.30539C9.68873 12.7778 9.99984 13.0889 9.99984 13.4722C9.99984 13.8555 9.68873 14.1667 9.30539 14.1667ZM14.8609 10.6944H5.13873C4.75539 10.6944 4.44428 10.3833 4.44428 9.99999C4.44428 9.61666 4.75539 9.30555 5.13873 9.30555H14.8609C15.2443 9.30555 15.5554 9.61666 15.5554 9.99999C15.5554 10.3833 15.2443 10.6944 14.8609 10.6944ZM14.8609 7.22221H5.13873C4.75539 7.22221 4.44428 6.9111 4.44428 6.52777C4.44428 6.14443 4.75539 5.83332 5.13873 5.83332H14.8609C15.2443 5.83332 15.5554 6.14443 15.5554 6.52777C15.5554 6.9111 15.2443 7.22221 14.8609 7.22221Z" fill="#1570EF"/>
</g>
</svg>
