<svg width="21" height="20" viewBox="0 0 21 20" fill="none" xmlns="http://www.w3.org/2000/svg">
<g clip-path="url(#clip0_2942_529)">
<path fill-rule="evenodd" clip-rule="evenodd" d="M3.90599 18.2611L1.75639 15.5832C1.2392 14.9389 0.958496 14.1466 0.958496 13.3312V3.63437C0.958496 2.4129 1.93574 1.39936 3.19644 1.31328L13.1661 0.632614C13.8904 0.583164 14.6103 0.775682 15.2052 1.17794L18.708 3.5462C19.335 3.97012 19.7085 4.66312 19.7085 5.40266V16.427C19.7085 17.6223 18.7476 18.6121 17.5133 18.688L6.44808 19.3692C5.46308 19.4298 4.51099 19.0148 3.90599 18.2611Z" fill="white"/>
<path d="M7.36355 8.48663V8.35968C7.36355 8.03787 7.62129 7.77098 7.95347 7.7488L10.3731 7.58726L13.7191 12.5146V8.19003L12.8579 8.07522V8.01492C12.8579 7.68933 13.1215 7.42068 13.4579 7.40344L15.6595 7.29066V7.60749C15.6595 7.75622 15.5489 7.88343 15.3973 7.90907L14.8675 7.99868V15.0022L14.2026 15.2309C13.6471 15.4219 13.0287 15.2174 12.7107 14.7376L9.46228 9.83568V14.5143L10.4622 14.7056L10.4482 14.7984C10.4046 15.0889 10.1538 15.3086 9.85036 15.3221L7.36355 15.4328C7.33068 15.1204 7.56481 14.8409 7.88781 14.807L8.21492 14.7726V8.53447L7.36355 8.48663Z" fill="black"/>
<path fill-rule="evenodd" clip-rule="evenodd" d="M13.2553 1.85418L3.28567 2.53485C2.68849 2.57562 2.22559 3.05572 2.22559 3.63431V13.3311C2.22559 13.8748 2.41272 14.4029 2.75752 14.8325L4.90712 17.5104C5.25467 17.9433 5.80161 18.1817 6.36747 18.1469L17.4326 17.4658C17.9998 17.4309 18.4413 16.9761 18.4413 16.4269V5.4026C18.4413 5.06281 18.2697 4.74441 17.9816 4.54963L14.4788 2.18137C14.1218 1.94002 13.6899 1.82451 13.2553 1.85418ZM3.78004 3.78556C3.64138 3.6829 3.70737 3.46903 3.88156 3.45654L13.3224 2.77938C13.6232 2.75781 13.9221 2.84064 14.1653 3.01299L16.0595 4.35502C16.1315 4.40597 16.0977 4.51596 16.0087 4.5208L6.01092 5.06454C5.70835 5.081 5.4097 4.99211 5.16913 4.814L3.78004 3.78556ZM5.54198 6.76913C5.54198 6.44433 5.80438 6.17604 6.13991 6.15777L16.7104 5.5821C17.0374 5.56429 17.3127 5.81577 17.3127 6.13232V15.6782C17.3127 16.0024 17.0512 16.2705 16.7164 16.2895L6.2128 16.8871C5.84887 16.9079 5.54198 16.6282 5.54198 16.2759V6.76913Z" fill="black"/>
</g>
<defs>
<clipPath id="clip0_2942_529">
<rect width="20" height="20" fill="white" transform="translate(0.333496)"/>
</clipPath>
</defs>
</svg>
