<svg width="20" height="20" viewBox="0 0 20 20" fill="none" xmlns="http://www.w3.org/2000/svg">
    <path d="M3.93923 18.3333C3.48973 18.3333 3.05032 18.2 2.67657 17.9503C2.30282 17.7006 2.01152 17.3456 1.83951 16.9303C1.66749 16.515 1.62248 16.0581 1.71017 15.6172C1.79787 15.1763 2.01432 14.7714 2.33217 14.4535C2.65002 14.1357 3.05498 13.9192 3.49584 13.8315C3.93671 13.7438 4.39368 13.7889 4.80897 13.9609C5.22425 14.1329 5.5792 14.4242 5.82894 14.7979C6.07867 15.1717 6.21196 15.6111 6.21196 16.0606C6.21196 16.6634 5.97251 17.2414 5.54629 17.6677C5.12007 18.0939 4.542 18.3333 3.93923 18.3333Z" fill="#6938EF"/>
    <path d="M9.99978 7.72726C9.55028 7.72726 9.11087 7.86056 8.73712 8.11029C8.36337 8.36002 8.07207 8.71497 7.90005 9.13026C7.72804 9.54554 7.68303 10.0025 7.77072 10.4434C7.85842 10.8842 8.07487 11.2892 8.39272 11.6071C8.71056 11.9249 9.11553 12.1414 9.55639 12.229C9.99726 12.3167 10.4542 12.2717 10.8695 12.0997C11.2848 11.9277 11.6398 11.6364 11.8895 11.2627C12.1392 10.8889 12.2725 10.4495 12.2725 9.99999C12.2725 9.39723 12.0331 8.81915 11.6068 8.39293C11.1806 7.96671 10.6025 7.72726 9.99978 7.72726Z" fill="#6938EF"/>
    <path d="M3.93923 1.66666C3.48973 1.66666 3.05032 1.79995 2.67657 2.04968C2.30282 2.29941 2.01152 2.65436 1.83951 3.06965C1.66749 3.48494 1.62248 3.9419 1.71017 4.38277C1.79787 4.82364 2.01432 5.2286 2.33217 5.54644C2.65002 5.86429 3.05498 6.08075 3.49585 6.16844C3.93671 6.25613 4.39368 6.21113 4.80897 6.03911C5.22425 5.86709 5.57921 5.57579 5.82894 5.20204C6.07867 4.8283 6.21196 4.38889 6.21196 3.93938C6.21196 3.33662 5.97251 2.75854 5.54629 2.33232C5.12007 1.9061 4.542 1.66666 3.93923 1.66666Z" fill="#6938EF"/>
    <path d="M16.0603 1.66666C15.6108 1.66666 15.1714 1.79995 14.7977 2.04968C14.4239 2.29941 14.1326 2.65436 13.9606 3.06965C13.7886 3.48494 13.7436 3.9419 13.8313 4.38277C13.919 4.82364 14.1354 5.2286 14.4533 5.54644C14.7711 5.86429 15.1761 6.08075 15.6169 6.16844C16.0578 6.25613 16.5148 6.21113 16.9301 6.03911C17.3453 5.86709 17.7003 5.57579 17.95 5.20204C18.1998 4.8283 18.3331 4.38889 18.3331 3.93938C18.3331 3.33662 18.0936 2.75854 17.6674 2.33232C17.2412 1.9061 16.6631 1.66666 16.0603 1.66666Z" fill="#6938EF"/>
    <path d="M16.0603 13.7879C15.6108 13.7879 15.1714 13.9212 14.7977 14.1709C14.4239 14.4206 14.1326 14.7756 13.9606 15.1909C13.7886 15.6062 13.7436 16.0631 13.8313 16.504C13.919 16.9449 14.1354 17.3498 14.4533 17.6677C14.7711 17.9855 15.1761 18.202 15.6169 18.2897C16.0578 18.3774 16.5148 18.3323 16.9301 18.1603C17.3453 17.9883 17.7003 17.697 17.95 17.3233C18.1998 16.9495 18.3331 16.5101 18.3331 16.0606C18.3331 15.4578 18.0936 14.8798 17.6674 14.4535C17.2412 14.0273 16.6631 13.7879 16.0603 13.7879Z" fill="#6938EF"/>
    <path d="M6.21196 7.72726H1.6665V12.2727H6.21196V7.72726Z" fill="#6938EF"/>
    <path d="M18.3331 7.72726H13.7876V12.2727H18.3331V7.72726Z" fill="#6938EF"/>
    <path d="M12.2725 1.66666H7.72705V6.21211H12.2725V1.66666Z" fill="#6938EF"/>
    <path d="M12.2725 13.7879H7.72705V18.3333H12.2725V13.7879Z" fill="#6938EF"/>
    </svg>
    