<svg width="16" height="16" viewBox="0 0 16 16" fill="none" xmlns="http://www.w3.org/2000/svg">
<path d="M7.66675 6.00004C8.95541 6.00004 10.0001 4.95537 10.0001 3.66671C10.0001 2.37804 8.95541 1.33337 7.66675 1.33337C6.37808 1.33337 5.33341 2.37804 5.33341 3.66671C5.33341 4.95537 6.37808 6.00004 7.66675 6.00004Z" fill="#444CE7"/>
<path d="M4.65042 5.75205C4.49131 5.52233 4.41175 5.40747 4.32605 5.36953C4.24913 5.33547 4.16814 5.3313 4.08813 5.35729C3.99899 5.38624 3.92889 5.46803 3.78869 5.6316C3.22609 6.28801 2.84238 7.10277 2.71398 8.00016H2.66675C2.29856 8.00016 2.00008 7.70168 2.00008 7.33349C2.00008 7.08757 2.13289 6.87188 2.3339 6.75561C2.65261 6.57125 2.76151 6.16343 2.57715 5.84472C2.39279 5.52601 1.98497 5.4171 1.66626 5.60147C1.0702 5.94627 0.666748 6.59237 0.666748 7.33349C0.666748 8.43806 1.56218 9.33349 2.66675 9.33349H2.71402C2.85798 10.339 3.32264 11.2416 4.00004 11.9329L4.00004 13.4823C4.00001 13.5617 3.99997 13.6565 4.0068 13.7401C4.01471 13.8369 4.035 13.9756 4.10903 14.1209C4.20491 14.309 4.35789 14.462 4.54605 14.5579C4.69135 14.6319 4.83001 14.6522 4.92682 14.6601C5.01034 14.6669 5.10517 14.6669 5.18456 14.6669H6.48214C6.56153 14.6669 6.6564 14.6669 6.73993 14.6601C6.83674 14.6522 6.9754 14.6319 7.1207 14.5579C7.30886 14.462 7.46184 14.309 7.55771 14.1209C7.63175 13.9756 7.65204 13.8369 7.65995 13.7401C7.66678 13.6565 7.66674 13.5617 7.66671 13.4823L7.66671 13.3335H8.33338L8.33338 13.482C8.33335 13.5615 8.33331 13.6563 8.34014 13.7398C8.34805 13.8366 8.36834 13.9753 8.44238 14.1206C8.53825 14.3088 8.69123 14.4618 8.87939 14.5576C9.02469 14.6317 9.16335 14.652 9.26016 14.6599C9.34368 14.6667 9.43849 14.6667 9.51788 14.6666H10.8155C10.8949 14.6667 10.9898 14.6667 11.0733 14.6599C11.1701 14.652 11.3088 14.6317 11.4541 14.5576C11.6422 14.4618 11.7952 14.3088 11.8911 14.1206C11.9651 13.9753 11.9854 13.8366 11.9933 13.7398C12.0002 13.6563 12.0001 13.5615 12.0001 13.482L12.0001 12.884C12.7376 12.5338 13.3679 11.9963 13.8302 11.3333L14.1488 11.3333C14.2283 11.3333 14.3231 11.3334 14.4066 11.3265C14.5035 11.3186 14.6421 11.2983 14.7874 11.2243C14.9756 11.1284 15.1286 10.9754 15.2244 10.7873C15.2985 10.642 15.3188 10.5033 15.3267 10.4065C15.3335 10.323 15.3335 10.2282 15.3334 10.1488V7.84245C15.3335 7.76683 15.3335 7.67651 15.3273 7.59685C15.3201 7.50472 15.3017 7.37257 15.2344 7.23269C15.1361 7.02862 14.9714 6.86396 14.7674 6.76567C14.6275 6.6983 14.4953 6.67993 14.4032 6.67276C14.3437 6.66813 14.2783 6.66697 14.2175 6.66669C13.9938 6.19554 13.6937 5.76825 13.3334 5.40063L13.3334 4.68824C13.3335 4.58502 13.3335 4.46819 13.3245 4.36769C13.3147 4.25673 13.2888 4.08518 13.1835 3.91515C13.0521 3.70315 12.8463 3.54789 12.6064 3.47982C12.4139 3.42523 12.2419 3.44753 12.1325 3.4685C12.0334 3.48749 11.921 3.51963 11.8218 3.54801L11.7179 3.57769C11.5813 3.61674 11.513 3.63626 11.4649 3.67145C11.4185 3.70542 11.3901 3.73891 11.3642 3.79026C11.3374 3.84344 11.3281 3.92456 11.3096 4.08678C11.1012 5.91399 9.54973 7.33337 7.66675 7.33337C6.41642 7.33337 5.31225 6.70755 4.65042 5.75205Z" fill="#444CE7"/>
</svg>
