<svg width="20" height="20" viewBox="0 0 20 20" fill="none" xmlns="http://www.w3.org/2000/svg">
    <path fill-rule="evenodd" clip-rule="evenodd" d="M7.91672 15.2028V17.9805H6.52783V15.2028H7.91672Z" fill="#444CE7"/>
    <path fill-rule="evenodd" clip-rule="evenodd" d="M14.1667 15.2028V17.9805H12.7778V15.2028H14.1667Z" fill="#444CE7"/>
    <path d="M14.1666 2.0083C14.1666 3.54243 12.923 4.78608 11.3889 4.78608C9.85476 4.78608 8.61108 3.54243 8.61108 2.0083L14.1666 2.0083Z" fill="#444CE7"/>
    <path fill-rule="evenodd" clip-rule="evenodd" d="M5.8864 5.23918C6.9718 4.92907 8.12598 5.30791 8.81883 6.17498H13.1251C16.0015 6.17498 18.3334 8.50683 18.3334 11.3833C18.3334 14.2598 16.0015 16.5916 13.1251 16.5916H7.39252C6.14908 16.5916 4.97062 16.0363 4.1791 15.0773L3.32342 14.0407L1.66675 13.3448V9.93061L3.65692 9.40957L4.44453 8.40703V5.65114L5.8864 5.23918ZM8.61119 8.25831H14.1667V9.64721H8.61119V8.25831ZM6.52786 9.99443C6.52786 10.5697 6.06149 11.0361 5.48619 11.0361C4.91089 11.0361 4.44453 10.5697 4.44453 9.99443C4.44453 9.41915 4.91089 8.95276 5.48619 8.95276C6.06149 8.95276 6.52786 9.41915 6.52786 9.99443Z" fill="#444CE7"/>
    </svg>
    