<svg width="20" height="20" viewBox="0 0 20 20" fill="none" xmlns="http://www.w3.org/2000/svg">
<g id="progress-indicator">
<g id="Vector">
<path d="M18.4029 10.7639H1.59738C1.17572 10.7639 0.833496 11.1061 0.833496 11.5278V16.1111C0.833496 16.5328 1.17572 16.875 1.59738 16.875H18.4029C18.8246 16.875 19.1668 16.5328 19.1668 16.1111V11.5278C19.1668 11.1061 18.8246 10.7639 18.4029 10.7639ZM17.6391 15.3472H10.0002V12.2917H17.6391V15.3472Z" fill="#1570EF"/>
<path d="M9.716 7.58153C9.78933 7.66174 9.89169 7.70833 10.0002 7.70833C10.1086 7.70833 10.211 7.6625 10.2843 7.58153L13.7218 3.76208C13.8227 3.64979 13.8479 3.48937 13.7868 3.35111C13.7249 3.21361 13.5881 3.125 13.4377 3.125H6.56266C6.41218 3.125 6.27544 3.21361 6.21356 3.35111C6.15245 3.48937 6.17766 3.64979 6.2785 3.76208L9.716 7.58153Z" fill="#1570EF"/>
</g>
</g>
</svg>
