<svg width="16" height="18" viewBox="0 0 16 18" fill="none" xmlns="http://www.w3.org/2000/svg">
    <path d="M13.6752 4.83333H9.91553V1.07361L13.6752 4.83333Z" fill="#6938EF"/>
    <path d="M7.2003 13.8611H2.62391C2.53183 13.8611 2.44351 13.8245 2.37839 13.7594C2.31327 13.6943 2.27669 13.606 2.27669 13.5139V12.8195C2.27669 12.7274 2.31327 12.6391 2.37839 12.5739C2.44351 12.5088 2.53183 12.4722 2.62391 12.4722H7.2003C7.33176 11.6964 7.68097 10.9739 8.20725 10.3889H2.62391C2.53183 10.3889 2.44351 10.3523 2.37839 10.2872C2.31327 10.2221 2.27669 10.1338 2.27669 10.0417V9.34724C2.27669 9.25515 2.31327 9.16684 2.37839 9.10172C2.44351 9.0366 2.53183 9.00002 2.62391 9.00002H11.3045C12.3309 9.0003 13.3207 9.38137 14.0822 10.0695V6.22224H9.22114C9.03696 6.22224 8.86032 6.14908 8.73009 6.01884C8.59986 5.88861 8.52669 5.71198 8.52669 5.5278V0.666687H0.887804C0.703626 0.666687 0.526991 0.739851 0.396757 0.870085C0.266524 1.00032 0.193359 1.17695 0.193359 1.36113V16.6389C0.193359 16.8231 0.266524 16.9997 0.396757 17.13C0.526991 17.2602 0.703626 17.3334 0.887804 17.3334H10.61C9.73337 17.224 8.91945 16.8214 8.30046 16.1911C7.68146 15.5607 7.29375 14.7396 7.2003 13.8611ZM2.62391 5.5278H6.09614C6.18823 5.5278 6.27654 5.56438 6.34166 5.6295C6.40678 5.69461 6.44336 5.78293 6.44336 5.87502V6.56947C6.44336 6.66155 6.40678 6.74987 6.34166 6.81499C6.27654 6.88011 6.18823 6.91669 6.09614 6.91669H2.62391C2.53183 6.91669 2.44351 6.88011 2.37839 6.81499C2.31327 6.74987 2.27669 6.66155 2.27669 6.56947V5.87502C2.27669 5.78293 2.31327 5.69461 2.37839 5.6295C2.44351 5.56438 2.53183 5.5278 2.62391 5.5278Z" fill="#6938EF"/>
    <path d="M15.2678 16.1479L13.6887 14.5688C13.9439 14.1455 14.08 13.661 14.0824 13.1667C14.0824 12.6173 13.9195 12.0802 13.6143 11.6234C13.309 11.1666 12.8752 10.8106 12.3676 10.6004C11.8601 10.3901 11.3016 10.3351 10.7627 10.4423C10.2239 10.5495 9.72893 10.814 9.34045 11.2025C8.95197 11.591 8.68741 12.0859 8.58023 12.6248C8.47305 13.1636 8.52806 13.7221 8.7383 14.2297C8.94855 14.7373 9.30458 15.1711 9.76138 15.4763C10.2182 15.7816 10.7552 15.9445 11.3046 15.9445C11.799 15.9421 12.2834 15.806 12.7067 15.5507L14.2859 17.1299C14.4169 17.2564 14.5923 17.3264 14.7744 17.3248C14.9564 17.3232 15.1306 17.2502 15.2594 17.1214C15.3881 16.9927 15.4612 16.8185 15.4627 16.6364C15.4643 16.4543 15.3943 16.2789 15.2678 16.1479ZM9.91575 13.1667C9.91575 12.892 9.9972 12.6235 10.1498 12.3951C10.3024 12.1667 10.5193 11.9887 10.7731 11.8835C11.0269 11.7784 11.3062 11.7509 11.5756 11.8045C11.845 11.8581 12.0925 11.9904 12.2867 12.1846C12.481 12.3788 12.6132 12.6263 12.6668 12.8957C12.7204 13.1652 12.6929 13.4444 12.5878 13.6982C12.4827 13.952 12.3047 14.1689 12.0763 14.3215C11.8479 14.4741 11.5793 14.5556 11.3046 14.5556C10.9363 14.5556 10.583 14.4093 10.3225 14.1488C10.0621 13.8883 9.91575 13.5351 9.91575 13.1667Z" fill="#6938EF"/>
    </svg>
    