<svg width="20" height="20" viewBox="0 0 20 20" fill="none" xmlns="http://www.w3.org/2000/svg">
    <path fill-rule="evenodd" clip-rule="evenodd" d="M10.0002 0.833374C10.4604 0.833374 10.8335 1.20647 10.8335 1.66671V2.54597C11.5977 2.63056 12.328 2.8301 13.0061 3.12703L13.4452 2.36666C13.6752 1.96808 14.1849 1.83152 14.5835 2.06164C14.9821 2.29176 15.1186 2.80142 14.8885 3.2L14.4488 3.96146C15.0552 4.40877 15.5915 4.94516 16.0388 5.55143L16.8003 5.11177C17.1989 4.88165 17.7086 5.01821 17.9387 5.41679C18.1688 5.81537 18.0322 6.32502 17.6337 6.55514L16.8732 6.99418C17.1702 7.67226 17.3697 8.40254 17.4543 9.16679H18.3335C18.7937 9.16679 19.1668 9.53987 19.1668 10.0001C19.1668 10.4604 18.7937 10.8335 18.3335 10.8335H17.4543C17.3697 11.5977 17.1702 12.328 16.8732 13.0061L17.6337 13.4452C18.0322 13.6753 18.1688 14.185 17.9387 14.5835C17.7086 14.9821 17.1989 15.1187 16.8003 14.8885L16.0388 14.4489C15.5915 15.0551 15.0551 15.5915 14.4488 16.0388L14.8885 16.8004C15.1186 17.1989 14.9821 17.7085 14.5835 17.9387C14.1849 18.1688 13.6752 18.0322 13.4452 17.6337L13.0061 16.8732C12.328 17.1701 11.5977 17.3697 10.8335 17.4543V18.3334C10.8335 18.7936 10.4604 19.1667 10.0002 19.1667C9.53991 19.1667 9.16683 18.7936 9.16683 18.3334V17.4543C8.40258 17.3697 7.6723 17.1701 6.99424 16.8732L6.55516 17.6337C6.32505 18.0323 5.81539 18.1689 5.41681 17.9388C5.01824 17.7086 4.88167 17.199 5.11179 16.8005L5.55149 16.0388C4.94519 15.5915 4.40878 15.0551 3.96145 14.4488L3.19993 14.8885C2.80135 15.1186 2.2917 14.982 2.06158 14.5835C1.83145 14.1849 1.96802 13.6752 2.3666 13.4451L3.12704 13.006C2.83011 12.328 2.63056 11.5977 2.54598 10.8335L1.66679 10.8334C1.20655 10.8334 0.833474 10.4602 0.833496 10C0.833521 9.53979 1.20663 9.16671 1.66687 9.16671L2.54599 9.16679C2.63058 8.40254 2.8301 7.67229 3.12701 6.99424L2.3666 6.55523C1.96802 6.32512 1.83145 5.81546 2.06157 5.41687C2.29169 5.0183 2.80135 4.88173 3.19992 5.11185L3.96142 5.55148C4.40874 4.94518 4.94515 4.40877 5.55145 3.96144L5.11179 3.19991C4.88167 2.80133 5.01823 2.29167 5.41681 2.06156C5.81539 1.83144 6.32505 1.968 6.55516 2.36657L6.9942 3.12702C7.67228 2.83009 8.40258 2.63055 9.16683 2.54597V1.66671C9.16683 1.20647 9.53991 0.833374 10.0002 0.833374ZM6.39156 5.41655C5.81089 5.87442 5.31917 6.44029 4.94695 7.08361C4.45095 7.94087 4.16681 8.93604 4.16681 10.0001C4.16681 11.0642 4.45096 12.0594 4.94698 12.9167C5.3192 13.56 5.81091 14.1259 6.39159 14.5837L8.1 11.6246C7.72651 11.1881 7.50015 10.6208 7.50015 10.0001C7.50015 9.37946 7.72651 8.81212 8.09999 8.37562L6.39156 5.41655ZM9.54316 7.54194L7.83418 4.5819C8.50325 4.31416 9.23383 4.16679 10.0002 4.16679C11.0642 4.16679 12.0594 4.45095 12.9167 4.94697C13.8022 5.45932 14.541 6.19807 15.0533 7.08357C15.4173 7.71277 15.6673 8.41629 15.7745 9.16679H12.3579C12.0147 8.19579 11.0887 7.50012 10.0002 7.50012C9.84433 7.50012 9.69149 7.51446 9.54316 7.54194ZM12.3579 10.8335C12.0147 11.8045 11.0887 12.5001 10.0002 12.5001C9.84433 12.5001 9.69149 12.4858 9.54316 12.4583L7.8342 15.4184C8.50325 15.6861 9.23383 15.8335 10.0002 15.8335C11.0642 15.8335 12.0594 15.5493 12.9167 15.0533C13.8022 14.541 14.5409 13.8022 15.0532 12.9167C15.4173 12.2875 15.6673 11.584 15.7745 10.8335H12.3579Z" fill="#444CE7"/>
    </svg>
    