<svg width="16" height="16" viewBox="0 0 16 16" fill="none" xmlns="http://www.w3.org/2000/svg">
<path d="M1.33325 12.6666C1.33325 12.2984 1.63173 12 1.99992 12H4.66659C5.03478 12 5.33325 12.2984 5.33325 12.6666C5.33325 13.0348 5.03478 13.3333 4.66659 13.3333H1.99992C1.63173 13.3333 1.33325 13.0348 1.33325 12.6666Z" fill="#155EEF"/>
<path fill-rule="evenodd" clip-rule="evenodd" d="M10.5528 12C10.2782 11.2232 9.5374 10.6666 8.66659 10.6666C7.56202 10.6666 6.66659 11.5621 6.66659 12.6666C6.66659 13.7712 7.56202 14.6666 8.66659 14.6666C9.5374 14.6666 10.2782 14.1101 10.5528 13.3333L13.9999 13.3333C14.3681 13.3333 14.6666 13.0348 14.6666 12.6666C14.6666 12.2984 14.3681 12 13.9999 12L10.5528 12Z" fill="#155EEF"/>
<path d="M9.99992 7.33329C9.63173 7.33329 9.33325 7.63177 9.33325 7.99996C9.33325 8.36815 9.63173 8.66663 9.99992 8.66663H13.9999C14.3681 8.66663 14.6666 8.36815 14.6666 7.99996C14.6666 7.63177 14.3681 7.33329 13.9999 7.33329H9.99992Z" fill="#155EEF"/>
<path fill-rule="evenodd" clip-rule="evenodd" d="M1.33325 7.99996C1.33325 7.63177 1.63173 7.33329 1.99992 7.33329H4.11372C4.38828 6.5565 5.12911 5.99996 5.99992 5.99996C7.10449 5.99996 7.99992 6.89539 7.99992 7.99996C7.99992 9.10453 7.10449 9.99996 5.99992 9.99996C5.12911 9.99996 4.38828 9.44342 4.11372 8.66663H1.99992C1.63173 8.66663 1.33325 8.36815 1.33325 7.99996Z" fill="#155EEF"/>
<path fill-rule="evenodd" clip-rule="evenodd" d="M9.99992 1.33329C10.8707 1.33329 11.6116 1.88983 11.8861 2.66663H13.9999C14.3681 2.66663 14.6666 2.9651 14.6666 3.33329C14.6666 3.70148 14.3681 3.99996 13.9999 3.99996H11.8861C11.6116 4.77675 10.8707 5.33329 9.99992 5.33329C8.89535 5.33329 7.99992 4.43786 7.99992 3.33329C7.99992 2.22872 8.89535 1.33329 9.99992 1.33329Z" fill="#155EEF"/>
<path d="M1.33325 3.33329C1.33325 2.9651 1.63173 2.66663 1.99992 2.66663H5.99992C6.36811 2.66663 6.66659 2.9651 6.66659 3.33329C6.66659 3.70148 6.36811 3.99996 5.99992 3.99996H1.99992C1.63173 3.99996 1.33325 3.70148 1.33325 3.33329Z" fill="#155EEF"/>
</svg>
