<svg width="16" height="16" viewBox="0 0 16 16" fill="none" xmlns="http://www.w3.org/2000/svg">
<path d="M8.00008 0.666626C8.36827 0.666626 8.66675 0.965103 8.66675 1.33329V2.66663C8.66675 3.03482 8.36827 3.33329 8.00008 3.33329C7.63189 3.33329 7.33341 3.03482 7.33341 2.66663V1.33329C7.33341 0.965103 7.63189 0.666626 8.00008 0.666626Z" fill="#FB6514"/>
<path d="M3.75729 2.81452C3.49694 2.55418 3.07483 2.55418 2.81448 2.81452C2.55413 3.07487 2.55413 3.49698 2.81448 3.75733L3.75729 4.70014C4.01764 4.96049 4.43975 4.96049 4.7001 4.70014C4.96045 4.43979 4.96045 4.01768 4.7001 3.75733L3.75729 2.81452Z" fill="#FB6514"/>
<path d="M0.666748 7.99996C0.666748 7.63177 0.965225 7.33329 1.33341 7.33329H2.66675C3.03494 7.33329 3.33341 7.63177 3.33341 7.99996C3.33341 8.36815 3.03494 8.66663 2.66675 8.66663H1.33341C0.965225 8.66663 0.666748 8.36815 0.666748 7.99996Z" fill="#FB6514"/>
<path d="M13.3334 7.33329C12.9652 7.33329 12.6667 7.63177 12.6667 7.99996C12.6667 8.36815 12.9652 8.66663 13.3334 8.66663H14.6667C15.0349 8.66663 15.3334 8.36815 15.3334 7.99996C15.3334 7.63177 15.0349 7.33329 14.6667 7.33329H13.3334Z" fill="#FB6514"/>
<path d="M12.2426 11.2997C11.9823 11.0394 11.5602 11.0394 11.2998 11.2997C11.0395 11.5601 11.0395 11.9822 11.2998 12.2425L12.2426 13.1853C12.503 13.4457 12.9251 13.4457 13.1855 13.1853C13.4458 12.925 13.4458 12.5029 13.1855 12.2425L12.2426 11.2997Z" fill="#FB6514"/>
<path d="M13.1855 3.75733C13.4458 3.49698 13.4458 3.07487 13.1855 2.81452C12.9251 2.55418 12.503 2.55418 12.2426 2.81452L11.2998 3.75733C11.0395 4.01768 11.0395 4.43979 11.2998 4.70014C11.5602 4.96049 11.9823 4.96049 12.2426 4.70014L13.1855 3.75733Z" fill="#FB6514"/>
<path d="M8.00008 12.6666C8.36827 12.6666 8.66675 12.9651 8.66675 13.3333V14.6666C8.66675 15.0348 8.36827 15.3333 8.00008 15.3333C7.63189 15.3333 7.33341 15.0348 7.33341 14.6666V13.3333C7.33341 12.9651 7.63189 12.6666 8.00008 12.6666Z" fill="#FB6514"/>
<path d="M4.7001 12.2425C4.96045 11.9822 4.96045 11.5601 4.7001 11.2997C4.43975 11.0394 4.01764 11.0394 3.75729 11.2997L2.81448 12.2425C2.55413 12.5029 2.55413 12.925 2.81448 13.1853C3.07483 13.4457 3.49694 13.4457 3.75729 13.1853L4.7001 12.2425Z" fill="#FB6514"/>
<path d="M8.59791 4.37154C8.48559 4.14401 8.25385 3.99996 8.0001 3.99996C7.74635 3.99996 7.51461 4.14401 7.4023 4.37154L6.52726 6.14427L4.57035 6.4303C4.31931 6.46699 4.11085 6.643 4.0326 6.88434C3.95435 7.12567 4.01987 7.39051 4.20161 7.56753L5.61709 8.9462L5.28303 10.8939C5.24013 11.1441 5.34296 11.3968 5.54828 11.546C5.7536 11.6951 6.02579 11.7148 6.2504 11.5967L8.0001 10.6765L9.7498 11.5967C9.97441 11.7148 10.2466 11.6951 10.4519 11.546C10.6572 11.3968 10.7601 11.1441 10.7172 10.8939L10.3831 8.9462L11.7986 7.56753C11.9803 7.39051 12.0458 7.12567 11.9676 6.88434C11.8893 6.643 11.6809 6.46699 11.4299 6.4303L9.47294 6.14427L8.59791 4.37154Z" fill="#FB6514"/>
</svg>
