<svg width="12" height="12" viewBox="0 0 12 12" fill="none" xmlns="http://www.w3.org/2000/svg">
<path d="M6 0.5C6.27614 0.5 6.5 0.723858 6.5 1V2C6.5 2.27614 6.27614 2.5 6 2.5C5.72386 2.5 5.5 2.27614 5.5 2V1C5.5 0.723858 5.72386 0.5 6 0.5Z" fill="#FB6514"/>
<path d="M2.81791 2.11092C2.62265 1.91566 2.30606 1.91566 2.1108 2.11092C1.91554 2.30619 1.91554 2.62277 2.1108 2.81803L2.81791 3.52514C3.01317 3.7204 3.32975 3.7204 3.52502 3.52514C3.72028 3.32988 3.72028 3.01329 3.52502 2.81803L2.81791 2.11092Z" fill="#FB6514"/>
<path d="M0.5 6C0.5 5.72386 0.723858 5.5 1 5.5H2C2.27614 5.5 2.5 5.72386 2.5 6C2.5 6.27614 2.27614 6.5 2 6.5H1C0.723858 6.5 0.5 6.27614 0.5 6Z" fill="#FB6514"/>
<path d="M10 5.5C9.72386 5.5 9.5 5.72386 9.5 6C9.5 6.27614 9.72386 6.5 10 6.5H11C11.2761 6.5 11.5 6.27614 11.5 6C11.5 5.72386 11.2761 5.5 11 5.5H10Z" fill="#FB6514"/>
<path d="M9.18192 8.47482C8.98666 8.27955 8.67008 8.27955 8.47482 8.47482C8.27955 8.67008 8.27955 8.98666 8.47482 9.18192L9.18192 9.88903C9.37718 10.0843 9.69377 10.0843 9.88903 9.88903C10.0843 9.69377 10.0843 9.37718 9.88903 9.18192L9.18192 8.47482Z" fill="#FB6514"/>
<path d="M9.88903 2.81803C10.0843 2.62277 10.0843 2.30619 9.88903 2.11092C9.69377 1.91566 9.37718 1.91566 9.18192 2.11092L8.47482 2.81803C8.27955 3.01329 8.27955 3.32988 8.47482 3.52514C8.67008 3.7204 8.98666 3.7204 9.18192 3.52514L9.88903 2.81803Z" fill="#FB6514"/>
<path d="M6 9.5C6.27614 9.5 6.5 9.72386 6.5 10V11C6.5 11.2761 6.27614 11.5 6 11.5C5.72386 11.5 5.5 11.2761 5.5 11V10C5.5 9.72386 5.72386 9.5 6 9.5Z" fill="#FB6514"/>
<path d="M3.52502 9.18192C3.72028 8.98666 3.72028 8.67008 3.52502 8.47482C3.32975 8.27955 3.01317 8.27955 2.81791 8.47482L2.1108 9.18192C1.91554 9.37718 1.91554 9.69377 2.1108 9.88903C2.30606 10.0843 2.62265 10.0843 2.81791 9.88903L3.52502 9.18192Z" fill="#FB6514"/>
<path d="M6.44837 3.27869C6.36413 3.10804 6.19032 3 6.00001 3C5.8097 3 5.6359 3.10804 5.55166 3.27869L4.89538 4.60823L3.4277 4.82276C3.23942 4.85028 3.08308 4.98228 3.02439 5.16328C2.9657 5.34429 3.01484 5.54291 3.15115 5.67568L4.21275 6.70968L3.96221 8.17048C3.93004 8.35807 4.00716 8.54766 4.16115 8.65953C4.31514 8.77139 4.51928 8.78613 4.68774 8.69754L6.00001 8.00742L7.31229 8.69754C7.48075 8.78613 7.68489 8.77139 7.83888 8.65953C7.99287 8.54766 8.06999 8.35807 8.03782 8.17048L7.78728 6.70968L8.84888 5.67568C8.98519 5.54291 9.03433 5.34429 8.97564 5.16328C8.91695 4.98228 8.76061 4.85028 8.57233 4.82276L7.10465 4.60823L6.44837 3.27869Z" fill="#FB6514"/>
</svg>
