<svg width="17" height="16" viewBox="0 0 17 16" fill="none" xmlns="http://www.w3.org/2000/svg">
<path fill-rule="evenodd" clip-rule="evenodd" d="M7.06124 2.21694C7.57213 2.07545 8.11041 1.99984 8.66634 1.99984C9.97432 1.99984 11.1845 2.41837 12.1704 3.12881C11.6459 3.4755 11.2546 3.85196 10.9834 4.25446C10.569 4.86947 10.4628 5.50546 10.5486 6.08575C10.632 6.64928 10.8907 7.13053 11.1627 7.48656C11.4265 7.83177 11.7501 8.12048 12.0351 8.26293C12.7526 8.62164 13.5806 8.80129 14.1996 8.89387C14.7596 8.97762 15.9468 9.2579 15.9907 8.36596C15.9967 8.24461 15.9997 8.12255 15.9997 7.99984C15.9997 3.94975 12.7164 0.666504 8.66634 0.666504C4.61625 0.666504 1.33301 3.94975 1.33301 7.99984C1.33301 12.0499 4.61625 15.3332 8.66634 15.3332C8.78906 15.3332 8.91112 15.3301 9.03246 15.3242C9.40021 15.3061 9.68364 14.9933 9.66553 14.6255C9.64743 14.2578 9.33463 13.9743 8.96689 13.9925C8.86737 13.9974 8.76717 13.9998 8.66634 13.9998C6.32676 13.9998 4.29993 12.6608 3.31046 10.7073L3.95617 10.3345L6.33797 10.7803C6.95507 10.8958 7.52471 10.4207 7.52192 9.79289L7.51258 7.69081L8.72983 5.60684C8.92705 5.2692 8.90938 4.84758 8.68459 4.52762L7.06124 2.21694Z" fill="#1570EF"/>
<path fill-rule="evenodd" clip-rule="evenodd" d="M9.96344 8.43724C9.71815 8.3442 9.4411 8.40367 9.2556 8.58917C9.07009 8.77467 9.01063 9.05172 9.10367 9.29701L11.2149 14.8629C11.3123 15.1198 11.5575 15.2906 11.8323 15.2931C12.1071 15.2955 12.3552 15.1291 12.4572 14.8739L13.3377 12.6713L15.5403 11.7908C15.7955 11.6888 15.9619 11.4407 15.9595 11.1659C15.9571 10.891 15.7862 10.6459 15.5293 10.5484L9.96344 8.43724Z" fill="#1570EF"/>
</svg>
