<svg width="16" height="16" viewBox="0 0 16 16" fill="none" xmlns="http://www.w3.org/2000/svg">
<path fill-rule="evenodd" clip-rule="evenodd" d="M1.66675 11.6666C1.66675 11.2985 1.96522 11 2.33341 11H6.00008C6.36827 11 6.66675 11.2985 6.66675 11.6666C6.66675 12.0348 6.36827 12.3333 6.00008 12.3333H2.33341C1.96522 12.3333 1.66675 12.0348 1.66675 11.6666Z" fill="#7839EE"/>
<path fill-rule="evenodd" clip-rule="evenodd" d="M0.666748 7.99997C0.666748 7.63178 0.965225 7.33331 1.33341 7.33331H4.33341C4.7016 7.33331 5.00008 7.63178 5.00008 7.99997C5.00008 8.36816 4.7016 8.66664 4.33341 8.66664H1.33341C0.965225 8.66664 0.666748 8.36816 0.666748 7.99997Z" fill="#7839EE"/>
<path fill-rule="evenodd" clip-rule="evenodd" d="M2.00008 4.33331C2.00008 3.96512 2.29856 3.66664 2.66675 3.66664H6.00008C6.36827 3.66664 6.66675 3.96512 6.66675 4.33331C6.66675 4.7015 6.36827 4.99997 6.00008 4.99997H2.66675C2.29856 4.99997 2.00008 4.7015 2.00008 4.33331Z" fill="#7839EE"/>
<path fill-rule="evenodd" clip-rule="evenodd" d="M11.5785 1.37998C11.8632 1.49253 12.0347 1.78458 11.9942 2.08808L11.4282 6.33331H13.9637C13.9714 6.33331 13.979 6.33331 13.9867 6.3333C14.1339 6.33327 14.2864 6.33324 14.4124 6.34476C14.5363 6.35609 14.7618 6.38612 14.9633 6.54167C15.1984 6.72308 15.3407 6.99955 15.3517 7.29625C15.3611 7.55067 15.2545 7.7516 15.1917 7.85904C15.1278 7.96825 15.0391 8.09234 14.9536 8.21207C14.9491 8.21833 14.9446 8.22457 14.9402 8.23079L10.5426 14.3875C10.3646 14.6366 10.0398 14.7325 9.75503 14.62C9.47027 14.5074 9.29879 14.2154 9.33926 13.9119L9.90529 9.66664H7.36978C7.36213 9.66664 7.35447 9.66664 7.34679 9.66664C7.19962 9.66668 7.0471 9.66671 6.92111 9.65519C6.79717 9.64386 6.5717 9.61383 6.37015 9.45828C6.13511 9.27687 5.99283 9.0004 5.98183 8.7037C5.9724 8.44928 6.07901 8.24835 6.14183 8.14091C6.20569 8.0317 6.29437 7.9076 6.37993 7.78787C6.3844 7.78162 6.38886 7.77538 6.3933 7.76915L10.7909 1.61248C10.9689 1.36332 11.2937 1.26743 11.5785 1.37998Z" fill="#7839EE"/>
</svg>
