<svg width="18" height="18" viewBox="0 0 18 18" fill="none" xmlns="http://www.w3.org/2000/svg">
<g id="pipeline-fill">
<g id="Vector">
<path d="M3.7501 2.56885C2.6835 2.56885 1.81885 3.4335 1.81885 4.5001C1.81885 5.5667 2.6835 6.43135 3.7501 6.43135H6.0001C7.0667 6.43135 7.93135 5.5667 7.93135 4.5001C7.93135 3.4335 7.0667 2.56885 6.0001 2.56885H3.7501Z" fill="#155AEF"/>
<path d="M11.2501 7.06885C10.1835 7.06885 9.31885 7.9335 9.31885 9.0001C9.31885 10.0667 10.1835 10.9313 11.2501 10.9313H13.5001C14.5667 10.9313 15.4313 10.0667 15.4313 9.0001C15.4313 7.9335 14.5667 7.06885 13.5001 7.06885H11.2501Z" fill="#155AEF"/>
<path d="M1.81885 13.5001C1.81885 12.4335 2.6835 11.5688 3.7501 11.5688H6.0001C7.0667 11.5688 7.93135 12.4335 7.93135 13.5001C7.93135 14.5667 7.0667 15.4313 6.0001 15.4313H3.7501C2.6835 15.4313 1.81885 14.5667 1.81885 13.5001Z" fill="#155AEF"/>
<path d="M9.75011 5.25011H9.00011V3.75011H9.75011C10.9927 3.75011 12.0001 4.75747 12.0001 6.00011H10.5001C10.5001 5.58589 10.1643 5.25011 9.75011 5.25011Z" fill="#155AEF"/>
<path d="M12.0001 12.0001C12.0001 13.2427 10.9927 14.2501 9.75011 14.2501H9.00011V12.7501H9.75011C10.1643 12.7501 10.5001 12.4143 10.5001 12.0001H12.0001Z" fill="#155AEF"/>
</g>
</g>
</svg>
