<svg width="18" height="18" viewBox="0 0 18 18" fill="none" xmlns="http://www.w3.org/2000/svg">
<g id="pipeline-line">
<path id="Vector" d="M3.75 15.75C2.50733 15.75 1.5 14.7426 1.5 13.5C1.5 12.2574 2.50733 11.25 3.75 11.25H6C6.97943 11.25 7.81268 11.8758 8.12175 12.7493L9 12.75C9.825 12.75 10.5 12.075 10.5 11.25L10.4993 11.1217C9.6258 10.8127 9 9.97942 9 9C9 8.02058 9.6258 7.18732 10.4993 6.87825L10.5 6.75C10.5 5.925 9.825 5.25 9 5.25L8.12197 5.24993C7.81313 6.12383 6.97973 6.75 6 6.75L3.75 6.75C2.50733 6.75 1.5 5.74268 1.5 4.5C1.5 3.25733 2.50732 2.25 3.75 2.25L6 2.25C6.97942 2.25 7.81268 2.8758 8.12175 3.74932L9 3.75C10.6575 3.75 12 5.0925 12 6.75L13.5 6.75C14.7426 6.75 15.75 7.75732 15.75 9C15.75 10.2427 14.7426 11.25 13.5 11.25H12C12 12.9069 10.6569 14.25 9 14.25L8.12198 14.2499C7.81313 15.1239 6.97973 15.75 6 15.75H3.75ZM3.75 5.25L6 5.25C6.41423 5.25 6.75 4.91423 6.75 4.5C6.75 4.08578 6.41423 3.75 6 3.75L3.75 3.75C3.33578 3.75 3 4.08578 3 4.5C3 4.91423 3.33578 5.25 3.75 5.25ZM11.25 9.75H13.5C13.9142 9.75 14.25 9.41422 14.25 9C14.25 8.58577 13.9142 8.25 13.5 8.25L11.25 8.25C10.8358 8.25 10.5 8.58577 10.5 9C10.5 9.41422 10.8358 9.75 11.25 9.75ZM3.75 14.25H6C6.41423 14.25 6.75 13.9142 6.75 13.5C6.75 13.0858 6.41423 12.75 6 12.75H3.75C3.33578 12.75 3 13.0858 3 13.5C3 13.9142 3.33578 14.25 3.75 14.25Z" fill="#495464"/>
</g>
</svg>
