<svg width="24" height="24" viewBox="0 0 24 24" fill="none" xmlns="http://www.w3.org/2000/svg">
<path d="M9.01488 2.54553C8.91549 2.45869 8.79321 2.40229 8.66264 2.38306C8.53206 2.36384 8.39872 2.38261 8.27852 2.43712C8.15833 2.49164 8.05636 2.5796 7.98481 2.6905C7.91325 2.8014 7.87513 2.93055 7.875 3.06253V6.50003C6.05164 6.50003 4.30295 7.22436 3.01364 8.51367C1.72433 9.80299 1 11.5517 1 13.375C1 15.1984 1.72433 16.9471 3.01364 18.2364C4.30295 19.5257 6.05164 20.25 7.875 20.25H12C12.3647 20.25 12.7144 20.1052 12.9723 19.8473C13.2301 19.5894 13.375 19.2397 13.375 18.875C13.375 18.5104 13.2301 18.1606 12.9723 17.9028C12.7144 17.6449 12.3647 17.5 12 17.5H7.875C6.78098 17.5 5.73177 17.0654 4.95818 16.2919C4.1846 15.5183 3.75 14.4691 3.75 13.375C3.75 12.281 4.1846 11.2318 4.95818 10.4582C5.73177 9.68463 6.78098 9.25003 7.875 9.25003V12.6875C7.87513 12.8195 7.91325 12.9487 7.98481 13.0596C8.05636 13.1705 8.15833 13.2584 8.27852 13.3129C8.39872 13.3675 8.53206 13.3862 8.66264 13.367C8.79321 13.3478 8.91549 13.2914 9.01488 13.2045L14.5149 8.39203C14.5885 8.32751 14.6475 8.24801 14.6879 8.15885C14.7283 8.06969 14.7492 7.97292 14.7492 7.87503C14.7492 7.77714 14.7283 7.68038 14.6879 7.59122C14.6475 7.50206 14.5885 7.42256 14.5149 7.35803L9.01488 2.54553Z" fill="#212121"/>
<path d="M21.625 17.5H17.5C17.1353 17.5 16.7856 17.6449 16.5277 17.9028C16.2699 18.1606 16.125 18.5104 16.125 18.875C16.125 19.2397 16.2699 19.5894 16.5277 19.8473C16.7856 20.1052 17.1353 20.25 17.5 20.25H21.625C21.9897 20.25 22.3394 20.1052 22.5973 19.8473C22.8551 19.5894 23 19.2397 23 18.875C23 18.5104 22.8551 18.1606 22.5973 17.9028C22.3394 17.6449 21.9897 17.5 21.625 17.5Z" fill="#212121"/>
<path d="M21.625 12H17.5C17.1353 12 16.7856 12.1449 16.5277 12.4028C16.2699 12.6606 16.125 13.0104 16.125 13.375C16.125 13.7397 16.2699 14.0894 16.5277 14.3473C16.7856 14.6052 17.1353 14.75 17.5 14.75H21.625C21.9897 14.75 22.3394 14.6052 22.5973 14.3473C22.8551 14.0894 23 13.7397 23 13.375C23 13.0104 22.8551 12.6606 22.5973 12.4028C22.3394 12.1449 21.9897 12 21.625 12Z" fill="#212121"/>
<path d="M17.5 9.25003H21.625C21.9897 9.25003 22.3394 9.10517 22.5973 8.8473C22.8551 8.58944 23 8.23971 23 7.87503C23 7.51036 22.8551 7.16062 22.5973 6.90276C22.3394 6.6449 21.9897 6.50003 21.625 6.50003H17.5C17.1353 6.50003 16.7856 6.6449 16.5277 6.90276C16.2699 7.16062 16.125 7.51036 16.125 7.87503C16.125 8.23971 16.2699 8.58944 16.5277 8.8473C16.7856 9.10517 17.1353 9.25003 17.5 9.25003Z" fill="#212121"/>
</svg>
