<svg xmlns="http://www.w3.org/2000/svg" width="14" height="12" viewBox="0 0 14 12" fill="none">
<path d="M12.3334 4C12.3334 2.52725 11.1395 1.33333 9.66671 1.33333H4.33337C2.86062 1.33333 1.66671 2.52724 1.66671 4V10.6667H9.66671C11.1395 10.6667 12.3334 9.47274 12.3334 8V4ZM7.66671 6.66667V8H4.33337V6.66667H7.66671ZM9.66671 4V5.33333H4.33337V4H9.66671ZM13.6667 8C13.6667 10.2091 11.8758 12 9.66671 12H0.333374V4C0.333374 1.79086 2.12424 0 4.33337 0H9.66671C11.8758 0 13.6667 1.79086 13.6667 4V8Z" fill="currentColor"/>
</svg>