<svg width="28" height="28" viewBox="0 0 28 28" fill="none" xmlns="http://www.w3.org/2000/svg">
<g clip-path="url(#clip0_20307_29670)">
<path opacity="0.1" d="M9.33332 11.8067V20.4167C9.33204 21.432 9.57619 22.4327 10.045 23.3333H15.8783C16.2912 23.305 16.6807 23.1312 16.9776 22.8428C17.2745 22.5545 17.4596 22.1702 17.5 21.7583V10.5H17.1733H10.64C10.2934 10.5 9.96108 10.6377 9.71603 10.8827C9.47098 11.1278 9.33332 11.4601 9.33332 11.8067Z" fill="black"/>
<path opacity="0.1" d="M16.135 7H12.635C12.8805 7.78672 13.3726 8.47355 14.0386 8.9589C14.7047 9.44425 15.5093 9.70234 16.3333 9.695C16.7301 9.68885 17.1235 9.62197 17.5 9.49667V8.33C17.488 7.97504 17.3392 7.63847 17.0849 7.39061C16.8305 7.14276 16.4902 7.00281 16.135 7Z" fill="black"/>
<path d="M26.6817 10.5H20.8484L19.2267 11.8183V18.34C19.2846 19.4628 19.7715 20.5204 20.5867 21.2946C21.4019 22.0689 22.4833 22.5005 23.6075 22.5005C24.7318 22.5005 25.8131 22.0689 26.6283 21.2946C27.4436 20.5204 27.9304 19.4628 27.9884 18.34V11.8183C27.9899 11.6458 27.9572 11.4746 27.8923 11.3147C27.8273 11.1548 27.7313 11.0094 27.6098 10.8868C27.4883 10.7643 27.3437 10.667 27.1844 10.6006C27.0251 10.5342 26.8543 10.5 26.6817 10.5Z" fill="#5059C9"/>
<path d="M23.9167 9.33333C25.5275 9.33333 26.8333 8.0275 26.8333 6.41667C26.8333 4.80584 25.5275 3.5 23.9167 3.5C22.3058 3.5 21 4.80584 21 6.41667C21 8.0275 22.3058 9.33333 23.9167 9.33333Z" fill="#5059C9"/>
<path d="M10.64 10.5H20.86C21.2065 10.5 21.5389 10.6377 21.7839 10.8827C22.029 11.1278 22.1666 11.4601 22.1666 11.8067V20.4167C22.1666 22.1185 21.4906 23.7506 20.2872 24.9539C19.0839 26.1573 17.4518 26.8333 15.75 26.8333C14.0482 26.8333 12.4161 26.1573 11.2127 24.9539C10.0094 23.7506 9.33331 22.1185 9.33331 20.4167V11.8067C9.33331 11.4601 9.47098 11.1278 9.71603 10.8827C9.96107 10.6377 10.2934 10.5 10.64 10.5Z" fill="#7B83EB"/>
<path d="M16.3333 9.69477C18.4661 9.69477 20.195 7.96584 20.195 5.8331C20.195 3.70036 18.4661 1.97144 16.3333 1.97144C14.2006 1.97144 12.4717 3.70036 12.4717 5.8331C12.4717 7.96584 14.2006 9.69477 16.3333 9.69477Z" fill="#7B83EB"/>
<path opacity="0.5" d="M9.33332 11.8067V20.4167C9.33204 21.432 9.57619 22.4327 10.045 23.3333H15.8783C16.2912 23.305 16.6807 23.1312 16.9776 22.8428C17.2745 22.5545 17.4596 22.1702 17.5 21.7583V10.5H17.1733H10.64C10.2934 10.5 9.96108 10.6377 9.71603 10.8827C9.47098 11.1278 9.33332 11.4601 9.33332 11.8067Z" fill="black"/>
<path opacity="0.5" d="M16.135 7H12.635C12.8805 7.78672 13.3726 8.47355 14.0386 8.9589C14.7047 9.44425 15.5093 9.70234 16.3333 9.695C16.7301 9.68885 17.1235 9.62197 17.5 9.49667V8.33C17.488 7.97504 17.3392 7.63847 17.0849 7.39061C16.8305 7.14276 16.4902 7.00281 16.135 7Z" fill="black"/>
<path d="M14.9683 5.83325H1.365C0.611131 5.83325 0 6.44438 0 7.19825V20.8016C0 21.5555 0.611131 22.1666 1.365 22.1666H14.9683C15.7222 22.1666 16.3333 21.5555 16.3333 20.8016V7.19825C16.3333 6.44438 15.7222 5.83325 14.9683 5.83325Z" fill="#4B53BC"/>
<path d="M11.8767 11.1766H9.08833V18.6666H7.25666V11.1766H4.45667V9.33325H11.8767V11.1766Z" fill="white"/>
</g>
<defs>
<clipPath id="clip0_20307_29670">
<rect width="28" height="28" fill="white"/>
</clipPath>
</defs>
</svg>
