<svg width="12" height="12" viewBox="0 0 12 12" fill="none" xmlns="http://www.w3.org/2000/svg">
<g id="route" clip-path="url(#clip0_664_8452)">
<path id="Icon" d="M5.75 2.5H5.9672C7.49082 2.5 8.25263 2.5 8.54182 2.77364C8.79179 3.01018 8.90257 3.35864 8.83508 3.69611C8.75701 4.08651 8.13505 4.52643 6.89114 5.40627L4.85886 6.84373C3.61495 7.72357 2.99299 8.16349 2.91492 8.5539C2.84743 8.89136 2.95821 9.23982 3.20818 9.47636C3.49737 9.75 4.25918 9.75 5.7828 9.75H6.25M4 2.5C4 3.32843 3.32843 4 2.5 4C1.67157 4 1 3.32843 1 2.5C1 1.67157 1.67157 1 2.5 1C3.32843 1 4 1.67157 4 2.5ZM11 9.5C11 10.3284 10.3284 11 9.5 11C8.67157 11 8 10.3284 8 9.5C8 8.67157 8.67157 8 9.5 8C10.3284 8 11 8.67157 11 9.5Z" stroke="#F79009" stroke-width="1.25" stroke-linecap="round" stroke-linejoin="round"/>
</g>
<defs>
<clipPath id="clip0_664_8452">
<rect width="12" height="12" fill="white"/>
</clipPath>
</defs>
</svg>
