<svg width="25" height="24" viewBox="0 0 25 24" fill="none" xmlns="http://www.w3.org/2000/svg">
<g id="route">
<path id="Icon" d="M12.167 5H12.6014C15.6486 5 17.1723 5 17.7506 5.54729C18.2506 6.02037 18.4721 6.71728 18.3372 7.39221C18.181 8.17302 16.9371 9.05285 14.4493 10.8125L10.3847 13.6875C7.8969 15.4471 6.65298 16.327 6.49683 17.1078C6.36185 17.7827 6.58341 18.4796 7.08335 18.9527C7.66173 19.5 9.18535 19.5 12.2326 19.5H13.167M8.66699 5C8.66699 6.65685 7.32385 8 5.66699 8C4.01014 8 2.66699 6.65685 2.66699 5C2.66699 3.34315 4.01014 2 5.66699 2C7.32385 2 8.66699 3.34315 8.66699 5ZM22.667 19C22.667 20.6569 21.3238 22 19.667 22C18.0101 22 16.667 20.6569 16.667 19C16.667 17.3431 18.0101 16 19.667 16C21.3238 16 22.667 17.3431 22.667 19Z" stroke="#344054" stroke-width="1.5" stroke-linecap="round" stroke-linejoin="round"/>
</g>
</svg>
