<svg width="14" height="14" viewBox="0 0 14 14" fill="none" xmlns="http://www.w3.org/2000/svg">
<g id="Icon">
<path id="Vector" fill-rule="evenodd" clip-rule="evenodd" d="M11.3891 2.41987C11.6635 2.58871 11.749 2.94802 11.5802 3.22239L10.3324 5.25H11.0833C11.4055 5.25 11.6667 5.51117 11.6667 5.83334V11.6667C11.6667 12.311 11.1444 12.8333 10.5 12.8333H3.50001C2.85568 12.8333 2.33334 12.311 2.33334 11.6667V5.83334C2.33334 5.51117 2.59451 5.25 2.91668 5.25H8.96252L10.5865 2.61094C10.7554 2.33657 11.1147 2.25102 11.3891 2.41987ZM5.83334 7.58334C5.51118 7.58334 5.25001 7.84449 5.25001 8.16667C5.25001 8.48884 5.51118 8.75 5.83334 8.75H8.16668C8.48885 8.75 8.75001 8.48884 8.75001 8.16667C8.75001 7.84449 8.48885 7.58334 8.16668 7.58334H5.83334Z" fill="#676F83"/>
<g id="Vector_2" opacity="0.5">
<path d="M6.91257 1.79347C6.96898 1.76525 7.01477 1.71948 7.043 1.66303L7.32195 1.10508C7.42946 0.890105 7.73623 0.890105 7.84374 1.10508L8.12269 1.66303C8.15093 1.71948 8.19672 1.76525 8.25313 1.79347L8.81108 2.07245C9.0261 2.17994 9.0261 2.48672 8.81108 2.5942L8.25313 2.87318C8.19672 2.9014 8.15093 2.94717 8.12269 3.00362L7.84374 3.56158C7.73623 3.77655 7.42946 3.77655 7.32195 3.56158L7.043 3.00362C7.01477 2.94717 6.96898 2.9014 6.91257 2.87318L6.35461 2.5942C6.13965 2.48672 6.13965 2.17994 6.35461 2.07245L6.91257 1.79347Z" fill="#676F83"/>
<path d="M3.80145 2.7657C3.85789 2.73748 3.90366 2.69171 3.93189 2.63526L4.11364 2.27174C4.22113 2.05677 4.5279 2.05677 4.63539 2.27174L4.81715 2.63526C4.84537 2.6917 4.89114 2.73748 4.94759 2.7657L5.3111 2.94745C5.52607 3.05494 5.52607 3.36172 5.3111 3.4692L4.94759 3.65096C4.89114 3.67919 4.84537 3.72495 4.81715 3.7814L4.63539 4.14491C4.5279 4.35988 4.22113 4.35988 4.11364 4.14491L3.93189 3.7814C3.90366 3.72495 3.85789 3.67919 3.80145 3.65096L3.43793 3.4692C3.22296 3.36172 3.22296 3.05494 3.43793 2.94745L3.80145 2.7657Z" fill="#676F83"/>
</g>
</g>
</svg>
