<svg xmlns="http://www.w3.org/2000/svg" width="16" height="16" viewBox="0 0 16 16" fill="none">
  <g clip-path="url(#clip0_16624_62807)">
    <path d="M7.11111 0.888889C7.11111 0.888889 7.11111 0 8 0C8.88889 0 8.88889 0.888889 8.88889 0.888889V1.77778C8.88889 1.77778 8.88889 2.66667 8 2.66667C7.11111 2.66667 7.11111 1.77778 7.11111 1.77778V0.888889ZM15.1111 7.11111C15.1111 7.11111 16 7.11111 16 8C16 8.88889 15.1111 8.88889 15.1111 8.88889H14.2222C14.2222 8.88889 13.3333 8.88889 13.3333 8C13.3333 7.11111 14.2222 7.11111 14.2222 7.11111H15.1111ZM1.77778 7.11111C1.77778 7.11111 2.66667 7.11111 2.66667 8C2.66667 8.88889 1.77778 8.88889 1.77778 8.88889H0.888889C0.888889 8.88889 0 8.88889 0 8C0 7.11111 0.888889 7.11111 0.888889 7.11111H1.77778ZM4.05378 3.24133C4.05378 3.24133 4.68222 3.86978 4.05378 4.49822C3.42533 5.12667 2.79689 4.49822 2.79689 4.49822L2.168 3.87022C2.168 3.87022 1.53956 3.24178 2.168 2.61289C2.79689 1.98444 3.42533 2.61289 3.42533 2.61289L4.05378 3.24133ZM13.2036 4.49822C13.2036 4.49822 12.5751 5.12667 11.9467 4.49822C11.3182 3.86978 11.9467 3.24133 11.9467 3.24133L12.5751 2.61289C12.5751 2.61289 13.2036 1.98444 13.832 2.61289C14.4604 3.24133 13.832 3.86978 13.832 3.86978L13.2036 4.49822ZM3.87022 13.8316C3.87022 13.8316 3.24178 14.46 2.61333 13.8316C1.98489 13.2031 2.61333 12.5747 2.61333 12.5747L3.24178 11.9462C3.24178 11.9462 3.87022 11.3178 4.49867 11.9462C5.12711 12.5747 4.49867 13.2031 4.49867 13.2031L3.87022 13.8316Z" fill="#FFCF27"/>
    <path d="M8.00011 12.4446C10.4547 12.4446 12.4446 10.4547 12.4446 8.00011C12.4446 5.54551 10.4547 3.55566 8.00011 3.55566C5.54551 3.55566 3.55566 5.54551 3.55566 8.00011C3.55566 10.4547 5.54551 12.4446 8.00011 12.4446Z" fill="#FFCB13"/>
    <path d="M13.2343 10.3111C12.949 10.3111 12.6743 10.3556 12.4152 10.4378C12.1094 9.53647 11.2774 8.88892 10.2966 8.88892C9.24411 8.88892 8.36322 9.63469 8.11922 10.6387C7.85878 10.436 7.53744 10.3116 7.18544 10.3116C6.32633 10.3116 5.62989 11.0276 5.62989 11.9116C5.62989 12.1262 5.67255 12.3298 5.74722 12.5174C5.59878 12.4742 5.44544 12.4445 5.28411 12.4445C4.32944 12.4445 3.55566 13.2405 3.55566 14.2222C3.55566 15.204 4.32944 16 5.28411 16H13.2348C14.7619 16 16.0001 14.7271 16.0001 13.1556C16.0001 11.5845 14.7619 10.3111 13.2343 10.3111Z" fill="#E9F6FF"/>
  </g>
  <defs>
    <clipPath id="clip0_16624_62807">
      <rect width="16" height="16" fill="white"/>
    </clipPath>
  </defs>
</svg>