<svg width="145" height="40" viewBox="0 0 145 40" fill="none" xmlns="http://www.w3.org/2000/svg">
<path fill-rule="evenodd" clip-rule="evenodd" d="M25.132 24.3947C25.497 25.7527 25.8984 27.1413 26.3334 28.5834C26.7302 29.8992 25.5459 30.4167 25.0752 29.1758C24.571 27.8466 24.0885 26.523 23.6347 25.1729C21.065 26.4654 18.5025 27.5424 15.5961 28.7541C16.7581 33.0256 17.8309 36.5984 19.4952 39.9935C19.4953 39.9936 19.4953 39.9937 19.4954 39.9938C19.6631 39.9979 19.8313 40 20 40C31.0457 40 40 31.0457 40 20C40 16.0335 38.8453 12.3366 36.8537 9.22729C31.6585 9.69534 27.0513 10.4562 22.8185 11.406C22.8882 12.252 22.9677 13.0739 23.0555 13.855C23.3824 16.7604 23.9112 19.5281 24.6137 22.3836C27.0581 21.2848 29.084 20.3225 30.6816 19.522C32.2154 18.7535 33.6943 18.7062 31.2018 20.6594C29.0388 22.1602 27.0644 23.3566 25.132 24.3947ZM36.1559 8.20846C33.0001 3.89184 28.1561 0.887462 22.5955 0.166882C22.4257 2.86234 22.4785 6.26344 22.681 9.50447C26.7473 8.88859 31.1721 8.46032 36.1559 8.20846ZM19.9369 9.73661e-05C19.7594 2.92694 19.8384 6.65663 20.19 9.91293C17.3748 10.4109 14.7225 11.0064 12.1592 11.7038C12.0486 10.4257 11.9927 9.25764 11.9927 8.24178C11.9927 7.5054 11.3957 6.90844 10.6593 6.90844C9.92296 6.90844 9.32601 7.5054 9.32601 8.24178C9.32601 9.47868 9.42873 10.898 9.61402 12.438C8.33567 12.8278 7.07397 13.2443 5.81918 13.688C5.12493 13.9336 4.76118 14.6954 5.0067 15.3896C5.25223 16.0839 6.01406 16.4476 6.7083 16.2021C7.7931 15.8185 8.88482 15.4388 9.98927 15.0659C10.5222 18.3344 11.3344 21.9428 12.2703 25.4156C12.4336 26.0218 12.6062 26.6262 12.7863 27.2263C9.34168 28.4135 5.82612 29.3782 2.61128 29.8879C0.949407 26.9716 0 23.5967 0 20C0 8.97534 8.92023 0.0341108 19.9369 9.73661e-05ZM4.19152 32.2527C7.45069 36.4516 12.3458 39.3173 17.9204 39.8932C16.5916 37.455 14.9338 33.717 13.5405 29.5901C10.4404 30.7762 7.25883 31.6027 4.19152 32.2527ZM22.9735 23.1135C22.1479 20.41 21.4462 17.5441 20.9225 14.277C20.746 13.5841 20.5918 12.8035 20.4593 11.9636C17.6508 12.6606 14.9992 13.4372 12.4356 14.2598C12.8479 17.4766 13.5448 21.1334 14.5118 24.7218C14.662 25.2792 14.8081 25.8248 14.9514 26.3594L14.9516 26.3603L14.9524 26.3634L14.9526 26.3639L14.973 26.4401C16.1833 25.9872 17.3746 25.5123 18.53 25.0259C20.1235 24.3552 21.6051 23.7165 22.9735 23.1135Z" fill="#141519"/>
<path d="M57.0058 34.9872C59.7347 34.9872 61.9133 34.4549 63.5416 33.3903C65.1699 32.3257 65.984 30.9471 65.984 29.2547C65.984 26.5249 63.9464 25.1601 59.8712 25.1601H57.3605C56.5236 25.1601 55.9233 25.0782 55.5594 24.9144C55.1956 24.7506 55.0136 24.4776 55.0136 24.0955C55.0136 23.7133 55.1319 23.3948 55.3684 23.14C55.4593 23.0309 55.5776 22.9945 55.7231 23.0309C56.3053 23.1946 56.8602 23.2765 57.3878 23.2765C59.2617 23.2765 60.7854 22.8261 61.9588 21.9253C63.1323 21.0245 63.719 19.6915 63.719 17.9262C63.719 17.2711 63.6007 16.6887 63.3642 16.1792C63.346 16.1428 63.3506 16.1018 63.3779 16.0563C63.4051 16.0108 63.4461 15.9881 63.5007 15.9881H64.1283C64.5831 15.9881 64.9652 15.8334 65.2745 15.524C65.5838 15.2147 65.7384 14.8325 65.7384 14.3775V13.9954C65.7384 13.5586 65.5838 13.181 65.2745 12.8625C64.9652 12.5441 64.5831 12.3848 64.1283 12.3848H60.1168C59.9894 12.3848 59.853 12.3666 59.7074 12.3302C58.9979 12.1118 58.2247 12.0027 57.3878 12.0027C56.2053 12.0027 55.1228 12.2074 54.1404 12.6168C53.1579 13.0263 52.3438 13.6814 51.6979 14.5823C51.0521 15.4831 50.7292 16.5522 50.7292 17.7897C50.7292 18.6451 50.9293 19.4276 51.3295 20.1373C51.7298 20.8471 52.2301 21.4203 52.8305 21.8571C52.8668 21.8753 52.885 21.9026 52.885 21.939C52.885 21.9754 52.8668 22.0118 52.8305 22.0481C52.3211 22.4121 51.9117 22.8534 51.6024 23.3721C51.2932 23.8907 51.1385 24.423 51.1385 24.969C51.1385 26.1337 51.6024 27.0345 52.5303 27.6714C52.5667 27.6896 52.5849 27.7215 52.5849 27.767C52.5849 27.8125 52.5667 27.8534 52.5303 27.8898C51.8026 28.2538 51.2522 28.6996 50.8793 29.2274C50.5063 29.7552 50.3198 30.3375 50.3198 30.9744C50.3198 31.8844 50.6291 32.6487 51.2477 33.2674C51.8662 33.8862 52.6622 34.3275 53.6355 34.5914C54.6088 34.8552 55.7322 34.9872 57.0058 34.9872ZM57.3878 20.2738C56.7874 20.2738 56.3008 20.06 55.9278 19.6323C55.5549 19.2047 55.3684 18.5905 55.3684 17.7897C55.3684 17.0072 55.5549 16.4021 55.9278 15.9744C56.3008 15.5468 56.7874 15.333 57.3878 15.333C57.9882 15.333 58.4748 15.5422 58.8478 15.9608C59.2208 16.3794 59.4072 16.989 59.4072 17.7897C59.4072 18.5905 59.2208 19.2047 58.8478 19.6323C58.4748 20.06 57.9882 20.2738 57.3878 20.2738ZM57.7699 31.8753C56.7329 31.8753 55.9096 31.7342 55.3002 31.4522C54.6907 31.1701 54.386 30.747 54.386 30.1828C54.386 29.7279 54.5952 29.3002 55.0136 28.8998C55.0682 28.8452 55.1501 28.8179 55.2592 28.8179H55.3411C55.7959 28.9089 56.4873 28.9544 57.4151 28.9544H58.916C59.7165 28.9544 60.3032 29.0363 60.6762 29.2001C61.0492 29.3639 61.2356 29.6642 61.2356 30.1009C61.2356 30.6105 60.9127 31.0336 60.2669 31.3703C59.621 31.7069 58.7887 31.8753 57.7699 31.8753ZM70.978 10.0918C71.7967 10.0918 72.4698 9.85524 72.9974 9.38209C73.525 8.90893 73.7888 8.29928 73.7888 7.55315C73.7888 6.80702 73.525 6.19282 72.9974 5.71057C72.4698 5.22831 71.7967 4.98718 70.978 4.98718C70.1411 4.98718 69.4543 5.22831 68.9176 5.71057C68.3809 6.19282 68.1126 6.80702 68.1126 7.55315C68.1126 8.29928 68.3809 8.90893 68.9176 9.38209C69.4543 9.85524 70.1411 10.0918 70.978 10.0918ZM71.824 28.2174C72.2606 28.2174 72.6381 28.0582 72.9565 27.7397C73.2749 27.4212 73.434 27.0436 73.434 26.6068V13.9135C73.434 13.4767 73.2749 13.0991 72.9565 12.7806C72.6381 12.4622 72.2606 12.3029 71.824 12.3029H70.1047C69.6499 12.3029 69.2678 12.4622 68.9586 12.7806C68.6493 13.0991 68.4946 13.4767 68.4946 13.9135V26.6068C68.4946 27.0436 68.6493 27.4212 68.9586 27.7397C69.2678 28.0582 69.6499 28.2174 70.1047 28.2174H71.824ZM83.6949 28.5996C84.3862 28.5996 85.0685 28.5359 85.7416 28.4085C86.1782 28.3357 86.5148 28.0991 86.7513 27.6987C86.9151 27.4258 86.9969 27.1437 86.9969 26.8525C86.9969 26.7251 86.9878 26.5886 86.9696 26.4431L86.8605 26.0063C86.7695 25.6241 86.5421 25.3193 86.1783 25.0918C85.8144 24.8643 85.405 24.7415 84.9502 24.7233C83.6949 24.6687 83.0672 23.8498 83.0672 22.2665V16.3976C83.0672 16.2702 83.1309 16.2065 83.2583 16.2065H85.1958C85.6325 16.2065 86.01 16.0472 86.3283 15.7288C86.6467 15.4103 86.8059 15.0327 86.8059 14.5959V13.9135C86.8059 13.4767 86.6467 13.0991 86.3283 12.7806C86.01 12.4622 85.6325 12.3029 85.1958 12.3029H83.2583C83.1309 12.3029 83.0672 12.2392 83.0672 12.1118V9.73696C83.0672 9.282 82.9081 8.89983 82.5897 8.59046C82.2713 8.28109 81.8938 8.1264 81.4572 8.1264H80.5293C80.0745 8.1264 79.6742 8.27654 79.3286 8.57681C78.9829 8.87708 78.7737 9.2547 78.7009 9.70966L78.4007 12.1118C78.3825 12.2392 78.3007 12.312 78.1551 12.3302L77.5275 12.3848C77.0726 12.4212 76.6906 12.6077 76.3813 12.9444C76.072 13.2811 75.9174 13.6769 75.9174 14.1319V14.5959C75.9174 15.0327 76.0766 15.4103 76.395 15.7288C76.7133 16.0472 77.0908 16.2065 77.5275 16.2065H77.8822C78.0096 16.2065 78.0733 16.2702 78.0733 16.3976V22.3211C78.0733 24.3047 78.5281 25.8471 79.4377 26.9481C80.3474 28.0491 81.7664 28.5996 83.6949 28.5996ZM97.0395 28.5996C98.4949 28.5996 99.9322 28.2629 101.351 27.5895C101.751 27.4076 102.006 27.0891 102.115 26.6341C102.17 26.4885 102.197 26.343 102.197 26.1974C102.197 25.9244 102.115 25.6514 101.952 25.3784L101.87 25.2147C101.651 24.8325 101.333 24.5777 100.915 24.4503C100.714 24.3957 100.514 24.3684 100.314 24.3684C100.078 24.3684 99.8503 24.4048 99.632 24.4776C99.0134 24.696 98.3767 24.8052 97.7217 24.8052C95.5749 24.8052 94.2741 23.8498 93.8193 21.939C93.8011 21.8844 93.8102 21.8343 93.8466 21.7888C93.883 21.7433 93.9285 21.7206 93.983 21.7206H101.488C101.961 21.7206 102.379 21.5704 102.743 21.2702C103.107 20.9699 103.298 20.5923 103.316 20.1373V19.6187C103.316 17.3257 102.734 15.4694 101.57 14.05C100.405 12.6305 98.7132 11.9208 96.4937 11.9208C95.5295 11.9208 94.5971 12.1164 93.6965 12.5077C92.796 12.8989 91.9955 13.4449 91.295 14.1455C90.5946 14.8461 90.0306 15.7288 89.6031 16.7934C89.1755 17.858 88.9618 19.0181 88.9618 20.2738C88.9618 22.8398 89.7213 24.8689 91.2405 26.3612C92.7596 27.8534 94.6926 28.5996 97.0395 28.5996ZM98.8952 18.4995H93.9012C93.7738 18.4995 93.7102 18.454 93.7102 18.363C93.7102 17.6168 94.0649 16.9526 94.7744 16.3703C95.2839 15.9335 95.8933 15.7151 96.6028 15.7151C97.4215 15.7151 98.0355 15.9471 98.4449 16.4112C98.8542 16.8753 99.0771 17.4986 99.1135 18.2811V18.3084C99.1135 18.4358 99.0407 18.4995 98.8952 18.4995ZM113.686 28.5996C115.142 28.5996 116.579 28.2629 117.998 27.5895C118.398 27.4076 118.653 27.0891 118.762 26.6341C118.817 26.4885 118.844 26.343 118.844 26.1974C118.844 25.9244 118.762 25.6514 118.598 25.3784L118.516 25.2147C118.298 24.8325 117.98 24.5777 117.561 24.4503C117.361 24.3957 117.161 24.3684 116.961 24.3684C116.724 24.3684 116.497 24.4048 116.279 24.4776C115.66 24.696 115.023 24.8052 114.368 24.8052C112.222 24.8052 110.921 23.8498 110.466 21.939C110.448 21.8844 110.457 21.8343 110.493 21.7888C110.53 21.7433 110.575 21.7206 110.63 21.7206H118.134C118.607 21.7206 119.026 21.5704 119.39 21.2702C119.753 20.9699 119.944 20.5923 119.963 20.1373V19.6187C119.963 17.3257 119.38 15.4694 118.216 14.05C117.052 12.6305 115.36 11.9208 113.14 11.9208C112.176 11.9208 111.244 12.1164 110.343 12.5077C109.443 12.8989 108.642 13.4449 107.942 14.1455C107.241 14.8461 106.677 15.7288 106.25 16.7934C105.822 17.858 105.608 19.0181 105.608 20.2738C105.608 22.8398 106.368 24.8689 107.887 26.3612C109.406 27.8534 111.339 28.5996 113.686 28.5996ZM115.542 18.4995H110.548C110.42 18.4995 110.357 18.454 110.357 18.363C110.357 17.6168 110.712 16.9526 111.421 16.3703C111.93 15.9335 112.54 15.7151 113.249 15.7151C114.068 15.7151 114.682 15.9471 115.091 16.4112C115.501 16.8753 115.724 17.4986 115.76 18.2811V18.3084C115.76 18.4358 115.687 18.4995 115.542 18.4995Z" fill="black"/>
<path d="M126.817 28.3723H123.96L131.579 11.7057L139.377 28.3723H136.579L131.579 17.8366L126.817 28.3723Z" fill="black"/>
<path d="M142.141 12.039H144.998V28.3724H142.141V12.039Z" fill="black"/>
</svg>
