<svg width="12" height="12" viewBox="0 0 12 12" fill="none" xmlns="http://www.w3.org/2000/svg">
<g id="Icon" clip-path="url(#clip0_467_1645)">
<path id="Icon_2" d="M1.5 3.9C1.5 3.05992 1.5 2.63988 1.66349 2.31901C1.8073 2.03677 2.03677 1.8073 2.31901 1.66349C2.63988 1.5 3.05992 1.5 3.9 1.5H8.1C8.94008 1.5 9.36012 1.5 9.68099 1.66349C9.96323 1.8073 10.1927 2.03677 10.3365 2.31901C10.5 2.63988 10.5 3.05992 10.5 3.9V8.1C10.5 8.94008 10.5 9.36012 10.3365 9.68099C10.1927 9.96323 9.96323 10.1927 9.68099 10.3365C9.36012 10.5 8.94008 10.5 8.1 10.5H3.9C3.05992 10.5 2.63988 10.5 2.31901 10.3365C2.03677 10.1927 1.8073 9.96323 1.66349 9.68099C1.5 9.36012 1.5 8.94008 1.5 8.1V3.9Z" stroke="#667085" stroke-width="1.25" stroke-linecap="round" stroke-linejoin="round"/>
</g>
<defs>
<clipPath id="clip0_467_1645">
<rect width="12" height="12" fill="white"/>
</clipPath>
</defs>
</svg>
