<svg width="14" height="14" viewBox="0 0 14 14" fill="none" xmlns="http://www.w3.org/2000/svg">
<g id="icons/home">
<path id="Icon (Stroke)" fill-rule="evenodd" clip-rule="evenodd" d="M6.99999 2.44562C6.97241 2.46663 6.94086 2.49116 6.90151 2.52177L3.43971 5.21428C3.17896 5.41708 3.15115 5.44593 3.13396 5.46918C3.10759 5.50483 3.08794 5.545 3.07599 5.58771C3.0682 5.61555 3.0625 5.65522 3.0625 5.98554V9.67837C3.0625 9.97506 3.06301 10.1581 3.07422 10.2954C3.08463 10.4228 3.10101 10.4541 3.10219 10.4563C3.13714 10.5249 3.19296 10.5808 3.26156 10.6157C3.2638 10.6169 3.29514 10.6333 3.42254 10.6437C3.55984 10.6549 3.74289 10.6555 4.03958 10.6555H4.8125V7.53462C4.8125 7.52831 4.81249 7.52199 4.81249 7.51565C4.81247 7.38933 4.81245 7.25834 4.82163 7.14594C4.8319 7.02025 4.85685 6.86124 4.93966 6.69872C5.05151 6.4792 5.22998 6.30072 5.44951 6.18886C5.61203 6.10605 5.77104 6.08111 5.89673 6.07084C6.00913 6.06166 6.14012 6.06168 6.26644 6.0617C6.27278 6.0617 6.2791 6.06171 6.28541 6.06171H7.71458C7.72089 6.06171 7.72721 6.0617 7.73355 6.0617C7.85987 6.06168 7.99086 6.06166 8.10326 6.07084C8.22896 6.08111 8.38796 6.10605 8.55049 6.18886C8.77001 6.30072 8.94849 6.4792 9.06034 6.69872C9.14315 6.86124 9.16809 7.02025 9.17836 7.14594C9.18755 7.25834 9.18752 7.38933 9.1875 7.51565C9.1875 7.52199 9.1875 7.52831 9.1875 7.53462V10.6555H9.96041C10.2571 10.6555 10.4402 10.6549 10.5775 10.6437C10.7049 10.6333 10.7361 10.6169 10.7383 10.6158C10.8069 10.5808 10.8628 10.525 10.8978 10.4564C10.8989 10.4541 10.9154 10.4228 10.9258 10.2954C10.937 10.1581 10.9375 9.97506 10.9375 9.67837V5.98554C10.9375 5.65522 10.9318 5.61555 10.924 5.58771C10.912 5.545 10.8924 5.50483 10.866 5.46918C10.8488 5.44593 10.821 5.41708 10.5603 5.21428L7.09848 2.52177C7.05913 2.49116 7.02757 2.46663 6.99999 2.44562ZM9.98433 11.968C10.2497 11.968 10.4871 11.968 10.6843 11.9519C10.8951 11.9346 11.1172 11.8958 11.3343 11.7852C11.6499 11.6244 11.9064 11.3678 12.0672 11.0523C12.1778 10.8351 12.2167 10.6131 12.2339 10.4023C12.25 10.205 12.25 9.96764 12.25 9.70225L12.25 5.98554C12.25 5.9671 12.25 5.94866 12.2501 5.93025C12.2504 5.69307 12.2508 5.45861 12.1879 5.23392C12.1329 5.03748 12.0426 4.85272 11.9213 4.68871C11.7825 4.50112 11.5972 4.35747 11.4098 4.21216C11.3952 4.20087 11.3806 4.18958 11.3661 4.17826L7.90428 1.48574C7.89214 1.4763 7.87933 1.46621 7.86587 1.4556C7.73357 1.35131 7.53852 1.19755 7.3049 1.1343C7.10523 1.08023 6.89477 1.08023 6.69509 1.1343C6.46148 1.19755 6.26642 1.35131 6.13412 1.4556C6.12066 1.46621 6.10785 1.4763 6.09571 1.48574L2.63391 4.17826C2.61935 4.18958 2.60478 4.20088 2.59022 4.21216C2.40278 4.35747 2.21747 4.50112 2.07873 4.68871C1.95742 4.85271 1.86706 5.03748 1.81207 5.23392C1.74918 5.4586 1.74956 5.69307 1.74994 5.93024C1.74997 5.94866 1.75 5.96709 1.75 5.98554L1.75 9.70227C1.74998 9.96765 1.74997 10.205 1.76608 10.4023C1.78331 10.6131 1.82216 10.8351 1.93279 11.0523C2.09357 11.3678 2.35014 11.6244 2.6657 11.7852C2.88282 11.8958 3.10485 11.9346 3.31566 11.9519C3.5129 11.968 3.75029 11.968 4.01566 11.968H9.98433ZM7.875 10.6555V7.53462C7.875 7.47093 7.87498 7.41945 7.87447 7.37473C7.82975 7.37422 7.77828 7.37421 7.71458 7.37421H6.28541C6.22172 7.37421 6.17024 7.37422 6.12553 7.37473C6.12501 7.41945 6.125 7.47093 6.125 7.53462V10.6555H7.875Z" fill="white"/>
</g>
</svg>
