<svg width="16" height="16" viewBox="0 0 16 16" fill="none" xmlns="http://www.w3.org/2000/svg">
<path d="M3.66634 2.66675C3.66634 2.29856 3.36787 2.00008 2.99967 2.00008C2.63149 2.00008 2.33301 2.29855 2.33301 2.66675L3.66634 2.66675ZM2.99967 5.33341H2.33301C2.33301 5.51023 2.40325 5.6798 2.52827 5.80482C2.65329 5.92984 2.82286 6.00008 2.99967 6.00008V5.33341ZM5.66641 6.00008C6.03459 6.00008 6.33307 5.7016 6.33307 5.33341C6.33307 4.96523 6.03459 4.66675 5.66641 4.66675L5.66641 6.00008ZM2.41183 5.01659C2.23816 5.34125 2.36056 5.74523 2.68522 5.91889C3.00988 6.09256 3.41385 5.97016 3.58752 5.6455L2.41183 5.01659ZM3.03395 8.58915C2.99109 8.22348 2.6599 7.96175 2.29421 8.00461C1.92853 8.04748 1.66682 8.37868 1.70967 8.74435L3.03395 8.58915ZM12.0439 5.05931C12.2607 5.3569 12.6777 5.42238 12.9753 5.20557C13.2729 4.98876 13.3383 4.57176 13.1215 4.27417L12.0439 5.05931ZM5.02145 13.5907C5.34627 13.7641 5.75013 13.6413 5.92349 13.3165C6.09685 12.9917 5.97407 12.5878 5.64925 12.4145L5.02145 13.5907ZM2.33301 2.66675L2.33301 5.33341H3.66634L3.66634 2.66675L2.33301 2.66675ZM2.99967 6.00008L5.66641 6.00008L5.66641 4.66675H2.99967L2.99967 6.00008ZM3.58752 5.6455C4.43045 4.06972 6.09066 3.00008 7.99968 3.00008V1.66675C5.57951 1.66675 3.47747 3.02445 2.41183 5.01659L3.58752 5.6455ZM7.99968 3.00008C9.66128 3.00008 11.1336 3.80991 12.0439 5.05931L13.1215 4.27417C11.9711 2.69513 10.1055 1.66675 7.99968 1.66675V3.00008ZM5.64925 12.4145C4.23557 11.6599 3.22828 10.2474 3.03395 8.58915L1.70967 8.74435C1.95639 10.8495 3.23403 12.6367 5.02145 13.5907L5.64925 12.4145Z" fill="white"/>
<path fill-rule="evenodd" clip-rule="evenodd" d="M13.1946 8.13826C12.9027 7.84637 12.4294 7.84638 12.1375 8.13829L9.11842 11.1574C9.01642 11.2594 8.95025 11.3917 8.92985 11.5345C8.92985 11.5345 8.92985 11.5345 8.92985 11.5345L8.78508 12.5479L9.79846 12.4031C9.94127 12.3827 10.0736 12.3165 10.1756 12.2145L13.1947 9.19548C13.4866 8.90359 13.4866 8.43027 13.1946 8.13826C13.1947 8.13827 13.1946 8.13825 13.1946 8.13826ZM11.1947 7.19548C12.0073 6.38286 13.3249 6.38286 14.1375 7.19548C14.95 8.00814 14.9501 9.32565 14.1375 10.1383L11.1184 13.1574C10.8124 13.4633 10.4154 13.6618 9.98703 13.723L8.09369 13.9935C7.88596 14.0232 7.67639 13.9533 7.52801 13.805C7.37963 13.6566 7.30977 13.447 7.33945 13.2393L7.60991 11.3459C7.67111 10.9175 7.86961 10.5205 8.17561 10.2145L11.1947 7.19548Z" fill="white"/>
<path fill-rule="evenodd" clip-rule="evenodd" d="M12.528 10.8048L10.528 8.80482L11.4708 7.86201L13.4708 9.86201L12.528 10.8048Z" fill="white"/>
</svg>
