<svg width="16" height="16" viewBox="0 0 16 16" fill="none" xmlns="http://www.w3.org/2000/svg">
<path d="M5.33317 3.33333H7.33317V12.6667H5.33317V14H10.6665V12.6667H8.6665V3.33333H10.6665V2H5.33317V3.33333ZM1.33317 4.66667C0.964984 4.66667 0.666504 4.96515 0.666504 5.33333V10.6667C0.666504 11.0349 0.964984 11.3333 1.33317 11.3333H5.33317V10H1.99984V6H5.33317V4.66667H1.33317ZM10.6665 6H13.9998V10H10.6665V11.3333H14.6665C15.0347 11.3333 15.3332 11.0349 15.3332 10.6667V5.33333C15.3332 4.96515 15.0347 4.66667 14.6665 4.66667H10.6665V6Z" fill="#354052"/>
</svg>
