<svg width="16" height="16" viewBox="0 0 16 16" fill="none" xmlns="http://www.w3.org/2000/svg">
<g id="filter">
<path id="Vector" fill-rule="evenodd" clip-rule="evenodd" d="M2 4C2 2.89543 2.89543 2 4 2L12 2C13.1046 2 14 2.89544 14 4V4.78105C14 5.31148 13.7893 5.82019 13.4142 6.19528L10.1953 9.4142C10.0702 9.53925 10 9.70881 10 9.8856V12.8713C10 13.427 9.65528 13.9246 9.13482 14.1198C9.13479 14.1198 9.13476 14.1198 9.13473 14.1198L7.80153 14.6197C6.92984 14.9467 6 14.3022 6 13.3713L6 9.8856C6 9.70883 5.92978 9.53926 5.80474 9.4142C5.80473 9.4142 5.80473 9.4142 5.80472 9.41419L2.58579 6.19526L3.05004 5.73102L2.58579 6.19526C2.21071 5.82019 2 5.31148 2 4.78105V4ZM4 3.33333C3.63181 3.33333 3.33333 3.63181 3.33333 4L3.33333 4.78105C3.33333 4.95786 3.40357 5.12743 3.5286 5.25246L6.74754 8.47139L6.74756 8.47141C7.12262 8.84649 7.33333 9.35518 7.33333 9.8856L7.33333 13.3713L8.66665 12.8713L8.66667 12.8713L8.66667 9.8856C8.66667 9.35518 8.87737 8.84648 9.25246 8.4714L12.4714 5.25246L12.4714 5.25244C12.5964 5.12742 12.6667 4.95787 12.6667 4.78105V4C12.6667 3.6318 12.3682 3.33333 12 3.33333L4 3.33333Z" fill="white"/>
</g>
</svg>
