<svg width="12" height="12" viewBox="0 0 12 12" fill="none" xmlns="http://www.w3.org/2000/svg">
<path d="M10.0001 5.5V9.5H2.0001V5.5M4.7501 1.5H7.2501M4.7501 1.5L4.46716 3.76351C4.35191 4.68555 5.07085 5.5 6.0001 5.5C6.92935 5.5 7.64829 4.68555 7.53305 3.76351L7.2501 1.5M4.7501 1.5H2.2501L1.58797 3.61884C1.29639 4.5519 1.99345 5.5 2.97098 5.5C3.70173 5.5 4.31812 4.95585 4.40876 4.23075L4.7501 1.5ZM7.2501 1.5H9.7501L10.4122 3.61884C10.7038 4.5519 10.0067 5.5 9.02925 5.5C8.2985 5.5 7.6821 4.95585 7.59145 4.23075L7.2501 1.5Z" stroke="currentColor" stroke-linecap="square" stroke-linejoin="round"/>
</svg>
