<svg width="14" height="14" viewBox="0 0 13.3333 13.3333" fill="none" xmlns="http://www.w3.org/2000/svg">
<path d="M6.66667 10C7.03486 10 7.33333 10.2985 7.33333 10.6667V12.6667C7.33333 13.0349 7.03486 13.3333 6.66667 13.3333C6.29848 13.3333 6 13.0349 6 12.6667V10.6667C6 10.2985 6.29848 10 6.66667 10Z" fill="currentColor"/>
<path d="M1.95247 1.95247C2.21277 1.69219 2.63483 1.69229 2.89518 1.95247L7.13867 6.19531C7.19313 6.24981 7.23528 6.3119 7.26693 6.3776C7.28146 6.40773 7.29411 6.43892 7.30404 6.47135C7.33671 6.57832 7.34196 6.69172 7.31966 6.80078C7.30858 6.85501 7.2903 6.90651 7.26693 6.95508C7.23526 7.02098 7.19325 7.08337 7.13867 7.13802L2.89518 11.3809C2.63483 11.6409 2.21272 11.641 1.95247 11.3809C1.6924 11.1206 1.6925 10.6985 1.95247 10.4382L5.05794 7.33333H0.666667C0.298477 7.33333 0 7.03486 0 6.66667C0 6.29848 0.298477 6 0.666667 6H5.05794L1.95247 2.89518C1.69236 2.63487 1.69235 2.21277 1.95247 1.95247Z" fill="currentColor"/>
<path d="M9.02409 9.02344C9.28445 8.76325 9.7065 8.76314 9.9668 9.02344L11.3809 10.4375C11.641 10.6978 11.641 11.1199 11.3809 11.3802C11.1206 11.6405 10.6985 11.6404 10.4382 11.3802L9.02409 9.96615C8.76374 9.7058 8.76374 9.28379 9.02409 9.02344Z" fill="currentColor"/>
<path d="M12.6667 6C13.0349 6 13.3333 6.29848 13.3333 6.66667C13.3333 7.03486 13.0349 7.33333 12.6667 7.33333H10.6667C10.2985 7.33333 10 7.03486 10 6.66667C10 6.29848 10.2985 6 10.6667 6H12.6667Z" fill="currentColor"/>
<path d="M10.4382 1.95247C10.6985 1.69225 11.1205 1.69226 11.3809 1.95247C11.6411 2.21281 11.6411 2.63486 11.3809 2.89518L9.9668 4.30924C9.70647 4.56956 9.28444 4.56951 9.02409 4.30924C8.76381 4.04888 8.76376 3.62686 9.02409 3.36654L10.4382 1.95247Z" fill="currentColor"/>
<path d="M6.66667 0C7.03486 0 7.33333 0.298477 7.33333 0.666667V2.66667C7.33333 3.03486 7.03486 3.33333 6.66667 3.33333C6.29848 3.33333 6 3.03486 6 2.66667V0.666667C6 0.298477 6.29848 0 6.66667 0Z" fill="currentColor"/>
</svg>
