<svg width="16" height="16" viewBox="0 0 16 16" fill="none" xmlns="http://www.w3.org/2000/svg">
<g transform="translate(2.5904 1.333)">
<path d="M7.07562 3C7.07562 2.07953 6.32943 1.33333 5.40895 1.33333C4.48848 1.33333 3.74229 2.07953 3.74229 3C3.74229 3.92047 4.48848 4.66667 5.40895 4.66667C6.32943 4.66667 7.07562 3.92047 7.07562 3ZM8.40895 3C8.40895 4.65685 7.06581 6 5.40895 6C3.7521 6 2.40895 4.65685 2.40895 3C2.40895 1.34315 3.7521 0 5.40895 0C7.06581 0 8.40895 1.34315 8.40895 3Z" fill="currentColor"/>
<path d="M5.40961 6.66667C5.94859 6.66667 6.46414 6.7352 6.94997 6.86523C7.30564 6.96044 7.51718 7.32597 7.42198 7.68164C7.32674 8.03718 6.96114 8.24808 6.60557 8.153C6.23516 8.05385 5.83538 8 5.40961 8C3.44272 8.00003 1.96767 9.15509 1.35687 10.8066C1.31131 10.9299 1.33437 11.0372 1.41677 11.1354C1.50836 11.2446 1.67346 11.3333 1.87445 11.3333H4.07627C4.44446 11.3333 4.74294 11.6318 4.74294 12C4.74294 12.3682 4.44446 12.6667 4.07627 12.6667H1.87445C1.28978 12.6667 0.746862 12.4112 0.395283 11.9922C0.0346179 11.5622 -0.120709 10.9573 0.106221 10.3438C0.900152 8.19736 2.85517 6.6667 5.40961 6.66667Z" fill="currentColor"/>
<path d="M8.9376 8.1952C9.56613 7.56673 10.5851 7.56673 11.2136 8.1952C11.8422 8.82374 11.8421 9.84269 11.2136 10.4712L8.9376 12.7473C8.56255 13.1223 8.05388 13.3332 7.52354 13.3332H6.74229C6.3741 13.3332 6.07562 13.0347 6.07562 12.6666V11.886C6.07562 11.3555 6.28646 10.8463 6.66156 10.4712L8.9376 8.1952ZM7.40895 11.9999H7.52354C7.70025 11.9998 7.86989 11.9296 7.99489 11.8046L10.2709 9.52854C10.3787 9.42068 10.3788 9.24575 10.2709 9.13791C10.1631 9.03013 9.98814 9.03013 9.88031 9.13791L7.60426 11.414C7.47923 11.539 7.40895 11.7091 7.40895 11.886V11.9999Z" fill="currentColor"/>
</g>
</svg>
