<svg width="16" height="16" viewBox="0 0 16 16" fill="none" xmlns="http://www.w3.org/2000/svg">
<path d="M3.66699 1.33366C3.66699 0.965469 3.36852 0.666992 3.00033 0.666992C2.63214 0.666992 2.33366 0.965469 2.33366 1.33366V2.33366H1.33366C0.965469 2.33366 0.666992 2.63214 0.666992 3.00033C0.666992 3.36852 0.965469 3.66699 1.33366 3.66699H2.33366V4.66699C2.33366 5.03518 2.63214 5.33366 3.00033 5.33366C3.36852 5.33366 3.66699 5.03518 3.66699 4.66699V3.66699H4.66699C5.03518 3.66699 5.33366 3.36852 5.33366 3.00033C5.33366 2.63214 5.03518 2.33366 4.66699 2.33366H3.66699V1.33366Z" fill="#444CE7"/>
<path d="M3.66699 11.3337C3.66699 10.9655 3.36852 10.667 3.00033 10.667C2.63214 10.667 2.33366 10.9655 2.33366 11.3337V12.3337H1.33366C0.965469 12.3337 0.666992 12.6321 0.666992 13.0003C0.666992 13.3685 0.965469 13.667 1.33366 13.667H2.33366V14.667C2.33366 15.0352 2.63214 15.3337 3.00033 15.3337C3.36852 15.3337 3.66699 15.0352 3.66699 14.667V13.667H4.66699C5.03518 13.667 5.33366 13.3685 5.33366 13.0003C5.33366 12.6321 5.03518 12.3337 4.66699 12.3337H3.66699V11.3337Z" fill="#444CE7"/>
<path d="M9.28922 1.76101C9.1902 1.50354 8.94284 1.33366 8.66699 1.33366C8.39114 1.33366 8.14378 1.50354 8.04476 1.76101L6.88864 4.76691C6.68837 5.28761 6.62544 5.43766 6.53936 5.55872C6.45299 5.68019 6.34686 5.78632 6.22539 5.87269C6.10432 5.95878 5.95428 6.02171 5.43358 6.22198L2.42767 7.37809C2.17021 7.47712 2.00033 7.72448 2.00033 8.00033C2.00033 8.27617 2.17021 8.52353 2.42767 8.62256L5.43358 9.77867C5.95428 9.97894 6.10432 10.0419 6.22539 10.128C6.34686 10.2143 6.45299 10.3205 6.53936 10.4419C6.62544 10.563 6.68837 10.713 6.88864 11.2337L8.04476 14.2396C8.14379 14.4971 8.39114 14.667 8.66699 14.667C8.94284 14.667 9.1902 14.4971 9.28922 14.2396L10.4453 11.2337C10.6456 10.713 10.7085 10.563 10.7946 10.4419C10.881 10.3205 10.9871 10.2143 11.1086 10.128C11.2297 10.0419 11.3797 9.97894 11.9004 9.77867L14.9063 8.62256C15.1638 8.52353 15.3337 8.27617 15.3337 8.00033C15.3337 7.72448 15.1638 7.47712 14.9063 7.37809L11.9004 6.22198C11.3797 6.02171 11.2297 5.95878 11.1086 5.87269C10.9871 5.78632 10.881 5.68019 10.7946 5.55872C10.7085 5.43766 10.6456 5.28761 10.4453 4.76691L9.28922 1.76101Z" fill="#444CE7"/>
</svg>
