<svg width="88" height="24" viewBox="0 0 88 24" fill="none" xmlns="http://www.w3.org/2000/svg">
<g clip-path="url(#clip0_1923_1287)">
<path d="M24 18.8323V18.8326H14.3246L9.16716 13.6751V18.8326H0V18.8314L9.16716 9.66422V4H9.16774L24 18.8323Z" fill="black"/>
</g>
<path fill-rule="evenodd" clip-rule="evenodd" d="M73.2505 16.8061H76.5869V18.9145H73.9391C72.0857 18.9145 70.9202 17.8952 70.9202 15.9977V10.3921H69.0316V8.26609H70.9202L71.4677 5.47209H73.2329V8.26609H76.5869V10.3921H73.2505V16.8061ZM33.8133 4.85699L38.6679 15.681H38.809V4.85699H41.3333V18.9145H37.52L32.6654 8.09046H32.5243V18.9145H30V4.85699H33.8133ZM47.812 19.1254C44.7225 19.1254 42.7457 16.9641 42.7457 13.6079C42.7457 10.2517 44.6873 8.05518 47.812 8.05518C50.9367 8.05518 52.8429 10.1635 52.8429 13.6079C52.8429 17.0523 50.9014 19.1254 47.812 19.1254ZM47.812 17.017C49.1891 17.017 50.3363 16.5423 50.3715 15.1894V12.0265C50.3715 10.6383 49.2068 10.1635 47.812 10.1635C46.4172 10.1635 45.2171 10.6383 45.2171 12.0265V15.1894C45.2524 16.5599 46.4348 17.017 47.812 17.017ZM55.5444 8.24846L58.2979 16.6826H58.439L61.1926 8.24846H63.7346L59.9389 18.8968H56.7966L53.0186 8.24846H55.5429H55.5444ZM65.0419 8.26609H67.3722V18.9145H65.0419V8.26609ZM64.9001 4.85699H67.5126V6.86027H64.9001V4.85699ZM82.3064 19.143C79.4639 19.143 77.6458 16.9817 77.6458 13.6079C77.6458 10.2341 79.4286 8.07282 82.3064 8.07282C83.6483 8.07282 84.7425 8.59973 85.3958 9.58373H85.5369L85.9962 8.26609H87.7614V18.9145H85.9962L85.5369 17.6314H85.3958C84.6896 18.5625 83.5072 19.1423 82.3064 19.1423V19.143ZM82.7826 17.017C84.1774 17.017 85.3951 16.5776 85.4304 15.1894V12.0265C85.4304 10.603 84.159 10.1988 82.7297 10.1988C81.3004 10.1988 80.1172 10.6383 80.1172 12.0265V15.1894C80.1525 16.5952 81.3709 17.017 82.7826 17.017Z" fill="black"/>
<defs>
<clipPath id="clip0_1923_1287">
<rect width="24" height="14.8326" fill="white" transform="translate(0 4)"/>
</clipPath>
</defs>
</svg>
