<svg width="32" height="36" viewBox="0 0 32 36" fill="none" xmlns="http://www.w3.org/2000/svg">
<path fill-rule="evenodd" clip-rule="evenodd" d="M2 0C0.895431 0 0 0.895432 0 2V29.1891C0 30.2937 0.895433 31.1891 2 31.1891H5.51171L16.0608 35.1377C16.7145 35.3824 17.4114 34.8991 17.4114 34.2012V11.3669C17.4114 10.533 16.894 9.78665 16.1131 9.49405L5.51171 5.52152H25.58V31.1891H29.0917C30.1963 31.1891 31.0917 30.2937 31.0917 29.1891V2C31.0917 0.895431 30.1963 0 29.0917 0H2ZM14.6022 23.7351C15.0558 23.956 15.4239 23.6812 15.4239 23.1185C15.4239 22.5557 15.0558 21.9204 14.6022 21.6995C14.1486 21.4775 13.7804 21.7545 13.7804 22.3161C13.7804 22.8777 14.1486 23.513 14.6022 23.7351Z" fill="white"/>
<path fill-rule="evenodd" clip-rule="evenodd" d="M2 0C0.895431 0 0 0.895432 0 2V29.1891C0 30.2937 0.895433 31.1891 2 31.1891H5.51171L16.0608 35.1377C16.7145 35.3824 17.4114 34.8991 17.4114 34.2012V11.3669C17.4114 10.533 16.894 9.78665 16.1131 9.49405L5.51171 5.52152H25.58V31.1891H29.0917C30.1963 31.1891 31.0917 30.2937 31.0917 29.1891V2C31.0917 0.895431 30.1963 0 29.0917 0H2ZM14.6022 23.7351C15.0558 23.956 15.4239 23.6812 15.4239 23.1185C15.4239 22.5557 15.0558 21.9204 14.6022 21.6995C14.1486 21.4775 13.7804 21.7545 13.7804 22.3161C13.7804 22.8777 14.1486 23.513 14.6022 23.7351Z" fill="url(#paint0_linear_1473_97)"/>
<defs>
<linearGradient id="paint0_linear_1473_97" x1="31" y1="-2" x2="0.975591" y2="14.2625" gradientUnits="userSpaceOnUse">
<stop stop-color="#2622FF"/>
<stop offset="1" stop-color="#A717FF"/>
</linearGradient>
</defs>
</svg>
