<svg width="14" height="14" viewBox="0 0 14 14" fill="none" xmlns="http://www.w3.org/2000/svg">
<g id="Icon" clip-path="url(#clip0_3167_27725)">
<path id="Vector" d="M5.93972 6.47002H2.2276C1.64161 6.47002 1.16699 6.94464 1.16699 7.53063V11.7731C1.16699 12.359 1.64161 12.8337 2.2276 12.8337H9.65184C10.2378 12.8337 10.7124 12.359 10.7124 11.7731V7.53063M3.81851 4.66693V3.2882M3.81851 3.2882C4.11139 3.2882 4.34881 3.05078 4.34881 2.7579C4.34881 2.46502 4.11139 2.2276 3.81851 2.2276C3.52563 2.2276 3.2882 2.46502 3.2882 2.7579C3.2882 3.05078 3.52563 3.2882 3.81851 3.2882ZM8.06093 1.6973C8.06093 1.40457 8.29851 1.16699 8.59123 1.16699H12.3034C12.5961 1.16699 12.8337 1.40457 12.8337 1.6973V4.34881C12.8337 4.64154 12.5961 4.87911 12.3034 4.87911H9.65184L8.06093 5.93972V1.6973Z" stroke="#344054" stroke-width="1.25" stroke-linecap="round" stroke-linejoin="round"/>
<g id="Vector_2">
<path d="M4.08354 9.65146C4.52286 9.65146 4.87899 9.29532 4.87899 8.856C4.87899 8.41668 4.52286 8.06055 4.08354 8.06055C3.64422 8.06055 3.28809 8.41668 3.28809 8.856C3.28809 9.29532 3.64422 9.65146 4.08354 9.65146Z" fill="#344054"/>
<path d="M7.79566 9.65146C8.23498 9.65146 8.59112 9.29532 8.59112 8.856C8.59112 8.41668 8.23498 8.06055 7.79566 8.06055C7.35634 8.06055 7.00021 8.41668 7.00021 8.856C7.00021 9.29532 7.35634 9.65146 7.79566 9.65146Z" fill="#344054"/>
</g>
</g>
<defs>
<clipPath id="clip0_3167_27725">
<rect width="14" height="14" fill="white"/>
</clipPath>
</defs>
</svg>
