<svg width="17" height="16" viewBox="0 0 17 16" fill="none" xmlns="http://www.w3.org/2000/svg">
<g id="Left Icon">
<path id="Vector" d="M7.83333 2.66683H5.7C4.5799 2.66683 4.01984 2.66683 3.59202 2.88482C3.21569 3.07656 2.90973 3.38252 2.71799 3.75885C2.5 4.18667 2.5 4.74672 2.5 5.86683V9.3335C2.5 9.95348 2.5 10.2635 2.56815 10.5178C2.75308 11.208 3.29218 11.7471 3.98236 11.932C4.2367 12.0002 4.54669 12.0002 5.16667 12.0002V13.5572C5.16667 13.9124 5.16667 14.09 5.23949 14.1812C5.30282 14.2606 5.39885 14.3067 5.50036 14.3066C5.61708 14.3065 5.75578 14.1955 6.03317 13.9736L7.62348 12.7014C7.94834 12.4415 8.11078 12.3115 8.29166 12.2191C8.45213 12.1371 8.62295 12.0772 8.79948 12.041C8.99845 12.0002 9.20646 12.0002 9.6225 12.0002H10.6333C11.7534 12.0002 12.3135 12.0002 12.7413 11.7822C13.1176 11.5904 13.4236 11.2845 13.6153 10.9081C13.8333 10.4803 13.8333 9.92027 13.8333 8.80016V8.66683M11.6551 6.472L14.8021 4.44889C15.0344 4.29958 15.1505 4.22493 15.1906 4.13C15.2257 4.04706 15.2257 3.95347 15.1906 3.87052C15.1505 3.7756 15.0344 3.70094 14.8021 3.55163L11.6551 1.52852C11.3874 1.35646 11.2536 1.27043 11.1429 1.27833C11.0465 1.28522 10.9578 1.33365 10.8998 1.41105C10.8333 1.49987 10.8333 1.65896 10.8333 1.97715V6.02337C10.8333 6.34156 10.8333 6.50066 10.8998 6.58948C10.9578 6.66688 11.0465 6.71531 11.1429 6.72219C11.2536 6.7301 11.3874 6.64407 11.6551 6.472Z" stroke="#155EEF" stroke-width="1.5" stroke-linecap="round" stroke-linejoin="round"/>
</g>
</svg>
