<?xml version="1.0" encoding="UTF-8"?>
<svg id="_图层_1" data-name=" 图层 1" xmlns="http://www.w3.org/2000/svg" version="1.1" viewBox="0 0 1024 541.6">
  <path d="M745.3,377.5c1.6,1.4,3,3,4.8,4.2,22.1,15.2,44.3,30.4,66.5,45.6,4.8,3.3,8,2.4,10.9-3,4.3-8.7,9-17.2,14-25.5,8.4-13.6,22.9-17.8,35.6-10.6,12.6,7.3,16.3,22.7,8.8,36.7-3.8,6.9-7.6,13.8-11.4,20.8-2.9,5-1.8,8.1,3.9,9.4,13.4,3.1,26.7,6.4,40.2,9.5,14.3,3.3,22.5,12.4,22.7,24.8.3,18.2-12.5,28.8-30.4,26.1-49.8-7.6-94.6-27.8-137.3-53.5-31.5-18.9-60.7-40.9-85-68.8-1-1.1-2-1.9-2.6-3.1-9.5-20.4-27.8-15.1-44.1-14.9-1.6,0-3.8,2.9-4.6,4.8-.8,1.9-.4,4.5-.4,6.7v101.8c0,19.7-17.4,31.5-35.4,24.4-9.6-3.8-14.5-11-15.1-21.3-.3-5.2-.3-10.5-.3-15.6v-255.2c0-85.1,0-2.7,0-4.1,0-8.8-1.2-9.5-9.4-5.3-12.1,6.2-24,12.4-36.1,18.5-2.9,1.4-5.7,2.9-8.7,3.7-13.7,4.2-26.7-1.2-31.9-13.2-5.7-13.4-1-27,12.2-33.9,9.2-4.9,18.7-9,27.8-13.8,67.1-36.1,124.2-83.6,169.8-144.7,13-17.5,31-18.2,45.5-1.2,46,53.9,99.8,98.3,162.4,131.3,19.7,10.3,40.7,18.1,61.4,26.7,8.8,3.8,16.2,8.8,18.3,19.1,3.9,18.6-12.5,35.4-30.5,29.9-18.2-5.7-35.8-13.4-53.6-20.6-9.1-3.7-9.9-3.5-9.9,6.4v128.3c0,18.1-9.1,27.2-27.2,27.2h-120.7c-3.1,0-6.4.5-9.5.8-.1.5-.3,1.2-.4,1.8l-.3.3ZM742.9,323.5h35.8c20.5,0,41.1.3,61.6.4,10.3,0,11.4-1,11.4-11v-69.2c0-9-1.1-10-10.3-10h-129.5c-22.1,0-44.3,0-66.4.4-2.7,0-6.9,1.5-7.7,3.4-4.1,9.4,0,15.2,10.2,15.5h149.9c8.8,0,17.6-.3,26.5,0,11.5.4,19.6,6.5,23.9,17.1,4.1,9.9,1.1,18.6-5.8,26.2-5.6,6.1-12.8,8-20.8,8h-174.2c-9.8,0-10.6,1-10.7,11,0,7.9.4,8.3,10.6,8.3h95.6,0ZM853.4,181.6c-1.8-1.6-2.6-2.6-3.5-3.4-12.2-8.6-24.4-17.1-36.5-25.8-4.5-3.3-6.9-2.9-8.7,2.9-3.3,10.9-11,16.8-22.3,17.9-5.2.4-10.3,0-15.5,0-23.5,0-47-.1-70.5,0-13.2.1-22.7-4.9-27.7-17.4-.7-1.8-1.9-3.4-3.4-5.8-13.4,10.5-26.2,20.5-40.6,31.6h228.6ZM771.5,120.6c-11.7-12.2-22.4-23.2-32.7-34.5-3.9-4.2-6.5-3.4-9.8.3-8.1,9.1-16.4,18.1-24.6,27-2,2.2-4.1,4.3-6.8,7.2h73.9,0Z" fill="#000" stroke-width="0"/>
  <path d="M415.9,287.9v207.7c0,3.4-.1,6.8-.7,10.2-2.4,14.1-11.5,21.7-25.8,21.7s-24.3-9-26.3-22.5c-.5-3.9-.8-8.1-.8-12.2V108.5c.1-4.9-2-7.1-6.9-6.8H122.1c-11.5,0-11.7.3-10.7,11.8,3.3,37.6,7.6,75.2,9.4,112.8,1.4,28-.4,56.1-1.5,84-2.4,63.4-15.9,124.5-40.2,183.1-7.2,17.5-22.3,23.2-38.4,14.7-10.6-5.6-15.7-16.4-12.5-28.6,3.7-13.3,8.1-26.3,12.9-39.2,12.8-33.9,20-69,22.3-105.1,2-32.7,4.5-65.4,3.8-98.2-.8-34.9-5-69.8-8.1-104.7-1.5-16.8-4.2-33.7-5.8-50.5-2.3-23.1,7.7-33.9,30.8-33.9h296.4c28.2,0,36,7.7,36,35.7v204.3h-.4Z" fill="#000" stroke-width="0"/>
  <path d="M195.2,382.8c-9.6-.5-19.4-.7-29.1-1.5-16-1.4-27.2-13.3-26.3-28,.8-15.1,13.2-25.9,29.6-25,44.4,2.7,87.3-3.5,128.6-20.5,15.1-6.1,29.7.5,35.6,15.2,5.6,14-.4,27.8-15.2,34.3-35.3,15.6-72.5,23.4-111.1,24.7-4.1.1-8.1.4-12.2.5h.1Z" fill="#000" stroke-width="0"/>
  <path d="M195.7,255c-8.7-.4-17-.7-25.4-1.2-16.8-1.1-27.4-12.1-26.6-27.3,1-16.4,12.2-26.6,29.5-25.7,42.8,2.4,84.2-3.4,124.2-18.7,3.4-1.2,6.8-2.4,10.3-3,14.4-2.6,25.7,4.2,30.3,17.6,4.3,12.9-1.1,26.2-14.1,32.2-10.2,4.6-21,8.3-31.8,11.5-31.5,9.8-63.9,13.2-96.4,14.4h0Z" fill="#000" stroke-width="0"/>
</svg>