<svg width="48" height="22" viewBox="0 0 48 22" fill="none" xmlns="http://www.w3.org/2000/svg">
<g id="White=True">
<g id="if">
<path d="M21.2002 4.0695C22.5633 4.0695 23.0666 3.23413 23.0666 2.20309C23.0666 1.17204 22.5623 0.33667 21.2002 0.33667C19.838 0.33667 19.3337 1.17204 19.3337 2.20309C19.3337 3.23413 19.838 4.0695 21.2002 4.0695Z" fill="white"/>
<path d="M27.7336 4.46931V5.66969H24.6668V8.33667H27.7336V15.0037H22.6668V5.67063H15.9998V8.33761H19.7336V15.0046H15.3337V17.6716H35.3337V15.0046H30.6668V8.33761H35.3337V5.67063H30.6668V3.00365H35.3337V0.33667H31.8671C29.5877 0.33667 27.7336 2.19086 27.7336 4.47025V4.46931Z" fill="white"/>
</g>
<g id="Dy">
<path d="M5.66698 0.335902H0V17.6689H5.66698C12.667 17.6689 14.667 13.6689 14.667 9.00194C14.667 4.33496 12.667 0.334961 5.66698 0.334961V0.335902ZM5.73377 15.0029H3.20038V3.00288H5.73377C9.75823 3.00288 11.4666 4.97842 11.4666 9.00288C11.4666 13.0273 9.75823 15.0029 5.73377 15.0029Z" fill="white"/>
<path d="M44.8335 5.66986L42.1665 14.3368L39.4995 5.66986H36.333L40.2013 16.8815C40.604 18.049 39.9229 19.0029 38.6886 19.0029H37.333V21.6699H39.3255C41.063 21.6699 42.6265 20.5711 43.2145 18.9361L48 5.66986H44.8335Z" fill="white"/>
</g>
</g>
</svg>
