<?xml version="1.0" encoding="utf-8"?>
<!-- Generator: Adobe Illustrator 24.0.0, SVG Export Plug-In . SVG Version: 6.00 Build 0)  -->
<svg version="1.1" id="图层_1" xmlns="http://www.w3.org/2000/svg" xmlns:xlink="http://www.w3.org/1999/xlink" x="0px" y="0px"
	 viewBox="0 0 841.9 595.3" style="enable-background:new 0 0 841.9 595.3;" xml:space="preserve">
<style type="text/css">
	.st0{fill:#A52524;}
</style>
<path class="st0" d="M308.1,203.4C308.1,203.4,308.1,203.4,308.1,203.4c0.3,0.4,0.7,0.8,1,1.2L308.1,203.4z"/>
<g>
	<g>
		<path class="st0" d="M464.1,390.4c-3.7,0-7.4,0-11.1,0c0-2.1,0-4.1,0-6.2c5.9,0,11.8,0,17.7,0c1.8,7.8-2.7,17.1-11.4,20.6
			c-8.6,3.4-18.7,0.6-23.8-8.7c-4.6-8.3-2-18.7,6-24.4c6.9-4.9,18-4.1,23.3,1.8c-1.5,1.4-3,2.9-4.6,4.4c-2.5-2.3-5.7-3.2-9.2-2.9
			c-2.6,0.2-4.9,1.2-6.8,2.9c-4.3,3.7-5.7,9.5-3.4,14.5c2.1,4.7,7.3,7.9,12.2,7.4C458.5,399,463.1,395.3,464.1,390.4z"/>
		<path class="st0" d="M370.2,373.6c-1.6,1.4-3.1,2.7-4.7,4.1c-2.5-2.3-5.4-3.5-8.8-3.5c-6.1,0.1-11.5,4.6-12.3,10.5
			c-0.9,6.4,3,12.4,9.2,14c1.2,0.3,2.5,0.3,3.7,0.8c1.2,0.5,2.2,1.5,3.3,2.2c1,0.7,2.1,1.5,3.1,2.2c-5.2,3.8-16.7,0.8-21.7-5.6
			c-6.4-8.3-5.1-19.9,2.8-26.3C352.3,365.9,364.1,366.6,370.2,373.6z"/>
		<path class="st0" d="M385.2,384.7c-2.8,6.3-5.7,12.4-8.3,18.5c-0.9,2.3-2.1,3.3-4.6,2.9c-1.1-0.2-2.3,0-3.6,0
			c5.5-12.2,10.9-24.3,16.5-36.7c5.6,12.3,11,24.4,16.6,36.7c-2.3,0-4.4,0.1-6.4-0.1c-0.4,0-0.8-0.8-1-1.2
			c-2.8-6.2-5.6-12.3-8.4-18.5C385.7,385.8,385.5,385.4,385.2,384.7z"/>
		<path class="st0" d="M419.2,406.4c0-2.2,0-4.2,0-6.4c0.4-0.1,0.9-0.2,1.3-0.4c2.1-0.7,3.3-2.6,3.1-4.8c-0.2-2-1.9-3.7-4-3.8
			c-2.9-0.1-5.7-0.1-8.6-0.1c-6,0-10.4-4.1-11.1-10.4c-0.6-5.2,3.3-10.3,8.7-11.5c0.7-0.2,1.5-0.2,2.4-0.3c0,2.3,0,4.4,0,6.5
			c-3,0.8-4.3,2.2-4.4,4.5c0,2.3,1.6,4.3,4,4.4c2.9,0.2,5.8,0.1,8.7,0.2c4.8,0.1,8.8,2.9,10.3,7.3c1.6,4.5,0.2,9.5-3.5,12.4
			C424.2,405.7,421.7,406.5,419.2,406.4z"/>
		<path class="st0" d="M504,368.4c-2.2,0-4.3,0-6.3,0c-0.3,0-0.7,0.6-0.9,1c-2.9,6.5-5.8,12.9-8.7,19.4c-0.2,0.4-0.4,0.8-0.5,1.2
			c-0.2-0.4-0.4-0.8-0.5-1.2c-2.9-6.5-5.8-12.9-8.7-19.4c-0.2-0.4-0.6-1-0.9-1c-2-0.1-4.1,0-6.3,0c5.5,12.3,10.9,24.3,16.5,36.7
			c0,0,0,0,0,0c0,0,0,0,0,0C493.1,392.8,498.5,380.7,504,368.4z"/>
	</g>
	<g>
		<g>
			<path class="st0" d="M414.3,277.3c-0.7-1.5-1.2-3.1-2-4.5c-0.9-1.7-2.8-1.8-3.9-0.2c-0.3,0.4-0.5,0.9-0.7,1.3
				c-2,4.2-4,8.5-6,12.7c-1.5,3.1-3,6.1-4.3,9.3c-2.2,5.2,0.7,9.9,6.1,9.9c1.8,0,3.4-0.7,4.8-1.8c4.2-3.4,8.4-6.8,12.6-10.1
				c0.4-0.3,0.5-0.6,0.3-1.1C418.7,287.6,416.5,282.5,414.3,277.3z"/>
			<path class="st0" d="M478.1,278.5l-10.6,10.6l-10.7-10.7l10.7-10.7l-10-10l-10.7,10.7l-10.7-10.7l10.7-10.7l-10-10l-10.7,10.7
				l-10.7-10.7l10.3-10.3c-6-3.5-13.8-2.7-19,2.4l-48.8,48.8c-6.1,6.1-6.1,16,0,22.1l48.8,48.8c6.1,6.1,16,6.1,22.1,0l48.8-48.8
				C483.7,294.3,483.8,284.7,478.1,278.5z M407.7,310.9c-1.3,1-2.6,2-3.9,3.1c-5.7,4.6-14.4,1.5-15.9-5.7c-0.5-2.6,0.1-5.1,1.2-7.4
				c4.4-9.2,8.7-18.3,13.1-27.5c1.6-3.4,3.2-6.8,4.8-10.1c3.2-6.7,10.6-7.9,15.4-4.1c1.3,1.1,2.4,2.4,3.1,3.9
				c4.9,10.2,9.7,20.4,14.5,30.6c0.1,0.1,0.1,0.3,0.1,0.4c-1.2-0.3-2.3-0.6-3.4-0.8c-3.9-0.5-7.3,0.6-10.4,3.1
				C420.2,301.3,414,306.1,407.7,310.9z M435.9,317.4c-5.3-0.2-9.8-4.8-9.6-9.9c0.2-5.7,4.7-10,10.1-9.8c5.5,0.2,9.8,4.7,9.6,10.1
				C446,313.2,441.4,317.5,435.9,317.4z"/>
		</g>
		<g>
			
				<rect x="429.1" y="219" transform="matrix(0.7071 0.7071 -0.7071 0.7071 287.9517 -242.3601)" class="st0" width="14.9" height="14.9"/>
			
				<rect x="449.8" y="239.7" transform="matrix(0.7071 0.7071 -0.7071 0.7071 308.7018 -250.9551)" class="st0" width="14.9" height="14.9"/>
			
				<rect x="470.6" y="260.5" transform="matrix(0.7071 0.7071 -0.7071 0.7071 329.452 -259.55)" class="st0" width="14.9" height="14.9"/>
		</g>
		<g>
			
				<rect x="455.7" y="218.2" transform="matrix(0.7071 0.7071 -0.7071 0.7071 293.1002 -260.5096)" class="st0" width="10.7" height="10.7"/>
			
				<rect x="475.6" y="238.1" transform="matrix(0.7071 0.7071 -0.7071 0.7071 312.9778 -268.7432)" class="st0" width="10.7" height="10.7"/>
		</g>
		
			<rect x="478.1" y="218" transform="matrix(0.7071 -0.7071 0.7071 0.7071 -15.8085 406.1028)" class="st0" width="8.3" height="8.3"/>
	</g>
</g>
</svg>
