<?xml version="1.0" standalone="no"?>
<!DOCTYPE svg PUBLIC "-//W3C//DTD SVG 20010904//EN"
 "http://www.w3.org/TR/2001/REC-SVG-20010904/DTD/svg10.dtd">
<svg version="1.0" xmlns="http://www.w3.org/2000/svg"
 width="606.000000pt" height="860.000000pt" viewBox="0 0 606.000000 860.000000"
 preserveAspectRatio="xMidYMid meet">

<g transform="translate(0.000000,860.000000) scale(0.100000,-0.100000)"
fill="#000000" stroke="none">
<path d="M3163 7685 c-40 -7 -102 -27 -138 -44 -69 -32 -163 -112 -200 -171
-80 -127 -86 -286 -18 -441 l21 -46 -122 -6 c-95 -4 -138 -11 -201 -32 -231
-77 -470 -243 -648 -450 -33 -38 -15 -23 48 40 183 182 412 310 680 380 119
30 369 50 515 40 214 -15 476 -94 633 -192 51 -32 47 -21 -7 16 -82 56 -251
139 -336 164 -155 47 -263 55 -404 31 l-39 -7 5 81 c4 71 10 93 46 164 71 145
204 252 358 292 84 22 159 20 239 -5 78 -24 95 -17 71 29 -35 67 -156 135
-284 158 -93 16 -125 16 -219 -1z m385 -80 c66 -30 65 -40 -3 -20 -30 9 -91
15 -159 15 -98 0 -108 2 -90 14 47 34 168 29 252 -9z"/>
<path d="M2785 6840 c-44 -5 -123 -16 -175 -25 -186 -34 -241 -42 -246 -34 -7
12 -144 -30 -194 -59 -198 -114 -412 -347 -526 -575 -36 -71 -103 -260 -105
-293 0 -12 -3 -14 -6 -6 -10 26 73 283 105 326 5 6 21 34 36 61 38 70 1 23
-64 -81 -90 -145 -180 -222 -317 -275 l-28 -11 23 -19 c35 -28 98 -41 175 -37
l69 4 -6 -26 c-3 -14 -9 -63 -12 -108 -7 -78 -9 -84 -33 -93 -57 -21 -94 -45
-103 -69 -5 -13 -14 -28 -20 -31 -13 -8 -16 -171 -6 -319 4 -69 3 -93 -2 -70
-5 19 -13 109 -16 200 -8 182 -5 180 -46 25 -18 -71 -2 -345 27 -455 44 -165
72 -230 125 -289 l49 -54 -19 64 c-29 93 -23 96 9 7 25 -70 56 -121 97 -162
13 -14 13 -16 1 -16 -15 0 -77 64 -77 79 0 5 -14 11 -30 13 -30 5 -31 4 -56
-79 -49 -154 -23 -306 74 -434 91 -122 214 -188 363 -197 71 -3 99 0 152 17
74 25 167 82 214 132 84 89 143 234 143 348 0 94 -6 108 -49 122 -59 20 -154
66 -184 91 -15 13 -36 42 -47 64 -23 53 -12 68 36 48 19 -8 34 -12 34 -9 0 4
10 -1 21 -9 12 -8 28 -12 36 -9 8 3 13 0 11 -7 -4 -15 70 -39 129 -42 24 -2
43 -6 43 -10 0 -3 9 -4 20 -1 28 7 25 39 -5 59 -13 9 -27 24 -30 34 -3 11 -15
22 -25 25 -10 3 -22 15 -25 26 -4 10 -15 19 -25 19 -11 0 -22 10 -25 23 -4 12
-18 31 -31 43 -13 12 -21 24 -17 28 3 3 0 6 -7 6 -7 0 -11 3 -7 6 3 3 -4 23
-17 43 -13 20 -31 53 -40 73 -10 21 -25 40 -34 43 -34 12 -101 106 -108 151
-13 87 0 101 133 160 43 18 74 34 68 34 -5 0 32 18 82 39 123 51 211 109 306
201 121 115 198 230 277 413 l47 108 7 -38 c9 -56 47 -131 100 -195 27 -34 53
-79 62 -108 15 -51 32 -63 78 -57 13 1 33 -16 60 -50 52 -67 228 -198 337
-250 144 -70 303 -113 416 -113 l53 0 0 -37 c-1 -93 -55 -251 -127 -369 -23
-39 -43 -74 -43 -78 0 -17 66 3 142 42 11 5 -31 -77 -68 -136 -19 -29 -34 -56
-34 -61 0 -5 -24 -30 -52 -56 l-53 -48 140 6 c151 6 259 28 367 73 114 47 146
73 183 144 35 70 118 170 140 170 19 0 23 8 35 82 12 77 42 152 56 138 12 -12
48 15 39 29 -3 6 -11 9 -16 5 -5 -3 -25 4 -44 16 -25 15 -38 33 -46 63 -20 67
-29 66 -29 -4 0 -58 -3 -68 -26 -90 -40 -37 -52 -69 -69 -175 -9 -54 -18 -101
-21 -106 -15 -24 -111 13 -116 45 -2 11 -9 22 -17 25 -8 3 -11 0 -7 -7 12 -18
-3 -12 -26 11 -13 13 -22 29 -20 35 2 7 -4 13 -11 13 -23 0 -35 108 -24 210
16 142 17 257 2 340 -16 94 -20 199 -5 165 5 -11 9 -41 9 -67 1 -47 2 -48 32
-48 l31 0 -7 88 c-25 322 -165 606 -402 817 -252 225 -562 341 -933 350 -85 2
-191 0 -235 -5z m161 -533 c1 -42 -2 -54 -12 -50 -8 3 -21 -11 -34 -37 -25
-49 -40 -44 -40 12 0 43 35 112 51 102 5 -3 9 4 9 16 0 13 5 20 13 17 7 -2 12
-25 13 -60z m680 -64 c12 -17 14 -17 27 1 14 19 15 19 21 -1 4 -12 13 -24 21
-27 8 -3 25 -27 38 -55 l24 -49 -38 -15 c-25 -10 -39 -11 -39 -5 0 6 -13 23
-29 39 -16 15 -26 30 -23 34 4 4 -2 13 -13 21 -15 11 -17 18 -9 32 9 13 7 20
-5 29 -12 10 -13 12 -2 13 8 0 20 -8 27 -17z m-348 -77 c20 -43 20 -44 63 -39
24 2 68 1 97 -4 l54 -8 -21 -27 -21 -26 36 -23 c53 -32 97 -131 102 -226 4
-76 -7 -123 -38 -163 l-19 -25 11 36 c23 78 -19 184 -97 243 -19 15 -40 37
-47 49 -15 29 -11 77 8 91 13 10 11 12 -9 14 -13 1 -45 10 -70 21 -34 15 -51
30 -66 60 -12 22 -25 42 -31 46 -17 10 -11 25 10 25 13 0 25 -14 38 -44z m452
-101 c11 -13 10 -14 -4 -9 -9 3 -16 10 -16 15 0 13 6 11 20 -6z m-406 -297
c-8 -12 -116 -66 -139 -68 -38 -4 -47 0 -42 19 2 10 1 25 -4 32 -5 9 12 22 64
45 l72 31 27 -25 c15 -14 25 -29 22 -34z m-1697 -40 c-3 -7 -5 -2 -5 12 0 14
2 19 5 13 2 -7 2 -19 0 -25z m-3 -473 c9 -50 15 -103 15 -120 -1 -31 -37 152
-38 194 -2 45 7 17 23 -74z m310 -310 c3 -11 -5 3 -18 30 -14 28 -25 59 -25
70 0 17 24 -38 43 -100z m42 -77 c8 -16 13 -28 10 -28 -5 0 -46 69 -46 78 0 8
15 -13 36 -50z"/>
<path d="M1779 6403 c-13 -16 -12 -17 4 -4 9 7 17 15 17 17 0 8 -8 3 -21 -13z"/>
<path d="M4285 6150 c16 -30 38 -86 50 -125 l22 -70 61 1 c93 1 146 31 101 56
-108 60 -148 88 -200 136 l-62 57 28 -55z"/>
<path d="M2460 5070 l0 -190 84 0 c67 0 85 3 90 16 8 20 8 328 0 348 -5 13
-23 16 -90 16 l-84 0 0 -190z"/>
<path d="M3320 5070 l0 -191 83 3 82 3 7 65 c4 36 5 120 2 188 l-6 122 -84 0
-84 0 0 -190z"/>
<path d="M2910 4750 c0 -5 18 -22 40 -36 45 -30 73 -28 117 10 38 33 25 42
-17 11 -43 -31 -61 -31 -98 0 -32 27 -42 31 -42 15z"/>
<path d="M3154 4665 c-15 -37 -18 -66 -6 -63 4 1 25 -10 47 -24 53 -35 122
-53 141 -37 25 21 15 37 -44 72 -31 20 -68 47 -81 61 -32 34 -39 33 -57 -9z"/>
<path d="M4580 4675 c-14 -16 -6 -35 16 -35 8 0 14 10 14 25 0 28 -12 32 -30
10z"/>
<path d="M4390 4564 c-147 -73 -331 -109 -525 -101 -71 3 -143 8 -160 11 -24
5 -25 4 -5 -2 23 -7 21 -9 -27 -30 -29 -12 -56 -22 -62 -22 -16 0 -13 -113 5
-183 49 -189 183 -324 369 -372 74 -19 113 -19 195 1 121 28 254 125 314 227
64 109 85 267 51 380 -21 69 -23 70 -58 42 -41 -32 -43 -35 -68 -67 -29 -39
-45 -35 -21 5 27 43 73 147 64 145 -4 0 -36 -16 -72 -34z"/>
<path d="M3370 4575 c0 -19 226 -96 279 -94 18 1 10 5 -24 14 -87 21 -199 57
-227 71 -16 8 -28 12 -28 9z"/>
<path d="M3330 4520 c0 -27 180 -90 256 -90 76 0 67 16 -19 33 -47 9 -118 28
-158 42 -86 29 -79 28 -79 15z"/>
<path d="M2733 4333 c9 -2 23 -2 30 0 6 3 -1 5 -18 5 -16 0 -22 -2 -12 -5z"/>
<path d="M2798 4308 c3 -11 -3 -20 -14 -24 -53 -17 -167 -69 -226 -104 -84
-50 -156 -117 -266 -244 -130 -151 -121 -135 -88 -161 l29 -23 -40 -49 c-85
-102 -239 -327 -320 -468 -58 -100 -123 -231 -123 -247 0 -8 11 -25 24 -37
l24 -22 -21 -50 -21 -49 21 -22 c12 -12 57 -40 100 -64 62 -33 78 -47 78 -65
0 -19 7 -25 41 -31 23 -5 49 -17 59 -28 17 -19 17 -24 1 -105 -13 -63 -14 -94
-7 -120 8 -29 7 -37 -5 -42 -21 -8 -17 -21 13 -49 l27 -25 -18 -132 c-10 -73
-24 -172 -32 -222 -19 -121 -18 -174 1 -182 12 -4 14 -15 10 -48 -5 -31 -3
-46 9 -58 21 -21 149 -62 276 -88 58 -12 123 -25 145 -30 64 -14 323 -39 398
-39 66 0 68 -1 61 -22 -14 -44 -12 -65 12 -114 18 -36 24 -66 24 -116 l0 -67
-53 -12 c-78 -17 -236 -7 -325 20 -75 24 -138 23 -148 -2 -2 -7 5 -61 16 -121
26 -140 25 -152 -6 -221 -19 -41 -25 -67 -21 -91 l6 -34 -75 0 c-41 0 -74 -4
-74 -9 0 -5 44 -20 98 -33 85 -20 122 -23 297 -23 143 0 211 4 238 14 33 11
52 11 120 0 105 -18 427 -18 478 -1 64 22 82 113 38 189 l-23 41 18 109 c10
59 21 126 24 147 l4 39 -33 -7 c-67 -14 -265 -26 -321 -20 -33 4 -63 13 -70
22 -9 10 -13 51 -14 116 -1 97 -6 135 -19 156 -3 6 -1 10 6 10 8 0 9 3 0 13
-9 12 7 15 90 21 239 15 610 91 664 136 10 8 15 26 14 44 -2 17 5 54 15 82 9
28 15 64 12 80 -3 16 -10 78 -16 139 -6 60 -18 155 -25 210 -17 120 -17 118
-6 111 5 -3 12 1 15 10 8 20 -10 179 -29 262 -20 87 -20 87 28 101 79 24 290
133 316 165 8 9 5 23 -8 49 -30 59 -31 64 -10 91 19 25 19 25 -5 80 -61 137
-189 341 -349 556 -107 143 -108 145 -88 161 12 10 21 23 21 31 0 7 -26 40
-56 73 -31 33 -46 47 -35 31 12 -16 21 -42 21 -58 0 -26 -2 -28 -20 -18 -21
11 -37 43 -47 94 -5 23 -3 27 8 21 22 -13 -19 34 -96 108 -80 78 -186 147
-310 202 -61 27 -85 43 -85 56 0 12 9 19 28 21 15 2 -66 3 -179 3 -191 0 -205
-1 -201 -17z m123 -370 c-11 -46 -25 -94 -31 -108 -19 -45 -3 57 22 137 30 93
35 77 9 -29z m686 -4 c24 -41 30 -90 12 -96 -6 -2 -8 -14 -4 -30 7 -26 7 -26
35 -10 34 20 56 7 46 -26 -10 -29 -42 -33 -121 -17 -39 8 -71 15 -72 15 -2 0
-3 4 -3 9 0 5 14 14 31 21 l31 13 -31 29 c-17 16 -31 34 -31 41 -1 7 -7 -2
-14 -19 -8 -17 -24 -39 -37 -48 -17 -12 -19 -16 -7 -16 43 0 45 -55 2 -66 -28
-7 -74 19 -74 42 0 8 -9 27 -21 43 -22 30 -20 83 5 117 17 23 32 11 40 -31 l7
-35 40 27 39 26 51 -28 c46 -25 50 -25 40 -7 -6 11 -11 37 -11 57 0 46 17 42
47 -11z m-285 -61 c1 -27 2 -58 2 -70 0 -12 4 -20 7 -17 4 2 10 0 14 -6 3 -6
-4 -10 -17 -11 -17 0 -14 -4 16 -15 53 -19 71 -35 54 -45 -7 -5 -23 -9 -35 -9
-13 0 -23 -5 -23 -11 0 -15 -110 -3 -155 15 -66 28 -96 108 -58 155 21 26 60
23 50 -3 -3 -7 -8 -37 -12 -67 -5 -44 -4 -58 9 -68 24 -20 32 -5 18 33 -20 54
9 146 45 146 12 0 14 -14 11 -80 -2 -44 0 -80 4 -80 3 0 15 -3 25 -7 16 -6 16
-5 4 10 -7 9 -10 17 -5 17 4 0 3 5 -4 12 -17 17 -15 60 4 108 23 56 43 53 46
-7z m-547 -23 c17 -33 20 -96 4 -105 -19 -12 -38 29 -39 83 0 58 12 66 35 22z
m101 -38 c18 -28 27 -49 20 -46 -9 4 -15 -6 -18 -28 -5 -28 4 -47 55 -123 67
-101 142 -201 158 -211 13 -8 83 41 104 73 12 17 23 23 37 20 19 -5 19 -5 1
15 -18 21 -18 21 5 9 12 -6 22 -14 22 -17 0 -16 -23 -44 -35 -44 -8 0 -24 -13
-37 -30 -12 -16 -26 -30 -31 -30 -5 0 -21 -8 -35 -18 -15 -10 -40 -24 -57 -30
l-30 -13 29 24 29 23 -52 65 c-29 35 -80 105 -113 154 -72 108 -65 100 -80 88
-7 -6 -32 -13 -56 -16 -35 -4 -41 -3 -32 8 6 7 26 16 45 19 40 8 39 5 20 42
-15 30 -20 105 -8 118 12 12 26 1 59 -52z m69 -104 c16 -24 22 -38 14 -31 -15
12 -53 73 -46 73 2 0 17 -19 32 -42z m-177 5 c2 -9 -7 -13 -28 -13 -28 0 -31
2 -20 15 15 18 41 16 48 -2z m944 -114 c22 -47 38 -69 52 -71 10 -2 21 -8 23
-14 6 -18 -47 -4 -74 19 -12 11 -23 27 -23 35 0 8 -16 33 -36 55 -26 28 -33
42 -24 47 28 17 52 -4 82 -71z m-665 -31 c72 -96 87 -118 80 -118 -4 0 -89
111 -136 178 -47 67 -11 28 56 -60z m753 -108 c13 -8 13 -10 -2 -10 -9 0 -20
5 -23 10 -8 13 5 13 25 0z m76 -92 c3 -13 15 -35 25 -50 14 -20 16 -28 7 -31
-7 -3 -2 -6 11 -6 15 -1 21 -6 18 -15 -3 -7 3 -20 14 -29 10 -9 19 -26 19 -37
0 -11 5 -20 10 -20 7 0 7 -7 -1 -21 -10 -20 -9 -21 11 -16 18 5 24 -1 37 -31
20 -49 22 -64 10 -79 -13 -18 -27 -16 -27 3 0 9 5 13 13 9 6 -4 -1 5 -17 18
-18 16 -26 29 -21 37 5 9 4 11 -3 6 -7 -4 -12 -1 -12 8 0 9 -5 15 -12 14 -7
-2 -13 8 -14 22 -1 13 -7 26 -13 28 -9 3 -8 8 1 20 8 9 8 13 2 9 -7 -4 -19 4
-28 18 -18 27 -21 39 -7 30 5 -3 12 -1 16 5 3 5 -3 10 -14 10 -12 0 -20 6 -18
13 1 6 -4 11 -10 10 -16 -4 -16 2 -3 27 8 16 8 18 -5 14 -10 -4 -15 0 -15 11
0 10 5 14 13 10 6 -4 0 5 -15 18 -15 14 -24 27 -21 31 10 10 41 -13 49 -36z
m-523 15 c-7 -2 -19 -2 -25 0 -7 3 -2 5 12 5 14 0 19 -2 13 -5z m-296 -9 c-3
-3 -12 -4 -19 -1 -8 3 -5 6 6 6 11 1 17 -2 13 -5z m331 -26 c2 -13 -3 -18 -19
-18 -13 0 -40 -19 -68 -47 -53 -55 -99 -83 -109 -67 -4 6 -14 14 -22 17 -8 3
-1 6 15 6 17 1 41 8 53 17 l22 15 -36 47 -36 47 39 -42 40 -42 34 29 c19 16
30 29 25 30 -5 0 -3 7 4 15 17 20 54 15 58 -7z m-189 -93 c1 -5 -15 8 -34 30
-19 22 -34 45 -34 50 -1 6 15 -8 34 -30 19 -22 34 -44 34 -50z m418 -361 c106
-105 193 -195 193 -199 0 -21 -338 315 -450 450 -60 71 -57 74 4 6 33 -36 147
-152 253 -257z m-132 38 c60 -63 161 -159 223 -214 61 -55 112 -105 112 -112
0 -7 -3 -7 -8 -1 -4 6 -65 63 -137 126 -135 121 -248 235 -350 354 -84 99 -91
114 -15 31 35 -39 114 -122 175 -184z m591 93 c4 -8 3 -23 -2 -32 -4 -10 -7
-21 -6 -25 1 -4 -5 -5 -14 -1 -8 3 -12 8 -10 11 3 3 1 11 -5 19 -12 14 3 43
23 43 5 0 11 -7 14 -15z m78 -157 c8 -41 -24 -76 -78 -85 -30 -5 -41 -2 -57
16 -12 12 -19 24 -16 27 7 8 131 74 138 74 4 0 9 -14 13 -32z m-515 -491 c-2
-1 -13 -9 -24 -17 -19 -14 -19 -14 -6 3 7 9 18 17 24 17 6 0 8 -1 6 -3z m-515
-197 c32 -34 93 -130 83 -130 -3 0 -19 24 -36 54 -19 33 -52 70 -86 95 -30 23
-55 44 -55 47 0 11 62 -32 94 -66z m406 -54 c0 -3 -4 -8 -10 -11 -5 -3 -10 -1
-10 4 0 6 5 11 10 11 6 0 10 -2 10 -4z m-302 -111 c-3 -3 -9 2 -12 12 -6 14
-5 15 5 6 7 -7 10 -15 7 -18z m112 -50 c11 -13 8 -13 -19 -4 -35 12 -40 19
-12 19 10 0 24 -7 31 -15z m70 -15 c12 -8 12 -10 -5 -10 -11 0 -27 5 -35 10
-12 8 -12 10 5 10 11 0 27 -5 35 -10z m390 -288 c-8 -4 -26 -14 -40 -23 -14
-10 -57 -25 -97 -35 -39 -10 -70 -21 -68 -24 2 -3 -21 -3 -50 -2 -29 2 -69 -1
-89 -6 -21 -6 -38 -7 -42 -1 -3 5 -11 9 -17 9 -7 0 -6 -4 3 -10 13 -8 12 -10
-2 -10 -10 0 -18 4 -18 8 0 5 -42 7 -92 6 -111 -3 -85 2 162 36 85 12 196 30
245 40 98 20 131 24 105 12z m-430 -102 c0 -5 -4 -10 -10 -10 -5 0 -10 5 -10
10 0 6 5 10 10 10 6 0 10 -4 10 -10z m-340 -82 c1 -2 5 -68 10 -148 7 -123 7
-147 -6 -161 -13 -14 -13 -32 -4 -122 6 -58 9 -157 8 -220 -3 -110 -4 -113
-25 -109 -19 4 -22 11 -25 81 -3 42 0 138 5 215 7 105 6 140 -3 146 -8 5 -10
47 -4 164 6 143 8 156 25 156 11 0 19 -1 19 -2z m440 -352 c0 -2 -15 -6 -34
-8 -19 -2 -32 0 -30 4 5 8 64 12 64 4z m-17 -213 c14 -8 -4 -23 -28 -23 -13 0
-36 5 -52 11 -26 10 -27 12 -8 20 18 7 69 3 88 -8z m34 -139 c2 -6 -8 -16 -22
-24 -19 -10 -30 -11 -50 -2 -33 15 -32 30 3 35 40 6 65 3 69 -9z m-629 -3 c10
-6 5 -10 -17 -14 -38 -8 -70 1 -49 14 17 11 49 11 66 0z"/>
</g>
</svg>
