<?xml version="1.0" encoding="UTF-8"?>
<svg id="_图层_1" data-name="图层 1" xmlns="http://www.w3.org/2000/svg" version="1.1" viewBox="0 0 1024 1024">
  <path d="M684,523c1.2,1,2.2,2.2,3.5,3.1,16.3,11.2,32.6,22.4,49,33.6,3.5,2.4,5.9,1.8,8-2.2,3.2-6.4,6.6-12.7,10.3-18.8,6.2-10,16.9-13.1,26.2-7.8,9.3,5.4,12,16.7,6.5,27-2.8,5.1-5.6,10.2-8.4,15.3-2.1,3.7-1.3,6,2.9,6.9,9.9,2.3,19.7,4.7,29.6,7,10.5,2.4,16.6,9.1,16.7,18.3.2,13.4-9.2,21.2-22.4,19.2-36.7-5.6-69.7-20.5-101.1-39.4-23.2-13.9-44.7-30.1-62.6-50.7-.7-.8-1.5-1.4-1.9-2.3-7-15-20.5-11.1-32.5-11-1.2,0-2.8,2.1-3.4,3.5-.6,1.4-.3,3.3-.3,4.9,0,25,0,50,0,75,0,14.5-12.8,23.2-26.1,18-7.1-2.8-10.7-8.1-11.1-15.7-.2-3.8-.2-7.7-.2-11.5,0-62.7,0-125.3,0-188s0-2,0-3c0-6.5-.9-7-6.9-3.9-8.9,4.6-17.7,9.1-26.6,13.6-2.1,1-4.2,2.1-6.4,2.7-10.1,3.1-19.7-.9-23.5-9.7-4.2-9.9-.7-19.9,9-25,6.8-3.6,13.8-6.6,20.5-10.2,49.4-26.6,91.5-61.6,125.1-106.6,9.6-12.9,22.8-13.4,33.5-.9,33.9,39.7,73.5,72.4,119.6,96.7,14.5,7.6,30,13.3,45.2,19.7,6.5,2.8,11.9,6.5,13.5,14.1,2.9,13.7-9.2,26.1-22.5,22-13.4-4.2-26.4-9.9-39.5-15.2-6.7-2.7-7.3-2.6-7.3,4.7,0,31.5,0,63,0,94.5,0,13.3-6.7,20-20,20-29.6,0-59.3,0-88.9,0-2.3,0-4.7.4-7,.6-.1.4-.2.9-.3,1.3ZM682.2,483.2c8.8,0,17.6,0,26.4,0,15.1,0,30.3.2,45.4.3,7.6,0,8.4-.7,8.4-8.1,0-17,0-34,0-51,0-6.6-.8-7.4-7.6-7.4-31.8,0-63.6,0-95.4,0-16.3,0-32.6,0-48.9.3-2,0-5.1,1.1-5.7,2.5-3,6.9,0,11.2,7.5,11.4,1.5,0,3,0,4.5,0,35.3,0,70.6,0,105.9,0,6.5,0,13-.2,19.5,0,8.5.3,14.4,4.8,17.6,12.6,3,7.3.8,13.7-4.3,19.3-4.1,4.5-9.4,5.9-15.3,5.9-42.8,0-85.6,0-128.3,0-7.2,0-7.8.7-7.9,8.1,0,5.8.3,6.1,7.8,6.1,23.5,0,46.9,0,70.4,0ZM763.6,378.7c-1.3-1.2-1.9-1.9-2.6-2.5-9-6.3-18-12.6-26.9-19-3.3-2.4-5.1-2.1-6.4,2.1-2.4,8-8.1,12.4-16.4,13.2-3.8.3-7.6,0-11.4,0-17.3,0-34.6-.1-51.9,0-9.7.1-16.7-3.6-20.4-12.8-.5-1.3-1.4-2.5-2.5-4.3-9.9,7.7-19.3,15.1-29.9,23.3h168.4ZM703.3,333.8c-8.6-9-16.5-17.1-24.1-25.4-2.9-3.1-4.8-2.5-7.2.2-6,6.7-12.1,13.3-18.1,19.9-1.5,1.6-3,3.2-5,5.3h54.4Z" fill="#fff" stroke-width="0"/>
  <path d="M441.4,457c0,51,0,102,0,153,0,2.5-.1,5-.5,7.5-1.8,10.4-8.5,16-19,16-10,0-17.9-6.6-19.4-16.6-.4-2.9-.6-6-.6-9,0-92.5,0-185,0-277.5,0-1.8,0-3.7,0-5.5.1-3.6-1.5-5.2-5.1-5-1.5,0-3,0-4.5,0-55.8,0-111.6,0-167.3,0-8.5,0-8.6.2-7.9,8.7,2.4,27.7,5.6,55.4,6.9,83.1,1,20.6-.3,41.3-1.1,61.9-1.8,46.7-11.7,91.7-29.6,134.9-5.3,12.9-16.4,17.1-28.3,10.8-7.8-4.1-11.6-12.1-9.2-21.1,2.7-9.8,6-19.4,9.5-28.9,9.4-25,14.7-50.8,16.4-77.4,1.5-24.1,3.3-48.2,2.8-72.3-.6-25.7-3.7-51.4-6-77.1-1.1-12.4-3.1-24.8-4.3-37.2-1.7-17,5.7-25,22.7-25,72.8,0,145.5,0,218.3,0,20.8,0,26.5,5.7,26.5,26.3,0,50.2,0,100.3,0,150.5Z" fill="#fff" stroke-width="0"/>
  <path d="M278.8,526.9c-7.1-.4-14.3-.5-21.4-1.1-11.8-1-20-9.8-19.4-20.6.6-11.1,9.7-19.1,21.8-18.4,32.7,2,64.3-2.6,94.7-15.1,11.1-4.5,21.9.4,26.2,11.2,4.1,10.3-.3,20.5-11.2,25.3-26,11.5-53.4,17.2-81.8,18.2-3,.1-6,.3-9,.4Z" fill="#fff" stroke-width="0"/>
  <path d="M279.2,432.8c-6.4-.3-12.5-.5-18.7-.9-12.4-.8-20.2-8.9-19.6-20.1.7-12.1,9-19.6,21.7-18.9,31.5,1.8,62-2.5,91.5-13.8,2.5-.9,5-1.8,7.6-2.2,10.6-1.9,18.9,3.1,22.3,13,3.2,9.5-.8,19.3-10.4,23.7-7.5,3.4-15.5,6.1-23.4,8.5-23.2,7.2-47.1,9.7-71,10.6Z" fill="#fff" stroke-width="0"/>
</svg>