<svg width="66" height="61" viewBox="0 0 66 61" fill="none" xmlns="http://www.w3.org/2000/svg">
<g filter="url(#filter0_di_1733_41)">
<path d="M4.84316 1.61503C5.74254 3.52914 21.4816 32.5399 21.7626 32.7792C21.9875 33.0184 24.8542 27.6948 24.8542 27.0368C24.8542 26.4387 11.7009 2.03374 10.6891 0.717792C10.3518 0.29908 8.83413 0 7.0916 0H4L4.84316 1.61503Z" fill="#173BCD"/>
<path d="M15.9166 1.31594C16.5912 2.75152 27.1588 22.3114 27.3837 22.6104C27.6085 22.9095 30.4752 17.227 30.419 16.5092C30.419 16.1503 28.4517 12.3221 26.0908 8.07515L21.7626 0.299064L18.5023 0.119616C15.2421 -0.0598316 15.2421 -0.0598316 15.9166 1.31594Z" fill="#173BCD"/>
<path d="M40.3684 7.47697C38.3448 11.2454 36.6585 14.5951 36.6585 14.954C36.6585 15.3727 37.7265 15.5521 39.5815 15.4325L42.5607 15.2531L44.6405 11.4248C45.7647 9.33127 47.0013 7.29753 47.3386 6.93863C48.1255 6.1012 51.9479 5.98157 51.723 6.87881C51.6106 7.23771 50.1491 10.1089 48.4628 13.3389L45.3712 19.1411H33.9604L29.1263 28.2331L24.2921 37.2653L28.5642 45.2807C30.925 49.7071 33.0048 53.1166 33.1734 52.9969C33.2859 52.8175 36.2088 47.6135 39.5815 41.4525L45.6522 30.2071L42.7855 30.0276C41.1554 29.908 39.6377 30.0874 39.3566 30.3865C39.0194 30.7454 37.6141 33.1979 36.0964 35.9494C34.6349 38.7009 33.2297 40.9141 33.0048 40.8543C32.78 40.8543 32.1054 40.0169 31.5433 39.0598L30.5877 37.385L33.7918 31.4034L37.052 25.4218L48.6314 24.8236L54.7584 13.4586C58.1873 7.17789 61.054 1.73464 61.2227 1.31592C61.4475 0.77758 59.5363 0.598132 52.791 0.598132H44.1346L40.3684 7.47697Z" fill="#173BCD"/>
<path d="M4.84316 1.61503C5.74254 3.52914 21.4816 32.5399 21.7626 32.7792C21.9875 33.0184 24.8542 27.6948 24.8542 27.0368C24.8542 26.4387 11.7009 2.03374 10.6891 0.717792C10.3518 0.29908 8.83413 0 7.0916 0H4L4.84316 1.61503Z" fill="#173BCD"/>
<path d="M15.9166 1.31594C16.5912 2.75152 27.1588 22.3114 27.3837 22.6104C27.6085 22.9095 30.4752 17.227 30.419 16.5092C30.419 16.1503 28.4517 12.3221 26.0908 8.07515L21.7626 0.299064L18.5023 0.119616C15.2421 -0.0598316 15.2421 -0.0598316 15.9166 1.31594Z" fill="#173BCD"/>
<path d="M40.3684 7.47697C38.3448 11.2454 36.6585 14.5951 36.6585 14.954C36.6585 15.3727 37.7265 15.5521 39.5815 15.4325L42.5607 15.2531L44.6405 11.4248C45.7647 9.33127 47.0013 7.29753 47.3386 6.93863C48.1255 6.1012 51.9479 5.98157 51.723 6.87881C51.6106 7.23771 50.1491 10.1089 48.4628 13.3389L45.3712 19.1411H33.9604L29.1263 28.2331L24.2921 37.2653L28.5642 45.2807C30.925 49.7071 33.0048 53.1166 33.1734 52.9969C33.2859 52.8175 36.2088 47.6135 39.5815 41.4525L45.6522 30.2071L42.7855 30.0276C41.1554 29.908 39.6377 30.0874 39.3566 30.3865C39.0194 30.7454 37.6141 33.1979 36.0964 35.9494C34.6349 38.7009 33.2297 40.9141 33.0048 40.8543C32.78 40.8543 32.1054 40.0169 31.5433 39.0598L30.5877 37.385L33.7918 31.4034L37.052 25.4218L48.6314 24.8236L54.7584 13.4586C58.1873 7.17789 61.054 1.73464 61.2227 1.31592C61.4475 0.77758 59.5363 0.598132 52.791 0.598132H44.1346L40.3684 7.47697Z" fill="#173BCD"/>
</g>
<defs>
<filter id="filter0_di_1733_41" x="0" y="0" width="65.2402" height="61" filterUnits="userSpaceOnUse" color-interpolation-filters="sRGB">
<feFlood flood-opacity="0" result="BackgroundImageFix"/>
<feColorMatrix in="SourceAlpha" type="matrix" values="0 0 0 0 0 0 0 0 0 0 0 0 0 0 0 0 0 0 127 0" result="hardAlpha"/>
<feOffset dy="4"/>
<feGaussianBlur stdDeviation="2"/>
<feComposite in2="hardAlpha" operator="out"/>
<feColorMatrix type="matrix" values="0 0 0 0 0 0 0 0 0 0 0 0 0 0 0 0 0 0 0.25 0"/>
<feBlend mode="normal" in2="BackgroundImageFix" result="effect1_dropShadow_1733_41"/>
<feBlend mode="normal" in="SourceGraphic" in2="effect1_dropShadow_1733_41" result="shape"/>
<feColorMatrix in="SourceAlpha" type="matrix" values="0 0 0 0 0 0 0 0 0 0 0 0 0 0 0 0 0 0 127 0" result="hardAlpha"/>
<feOffset dy="1.83787"/>
<feGaussianBlur stdDeviation="0.918935"/>
<feComposite in2="hardAlpha" operator="arithmetic" k2="-1" k3="1"/>
<feColorMatrix type="matrix" values="0 0 0 0 0 0 0 0 0 0 0 0 0 0 0 0 0 0 0.25 0"/>
<feBlend mode="normal" in2="shape" result="effect2_innerShadow_1733_41"/>
</filter>
</defs>
</svg>
