<?xml version="1.0" encoding="UTF-8" standalone="no" ?>
<!DOCTYPE svg PUBLIC "-//W3C//DTD SVG 1.1//EN" "http://www.w3.org/Graphics/SVG/1.1/DTD/svg11.dtd">
<svg xmlns="http://www.w3.org/2000/svg" xmlns:xlink="http://www.w3.org/1999/xlink" version="1.1" width="1080" height="1080" viewBox="0 0 1080 1080" xml:space="preserve">
<desc>Created with Fabric.js 5.2.4</desc>
<defs>
</defs>
<rect x="0" y="0" width="100%" height="100%" fill="transparent"></rect>
<g transform="matrix(1 0 0 1 540 540)" id="94f19549-5b66-4b77-828c-34a3f36bc556"  >
<rect style="stroke: none; stroke-width: 1; stroke-dasharray: none; stroke-linecap: butt; stroke-dashoffset: 0; stroke-linejoin: miter; stroke-miterlimit: 4; fill: rgb(255,255,255); fill-rule: nonzero; opacity: 1; visibility: hidden;" vector-effect="non-scaling-stroke"  x="-540" y="-540" rx="0" ry="0" width="1080" height="1080" />
</g>
<g transform="matrix(1 0 0 1 540 540)" id="b07b6226-d70b-4566-9a7e-0b3aacc8d22e"  >
</g>
<g transform="matrix(2.11 0 0 2.11 540 540)" id="SVGRepo_iconCarrier"  >
<path style="stroke: none; stroke-width: 1; stroke-dasharray: none; stroke-linecap: butt; stroke-dashoffset: 0; stroke-linejoin: miter; stroke-miterlimit: 4; fill: rgb(0,0,0); fill-rule: nonzero; opacity: 1;"  transform=" translate(-256, -102.14)" d="M 99.55552 190.060579 L 99.55552 204.282819 L 0 204.282819 L 0 190.060579 L 99.55552 190.060579 Z M 255.1384 190.059939 C 245.151671 199.241068 232.070596 204.31949 218.50496 204.282019 L 218.50496 204.282019 L 113.77792 204.141379 L 113.77792 190.059939 Z M 403.1664 190.059779 L 398.2 204.282179 L 393.2784 190.059779 L 403.1664 190.059779 Z M 355.55584 190.060579 L 355.55584 204.282819 L 284.44464 204.282819 L 284.44464 190.060579 L 355.55584 190.060579 Z M 512 190.060579 L 512 204.282819 L 440.8888 204.282819 L 440.8888 190.060579 L 512 190.060579 Z M 271.24672 162.908899 C 270.026362 167.89787 268.099708 172.686973 265.52512 177.131139 L 265.52512 177.131139 L 113.77792 177.131139 L 113.77792 162.908899 Z M 412.6976 162.909379 L 407.7056 177.131779 L 388.7392 177.131779 L 383.7472 162.909379 L 412.6976 162.909379 Z M 355.55584 162.908899 L 355.55584 177.131139 L 284.44464 177.131139 L 284.44464 162.908899 L 355.55584 162.908899 Z M 512 162.908899 L 512 177.131139 L 440.8888 177.131139 L 440.8888 162.908899 L 512 162.908899 Z M 99.55552 162.908899 L 99.55552 177.131139 L 0 177.131139 L 0 162.908899 L 99.55552 162.908899 Z M 71.11104 135.757379 L 71.11104 149.979779 L 28.44432 149.979779 L 28.44432 135.757379 L 71.11104 135.757379 Z M 184.88896 135.757379 L 184.88896 149.979779 L 142.22224 149.979779 L 142.22224 135.757379 L 184.88896 135.757379 Z M 270.90576 135.757379 C 272.166041 140.393192 272.805755 145.175711 272.80816 149.979779 L 272.80816 149.979779 L 224.96976 149.979779 L 224.96976 135.757379 Z M 422.2304 135.757379 L 417.2368 149.979779 L 379.208 149.979779 L 374.2144 135.757379 L 422.2304 135.757379 Z M 355.55568 135.757379 L 355.55568 149.979779 L 312.88896 149.979779 L 312.88896 135.757379 L 355.55568 135.757379 Z M 483.55552 135.757379 L 483.55552 149.979779 L 440.8888 149.979779 L 440.8888 135.757379 L 483.55552 135.757379 Z M 71.11104 108.606019 L 71.11104 122.828259 L 28.44432 122.828259 L 28.44432 108.606019 L 71.11104 108.606019 Z M 355.55568 108.606019 L 355.55568 122.828259 L 312.88896 122.828259 L 312.88896 108.606019 L 355.55568 108.606019 Z M 483.55552 108.606019 L 483.55552 122.828259 L 440.8888 122.828259 L 440.8888 108.606019 L 483.55552 108.606019 Z M 253.64576 108.605379 C 258.382421 112.634795 262.394807 117.444874 265.50928 122.827459 L 265.50928 122.827459 L 142.22176 122.827459 L 142.22176 108.605379 Z M 431.7616 108.605379 L 426.7696 122.827779 L 369.6752 122.827779 L 364.6832 108.605379 L 431.7616 108.605379 Z M 394.224 81.4549786 L 398.2224 92.9509786 L 402.2192 81.4549786 L 483.5552 81.4549786 L 483.5552 95.6773786 L 440.8896 95.6773786 L 440.8896 82.6085786 L 436.3008 95.6773786 L 360.144 95.6773786 L 355.5552 82.6069786 L 355.5552 95.6773786 L 312.8896 95.6773786 L 312.8896 81.4549786 L 394.224 81.4549786 Z M 142.22224 81.4543386 L 265.51024 81.4551386 C 262.395586 86.8377816 258.383042 91.6479099 253.64624 95.6773786 L 253.64624 95.6773786 L 142.22224 95.6773786 L 142.22224 81.4543386 Z M 71.11104 81.4543386 L 71.11104 95.6765786 L 28.44432 95.6765786 L 28.44432 81.4543386 L 71.11104 81.4543386 Z M 71.11104 54.3029786 L 71.11104 68.5252186 L 28.44432 68.5252186 L 28.44432 54.3029786 L 71.11104 54.3029786 Z M 184.88896 54.3029786 L 184.88896 68.5252186 L 142.22224 68.5252186 L 142.22224 54.3029786 L 184.88896 54.3029786 Z M 272.80816 54.3031386 C 272.805733 59.1071522 272.166019 63.8896155 270.90576 68.5253786 L 270.90576 68.5253786 L 224.96976 68.5253786 L 224.96976 54.3031386 Z M 384.7824 54.3029786 L 389.728 68.5253786 L 312.8896 68.5253786 L 312.8896 54.3029786 L 384.7824 54.3029786 Z M 483.5552 54.3029786 L 483.5552 68.5253786 L 406.7168 68.5253786 L 411.6624 54.3029786 L 483.5552 54.3029786 Z M 99.55552 27.1514586 L 99.55552 41.3736986 L 0 41.3736986 L 0 27.1514586 L 99.55552 27.1514586 Z M 265.52512 27.1514586 C 268.099627 31.5955505 270.026276 36.3845354 271.24672 41.3733786 L 271.24672 41.3733786 L 113.77792 41.3733786 L 113.77792 27.1514586 Z M 512 27.1509786 L 512 41.3733786 L 416.1584 41.3733786 L 421.104 27.1509786 L 512 27.1509786 Z M 375.3408 27.1509786 L 380.2864 41.3733786 L 284.4448 41.3733786 L 284.4448 27.1509786 L 375.3408 27.1509786 Z M 99.55552 0.0000985716419 L 99.55552 14.2223386 L 0 14.2223386 L 0 0.0000985716419 L 99.55552 0.0000985716419 Z M 218.50496 0.0000491529226 C 232.066886 -0.0182214039 245.141087 5.05759937 255.13792 14.2221786 L 255.13792 14.2221786 L 113.77792 14.2221786 L 113.77792 0.0000491529226 Z M 512 0.000578571642 L 512 14.2229786 L 425.6 14.2229786 L 430.5456 0.000578571642 L 512 0.000578571642 Z M 365.8992 0.000578571642 L 370.8448 14.2229786 L 284.4448 14.2229786 L 284.4448 0.000578571642 L 365.8992 0.000578571642 Z" stroke-linecap="round" />
</g>
</svg>