<?xml version="1.0" encoding="UTF-8" standalone="no" ?>
<!DOCTYPE svg PUBLIC "-//W3C//DTD SVG 1.1//EN" "http://www.w3.org/Graphics/SVG/1.1/DTD/svg11.dtd">
<svg xmlns="http://www.w3.org/2000/svg" xmlns:xlink="http://www.w3.org/1999/xlink" version="1.1" width="1200" height="240" viewBox="0 0 1200 240" xml:space="preserve">
<desc>Created with Fabric.js 5.2.4</desc>
<defs>
</defs>
<g transform="matrix(1 0 0 1 600 120)" id="000fd22b-7911-4563-8c08-1a6676f87295"  >
<rect style="stroke: none; stroke-width: 1; stroke-dasharray: none; stroke-linecap: butt; stroke-dashoffset: 0; stroke-linejoin: miter; stroke-miterlimit: 4; fill: rgb(255,255,255); fill-rule: nonzero; opacity: 1; visibility: hidden;" vector-effect="non-scaling-stroke"  x="-600" y="-120" rx="0" ry="0" width="1200" height="240" />
</g>
<g transform="matrix(Infinity NaN NaN Infinity 0 0)" id="ff3fb4a3-66c0-465f-8895-aa6ebd37208b"  >
</g>
<g transform="matrix(NaN NaN NaN NaN 0 0)"  >
<g style=""   >
</g>
</g>
<g transform="matrix(NaN NaN NaN NaN 0 0)"  >
<g style=""   >
</g>
</g>
<g transform="matrix(NaN NaN NaN NaN 0 0)"  >
<g style=""   >
</g>
</g>
<g transform="matrix(19.43 0 0 19.43 258.99 120.45)" id="SVGRepo_iconCarrier"  >
<path style="stroke: none; stroke-width: 1; stroke-dasharray: none; stroke-linecap: butt; stroke-dashoffset: 0; stroke-linejoin: miter; stroke-miterlimit: 4; fill: rgb(0,0,0); fill-rule: nonzero; opacity: 1;"  transform=" translate(-12, -12)" d="M 0 16.144 L 4.667 16.144 L 4.667 16.811999999999998 L 0 16.811999999999998 z M 0 14.862 L 4.667 14.862 L 4.667 15.532 L 0 15.532 z M 1.33 13.583 L 3.333 13.583 L 3.333 14.254 L 1.33 14.254 z M 1.33 12.305 L 3.333 12.305 L 3.333 12.975 L 1.33 12.975 z M 1.33 11.025 L 3.333 11.025 L 3.333 11.696 L 1.33 11.696 z M 1.33 9.744 L 3.333 9.744 L 3.333 10.415 L 1.33 10.415 z M 0 8.466 L 4.667 8.466 L 4.667 9.136 L 0 9.136 z M 0 7.187 L 4.667 7.187 L 4.667 7.857 L 0 7.857 z M 5.332 15.532 L 12.509 15.532 C 12.629 15.326 12.721 15.099 12.776 14.862 L 5.333 14.862 L 5.333 15.532 z M 11.95 12.305 L 6.667 12.305 L 6.667 12.975 L 12.51 12.975 C 12.361969451739592 12.722599627069906 12.173456332749868 12.496248749429915 11.951999999999998 12.305 z M 6.666 11.025 L 6.666 11.696 L 11.951 11.696 C 12.174000000000001 11.508 12.361 11.282 12.51 11.025 L 6.666 11.025 z M 12.509 8.466 L 5.332 8.466 L 5.332 9.136 L 12.774999999999999 9.136 C 12.71463376041485 8.902443520874371 12.625272572851756 8.677360830395898 12.508999999999999 8.466 z M 10.303 7.187 L 5.332 7.187 L 5.332 7.857 L 12.017 7.857 C 11.550453154830972 7.4257476122816435 10.938330071187323 7.186469627426775 10.302999999999999 7.187 z M 6.666 9.744 L 8.666 9.744 L 8.666 10.415 L 6.666 10.415 z M 10.667 10.415 L 12.759 10.415 C 12.818 10.200999999999999 12.849 9.975 12.849 9.744 L 10.667 9.744 L 10.667 10.415 z M 6.666 13.583 L 8.665000000000001 13.583 L 8.665000000000001 14.254 L 6.665000000000001 14.254 z M 10.667 13.583 L 10.667 14.254 L 12.849 14.254 C 12.849 14.024 12.818 13.796999999999999 12.759 13.583 L 10.667 13.583 z M 5.332 16.807 L 10.302 16.814 C 10.969 16.814 11.57 16.557 12.019 16.144 L 5.332 16.144 L 5.332 16.807 z M 13.334 16.144 L 16.666 16.144 L 16.666 16.811999999999998 L 13.334 16.811999999999998 z M 13.334 14.862 L 16.666 14.862 L 16.666 15.532 L 13.334 15.532 z M 14.665 13.583 L 16.665 13.583 L 16.665 14.254 L 14.665 14.254 z M 14.665 12.305 L 16.665 12.305 L 16.665 12.975 L 14.665 12.975 z M 17.594 8.466 L 13.334000000000001 8.466 L 13.334000000000001 9.136 L 17.824 9.136 z M 17.152 7.187 L 13.334000000000001 7.187 L 13.334000000000001 7.856 L 17.382 7.856 z M 20.665 16.144 L 24 16.144 L 24 16.811999999999998 L 20.665 16.811999999999998 z M 20.665 14.862 L 24 14.862 L 24 15.532 L 20.665 15.532 z M 20.665 13.583 L 22.665 13.583 L 22.665 14.254 L 20.665 14.254 z M 20.665 12.305 L 22.665 12.305 L 22.665 12.975 L 20.665 12.975 z M 20.665 11.696 L 22.665 11.696 L 22.665 11.025 L 18.854 11.025 L 18.666 11.567 L 18.478 11.025 L 14.665 11.025 L 14.665 11.696 L 16.665 11.696 L 16.665 11.08 L 16.878 11.696 L 20.453 11.696 L 20.665 11.08 z M 22.666 9.744 L 19.296 9.744 L 19.066 10.415 L 22.666 10.415 z M 20.183 7.187 L 19.951999999999998 7.856 L 24 7.856 L 24 7.186999999999999 z M 18.666 16.807 L 18.896 16.144 L 18.435000000000002 16.144 z M 18.224 15.532 L 19.108 15.532 L 19.346 14.862 L 17.989 14.862 z M 17.775 14.254 L 19.557 14.254 L 19.791999999999998 13.583 L 17.538999999999998 13.583 z M 17.327 12.975 L 20.006 12.975 L 20.235 12.305 L 17.097 12.305 z M 14.665 10.415 L 18.267 10.415 L 18.035999999999998 9.744 L 14.664999999999997 9.744 z M 19.51 9.136 L 24 9.136 L 24 8.466 L 19.738 8.466 z" stroke-linecap="round" />
</g>
<g transform="matrix(NaN NaN NaN NaN 0 0)"  >
<g style=""   >
</g>
</g>
<g transform="matrix(NaN NaN NaN NaN 0 0)"  >
<g style=""   >
</g>
</g>
<g transform="matrix(1 0 0 1 848.19 166.01)"  >
<g style="" vector-effect="non-scaling-stroke"   >
		<g transform="matrix(1 0 0 1 -42.02 0)" id="path5532"  >
<path style="stroke: none; stroke-width: 0; stroke-dasharray: none; stroke-linecap: butt; stroke-dashoffset: 0; stroke-linejoin: miter; stroke-miterlimit: 4; fill: rgb(22,22,22); fill-rule: nonzero; opacity: 1;" vector-effect="non-scaling-stroke"  transform=" translate(-258, -132.18)" d="M 447.08 177.66 L 447.08 130.44 C 447.08 123.22 453.60999999999996 119.75 460.27 119.75 C 467.77 119.75 470.40999999999997 124.33 470.40999999999997 133.64 L 470.40999999999997 177.67 L 490.96999999999997 177.67 L 490.96999999999997 131.98 C 490.96999999999997 113.64999999999999 483.04999999999995 103.08999999999999 468.18999999999994 103.08999999999999 C 456.65999999999997 103.08999999999999 450.54999999999995 109.47999999999999 447.90999999999997 117.11999999999999 L 447.08 117.11999999999999 L 447.08 104.75999999999999 L 426.52 104.75999999999999 L 426.52 177.68 L 447.08 177.68 Z M 377.78 179.32 C 399.16999999999996 179.32 411.95 164.6 411.95 141.13 C 411.95 117.66 399.17 103.07 377.78 103.07 C 356.38999999999993 103.07 343.60999999999996 117.64999999999999 343.60999999999996 141.13 C 343.60999999999996 164.61 356.38999999999993 179.32 377.78 179.32 Z M 377.78 163.07 C 369.71999999999997 163.07 365 157.79 365 148.63 L 365 133.76999999999998 C 365 124.59999999999998 369.72 119.32999999999998 377.78 119.32999999999998 C 385.8399999999999 119.32999999999998 390.55999999999995 124.60999999999999 390.55999999999995 133.76999999999998 L 390.55999999999995 148.63 C 390.55999999999995 157.79999999999998 385.8399999999999 163.07 377.78 163.07 Z M 302.92 179.32 C 321.67 179.32 334.17 169.04 334.17 155.01 C 334.17 142.37 325.98 135.14999999999998 310.14 133.07 L 301.95 131.95999999999998 C 295.97999999999996 131.12999999999997 294.31 129.04 294.31 125.14999999999998 C 294.31 121.53999999999998 297.09 119.03999999999998 304.03000000000003 119.03999999999998 C 310.14000000000004 119.03999999999998 316.25000000000006 121.95999999999998 320.84000000000003 126.53999999999998 L 332.65000000000003 114.45999999999998 C 325.29 107.23999999999998 318.21000000000004 103.06999999999998 302.93000000000006 103.06999999999998 C 285.57000000000005 103.06999999999998 274.6000000000001 112.78999999999998 274.6000000000001 126.81999999999998 C 274.6000000000001 140.01 282.6600000000001 147.23999999999998 299.18000000000006 149.32 L 307.1000000000001 150.29 C 312.24000000000007 150.98 314.4600000000001 152.79 314.4600000000001 156.4 C 314.4600000000001 160.71 311.6800000000001 163.34 303.6300000000001 163.34 C 295.5800000000001 163.34 289.4600000000001 159.73 284.3200000000001 154.03 L 272.2400000000001 166.25 C 279.7400000000001 174.58 288.91000000000014 179.31 302.9300000000001 179.31 L 302.9300000000001 179.31 Z M 262.78 177.66 L 262.78 161.69 L 249.44999999999996 161.69 L 249.44999999999996 120.72 L 263.89 120.72 L 263.89 104.75 L 249.45 104.75 L 249.45 85.03 L 230.98 85.03 L 230.98 96.97 C 230.98 101.97 229.31 104.75 223.76 104.75 L 218.62 104.75 L 218.62 120.72 L 228.9 120.72 L 228.9 156.41 C 228.9 170.3 236.4 177.66 250.57 177.66 L 262.79 177.66 Z M 212.08 177.66 L 212.08 161.69 L 205.27 161.69 L 205.27 129.75 C 205.27 112.53 194.71 103.08 174.16000000000003 103.08 C 158.88000000000002 103.08 150.55 108.36 144.72000000000003 116.97 L 156.94000000000003 127.8 C 160.13000000000002 123.36 164.44000000000003 119.19 172.63000000000002 119.19 C 181.24 119.19 184.71000000000004 123.63 184.71000000000004 130.72 L 184.71000000000004 135.3 L 173.18000000000004 135.3 C 153.87000000000003 135.3 141.93000000000004 142.66000000000003 141.93000000000004 158.08 C 141.93000000000004 170.72000000000003 149.99000000000004 179.33 164.57000000000005 179.33 C 175.68000000000006 179.33 183.74000000000007 174.33 185.96000000000004 164.89000000000001 L 186.79000000000005 164.89000000000001 C 188.04000000000005 172.67000000000002 193.32000000000005 177.67000000000002 200.68000000000006 177.67000000000002 L 212.07000000000005 177.67000000000002 Z M 172.22 165.02 C 166.10999999999999 165.02 162.64 162.52 162.64 157.24 L 162.64 155.16 C 162.64 149.88 166.80999999999997 146.97 174.72 146.97 L 184.72 146.97 L 184.72 155.57999999999998 C 184.72 162.24999999999997 179.03 165.01999999999998 172.22 165.01999999999998 Z M 45.42 177.66 L 66.53 177.66 L 75.42 146.82999999999998 L 80.42 127.93999999999998 L 80.84 127.93999999999998 L 85.98 146.82999999999998 L 94.87 177.65999999999997 L 116.4 177.65999999999997 L 136.54000000000002 104.73999999999997 L 117.51000000000002 104.73999999999997 L 110.43000000000002 134.17999999999998 L 105.43000000000002 156.39999999999998 L 104.87000000000002 156.39999999999998 L 98.90000000000002 134.17999999999998 L 90.43000000000002 104.73999999999998 L 71.68000000000002 104.73999999999998 L 63.35000000000002 134.17999999999998 L 57.520000000000024 156.39999999999998 L 56.96000000000002 156.39999999999998 L 51.96000000000002 134.17999999999998 L 44.880000000000024 104.73999999999998 L 25.020000000000024 104.73999999999998 L 45.440000000000026 177.65999999999997 Z" stroke-linecap="round" />
</g>
		<g transform="matrix(1 0 0 1 238.6 9.02)" id="path5534"  >
<path style="stroke: none; stroke-width: 0; stroke-dasharray: none; stroke-linecap: butt; stroke-dashoffset: 0; stroke-linejoin: miter; stroke-miterlimit: 4; fill: rgb(15,98,254); fill-rule: nonzero; opacity: 1;" vector-effect="non-scaling-stroke"  transform=" translate(-538.61, -141.2)" d="M 523.61 177.66 L 537.08 153.91 L 537.64 153.91 L 551.67 177.66 L 575 177.66 L 550.69 141.26999999999998 L 574.86 104.73999999999998 L 553.19 104.73999999999998 L 540 127.65999999999998 L 539.44 127.65999999999998 L 525.83 104.73999999999998 L 502.50000000000006 104.73999999999998 L 526.25 140.57 L 502.22 177.64999999999998 L 523.61 177.64999999999998 Z" stroke-linecap="round" />
</g>
</g>
</g>
</svg>