<svg width="112" height="24" viewBox="0 0 112 24" fill="none" xmlns="http://www.w3.org/2000/svg">
<path d="M57.4336 17.092C56.4746 16.5453 55.7216 15.7924 55.1749 14.8244C54.6283 13.8564 54.3594 12.763 54.3594 11.544C54.3594 10.3251 54.6283 9.2137 55.1749 8.24571C55.7216 7.27772 56.4746 6.52485 57.4336 5.98708C58.3926 5.4493 59.4861 5.18042 60.6961 5.18042C61.6999 5.18042 62.623 5.3776 63.4476 5.77197C64.2722 6.16633 64.9445 6.73995 65.4554 7.49284L64.568 8.13816C64.1199 7.51076 63.5642 7.04469 62.9009 6.731C62.2377 6.41729 61.5027 6.26492 60.705 6.26492C59.7281 6.26492 58.8498 6.48899 58.0789 6.92818C57.2992 7.36736 56.6986 7.98579 56.2505 8.79244C55.8113 9.59014 55.5872 10.5133 55.5872 11.553C55.5872 12.5926 55.8113 13.5159 56.2505 14.3136C56.6896 15.1112 57.2992 15.7297 58.0789 16.1778C58.8587 16.617 59.7281 16.8411 60.705 16.8411C61.5027 16.8411 62.2377 16.6888 62.9009 16.375C63.5642 16.0613 64.1199 15.5953 64.568 14.9678L65.4554 15.6132C64.9445 16.366 64.2722 16.9396 63.4476 17.334C62.623 17.7284 61.7089 17.9255 60.6961 17.9255C59.4771 17.9255 58.3926 17.6568 57.4336 17.11V17.092Z" fill="#F55036"/>
<path d="M67.2754 0H68.4763V17.8181H67.2754V0Z" fill="#F55036"/>
<path d="M73.6754 17.092C72.7254 16.5454 71.9725 15.7924 71.4347 14.8244C70.888 13.8564 70.6191 12.763 70.6191 11.544C70.6191 10.3251 70.888 9.23163 71.4347 8.26364C71.9814 7.29566 72.7254 6.54277 73.6754 5.99604C74.6255 5.4493 75.6921 5.18042 76.8841 5.18042C78.0762 5.18042 79.1338 5.4493 80.0928 5.99604C81.0429 6.54277 81.7957 7.29566 82.3335 8.26364C82.8803 9.23163 83.1492 10.3251 83.1492 11.544C83.1492 12.763 82.8803 13.8564 82.3335 14.8244C81.7868 15.7924 81.0429 16.5454 80.0928 17.092C79.1427 17.6387 78.0673 17.9076 76.8841 17.9076C75.7011 17.9076 74.6344 17.6387 73.6754 17.092ZM79.4655 16.1599C80.2273 15.7118 80.8277 15.0843 81.2669 14.2867C81.7062 13.489 81.9302 12.5747 81.9302 11.553C81.9302 10.5312 81.7062 9.61703 81.2669 8.81933C80.8277 8.02164 80.2273 7.39425 79.4655 6.9461C78.7036 6.49796 77.8431 6.27389 76.8841 6.27389C75.9251 6.27389 75.0646 6.49796 74.3028 6.9461C73.5409 7.39425 72.9405 8.02164 72.5013 8.81933C72.0621 9.61703 71.838 10.5312 71.838 11.553C71.838 12.5747 72.0621 13.489 72.5013 14.2867C72.9405 15.0843 73.5409 15.7118 74.3028 16.1599C75.0646 16.608 75.9251 16.8322 76.8841 16.8322C77.8431 16.8322 78.7036 16.608 79.4655 16.1599Z" fill="#F55036"/>
<path d="M96.2799 5.27905V17.8091H95.1237V15.1203C94.7114 15.9986 94.0929 16.6887 93.2774 17.1728C92.4618 17.6567 91.5027 17.9077 90.4003 17.9077C88.769 17.9077 87.4873 17.4506 86.5553 16.5364C85.6231 15.6222 85.166 14.3136 85.166 12.6017V5.27905H86.367V12.5031C86.367 13.9102 86.7255 14.9858 87.4515 15.7207C88.1775 16.4557 89.1903 16.8232 90.4989 16.8232C91.9061 16.8232 93.0264 16.384 93.851 15.5057C94.6756 14.6272 95.0878 13.4442 95.0878 11.9563V5.27905H96.2889H96.2799Z" fill="#F55036"/>
<path d="M110.952 0V17.8181H109.777V14.8604C109.284 15.8374 108.585 16.5902 107.689 17.119C106.793 17.6479 105.78 17.9077 104.642 17.9077C103.503 17.9077 102.419 17.6389 101.469 17.0922C100.528 16.5454 99.7838 15.7925 99.246 14.8336C98.7083 13.8745 98.4395 12.781 98.4395 11.5441C98.4395 10.3073 98.7083 9.2138 99.246 8.24582C99.7838 7.27783 100.519 6.52496 101.469 5.98718C102.41 5.44941 103.468 5.18053 104.642 5.18053C105.816 5.18053 106.766 5.44044 107.653 5.96925C108.541 6.49807 109.24 7.23301 109.75 8.17411V0H110.952ZM107.295 16.16C108.057 15.7119 108.657 15.0844 109.096 14.2868C109.535 13.4891 109.759 12.5749 109.759 11.5531C109.759 10.5313 109.535 9.61713 109.096 8.81944C108.657 8.02174 108.057 7.39434 107.295 6.9462C106.533 6.49807 105.672 6.27399 104.713 6.27399C103.754 6.27399 102.894 6.49807 102.132 6.9462C101.37 7.39434 100.77 8.02174 100.331 8.81944C99.8914 9.61713 99.6673 10.5313 99.6673 11.5531C99.6673 12.5749 99.8914 13.4891 100.331 14.2868C100.77 15.0844 101.37 15.7119 102.132 16.16C102.894 16.6081 103.754 16.8322 104.713 16.8322C105.672 16.8322 106.533 16.6081 107.295 16.16Z" fill="#F55036"/>
<path d="M30.6085 5.27024C27.077 5.27024 24.209 8.13835 24.209 11.6697C24.209 15.201 27.077 18.0692 30.6085 18.0692C34.1399 18.0692 37.0079 15.201 37.0079 11.6697C37.0079 8.13835 34.1399 5.27921 30.6085 5.27024ZM30.6085 15.6672C28.4036 15.6672 26.611 13.8746 26.611 11.6697C26.611 9.46486 28.4036 7.67228 30.6085 7.67228C32.8133 7.67228 34.6059 9.46486 34.6059 11.6697C34.6059 13.8746 32.8133 15.6672 30.6085 15.6672Z" fill="black"/>
<path d="M6.45358 5.23422C2.92222 5.19837 0.036187 8.0396 0.000335591 11.571C-0.0355158 15.1023 2.80571 17.9974 6.33706 18.0242C6.37292 18.0242 6.41773 18.0242 6.45358 18.0242H8.55986V15.6311H6.45358C4.24873 15.658 2.43823 13.8923 2.41134 11.6785C2.38445 9.47365 4.15014 7.66315 6.36395 7.63626C6.39084 7.63626 6.4267 7.63626 6.45358 7.63626C8.65844 7.63626 10.46 9.42884 10.46 11.6337V17.5222C10.46 19.7092 8.67637 21.4929 6.48943 21.5197C5.44078 21.5197 4.44591 21.0895 3.71095 20.3455L2.01698 22.0395C3.1911 23.2227 4.7865 23.8949 6.45358 23.9128H6.54321C10.0298 23.859 12.8351 21.0357 12.853 17.5491V11.4724C12.7635 8.00374 9.93116 5.23422 6.46254 5.23422H6.45358Z" fill="black"/>
<path d="M51.2406 11.5082C51.151 8.03961 48.3187 5.27009 44.8501 5.27009C41.3187 5.23423 38.4237 8.07545 38.3968 11.6068C38.361 15.1382 41.2022 18.0331 44.7335 18.0601C44.7694 18.0601 44.8143 18.0601 44.8501 18.0601H46.9563V15.667H44.8501C42.6452 15.6939 40.8347 13.9282 40.8078 11.7144C40.7809 9.5095 42.5467 7.69902 44.7604 7.67213C44.7874 7.67213 44.8232 7.67213 44.8501 7.67213C47.055 7.67213 48.8565 9.46469 48.8565 11.6696V23.626L51.2406 23.6528V11.5082Z" fill="black"/>
<path d="M14.6808 18.0602H17.0649V11.6607C17.0649 9.45589 18.8575 7.66332 21.0623 7.66332C21.7883 7.66332 22.4695 7.8605 23.0611 8.2011L24.2621 6.12172C23.3209 5.57498 22.2276 5.27024 21.0713 5.27024C17.5399 5.27024 14.6719 8.13835 14.6719 11.6697V18.0692L14.6808 18.0602Z" fill="black"/>
</svg>
