<svg xmlns="http://www.w3.org/2000/svg" width="1000" height="201" viewBox="0 0 1000 201" fill="none"><script xmlns=""/>
<g clip-path="url(#clip0_872_2594)">
<path d="M481.013 143.146C472.981 138.568 466.675 132.262 462.096 124.155C457.518 116.048 455.266 106.891 455.266 96.682C455.266 86.4733 457.518 77.1654 462.096 69.0585C466.675 60.9516 472.981 54.6463 481.013 50.1425C489.044 45.6386 498.202 43.3867 508.336 43.3867C516.743 43.3867 524.474 45.0381 531.38 48.3409C538.286 51.6437 543.916 56.4478 548.195 62.7532L540.763 68.1578C537.01 62.9033 532.356 59 526.801 56.3728C521.247 53.7455 515.091 52.4694 508.411 52.4694C500.229 52.4694 492.873 54.346 486.417 58.0242C479.887 61.7023 474.857 66.8817 471.104 73.6374C467.426 80.3181 465.549 88.0497 465.549 96.7571C465.549 105.464 467.426 113.196 471.104 119.877C474.782 126.557 479.887 131.737 486.417 135.49C492.948 139.168 500.229 141.045 508.411 141.045C515.091 141.045 521.247 139.769 526.801 137.141C532.356 134.514 537.01 130.611 540.763 125.356L548.195 130.761C543.916 137.066 538.286 141.87 531.38 145.173C524.474 148.476 516.818 150.127 508.336 150.127C498.127 150.127 489.044 147.876 481.013 143.297V143.146Z" fill="#F55036"/>
<path d="M563.43 0H573.488V149.227H563.43V0Z" fill="#F55036"/>
<path d="M617.026 143.146C609.07 138.568 602.764 132.262 598.26 124.155C593.682 116.048 591.43 106.891 591.43 96.682C591.43 86.4733 593.682 77.3156 598.26 69.2087C602.839 61.1018 609.07 54.7964 617.026 50.2175C624.983 45.6386 633.916 43.3867 643.899 43.3867C653.883 43.3867 662.74 45.6386 670.772 50.2175C678.729 54.7964 685.034 61.1018 689.538 69.2087C694.117 77.3156 696.369 86.4733 696.369 96.682C696.369 106.891 694.117 116.048 689.538 124.155C684.959 132.262 678.729 138.568 670.772 143.146C662.815 147.725 653.808 149.977 643.899 149.977C633.991 149.977 625.058 147.725 617.026 143.146ZM665.518 135.34C671.898 131.587 676.927 126.332 680.605 119.652C684.284 112.971 686.16 105.314 686.16 96.7571C686.16 88.1998 684.284 80.5433 680.605 73.8626C676.927 67.1819 671.898 61.9275 665.518 58.1743C659.137 54.4211 651.931 52.5445 643.899 52.5445C635.867 52.5445 628.661 54.4211 622.281 58.1743C615.9 61.9275 610.871 67.1819 607.193 73.8626C603.515 80.5433 601.638 88.1998 601.638 96.7571C601.638 105.314 603.515 112.971 607.193 119.652C610.871 126.332 615.9 131.587 622.281 135.34C628.661 139.093 635.867 140.97 643.899 140.97C651.931 140.97 659.137 139.093 665.518 135.34Z" fill="#F55036"/>
<path d="M806.337 44.2129V149.152H796.654V126.633C793.201 133.989 788.021 139.769 781.191 143.823C774.36 147.876 766.328 149.978 757.095 149.978C743.433 149.978 732.699 146.15 724.893 138.493C717.086 130.837 713.258 119.877 713.258 105.54V44.2129H723.316V104.714C723.316 116.499 726.319 125.507 732.399 131.662C738.479 137.817 746.961 140.895 757.921 140.895C769.706 140.895 779.089 137.217 785.995 129.861C792.901 122.504 796.353 112.596 796.353 100.135V44.2129H806.412H806.337Z" fill="#F55036"/>
<path d="M929.219 0V149.227H919.385V124.456C915.257 132.638 909.402 138.943 901.896 143.372C894.389 147.801 885.907 149.977 876.374 149.977C866.841 149.977 857.758 147.726 849.801 143.147C841.92 138.568 835.689 132.262 831.185 124.231C826.682 116.199 824.43 107.041 824.43 96.6822C824.43 86.3234 826.682 77.1656 831.185 69.0587C835.689 60.9518 841.844 54.6465 849.801 50.1426C857.683 45.6388 866.54 43.3869 876.374 43.3869C886.207 43.3869 894.164 45.5637 901.595 49.9925C909.027 54.4213 914.882 60.5765 919.16 68.4582V0H929.219ZM898.593 135.34C904.973 131.587 910.002 126.332 913.681 119.652C917.359 112.971 919.235 105.315 919.235 96.7572C919.235 88.2 917.359 80.5435 913.681 73.8628C910.002 67.1821 904.973 61.9276 898.593 58.1744C892.212 54.4213 885.006 52.5447 876.974 52.5447C868.943 52.5447 861.736 54.4213 855.356 58.1744C848.976 61.9276 843.946 67.1821 840.268 73.8628C836.59 80.5435 834.713 88.2 834.713 96.7572C834.713 105.315 836.59 112.971 840.268 119.652C843.946 126.332 848.976 131.587 855.356 135.34C861.736 139.093 868.943 140.97 876.974 140.97C885.006 140.97 892.212 139.093 898.593 135.34Z" fill="#F55036"/>
<path d="M256.346 44.1377C226.77 44.1377 202.75 68.1581 202.75 97.7333C202.75 127.308 226.77 151.329 256.346 151.329C285.921 151.329 309.941 127.308 309.941 97.7333C309.941 68.1581 285.921 44.2128 256.346 44.1377ZM256.346 131.212C237.88 131.212 222.867 116.199 222.867 97.7333C222.867 79.2676 237.88 64.2548 256.346 64.2548C274.811 64.2548 289.824 79.2676 289.824 97.7333C289.824 116.199 274.811 131.212 256.346 131.212Z" fill="black"/>
<path d="M54.0487 43.8368C24.4736 43.5365 0.303066 67.3318 0.00281057 96.9069C-0.297445 126.482 23.4978 150.728 53.0729 150.953C53.3732 150.953 53.7485 150.953 54.0487 150.953H71.6888V130.911H54.0487C35.5831 131.136 20.4202 116.348 20.195 97.8077C19.9698 79.342 34.7574 64.1791 53.2981 63.9539C53.5233 63.9539 53.8236 63.9539 54.0487 63.9539C72.5144 63.9539 87.6023 78.9667 87.6023 97.4323V146.749C87.6023 165.065 72.6646 180.003 54.349 180.228C45.5665 180.228 37.2345 176.625 31.0792 170.394L16.8922 184.581C26.7255 194.49 40.0869 200.12 54.0487 200.27H54.7994C83.9992 199.819 107.494 176.174 107.644 146.974V96.0812C106.894 67.0315 83.1735 43.8368 54.1238 43.8368H54.0487Z" fill="black"/>
<path d="M429.14 198.018V96.382C428.389 67.3323 404.669 44.1376 375.619 44.1376C346.044 43.8373 321.798 67.6325 321.573 97.2077C321.273 126.783 345.068 151.028 374.643 151.254C374.943 151.254 375.319 151.254 375.619 151.254H393.259V131.212H375.619C357.153 131.437 341.99 116.649 341.765 98.1084C341.54 79.6427 356.328 64.4799 374.868 64.2547C375.094 64.2547 375.394 64.2547 375.619 64.2547C394.085 64.2547 409.173 79.2674 409.173 97.7331V197.868L429.14 198.093V198.018Z" fill="black"/>
<path d="M122.958 151.254H142.925V97.6582C142.925 79.1925 157.938 64.1797 176.403 64.1797C182.483 64.1797 188.188 65.8311 193.143 68.6836L203.201 51.2688C195.319 46.6899 186.162 44.1377 176.478 44.1377C146.903 44.1377 122.883 68.1581 122.883 97.7333V151.329L122.958 151.254Z" fill="black"/>
</g>
<defs>
<clipPath id="clip0_872_2594">
<rect width="1000" height="200.345" fill="white"/>
</clipPath>
</defs>
<script xmlns=""/></svg>