<svg width="24" height="24" viewBox="0 0 24 24" fill="none" xmlns="http://www.w3.org/2000/svg">
<rect width="24" height="24" rx="12" fill="#F55036"/>
<path d="M12.146 6.00022C9.87734 5.97718 8.02325 7.80249 8.00022 10.0712C7.97718 12.3398 9.80249 14.1997 12.0712 14.217C12.0942 14.217 12.123 14.217 12.146 14.217H13.4992V12.6796H12.146C10.7295 12.6968 9.56641 11.5625 9.54913 10.1403C9.53186 8.72377 10.6662 7.56065 12.0884 7.54337C12.1057 7.54337 12.1287 7.54337 12.146 7.54337C13.5625 7.54337 14.7199 8.69498 14.7199 10.1115V13.8945C14.7199 15.2995 13.574 16.4453 12.169 16.4626C11.4953 16.4626 10.8562 16.1862 10.384 15.7083L9.29578 16.7965C10.0501 17.5566 11.075 17.9885 12.146 18H12.2036C14.4435 17.9654 16.2457 16.1516 16.2572 13.9117V10.0078C16.1997 7.77945 14.3801 6.00022 12.1518 6.00022H12.146Z" fill="white"/>
</svg>
