<svg t="1713319876002" class="icon" viewBox="0 0 1024 1024" version="1.1" xmlns="http://www.w3.org/2000/svg" p-id="1453" width="200" height="200"><path d="M512 512m-512 0a512 512 0 1 0 1024 0 512 512 0 1 0-1024 0Z" fill="#A7F9DE" p-id="1454"></path><path d="M512 197.818182c-192.698182 0-349.090909 135.447273-349.090909 302.545454 0 113.338182 72.145455 212.014545 178.501818 263.912728a126.370909 126.370909 0 0 1-69.818182 56.785454s91.927273 23.272727 158.021818-26.763636a400.058182 400.058182 0 0 0 82.385455 8.610909c192.698182 0 349.090909-135.447273 349.090909-302.545455s-156.392727-302.545455-349.090909-302.545454z" fill="#1CD38D" p-id="1455"></path></svg>