<svg width="16" height="16" viewBox="0 0 16 16" fill="none" xmlns="http://www.w3.org/2000/svg">
<g id="Icon" clip-path="url(#clip0_635_10941)">
<path id="Vector" d="M14.6334 8.66683C14.6552 8.44756 14.6663 8.22516 14.6663 8.00016C14.6663 4.31826 11.6816 1.3335 7.99967 1.3335C4.31778 1.3335 1.33301 4.31826 1.33301 8.00016C1.33301 11.6821 4.31778 14.6668 7.99967 14.6668C8.11145 14.6668 8.22258 14.6641 8.33301 14.6586C8.44487 14.6531 8.556 14.6449 8.66634 14.6339M7.99967 4.00016V8.00016L5.42265 9.25534M11.853 9.97346L14.4308 11.9068C14.6238 12.0515 14.7203 12.1239 14.7548 12.2126C14.785 12.2904 14.785 12.3766 14.7548 12.4543C14.7203 12.543 14.6238 12.6154 14.4308 12.7601L11.853 14.6935C11.5784 14.8995 11.441 15.0024 11.3261 15.0001C11.226 14.998 11.1322 14.9511 11.0706 14.8723C10.9997 14.7818 10.9997 14.6101 10.9997 14.2668V10.4001C10.9997 10.0568 10.9997 9.88516 11.0706 9.79463C11.1322 9.71585 11.226 9.66895 11.3261 9.66687C11.441 9.66448 11.5784 9.76747 11.853 9.97346Z" stroke="#667085" stroke-width="1.5" stroke-linecap="round" stroke-linejoin="round"/>
</g>
<defs>
<clipPath id="clip0_635_10941">
<rect width="16" height="16" fill="white"/>
</clipPath>
</defs>
</svg>
