<svg xmlns="http://www.w3.org/2000/svg" width="16" height="16" viewBox="0 0 16 16" fill="none">
  <path fill-rule="evenodd" clip-rule="evenodd" d="M0.666992 8.00008C0.666992 3.94999 3.95024 0.666748 8.00033 0.666748C12.0504 0.666748 15.3337 3.94999 15.3337 8.00008C15.3337 12.0502 12.0504 15.3334 8.00033 15.3334C3.95024 15.3334 0.666992 12.0502 0.666992 8.00008ZM8.66699 4.00008C8.66699 3.63189 8.36852 3.33341 8.00033 3.33341C7.63213 3.33341 7.33366 3.63189 7.33366 4.00008V8.00008C7.33366 8.2526 7.47633 8.48344 7.70218 8.59637L10.3688 9.9297C10.6982 10.0944 11.0986 9.96088 11.2633 9.63156C11.4279 9.30224 11.2945 8.90179 10.9651 8.73713L8.66699 7.58806V4.00008Z" fill="#EC4A0A"/>
</svg>