<?xml version="1.0" encoding="UTF-8" standalone="no"?>
<!-- Created with Inkscape (http://www.inkscape.org/) -->

<svg
   width="117.68897mm"
   height="100.11777mm"
   viewBox="0 0 117.68897 100.11777"
   version="1.1"
   id="svg1"
   xml:space="preserve"
   inkscape:version="1.3.2 (091e20e, 2023-11-25, custom)"
   sodipodi:docname="spider.svg"
   xmlns:inkscape="http://www.inkscape.org/namespaces/inkscape"
   xmlns:sodipodi="http://sodipodi.sourceforge.net/DTD/sodipodi-0.dtd"
   xmlns="http://www.w3.org/2000/svg"
   xmlns:svg="http://www.w3.org/2000/svg"><sodipodi:namedview
     id="namedview1"
     pagecolor="#ffffff"
     bordercolor="#eeeeee"
     borderopacity="1"
     inkscape:showpageshadow="0"
     inkscape:pageopacity="0"
     inkscape:pagecheckerboard="0"
     inkscape:deskcolor="#505050"
     inkscape:document-units="mm"
     inkscape:zoom="1.0242632"
     inkscape:cx="281.66588"
     inkscape:cy="340.24457"
     inkscape:window-width="1920"
     inkscape:window-height="1009"
     inkscape:window-x="-8"
     inkscape:window-y="-8"
     inkscape:window-maximized="1"
     inkscape:current-layer="layer1" /><defs
     id="defs1"><linearGradient
       id="swatch83"
       inkscape:swatch="solid"><stop
         style="stop-color:#282a36;stop-opacity:1;"
         offset="0"
         id="stop84" /></linearGradient><linearGradient
       id="swatch42"
       inkscape:swatch="solid"><stop
         style="stop-color:#000000;stop-opacity:1;"
         offset="0"
         id="stop43" /></linearGradient></defs><g
     inkscape:label="Outline"
     inkscape:groupmode="layer"
     id="g18"
     transform="translate(-40.170655,-21.331043)"><path
       d="m 6.379836,1133.8161 c 0.109725,0.2429 0.21945,0.4859 0.329175,0.7288 0.350409,0.7757 0.556234,1.2506 0.889651,2.1697 0.302328,0.8333 0.364501,2.0116 0.266522,2.8184 -0.085128,0.701 -0.331992,1.3666 -0.680026,2.0352 -0.278849,0.5357 -0.559952,1.3211 -0.583056,1.9585 -0.078883,2.1188 2.5859358,3.1172 3.918665,1.4681 0.32181,-0.3982 0.592143,-0.8974 0.725887,-1.1823 0.150578,-0.3208 0.310413,-0.6987 0.391704,-0.8772 0.06563,-0.144 0.173023,-0.451 0.325046,-0.8866 0.330999,-0.9484 0.499017,-1.5214 0.596366,-2.7091 0.0713,-0.8698 0.01017,-1.947 -0.162923,-2.675 -0.103635,-0.4359 -0.224559,-0.8221 -0.351013,-1.2161 -0.0235,-0.073 -0.047,-0.1464 -0.07051,-0.2196 -0.07647,0.01 -0.152936,0.016 -0.229405,0.024 -1.297875,0.1382 -3.220856,-0.3605 -4.65143,-1.0785 -0.238218,-0.1195 -0.476436,-0.2391 -0.714654,-0.3587"
       style="fill:#282a36;fill-opacity:1;stroke:#ffffff;stroke-width:3.07921;stroke-dasharray:none;stroke-opacity:1;paint-order:stroke fill markers"
       id="path11"
       sodipodi:nodetypes="cscssccccccsccccc"
       transform="matrix(0,-2.2733071,-2.2733071,0,2651.8981,79.082956)"
       inkscape:label="left_leg"
       inkscape:export-filename="logooo.png"
       inkscape:export-xdpi="96"
       inkscape:export-ydpi="96" /><path
       id="path12"
       style="fill:#282a36;fill-opacity:1;stroke:#ffffff;stroke-width:7;stroke-dasharray:none;stroke-opacity:1;paint-order:stroke fill markers"
       inkscape:label="head"
       d="m -24.831042,99.187744 a 26.541946,26.541946 0 0 0 -26.54205,-26.541532 26.541946,26.541946 0 0 0 -20.793046,10.21333 18.146685,18.146685 0 0 0 -1.420585,-0.623735 c 0.799009,-1.162345 2.202932,-2.711536 3.663859,-4.098458 1.415448,-1.343504 2.879378,-3.221811 3.67006,-5.484419 0.706466,-2.021524 1.038778,-3.98348 0.977719,-6.042009 -0.03664,-1.235118 -0.214948,-2.504906 -0.538986,-3.843693 -0.560364,-2.315115 -1.441094,-4.40261 -2.246374,-5.938139 -0.782913,-1.493 -2.029333,-3.076511 -3.499528,-4.611604 -1.578536,-1.648356 -2.881446,-2.687857 -4.246769,-3.597197 -1.205497,-0.802805 -2.961082,-1.963872 -5.335075,-2.98018 -2.720956,-1.165153 -5.709068,-1.598329 -7.691004,-1.793172 -1.702059,-0.167071 -3.283162,-0.199667 -4.951119,-0.162781 -1.662523,0.03688 -2.707593,-0.03497 -4.387329,0.22996 -6.056001,0.952084 -5.109551,9.942187 1.011825,9.6113 2.595039,-0.141034 3.605442,-0.04781 5.007963,0.07803 1.803532,0.160561 4.31687,0.342376 6.123657,1.011308 1.495119,0.553502 3.231598,1.380544 4.997111,2.683041 2.431818,1.794378 3.938752,3.726208 4.884973,6.745841 0.542279,1.73037 0.702479,3.136487 0.497644,4.537708 -0.20508,1.402956 -0.689417,3.079009 -1.277441,4.168221 -1.111983,-1.392759 -2.687385,-3.0886 -4.49895,-4.405416 -1.961127,-1.42574 -3.908188,-2.615441 -6.752043,-3.336231 -2.679715,-0.679346 -5.553927,-0.916959 -8.011914,-0.617533 -2.791881,0.340216 -5.541696,1.498506 -7.697726,2.618962 -0.79949,0.415362 -1.67733,0.978723 -2.56005,1.612821 a 10.061908,10.061908 0 0 1 6.599601,7.782987 c 1.38164,-0.791885 2.881773,-1.314834 4.156336,-1.561661 1.378092,-0.266879 2.585019,-0.372546 4.212146,0 1.285611,0.290527 2.284659,0.664918 2.903699,0.995805 1.05084,0.561528 2.66424,1.798749 3.432865,3.026171 0.539889,0.862409 0.969039,1.721422 1.185457,2.487704 a 18.146685,18.146685 0 0 0 -14.437361,17.717265 18.146685,18.146685 0 0 0 14.455965,17.764292 c -0.229509,0.72616 -0.634682,1.52623 -1.137915,2.33009 -0.768629,1.22742 -2.382027,2.46464 -3.432866,3.02617 -0.619039,0.33088 -1.61809,0.70528 -2.903698,0.99581 -1.627119,0.37255 -2.834058,0.26688 -4.212146,0 -1.274569,-0.24683 -2.774696,-0.76978 -4.156336,-1.56167 a 10.061908,10.061908 0 0 1 -6.599597,7.78299 c 0.88272,0.6341 1.76055,1.19746 2.56005,1.61282 2.15603,1.12046 4.905835,2.27876 7.697722,2.61896 2.457987,0.29943 5.332197,0.0618 8.011914,-0.61753 2.843857,-0.72079 4.790914,-1.91049 6.752043,-3.33623 1.811568,-1.31682 3.386971,-3.01266 4.49895,-4.40541 0.588029,1.0892 1.072361,2.76526 1.277441,4.16822 0.20484,1.40121 0.04464,2.80734 -0.497644,4.5377 -0.946219,3.01964 -2.453155,4.95147 -4.884973,6.74585 -1.765518,1.30249 -3.501993,2.12954 -4.997111,2.68304 -1.806788,0.66893 -4.320129,0.85074 -6.123657,1.0113 -1.402519,0.1258 -2.412926,0.21906 -5.007963,0.078 -6.121382,-0.33088 -7.067832,8.65922 -1.011825,9.6113 1.679738,0.26496 2.724811,0.19306 4.387329,0.22996 1.667959,0.0369 3.249061,0.004 4.951119,-0.16278 1.981938,-0.19485 4.970046,-0.62802 7.691004,-1.79317 2.373997,-1.01631 4.129576,-2.17738 5.335074,-2.98018 1.365319,-0.90934 2.668231,-1.94884 4.24677,-3.59719 1.470188,-1.53509 2.716618,-3.11861 3.499528,-4.61161 0.805289,-1.53553 1.686005,-3.62302 2.246374,-5.93814 0.32404,-1.33879 0.502385,-2.60857 0.538985,-3.84369 0.06106,-2.05853 -0.271258,-4.02049 -0.977718,-6.04201 -0.790689,-2.26261 -2.254621,-4.14092 -3.67006,-5.48442 -1.421859,-1.34983 -2.782312,-2.84917 -3.592029,-4.00079 a 18.146685,18.146685 0 0 0 1.160136,-0.5178 26.541946,26.541946 0 0 0 20.915519,10.35544 26.541946,26.541946 0 0 0 26.54205,-26.542047 z m -51.143649,-7.033679 a 3.0997915,3.0997915 0 0 1 -3.099552,3.100069 3.0997915,3.0997915 0 0 1 -3.100069,-3.100069 3.0997915,3.0997915 0 0 1 3.100069,-3.099552 3.0997915,3.0997915 0 0 1 3.099552,3.099552 z m -0.0279,14.003275 a 3.0997915,3.0997915 0 0 1 -3.099552,3.09956 3.0997915,3.0997915 0 0 1 -3.099553,-3.09956 3.0997915,3.0997915 0 0 1 3.099553,-3.10006 3.0997915,3.0997915 0 0 1 3.099552,3.10006 z"
       transform="rotate(-90)" /><path
       d="m 6.7573881,1133.857 c 0.114962,0.2545 0.229924,0.5091 0.344886,0.7636 0.3671335,0.8127 0.5827822,1.3103 0.9321127,2.2733 0.3167577,0.8731 0.3818981,2.1076 0.2792427,2.9529 -0.089191,0.7345 -0.3478374,1.4318 -0.7124826,2.1323 -0.292158,0.5613 -0.5866777,1.3842 -0.6108844,2.052 -0.082648,2.2199 2.7093587,3.266 4.1056965,1.5382 0.33717,-0.4172 0.620406,-0.9402 0.760533,-1.2387 0.157765,-0.3362 0.325229,-0.7321 0.410399,-0.9191 0.06876,-0.1509 0.181282,-0.4725 0.34056,-0.9289 0.346797,-0.9937 0.522835,-1.594 0.62483,-2.8384 0.0747,-0.9113 0.01065,-2.04 -0.170699,-2.8027 -0.108581,-0.4567 -0.235277,-0.8613 -0.367766,-1.2741 -0.02462,-0.076 -0.04924,-0.1534 -0.07387,-0.2301 -0.08012,0.01 -0.160236,0.017 -0.240355,0.025 -1.35982,0.1448 -3.3745821,-0.3777 -4.8734353,-1.13 -0.2495878,-0.1252 -0.4991756,-0.2505 -0.7487634,-0.3758"
       style="fill:#282a36;fill-opacity:1;stroke:#ffffff;stroke-width:3.22618;stroke-dasharray:none;stroke-opacity:1;paint-order:stroke fill markers"
       id="path16"
       sodipodi:nodetypes="cscssccccccsccccc"
       inkscape:label="right_leg"
       transform="matrix(0,-2.1697483,2.1697483,0,-2336.4042,79.455206)" /><path
       id="circle16"
       style="fill:#8564ff;fill-opacity:1;stroke:#ffffff;stroke-width:5;stroke-dasharray:none;stroke-opacity:1;paint-order:stroke fill markers"
       inkscape:label="left_node"
       d="m -100.85069,119.49245 a 9.0410538,9.0410538 0 0 0 -5.77278,-8.40569 l -0.0326,-24.066749 a 9.0410538,9.0410538 0 0 0 5.78931,-8.43256 9.0410538,9.0410538 0 0 0 -9.04131,-9.041308 9.0410538,9.0410538 0 0 0 -9.04079,9.041308 9.0410538,9.0410538 0 0 0 5.96191,8.476485 l 0.0331,23.946344 a 9.0410538,9.0410538 0 0 0 -5.97896,8.48217 9.0410538,9.0410538 0 0 0 9.04131,9.04131 9.0410538,9.0410538 0 0 0 9.04079,-9.04131 z"
       transform="rotate(-90)" /><path
       id="path5-4"
       style="display:inline;fill:#282a36;fill-opacity:1;stroke:#ffffff;stroke-width:5;stroke-dasharray:none;stroke-opacity:1;paint-order:stroke fill markers"
       d="m 88.559141,75.737764 c 3.32827,1.492911 6.93402,2.271697 10.58179,2.271696 3.647759,-10e-7 7.253509,-0.778786 10.581779,-2.271696 z"
       sodipodi:nodetypes="cscc" /></g><g
     inkscape:label="Spider"
     inkscape:groupmode="layer"
     id="layer1"
     style="display:inline"
     transform="translate(-40.170655,-21.331043)"><path
       d="m 6.379836,1133.8161 c 0.109725,0.2429 0.21945,0.4859 0.329175,0.7288 0.350409,0.7757 0.556234,1.2506 0.889651,2.1697 0.302328,0.8333 0.364501,2.0116 0.266522,2.8184 -0.085128,0.701 -0.331992,1.3666 -0.680026,2.0352 -0.278849,0.5357 -0.559952,1.3211 -0.583056,1.9585 -0.078883,2.1188 2.5859358,3.1172 3.918665,1.4681 0.32181,-0.3982 0.592143,-0.8974 0.725887,-1.1823 0.150578,-0.3208 0.310413,-0.6987 0.391704,-0.8772 0.06563,-0.144 0.173023,-0.451 0.325046,-0.8866 0.330999,-0.9484 0.499017,-1.5214 0.596366,-2.7091 0.0713,-0.8698 0.01017,-1.947 -0.162923,-2.675 -0.103635,-0.4359 -0.224559,-0.8221 -0.351013,-1.2161 -0.0235,-0.073 -0.047,-0.1464 -0.07051,-0.2196 -0.07647,0.01 -0.152936,0.016 -0.229405,0.024 -1.297875,0.1382 -3.220856,-0.3605 -4.65143,-1.0785 -0.238218,-0.1195 -0.476436,-0.2391 -0.714654,-0.3587"
       style="fill:#282a36;fill-opacity:1;stroke:none;stroke-width:0.11877;stroke-dasharray:none;stroke-opacity:1"
       id="path6-7"
       sodipodi:nodetypes="cscssccccccsccccc"
       transform="matrix(0,-2.2733071,-2.2733071,0,2651.8981,79.082956)"
       inkscape:label="left_leg" /><path
       id="path35"
       style="fill:#282a36;fill-opacity:1;stroke:none;stroke-width:0.27;stroke-dasharray:none;stroke-opacity:0.919255"
       inkscape:label="head"
       d="m -62.100085,99.070439 a 18.146685,18.146685 0 0 0 -18.146696,-18.146696 18.146685,18.146685 0 0 0 -18.146696,18.146696 18.146685,18.146685 0 0 0 18.146696,18.146691 18.146685,18.146685 0 0 0 18.146696,-18.146691 z m -13.874606,-6.916374 a 3.0997915,3.0997915 0 0 1 -3.099552,3.100069 3.0997915,3.0997915 0 0 1 -3.100069,-3.100069 3.0997915,3.0997915 0 0 1 3.100069,-3.099552 3.0997915,3.0997915 0 0 1 3.099552,3.099552 z m -0.0279,14.003275 a 3.0997915,3.0997915 0 0 1 -3.099552,3.09956 3.0997915,3.0997915 0 0 1 -3.099553,-3.09956 3.0997915,3.0997915 0 0 1 3.099553,-3.10006 3.0997915,3.0997915 0 0 1 3.099552,3.10006 z"
       transform="rotate(-90)" /><path
       id="path35-6"
       style="fill:#282a36;fill-opacity:1;stroke:none;stroke-width:0.27;stroke-dasharray:none;stroke-opacity:1"
       inkscape:label="body"
       d="M -24.831042,99.187744 A 26.541946,26.541946 0 0 0 -51.373092,72.646212 26.541946,26.541946 0 0 0 -74.619218,86.51875 h 2.123385 v 25.4 h -2.089795 a 26.541946,26.541946 0 0 0 23.212536,13.81104 26.541946,26.541946 0 0 0 26.54205,-26.542046 z"
       transform="rotate(-90)" /><path
       d="m 66.610921,65.275085 c -1.235119,0.03664 -2.504905,0.214948 -3.843693,0.538986 -2.315118,0.560365 -4.402609,1.441093 -5.938139,2.246374 -1.493002,0.782914 -3.076509,2.029331 -4.611604,3.499528 -1.648357,1.578537 -2.687856,2.881444 -3.597197,4.246769 -0.802806,1.205498 -1.963871,2.961079 -2.98018,5.335075 -1.165154,2.720959 -1.598329,5.709066 -1.793172,7.691004 -0.167071,1.702061 -0.199667,3.283161 -0.162781,4.951119 0.03688,1.662525 -0.03497,2.707592 0.22996,4.387329 0.952085,6.056011 9.942187,5.109561 9.6113,-1.011825 -0.141034,-2.595042 -0.04781,-3.605441 0.07803,-5.007963 0.160561,-1.803534 0.342375,-4.316868 1.011308,-6.123657 0.553502,-1.49512 1.380543,-3.231596 2.683041,-4.997111 1.79438,-2.43182 3.726205,-3.938751 6.745841,-4.884973 1.730372,-0.542279 3.136486,-0.702479 4.537708,-0.497644 1.402958,0.205081 3.079008,0.689416 4.168221,1.277441 -1.39276,1.111984 -3.088598,2.687383 -4.405416,4.49895 -1.425741,1.961129 -2.615441,3.908185 -3.336231,6.752043 -0.679347,2.679718 -0.916959,5.553925 -0.617533,8.011914 0.340216,2.791884 1.498505,5.541696 2.618962,7.697726 0.415363,0.7995 0.978722,1.67733 1.612821,2.56005 a 10.061908,10.061908 0 0 1 7.782987,-6.599601 c -0.791886,-1.381641 -1.314833,-2.881772 -1.561661,-4.156336 -0.266879,-1.378094 -0.372546,-2.585018 0,-4.212146 0.290528,-1.285612 0.664918,-2.284659 0.995805,-2.903699 0.561529,-1.050842 1.798747,-2.664239 3.026171,-3.432865 0.939501,-0.588151 1.880486,-1.057903 2.695443,-1.249019 -0.333707,-2.672485 -0.520881,-3.093478 -0.26355,-5.549016 0.257333,-2.455534 1.124996,-4.620389 1.124996,-4.620389 -1.177305,-0.771264 -2.827374,-2.264871 -4.28501,-3.800285 -1.343506,-1.415449 -3.221808,-2.879377 -5.484419,-3.67006 -2.021526,-0.706466 -3.983477,-1.038779 -6.042008,-0.977719 z"
       style="fill:#282a36;stroke-width:0.269999"
       id="path9" /><path
       d="m 131.41914,65.208849 c 1.23512,0.0366 2.50491,0.21494 3.8437,0.53898 2.31512,0.56037 4.40261,1.44109 5.93814,2.24638 1.493,0.78291 3.07651,2.02933 4.6116,3.49952 1.64836,1.57854 2.68786,2.88145 3.5972,4.24677 0.8028,1.2055 1.96387,2.96108 2.98018,5.33508 1.16515,2.72096 1.59832,5.70906 1.79317,7.691 0.16707,1.70206 0.19966,3.28316 0.16278,4.95112 -0.0369,1.66252 0.035,2.70759 -0.22996,4.38733 -0.95209,6.056011 -9.94219,5.109561 -9.6113,-1.01183 0.14103,-2.59504 0.0478,-3.60544 -0.078,-5.00796 -0.16056,-1.80353 -0.34237,-4.31687 -1.01131,-6.12366 -0.5535,-1.49512 -1.38054,-3.23159 -2.68304,-4.99711 -1.79438,-2.43182 -3.7262,-3.93875 -6.74584,-4.88497 -1.73037,-0.54228 -3.13649,-0.70248 -4.53771,-0.49764 -1.40296,0.20508 -3.07901,0.68941 -4.16822,1.27744 1.39276,1.11198 3.0886,2.68738 4.40542,4.49895 1.42574,1.96113 2.61544,3.90818 3.33623,6.75204 0.67935,2.67972 0.91696,5.55392 0.61753,8.01191 -0.34021,2.79189 -1.4985,5.541701 -2.61896,7.697731 -0.41536,0.7995 -0.97872,1.67733 -1.61282,2.56005 a 10.061908,10.061908 0 0 0 -7.78299,-6.5996 c 0.79189,-1.381641 1.31483,-2.881771 1.56166,-4.156341 0.26688,-1.37809 0.37255,-2.58502 0,-4.21214 -0.29053,-1.28561 -0.66492,-2.28466 -0.9958,-2.9037 -0.56153,-1.05084 -1.79875,-2.66424 -3.02617,-3.43287 -0.9395,-0.58815 -1.88049,-1.0579 -2.69545,-1.24902 0.33371,-2.67248 0.52089,-3.09347 0.26355,-5.54901 -0.25733,-2.45554 -1.12499,-4.62039 -1.12499,-4.62039 1.1773,-0.77126 2.82737,-2.26487 4.28501,-3.80029 1.3435,-1.41544 3.22181,-2.87937 5.48442,-3.67006 2.02152,-0.70646 3.98347,-1.03877 6.042,-0.97771 z"
       style="fill:#282a36;fill-opacity:1;stroke-width:0.269999"
       id="path9-1" /><path
       d="m 6.7573881,1133.857 c 0.114962,0.2545 0.229924,0.5091 0.344886,0.7636 0.3671335,0.8127 0.5827822,1.3103 0.9321127,2.2733 0.3167577,0.8731 0.3818981,2.1076 0.2792427,2.9529 -0.089191,0.7345 -0.3478374,1.4318 -0.7124826,2.1323 -0.292158,0.5613 -0.5866777,1.3842 -0.6108844,2.052 -0.082648,2.2199 2.7093587,3.266 4.1056965,1.5382 0.33717,-0.4172 0.620406,-0.9402 0.760533,-1.2387 0.157765,-0.3362 0.325229,-0.7321 0.410399,-0.9191 0.06876,-0.1509 0.181282,-0.4725 0.34056,-0.9289 0.346797,-0.9937 0.522835,-1.594 0.62483,-2.8384 0.0747,-0.9113 0.01065,-2.04 -0.170699,-2.8027 -0.108581,-0.4567 -0.235277,-0.8613 -0.367766,-1.2741 -0.02462,-0.076 -0.04924,-0.1534 -0.07387,-0.2301 -0.08012,0.01 -0.160236,0.017 -0.240355,0.025 -1.35982,0.1448 -3.3745821,-0.3777 -4.8734353,-1.13 -0.2495878,-0.1252 -0.4991756,-0.2505 -0.7487634,-0.3758"
       style="fill:#282a36;fill-opacity:1;stroke:none;stroke-width:0.124439;stroke-dasharray:none;stroke-opacity:1"
       id="path6-7-1"
       sodipodi:nodetypes="cscssccccccsccccc"
       inkscape:label="right_leg"
       transform="matrix(0,-2.1697483,2.1697483,0,-2336.4042,79.455206)" /><circle
       style="fill:#8564ff;fill-opacity:1;stroke:none;stroke-width:0.27;stroke-dasharray:none;stroke-opacity:1"
       id="path35-1"
       cx="-109.90799"
       cy="78.587242"
       r="9.0410538"
       transform="rotate(-90)"
       inkscape:label="left_node" /><circle
       style="fill:#8564ff;fill-opacity:1;stroke:none;stroke-width:0.27;stroke-dasharray:none;stroke-opacity:1"
       id="path35-1-5"
       cx="-109.89165"
       cy="119.49268"
       r="9.0410538"
       transform="rotate(-90)"
       inkscape:label="right_node" /><path
       style="fill:#8564ff;fill-opacity:1;stroke:none;stroke-width:0.28423;stroke-dasharray:none;stroke-opacity:1"
       d="m 85.728493,106.6578 c 0.256616,0.69601 0.628266,1.93638 0.651837,2.93523 0.02707,1.14715 -0.585243,3.39525 -0.585243,3.39525 l 26.489353,-0.0361 c 0,0 -0.66059,-1.39471 -0.58284,-3.35914 0.0778,-1.96443 0.39522,-2.31143 0.64371,-2.97134 z"
       id="path47"
       sodipodi:nodetypes="caccscc"
       inkscape:label="graph_edge" /><path
       style="font-size:66.6667px;white-space:pre;display:none;fill:#8564ff;fill-opacity:1;stroke:#8564ff;stroke-width:0.443;stroke-dasharray:none;stroke-opacity:1"
       d="M 96.242271,55.551833 83.607665,49.935235 v -1.357618 l 12.634606,-5.616598 v 1.970736 l -9.963165,4.324671 9.963165,4.32467 z m 18.503019,-5.616598 -12.63461,5.616598 v -1.970737 l 9.96317,-4.32467 -9.96317,-4.324671 v -1.970736 l 12.63461,5.616598 z"
       id="text48-1"
       inkscape:label="html_tag"
       aria-label="&lt;&gt;" /><path
       d="m 94.027959,58.03733 -9.023441,-4.511673 a 1.6694892,1.6694892 0 0 1 -0.922814,-1.493238 v -1.423613 a 1.6694892,1.6694892 0 0 1 0.922814,-1.493236 l 9.023441,-4.511672 a 1.6694892,1.6694892 0 0 1 2.416078,1.493236 v 0.728789 a 1.6694892,1.6694892 0 0 1 -0.923067,1.493235 l -5.576264,2.788135 a 0.2384981,0.2384981 0 0 0 0,0.42664 l 5.576264,2.788134 a 1.6694892,1.6694892 0 0 1 0.923067,1.493238 v 0.728786 a 1.6694892,1.6694892 0 0 1 -2.416078,1.493239 z"
       style="display:inline;fill:#8564ff;fill-opacity:1;stroke:none;stroke-width:2.52411"
       id="path5-2" /><path
       d="m 103.96031,58.03733 9.02349,-4.511673 a 1.6694892,1.6694892 0 0 0 0.92282,-1.493238 V 50.608806 A 1.6694892,1.6694892 0 0 0 112.9838,49.11557 l -9.02349,-4.511672 a 1.6694892,1.6694892 0 0 0 -2.41609,1.493236 v 0.728789 a 1.6694892,1.6694892 0 0 0 0.92307,1.493235 l 5.5763,2.788135 a 0.2384981,0.2384981 0 0 1 0,0.42664 l -5.5763,2.788134 a 1.6694892,1.6694892 0 0 0 -0.92307,1.493238 v 0.728786 a 1.6694892,1.6694892 0 0 0 2.41609,1.493239 z"
       style="display:inline;fill:#8564ff;fill-opacity:1;stroke:none;stroke-width:2.52411"
       id="path5-2-0" /><path
       id="path5"
       style="fill:#282a36;fill-opacity:1;stroke:none;stroke-width:1.325;stroke-opacity:1;paint-order:stroke fill markers"
       d="m 88.626632,75.728894 c 3.328274,1.49291 6.974156,2.271696 10.581783,2.271696 3.607625,0 7.253515,-0.778786 10.581785,-2.271696 z"
       sodipodi:nodetypes="cacc" /></g></svg>
