<svg xmlns="http://www.w3.org/2000/svg" width="24" height="25" viewBox="0 0 24 25" fill="none">
  <path d="M22.501 12.7332C22.501 11.8699 22.4296 11.2399 22.2748 10.5865H12.2153V14.4832H18.12C18.001 15.4515 17.3582 16.9099 15.9296 17.8898L15.9096 18.0203L19.0902 20.435L19.3106 20.4565C21.3343 18.6249 22.501 15.9298 22.501 12.7332Z" fill="#4285F4"/>
  <path d="M12.214 23C15.1068 23 17.5353 22.0666 19.3092 20.4567L15.9282 17.8899C15.0235 18.5083 13.8092 18.9399 12.214 18.9399C9.38069 18.9399 6.97596 17.1083 6.11874 14.5766L5.99309 14.5871L2.68583 17.0954L2.64258 17.2132C4.40446 20.6433 8.0235 23 12.214 23Z" fill="#34A853"/>
  <path d="M6.12046 14.5766C5.89428 13.9233 5.76337 13.2233 5.76337 12.5C5.76337 11.7766 5.89428 11.0766 6.10856 10.4233L6.10257 10.2841L2.75386 7.7355L2.64429 7.78658C1.91814 9.20993 1.50146 10.8083 1.50146 12.5C1.50146 14.1916 1.91814 15.7899 2.64429 17.2132L6.12046 14.5766Z" fill="#FBBC05"/>
  <path d="M12.2141 6.05997C14.2259 6.05997 15.583 6.91163 16.3569 7.62335L19.3807 4.73C17.5236 3.03834 15.1069 2 12.2141 2C8.02353 2 4.40447 4.35665 2.64258 7.78662L6.10686 10.4233C6.97598 7.89166 9.38073 6.05997 12.2141 6.05997Z" fill="#EB4335"/>
</svg>