<svg width="18" height="18" viewBox="0 0 18 18" fill="none" xmlns="http://www.w3.org/2000/svg">
<g id="piggy-bank-mod">
<g id="Union">
<path d="M12.75 1.80737C12.75 3.18809 11.6307 4.30738 10.25 4.30738C8.8693 4.30738 7.74998 3.18809 7.74998 1.80737L12.75 1.80737Z" fill="#444CE7"/>
<path fill-rule="evenodd" clip-rule="evenodd" d="M5.29769 4.71516C6.27454 4.43606 7.31331 4.77702 7.93687 5.55738H11.8125C14.4013 5.55738 16.5 7.65605 16.5 10.2449C16.5 12.5126 14.8896 14.4043 12.75 14.8386V16.1824H11.5V14.9324H7.12498V16.1824H5.87498V14.8508C5.05321 14.6764 4.30548 14.229 3.76111 13.5695L2.99101 12.6365L1.5 12.0103V8.93745L3.29116 8.46851L4 7.56623V5.08593L5.29769 4.71516ZM7.75 7.43238H12.75V8.68239H7.75V7.43238ZM5.875 8.99489C5.875 9.51264 5.45527 9.93239 4.9375 9.93239C4.41973 9.93239 4 9.51264 4 8.99489C4 8.47714 4.41973 8.05739 4.9375 8.05739C5.45527 8.05739 5.875 8.47714 5.875 8.99489Z" fill="#444CE7"/>
</g>
</g>
</svg>
