<svg width="18" height="18" viewBox="0 0 18 18" fill="none" xmlns="http://www.w3.org/2000/svg">
<g id="general">
<g id="Vector">
<path fill-rule="evenodd" clip-rule="evenodd" d="M12.375 3.75C12.375 3.12868 12.8787 2.625 13.5 2.625H15.75C16.3713 2.625 16.875 3.12868 16.875 3.75C16.875 4.37132 16.3713 4.875 15.75 4.875H13.5C12.8787 4.875 12.375 4.37132 12.375 3.75Z" fill="#444CE7"/>
<path fill-rule="evenodd" clip-rule="evenodd" d="M1.125 3.75C1.125 3.12868 1.62868 2.625 2.25 2.625H9.75C10.3713 2.625 10.875 3.12868 10.875 3.75C10.875 4.37132 10.3713 4.875 9.75 4.875H2.25C1.62868 4.875 1.125 4.37132 1.125 3.75Z" fill="#444CE7"/>
<path fill-rule="evenodd" clip-rule="evenodd" d="M1.125 9C1.125 8.37868 1.62868 7.875 2.25 7.875H4.5C5.12132 7.875 5.625 8.37868 5.625 9C5.625 9.62132 5.12132 10.125 4.5 10.125H2.25C1.62868 10.125 1.125 9.62132 1.125 9Z" fill="#444CE7"/>
<path fill-rule="evenodd" clip-rule="evenodd" d="M7.125 9C7.125 8.37868 7.62868 7.875 8.25 7.875H15.75C16.3713 7.875 16.875 8.37868 16.875 9C16.875 9.62132 16.3713 10.125 15.75 10.125H8.25C7.62868 10.125 7.125 9.62132 7.125 9Z" fill="#444CE7"/>
<path fill-rule="evenodd" clip-rule="evenodd" d="M12.375 14.25C12.375 13.6287 12.8787 13.125 13.5 13.125H15.75C16.3713 13.125 16.875 13.6287 16.875 14.25C16.875 14.8713 16.3713 15.375 15.75 15.375H13.5C12.8787 15.375 12.375 14.8713 12.375 14.25Z" fill="#444CE7"/>
<path fill-rule="evenodd" clip-rule="evenodd" d="M1.125 14.25C1.125 13.6287 1.62868 13.125 2.25 13.125H9.75C10.3713 13.125 10.875 13.6287 10.875 14.25C10.875 14.8713 10.3713 15.375 9.75 15.375H2.25C1.62868 15.375 1.125 14.8713 1.125 14.25Z" fill="#444CE7"/>
</g>
</g>
</svg>
