<svg width="18" height="18" viewBox="0 0 18 18" fill="none" xmlns="http://www.w3.org/2000/svg">
<g id="gold-coin">
<path id="Vector" d="M9 1.5C7.51664 1.5 6.06659 1.93987 4.83323 2.76398C3.59986 3.58809 2.63856 4.75943 2.07091 6.12987C1.50325 7.50032 1.35472 9.00832 1.64411 10.4632C1.9335 11.918 2.64781 13.2544 3.6967 14.3033C4.7456 15.3522 6.08197 16.0665 7.53683 16.3559C8.99168 16.6453 10.4997 16.4967 11.8701 15.9291C13.2406 15.3614 14.4119 14.4001 15.236 13.1668C16.0601 11.9334 16.5 10.4834 16.5 9C16.5 7.01087 15.7098 5.10322 14.3033 3.6967C12.8968 2.29018 10.9891 1.5 9 1.5ZM11.0656 5.09312L11.8006 4.08187C11.8489 4.01543 11.9098 3.95915 11.9798 3.91623C12.0498 3.87332 12.1276 3.84462 12.2087 3.83176C12.2898 3.81891 12.3726 3.82215 12.4525 3.84131C12.5323 3.86047 12.6076 3.89518 12.6741 3.94344C12.7405 3.9917 12.7968 4.05257 12.8397 4.12259C12.8826 4.1926 12.9113 4.27038 12.9242 4.35148C12.937 4.43259 12.9338 4.51543 12.9146 4.59529C12.8955 4.67514 12.8608 4.75043 12.8125 4.81687L12.0775 5.82812C11.98 5.96231 11.8333 6.05228 11.6695 6.07824C11.5057 6.1042 11.3382 6.06403 11.2041 5.96656C11.0699 5.86909 10.9799 5.72232 10.954 5.55851C10.928 5.39471 10.9682 5.22731 11.0656 5.09312ZM5.32625 3.94375C5.39271 3.89519 5.4681 3.86023 5.54811 3.84089C5.62811 3.82154 5.71115 3.81819 5.79245 3.83103C5.87375 3.84386 5.95172 3.87263 6.02187 3.91567C6.09203 3.95872 6.15299 4.0152 6.20125 4.08187L6.9375 5.09312C7.03497 5.22772 7.07498 5.39552 7.04872 5.55962C7.02247 5.72371 6.9321 5.87066 6.7975 5.96812C6.66291 6.06559 6.4951 6.1056 6.33101 6.07934C6.16691 6.05309 6.01997 5.96272 5.9225 5.82812L5.1875 4.81687C5.13927 4.75044 5.10459 4.67515 5.08546 4.59531C5.06632 4.51548 5.06311 4.43265 5.07599 4.35157C5.08888 4.27048 5.11761 4.19274 5.16055 4.12276C5.20349 4.05279 5.2598 3.99196 5.32625 3.94375ZM5.0325 10.9437L3.845 11.33C3.76604 11.3594 3.68196 11.3725 3.5978 11.3686C3.51364 11.3646 3.43114 11.3437 3.35527 11.3071C3.2794 11.2705 3.21171 11.2189 3.15629 11.1554C3.10086 11.092 3.05883 11.018 3.03274 10.9379C3.00664 10.8577 2.997 10.7732 3.00442 10.6893C3.01183 10.6053 3.03613 10.5238 3.07587 10.4495C3.1156 10.3752 3.16995 10.3097 3.23564 10.2569C3.30133 10.2042 3.37701 10.1653 3.45813 10.1425L4.64563 9.75625C4.72467 9.72655 4.80892 9.71317 4.89327 9.71693C4.97763 9.72069 5.06035 9.7415 5.13644 9.77811C5.21253 9.81472 5.28042 9.86637 5.33599 9.92994C5.39157 9.99352 5.43369 10.0677 5.45981 10.148C5.48593 10.2283 5.4955 10.3131 5.48796 10.3972C5.48041 10.4813 5.45591 10.563 5.41591 10.6373C5.37592 10.7117 5.32127 10.7772 5.25527 10.8299C5.18926 10.8825 5.11389 10.9213 5.0325 10.9437ZM9.625 14.625C9.625 14.7908 9.55915 14.9497 9.44194 15.0669C9.32473 15.1841 9.16576 15.25 9 15.25C8.83424 15.25 8.67527 15.1841 8.55806 15.0669C8.44085 14.9497 8.375 14.7908 8.375 14.625V13.375C8.375 13.2092 8.44085 13.0503 8.55806 12.9331C8.67527 12.8158 8.83424 12.75 9 12.75C9.16576 12.75 9.32473 12.8158 9.44194 12.9331C9.55915 13.0503 9.625 13.2092 9.625 13.375V14.625ZM9 11L6.6475 12.2375L7.09688 9.61812L5.19375 7.76312L7.82375 7.38125L9 5L10.1763 7.38125L12.8063 7.76312L10.9031 9.61812L11.3525 12.2375L9 11ZM14.1563 11.3312L12.9688 10.945C12.8874 10.9225 12.8114 10.8838 12.7454 10.8311C12.6794 10.7784 12.6247 10.7129 12.5847 10.6386C12.5447 10.5642 12.5202 10.4825 12.5127 10.3984C12.5051 10.3143 12.5147 10.2295 12.5408 10.1492C12.5669 10.0689 12.6091 9.99477 12.6646 9.9312C12.7202 9.86762 12.7881 9.81597 12.8642 9.77936C12.9403 9.74275 13.023 9.72194 13.1074 9.71818C13.1917 9.71442 13.276 9.7278 13.355 9.7575L14.5425 10.1437C14.6236 10.1665 14.6993 10.2054 14.765 10.2582C14.8307 10.311 14.885 10.3764 14.9248 10.4507C14.9645 10.525 14.9888 10.6066 14.9962 10.6905C15.0036 10.7744 14.994 10.859 14.9679 10.9391C14.9418 11.0192 14.8998 11.0932 14.8443 11.1567C14.7889 11.2201 14.7212 11.2717 14.6454 11.3083C14.5695 11.345 14.487 11.3659 14.4028 11.3698C14.3187 11.3738 14.2352 11.3606 14.1563 11.3312Z" fill="#EF6820"/>
</g>
</svg>
