<svg width="18" height="18" viewBox="0 0 18 18" fill="none" xmlns="http://www.w3.org/2000/svg">
<g id="qa">
<path id="Vector" fill-rule="evenodd" clip-rule="evenodd" d="M16.5015 3.75C16.5015 2.92157 15.8299 2.25 15.0015 2.25H6.00146C5.17304 2.25 4.50146 2.92157 4.50146 3.75V5.25H3.00146C2.17304 5.25 1.50146 5.92157 1.50146 6.75V12.75C1.50146 13.5784 2.17304 14.25 3.00146 14.25H3.75146V15.375C3.75146 15.6407 3.89209 15.8867 4.12112 16.0214C4.35015 16.1562 4.6334 16.1597 4.8657 16.0307L8.07083 14.25H12.0015C12.8299 14.25 13.5015 13.5784 13.5015 12.75V11.25H15.0015C15.8299 11.25 16.5015 10.5785 16.5015 9.75V3.75ZM12.0015 5.25H6.00146V3.75H15.0015V9.75H13.5015V6.75C13.5015 5.92157 12.8299 5.25 12.0015 5.25ZM5.25 7.5C4.83579 7.5 4.5 7.83579 4.5 8.25C4.5 8.66421 4.83579 9 5.25 9H9.75C10.1642 9 10.5 8.66421 10.5 8.25C10.5 7.83579 10.1642 7.5 9.75 7.5H5.25ZM5.25 10.5C4.83579 10.5 4.5 10.8358 4.5 11.25C4.5 11.6642 4.83579 12 5.25 12H7.5C7.91421 12 8.25 11.6642 8.25 11.25C8.25 10.8358 7.91421 10.5 7.5 10.5H5.25Z" fill="#676F83"/>
</g>
</svg>
