<?xml version="1.0" encoding="UTF-8"?>
<svg width="72px" height="72px" viewBox="0 0 72 72" version="1.1" xmlns="http://www.w3.org/2000/svg" xmlns:xlink="http://www.w3.org/1999/xlink">
    <title>logo_gitee_g_red@1x</title>
    <g id="LOGO" stroke="none" stroke-width="1" fill="none" fill-rule="evenodd">
        <g id="Artboard-7" transform="translate(-192.000000, -115.000000)" fill="#C71D23">
            <path d="M228,115 C247.882251,115 264,131.117749 264,151 C264,170.882251 247.882251,187 228,187 C208.117749,187 192,170.882251 192,151 C192,131.117749 208.117749,115 228,115 Z M246.223335,131 C246.222967,131 246.2226,131 246.222232,131.001102 L221.33326,131.001102 C213.969504,131.001102 208,136.970606 208,144.334362 L208,169.222232 C208,170.204066 208.795934,171 209.777768,171 L236.000329,171 C242.627564,171 248,165.627564 248,159.000329 L248,148.778425 C248,147.796591 247.204066,147.000657 246.222232,147.000657 L225.7779,147.000657 C224.796248,147.001123 224.000389,147.796773 223.999667,148.778425 L223.998503,153.222667 C223.997802,154.155409 224.715909,154.920565 225.629522,154.994969 L225.775805,155.00042 L225.775805,155.00042 L238.222276,155.000317 C239.155019,155.000295 239.919992,155.718618 239.994164,156.63225 L240.000044,156.77807 L240.000044,156.77807 L240.000044,157.666909 C240.000044,160.612411 237.612243,163.000213 234.66674,163.000213 L217.776621,163.000213 C216.794928,163.000164 215.999101,162.204358 215.999025,161.222665 L215.998559,144.334184 C215.998337,141.462319 218.268172,139.120556 221.111731,139.005187 L221.331716,139.00088 L221.331716,139.00088 L246.21727,139.00088 C247.198674,138.999777 247.994429,138.204515 247.996141,137.223112 L247.998897,132.77887 C248.000609,131.797037 247.205169,131.000609 246.223335,131 Z" id="logo_gitee_g_red"></path>
        </g>
    </g>
</svg>