<?xml version="1.0" encoding="utf-8"?>
<svg width="800px" height="800px" viewBox="0 0 24 24" fill="none" xmlns="http://www.w3.org/2000/svg">
<path fill-rule="evenodd" clip-rule="evenodd" d="M15.6111 1.5837C17.2678 1.34703 18.75 2.63255 18.75 4.30606V5.68256C19.9395 6.31131 20.75 7.56102 20.75 9.00004V19C20.75 21.0711 19.0711 22.75 17 22.75H7C4.92893 22.75 3.25 21.0711 3.25 19V5.00004C3.25 4.99074 3.25017 4.98148 3.2505 4.97227C3.25017 4.95788 3.25 4.94344 3.25 4.92897C3.25 4.02272 3.91638 3.25437 4.81353 3.12621L15.6111 1.5837ZM4.75 6.75004V19C4.75 20.2427 5.75736 21.25 7 21.25H17C18.2426 21.25 19.25 20.2427 19.25 19V9.00004C19.25 7.7574 18.2426 6.75004 17 6.75004H4.75ZM5.07107 5.25004H17.25V4.30606C17.25 3.54537 16.5763 2.96104 15.8232 3.06862L5.02566 4.61113C4.86749 4.63373 4.75 4.76919 4.75 4.92897C4.75 5.10629 4.89375 5.25004 5.07107 5.25004ZM7.25 12C7.25 11.5858 7.58579 11.25 8 11.25H16C16.4142 11.25 16.75 11.5858 16.75 12C16.75 12.4143 16.4142 12.75 16 12.75H8C7.58579 12.75 7.25 12.4143 7.25 12ZM7.25 15.5C7.25 15.0858 7.58579 14.75 8 14.75H13.5C13.9142 14.75 14.25 15.0858 14.25 15.5C14.25 15.9143 13.9142 16.25 13.5 16.25H8C7.58579 16.25 7.25 15.9143 7.25 15.5Z" fill="#1C274D"/>
</svg>