<svg height="512" viewBox="0 0 448 512" width="448" xmlns="http://www.w3.org/2000/svg"><path d="m48 32c-26.5 0-48 21.5-48 48v352c0 26.5 21.5 48 48 48h352c26.5 0 48-21.5 48-48v-352c0-26.5-21.5-48-48-48zm69.56445 64s49.09165 11.12539 46.59571 94.78125c0 0 41.47034-117.171493 204.5664 1.64844 0 42.78788-.31445 172.24246-.31445 223.57031-176.89733-149.87989-207.38477-22.06836-207.38477-22.06836 0-79.8558-81.753902-70.33984-81.753902-70.33984v-212.65039s18.755175 1.4021 38.291012 11.11132zm86.14649 98.2832-24.00196 141.34961h36.5625l11.81446-81.3789h.37304l32.44727 81.3789h14.63281l33.93946-81.3789h.37304l10.31446 81.3789h36.7832l-21.40234-141.34961h-36.5625l-30.38868 75.54102-28.69531-75.54102z"/></svg>