<svg xmlns="http://www.w3.org/2000/svg" width="128" height="128" viewBox="0 0 128 128" fill="none">
  <rect width="128" height="128" rx="24" fill="#0B3B8F"/>
  <path d="M27 42.5C27 34.492 33.492 28 41.5 28H86.5C94.508 28 101 34.492 101 42.5V85.5C101 93.508 94.508 100 86.5 100H41.5C33.492 100 27 93.508 27 85.5V42.5Z" fill="#16A34A"/>
  <path d="M43 47C43 44.7909 44.7909 43 47 43H81C83.2091 43 85 44.7909 85 47V81C85 83.2091 83.2091 85 81 85H47C44.7909 85 43 83.2091 43 81V47Z" fill="white"/>
  <path d="M53.5 59.5C53.5 56.4624 55.9624 54 59 54H69C72.0376 54 74.5 56.4624 74.5 59.5V68.5C74.5 71.5376 72.0376 74 69 74H59C55.9624 74 53.5 71.5376 53.5 68.5V59.5Z" fill="#0B3B8F"/>
</svg>
