<svg width="80" height="22" viewBox="0 0 80 22" fill="none" xmlns="http://www.w3.org/2000/svg">
<path d="M25.1152 10.5767C25.1152 14.1738 27.4253 16.6818 30.6264 16.6818C33.8274 16.6818 36.1375 14.1738 36.1375 10.5767C36.1375 6.97961 33.8274 4.47156 30.6264 4.47156C27.4253 4.47156 25.1152 6.97961 25.1152 10.5767ZM34.0254 10.5767C34.0254 13.1507 32.6229 14.8173 30.6264 14.8173C28.6298 14.8173 27.2273 13.1507 27.2273 10.5767C27.2273 8.00263 28.6298 6.3361 30.6264 6.3361C32.6229 6.3361 34.0254 8.00263 34.0254 10.5767Z" fill="black"/>
<path d="M42.0868 16.6819C44.5124 16.6819 45.8984 14.6358 45.8984 12.1773C45.8984 9.71871 44.5124 7.67267 42.0868 7.67267C40.9648 7.67267 40.1398 8.11818 39.5953 8.76169V7.83767H37.6152V19.4704H39.5953V15.5928C40.1398 16.2364 40.9648 16.6819 42.0868 16.6819ZM39.5458 11.9298C39.5458 10.2962 40.4698 9.40521 41.6908 9.40521C43.1264 9.40521 43.9019 10.5272 43.9019 12.1773C43.9019 13.8273 43.1264 14.9493 41.6908 14.9493C40.4698 14.9493 39.5458 14.0418 39.5458 12.4413V11.9298Z" fill="black"/>
<path d="M51.2545 16.6819C52.987 16.6819 54.3565 15.7743 54.967 14.2563L53.2675 13.6128C53.0035 14.5038 52.228 14.9988 51.2545 14.9988C49.9839 14.9988 49.0929 14.0913 48.9444 12.6063H55.0165V11.9463C55.0165 9.57021 53.68 7.67267 51.172 7.67267C48.6639 7.67267 47.0469 9.63621 47.0469 12.1773C47.0469 14.8503 48.7794 16.6819 51.2545 16.6819ZM51.1555 9.3392C52.4095 9.3392 53.0035 10.1642 53.02 11.1212H49.0434C49.3404 9.94972 50.1324 9.3392 51.1555 9.3392Z" fill="black"/>
<path d="M56.5039 16.5004H58.484V11.4182C58.484 10.1807 59.3915 9.52071 60.2825 9.52071C61.3715 9.52071 61.8005 10.2962 61.8005 11.3687V16.5004H63.7806V10.7912C63.7806 8.9267 62.6915 7.67267 60.8765 7.67267C59.7545 7.67267 58.979 8.18418 58.484 8.76169V7.83767H56.5039V16.5004Z" fill="black"/>
<path d="M69.5799 4.65308L65.0918 16.5003H67.1873L68.1939 13.7943H73.309L74.332 16.5003H76.4605L71.9724 4.65308H69.5799ZM70.7349 6.99613L72.616 11.9462H68.8869L70.7349 6.99613Z" fill="black"/>
<path d="M79.8581 4.6875H77.7461V16.5348H79.8581V4.6875Z" fill="black"/>
<path d="M20.2769 9.00436C20.776 7.50627 20.6041 5.86517 19.8059 4.50251C18.6055 2.41247 16.1924 1.3372 13.8356 1.84321C12.7871 0.662057 11.2808 -0.00964523 9.70154 -2.00271e-05C7.29248 -0.00552014 5.155 1.54551 4.41386 3.83769C2.86626 4.15463 1.53042 5.12334 0.748717 6.49631C-0.460621 8.58085 -0.184928 11.2085 1.43073 12.9961C0.931596 14.4942 1.10348 16.1353 1.90168 17.4979C3.10208 19.588 5.51526 20.6632 7.87206 20.1572C8.91983 21.3384 10.4269 22.0101 12.0061 21.9998C14.4165 22.006 16.5547 20.4535 17.2958 18.1593C18.8434 17.8424 20.1793 16.8737 20.961 15.5007C22.1689 13.4161 21.8925 10.7905 20.2776 9.00298L20.2769 9.00436ZM12.0075 20.5622C11.0429 20.5635 10.1085 20.226 9.36809 19.6079C9.40178 19.59 9.46022 19.5577 9.49803 19.5343L13.8789 17.0043C14.103 16.8771 14.2405 16.6385 14.2391 16.3807V10.2048L16.0906 11.2738C16.1105 11.2835 16.1236 11.3027 16.1264 11.3247V16.4391C16.1236 18.7134 14.2818 20.5574 12.0075 20.5622ZM3.14952 16.7788C2.6662 15.9441 2.49225 14.9658 2.65795 14.0163C2.69026 14.0356 2.74732 14.0707 2.78789 14.094L7.16873 16.6241C7.3908 16.754 7.6658 16.754 7.88856 16.6241L13.2367 13.5358V15.6739C13.2381 15.6959 13.2278 15.7173 13.2106 15.731L8.78233 18.2879C6.80985 19.4236 4.29079 18.7485 3.15021 16.7788H3.14952ZM1.99656 7.21613C2.47782 6.38012 3.23752 5.74073 4.14229 5.40866C4.14229 5.44647 4.14023 5.51316 4.14023 5.55991V10.6207C4.13885 10.8778 4.27636 11.1164 4.4998 11.2436L9.84798 14.3312L7.9965 15.4003C7.97794 15.4127 7.95456 15.4147 7.93393 15.4058L3.50496 12.8469C1.53661 11.707 0.86147 9.18861 1.99587 7.21682L1.99656 7.21613ZM17.2085 10.7561L11.8603 7.66783L13.7118 6.59943C13.7304 6.58706 13.7537 6.585 13.7744 6.59393L18.2033 9.1508C20.1751 10.29 20.851 12.8125 19.7118 14.7843C19.2298 15.6189 18.4708 16.2583 17.5667 16.5911V11.379C17.5688 11.1219 17.432 10.884 17.2092 10.7561H17.2085ZM19.0511 7.98271C19.0187 7.96278 18.9617 7.9284 18.9211 7.90502L14.5403 5.37497C14.3182 5.24503 14.0432 5.24503 13.8204 5.37497L8.47226 8.46329V6.32512C8.47088 6.30311 8.4812 6.2818 8.49838 6.26805L12.9267 3.71325C14.8991 2.57541 17.4209 3.25261 18.5581 5.22578C19.0387 6.05905 19.2126 7.03463 19.0497 7.98271H19.0511ZM7.46574 11.7936L5.61357 10.7245C5.59363 10.7149 5.58057 10.6956 5.57782 10.6736V5.55922C5.5792 3.28218 7.42655 1.43689 9.7036 1.43826C10.6668 1.43826 11.5991 1.77652 12.3395 2.39253C12.3058 2.41041 12.2481 2.44272 12.2096 2.46609L7.82874 4.99615C7.60461 5.12334 7.46711 5.36122 7.46849 5.61904L7.46574 11.7922V11.7936ZM8.47157 9.62519L10.8538 8.24947L13.236 9.6245V12.3752L10.8538 13.7503L8.47157 12.3752V9.62519Z" fill="black"/>
</svg>
