<?xml version="1.0" encoding="UTF-8" standalone="no" ?>
<!DOCTYPE svg PUBLIC "-//W3C//DTD SVG 1.1//EN" "http://www.w3.org/Graphics/SVG/1.1/DTD/svg11.dtd">
<svg xmlns="http://www.w3.org/2000/svg" xmlns:xlink="http://www.w3.org/1999/xlink" version="1.1" width="80" height="22" viewBox="0 0 80 22" xml:space="preserve">
<desc>Created with Fabric.js 5.2.4</desc>
<defs>
</defs>
<rect x="0" y="0" width="100%" height="100%" fill="transparent"></rect>
<g transform="matrix(1 0 0 1 40 11)" id="11703676-ded7-4b1f-b3c6-7d574a96d9b1"  >
<rect style="stroke: none; stroke-width: 1; stroke-dasharray: none; stroke-linecap: butt; stroke-dashoffset: 0; stroke-linejoin: miter; stroke-miterlimit: 4; fill: rgb(255,255,255); fill-rule: nonzero; opacity: 1; visibility: hidden;" vector-effect="non-scaling-stroke"  x="-40" y="-11" rx="0" ry="0" width="80" height="22" />
</g>
<g transform="matrix(Infinity NaN NaN Infinity 0 0)" id="d20b18e7-78e4-404e-a713-4c54202b1a4b"  >
</g>
<g transform="matrix(1 0 0 1 11 11)" id="Vector"  >
<path style="stroke: rgb(0,0,0); stroke-width: 0; stroke-dasharray: none; stroke-linecap: butt; stroke-dashoffset: 0; stroke-linejoin: miter; stroke-miterlimit: 4; fill: rgb(0,0,0); fill-rule: nonzero; opacity: 1;" vector-effect="non-scaling-stroke"  transform=" translate(-10.85, -11)" d="M 20.2769 9.00448 C 20.776 7.50639 20.6041 5.86529 19.8059 4.50264 C 18.6055 2.41259 16.1924 1.33732 13.8356 1.84333 C 12.7871 0.662179 11.2808 -0.00952316 9.70154 0.000102043 C 7.29248 -0.00539807 5.155 1.54563 4.41386 3.83781 C 2.86626 4.15475 1.53042 5.12346 0.748717 6.49643 C -0.460621 8.58097 -0.184928 11.2087 1.43073 12.9962 C 0.931596 14.4943 1.10348 16.1354 1.90168 17.498 C 3.10208 19.5881 5.51526 20.6634 7.87206 20.1573 C 8.91983 21.3385 10.4269 22.0102 12.0061 21.9999 C 14.4165 22.0061 16.5547 20.4537 17.2958 18.1594 C 18.8434 17.8425 20.1793 16.8738 20.961 15.5008 C 22.1689 13.4163 21.8925 10.7906 20.2776 9.00311 L 20.2769 9.00448 Z M 12.0075 20.5623 C 11.0429 20.5637 10.1085 20.2261 9.36809 19.608 C 9.40178 19.5901 9.46022 19.5578 9.49803 19.5345 L 13.8789 17.0044 C 14.103 16.8772 14.2405 16.6386 14.2391 16.3808 L 14.2391 10.2049 L 16.0906 11.274 C 16.1105 11.2836 16.1236 11.3028 16.1264 11.3248 L 16.1264 16.4393 C 16.1236 18.7136 14.2818 20.5575 12.0075 20.5623 Z M 3.14952 16.7789 C 2.6662 15.9443 2.49225 14.9659 2.65795 14.0165 C 2.69026 14.0357 2.74732 14.0708 2.78789 14.0942 L 7.16873 16.6242 C 7.3908 16.7541 7.6658 16.7541 7.88856 16.6242 L 13.2367 13.5359 L 13.2367 15.6741 C 13.2381 15.6961 13.2278 15.7174 13.2106 15.7311 L 8.78233 18.288 C 6.80985 19.4238 4.29079 18.7486 3.15021 16.7789 L 3.14952 16.7789 Z M 1.99656 7.21626 C 2.47782 6.38024 3.23752 5.74085 4.14229 5.40878 C 4.14229 5.44659 4.14023 5.51328 4.14023 5.56003 L 4.14023 10.6208 C 4.13885 10.878 4.27636 11.1165 4.4998 11.2437 L 9.84798 14.3313 L 7.9965 15.4004 C 7.97794 15.4128 7.95456 15.4149 7.93393 15.4059 L 3.50496 12.847 C 1.53661 11.7071 0.86147 9.18874 1.99587 7.21694 L 1.99656 7.21626 Z M 17.2085 10.7563 L 11.8603 7.66795 L 13.7118 6.59956 C 13.7304 6.58718 13.7537 6.58512 13.7744 6.59406 L 18.2033 9.15092 C 20.1751 10.2901 20.851 12.8126 19.7118 14.7844 C 19.2298 15.6191 18.4708 16.2584 17.5667 16.5912 L 17.5667 11.3792 C 17.5688 11.122 17.432 10.8841 17.2092 10.7563 L 17.2085 10.7563 Z M 19.0511 7.98284 C 19.0187 7.9629 18.9617 7.92852 18.9211 7.90515 L 14.5403 5.37509 C 14.3182 5.24515 14.0432 5.24515 13.8204 5.37509 L 8.47226 8.46341 L 8.47226 6.32524 C 8.47088 6.30324 8.4812 6.28192 8.49838 6.26817 L 12.9267 3.71337 C 14.8991 2.57553 17.4209 3.25273 18.5581 5.2259 C 19.0387 6.05917 19.2126 7.03475 19.0497 7.98284 L 19.0511 7.98284 Z M 7.46574 11.7937 L 5.61357 10.7246 C 5.59363 10.715 5.58057 10.6958 5.57782 10.6738 L 5.57782 5.55935 C 5.5792 3.2823 7.42655 1.43701 9.7036 1.43838 C 10.6668 1.43838 11.5991 1.77664 12.3395 2.39265 C 12.3058 2.41053 12.2481 2.44284 12.2096 2.46622 L 7.82874 4.99627 C 7.60461 5.12346 7.46711 5.36134 7.46849 5.61916 L 7.46574 11.7924 L 7.46574 11.7937 Z M 8.47157 9.62531 L 10.8538 8.24959 L 13.236 9.62462 L 13.236 12.3754 L 10.8538 13.7504 L 8.47157 12.3754 L 8.47157 9.62531 Z" stroke-linecap="round" />
</g>
<g transform="matrix(1 0 0 1 52 11)" style="" id="07c27d23-a4ca-4e12-accb-f62205bd479f"  >
		<text xml:space="preserve" font-family="Raleway" font-size="16" font-style="normal" font-weight="700" style="stroke: none; stroke-width: 1; stroke-dasharray: none; stroke-linecap: butt; stroke-dashoffset: 0; stroke-linejoin: miter; stroke-miterlimit: 4; fill: rgb(0,0,0); fill-rule: nonzero; opacity: 1; white-space: pre;" ><tspan x="-27.9" y="5.03" >Magico</tspan></text>
</g>
</svg>