<svg width="142" height="96" viewBox="0 0 142 96" fill="none" xmlns="http://www.w3.org/2000/svg">
<g filter="url(#filter0_d_1_2771)">
<rect x="48.566" y="18.958" width="2.3913" height="10.1274" rx="1.19565" fill="url(#paint0_linear_1_2771)"/>
<g filter="url(#filter1_i_1_2771)">
<path d="M22.9684 56.8189C22.9684 61.5693 20.4172 65.4202 17.2701 65.4202C14.123 65.4202 10.9823 63.7526 11.5718 56.8189C12.1613 49.8852 14.123 48.2176 17.2701 48.2176C20.4172 48.2176 22.9684 52.0685 22.9684 56.8189Z" fill="url(#paint1_linear_1_2771)"/>
</g>
<path d="M17.2701 65.9202C19.0643 65.9202 20.6261 64.8226 21.7162 63.1771C22.8089 61.5278 23.4684 59.2784 23.4684 56.8189C23.4684 54.3594 22.8089 52.11 21.7162 50.4607C20.6261 48.8152 19.0643 47.7176 17.2701 47.7176C15.5949 47.7176 14.1421 48.1699 13.0611 49.6191C12.0163 51.0198 11.3701 53.2891 11.0736 56.7765C10.7733 60.3087 11.4117 62.618 12.6408 64.0459C13.876 65.481 15.6157 65.9202 17.2701 65.9202Z" stroke="white"/>
<g filter="url(#filter2_i_1_2771)">
<path d="M76.5607 56.8189C76.5607 61.5693 79.1119 65.4202 82.259 65.4202C85.406 65.4202 88.5467 63.7526 87.9573 56.8189C87.3678 49.8852 85.406 48.2176 82.259 48.2176C79.1119 48.2176 76.5607 52.0685 76.5607 56.8189Z" fill="url(#paint2_linear_1_2771)"/>
</g>
<path d="M82.259 65.9202C80.4648 65.9202 78.903 64.8226 77.8128 63.1771C76.7202 61.5278 76.0607 59.2784 76.0607 56.8189C76.0607 54.3594 76.7202 52.11 77.8128 50.4607C78.903 48.8152 80.4648 47.7176 82.259 47.7176C83.9342 47.7176 85.3869 48.1699 86.468 49.6191C87.5128 51.0198 88.159 53.2891 88.4555 56.7765C88.7557 60.3087 88.1173 62.618 86.8883 64.0459C85.653 65.481 83.9133 65.9202 82.259 65.9202Z" stroke="white"/>
<g filter="url(#filter3_ii_1_2771)">
<path d="M21.6064 44.8748C22.9992 35.1253 31.349 27.8835 41.1976 27.8835H58.3241C68.1727 27.8835 76.5225 35.1253 77.9153 44.8748L80.1771 60.7069C81.8802 72.6291 72.6291 83.2958 60.5859 83.2958H38.9359C26.8926 83.2958 17.6415 72.6291 19.3447 60.7069L21.6064 44.8748Z" fill="url(#paint3_linear_1_2771)"/>
</g>
<path d="M21.6064 44.8748C22.9992 35.1253 31.349 27.8835 41.1976 27.8835H58.3241C68.1727 27.8835 76.5225 35.1253 77.9153 44.8748L80.1771 60.7069C81.8802 72.6291 72.6291 83.2958 60.5859 83.2958H38.9359C26.8926 83.2958 17.6415 72.6291 19.3447 60.7069L21.6064 44.8748Z" stroke="white" stroke-width="0.382644"/>
<mask id="mask0_1_2771" style="mask-type:alpha" maskUnits="userSpaceOnUse" x="18" y="27" width="63" height="57">
<path d="M21.6064 44.8748C22.9992 35.1252 31.349 27.8834 41.1976 27.8834H58.3241C68.1727 27.8834 76.5225 35.1252 77.9153 44.8748L80.1771 60.7069C81.8802 72.6291 72.6291 83.2957 60.5859 83.2957H38.9359C26.8926 83.2957 17.6415 72.6291 19.3447 60.7069L21.6064 44.8748Z" fill="url(#paint4_linear_1_2771)" stroke="white" stroke-width="0.382644"/>
</mask>
<g mask="url(#mask0_1_2771)">
<g filter="url(#filter4_ii_1_2771)">
<path d="M21.6064 44.8748C22.9992 35.1252 31.349 27.8834 41.1976 27.8834H58.3241C68.1727 27.8834 76.5225 35.1252 77.9153 44.8748L80.1771 60.7069C81.8802 72.6291 72.6291 83.2957 60.5859 83.2957H38.9359C26.8926 83.2957 17.6415 72.6291 19.3447 60.7069L21.6064 44.8748Z" fill="url(#paint5_linear_1_2771)"/>
</g>
<path d="M21.6064 44.8748C22.9992 35.1252 31.349 27.8834 41.1976 27.8834H58.3241C68.1727 27.8834 76.5225 35.1252 77.9153 44.8748L80.1771 60.7069C81.8802 72.6291 72.6291 83.2957 60.5859 83.2957H38.9359C26.8926 83.2957 17.6415 72.6291 19.3447 60.7069L21.6064 44.8748Z" stroke="white"/>
<g filter="url(#filter5_f_1_2771)">
<circle cx="33.0457" cy="34.0617" r="8.51023" fill="#F7F7FB"/>
</g>
</g>
<mask id="mask1_1_2771" style="mask-type:alpha" maskUnits="userSpaceOnUse" x="25" y="33" width="50" height="45">
<path d="M26.0494 50.6803C27.5003 40.9903 35.8234 33.8207 45.6213 33.8207H53.9005C63.6985 33.8207 72.0215 40.9903 73.4724 50.6803L74.065 54.6383C75.8564 66.6019 66.5901 77.359 54.4931 77.359H45.0287C32.9318 77.359 23.6654 66.6019 25.4568 54.6383L26.0494 50.6803Z" fill="url(#paint6_linear_1_2771)"/>
<path d="M26.0494 50.6803C27.5003 40.9903 35.8234 33.8207 45.6213 33.8207H53.9005C63.6985 33.8207 72.0215 40.9903 73.4724 50.6803L74.065 54.6383C75.8564 66.6019 66.5901 77.359 54.4931 77.359H45.0287C32.9318 77.359 23.6654 66.6019 25.4568 54.6383L26.0494 50.6803Z" fill="#3183FF"/>
</mask>
<g mask="url(#mask1_1_2771)">
<g filter="url(#filter6_i_1_2771)">
<path d="M77.1886 57.4039C78.9762 67.6838 72.4219 77.359 49.7796 77.359C25.9457 77.359 20.583 67.6838 22.3706 57.4039C24.1581 47.1241 30.1166 33.8207 49.7796 33.8207C68.8468 33.8207 75.4011 47.1241 77.1886 57.4039Z" fill="url(#paint7_linear_1_2771)"/>
</g>
<g filter="url(#filter7_f_1_2771)">
<ellipse cx="43.5243" cy="44.9861" rx="10.5707" ry="7.20732" fill="#4C6DCC"/>
</g>
<g opacity="0.1" filter="url(#filter8_f_1_2771)">
<path fill-rule="evenodd" clip-rule="evenodd" d="M35.4619 44.0153C35.825 43.3641 36.2184 42.7446 36.6408 42.1933L32.3735 41.9694C31.6982 42.9455 30.6888 44.5539 29.8083 46.2692C31.0983 46.2624 32.6743 46.2677 34.3117 46.3774C34.6559 45.5766 35.0402 44.7716 35.4619 44.0153ZM34.1003 46.8805C32.4403 46.777 30.8435 46.7785 29.5484 46.7866C28.7212 48.4715 28.06 50.2077 27.9916 51.5111L32.4465 51.7449C32.4973 51.5614 32.5576 51.3489 32.6271 51.112C32.8763 50.263 33.2444 49.1001 33.72 47.8448C33.8399 47.5283 33.9667 47.2057 34.1003 46.8805ZM34.6429 46.9181C36.3218 47.0461 38.0382 47.2909 39.5501 47.7521C38.4628 49.9956 37.5838 52.0145 37.5838 52.0145L32.9742 51.7726C33.0175 51.6181 33.0668 51.4455 33.122 51.2573C33.3686 50.4172 33.7326 49.2673 34.2023 48.0275C34.3403 47.6632 34.4873 47.2916 34.6429 46.9181ZM39.779 47.2829C38.2591 46.81 36.5386 46.5542 34.8563 46.4176C35.1764 45.6846 35.5292 44.9537 35.9124 44.2665C36.3339 43.5107 36.7888 42.8138 37.2731 42.2265L42.4706 42.4992C41.7104 43.5043 40.6904 45.4272 39.779 47.2829Z" fill="white"/>
</g>
</g>
<g filter="url(#filter9_i_1_2771)">
<path d="M26.0494 50.6801C27.5003 40.9901 35.8233 33.8205 45.6213 33.8205H53.9004C63.6984 33.8205 72.0214 40.9901 73.4723 50.68L74.065 54.6381C75.8563 66.6016 66.59 77.3587 54.4931 77.3587H45.0287C32.9317 77.3587 23.6654 66.6016 25.4568 54.6381L26.0494 50.6801Z" stroke="url(#paint8_linear_1_2771)" stroke-width="2.86983"/>
<path d="M26.0494 50.6801C27.5003 40.9901 35.8233 33.8205 45.6213 33.8205H53.9004C63.6984 33.8205 72.0214 40.9901 73.4723 50.68L74.065 54.6381C75.8563 66.6016 66.59 77.3587 54.4931 77.3587H45.0287C32.9317 77.3587 23.6654 66.6016 25.4568 54.6381L26.0494 50.6801Z" stroke="#3183FF" stroke-width="2.86983"/>
</g>
<g filter="url(#filter10_di_1_2771)">
<path d="M43.8239 62.1124C43.8239 61.7888 44.0862 61.5265 44.4098 61.5265H55.1121C55.4357 61.5265 55.698 61.7888 55.698 62.1124V63.5055C55.698 66.7844 53.0399 69.4425 49.7609 69.4425C46.482 69.4425 43.8239 66.7844 43.8239 63.5055V62.1124Z" fill="#6FFEFF"/>
</g>
<g filter="url(#filter11_di_1_2771)">
<rect x="37.8869" y="47.6736" width="4.78261" height="9.56522" rx="2.3913" fill="#6FFEFF"/>
</g>
<g filter="url(#filter12_di_1_2771)">
<rect x="57.0173" y="47.6735" width="4.78261" height="9.56522" rx="2.3913" fill="#6FFEFF"/>
</g>
<circle cx="49.7616" cy="16.1851" r="4.78305" fill="url(#paint9_radial_1_2771)"/>
</g>
<g filter="url(#filter13_ii_1_2771)">
<path fill-rule="evenodd" clip-rule="evenodd" d="M112.5 41C128.516 41 141.5 32.0457 141.5 21C141.5 9.9543 128.516 1 112.5 1C96.4837 1 83.5 9.9543 83.5 21C83.5 24.3996 84.7299 27.601 86.8995 30.4043C87.6638 31.3918 87.9048 32.7395 87.2206 33.7841C86.4586 34.9479 85.5653 36.018 84.5619 36.9735C83.8286 37.6717 84.1387 38.936 85.1512 38.936C90.474 38.936 96.3681 38.0574 101.489 39.5081C104.884 40.4697 108.602 41 112.5 41Z" fill="url(#paint10_linear_1_2771)"/>
</g>
<path d="M101.489 39.5081L101.353 39.9891L101.489 39.5081ZM141 21C141 26.3115 137.879 31.1743 132.722 34.7305C127.568 38.2853 120.42 40.5 112.5 40.5V41.5C120.597 41.5 127.948 39.2375 133.29 35.5537C138.629 31.8714 142 26.7342 142 21H141ZM112.5 1.5C120.42 1.5 127.568 3.7147 132.722 7.26947C137.879 10.8257 141 15.6885 141 21H142C142 15.2658 138.629 10.1286 133.29 6.44626C127.948 2.76246 120.597 0.5 112.5 0.5V1.5ZM84 21C84 15.6885 87.1212 10.8257 92.2778 7.26947C97.4322 3.7147 104.58 1.5 112.5 1.5V0.5C104.403 0.5 97.0515 2.76246 91.71 6.44626C86.3706 10.1286 83 15.2658 83 21H84ZM87.2949 30.0983C85.183 27.3696 84 24.2734 84 21H83C83 24.5258 84.2767 27.8325 86.5041 30.7104L87.2949 30.0983ZM84.9067 37.3356C85.9378 36.3538 86.8557 35.2541 87.6389 34.0581L86.8024 33.5102C86.0614 34.6417 85.1928 35.6823 84.2171 36.6114L84.9067 37.3356ZM112.5 40.5C108.647 40.5 104.975 39.9758 101.626 39.027L101.353 39.9891C104.793 40.9636 108.557 41.5 112.5 41.5V40.5ZM85.1512 39.436C86.494 39.436 87.8704 39.3806 89.251 39.3209C90.6349 39.2611 92.0222 39.197 93.4027 39.178C96.1655 39.1399 98.8622 39.2836 101.353 39.9891L101.626 39.027C98.9953 38.2819 96.1843 38.1396 93.3889 38.1781C91.9904 38.1974 90.5861 38.2623 89.2078 38.3219C87.8261 38.3816 86.4697 38.436 85.1512 38.436V39.436ZM84.2171 36.6114C83.7129 37.0914 83.5596 37.7744 83.7202 38.3508C83.8859 38.9451 84.3953 39.436 85.1512 39.436V38.436C84.8946 38.436 84.7427 38.2948 84.6835 38.0823C84.6193 37.8521 84.6776 37.5538 84.9067 37.3356L84.2171 36.6114ZM86.5041 30.7104C87.1796 31.5831 87.3362 32.6949 86.8024 33.5102L87.6389 34.0581C88.4733 32.784 88.1481 31.2006 87.2949 30.0983L86.5041 30.7104Z" fill="white"/>
<mask id="path-21-outside-1_1_2771" maskUnits="userSpaceOnUse" x="100.5" y="8" width="24" height="19" fill="black">
<rect fill="white" x="100.5" y="8" width="24" height="19"/>
<path d="M101.94 26C102.052 26 102.164 25.888 102.276 25.664C102.388 25.44 102.444 25.072 102.444 24.56V13.04C102.444 12.528 102.388 12.168 102.276 11.96C102.164 11.736 102.052 11.616 101.94 11.6H105.636C105.524 11.6 105.412 11.712 105.3 11.936C105.188 12.16 105.132 12.536 105.132 13.064V16.976C105.132 17.328 105.172 17.536 105.252 17.6C105.348 17.664 105.636 17.696 106.116 17.696H113.292C113.772 17.696 114.052 17.672 114.132 17.624C114.212 17.56 114.252 17.344 114.252 16.976V13.04C114.252 12.528 114.196 12.168 114.084 11.96C113.972 11.736 113.86 11.616 113.748 11.6H117.444C117.332 11.6 117.22 11.712 117.108 11.936C116.996 12.16 116.94 12.536 116.94 13.064V24.56C116.94 25.072 116.996 25.44 117.108 25.664C117.22 25.888 117.332 26 117.444 26H113.748C113.86 26 113.972 25.888 114.084 25.664C114.196 25.44 114.252 25.072 114.252 24.56V20.336C114.252 19.968 114.204 19.76 114.108 19.712C114.028 19.648 113.756 19.616 113.292 19.616H106.116C105.636 19.616 105.348 19.648 105.252 19.712C105.172 19.776 105.132 19.984 105.132 20.336V24.56C105.132 25.072 105.188 25.44 105.3 25.664C105.412 25.888 105.524 26 105.636 26H101.94ZM119.979 26C120.091 26 120.195 25.888 120.291 25.664C120.403 25.44 120.459 25.072 120.459 24.56V16.208C120.459 15.696 120.403 15.336 120.291 15.128C120.195 14.904 120.091 14.784 119.979 14.768H122.907V24.56C122.907 25.072 122.955 25.44 123.051 25.664C123.163 25.888 123.275 26 123.387 26H119.979ZM121.443 12.464C120.979 12.464 120.619 12.336 120.363 12.08C120.107 11.808 119.979 11.496 119.979 11.144C119.979 10.776 120.099 10.464 120.339 10.208C120.595 9.952 120.963 9.824 121.443 9.824C121.923 9.824 122.283 9.952 122.523 10.208C122.779 10.464 122.907 10.776 122.907 11.144C122.907 11.496 122.779 11.808 122.523 12.08C122.267 12.336 121.907 12.464 121.443 12.464Z"/>
</mask>
<path d="M101.94 26C102.052 26 102.164 25.888 102.276 25.664C102.388 25.44 102.444 25.072 102.444 24.56V13.04C102.444 12.528 102.388 12.168 102.276 11.96C102.164 11.736 102.052 11.616 101.94 11.6H105.636C105.524 11.6 105.412 11.712 105.3 11.936C105.188 12.16 105.132 12.536 105.132 13.064V16.976C105.132 17.328 105.172 17.536 105.252 17.6C105.348 17.664 105.636 17.696 106.116 17.696H113.292C113.772 17.696 114.052 17.672 114.132 17.624C114.212 17.56 114.252 17.344 114.252 16.976V13.04C114.252 12.528 114.196 12.168 114.084 11.96C113.972 11.736 113.86 11.616 113.748 11.6H117.444C117.332 11.6 117.22 11.712 117.108 11.936C116.996 12.16 116.94 12.536 116.94 13.064V24.56C116.94 25.072 116.996 25.44 117.108 25.664C117.22 25.888 117.332 26 117.444 26H113.748C113.86 26 113.972 25.888 114.084 25.664C114.196 25.44 114.252 25.072 114.252 24.56V20.336C114.252 19.968 114.204 19.76 114.108 19.712C114.028 19.648 113.756 19.616 113.292 19.616H106.116C105.636 19.616 105.348 19.648 105.252 19.712C105.172 19.776 105.132 19.984 105.132 20.336V24.56C105.132 25.072 105.188 25.44 105.3 25.664C105.412 25.888 105.524 26 105.636 26H101.94ZM119.979 26C120.091 26 120.195 25.888 120.291 25.664C120.403 25.44 120.459 25.072 120.459 24.56V16.208C120.459 15.696 120.403 15.336 120.291 15.128C120.195 14.904 120.091 14.784 119.979 14.768H122.907V24.56C122.907 25.072 122.955 25.44 123.051 25.664C123.163 25.888 123.275 26 123.387 26H119.979ZM121.443 12.464C120.979 12.464 120.619 12.336 120.363 12.08C120.107 11.808 119.979 11.496 119.979 11.144C119.979 10.776 120.099 10.464 120.339 10.208C120.595 9.952 120.963 9.824 121.443 9.824C121.923 9.824 122.283 9.952 122.523 10.208C122.779 10.464 122.907 10.776 122.907 11.144C122.907 11.496 122.779 11.808 122.523 12.08C122.267 12.336 121.907 12.464 121.443 12.464Z" fill="#1F71FF"/>
<path d="M102.276 25.664L101.382 25.2168L102.276 25.664ZM102.276 11.96L101.382 12.4072L101.388 12.4208L101.396 12.4341L102.276 11.96ZM101.94 11.6V10.6L101.799 12.5899L101.94 11.6ZM105.3 11.936L104.406 11.4888L104.406 11.4888L105.3 11.936ZM105.252 17.6L104.627 18.3809L104.661 18.408L104.697 18.432L105.252 17.6ZM114.132 17.624L114.646 18.4815L114.704 18.4469L114.757 18.4049L114.132 17.624ZM114.084 11.96L113.19 12.4072L113.196 12.4208L113.204 12.4341L114.084 11.96ZM113.748 11.6V10.6L113.607 12.5899L113.748 11.6ZM117.108 11.936L116.214 11.4888L116.214 11.4888L117.108 11.936ZM117.108 25.664L116.214 26.1112L116.214 26.1112L117.108 25.664ZM114.084 25.664L114.978 26.1112L114.978 26.1112L114.084 25.664ZM114.108 19.712L113.483 20.4929L113.566 20.559L113.661 20.6064L114.108 19.712ZM105.252 19.712L104.697 18.8799L104.661 18.904L104.627 18.9311L105.252 19.712ZM105.3 25.664L104.406 26.1112H104.406L105.3 25.664ZM101.94 27C102.355 27 102.65 26.7881 102.815 26.6231C102.978 26.4602 103.091 26.2703 103.17 26.1112L101.382 25.2168C101.349 25.2817 101.35 25.2598 101.401 25.2089C101.454 25.1559 101.637 25 101.94 25V27ZM103.17 26.1112C103.393 25.6664 103.444 25.0977 103.444 24.56H101.444C101.444 24.7829 101.432 24.9499 101.413 25.0696C101.394 25.1955 101.374 25.2317 101.382 25.2168L103.17 26.1112ZM103.444 24.56V13.04H101.444V24.56H103.444ZM103.444 13.04C103.444 12.5131 103.396 11.931 103.156 11.4859L101.396 12.4341C101.377 12.3993 101.395 12.4178 101.414 12.5397C101.432 12.6531 101.444 12.8166 101.444 13.04H103.444ZM103.17 11.5128C103.092 11.355 102.985 11.1764 102.839 11.0197C102.696 10.8659 102.446 10.6621 102.081 10.61L101.799 12.5899C101.546 12.5539 101.408 12.4181 101.377 12.3843C101.343 12.3476 101.348 12.341 101.382 12.4072L103.17 11.5128ZM101.94 12.6H105.636V10.6H101.94V12.6ZM105.636 10.6C105.221 10.6 104.926 10.8119 104.761 10.9769C104.598 11.1398 104.485 11.3297 104.406 11.4888L106.194 12.3832C106.227 12.3183 106.226 12.3402 106.175 12.3911C106.122 12.4441 105.939 12.6 105.636 12.6V10.6ZM104.406 11.4888C104.182 11.9361 104.132 12.5161 104.132 13.064H106.132C106.132 12.8319 106.145 12.6579 106.163 12.5333C106.183 12.4014 106.203 12.3654 106.194 12.3832L104.406 11.4888ZM104.132 13.064V16.976H106.132V13.064H104.132ZM104.132 16.976C104.132 17.1797 104.143 17.3913 104.18 17.5848C104.205 17.7142 104.285 18.107 104.627 18.3809L105.877 16.8191C106.026 16.9387 106.092 17.0698 106.114 17.1214C106.14 17.1784 106.145 17.2137 106.144 17.2072C106.141 17.1927 106.132 17.1243 106.132 16.976H104.132ZM104.697 18.432C104.861 18.5413 105.026 18.5893 105.117 18.6121C105.224 18.6387 105.331 18.655 105.43 18.6659C105.626 18.6877 105.86 18.696 106.116 18.696V16.696C105.892 16.696 105.742 16.6883 105.65 16.6781C105.605 16.673 105.592 16.6693 105.603 16.6719C105.609 16.6734 105.629 16.6788 105.659 16.6905C105.688 16.7015 105.742 16.7249 105.807 16.768L104.697 18.432ZM106.116 18.696H113.292V16.696H106.116V18.696ZM113.292 18.696C113.544 18.696 113.766 18.6899 113.947 18.6743C114.037 18.6666 114.135 18.6552 114.231 18.6361C114.301 18.622 114.473 18.5853 114.646 18.4815L113.618 16.7665C113.695 16.7199 113.759 16.6977 113.785 16.6893C113.815 16.6795 113.835 16.6756 113.838 16.6749C113.844 16.6738 113.827 16.6774 113.777 16.6817C113.678 16.6901 113.52 16.696 113.292 16.696V18.696ZM114.757 18.4049C114.953 18.2481 115.053 18.0597 115.104 17.9414C115.157 17.8158 115.187 17.6939 115.205 17.5961C115.241 17.4014 115.252 17.1861 115.252 16.976H113.252C113.252 17.0507 113.25 17.1098 113.247 17.1552C113.244 17.2017 113.24 17.2255 113.239 17.2319C113.237 17.2421 113.242 17.2092 113.265 17.1536C113.278 17.124 113.3 17.0791 113.336 17.027C113.371 16.9749 113.426 16.9078 113.507 16.8431L114.757 18.4049ZM115.252 16.976V13.04H113.252V16.976H115.252ZM115.252 13.04C115.252 12.5131 115.204 11.931 114.964 11.4859L113.204 12.4341C113.185 12.3993 113.203 12.4178 113.222 12.5397C113.24 12.6531 113.252 12.8166 113.252 13.04H115.252ZM114.978 11.5128C114.9 11.355 114.793 11.1764 114.647 11.0197C114.504 10.8659 114.254 10.6621 113.889 10.61L113.607 12.5899C113.354 12.5539 113.216 12.4181 113.185 12.3843C113.151 12.3476 113.156 12.341 113.19 12.4072L114.978 11.5128ZM113.748 12.6H117.444V10.6H113.748V12.6ZM117.444 10.6C117.029 10.6 116.734 10.8119 116.569 10.9769C116.406 11.1398 116.293 11.3297 116.214 11.4888L118.002 12.3832C118.035 12.3183 118.034 12.3402 117.983 12.3911C117.93 12.4441 117.747 12.6 117.444 12.6V10.6ZM116.214 11.4888C115.99 11.9361 115.94 12.5161 115.94 13.064H117.94C117.94 12.8319 117.953 12.6579 117.971 12.5333C117.991 12.4014 118.011 12.3654 118.002 12.3832L116.214 11.4888ZM115.94 13.064V24.56H117.94V13.064H115.94ZM115.94 24.56C115.94 25.0977 115.991 25.6664 116.214 26.1112L118.002 25.2168C118.01 25.2317 117.99 25.1955 117.971 25.0696C117.952 24.9499 117.94 24.7829 117.94 24.56H115.94ZM116.214 26.1112C116.293 26.2703 116.406 26.4602 116.569 26.6231C116.734 26.7881 117.029 27 117.444 27V25C117.747 25 117.93 25.1559 117.983 25.2089C118.034 25.2598 118.035 25.2817 118.002 25.2168L116.214 26.1112ZM117.444 25H113.748V27H117.444V25ZM113.748 27C114.163 27 114.458 26.7881 114.623 26.6231C114.786 26.4602 114.899 26.2703 114.978 26.1112L113.19 25.2168C113.157 25.2817 113.158 25.2598 113.209 25.2089C113.262 25.1559 113.445 25 113.748 25V27ZM114.978 26.1112C115.201 25.6664 115.252 25.0977 115.252 24.56H113.252C113.252 24.7829 113.24 24.9499 113.221 25.0696C113.202 25.1955 113.182 25.2317 113.19 25.2168L114.978 26.1112ZM115.252 24.56V20.336H113.252V24.56H115.252ZM115.252 20.336C115.252 20.1223 115.239 19.8912 115.19 19.6791C115.159 19.542 115.04 19.0598 114.555 18.8176L113.661 20.6064C113.451 20.5017 113.344 20.348 113.299 20.2683C113.255 20.1888 113.242 20.1317 113.242 20.1289C113.241 20.1248 113.252 20.1817 113.252 20.336H115.252ZM114.733 18.9311C114.553 18.7873 114.364 18.7295 114.275 18.7052C114.166 18.6754 114.056 18.6581 113.961 18.6468C113.769 18.6242 113.54 18.616 113.292 18.616V20.616C113.508 20.616 113.647 20.6238 113.727 20.6332C113.768 20.6379 113.77 20.6406 113.749 20.6348C113.737 20.6316 113.708 20.6231 113.668 20.6057C113.631 20.5893 113.561 20.5553 113.483 20.4929L114.733 18.9311ZM113.292 18.616H106.116V20.616H113.292V18.616ZM106.116 18.616C105.86 18.616 105.626 18.6243 105.43 18.6461C105.331 18.657 105.224 18.6733 105.117 18.6999C105.026 18.7227 104.861 18.7707 104.697 18.8799L105.807 20.5441C105.742 20.5871 105.688 20.6105 105.659 20.6215C105.629 20.6333 105.609 20.6386 105.603 20.6401C105.592 20.6427 105.605 20.639 105.65 20.6339C105.742 20.6237 105.892 20.616 106.116 20.616V18.616ZM104.627 18.9311C104.285 19.205 104.205 19.5978 104.18 19.7272C104.143 19.9207 104.132 20.1323 104.132 20.336H106.132C106.132 20.1877 106.141 20.1193 106.144 20.1048C106.145 20.0983 106.14 20.1336 106.114 20.1906C106.092 20.2421 106.026 20.3732 105.877 20.4929L104.627 18.9311ZM104.132 20.336V24.56H106.132V20.336H104.132ZM104.132 24.56C104.132 25.0977 104.183 25.6664 104.406 26.1112L106.194 25.2168C106.202 25.2317 106.182 25.1955 106.163 25.0696C106.144 24.9499 106.132 24.7829 106.132 24.56H104.132ZM104.406 26.1112C104.485 26.2703 104.598 26.4602 104.761 26.6231C104.926 26.7881 105.221 27 105.636 27V25C105.939 25 106.122 25.1559 106.175 25.2089C106.226 25.2598 106.227 25.2817 106.194 25.2168L104.406 26.1112ZM105.636 25H101.94V27H105.636V25ZM120.291 25.664L119.397 25.2168L119.383 25.2431L119.372 25.2701L120.291 25.664ZM120.291 15.128L119.372 15.5219L119.389 15.5629L119.411 15.6021L120.291 15.128ZM119.979 14.768V13.768L119.838 15.7579L119.979 14.768ZM122.907 14.768H123.907V13.768H122.907V14.768ZM123.051 25.664L122.132 26.0579L122.143 26.0849L122.157 26.1112L123.051 25.664ZM120.363 12.08L119.635 12.7654L119.645 12.7764L119.656 12.7871L120.363 12.08ZM120.339 10.208L119.632 9.50089L119.62 9.51229L119.609 9.52406L120.339 10.208ZM122.523 10.208L121.793 10.8919L121.804 10.9037L121.816 10.9151L122.523 10.208ZM122.523 12.08L123.23 12.7871L123.241 12.7764L123.251 12.7654L122.523 12.08ZM119.979 27C120.403 27 120.704 26.7792 120.874 26.5965C121.036 26.4215 121.141 26.2204 121.21 26.0579L119.372 25.2701C119.345 25.3316 119.35 25.2985 119.408 25.2355C119.474 25.1648 119.667 25 119.979 25V27ZM121.185 26.1112C121.408 25.6664 121.459 25.0977 121.459 24.56H119.459C119.459 24.7829 119.447 24.9499 119.428 25.0696C119.409 25.1955 119.389 25.2317 119.397 25.2168L121.185 26.1112ZM121.459 24.56V16.208H119.459V24.56H121.459ZM121.459 16.208C121.459 15.6811 121.411 15.099 121.171 14.6539L119.411 15.6021C119.392 15.5673 119.41 15.5858 119.429 15.7077C119.447 15.8211 119.459 15.9846 119.459 16.208H121.459ZM121.21 14.7341C121.141 14.5722 121.042 14.3831 120.897 14.2151C120.75 14.046 120.496 13.8317 120.12 13.7781L119.838 15.7579C119.574 15.7203 119.428 15.574 119.385 15.5249C119.344 15.4769 119.345 15.4598 119.372 15.5219L121.21 14.7341ZM119.979 15.768H122.907V13.768H119.979V15.768ZM121.907 14.768V24.56H123.907V14.768H121.907ZM121.907 24.56C121.907 25.091 121.95 25.6346 122.132 26.0579L123.97 25.2701C123.972 25.2743 123.952 25.2258 123.935 25.0907C123.918 24.9622 123.907 24.7877 123.907 24.56H121.907ZM122.157 26.1112C122.236 26.2703 122.349 26.4602 122.512 26.6231C122.677 26.7881 122.972 27 123.387 27V25C123.69 25 123.873 25.1559 123.926 25.2089C123.977 25.2598 123.978 25.2817 123.945 25.2168L122.157 26.1112ZM123.387 25H119.979V27H123.387V25ZM121.443 11.464C121.166 11.464 121.09 11.3925 121.07 11.3729L119.656 12.7871C120.148 13.2795 120.792 13.464 121.443 13.464V11.464ZM121.091 11.3946C120.998 11.2957 120.979 11.2246 120.979 11.144H118.979C118.979 11.7674 119.216 12.3203 119.635 12.7654L121.091 11.3946ZM120.979 11.144C120.979 11.0164 121.011 10.9529 121.069 10.8919L119.609 9.52406C119.187 9.97512 118.979 10.5356 118.979 11.144H120.979ZM121.046 10.9151C121.06 10.9016 121.139 10.824 121.443 10.824V8.824C120.787 8.824 120.13 9.00238 119.632 9.50089L121.046 10.9151ZM121.443 10.824C121.597 10.824 121.689 10.8448 121.738 10.8622C121.781 10.8776 121.792 10.8904 121.793 10.8919L123.253 9.52406C122.762 9.00074 122.094 8.824 121.443 8.824V10.824ZM121.816 10.9151C121.881 10.9801 121.907 11.0363 121.907 11.144H123.907C123.907 10.5157 123.677 9.94787 123.23 9.50089L121.816 10.9151ZM121.907 11.144C121.907 11.2246 121.888 11.2957 121.795 11.3946L123.251 12.7654C123.67 12.3203 123.907 11.7674 123.907 11.144H121.907ZM121.816 11.3729C121.796 11.3925 121.72 11.464 121.443 11.464V13.464C122.094 13.464 122.738 13.2795 123.23 12.7871L121.816 11.3729Z" fill="white" mask="url(#path-21-outside-1_1_2771)"/>
<defs>
<filter id="filter0_d_1_2771" x="-1.06522" y="-1.17391" width="102.13" height="102.13" filterUnits="userSpaceOnUse" color-interpolation-filters="sRGB">
<feFlood flood-opacity="0" result="BackgroundImageFix"/>
<feColorMatrix in="SourceAlpha" type="matrix" values="0 0 0 0 0 0 0 0 0 0 0 0 0 0 0 0 0 0 127 0" result="hardAlpha"/>
<feOffset dy="2.3913"/>
<feGaussianBlur stdDeviation="4.78261"/>
<feComposite in2="hardAlpha" operator="out"/>
<feColorMatrix type="matrix" values="0 0 0 0 0 0 0 0 0 0.157371 0 0 0 0 0.462855 0 0 0 0.35 0"/>
<feBlend mode="normal" in2="BackgroundImageFix" result="effect1_dropShadow_1_2771"/>
<feBlend mode="normal" in="SourceGraphic" in2="effect1_dropShadow_1_2771" result="shape"/>
</filter>
<filter id="filter1_i_1_2771" x="10.5001" y="46.0707" width="13.4682" height="20.3494" filterUnits="userSpaceOnUse" color-interpolation-filters="sRGB">
<feFlood flood-opacity="0" result="BackgroundImageFix"/>
<feBlend mode="normal" in="SourceGraphic" in2="BackgroundImageFix" result="shape"/>
<feColorMatrix in="SourceAlpha" type="matrix" values="0 0 0 0 0 0 0 0 0 0 0 0 0 0 0 0 0 0 127 0" result="hardAlpha"/>
<feOffset dy="-1.14684"/>
<feGaussianBlur stdDeviation="0.955701"/>
<feComposite in2="hardAlpha" operator="arithmetic" k2="-1" k3="1"/>
<feColorMatrix type="matrix" values="0 0 0 0 0.258463 0 0 0 0 0.347186 0 0 0 0 0.575331 0 0 0 0.39 0"/>
<feBlend mode="normal" in2="shape" result="effect1_innerShadow_1_2771"/>
</filter>
<filter id="filter2_i_1_2771" x="75.5607" y="46.0707" width="13.4682" height="20.3494" filterUnits="userSpaceOnUse" color-interpolation-filters="sRGB">
<feFlood flood-opacity="0" result="BackgroundImageFix"/>
<feBlend mode="normal" in="SourceGraphic" in2="BackgroundImageFix" result="shape"/>
<feColorMatrix in="SourceAlpha" type="matrix" values="0 0 0 0 0 0 0 0 0 0 0 0 0 0 0 0 0 0 127 0" result="hardAlpha"/>
<feOffset dy="-1.14684"/>
<feGaussianBlur stdDeviation="0.955701"/>
<feComposite in2="hardAlpha" operator="arithmetic" k2="-1" k3="1"/>
<feColorMatrix type="matrix" values="0 0 0 0 0.258463 0 0 0 0 0.347186 0 0 0 0 0.575331 0 0 0 0.39 0"/>
<feBlend mode="normal" in2="shape" result="effect1_innerShadow_1_2771"/>
</filter>
<filter id="filter3_ii_1_2771" x="18.9507" y="25.779" width="61.6204" height="57.7081" filterUnits="userSpaceOnUse" color-interpolation-filters="sRGB">
<feFlood flood-opacity="0" result="BackgroundImageFix"/>
<feBlend mode="normal" in="SourceGraphic" in2="BackgroundImageFix" result="shape"/>
<feColorMatrix in="SourceAlpha" type="matrix" values="0 0 0 0 0 0 0 0 0 0 0 0 0 0 0 0 0 0 127 0" result="hardAlpha"/>
<feOffset dy="-0.859619"/>
<feGaussianBlur stdDeviation="0.343848"/>
<feComposite in2="hardAlpha" operator="arithmetic" k2="-1" k3="1"/>
<feColorMatrix type="matrix" values="0 0 0 0 1 0 0 0 0 1 0 0 0 0 1 0 0 0 0.57 0"/>
<feBlend mode="normal" in2="shape" result="effect1_innerShadow_1_2771"/>
<feColorMatrix in="SourceAlpha" type="matrix" values="0 0 0 0 0 0 0 0 0 0 0 0 0 0 0 0 0 0 127 0" result="hardAlpha"/>
<feOffset dy="-1.91322"/>
<feGaussianBlur stdDeviation="0.956609"/>
<feComposite in2="hardAlpha" operator="arithmetic" k2="-1" k3="1"/>
<feColorMatrix type="matrix" values="0 0 0 0 0.0018613 0 0 0 0 0.0686406 0 0 0 0 0.116998 0 0 0 0.25 0"/>
<feBlend mode="normal" in2="effect1_innerShadow_1_2771" result="effect2_innerShadow_1_2771"/>
</filter>
<filter id="filter4_ii_1_2771" x="18.642" y="25.4702" width="62.2378" height="58.3255" filterUnits="userSpaceOnUse" color-interpolation-filters="sRGB">
<feFlood flood-opacity="0" result="BackgroundImageFix"/>
<feBlend mode="normal" in="SourceGraphic" in2="BackgroundImageFix" result="shape"/>
<feColorMatrix in="SourceAlpha" type="matrix" values="0 0 0 0 0 0 0 0 0 0 0 0 0 0 0 0 0 0 127 0" result="hardAlpha"/>
<feOffset dy="-0.859619"/>
<feGaussianBlur stdDeviation="0.343848"/>
<feComposite in2="hardAlpha" operator="arithmetic" k2="-1" k3="1"/>
<feColorMatrix type="matrix" values="0 0 0 0 1 0 0 0 0 1 0 0 0 0 1 0 0 0 0.57 0"/>
<feBlend mode="normal" in2="shape" result="effect1_innerShadow_1_2771"/>
<feColorMatrix in="SourceAlpha" type="matrix" values="0 0 0 0 0 0 0 0 0 0 0 0 0 0 0 0 0 0 127 0" result="hardAlpha"/>
<feOffset dy="-1.91322"/>
<feGaussianBlur stdDeviation="0.956609"/>
<feComposite in2="hardAlpha" operator="arithmetic" k2="-1" k3="1"/>
<feColorMatrix type="matrix" values="0 0 0 0 0.0018613 0 0 0 0 0.0686406 0 0 0 0 0.116998 0 0 0 0.25 0"/>
<feBlend mode="normal" in2="effect1_innerShadow_1_2771" result="effect2_innerShadow_1_2771"/>
</filter>
<filter id="filter5_f_1_2771" x="14.7358" y="15.7518" width="36.6198" height="36.6198" filterUnits="userSpaceOnUse" color-interpolation-filters="sRGB">
<feFlood flood-opacity="0" result="BackgroundImageFix"/>
<feBlend mode="normal" in="SourceGraphic" in2="BackgroundImageFix" result="shape"/>
<feGaussianBlur stdDeviation="4.89983" result="effect1_foregroundBlur_1_2771"/>
</filter>
<filter id="filter6_i_1_2771" x="22.0548" y="33.8207" width="55.4123" height="45.4294" filterUnits="userSpaceOnUse" color-interpolation-filters="sRGB">
<feFlood flood-opacity="0" result="BackgroundImageFix"/>
<feBlend mode="normal" in="SourceGraphic" in2="BackgroundImageFix" result="shape"/>
<feColorMatrix in="SourceAlpha" type="matrix" values="0 0 0 0 0 0 0 0 0 0 0 0 0 0 0 0 0 0 127 0" result="hardAlpha"/>
<feOffset dy="1.89116"/>
<feGaussianBlur stdDeviation="0.945581"/>
<feComposite in2="hardAlpha" operator="arithmetic" k2="-1" k3="1"/>
<feColorMatrix type="matrix" values="0 0 0 0 0 0 0 0 0 0 0 0 0 0 0 0 0 0 1 0"/>
<feBlend mode="normal" in2="shape" result="effect1_innerShadow_1_2771"/>
</filter>
<filter id="filter7_f_1_2771" x="25.3007" y="30.1259" width="36.4472" height="29.7204" filterUnits="userSpaceOnUse" color-interpolation-filters="sRGB">
<feFlood flood-opacity="0" result="BackgroundImageFix"/>
<feBlend mode="normal" in="SourceGraphic" in2="BackgroundImageFix" result="shape"/>
<feGaussianBlur stdDeviation="3.82644" result="effect1_foregroundBlur_1_2771"/>
</filter>
<filter id="filter8_f_1_2771" x="27.6089" y="41.5867" width="15.2443" height="10.8104" filterUnits="userSpaceOnUse" color-interpolation-filters="sRGB">
<feFlood flood-opacity="0" result="BackgroundImageFix"/>
<feBlend mode="normal" in="SourceGraphic" in2="BackgroundImageFix" result="shape"/>
<feGaussianBlur stdDeviation="0.191322" result="effect1_foregroundBlur_1_2771"/>
</filter>
<filter id="filter9_i_1_2771" x="23.7993" y="31.526" width="51.9231" height="47.2677" filterUnits="userSpaceOnUse" color-interpolation-filters="sRGB">
<feFlood flood-opacity="0" result="BackgroundImageFix"/>
<feBlend mode="normal" in="SourceGraphic" in2="BackgroundImageFix" result="shape"/>
<feColorMatrix in="SourceAlpha" type="matrix" values="0 0 0 0 0 0 0 0 0 0 0 0 0 0 0 0 0 0 127 0" result="hardAlpha"/>
<feOffset dy="-1.03154"/>
<feGaussianBlur stdDeviation="0.429809"/>
<feComposite in2="hardAlpha" operator="arithmetic" k2="-1" k3="1"/>
<feColorMatrix type="matrix" values="0 0 0 0 0.695075 0 0 0 0 0.871932 0 0 0 0 1 0 0 0 0.5 0"/>
<feBlend mode="normal" in2="shape" result="effect1_innerShadow_1_2771"/>
</filter>
<filter id="filter10_di_1_2771" x="42.9643" y="60.6669" width="13.5933" height="10.6889" filterUnits="userSpaceOnUse" color-interpolation-filters="sRGB">
<feFlood flood-opacity="0" result="BackgroundImageFix"/>
<feColorMatrix in="SourceAlpha" type="matrix" values="0 0 0 0 0 0 0 0 0 0 0 0 0 0 0 0 0 0 127 0" result="hardAlpha"/>
<feOffset/>
<feGaussianBlur stdDeviation="0.429809"/>
<feComposite in2="hardAlpha" operator="out"/>
<feColorMatrix type="matrix" values="0 0 0 0 0.435294 0 0 0 0 0.996078 0 0 0 0 1 0 0 0 1 0"/>
<feBlend mode="normal" in2="BackgroundImageFix" result="effect1_dropShadow_1_2771"/>
<feBlend mode="normal" in="SourceGraphic" in2="effect1_dropShadow_1_2771" result="shape"/>
<feColorMatrix in="SourceAlpha" type="matrix" values="0 0 0 0 0 0 0 0 0 0 0 0 0 0 0 0 0 0 127 0" result="hardAlpha"/>
<feOffset dy="1.91322"/>
<feGaussianBlur stdDeviation="0.956609"/>
<feComposite in2="hardAlpha" operator="arithmetic" k2="-1" k3="1"/>
<feColorMatrix type="matrix" values="0 0 0 0 1 0 0 0 0 1 0 0 0 0 1 0 0 0 0.71 0"/>
<feBlend mode="normal" in2="shape" result="effect2_innerShadow_1_2771"/>
</filter>
<filter id="filter11_di_1_2771" x="37.0273" y="46.814" width="6.50185" height="12.3381" filterUnits="userSpaceOnUse" color-interpolation-filters="sRGB">
<feFlood flood-opacity="0" result="BackgroundImageFix"/>
<feColorMatrix in="SourceAlpha" type="matrix" values="0 0 0 0 0 0 0 0 0 0 0 0 0 0 0 0 0 0 127 0" result="hardAlpha"/>
<feOffset/>
<feGaussianBlur stdDeviation="0.429809"/>
<feComposite in2="hardAlpha" operator="out"/>
<feColorMatrix type="matrix" values="0 0 0 0 0.435294 0 0 0 0 0.996078 0 0 0 0 1 0 0 0 1 0"/>
<feBlend mode="normal" in2="BackgroundImageFix" result="effect1_dropShadow_1_2771"/>
<feBlend mode="normal" in="SourceGraphic" in2="effect1_dropShadow_1_2771" result="shape"/>
<feColorMatrix in="SourceAlpha" type="matrix" values="0 0 0 0 0 0 0 0 0 0 0 0 0 0 0 0 0 0 127 0" result="hardAlpha"/>
<feOffset dy="1.91322"/>
<feGaussianBlur stdDeviation="0.956609"/>
<feComposite in2="hardAlpha" operator="arithmetic" k2="-1" k3="1"/>
<feColorMatrix type="matrix" values="0 0 0 0 1 0 0 0 0 1 0 0 0 0 1 0 0 0 0.71 0"/>
<feBlend mode="normal" in2="shape" result="effect2_innerShadow_1_2771"/>
</filter>
<filter id="filter12_di_1_2771" x="56.1577" y="46.8138" width="6.50185" height="12.3381" filterUnits="userSpaceOnUse" color-interpolation-filters="sRGB">
<feFlood flood-opacity="0" result="BackgroundImageFix"/>
<feColorMatrix in="SourceAlpha" type="matrix" values="0 0 0 0 0 0 0 0 0 0 0 0 0 0 0 0 0 0 127 0" result="hardAlpha"/>
<feOffset/>
<feGaussianBlur stdDeviation="0.429809"/>
<feComposite in2="hardAlpha" operator="out"/>
<feColorMatrix type="matrix" values="0 0 0 0 0.435294 0 0 0 0 0.996078 0 0 0 0 1 0 0 0 1 0"/>
<feBlend mode="normal" in2="BackgroundImageFix" result="effect1_dropShadow_1_2771"/>
<feBlend mode="normal" in="SourceGraphic" in2="effect1_dropShadow_1_2771" result="shape"/>
<feColorMatrix in="SourceAlpha" type="matrix" values="0 0 0 0 0 0 0 0 0 0 0 0 0 0 0 0 0 0 127 0" result="hardAlpha"/>
<feOffset dy="1.91322"/>
<feGaussianBlur stdDeviation="0.956609"/>
<feComposite in2="hardAlpha" operator="arithmetic" k2="-1" k3="1"/>
<feColorMatrix type="matrix" values="0 0 0 0 1 0 0 0 0 1 0 0 0 0 1 0 0 0 0.71 0"/>
<feBlend mode="normal" in2="shape" result="effect2_innerShadow_1_2771"/>
</filter>
<filter id="filter13_ii_1_2771" x="83" y="-1.41322" width="59" height="42.9132" filterUnits="userSpaceOnUse" color-interpolation-filters="sRGB">
<feFlood flood-opacity="0" result="BackgroundImageFix"/>
<feBlend mode="normal" in="SourceGraphic" in2="BackgroundImageFix" result="shape"/>
<feColorMatrix in="SourceAlpha" type="matrix" values="0 0 0 0 0 0 0 0 0 0 0 0 0 0 0 0 0 0 127 0" result="hardAlpha"/>
<feOffset dy="-0.859619"/>
<feGaussianBlur stdDeviation="0.343848"/>
<feComposite in2="hardAlpha" operator="arithmetic" k2="-1" k3="1"/>
<feColorMatrix type="matrix" values="0 0 0 0 1 0 0 0 0 1 0 0 0 0 1 0 0 0 0.57 0"/>
<feBlend mode="normal" in2="shape" result="effect1_innerShadow_1_2771"/>
<feColorMatrix in="SourceAlpha" type="matrix" values="0 0 0 0 0 0 0 0 0 0 0 0 0 0 0 0 0 0 127 0" result="hardAlpha"/>
<feOffset dy="-1.91322"/>
<feGaussianBlur stdDeviation="0.956609"/>
<feComposite in2="hardAlpha" operator="arithmetic" k2="-1" k3="1"/>
<feColorMatrix type="matrix" values="0 0 0 0 0.0018613 0 0 0 0 0.0686406 0 0 0 0 0.116998 0 0 0 0.25 0"/>
<feBlend mode="normal" in2="effect1_innerShadow_1_2771" result="effect2_innerShadow_1_2771"/>
</filter>
<linearGradient id="paint0_linear_1_2771" x1="48.566" y1="24.9023" x2="50.7551" y2="24.6974" gradientUnits="userSpaceOnUse">
<stop stop-color="#F2F6FB"/>
<stop offset="1" stop-color="#D7E0F2"/>
</linearGradient>
<linearGradient id="paint1_linear_1_2771" x1="17.2701" y1="48.2176" x2="17.2701" y2="65.4202" gradientUnits="userSpaceOnUse">
<stop offset="0.318645" stop-color="#FBFBFB"/>
<stop offset="1" stop-color="#BBD6FF"/>
</linearGradient>
<linearGradient id="paint2_linear_1_2771" x1="82.259" y1="48.2176" x2="82.259" y2="65.4202" gradientUnits="userSpaceOnUse">
<stop offset="0.318645" stop-color="#FBFBFB"/>
<stop offset="1" stop-color="#BBD6FF"/>
</linearGradient>
<linearGradient id="paint3_linear_1_2771" x1="36.0696" y1="29.3883" x2="53.4613" y2="81.1841" gradientUnits="userSpaceOnUse">
<stop offset="0.193483" stop-color="#F3F8FF"/>
<stop offset="0.97967" stop-color="#9AC1FD"/>
</linearGradient>
<linearGradient id="paint4_linear_1_2771" x1="36.0696" y1="29.3882" x2="53.4613" y2="81.1841" gradientUnits="userSpaceOnUse">
<stop offset="0.193483" stop-color="#F3F8FF"/>
<stop offset="0.97967" stop-color="#9AC1FD"/>
</linearGradient>
<linearGradient id="paint5_linear_1_2771" x1="36.0696" y1="29.3882" x2="53.4613" y2="81.1841" gradientUnits="userSpaceOnUse">
<stop offset="0.193483" stop-color="#F3F8FF"/>
<stop offset="0.97967" stop-color="#9AC1FD"/>
</linearGradient>
<linearGradient id="paint6_linear_1_2771" x1="49.7609" y1="33.8207" x2="49.7609" y2="77.359" gradientUnits="userSpaceOnUse">
<stop stop-color="#9598C1" stop-opacity="0.72"/>
<stop offset="1" stop-color="#BECFF2" stop-opacity="0.75"/>
</linearGradient>
<linearGradient id="paint7_linear_1_2771" x1="49.7609" y1="33.8207" x2="49.7609" y2="77.359" gradientUnits="userSpaceOnUse">
<stop stop-color="#4967BE"/>
<stop offset="1" stop-color="#000616"/>
</linearGradient>
<linearGradient id="paint8_linear_1_2771" x1="49.7609" y1="33.8205" x2="49.7609" y2="77.3587" gradientUnits="userSpaceOnUse">
<stop stop-color="#9598C1" stop-opacity="0.72"/>
<stop offset="1" stop-color="#BECFF2" stop-opacity="0.75"/>
</linearGradient>
<radialGradient id="paint9_radial_1_2771" cx="0" cy="0" r="1" gradientUnits="userSpaceOnUse" gradientTransform="translate(48.1059 14.0695) rotate(71.5651) scale(5.23569)">
<stop stop-color="white"/>
<stop offset="1" stop-color="#D6DFF1"/>
</radialGradient>
<linearGradient id="paint10_linear_1_2771" x1="101.884" y1="2.08626" x2="112.12" y2="40.9986" gradientUnits="userSpaceOnUse">
<stop offset="0.193483" stop-color="#F3F8FF"/>
<stop offset="0.97967" stop-color="#9AC1FD"/>
</linearGradient>
</defs>
</svg>
