<svg class="icon" viewBox="0 0 1202 1024" version="1.1" xmlns="http://www.w3.org/2000/svg" width="200" height="200"><path d="M949.700465 189.67814h107.162791c44.770233 0 80.491163 33.339535 80.491163 73.466046v605.231628a77.276279 77.276279 0 0 1-80.491163 73.466046H145.384186a77.157209 77.157209 0 0 1-80.610233-73.466046V263.144186a77.157209 77.157209 0 0 1 80.610233-73.466046h125.380465a26.909767 26.909767 0 1 0 0-53.700466H145.384186C71.44186 135.977674 11.073488 192.297674 11.073488 263.144186v605.231628c0 70.846512 60.368372 127.166512 134.310698 127.166512h911.836279c73.704186 0 134.310698-56.43907 134.310698-127.166512V263.144186c0-70.727442-60.606512-127.166512-134.310698-127.166512h-107.162791a26.909767 26.909767 0 0 0 0 53.700466z"></path><path d="M278.504186 189.67814c26.790698 0 67.750698-16.074419 96.089302-36.792559l60.487442-44.174883a165.864186 165.864186 0 0 1 80.848372-26.552558h169.793489a166.697674 166.697674 0 0 1 80.967442 26.552558l60.487441 44.174883A218.612093 218.612093 0 0 0 940.651163 189.67814h36.792558a26.909767 26.909767 0 1 0 0-53.700466H940.651163a165.983256 165.983256 0 0 1-81.324651-26.552558L797.767442 65.369302a217.064186 217.064186 0 0 0-112.52093-36.911628H515.929302a217.064186 217.064186 0 0 0-112.52093 36.911628l-60.487442 44.055814a144.550698 144.550698 0 0 1-64.416744 26.552558 26.909767 26.909767 0 1 0 0 53.700466z m322.321861 563.557209A241.830698 241.830698 0 1 0 359.114419 512a241.830698 241.830698 0 0 0 241.711628 241.235349z m0-53.819535a188.011163 188.011163 0 1 1 0-376.022326 188.011163 188.011163 0 1 1 0 376.022326zM923.266977 350.184186a53.700465 53.700465 0 1 0 107.16279 0 53.700465 53.700465 0 1 0-107.16279 0z"></path></svg>