<svg width="512" height="512" viewBox="0 0 512 512" fill="none" xmlns="http://www.w3.org/2000/svg">
<path d="M457 357.752C434.447 388.263 399.909 408.62 360.938 411.591C359.724 411.676 358.511 411.761 357.28 411.829C311.584 414.104 277.065 393.256 254.175 373.9C213.67 352.456 181.979 347.056 163.437 342.387C149.952 338.991 138.153 332.2 133.096 328.804C128.613 326.138 119.595 319.958 112.869 308.43C105.335 295.509 104.896 283.166 105.014 277.92C108.942 277.393 114.015 276.816 119.949 276.442C124.803 276.137 129.506 276.018 134.782 276.001C175.708 275.95 207.448 277.953 230.541 288.208C243.031 293.743 254.611 301.112 264.927 310.094C278.192 321.673 305.313 339.976 338.739 333.728C342.986 332.93 347.066 331.877 350.993 330.587C363.028 328.855 383.609 327.463 407.848 333.898C430.856 340.01 447.409 350.571 457 357.752Z" fill="#0A60B5" stroke="black" stroke-width="8" stroke-miterlimit="10"/>
<path d="M454 147.632C443.832 134.459 431.474 122.006 416.878 113.508C401.324 104.458 381.476 96.6646 357.471 94.5528C298.821 89.3907 258.722 121.922 251.416 128.073C242.326 136.604 205.964 166.789 162.196 183.549C154.57 186.264 139.891 192.683 126.844 207.013C116.525 218.343 111.475 229.94 109 237.147C114.219 237.868 119.605 238.388 125.161 238.706C167.599 241.069 204.062 241.304 227.916 229.622C243.673 221.912 257.493 210.935 269.412 198.08C290.892 174.9 322.22 164.56 350.737 171.649C363.834 173.476 386.644 174.867 413.023 166.789C431.238 161.208 444.809 154.185 454 147.632Z" fill="#0A60B5" stroke="black" stroke-width="8" stroke-miterlimit="10"/>
<path d="M56 157.414C39.7299 149.051 27.0288 139.404 18.366 131.853C13.5235 127.629 6 131.092 6 137.546V190.307C6 192.605 7.03887 194.784 8.81501 196.203L30.4303 217C31.5697 208.637 34.0161 197.267 39.5121 184.698C44.6897 172.838 50.9062 163.766 56 157.414Z" fill="#0A60B5" stroke="black" stroke-width="8" stroke-miterlimit="10"/>
<path d="M404 275.157C406.473 267.536 407.845 259.542 408.049 251.396C408.218 244.96 407.473 242.555 406.355 236.323C417.857 234.392 432.222 231.242 445.317 227.855C459.157 224.282 469.389 220.132 480.891 216C482.568 224.045 484.33 227.957 484.939 233.918C485.515 239.541 485.871 245.367 485.973 251.396C486.278 270.127 483.991 287.113 480.467 302C469.626 296.377 456.751 290.551 441.929 285.437C428.14 280.661 415.316 277.409 404 275.157Z" fill="#0A60B5" stroke="black" stroke-width="8" stroke-miterlimit="10"/>
<path d="M17.8633 386.557C12.9035 390.158 6 386.608 6 380.438V315.638C6 313.677 6.75402 311.817 8.06099 310.431C8.71448 309.738 9.31769 309.349 9.58579 309.197L31 300C32.5751 308.588 35.1723 318.867 39.5121 330.058C44.5891 343.143 50.6213 353.743 56 361.807C43.2822 370.057 30.5643 378.307 17.8633 386.557Z" fill="#0A60B5" stroke="black" stroke-width="8" stroke-miterlimit="10"/>
<path fill-rule="evenodd" clip-rule="evenodd" d="M155.765 103.453C198.594 101.328 230.622 119.267 247.13 131.257C234.633 142.295 200.817 168.932 160.818 184.316C158.121 185.28 154.541 186.71 150.462 188.793C121.52 203.048 104.31 231.457 103.542 261.808C103.413 266.916 103.673 272.006 104.349 277.007C104.276 277.016 104.203 277.026 104.131 277.036C104.013 282.241 104.451 294.488 111.981 307.308C118.703 318.747 127.716 324.879 132.197 327.524C134.42 329.006 137.949 331.141 142.351 333.354C147.523 336.109 153.257 338.42 159.582 340.207C160.551 340.488 161.531 340.753 162.52 341.001C164.821 341.576 167.33 342.171 170.036 342.814C189.12 347.343 218.035 354.206 253.489 372.84C257.07 375.846 260.929 378.875 265.067 381.836C263.81 382.961 262.751 383.944 261.896 384.751C254.585 390.934 214.457 423.632 155.765 418.444C131.742 416.321 111.864 408.488 96.3149 399.391C70.119 384.077 50.3247 359.853 39.5263 331.5C32.5688 313.222 26.5041 289.587 26.0661 261.774C25.6787 238.021 29.4859 217.098 34.6745 199.746C50.5605 146.731 96.8876 107.85 152.11 103.689C153.322 103.605 154.535 103.52 155.765 103.453ZM455.742 356.124C446.129 349.001 429.635 338.603 406.79 332.577C382.565 326.193 361.996 327.574 349.968 329.292C346.042 330.573 341.966 331.617 337.72 332.409C304.314 338.608 277.209 320.448 263.951 308.959C261.373 306.731 258.716 304.603 255.986 302.578C264.908 294.736 274.719 287.969 285.414 282.714C309.285 270.989 345.774 271.225 388.243 273.583C446.767 276.851 487.198 304.732 503.336 317.535C505.139 318.967 506.166 321.123 506.166 323.414V376.025C506.166 382.477 498.602 385.93 493.734 381.702C485.011 374.15 472.183 364.489 455.742 356.124ZM268.112 198.921C264.275 203.078 260.24 207.04 256.008 210.76C264.204 216.84 273.061 221.988 282.432 226.11C305.511 236.285 337.233 238.273 378.135 238.223C438.125 238.139 482.295 215.548 502.561 203.25C504.802 201.886 506.166 199.46 506.166 196.832V132.26C506.166 126.111 499.226 122.574 494.239 126.162C482.435 134.658 464.882 145.501 442.244 154.031C434.092 158.837 423.933 163.744 411.827 167.469C385.429 175.589 362.602 174.191 349.496 172.355C320.959 165.229 289.608 175.623 268.112 198.921Z" fill="#E11312"/>
<path d="M247.13 131.257L249.779 134.255L253.518 130.952L249.481 128.02L247.13 131.257ZM155.765 103.453L155.567 99.458L155.557 99.4585L155.546 99.4591L155.765 103.453ZM160.818 184.316L162.165 188.082L162.21 188.066L162.254 188.049L160.818 184.316ZM150.462 188.793L152.23 192.381L152.256 192.368L152.281 192.355L150.462 188.793ZM103.542 261.808L99.5432 261.706L99.5432 261.706L103.542 261.808ZM104.349 277.007L104.873 280.972L108.85 280.447L108.313 276.471L104.349 277.007ZM104.131 277.036L103.603 273.071L100.209 273.522L100.132 276.945L104.131 277.036ZM111.981 307.308L108.532 309.334L108.532 309.335L111.981 307.308ZM132.197 327.524L134.415 324.195L134.324 324.135L134.23 324.079L132.197 327.524ZM142.351 333.354L144.232 329.824L144.19 329.801L144.148 329.78L142.351 333.354ZM159.582 340.207L160.696 336.365L160.683 336.361L160.67 336.358L159.582 340.207ZM162.52 341.001L163.49 337.12L163.49 337.12L162.52 341.001ZM170.036 342.814L170.96 338.922L170.96 338.922L170.036 342.814ZM253.489 372.84L256.061 369.776L255.731 369.5L255.35 369.299L253.489 372.84ZM265.067 381.836L267.734 384.817L271.453 381.489L267.395 378.584L265.067 381.836ZM261.896 384.751L264.479 387.806L264.563 387.735L264.643 387.659L261.896 384.751ZM155.765 418.444L156.117 414.459L156.117 414.459L155.765 418.444ZM96.3149 399.391L98.3348 395.938L98.3335 395.937L96.3149 399.391ZM39.5263 331.5L35.7879 332.923L35.7882 332.924L39.5263 331.5ZM26.0661 261.774L30.0656 261.711L30.0656 261.709L26.0661 261.774ZM34.6745 199.746L30.8429 198.598L30.8422 198.6L34.6745 199.746ZM152.11 103.689L151.832 99.6985L151.821 99.6994L151.809 99.7002L152.11 103.689ZM406.79 332.577L407.81 328.71L407.809 328.71L406.79 332.577ZM455.742 356.124L453.361 359.338L453.63 359.537L453.928 359.689L455.742 356.124ZM349.968 329.292L349.402 325.333L349.058 325.382L348.727 325.49L349.968 329.292ZM337.72 332.409L338.45 336.342L338.454 336.341L337.72 332.409ZM263.951 308.959L266.57 305.936L266.567 305.933L263.951 308.959ZM255.986 302.578L253.345 299.574L249.627 302.842L253.603 305.791L255.986 302.578ZM285.414 282.714L283.65 279.123L283.649 279.124L285.414 282.714ZM388.243 273.583L388.466 269.589L388.465 269.589L388.243 273.583ZM503.336 317.535L505.824 314.403L505.822 314.401L503.336 317.535ZM493.734 381.702L496.357 378.682L496.352 378.678L493.734 381.702ZM256.008 210.76L253.367 207.755L249.649 211.023L253.625 213.972L256.008 210.76ZM268.112 198.921L271.051 201.634L271.052 201.634L268.112 198.921ZM282.432 226.11L284.045 222.45L284.043 222.449L282.432 226.11ZM378.135 238.223L378.14 242.223L378.141 242.223L378.135 238.223ZM502.561 203.25L504.636 206.67L504.642 206.666L502.561 203.25ZM494.239 126.162L491.903 122.915L491.903 122.915L494.239 126.162ZM442.244 154.031L440.834 150.288L440.511 150.41L440.213 150.585L442.244 154.031ZM411.827 167.469L413.003 171.293L413.004 171.292L411.827 167.469ZM349.496 172.355L348.527 176.236L348.732 176.287L348.941 176.316L349.496 172.355ZM249.481 128.02C232.563 115.733 199.644 97.2715 155.567 99.458L155.963 107.448C197.545 105.385 228.681 122.801 244.78 134.493L249.481 128.02ZM162.254 188.049C202.878 172.424 237.107 145.447 249.779 134.255L244.482 128.259C232.16 139.143 198.755 165.439 159.383 180.582L162.254 188.049ZM152.281 192.355C156.176 190.367 159.593 189.002 162.165 188.082L159.472 180.549C156.648 181.559 152.905 183.054 148.644 185.23L152.281 192.355ZM107.541 261.909C108.272 233.012 124.652 205.965 152.23 192.381L148.695 185.204C118.388 200.132 100.348 229.903 99.5432 261.706L107.541 261.909ZM108.313 276.471C107.667 271.691 107.417 266.814 107.541 261.909L99.5432 261.706C99.4089 267.017 99.6796 272.32 100.385 277.542L108.313 276.471ZM104.659 281.001C104.729 280.991 104.801 280.982 104.873 280.972L103.825 273.041C103.751 273.051 103.677 273.061 103.603 273.071L104.659 281.001ZM115.43 305.282C108.431 293.366 108.02 281.968 108.13 277.126L100.132 276.945C100.006 282.514 100.471 295.611 108.532 309.334L115.43 305.282ZM134.23 324.079C130.058 321.616 121.675 315.91 115.43 305.282L108.532 309.335C115.73 321.583 125.373 328.141 130.163 330.968L134.23 324.079ZM144.148 329.78C139.892 327.641 136.505 325.588 134.415 324.195L129.978 330.852C132.336 332.424 136.005 334.641 140.555 336.928L144.148 329.78ZM160.67 336.358C154.605 334.644 149.138 332.437 144.232 329.824L140.47 336.884C145.907 339.781 151.909 342.195 158.494 344.056L160.67 336.358ZM163.49 337.12C162.551 336.885 161.619 336.633 160.696 336.365L158.468 344.049C159.482 344.343 160.51 344.621 161.55 344.881L163.49 337.12ZM170.96 338.922C168.248 338.278 165.764 337.688 163.49 337.12L161.55 344.881C163.879 345.463 166.412 346.065 169.112 346.705L170.96 338.922ZM255.35 369.299C219.436 350.423 190.118 343.469 170.96 338.922L169.112 346.705C188.121 351.217 216.635 357.989 251.628 376.381L255.35 369.299ZM267.395 378.584C263.35 375.688 259.572 372.724 256.061 369.776L250.918 375.904C254.569 378.969 258.509 382.061 262.738 385.089L267.395 378.584ZM264.643 387.659C265.477 386.871 266.509 385.913 267.734 384.817L262.399 378.855C261.111 380.009 260.026 381.016 259.15 381.843L264.643 387.659ZM155.413 422.428C215.755 427.763 256.953 394.17 264.479 387.806L259.313 381.697C252.217 387.698 213.16 419.502 156.117 414.459L155.413 422.428ZM94.2949 402.843C110.265 412.187 130.708 420.245 155.413 422.428L156.117 414.459C132.777 412.397 113.462 404.788 98.3348 395.938L94.2949 402.843ZM35.7882 332.924C46.8925 362.079 67.2678 387.044 94.2962 402.844L98.3335 395.937C72.9702 381.111 53.7568 357.626 43.2643 330.077L35.7882 332.924ZM22.0666 261.837C22.5133 290.2 28.6981 314.297 35.7879 332.923L43.2646 330.077C36.4394 312.147 30.495 288.974 30.0656 261.711L22.0666 261.837ZM30.8422 198.6C25.5545 216.283 21.6715 237.617 22.0667 261.839L30.0656 261.709C29.6858 238.425 33.4173 217.912 38.5069 200.892L30.8422 198.6ZM151.809 99.7002C94.8602 103.991 47.1822 144.07 30.8429 198.598L38.5062 200.894C53.9388 149.392 98.9151 111.709 152.41 107.678L151.809 99.7002ZM155.546 99.4591C154.283 99.5283 153.041 99.6146 151.832 99.6985L152.387 107.679C153.604 107.595 154.788 107.513 155.984 107.447L155.546 99.4591ZM405.77 336.445C427.976 342.302 444.011 352.41 453.361 359.338L458.124 352.91C448.247 345.592 431.295 334.904 407.81 328.71L405.77 336.445ZM350.533 333.252C362.226 331.582 382.223 330.239 405.771 336.445L407.809 328.71C382.907 322.146 361.765 323.566 349.402 325.333L350.533 333.252ZM338.454 336.341C342.869 335.518 347.116 334.43 351.208 333.095L348.727 325.49C344.969 326.715 341.062 327.717 336.987 328.477L338.454 336.341ZM261.331 311.982C274.874 323.717 303.212 342.881 338.45 336.342L336.991 328.476C305.417 334.336 279.544 317.179 266.57 305.936L261.331 311.982ZM253.603 305.791C256.254 307.756 258.833 309.822 261.335 311.985L266.567 305.933C263.913 303.64 261.179 301.449 258.369 299.365L253.603 305.791ZM283.649 279.124C272.604 284.552 262.502 291.526 253.345 299.574L258.627 305.583C267.315 297.947 276.835 291.387 287.178 286.304L283.649 279.124ZM388.465 269.589C367.207 268.409 347.267 267.747 329.599 268.875C311.963 270.001 296.269 272.925 283.65 279.123L287.177 286.304C298.429 280.777 312.915 277.957 330.109 276.859C347.271 275.763 366.809 276.399 388.021 277.577L388.465 269.589ZM505.822 314.401C489.374 301.352 448.16 272.923 388.466 269.589L388.02 277.577C445.373 280.78 485.021 308.111 500.85 320.668L505.822 314.401ZM510.166 323.414C510.166 319.916 508.592 316.601 505.824 314.403L500.848 320.667C501.686 321.332 502.166 322.33 502.166 323.414H510.166ZM510.166 376.025V323.414H502.166V376.025H510.166ZM491.111 384.722C498.574 391.204 510.166 385.9 510.166 376.025H502.166C502.166 379.054 498.631 380.657 496.357 378.682L491.111 384.722ZM453.928 359.689C470.016 367.875 482.577 377.333 491.116 384.726L496.352 378.678C487.445 370.966 474.349 361.104 457.556 352.559L453.928 359.689ZM258.649 213.764C262.992 209.947 267.126 205.887 271.051 201.634L265.173 196.208C261.424 200.269 257.489 204.133 253.367 207.755L258.649 213.764ZM284.043 222.449C274.945 218.447 266.347 213.45 258.391 207.547L253.625 213.972C262.06 220.231 271.177 225.529 280.821 229.772L284.043 222.449ZM378.13 234.223C337.137 234.273 306.243 232.237 284.045 222.45L280.818 229.77C304.779 240.334 337.328 242.273 378.14 242.223L378.13 234.223ZM500.486 199.83C480.555 211.925 437.112 234.14 378.13 234.223L378.141 242.223C439.137 242.137 484.036 219.171 504.636 206.67L500.486 199.83ZM502.166 196.832C502.166 198.064 501.53 199.195 500.481 199.834L504.642 206.666C508.074 204.576 510.166 200.856 510.166 196.832H502.166ZM502.166 132.26V196.832H510.166V132.26H502.166ZM496.576 129.409C498.929 127.715 502.166 129.387 502.166 132.26H510.166C510.166 122.836 499.523 117.432 491.903 122.915L496.576 129.409ZM443.655 157.774C466.697 149.092 484.559 138.057 496.576 129.408L491.903 122.915C480.31 131.258 463.067 141.911 440.834 150.288L443.655 157.774ZM413.004 171.292C425.452 167.461 435.897 162.416 444.276 157.477L440.213 150.585C432.286 155.258 422.413 160.026 410.651 163.646L413.004 171.292ZM348.941 176.316C362.4 178.202 385.861 179.641 413.003 171.293L410.651 163.646C384.997 171.537 362.805 170.18 350.051 168.393L348.941 176.316ZM271.052 201.634C291.669 179.287 321.563 169.503 348.527 176.236L350.465 168.474C320.354 160.955 287.546 171.959 265.172 196.209L271.052 201.634Z" fill="black"/>
</svg>
