<?xml version="1.0" encoding="UTF-8"?>
<svg version="1.1" xmlns="http://www.w3.org/2000/svg" width="32" height="32">
<path d="M0 0 C3.96 0 7.92 0 12 0 C12.4125 0.928125 12.825 1.85625 13.25 2.8125 C15.56104487 7.02190315 17.49701732 8.49900577 22 10 C22 13.96 22 17.92 22 22 C21.071875 22.4125 20.14375 22.825 19.1875 23.25 C14.97809685 25.56104487 13.50099423 27.49701732 12 32 C8.04 32 4.08 32 0 32 C-0.4125 31.071875 -0.825 30.14375 -1.25 29.1875 C-3.56104487 24.97809685 -5.49701732 23.50099423 -10 22 C-10 18.04 -10 14.08 -10 10 C-9.071875 9.5875 -8.14375 9.175 -7.1875 8.75 C-2.97809685 6.43895513 -1.50099423 4.50298268 0 0 Z M-2 11 C-3.42662219 13.85324437 -3.31033868 15.83454549 -3 19 C-1.20006226 21.69990662 0.083773 23.5418865 3 25 C7.1364408 25.56406011 8.76045933 25.14638597 12.375 22.9375 C15.26054626 20.20817124 15.26054626 20.20817124 15.6875 16.5625 C14.76325283 11.77321919 13.68514918 10.2147046 10 7 C4.54838272 6.02649691 1.87056683 7.12943317 -2 11 Z " fill="#EC0648" transform="translate(10,0)"/>
</svg>
