<?xml version="1.0" encoding="UTF-8"?>
<svg width="64px" height="64px" viewBox="0 0 64 64" version="1.1" xmlns="http://www.w3.org/2000/svg" xmlns:xlink="http://www.w3.org/1999/xlink">
    <title>fal</title>
    <g id="fal" stroke="none" stroke-width="1" fill="none" fill-rule="evenodd">
        <path d="M41.2680482,0 C42.3767437,0 43.26526,0.901510607 43.3713127,2.00513582 C44.3167555,11.8491925 52.1508343,19.6832428 61.9948513,20.6286129 C63.0984836,20.7346728 64,21.6232496 64,22.7318836 L64,41.2681452 C64,42.3767792 63.0984836,43.2653559 61.9948513,43.3714158 C52.1508343,44.316786 44.3167555,52.15085 43.3713127,61.9949887 C43.26526,63.0985592 42.3767437,64 41.2680482,64 L22.7319518,64 C21.6232563,64 20.73474,63.0985592 20.6286873,61.9949887 C19.6833814,52.15085 11.8491794,44.316786 2.00512132,43.3714158 C0.901515014,43.2653559 0,42.3767792 0,41.2681452 L0,22.7318836 C0,21.6232496 0.901520488,20.7346728 2.005135,20.6286129 C11.8491931,19.6832428 19.6833814,11.8491925 20.6286873,2.00513582 C20.73474,0.901510607 21.6232563,0 22.7319518,0 L41.2680482,0 Z M12.8499885,31.9458212 C12.8499885,42.594373 21.4725931,51.2266918 32.1092001,51.2266918 C42.7458071,51.2266918 51.3685075,42.594373 51.3685075,31.9458212 C51.3685075,21.2972693 42.7458071,12.6649232 32.1092001,12.6649232 C21.4725931,12.6649232 12.8499885,21.2972693 12.8499885,31.9458212 Z" id="形状" fill="#333333"></path>
    </g>
</svg>