<svg width="100%" height="100%" viewBox="0 0 744.5 420" fill="none" xmlns="http://www.w3.org/2000/svg">
<g clip-path="url(#clip0_2049_49049)">
<rect width="744.5" height="420" fill="#C8CEDA" fill-opacity="0.2"/>
<g clip-path="url(#clip1_2049_49049)">
<path d="M1184.3 -816.772L1184.68 -816.573L-281.812 1471.76L-282.196 1471.56L-282.581 1471.36L1183.91 -816.971L1184.3 -816.772Z" fill="#5F82C8" fill-opacity="0.32"/>
<path d="M1006.27 -908.879L1006.66 -908.68L-459.837 1379.65L-460.222 1379.45L-460.606 1379.25L1005.89 -909.078L1006.27 -908.879Z" fill="#5F82C8" fill-opacity="0.32"/>
<path d="M828.245 -1000.99L828.63 -1000.79L-637.863 1287.55L-638.247 1287.35L-638.632 1287.15L827.861 -1001.18L828.245 -1000.99Z" fill="#5F82C8" fill-opacity="0.32"/>
<path d="M650.22 -1093.09L650.604 -1092.89L-815.888 1195.44L-816.273 1195.24L-816.657 1195.04L649.835 -1093.29L650.22 -1093.09Z" fill="#5F82C8" fill-opacity="0.32"/>
<path d="M472.194 -1185.2L472.579 -1185L-993.913 1103.33L-994.298 1103.13L-994.683 1102.94L471.81 -1185.4L472.194 -1185.2Z" fill="#5F82C8" fill-opacity="0.32"/>
<path d="M294.169 -1277.3L294.554 -1277.11L-1171.94 1011.23L-1172.32 1011.03L-1172.71 1010.83L293.784 -1277.5L294.169 -1277.3Z" fill="#5F82C8" fill-opacity="0.32"/>
<path d="M116.144 -1369.41L116.528 -1369.21L-1349.96 919.121L-1350.35 918.922L-1350.73 918.723L115.759 -1369.61L116.144 -1369.41Z" fill="#5F82C8" fill-opacity="0.32"/>
<path d="M236.873 1031.5L236.639 1031.86L-1899.67 -73.4159L-1899.43 -73.7804L-1899.2 -74.145L237.107 1031.13L236.873 1031.5Z" fill="#5F82C8" fill-opacity="0.32"/>
<path d="M134.56 1191.15L134.326 1191.51L-2001.98 86.2355L-2001.74 85.8709L-2001.51 85.5064L134.793 1190.78L134.56 1191.15Z" fill="#5F82C8" fill-opacity="0.32"/>
<path d="M32.2461 1350.8L32.0125 1351.16L-2104.29 245.886L-2104.06 245.522L-2103.82 245.157L32.4797 1350.43L32.2461 1350.8Z" fill="#5F82C8" fill-opacity="0.32"/>
<path d="M-1096.9 -811.483L808.018 174.112C839.154 190.221 849.89 225.914 831.999 253.833L385.277 950.925C367.385 978.844 327.641 988.418 296.505 972.308L-1608.42 -13.2866C-1639.55 -29.3961 -1650.29 -65.0884 -1632.4 -93.0077L-1185.68 -790.099C-1167.78 -818.018 -1128.04 -827.592 -1096.9 -811.483Z" stroke="#2A5CCE" stroke-opacity="0.5" stroke-width="1.33225"/>
<path d="M672.74 -18.5168L673.184 -18.2873L161.617 779.968L161.173 779.739L160.729 779.509L672.297 -18.7464L672.74 -18.5168Z" fill="#93B1EC" fill-opacity="0.68"/>
<path d="M138.664 -294.836L139.108 -294.606L-372.459 503.649L-372.903 503.419L-373.347 503.19L138.22 -295.066L138.664 -294.836Z" fill="#93B1EC" fill-opacity="0.68"/>
<path d="M748.452 233.241L748.183 233.661L-1269.44 -810.211L-1269.17 -810.632L-1268.9 -811.053L748.722 232.82L748.452 233.241Z" fill="#93B1EC" fill-opacity="0.68"/>
<path d="M766.501 460L766.729 459.56L-1371.25 -651.42L-1371.48 -650.981L-1371.71 -650.541L766.273 460.44L766.501 460Z" fill="#93B1EC" fill-opacity="0.68"/>
<path d="M543.825 552.543L543.556 552.964L-1474.07 -490.909L-1473.8 -491.33L-1473.53 -491.75L544.095 552.122L543.825 552.543Z" fill="#93B1EC" fill-opacity="0.68"/>
<path d="M441.513 712.194L441.243 712.615L-1576.38 -331.258L-1576.11 -331.679L-1575.84 -332.099L441.782 711.773L441.513 712.194Z" fill="#93B1EC" fill-opacity="0.68"/>
<path d="M110.359 119.233C108.72 118.386 108.155 116.507 109.097 115.037C110.038 113.568 112.13 113.064 113.769 113.912C115.408 114.76 115.973 116.639 115.031 118.108C114.09 119.577 111.998 120.081 110.359 119.233Z" fill="#407FFA"/>
<path d="M186.072 370.991C184.433 370.143 183.868 368.264 184.81 366.795C185.751 365.326 187.843 364.822 189.482 365.67C191.121 366.517 191.686 368.396 190.744 369.866C189.802 371.335 187.711 371.839 186.072 370.991Z" fill="#407FFA"/>
<path d="M-619.228 -375.112L555.761 232.816C575.425 242.99 582.206 265.532 570.906 283.165L444.736 480.047C433.437 497.68 408.335 503.726 388.671 493.552L-786.318 -114.376C-805.982 -124.551 -812.763 -147.093 -801.463 -164.725L-675.293 -361.607C-663.994 -379.24 -638.892 -385.286 -619.228 -375.112Z" stroke="#7FA3EE" stroke-opacity="0.8" stroke-width="1.0658" stroke-dasharray="9.33 6.66"/>
<path d="M212.33 699.913L212.043 700.362L207.889 698.213L208.176 697.764L208.464 697.316L212.618 699.465L212.33 699.913ZM202.242 694.694L201.954 695.143L193.647 690.844L193.934 690.396L194.222 689.947L202.53 694.245L202.242 694.694ZM188 687.325L187.712 687.774L179.405 683.476L179.692 683.027L179.98 682.578L188.287 686.877L188 687.325ZM173.758 679.957L173.47 680.406L165.163 676.107L165.45 675.659L165.738 675.21L174.045 679.508L173.758 679.957ZM159.516 672.588L159.228 673.037L150.92 668.739L151.208 668.29L151.496 667.841L159.803 672.14L159.516 672.588ZM145.274 665.22L144.986 665.669L136.678 661.37L136.966 660.922L137.254 660.473L145.561 664.771L145.274 665.22ZM131.032 657.851L130.744 658.3L122.436 654.002L122.724 653.553L123.011 653.104L131.319 657.403L131.032 657.851ZM116.79 650.483L116.502 650.932L108.194 646.633L108.482 646.185L108.769 645.736L117.077 650.034L116.79 650.483ZM102.548 643.114L102.26 643.563L93.9524 639.265L94.2399 638.816L94.5274 638.367L102.835 642.666L102.548 643.114ZM88.3057 635.746L88.0182 636.195L79.7103 631.896L79.9979 631.448L80.2854 630.999L88.5933 635.297L88.3057 635.746ZM74.0637 628.377L73.7762 628.826L65.4683 624.528L65.7558 624.079L66.0434 623.63L74.3512 627.929L74.0637 628.377ZM59.8217 621.009L59.5341 621.458L51.2263 617.159L51.5138 616.711L51.8014 616.262L60.1092 620.56L59.8217 621.009ZM45.5796 613.64L45.2921 614.089L36.9843 609.791L37.2718 609.342L37.5593 608.893L45.8672 613.192L45.5796 613.64ZM31.3376 606.272L31.0501 606.72L22.7422 602.422L23.0298 601.974L23.3173 601.525L31.6252 605.823L31.3376 606.272ZM17.0956 598.903L16.8081 599.352L8.50022 595.054L8.78776 594.605L9.07529 594.156L17.3831 598.455L17.0956 598.903ZM2.85358 591.535L2.56605 591.983L-5.7418 587.685L-5.45427 587.236L-5.16673 586.788L3.14112 591.086L2.85358 591.535ZM-11.3884 584.166L-11.676 584.615L-19.9838 580.317L-19.6963 579.868L-19.4088 579.419L-11.1009 583.718L-11.3884 584.166ZM-25.6305 576.798L-25.918 577.246L-34.2259 572.948L-33.9383 572.499L-33.6508 572.051L-25.3429 576.349L-25.6305 576.798ZM-39.8725 569.429L-40.16 569.878L-48.4679 565.58L-48.1803 565.131L-47.8928 564.682L-39.585 568.981L-39.8725 569.429ZM-54.1145 562.061L-54.4021 562.509L-62.7099 558.211L-62.4224 557.762L-62.1348 557.314L-53.827 561.612L-54.1145 562.061ZM-68.3565 554.692L-68.6441 555.141L-76.9519 550.843L-76.6644 550.394L-76.3769 549.945L-68.069 554.244L-68.3565 554.692ZM-82.5986 547.324L-82.8861 547.772L-91.194 543.474L-90.9064 543.025L-90.6189 542.577L-82.311 546.875L-82.5986 547.324ZM-96.8406 539.955L-97.1281 540.404L-105.436 536.106L-105.148 535.657L-104.861 535.208L-96.5531 539.507L-96.8406 539.955ZM-111.083 532.587L-111.37 533.035L-119.678 528.737L-119.39 528.288L-119.103 527.84L-110.795 532.138L-111.083 532.587ZM-125.325 525.218L-125.612 525.667L-133.92 521.369L-133.632 520.92L-133.345 520.471L-125.037 524.77L-125.325 525.218ZM-139.567 517.85L-139.854 518.298L-148.162 514L-147.875 513.551L-147.587 513.103L-139.279 517.401L-139.567 517.85ZM-153.809 510.481L-154.096 510.93L-162.404 506.632L-162.117 506.183L-161.829 505.734L-153.521 510.033L-153.809 510.481ZM-168.051 503.113L-168.338 503.561L-176.646 499.263L-176.359 498.814L-176.071 498.366L-167.763 502.664L-168.051 503.113ZM-182.293 495.744L-182.58 496.193L-190.888 491.895L-190.601 491.446L-190.313 490.997L-182.005 495.295L-182.293 495.744ZM-196.535 488.376L-196.822 488.824L-205.13 484.526L-204.843 484.077L-204.555 483.629L-196.247 487.927L-196.535 488.376ZM-210.777 481.007L-211.064 481.456L-219.372 477.157L-219.085 476.709L-218.797 476.26L-210.489 480.558L-210.777 481.007ZM-225.019 473.639L-225.306 474.087L-233.614 469.789L-233.327 469.34L-233.039 468.892L-224.731 473.19L-225.019 473.639ZM-239.261 466.27L-239.548 466.719L-247.856 462.42L-247.569 461.972L-247.281 461.523L-238.973 465.821L-239.261 466.27ZM-253.503 458.902L-253.79 459.35L-262.098 455.052L-261.811 454.603L-261.523 454.155L-253.215 458.453L-253.503 458.902ZM-267.745 451.533L-268.032 451.982L-276.34 447.683L-276.053 447.235L-275.765 446.786L-267.457 451.084L-267.745 451.533ZM-281.987 444.165L-282.275 444.613L-290.582 440.315L-290.295 439.866L-290.007 439.418L-281.699 443.716L-281.987 444.165ZM-296.229 436.796L-296.517 437.245L-304.825 432.946L-304.537 432.498L-304.249 432.049L-295.942 436.347L-296.229 436.796ZM-310.471 429.427L-310.759 429.876L-319.067 425.578L-318.779 425.129L-318.492 424.68L-310.184 428.979L-310.471 429.427ZM-324.713 422.059L-325.001 422.508L-333.309 418.209L-333.021 417.761L-332.734 417.312L-324.426 421.61L-324.713 422.059ZM-338.955 414.69L-339.243 415.139L-347.551 410.841L-347.263 410.392L-346.976 409.943L-338.668 414.242L-338.955 414.69ZM-353.197 407.322L-353.485 407.771L-361.793 403.472L-361.505 403.024L-361.218 402.575L-352.91 406.873L-353.197 407.322ZM-367.439 399.953L-367.727 400.402L-376.035 396.104L-375.747 395.655L-375.46 395.206L-367.152 399.505L-367.439 399.953ZM-381.682 392.585L-381.969 393.033L-390.277 388.735L-389.989 388.286L-389.702 387.838L-381.394 392.136L-381.682 392.585ZM-395.924 385.216L-396.211 385.665L-404.519 381.367L-404.232 380.918L-403.944 380.469L-395.636 384.768L-395.924 385.216ZM-410.166 377.848L-410.453 378.296L-418.761 373.998L-418.474 373.549L-418.186 373.101L-409.878 377.399L-410.166 377.848ZM-424.408 370.479L-424.695 370.928L-433.003 366.63L-432.716 366.181L-432.428 365.732L-424.12 370.03L-424.408 370.479ZM-438.65 363.111L-438.937 363.559L-447.245 359.261L-446.958 358.812L-446.67 358.364L-438.362 362.662L-438.65 363.111ZM-452.892 355.742L-453.179 356.191L-461.487 351.892L-461.2 351.444L-460.912 350.995L-452.604 355.293L-452.892 355.742ZM-467.134 348.374L-467.422 348.822L-475.729 344.524L-475.442 344.075L-475.154 343.627L-466.846 347.925L-467.134 348.374ZM-481.376 341.005L-481.664 341.454L-489.972 337.155L-489.684 336.707L-489.396 336.258L-481.089 340.556L-481.376 341.005ZM-495.618 333.636L-495.906 334.085L-500.059 331.936L-499.771 331.488L-499.484 331.039L-495.331 333.188L-495.618 333.636Z" fill="#7FA3EE" fill-opacity="0.8"/>
<path d="M748.292 -135.376L747.597 -135.822L160.478 779.293L161.173 779.739L161.868 780.185L748.987 -134.93L748.292 -135.376Z" fill="#3E7BFA"/>
<path d="M545.387 -190.016L544.692 -190.463L-78.6223 779.293L-77.928 779.739L-77.2337 780.186L546.081 -189.57L545.387 -190.016Z" fill="#3E7BFA" fill-opacity="0.17"/>
<path d="M1020.43 372.969L1020.81 372.236L36.7296 -135.918L36.351 -135.184L35.9724 -134.451L1020.05 373.703L1020.43 372.969Z" fill="#3E7BFA"/>
<path d="M594.982 472.718L594.533 473.419L-295.594 12.8868L-295.144 12.1857L-294.695 11.4847L595.432 472.017L594.982 472.718Z" fill="#3E7BFA" fill-opacity="0.17"/>
<path d="M441.512 712.195L441.062 712.896L-241.368 359.821L-240.919 359.12L-240.47 358.419L441.961 711.494L441.512 712.195Z" fill="#3E7BFA" fill-opacity="0.95"/>
<path d="M557.467 161.356C545.013 154.912 540.718 140.634 547.875 129.466C555.032 118.298 570.93 114.469 583.385 120.913C595.839 127.356 600.134 141.634 592.977 152.802C585.82 163.97 569.922 167.799 557.467 161.356Z" stroke="#4C82FF" stroke-width="2"/>
<path d="M396.475 412.572C376.789 402.387 370.001 379.821 381.313 362.169C392.625 344.517 417.753 338.464 437.439 348.649C457.124 358.834 463.912 381.4 452.6 399.052C441.288 416.704 416.16 422.757 396.475 412.572Z" stroke="#5C8FFF" stroke-width="2" stroke-linecap="round"/>
<path d="M408.677 393.531C400.719 389.414 397.975 380.291 402.548 373.155C407.121 366.019 417.279 363.572 425.237 367.69C433.195 371.807 435.939 380.93 431.366 388.066C426.793 395.202 416.635 397.649 408.677 393.531Z" stroke="#5C8FFF" stroke-width="2" stroke-linecap="round"/>
<circle cx="1.50156" cy="1.50156" r="1.50156" transform="matrix(0.892823 0.455104 -0.254868 0.927368 163.325 178.507)" fill="#4C82FF"/>
<circle cx="1.50156" cy="1.50156" r="1.50156" transform="matrix(0.892823 0.455104 -0.254868 0.927368 174.06 183.979)" fill="#4C82FF"/>
<circle cx="1.50156" cy="1.50156" r="1.50156" transform="matrix(0.892823 0.455104 -0.254868 0.927368 184.794 189.451)" fill="#4C82FF"/>
<circle cx="1.50156" cy="1.50156" r="1.50156" transform="matrix(0.892823 0.455104 -0.254868 0.927368 195.528 194.923)" fill="#4C82FF"/>
<circle cx="1.50156" cy="1.50156" r="1.50156" transform="matrix(0.892823 0.455104 -0.254868 0.927368 206.264 200.395)" fill="#4C82FF"/>
<circle cx="1.50156" cy="1.50156" r="1.50156" transform="matrix(0.892823 0.455104 -0.254868 0.927368 216.998 205.866)" fill="#4C82FF"/>
<circle cx="1.50156" cy="1.50156" r="1.50156" transform="matrix(0.892823 0.455104 -0.254868 0.927368 227.732 211.338)" fill="#4C82FF"/>
<circle cx="1.50156" cy="1.50156" r="1.50156" transform="matrix(0.892823 0.455104 -0.254868 0.927368 238.467 216.81)" fill="#4C82FF"/>
<circle cx="1.50156" cy="1.50156" r="1.50156" transform="matrix(0.892823 0.455104 -0.254868 0.927368 249.201 222.281)" fill="#4C82FF"/>
<circle cx="1.50156" cy="1.50156" r="1.50156" transform="matrix(0.892823 0.455104 -0.254868 0.927368 259.936 227.753)" fill="#4C82FF"/>
<circle cx="1.50156" cy="1.50156" r="1.50156" transform="matrix(0.892823 0.455104 -0.254868 0.927368 270.671 233.225)" fill="#4C82FF"/>
<circle cx="1.50156" cy="1.50156" r="1.50156" transform="matrix(0.892823 0.455104 -0.254868 0.927368 281.405 238.697)" fill="#4C82FF"/>
<circle cx="1.50156" cy="1.50156" r="1.50156" transform="matrix(0.892823 0.455104 -0.254868 0.927368 292.14 244.169)" fill="#4C82FF"/>
<circle cx="1.50156" cy="1.50156" r="1.50156" transform="matrix(0.892823 0.455104 -0.254868 0.927368 302.874 249.64)" fill="#4C82FF"/>
<circle cx="1.50156" cy="1.50156" r="1.50156" transform="matrix(0.892823 0.455104 -0.254868 0.927368 153.793 192.122)" fill="#4C82FF"/>
<circle cx="1.50156" cy="1.50156" r="1.50156" transform="matrix(0.892823 0.455104 -0.254868 0.927368 164.527 197.593)" fill="#4C82FF"/>
<circle cx="1.50156" cy="1.50156" r="1.50156" transform="matrix(0.892823 0.455104 -0.254868 0.927368 175.262 203.065)" fill="#4C82FF"/>
<circle cx="1.50156" cy="1.50156" r="1.50156" transform="matrix(0.892823 0.455104 -0.254868 0.927368 185.996 208.537)" fill="#4C82FF"/>
<circle cx="1.50156" cy="1.50156" r="1.50156" transform="matrix(0.892823 0.455104 -0.254868 0.927368 196.731 214.009)" fill="#4C82FF"/>
<circle cx="1.50156" cy="1.50156" r="1.50156" transform="matrix(0.892823 0.455104 -0.254868 0.927368 207.466 219.48)" fill="#4C82FF"/>
<circle cx="1.50156" cy="1.50156" r="1.50156" transform="matrix(0.892823 0.455104 -0.254868 0.927368 218.2 224.952)" fill="#4C82FF"/>
<circle cx="1.50156" cy="1.50156" r="1.50156" transform="matrix(0.892823 0.455104 -0.254868 0.927368 228.935 230.424)" fill="#4C82FF"/>
<circle cx="1.50156" cy="1.50156" r="1.50156" transform="matrix(0.892823 0.455104 -0.254868 0.927368 239.669 235.896)" fill="#4C82FF"/>
<circle cx="1.50156" cy="1.50156" r="1.50156" transform="matrix(0.892823 0.455104 -0.254868 0.927368 250.403 241.367)" fill="#4C82FF"/>
<circle cx="1.50156" cy="1.50156" r="1.50156" transform="matrix(0.892823 0.455104 -0.254868 0.927368 261.139 246.839)" fill="#4C82FF"/>
<circle cx="1.50156" cy="1.50156" r="1.50156" transform="matrix(0.892823 0.455104 -0.254868 0.927368 271.873 252.311)" fill="#4C82FF"/>
<circle cx="1.50156" cy="1.50156" r="1.50156" transform="matrix(0.892823 0.455104 -0.254868 0.927368 282.607 257.783)" fill="#4C82FF"/>
<circle cx="1.50156" cy="1.50156" r="1.50156" transform="matrix(0.892823 0.455104 -0.254868 0.927368 293.342 263.255)" fill="#4C82FF"/>
<circle cx="1.50156" cy="1.50156" r="1.50156" transform="matrix(0.892823 0.455104 -0.254868 0.927368 144.26 205.736)" fill="#4C82FF"/>
<circle cx="1.50156" cy="1.50156" r="1.50156" transform="matrix(0.892823 0.455104 -0.254868 0.927368 154.994 211.207)" fill="#4C82FF"/>
<circle cx="1.50156" cy="1.50156" r="1.50156" transform="matrix(0.892823 0.455104 -0.254868 0.927368 165.729 216.679)" fill="#4C82FF"/>
<circle cx="1.50156" cy="1.50156" r="1.50156" transform="matrix(0.892823 0.455104 -0.254868 0.927368 176.463 222.151)" fill="#4C82FF"/>
<circle cx="1.50156" cy="1.50156" r="1.50156" transform="matrix(0.892823 0.455104 -0.254868 0.927368 187.198 227.623)" fill="#4C82FF"/>
<circle cx="1.50156" cy="1.50156" r="1.50156" transform="matrix(0.892823 0.455104 -0.254868 0.927368 197.933 233.094)" fill="#4C82FF"/>
<circle cx="1.50156" cy="1.50156" r="1.50156" transform="matrix(0.892823 0.455104 -0.254868 0.927368 208.667 238.566)" fill="#4C82FF"/>
<circle cx="1.50156" cy="1.50156" r="1.50156" transform="matrix(0.892823 0.455104 -0.254868 0.927368 219.401 244.038)" fill="#4C82FF"/>
<circle cx="1.50156" cy="1.50156" r="1.50156" transform="matrix(0.892823 0.455104 -0.254868 0.927368 230.136 249.51)" fill="#4C82FF"/>
<circle cx="1.50156" cy="1.50156" r="1.50156" transform="matrix(0.892823 0.455104 -0.254868 0.927368 240.87 254.981)" fill="#4C82FF"/>
<circle cx="1.50156" cy="1.50156" r="1.50156" transform="matrix(0.892823 0.455104 -0.254868 0.927368 251.605 260.453)" fill="#4C82FF"/>
<circle cx="1.50156" cy="1.50156" r="1.50156" transform="matrix(0.892823 0.455104 -0.254868 0.927368 262.34 265.925)" fill="#4C82FF"/>
<circle cx="1.50156" cy="1.50156" r="1.50156" transform="matrix(0.892823 0.455104 -0.254868 0.927368 273.074 271.397)" fill="#4C82FF"/>
<circle cx="1.50156" cy="1.50156" r="1.50156" transform="matrix(0.892823 0.455104 -0.254868 0.927368 283.809 276.869)" fill="#4C82FF"/>
<circle cx="1.50156" cy="1.50156" r="1.50156" transform="matrix(0.892823 0.455104 -0.254868 0.927368 134.728 219.35)" fill="#4C82FF"/>
<circle cx="1.50156" cy="1.50156" r="1.50156" transform="matrix(0.892823 0.455104 -0.254868 0.927368 145.462 224.821)" fill="#4C82FF"/>
<circle cx="1.50156" cy="1.50156" r="1.50156" transform="matrix(0.892823 0.455104 -0.254868 0.927368 156.196 230.293)" fill="#4C82FF"/>
<circle cx="1.50156" cy="1.50156" r="1.50156" transform="matrix(0.892823 0.455104 -0.254868 0.927368 166.931 235.765)" fill="#4C82FF"/>
<circle cx="1.50156" cy="1.50156" r="1.50156" transform="matrix(0.892823 0.455104 -0.254868 0.927368 177.666 241.237)" fill="#4C82FF"/>
<circle cx="1.50156" cy="1.50156" r="1.50156" transform="matrix(0.892823 0.455104 -0.254868 0.927368 188.4 246.708)" fill="#4C82FF"/>
<circle cx="1.50156" cy="1.50156" r="1.50156" transform="matrix(0.892823 0.455104 -0.254868 0.927368 199.135 252.18)" fill="#4C82FF"/>
<circle cx="1.50156" cy="1.50156" r="1.50156" transform="matrix(0.892823 0.455104 -0.254868 0.927368 209.869 257.652)" fill="#4C82FF"/>
<circle cx="1.50156" cy="1.50156" r="1.50156" transform="matrix(0.892823 0.455104 -0.254868 0.927368 220.604 263.124)" fill="#4C82FF"/>
<circle cx="1.50156" cy="1.50156" r="1.50156" transform="matrix(0.892823 0.455104 -0.254868 0.927368 231.338 268.595)" fill="#4C82FF"/>
<circle cx="1.50156" cy="1.50156" r="1.50156" transform="matrix(0.892823 0.455104 -0.254868 0.927368 242.073 274.067)" fill="#4C82FF"/>
<circle cx="1.50156" cy="1.50156" r="1.50156" transform="matrix(0.892823 0.455104 -0.254868 0.927368 252.808 279.539)" fill="#4C82FF"/>
<circle cx="1.50156" cy="1.50156" r="1.50156" transform="matrix(0.892823 0.455104 -0.254868 0.927368 263.542 285.011)" fill="#4C82FF"/>
<circle cx="1.50156" cy="1.50156" r="1.50156" transform="matrix(0.892823 0.455104 -0.254868 0.927368 274.276 290.483)" fill="#4C82FF"/>
<circle cx="1.50156" cy="1.50156" r="1.50156" transform="matrix(0.892823 0.455104 -0.254868 0.927368 125.194 232.964)" fill="#4C82FF"/>
<circle cx="1.50156" cy="1.50156" r="1.50156" transform="matrix(0.892823 0.455104 -0.254868 0.927368 135.929 238.436)" fill="#4C82FF"/>
<circle cx="1.50156" cy="1.50156" r="1.50156" transform="matrix(0.892823 0.455104 -0.254868 0.927368 146.663 243.907)" fill="#4C82FF"/>
<circle cx="1.50156" cy="1.50156" r="1.50156" transform="matrix(0.892823 0.455104 -0.254868 0.927368 157.397 249.379)" fill="#4C82FF"/>
<circle cx="1.50156" cy="1.50156" r="1.50156" transform="matrix(0.892823 0.455104 -0.254868 0.927368 168.133 254.851)" fill="#4C82FF"/>
<circle cx="1.50156" cy="1.50156" r="1.50156" transform="matrix(0.892823 0.455104 -0.254868 0.927368 178.867 260.323)" fill="#4C82FF"/>
<circle cx="1.50156" cy="1.50156" r="1.50156" transform="matrix(0.892823 0.455104 -0.254868 0.927368 189.602 265.794)" fill="#4C82FF"/>
<circle cx="1.50156" cy="1.50156" r="1.50156" transform="matrix(0.892823 0.455104 -0.254868 0.927368 200.336 271.266)" fill="#4C82FF"/>
<circle cx="1.50156" cy="1.50156" r="1.50156" transform="matrix(0.892823 0.455104 -0.254868 0.927368 211.07 276.738)" fill="#4C82FF"/>
<circle cx="1.50156" cy="1.50156" r="1.50156" transform="matrix(0.892823 0.455104 -0.254868 0.927368 221.805 282.21)" fill="#4C82FF"/>
<circle cx="1.50156" cy="1.50156" r="1.50156" transform="matrix(0.892823 0.455104 -0.254868 0.927368 232.54 287.682)" fill="#4C82FF"/>
<circle cx="1.50156" cy="1.50156" r="1.50156" transform="matrix(0.892823 0.455104 -0.254868 0.927368 243.274 293.153)" fill="#4C82FF"/>
<circle cx="1.50156" cy="1.50156" r="1.50156" transform="matrix(0.892823 0.455104 -0.254868 0.927368 254.009 298.625)" fill="#4C82FF"/>
<circle cx="1.50156" cy="1.50156" r="1.50156" transform="matrix(0.892823 0.455104 -0.254868 0.927368 264.743 304.097)" fill="#4C82FF"/>
<circle cx="1.50156" cy="1.50156" r="1.50156" transform="matrix(0.892823 0.455104 -0.254868 0.927368 115.662 246.578)" fill="#4C82FF"/>
<circle cx="1.50156" cy="1.50156" r="1.50156" transform="matrix(0.892823 0.455104 -0.254868 0.927368 126.396 252.05)" fill="#4C82FF"/>
<circle cx="1.50156" cy="1.50156" r="1.50156" transform="matrix(0.892823 0.455104 -0.254868 0.927368 137.131 257.521)" fill="#4C82FF"/>
<circle cx="1.50156" cy="1.50156" r="1.50156" transform="matrix(0.892823 0.455104 -0.254868 0.927368 147.865 262.993)" fill="#4C82FF"/>
<circle cx="1.50156" cy="1.50156" r="1.50156" transform="matrix(0.892823 0.455104 -0.254868 0.927368 158.601 268.465)" fill="#4C82FF"/>
<circle cx="1.50156" cy="1.50156" r="1.50156" transform="matrix(0.892823 0.455104 -0.254868 0.927368 169.335 273.937)" fill="#4C82FF"/>
<circle cx="1.50156" cy="1.50156" r="1.50156" transform="matrix(0.892823 0.455104 -0.254868 0.927368 180.069 279.408)" fill="#4C82FF"/>
<circle cx="1.50156" cy="1.50156" r="1.50156" transform="matrix(0.892823 0.455104 -0.254868 0.927368 190.804 284.88)" fill="#4C82FF"/>
<circle cx="1.50156" cy="1.50156" r="1.50156" transform="matrix(0.892823 0.455104 -0.254868 0.927368 201.538 290.352)" fill="#4C82FF"/>
<circle cx="1.50156" cy="1.50156" r="1.50156" transform="matrix(0.892823 0.455104 -0.254868 0.927368 212.272 295.824)" fill="#4C82FF"/>
<circle cx="1.50156" cy="1.50156" r="1.50156" transform="matrix(0.892823 0.455104 -0.254868 0.927368 223.008 301.296)" fill="#4C82FF"/>
<circle cx="1.50156" cy="1.50156" r="1.50156" transform="matrix(0.892823 0.455104 -0.254868 0.927368 233.742 306.767)" fill="#4C82FF"/>
<circle cx="1.50156" cy="1.50156" r="1.50156" transform="matrix(0.892823 0.455104 -0.254868 0.927368 244.477 312.239)" fill="#4C82FF"/>
<circle cx="1.50156" cy="1.50156" r="1.50156" transform="matrix(0.892823 0.455104 -0.254868 0.927368 255.211 317.711)" fill="#4C82FF"/>
<circle cx="1.50156" cy="1.50156" r="1.50156" transform="matrix(0.892823 0.455104 -0.254868 0.927368 106.129 260.192)" fill="#4C82FF"/>
<circle cx="1.50156" cy="1.50156" r="1.50156" transform="matrix(0.892823 0.455104 -0.254868 0.927368 116.863 265.664)" fill="#4C82FF"/>
<circle cx="1.50156" cy="1.50156" r="1.50156" transform="matrix(0.892823 0.455104 -0.254868 0.927368 127.598 271.135)" fill="#4C82FF"/>
<circle cx="1.50156" cy="1.50156" r="1.50156" transform="matrix(0.892823 0.455104 -0.254868 0.927368 138.332 276.607)" fill="#4C82FF"/>
<circle cx="1.50156" cy="1.50156" r="1.50156" transform="matrix(0.892823 0.455104 -0.254868 0.927368 149.067 282.079)" fill="#4C82FF"/>
<circle cx="1.50156" cy="1.50156" r="1.50156" transform="matrix(0.892823 0.455104 -0.254868 0.927368 159.802 287.551)" fill="#4C82FF"/>
<circle cx="1.50156" cy="1.50156" r="1.50156" transform="matrix(0.892823 0.455104 -0.254868 0.927368 170.536 293.022)" fill="#4C82FF"/>
<circle cx="1.50156" cy="1.50156" r="1.50156" transform="matrix(0.892823 0.455104 -0.254868 0.927368 181.271 298.494)" fill="#4C82FF"/>
<circle cx="1.50156" cy="1.50156" r="1.50156" transform="matrix(0.892823 0.455104 -0.254868 0.927368 192.005 303.966)" fill="#4C82FF"/>
<circle cx="1.50156" cy="1.50156" r="1.50156" transform="matrix(0.892823 0.455104 -0.254868 0.927368 202.739 309.438)" fill="#4C82FF"/>
<circle cx="1.50156" cy="1.50156" r="1.50156" transform="matrix(0.892823 0.455104 -0.254868 0.927368 213.475 314.91)" fill="#4C82FF"/>
<circle cx="1.50156" cy="1.50156" r="1.50156" transform="matrix(0.892823 0.455104 -0.254868 0.927368 224.209 320.381)" fill="#4C82FF"/>
<circle cx="1.50156" cy="1.50156" r="1.50156" transform="matrix(0.892823 0.455104 -0.254868 0.927368 234.943 325.853)" fill="#4C82FF"/>
<circle cx="1.50156" cy="1.50156" r="1.50156" transform="matrix(0.892823 0.455104 -0.254868 0.927368 245.678 331.325)" fill="#4C82FF"/>
</g>
</g>
<defs>
<clipPath id="clip0_2049_49049">
<rect width="744.5" height="420" fill="white"/>
</clipPath>
<clipPath id="clip1_2049_49049">
<rect width="914" height="1406" fill="white" transform="translate(-15.5 -271)"/>
</clipPath>
</defs>
</svg>
