<svg width="82" height="16" viewBox="0 0 82 16" fill="none" xmlns="http://www.w3.org/2000/svg">
<g opacity="0.85" clip-path="url(#clip0_2049_48859)">
<text fill="white" style="white-space: pre" xml:space="preserve" font-family="Inter" font-size="18" letter-spacing="0em"><tspan x="-1" y="15.74">&#x1f525;</tspan></text>
<path d="M26.3734 14.299C28.0525 14.299 29.4137 12.9378 29.4137 11.2587C29.4137 9.57966 28.0525 8.21851 26.3734 8.21851C24.6942 8.21851 23.333 9.57966 23.333 11.2587C23.333 12.9378 24.6942 14.299 26.3734 14.299Z" fill="#EB6161"/>
<path d="M36.6668 2.3964L36.627 8.21854C36.627 11.537 33.9642 14.2394 30.6457 14.299L30.5859 8.23841L30.5861 2.41628C30.5861 2.01886 30.904 1.70093 31.3014 1.70093H35.9514C36.3488 1.70093 36.6668 1.99899 36.6668 2.3964Z" fill="#009191"/>
<g clip-path="url(#clip1_2049_48859)">
<path fill-rule="evenodd" clip-rule="evenodd" d="M46.858 14.6089L45.1383 12.4666C44.7246 11.9511 44.5 11.3173 44.5 10.6649V2.90749C44.5 1.93032 45.2818 1.11948 46.2904 1.05063L54.2661 0.506091C54.8455 0.466531 55.4214 0.620545 55.8974 0.942352L58.6996 2.83696C59.2012 3.17609 59.5 3.73049 59.5 4.32213V13.1416C59.5 14.0979 58.7313 14.8896 57.7438 14.9504L48.8917 15.4953C48.1037 15.5438 47.342 15.2118 46.858 14.6089Z" fill="white"/>
<path d="M49.624 6.78935V6.68779C49.624 6.43035 49.8302 6.21683 50.096 6.19909L52.0316 6.06986L54.7085 10.0118V6.55207L54.0195 6.46022V6.41198C54.0195 6.15151 54.2304 5.93659 54.4995 5.9228L56.2608 5.83258V6.08604C56.2608 6.20502 56.1723 6.3068 56.051 6.32731L55.6272 6.39899V12.0018L55.0953 12.1848C54.6509 12.3376 54.1562 12.174 53.9018 11.7901L51.303 7.86859V11.6115L52.1029 11.7646L52.0918 11.8388C52.0569 12.0712 51.8562 12.2469 51.6135 12.2577L49.624 12.3463C49.5977 12.0964 49.7851 11.8728 50.0435 11.8456L50.3051 11.8181V6.82762L49.624 6.78935Z" fill="black"/>
<path fill-rule="evenodd" clip-rule="evenodd" d="M54.3374 1.48339L46.3617 2.02793C45.884 2.06054 45.5137 2.44462 45.5137 2.90749V10.6649C45.5137 11.0998 45.6634 11.5224 45.9392 11.866L47.6589 14.0083C47.9369 14.3547 48.3745 14.5454 48.8272 14.5176L57.6793 13.9727C58.133 13.9447 58.4862 13.581 58.4862 13.1416V4.32213C58.4862 4.0503 58.3489 3.79557 58.1185 3.63975L55.3162 1.74515C55.0306 1.55206 54.6851 1.45966 54.3374 1.48339ZM46.7572 3.0285C46.6463 2.94637 46.6991 2.77527 46.8385 2.76528L54.3911 2.22355C54.6317 2.20629 54.8709 2.27256 55.0655 2.41044L56.5808 3.48406C56.6384 3.52482 56.6114 3.61282 56.5402 3.61669L48.5419 4.05168C48.2999 4.06485 48.061 3.99374 47.8685 3.85125L46.7572 3.0285ZM48.1668 5.41536C48.1668 5.15552 48.3767 4.94088 48.6451 4.92626L57.1015 4.46573C57.3631 4.45148 57.5834 4.65267 57.5834 4.90591V12.5426C57.5834 12.802 57.3742 13.0164 57.1063 13.0317L48.7034 13.5098C48.4123 13.5263 48.1668 13.3026 48.1668 13.0207V5.41536Z" fill="black"/>
</g>
<path d="M69.3333 6.66675C68.6 6.66675 68 7.26675 68 8.00008C68 8.73341 68.6 9.33341 69.3333 9.33341C70.0667 9.33341 70.6667 8.73341 70.6667 8.00008C70.6667 7.26675 70.0667 6.66675 69.3333 6.66675ZM78.6667 6.66675C77.9333 6.66675 77.3333 7.26675 77.3333 8.00008C77.3333 8.73341 77.9333 9.33341 78.6667 9.33341C79.4 9.33341 80 8.73341 80 8.00008C80 7.26675 79.4 6.66675 78.6667 6.66675ZM74 6.66675C73.2667 6.66675 72.6667 7.26675 72.6667 8.00008C72.6667 8.73341 73.2667 9.33341 74 9.33341C74.7333 9.33341 75.3333 8.73341 75.3333 8.00008C75.3333 7.26675 74.7333 6.66675 74 6.66675Z" fill="#101828" fill-opacity="0.3"/>
</g>
<defs>
<clipPath id="clip0_2049_48859">
<rect width="82" height="16" fill="white"/>
</clipPath>
<clipPath id="clip1_2049_48859">
<rect width="16" height="16" fill="white" transform="translate(44)"/>
</clipPath>
</defs>
</svg>
