<?xml version="1.0" encoding="UTF-8"?>
<svg version="1.1" xmlns="http://www.w3.org/2000/svg" width="512" height="512">
<path d="M0 0 C168.96 0 337.92 0 512 0 C512 168.96 512 337.92 512 512 C343.04 512 174.08 512 0 512 C0 343.04 0 174.08 0 0 Z " fill="#FAFAFA" transform="translate(0,0)"/>
<path d="M0 0 C84.48 0 168.96 0 256 0 C256 21.12 256 42.24 256 64 C224.32 64 192.64 64 160 64 C160 127.36 160 190.72 160 256 C138.88 256 117.76 256 96 256 C96 192.64 96 129.28 96 64 C64.32 64 32.64 64 0 64 C0 42.88 0 21.76 0 0 Z " fill="#1B1B1B" transform="translate(128,128)"/>
</svg>
