<svg width="12" height="12" viewBox="0 0 12 12" fill="none" xmlns="http://www.w3.org/2000/svg">
<path d="M6 5.24975C5.58579 5.24975 5.25 5.58554 5.25 5.99975C5.25 6.41396 5.58579 6.74975 6 6.74975C6.41421 6.74975 6.75 6.41396 6.75 5.99975C6.75 5.58554 6.41421 5.24975 6 5.24975Z" fill="#344054"/>
<path fill-rule="evenodd" clip-rule="evenodd" d="M7.55961 1.2874C7.06059 1.49287 6.53398 1.7771 5.99996 2.13007C5.46595 1.77712 4.93936 1.4929 4.44036 1.28743C3.8603 1.04858 3.29372 0.906291 2.7826 0.902457C2.269 0.898605 1.77103 1.03634 1.40379 1.40358C1.03655 1.77082 0.89882 2.26879 0.902672 2.78238C0.906505 3.2935 1.0488 3.86008 1.28765 4.44015C1.49312 4.93915 1.77733 5.46574 2.13029 5.99975C1.77733 6.53376 1.49311 7.06036 1.28764 7.55936C1.04879 8.13942 0.9065 8.706 0.902666 9.21712C0.898814 9.73072 1.03655 10.2287 1.40379 10.5959C1.77103 10.9632 2.269 11.1009 2.78259 11.097C3.29371 11.0932 3.86029 10.9509 4.44035 10.7121C4.93935 10.5066 5.46595 10.2224 5.99996 9.86944C6.53398 10.2224 7.06059 10.5066 7.55961 10.7121C8.13967 10.951 8.70625 11.0933 9.21737 11.0971C9.73097 11.1009 10.2289 10.9632 10.5962 10.596C10.9634 10.2287 11.1012 9.73075 11.0973 9.21716C11.0935 8.70604 10.9512 8.13946 10.7123 7.5594C10.5068 7.06038 10.2226 6.53377 9.86966 5.99975C10.2226 5.46573 10.5068 4.93912 10.7123 4.44011C10.9512 3.86005 11.0935 3.29347 11.0973 2.78235C11.1011 2.26875 10.9634 1.77078 10.5962 1.40354C10.2289 1.0363 9.73096 0.89857 9.21737 0.902422C8.70625 0.906256 8.13967 1.04855 7.55961 1.2874ZM7.94035 2.21207C7.60184 2.35146 7.2419 2.53581 6.87023 2.7619C7.29274 3.09639 7.71306 3.47021 8.12131 3.87845C8.52954 4.28668 8.90334 4.70698 9.23781 5.12947C9.46391 4.75781 9.64826 4.39787 9.78764 4.05936C9.99666 3.55175 10.0948 3.11609 10.0973 2.77485C10.0999 2.43608 10.01 2.23156 9.88907 2.11065C9.76815 1.98973 9.56364 1.89985 9.22487 1.90239C8.88362 1.90495 8.44796 2.00306 7.94035 2.21207ZM2.21232 4.0594C2.35171 4.39789 2.53604 4.75782 2.76213 5.12947C3.09661 4.70697 3.47042 4.28665 3.87866 3.87842C4.28689 3.47019 4.70719 3.09639 5.12968 2.76191C4.75803 2.53582 4.3981 2.35149 4.05961 2.21211C3.552 2.00309 3.11634 1.90499 2.7751 1.90243C2.43633 1.89989 2.23181 1.98977 2.1109 2.11068C1.98998 2.2316 1.9001 2.43611 1.90264 2.77488C1.9052 3.11613 2.00331 3.55179 2.21232 4.0594ZM4.58577 4.58552C4.11988 5.05141 3.70722 5.5288 3.35371 5.99975C3.70722 6.4707 4.11988 6.94809 4.58577 7.41398C5.05165 7.87986 5.52902 8.29251 5.99996 8.64601C6.47091 8.2925 6.9483 7.87984 7.41419 7.41395C7.88007 6.94807 8.29272 6.47069 8.64623 5.99975C8.29272 5.52881 7.88008 5.05143 7.4142 4.58556C6.94831 4.11966 6.47091 3.70701 5.99996 3.35349C5.52902 3.707 5.05164 4.11965 4.58577 4.58552ZM2.21232 7.94011C2.3517 7.60161 2.53604 7.24168 2.76213 6.87003C3.09661 7.29253 3.47042 7.71285 3.87866 8.12109C4.28689 8.52932 4.70719 8.90312 5.12968 9.23759C4.75803 9.46368 4.3981 9.64802 4.05961 9.7874C3.552 9.99641 3.11634 10.0945 2.77509 10.0971C2.43632 10.0996 2.23181 10.0097 2.11089 9.88882C1.98998 9.76791 1.9001 9.5634 1.90264 9.22462C1.9052 8.88338 2.0033 8.44772 2.21232 7.94011ZM7.94036 9.78743C7.60185 9.64804 7.2419 9.4637 6.87023 9.2376C7.29274 8.90311 7.71306 8.5293 8.1213 8.12106C8.52953 7.71282 8.90334 7.29252 9.23782 6.87003C9.46392 7.24169 9.64826 7.60163 9.78765 7.94015C9.99666 8.44775 10.0948 8.88342 10.0973 9.22466C10.0999 9.56343 10.01 9.76794 9.88907 9.88886C9.76816 10.0098 9.56364 10.0997 9.22487 10.0971C8.88363 10.0946 8.44797 9.99645 7.94036 9.78743Z" fill="#344054"/>
</svg>
