<svg width="24" height="24" viewBox="0 0 24 24" fill="none" xmlns="http://www.w3.org/2000/svg">
<rect width="24" height="24" rx="6" fill="#3980C5"/>
<path d="M18.5963 11.6572C18.748 11.9956 18.8443 12.3574 18.8836 12.7264C18.9216 13.0954 18.9026 13.4689 18.8238 13.8321C18.7465 14.1953 18.6123 14.5439 18.4256 14.8648C18.3031 15.0792 18.1587 15.2805 17.9924 15.4657C17.8276 15.6495 17.6438 15.8158 17.444 15.9617C17.2427 16.1075 17.0283 16.2301 16.8007 16.3307C16.5746 16.4299 16.3383 16.5057 16.0962 16.5553C15.9824 16.9083 15.8132 17.2423 15.5944 17.5428C15.3771 17.8433 15.1131 18.1073 14.8126 18.3247C14.5121 18.5435 14.1795 18.7127 13.8266 18.8264C13.4736 18.9417 13.1045 18.9985 12.7326 18.9985C12.4861 19 12.2381 18.9738 11.996 18.9242C11.7553 18.8731 11.519 18.7958 11.2929 18.6952C11.0668 18.5945 10.8524 18.4691 10.6526 18.3232C10.4542 18.1773 10.2704 18.0096 10.107 17.8243C9.74237 17.9031 9.36896 17.9221 8.99992 17.8841C8.63089 17.8448 8.26914 17.7485 7.92928 17.5968C7.59088 17.4466 7.27727 17.2423 7.00159 16.9929C6.72591 16.7435 6.49107 16.4518 6.30582 16.1309C6.18184 15.9164 6.07973 15.6904 6.00242 15.4555C5.92511 15.2207 5.87406 14.9785 5.84781 14.732C5.82155 14.487 5.82301 14.239 5.84927 13.9925C5.87552 13.7475 5.92949 13.5053 6.0068 13.2705C5.75883 12.9948 5.55462 12.6812 5.40292 12.3428C5.25268 12.0029 5.15495 11.6426 5.11703 11.2736C5.07765 10.9046 5.09807 10.5312 5.17538 10.168C5.25268 9.80476 5.38688 9.45614 5.57358 9.13524C5.69611 8.92082 5.84051 8.71807 6.00534 8.53428C6.17017 8.3505 6.35541 8.18421 6.55525 8.03835C6.75508 7.89248 6.97096 7.7685 7.19705 7.66931C7.42459 7.56867 7.66089 7.49428 7.90303 7.44468C8.0168 7.09023 8.186 6.75766 8.40334 6.45718C8.62213 6.15671 8.88615 5.89269 9.18663 5.6739C9.48711 5.45656 9.81968 5.28736 10.1727 5.17213C10.5257 5.05835 10.8947 5.00001 11.2666 5.00146C11.5132 5.00001 11.7611 5.0248 12.0033 5.07586C12.2454 5.12691 12.4817 5.20276 12.7078 5.3034C12.9339 5.40551 13.1483 5.52949 13.3481 5.67535C13.548 5.82268 13.7317 5.98896 13.8951 6.17421C14.2583 6.0969 14.6317 6.07794 15.0008 6.11586C15.3698 6.15379 15.7301 6.25152 16.0699 6.40176C16.4083 6.55345 16.7219 6.75621 16.9976 7.00563C17.2733 7.2536 17.5082 7.54387 17.6934 7.86623C17.8174 8.07919 17.9195 8.30528 17.9968 8.54158C18.0741 8.77642 18.1266 9.01855 18.1514 9.26506C18.1777 9.51157 18.1777 9.75954 18.15 10.006C18.1237 10.2526 18.0697 10.4947 17.9924 10.7295C18.2418 11.0052 18.4446 11.3174 18.5963 11.6572ZM13.7361 17.8841C14.0541 17.7529 14.3429 17.5589 14.5865 17.3153C14.8301 17.0717 15.0241 16.7829 15.1554 16.4634C15.2866 16.1455 15.3552 15.8041 15.3552 15.4599V12.2071C15.3542 12.2042 15.3533 12.2008 15.3523 12.1969C15.3513 12.194 15.3499 12.1911 15.3479 12.1882C15.346 12.1853 15.3435 12.1828 15.3406 12.1809C15.3377 12.178 15.3348 12.176 15.3319 12.175L14.1547 11.4953V15.4249C14.1547 15.4643 14.1489 15.5051 14.1387 15.543C14.1285 15.5824 14.1139 15.6189 14.0935 15.6539C14.0731 15.6889 14.0497 15.721 14.0206 15.7487C13.9922 15.777 13.9603 15.8015 13.9257 15.8216L11.1383 17.4305C11.1149 17.4451 11.0756 17.4655 11.0551 17.4772C11.1704 17.5749 11.2958 17.661 11.4271 17.7368C11.5598 17.8127 11.6969 17.8769 11.8399 17.9294C11.9828 17.9804 12.1302 18.0198 12.2789 18.0461C12.4292 18.0723 12.5809 18.0854 12.7326 18.0854C13.0768 18.0854 13.4181 18.0169 13.7361 17.8841ZM7.09786 15.6758C7.27144 15.9748 7.50044 16.2344 7.77321 16.4445C8.04743 16.6545 8.35812 16.8077 8.69069 16.8967C9.02326 16.9856 9.37042 17.009 9.71174 16.9637C10.0531 16.9185 10.3813 16.8077 10.6803 16.6356L13.4984 15.0092L13.5057 15.0019C13.5076 14.9999 13.5091 14.997 13.51 14.9931C13.512 14.9902 13.5134 14.9873 13.5144 14.9844V13.6133L10.1129 15.581C10.0779 15.6014 10.0414 15.616 10.0035 15.6276C9.96408 15.6378 9.9247 15.6422 9.88386 15.6422C9.84447 15.6422 9.80509 15.6378 9.76571 15.6276C9.72778 15.616 9.68986 15.6014 9.65485 15.581L6.86739 13.9706C6.8426 13.956 6.80613 13.9342 6.78571 13.921C6.75946 14.0713 6.74633 14.223 6.74633 14.3747C6.74633 14.5264 6.76091 14.6781 6.78717 14.8283C6.81342 14.9771 6.85427 15.1244 6.90532 15.2674C6.95783 15.4103 7.02201 15.5474 7.09786 15.6787V15.6758ZM6.36562 9.59325C6.1935 9.89228 6.08265 10.2219 6.03743 10.5632C5.99221 10.9046 6.01555 11.2503 6.10453 11.5843C6.1935 11.9169 6.34666 12.2276 6.5567 12.5018C6.76675 12.7745 7.02784 13.0035 7.32541 13.1757L10.142 14.8035C10.145 14.8045 10.1484 14.8055 10.1522 14.8064H10.1625C10.1663 14.8064 10.1697 14.8055 10.1727 14.8035C10.1756 14.8025 10.1785 14.8011 10.1814 14.7991L11.3629 14.1165L7.96137 12.1532C7.92782 12.1327 7.89573 12.1079 7.86656 12.0802C7.8383 12.0519 7.81379 12.02 7.79363 11.9854C7.77467 11.9504 7.75862 11.9139 7.74841 11.8746C7.7382 11.8366 7.73237 11.7973 7.73383 11.7564V8.44385C7.59088 8.49636 7.45231 8.56054 7.32103 8.63639C7.18975 8.7137 7.06577 8.80121 6.94908 8.89894C6.83385 8.99667 6.72591 9.10461 6.62818 9.2213C6.53045 9.33653 6.44439 9.46198 6.36854 9.59325H6.36562ZM16.0408 11.8454C16.0758 11.8658 16.1079 11.8892 16.137 11.9183C16.1647 11.946 16.1895 11.9781 16.21 12.0131C16.2289 12.0481 16.245 12.0861 16.2552 12.124C16.2639 12.1634 16.2698 12.2028 16.2683 12.2436V15.5562C16.7365 15.384 17.145 15.0821 17.4469 14.6854C17.7503 14.2886 17.9326 13.8146 17.9749 13.3186C18.0172 12.8227 17.918 12.3238 17.6876 11.8819C17.4571 11.4399 17.1056 11.0723 16.6738 10.8243L13.8572 9.19651C13.8543 9.19553 13.8509 9.19456 13.847 9.19359H13.8368C13.8338 9.19456 13.8304 9.19553 13.8266 9.19651C13.8236 9.19748 13.8207 9.19894 13.8178 9.20088L12.6421 9.88061L16.0437 11.8454H16.0408ZM17.215 10.0804H17.2135V10.0819L17.215 10.0804ZM17.2135 10.079C17.2981 9.58888 17.2412 9.08419 17.0487 8.62472C16.8576 8.16525 16.5382 7.76996 16.1297 7.48407C15.7213 7.19963 15.24 7.03626 14.7426 7.01438C14.2437 6.99396 13.7507 7.11503 13.3189 7.363L10.5023 8.98938C10.4994 8.99132 10.497 8.99375 10.495 8.99667L10.4892 9.00542C10.4882 9.00834 10.4872 9.01174 10.4863 9.01563C10.4853 9.01855 10.4848 9.02196 10.4848 9.02585V10.3853L13.8864 8.42051C13.9214 8.40009 13.9593 8.3855 13.9972 8.37383C14.0366 8.36362 14.076 8.35925 14.1154 8.35925C14.1562 8.35925 14.1956 8.36362 14.235 8.37383C14.2729 8.3855 14.3094 8.40009 14.3444 8.42051L17.1318 10.0308C17.1566 10.0454 17.1931 10.0659 17.2135 10.079ZM9.84301 8.57367C9.84301 8.53428 9.84885 8.4949 9.85906 8.45552C9.86927 8.41759 9.88386 8.37967 9.90428 8.34466C9.9247 8.31111 9.94804 8.27902 9.97721 8.24985C10.0049 8.22214 10.037 8.19734 10.072 8.17838L12.8595 6.5695C12.8857 6.55345 12.9222 6.53303 12.9426 6.52282C12.5605 6.20338 12.0937 5.99917 11.5992 5.93645C11.1047 5.87227 10.603 5.95104 10.1522 6.16254C9.70007 6.37404 9.3179 6.71099 9.05097 7.13107C8.78404 7.55262 8.64256 8.03981 8.64256 8.53866V11.7914C8.64353 11.7953 8.6445 11.7987 8.64547 11.8016C8.64645 11.8045 8.6479 11.8075 8.64985 11.8104C8.65179 11.8133 8.65422 11.8162 8.65714 11.8191C8.65909 11.8211 8.662 11.823 8.66589 11.825L9.84301 12.5047V8.57367ZM10.4819 12.8723L11.9974 13.7475L13.5129 12.8723V11.1234L11.9989 10.2482L10.4834 11.1234L10.4819 12.8723Z" fill="white"/>
</svg>
