<svg width="16" height="17" viewBox="0 0 16 17" fill="none" xmlns="http://www.w3.org/2000/svg">
<g clip-path="url(#clip0_660_1978)">
<path d="M16.1064 1.77422C16.1184 1.7048 16.115 1.63359 16.0965 1.56561C16.078 1.49763 16.0448 1.43453 15.9993 1.38074C15.9538 1.32696 15.8971 1.2838 15.8331 1.25431C15.7691 1.22481 15.6994 1.20969 15.629 1.21001H0.602662C0.531806 1.20898 0.461593 1.22358 0.397019 1.25276C0.332445 1.28195 0.275097 1.32501 0.229055 1.37888C0.183014 1.43275 0.14941 1.4961 0.130636 1.56443C0.111861 1.63276 0.108377 1.70439 0.120432 1.77422L2.31458 15.2285C2.33294 15.3417 2.3911 15.4448 2.47861 15.519C2.56611 15.5933 2.67723 15.6339 2.79199 15.6335H13.4493C13.6904 15.6335 13.8929 15.4648 13.9315 15.2285L16.1064 1.77422ZM9.78916 10.7823H6.4473L5.54553 6.05643H10.5993L9.78916 10.7823Z" fill="#2684FF"/>
</g>
<defs>
<clipPath id="clip0_660_1978">
<rect width="16" height="16" fill="white" transform="translate(0 0.5)"/>
</clipPath>
</defs>
</svg>
