<svg width="24" height="24" viewBox="0 0 24 24" fill="none" xmlns="http://www.w3.org/2000/svg">
<rect width="24" height="24" rx="6" fill="white"/>
<path d="M11.9514 17.4737C15.1838 17.4737 17.8041 14.8534 17.8041 11.6211C17.8041 8.38874 15.1838 5.76843 11.9514 5.76843C8.71913 5.76843 6.09882 8.38874 6.09882 11.6211C6.09882 14.8534 8.71913 17.4737 11.9514 17.4737Z" fill="#FFD21E"/>
<path d="M17.8041 11.621C17.8041 8.38872 15.1838 5.76841 11.9515 5.76841C8.71917 5.76841 6.09886 8.38872 6.09886 11.621C6.09886 14.8534 8.71917 17.4737 11.9515 17.4737C15.1838 17.4737 17.8041 14.8534 17.8041 11.621ZM5.42517 11.621C5.42517 8.01666 8.3471 5.09473 11.9515 5.09473C15.5559 5.09473 18.4778 8.01666 18.4778 11.621C18.4778 15.2254 15.5559 18.1474 11.9515 18.1474C8.3471 18.1474 5.42517 15.2254 5.42517 11.621Z" fill="#FF9D0B"/>
<path d="M13.853 10.028C14.0676 10.1038 14.1531 10.5451 14.3699 10.4298C14.7805 10.2114 14.9364 9.70155 14.7181 9.29091C14.4997 8.88028 13.9898 8.72439 13.5792 8.94273C13.1685 9.16107 13.0127 9.67097 13.231 10.0816C13.3341 10.2754 13.6611 9.96028 13.853 10.028Z" fill="#3A3B45"/>
<path d="M9.88553 10.028C9.6709 10.1038 9.58551 10.5451 9.36868 10.4298C8.95804 10.2114 8.80215 9.70155 9.02049 9.29091C9.23883 8.88028 9.74873 8.72439 10.1594 8.94273C10.57 9.16107 10.7259 9.67097 10.5076 10.0816C10.4045 10.2754 10.0774 9.96028 9.88553 10.028Z" fill="#3A3B45"/>
<path d="M11.9094 14.0697C13.5647 14.0697 14.0989 12.5938 14.0989 11.836C14.0989 11.4421 13.8341 11.5661 13.41 11.776C13.0181 11.97 12.4901 12.2375 11.9094 12.2375C10.7002 12.2375 9.71991 11.0781 9.71991 11.836C9.71991 12.5938 10.2541 14.0697 11.9094 14.0697Z" fill="#3A3B45"/>
<mask id="mask0_3907_39368" style="mask-type:alpha" maskUnits="userSpaceOnUse" x="9" y="11" width="6" height="4">
<path d="M11.9094 14.0697C13.5647 14.0697 14.0989 12.5938 14.0989 11.836C14.0989 11.4421 13.8341 11.5661 13.41 11.776C13.0181 11.97 12.4901 12.2375 11.9094 12.2375C10.7002 12.2375 9.71991 11.0781 9.71991 11.836C9.71991 12.5938 10.2541 14.0697 11.9094 14.0697Z" fill="white"/>
</mask>
<g mask="url(#mask0_3907_39368)">
<path d="M11.9515 15.7894C12.7582 15.7894 13.4122 15.1354 13.4122 14.3287C13.4122 13.7004 13.0154 13.1647 12.4588 12.9585C12.4383 12.9509 12.4176 12.9438 12.3967 12.9371C12.2563 12.8922 12.1068 13.3747 11.9515 13.3747C11.8064 13.3747 11.6663 12.8892 11.534 12.9285C10.9307 13.1081 10.4908 13.6671 10.4908 14.3287C10.4908 15.1354 11.1448 15.7894 11.9515 15.7894Z" fill="#F94040"/>
</g>
<path d="M15.9094 10.8211C16.2117 10.8211 16.4567 10.576 16.4567 10.2737C16.4567 9.97139 16.2117 9.72632 15.9094 9.72632C15.6071 9.72632 15.362 9.97139 15.362 10.2737C15.362 10.576 15.6071 10.8211 15.9094 10.8211Z" fill="#FF9D0B"/>
<path d="M8.07776 10.8211C8.38006 10.8211 8.62513 10.576 8.62513 10.2737C8.62513 9.97139 8.38006 9.72632 8.07776 9.72632C7.77545 9.72632 7.5304 9.97139 7.5304 10.2737C7.5304 10.576 7.77545 10.8211 8.07776 10.8211Z" fill="#FF9D0B"/>
<path d="M6.9514 12.6737C6.67872 12.6737 6.43502 12.7857 6.26508 12.9888C6.15999 13.1146 6.05018 13.3174 6.04125 13.6211C5.92689 13.5882 5.81691 13.5699 5.71418 13.5699C5.45312 13.5699 5.21733 13.6699 5.0506 13.8516C4.83636 14.0849 4.74121 14.3716 4.78264 14.6584C4.80234 14.795 4.84799 14.9174 4.9162 15.0308C4.77236 15.1471 4.66643 15.3092 4.61523 15.504C4.57514 15.6568 4.53405 15.9749 4.74862 16.3027C4.73498 16.3241 4.72218 16.3463 4.71022 16.369C4.58121 16.6139 4.57295 16.8906 4.68681 17.1483C4.85944 17.5389 5.28841 17.8466 6.12142 18.1769C6.63965 18.3823 7.11375 18.5137 7.11796 18.5149C7.8031 18.6926 8.42272 18.7828 8.95914 18.7828C9.94508 18.7828 10.6509 18.4809 11.0572 17.8853C11.711 16.9263 11.6175 16.0492 10.7715 15.2037C10.3033 14.7359 9.99207 14.046 9.92723 13.8946C9.79653 13.4463 9.45093 12.9479 8.87645 12.9479C8.82811 12.9479 8.7791 12.9518 8.73093 12.9593C8.47931 12.9989 8.25935 13.1438 8.10222 13.3617C7.93262 13.1508 7.7679 12.9831 7.61885 12.8884C7.39418 12.746 7.16967 12.6737 6.9514 12.6737ZM6.9514 13.3474C7.03729 13.3474 7.14222 13.3839 7.25792 13.4574C7.61716 13.6852 8.31039 14.8768 8.5642 15.3403C8.64925 15.4956 8.7946 15.5613 8.92546 15.5613C9.18516 15.5613 9.38794 15.3031 8.94921 14.975C8.2895 14.4814 8.52091 13.6745 8.83586 13.6248C8.84967 13.6226 8.86331 13.6216 8.87645 13.6216C9.16277 13.6216 9.28908 14.1151 9.28908 14.1151C9.28908 14.1151 9.65927 15.0447 10.2952 15.6802C10.9312 16.3158 10.964 16.826 10.5005 17.5057C10.1844 17.9692 9.57927 18.1092 8.95914 18.1092C8.31594 18.1092 7.65658 17.9586 7.28706 17.8628C7.26887 17.858 5.02163 17.2233 5.30626 16.683C5.35409 16.5922 5.43291 16.5558 5.53211 16.5558C5.93295 16.5558 6.66205 17.1524 6.97548 17.1524C7.04554 17.1524 7.09489 17.1225 7.1151 17.0498C7.24866 16.5706 5.08445 16.3692 5.26685 15.6751C5.29902 15.5524 5.38626 15.5025 5.50887 15.5027C6.03855 15.5027 7.22693 16.4342 7.47603 16.4342C7.49506 16.4342 7.5087 16.4287 7.51611 16.4169C7.64091 16.2154 7.57253 16.0748 6.69287 15.5424C5.81321 15.0099 5.19578 14.6895 5.54693 14.3072C5.58735 14.2631 5.64462 14.2436 5.71418 14.2436C6.24824 14.2437 7.51005 15.392 7.51005 15.392C7.51005 15.392 7.8506 15.7462 8.05658 15.7462C8.1039 15.7462 8.14415 15.7275 8.17144 15.6814C8.31746 15.4351 6.81514 14.2966 6.73043 13.8269C6.673 13.5086 6.77068 13.3474 6.9514 13.3474Z" fill="#FF9D0B"/>
<path d="M10.5005 17.5057C10.964 16.8259 10.9312 16.3158 10.2952 15.6802C9.65925 15.0447 9.28906 14.115 9.28906 14.115C9.28906 14.115 9.15079 13.5751 8.83584 13.6247C8.5209 13.6744 8.28965 14.4813 8.94936 14.975C9.60907 15.4685 8.81799 15.8038 8.56418 15.3403C8.31037 14.8768 7.61732 13.6852 7.25791 13.4573C6.89866 13.2295 6.6457 13.3571 6.73041 13.8269C6.81513 14.2966 8.31761 15.4351 8.17142 15.6815C8.02523 15.9277 7.51003 15.392 7.51003 15.392C7.51003 15.392 5.89791 13.9249 5.54691 14.3072C5.19592 14.6895 5.81319 15.0098 6.69285 15.5424C7.57269 16.0748 7.6409 16.2154 7.5161 16.4168C7.39113 16.6183 5.44922 14.981 5.26682 15.6751C5.08459 16.3692 7.24864 16.5706 7.11509 17.0498C6.98153 17.5291 5.5907 16.1428 5.30624 16.6829C5.0216 17.2232 7.26885 17.858 7.28704 17.8627C8.01294 18.051 9.85648 18.45 10.5005 17.5057Z" fill="#FFD21E"/>
<path d="M17.0358 12.6737C17.3084 12.6737 17.5521 12.7857 17.7221 12.9888C17.8272 13.1146 17.937 13.3174 17.9459 13.6211C18.0603 13.5882 18.1702 13.5699 18.273 13.5699C18.534 13.5699 18.7698 13.6699 18.9366 13.8516C19.1508 14.0849 19.2459 14.3716 19.2045 14.6584C19.1848 14.795 19.1392 14.9174 19.071 15.0308C19.2148 15.1471 19.3207 15.3092 19.3719 15.504C19.412 15.6568 19.4531 15.9749 19.2385 16.3027C19.2522 16.3241 19.265 16.3463 19.2769 16.369C19.4059 16.6139 19.4142 16.8906 19.3003 17.1483C19.1277 17.5389 18.6987 17.8466 17.8657 18.1769C17.3475 18.3823 16.8734 18.5137 16.8692 18.5149C16.1841 18.6926 15.5644 18.7828 15.028 18.7828C14.0421 18.7828 13.3362 18.4809 12.93 17.8853C12.2762 16.9263 12.3697 16.0492 13.2156 15.2037C13.6838 14.7359 13.9951 14.046 14.0599 13.8946C14.1906 13.4463 14.5362 12.9479 15.1107 12.9479C15.159 12.9479 15.2081 12.9518 15.2562 12.9593C15.5078 12.9989 15.7278 13.1438 15.8849 13.3617C16.0545 13.1508 16.2193 12.9831 16.3683 12.8884C16.593 12.746 16.8175 12.6737 17.0358 12.6737ZM17.0358 13.3474C16.9499 13.3474 16.8449 13.3839 16.7292 13.4574C16.37 13.6852 15.6768 14.8768 15.423 15.3403C15.3379 15.4956 15.1926 15.5613 15.0617 15.5613C14.802 15.5613 14.5992 15.3031 15.0379 14.975C15.6977 14.4814 15.4662 13.6745 15.1513 13.6248C15.1375 13.6226 15.1238 13.6216 15.1107 13.6216C14.8244 13.6216 14.6981 14.1151 14.6981 14.1151C14.6981 14.1151 14.3279 15.0447 13.6919 15.6802C13.056 16.3158 13.0231 16.826 13.4866 17.5057C13.8027 17.9692 14.4079 18.1092 15.028 18.1092C15.6712 18.1092 16.3306 17.9586 16.7001 17.8628C16.7183 17.858 18.9655 17.2233 18.6809 16.683C18.6331 16.5922 18.5542 16.5558 18.455 16.5558C18.0542 16.5558 17.3251 17.1524 17.0117 17.1524C16.9416 17.1524 16.8923 17.1225 16.8721 17.0498C16.7385 16.5706 18.9027 16.3692 18.7203 15.6751C18.6881 15.5524 18.6009 15.5025 18.4783 15.5027C17.9486 15.5027 16.7602 16.4342 16.5111 16.4342C16.4921 16.4342 16.4785 16.4287 16.471 16.4169C16.3462 16.2154 16.4146 16.0748 17.2943 15.5424C18.1739 15.0099 18.7914 14.6895 18.4402 14.3072C18.3998 14.2631 18.3425 14.2436 18.273 14.2436C17.7389 14.2437 16.4771 15.392 16.4771 15.392C16.4771 15.392 16.1366 15.7462 15.9306 15.7462C15.8833 15.7462 15.843 15.7275 15.8157 15.6814C15.6697 15.4351 17.172 14.2966 17.2567 13.8269C17.3142 13.5086 17.2165 13.3474 17.0358 13.3474Z" fill="#FF9D0B"/>
<path d="M13.4867 17.5057C13.0232 16.8259 13.056 16.3158 13.692 15.6802C14.3279 15.0447 14.6981 14.115 14.6981 14.115C14.6981 14.115 14.8364 13.5751 15.1513 13.6247C15.4663 13.6744 15.6975 14.4813 15.0378 14.975C14.3781 15.4685 15.1692 15.8038 15.423 15.3403C15.6768 14.8768 16.3699 13.6852 16.7293 13.4573C17.0885 13.2295 17.3415 13.3571 17.2568 13.8269C17.1721 14.2966 15.6696 15.4351 15.8158 15.6815C15.962 15.9277 16.4772 15.392 16.4772 15.392C16.4772 15.392 18.0893 13.9249 18.4403 14.3072C18.7913 14.6895 18.174 15.0098 17.2943 15.5424C16.4145 16.0748 16.3463 16.2154 16.4711 16.4168C16.5961 16.6183 18.538 14.981 18.7204 15.6751C18.9026 16.3692 16.7385 16.5706 16.8721 17.0498C17.0057 17.5291 18.3965 16.1428 18.6809 16.6829C18.9656 17.2232 16.7183 17.858 16.7001 17.8627C15.9743 18.051 14.1307 18.45 13.4867 17.5057Z" fill="#FFD21E"/>
<rect x="0.25" y="0.25" width="23.5" height="23.5" rx="5.75" stroke="black" stroke-opacity="0.05" stroke-width="0.5"/>
</svg>
