<?xml version="1.0" standalone="no"?>
<!DOCTYPE svg PUBLIC "-//W3C//DTD SVG 20010904//EN"
 "http://www.w3.org/TR/2001/REC-SVG-20010904/DTD/svg10.dtd">
<svg version="1.0" xmlns="http://www.w3.org/2000/svg"
 width="348.000000pt" height="120.000000pt" viewBox="0 0 348.000000 120.000000"
 preserveAspectRatio="xMidYMid meet">

<g transform="translate(0.000000,120.000000) scale(0.100000,-0.100000)"
fill="#000000" stroke="none">
<path d="M0 600 l0 -600 545 0 c480 0 544 2 539 15 -4 8 -10 15 -15 15 -5 0
-9 5 -9 11 0 5 5 7 11 3 9 -5 10 1 5 20 -6 23 3 36 69 102 41 42 95 107 120
143 96 145 168 334 181 475 3 27 12 62 20 78 8 16 12 33 9 38 -3 5 0 12 6 16
8 4 9 3 5 -4 -4 -7 -3 -12 3 -12 5 0 11 4 13 10 2 5 15 11 30 12 15 1 25 5 23
9 -3 3 -17 4 -32 1 -16 -2 -24 -1 -20 4 4 4 25 9 45 10 20 1 47 2 60 3 13 0
20 5 17 11 -3 5 2 10 12 11 16 0 16 1 -2 9 -19 8 -19 9 3 9 12 1 22 5 22 9 0
10 18 12 69 12 18 -1 40 5 49 12 8 7 39 14 68 14 28 1 56 4 61 7 11 7 28 -3
37 -23 3 -8 3 2 0 23 -3 24 -2 37 5 33 13 -9 20 16 9 37 -5 9 -6 17 -3 17 4 0
28 -46 55 -102 134 -281 152 -647 46 -956 -19 -55 -22 -72 -11 -72 22 0 80
200 93 323 11 108 8 404 -6 452 -31 110 -47 305 -25 305 7 0 13 4 13 8 0 5 14
7 31 6 17 -1 42 4 57 12 15 8 23 14 17 14 -10 0 93 46 128 57 9 3 17 9 17 14
0 5 -304 9 -707 8 -608 -1 -697 -3 -627 -14 162 -25 226 -45 266 -84 51 -51
62 -100 55 -246 -9 -175 -42 -280 -131 -413 -89 -134 -289 -305 -355 -305 -69
0 -280 178 -365 307 -84 127 -126 267 -126 423 0 231 45 277 313 318 74 12 46
13 -305 14 l-388 1 0 -600z"/>
<path d="M460 910 c0 -136 21 -243 65 -330 36 -71 97 -155 153 -209 l35 -34
14 44 c15 51 50 94 90 112 25 11 15 12 -84 15 -62 1 -113 6 -113 11 0 4 45 88
101 187 56 98 106 190 111 204 9 24 10 24 20 5 17 -31 198 -326 225 -365 12
-19 23 -30 23 -25 0 6 15 10 33 10 19 -1 31 -6 30 -13 -11 -50 50 59 77 138
17 50 23 98 27 206 l6 141 -189 6 c-104 4 -287 7 -406 7 l-218 0 0 -110z"/>
<path d="M783 692 l-59 -107 119 -3 c66 -1 122 -1 124 1 2 3 -25 52 -60 110
l-65 106 -59 -107z"/>
</g>
</svg>
