<svg width="50" height="26" viewBox="0 0 50 26" fill="none" xmlns="http://www.w3.org/2000/svg">
<path d="M6.61796 2.064C8.37796 2.064 9.92196 2.408 11.25 3.096C12.594 3.784 13.626 4.768 14.346 6.048C15.082 7.312 15.45 8.784 15.45 10.464C15.45 12.144 15.082 13.616 14.346 14.88C13.626 16.128 12.594 17.096 11.25 17.784C9.92196 18.472 8.37796 18.816 6.61796 18.816H0.761963V2.064H6.61796ZM6.49796 15.96C8.25796 15.96 9.61796 15.48 10.578 14.52C11.538 13.56 12.018 12.208 12.018 10.464C12.018 8.72 11.538 7.36 10.578 6.384C9.61796 5.392 8.25796 4.896 6.49796 4.896H4.12196V15.96H6.49796Z" fill="#1D2939"/>
<path d="M20.8691 3.936C20.2771 3.936 19.7811 3.752 19.3811 3.384C18.9971 3 18.8051 2.528 18.8051 1.968C18.8051 1.408 18.9971 0.944 19.3811 0.576C19.7811 0.192 20.2771 0 20.8691 0C21.4611 0 21.9491 0.192 22.3331 0.576C22.7331 0.944 22.9331 1.408 22.9331 1.968C22.9331 2.528 22.7331 3 22.3331 3.384C21.9491 3.752 21.4611 3.936 20.8691 3.936ZM22.5251 5.52V18.816H19.1651V5.52H22.5251Z" fill="#1D2939"/>
<path d="M33.1408 8.28H30.8128V18.816H27.4048V8.28H25.8928V5.52H27.4048V4.848C27.4048 3.216 27.8688 2.016 28.7968 1.248C29.7248 0.48 31.1248 0.12 32.9968 0.168001V3C32.1808 2.984 31.6128 3.12 31.2928 3.408C30.9728 3.696 30.8128 4.216 30.8128 4.968V5.52H33.1408V8.28Z" fill="#1D2939"/>
<path d="M49.2382 5.52L41.0062 25.104H37.4302L40.3102 18.48L34.9822 5.52H38.7502L42.1822 14.808L45.6622 5.52H49.2382Z" fill="#1D2939"/>
</svg>
