<svg width="24" height="17" viewBox="0 0 24 17" fill="none" xmlns="http://www.w3.org/2000/svg">
<g clip-path="url(#clip0_660_2015)">
<path d="M9.98736 1.91633C10.7614 1.10782 11.839 0.60636 13.0308 0.60636C14.6151 0.60636 15.9973 1.49199 16.7334 2.80672C17.373 2.52021 18.0811 2.36082 18.826 2.36082C21.6834 2.36082 24 4.70345 24 7.59305C24 10.483 21.6834 12.8256 18.826 12.8256C18.4837 12.8258 18.1423 12.7917 17.8068 12.7238C17.1587 13.8829 15.9234 14.6661 14.5057 14.6661C13.9121 14.6661 13.3508 14.5287 12.851 14.2843C12.1939 15.8338 10.6629 16.9203 8.87863 16.9203C7.02052 16.9203 5.43692 15.7416 4.82907 14.0886C4.56344 14.1451 4.28822 14.1746 4.00581 14.1746C1.79351 14.1746 0 12.3581 0 10.117C0 8.61511 0.805814 7.30378 2.00308 6.6022C1.75659 6.03362 1.61948 5.40606 1.61948 4.74627C1.61948 2.1689 3.70667 0.0795898 6.28103 0.0795898C7.79248 0.0795898 9.13574 0.800021 9.98736 1.91633Z" fill="#00A1E0"/>
<path d="M3.47612 8.81302C3.46109 8.85245 3.4816 8.86068 3.48638 8.86752C3.5315 8.90042 3.57734 8.9241 3.62349 8.95047C3.86827 9.08069 4.0994 9.11872 4.34111 9.11872C4.83341 9.11872 5.13904 8.8562 5.13904 8.4336V8.42539C5.13904 8.03464 4.79411 7.89276 4.47033 7.79028L4.42829 7.77658C4.18418 7.69705 3.97359 7.62854 3.97359 7.46744V7.45889C3.97359 7.3211 4.09666 7.21963 4.28744 7.21963C4.4994 7.21963 4.75103 7.29025 4.91307 7.38003C4.91307 7.38003 4.96059 7.41089 4.97803 7.36462C4.9876 7.33993 5.06966 7.11853 5.07821 7.09454C5.08744 7.06848 5.07103 7.04929 5.05429 7.039C4.86933 6.92624 4.61359 6.84912 4.34899 6.84912L4.29976 6.84946C3.84917 6.84946 3.53465 7.12228 3.53465 7.51334V7.52158C3.53465 7.93388 3.88165 8.06754 4.20679 8.16077L4.25909 8.17688C4.49602 8.24988 4.70012 8.3126 4.70012 8.47986V8.4881C4.70012 8.64096 4.56749 8.75474 4.35346 8.75474C4.27038 8.75474 4.00542 8.75303 3.71927 8.5717C3.68473 8.55147 3.66457 8.53675 3.6379 8.52064C3.6239 8.51173 3.58868 8.49629 3.5733 8.54292L3.47612 8.81302ZM10.6833 8.81302C10.6682 8.85245 10.6888 8.86068 10.6935 8.86752C10.7387 8.90042 10.7845 8.9241 10.8306 8.95047C11.0754 9.08069 11.3066 9.11872 11.5482 9.11872C12.0405 9.11872 12.3462 8.8562 12.3462 8.4336V8.42539C12.3462 8.03464 12.0012 7.89276 11.6775 7.79028L11.6354 7.77658C11.3913 7.69705 11.1807 7.62854 11.1807 7.46744V7.45889C11.1807 7.3211 11.3038 7.21963 11.4946 7.21963C11.7065 7.21963 11.9581 7.29025 12.1202 7.38003C12.1202 7.38003 12.1677 7.41089 12.1851 7.36462C12.1947 7.33993 12.2768 7.11853 12.2853 7.09454C12.2946 7.06848 12.2781 7.04929 12.2614 7.039C12.0764 6.92624 11.8207 6.84912 11.5561 6.84912L11.5069 6.84946C11.0563 6.84946 10.7417 7.12228 10.7417 7.51334V7.52158C10.7417 7.93388 11.0887 8.06754 11.4139 8.16077L11.4662 8.17688C11.7031 8.24988 11.9076 8.3126 11.9076 8.47986V8.4881C11.9076 8.64096 11.7746 8.75474 11.5605 8.75474C11.4775 8.75474 11.2125 8.75303 10.9264 8.5717C10.8918 8.55147 10.8713 8.53743 10.8454 8.52064C10.8365 8.51481 10.7948 8.4987 10.7804 8.54292L10.6833 8.81302ZM15.6034 7.98525C15.6034 8.22414 15.559 8.41228 15.4715 8.54528C15.385 8.6769 15.254 8.74099 15.0715 8.74099C14.8886 8.74099 14.7583 8.67724 14.6732 8.54528C14.587 8.41265 14.5433 8.22414 14.5433 7.98525C14.5433 7.74672 14.587 7.55888 14.6732 7.42726C14.7583 7.29704 14.8886 7.23363 15.0715 7.23363C15.254 7.23363 15.385 7.29704 15.4718 7.42726C15.559 7.55886 15.6034 7.74669 15.6034 7.98525ZM16.0144 7.54243C15.974 7.40566 15.9111 7.28502 15.8274 7.18461C15.7436 7.08385 15.6376 7.00297 15.5118 6.94401C15.3863 6.88542 15.238 6.8556 15.0715 6.8556C14.9046 6.8556 14.7563 6.88542 14.6308 6.94401C14.505 7.00297 14.399 7.08387 14.3149 7.18461C14.2315 7.28538 14.1686 7.40602 14.1279 7.54243C14.0879 7.67849 14.0677 7.82723 14.0677 7.98525C14.0677 8.14326 14.0879 8.29235 14.1279 8.42806C14.1686 8.56447 14.2312 8.68513 14.3153 8.78588C14.399 8.88665 14.5053 8.96718 14.6308 9.02441C14.7566 9.08166 14.9046 9.11077 15.0715 9.11077C15.238 9.11077 15.386 9.08166 15.5118 9.02441C15.6373 8.96718 15.7436 8.88662 15.8274 8.78588C15.9112 8.68545 15.974 8.56481 16.0144 8.42806C16.0548 8.29201 16.0749 8.1429 16.0749 7.98525C16.0749 7.82759 16.0547 7.67849 16.0144 7.54243ZM19.389 8.67719C19.3753 8.63709 19.3367 8.65216 19.3367 8.65216C19.2768 8.67514 19.2132 8.69638 19.1456 8.707C19.0768 8.7176 19.0013 8.72312 18.9202 8.72312C18.7213 8.72312 18.5633 8.66382 18.4502 8.5466C18.3367 8.42938 18.2731 8.23987 18.2737 7.98349C18.2744 7.75009 18.3305 7.57459 18.4314 7.44094C18.5315 7.30797 18.684 7.23974 18.8874 7.23974C19.057 7.23974 19.1862 7.25928 19.3216 7.30212C19.3216 7.30212 19.3541 7.31616 19.3695 7.27368C19.4053 7.17358 19.432 7.10196 19.4703 6.99194C19.4813 6.96075 19.4546 6.94738 19.445 6.9436C19.3917 6.9227 19.2659 6.88879 19.1708 6.87439C19.0819 6.86068 18.978 6.85348 18.8625 6.85348C18.6898 6.85348 18.5359 6.88296 18.4043 6.94192C18.273 7.00052 18.1616 7.08139 18.0734 7.18218C17.9852 7.28295 17.9182 7.40356 17.8734 7.53998C17.829 7.67603 17.8064 7.82547 17.8064 7.98349C17.8064 8.3252 17.8984 8.60142 18.0799 8.80365C18.2618 9.00656 18.535 9.10972 18.8912 9.10972C19.1018 9.10972 19.3179 9.06689 19.4731 9.00553C19.4731 9.00553 19.5028 8.99112 19.4898 8.95654L19.389 8.67719ZM20.108 7.7564C20.1275 7.62377 20.1641 7.51339 20.2205 7.42738C20.3056 7.2968 20.4355 7.22517 20.6181 7.22517C20.8007 7.22517 20.9213 7.29714 21.0078 7.42738C21.0653 7.51339 21.0902 7.62858 21.1001 7.7564H20.108ZM21.4916 7.46471C21.4567 7.33276 21.3702 7.19943 21.3135 7.13842C21.2239 7.04177 21.1364 6.97426 21.0495 6.93655C20.936 6.88787 20.7999 6.85567 20.6509 6.85567C20.4772 6.85567 20.3196 6.88481 20.1918 6.94512C20.0636 7.00545 19.9559 7.08772 19.8714 7.1902C19.7869 7.29232 19.7234 7.41399 19.683 7.55212C19.6423 7.68957 19.6218 7.83934 19.6218 7.99731C19.6218 8.15808 19.643 8.30785 19.6851 8.44253C19.7275 8.57827 19.7952 8.69788 19.8868 8.79691C19.9781 8.89667 20.0957 8.97482 20.2365 9.02927C20.3764 9.08344 20.5463 9.11155 20.7415 9.11118C21.1432 9.10981 21.3548 9.02003 21.442 8.97169C21.4574 8.96314 21.4721 8.94806 21.4536 8.90488L21.3627 8.64951C21.349 8.61149 21.3104 8.62553 21.3104 8.62553C21.2109 8.66254 21.0694 8.72904 20.7394 8.72837C20.5237 8.72803 20.3637 8.66428 20.2635 8.56452C20.1606 8.4624 20.1104 8.31226 20.1015 8.10047L21.4926 8.10184C21.4926 8.10184 21.5291 8.10116 21.5329 8.0655C21.5343 8.05047 21.5808 7.77901 21.4916 7.46471ZM8.9672 7.7564C8.98702 7.62377 9.02327 7.51339 9.07968 7.42738C9.1648 7.2968 9.29472 7.22517 9.47728 7.22517C9.65984 7.22517 9.78053 7.29714 9.86735 7.42738C9.92444 7.51339 9.9494 7.62858 9.95932 7.7564H8.9672ZM10.3504 7.46471C10.3156 7.33276 10.2294 7.19943 10.1727 7.13842C10.0831 7.04177 9.99557 6.97426 9.90875 6.93655C9.79524 6.88787 9.65919 6.85567 9.51012 6.85567C9.33678 6.85567 9.17883 6.88481 9.05097 6.94512C8.92278 7.00545 8.81508 7.08772 8.73063 7.1902C8.64619 7.29232 8.5826 7.41399 8.54226 7.55212C8.50193 7.68957 8.48107 7.83934 8.48107 7.99731C8.48107 8.15808 8.50226 8.30785 8.54433 8.44253C8.58673 8.57827 8.65443 8.69788 8.74603 8.79691C8.83733 8.89667 8.95492 8.97482 9.09578 9.02927C9.23562 9.08344 9.40552 9.11155 9.60074 9.11118C10.0024 9.10981 10.2141 9.02003 10.3013 8.97169C10.3167 8.96314 10.3313 8.94806 10.3129 8.90488L10.2223 8.64951C10.2083 8.61149 10.1696 8.62553 10.1696 8.62553C10.0702 8.66254 9.92895 8.72904 9.59836 8.72837C9.38298 8.72803 9.22298 8.66428 9.1228 8.56452C9.01988 8.4624 8.96965 8.31226 8.96074 8.10047L10.3518 8.10184C10.3518 8.10184 10.3884 8.10116 10.3922 8.0655C10.3935 8.05047 10.44 7.77901 10.3504 7.46471ZM5.96033 8.66955C5.90596 8.62601 5.89844 8.61505 5.87999 8.58694C5.85263 8.5441 5.83862 8.48309 5.83862 8.40564C5.83862 8.28293 5.87896 8.19485 5.96273 8.13556C5.96172 8.13592 6.08239 8.03103 6.36614 8.03479C6.56545 8.03753 6.74356 8.06701 6.74356 8.06701V8.70108H6.7439C6.7439 8.70108 6.56715 8.73911 6.36818 8.7511C6.08511 8.76825 5.9593 8.66922 5.96033 8.66955ZM6.51382 7.68966C6.45741 7.68554 6.38423 7.68313 6.29671 7.68313C6.17741 7.68313 6.06219 7.69821 5.95415 7.72735C5.84545 7.75647 5.74767 7.80209 5.66356 7.86237C5.57958 7.92246 5.51056 8.00116 5.46185 8.09235C5.41263 8.18421 5.38767 8.29251 5.38767 8.41385C5.38767 8.53723 5.40886 8.6445 5.45126 8.73227C5.49366 8.82034 5.55485 8.89368 5.63278 8.95025C5.71005 9.0068 5.80545 9.04825 5.9162 9.07328C6.02527 9.0983 6.14901 9.11097 6.28441 9.11097C6.42697 9.11097 6.56919 9.09934 6.70697 9.07566C6.84338 9.05235 7.0109 9.01841 7.05739 9.00782C7.08998 8.99994 7.12247 8.9916 7.15483 8.98279C7.18937 8.97424 7.18663 8.9372 7.18663 8.9372L7.18594 7.66189C7.18594 7.3822 7.11142 7.17484 6.96475 7.04632C6.81875 6.91815 6.60372 6.85334 6.32578 6.85334C6.22149 6.85334 6.05364 6.86776 5.95312 6.88797C5.95312 6.88797 5.64919 6.94693 5.52405 7.04495C5.52405 7.04495 5.49671 7.0621 5.51175 7.10049L5.61023 7.36578C5.62253 7.40005 5.6557 7.38839 5.6557 7.38839C5.6557 7.38839 5.6663 7.38427 5.67862 7.37707C5.94632 7.23107 6.28477 7.23553 6.28477 7.23553C6.43521 7.23553 6.55077 7.26568 6.6287 7.32565C6.70459 7.38391 6.74322 7.47199 6.74322 7.65775V7.71671C6.62356 7.69958 6.51382 7.68966 6.51382 7.68966ZM17.7337 6.97108C17.7443 6.93953 17.7221 6.92446 17.7129 6.92104C17.6893 6.91179 17.571 6.88677 17.4797 6.88094C17.305 6.87032 17.2079 6.89979 17.1211 6.93886C17.0349 6.97792 16.9392 7.04098 16.8859 7.11263V6.94298C16.8859 6.91933 16.8691 6.90047 16.8459 6.90047H16.4893C16.466 6.90047 16.4493 6.9193 16.4493 6.94298V9.02304C16.4493 9.04635 16.4684 9.06555 16.4917 9.06555H16.8571C16.8683 9.06548 16.879 9.06097 16.8869 9.053C16.8948 9.04503 16.8992 9.03426 16.8992 9.02304V7.98387C16.8992 7.84438 16.9146 7.70524 16.9454 7.61784C16.9754 7.53145 17.0165 7.46223 17.0671 7.41252C17.118 7.36318 17.1758 7.32857 17.239 7.30903C17.3036 7.28914 17.3751 7.28264 17.4257 7.28264C17.4985 7.28264 17.5785 7.30147 17.5785 7.30147C17.6052 7.30455 17.6202 7.2881 17.6291 7.26378C17.653 7.20003 17.7207 7.00911 17.7337 6.97108Z" fill="white"/>
<path d="M14.3032 6.00677C14.2588 5.99307 14.2184 5.9838 14.1658 5.97387C14.1124 5.96429 14.0489 5.95947 13.9767 5.95947C13.7251 5.95947 13.5268 6.03076 13.3877 6.17127C13.2492 6.31113 13.1552 6.52396 13.108 6.80399L13.0909 6.89823H12.775C12.775 6.89823 12.7367 6.89685 12.7285 6.93869L12.6769 7.22898C12.6731 7.25641 12.6851 7.27387 12.722 7.27387H13.0294L12.7176 9.01909C12.6933 9.15962 12.6652 9.27513 12.6341 9.36284C12.6037 9.44923 12.574 9.51399 12.537 9.56129C12.5015 9.60655 12.468 9.64012 12.4098 9.65965C12.362 9.67577 12.3066 9.6833 12.2461 9.6833C12.2126 9.6833 12.1678 9.67779 12.1346 9.67095C12.1018 9.66442 12.0844 9.65725 12.0594 9.6466C12.0594 9.6466 12.0235 9.63292 12.0092 9.6689C11.9979 9.69872 11.9158 9.92456 11.9059 9.95235C11.8964 9.98009 11.91 10.0017 11.9274 10.0082C11.9685 10.0226 11.9989 10.0322 12.0546 10.0456C12.1319 10.0637 12.1972 10.0648 12.2584 10.0648C12.3862 10.0648 12.5032 10.0466 12.5999 10.0116C12.697 9.97634 12.7818 9.91497 12.857 9.83205C12.938 9.74224 12.989 9.64833 13.0375 9.51982C13.0857 9.39299 13.1271 9.23534 13.1599 9.05165L13.4734 7.27387H13.9315C13.9315 7.27387 13.9702 7.27524 13.9781 7.23309L14.03 6.94314C14.0334 6.9154 14.0218 6.89825 13.9845 6.89825H13.5397C13.5421 6.88833 13.5623 6.73132 13.6133 6.58364C13.6351 6.52092 13.6761 6.46984 13.7107 6.43487C13.7449 6.4006 13.7842 6.37627 13.8273 6.36221C13.8714 6.34781 13.9217 6.34097 13.9767 6.34097C14.0184 6.34097 14.0598 6.34576 14.0909 6.35226C14.1339 6.36153 14.1507 6.36633 14.162 6.36977C14.2075 6.38348 14.2136 6.37011 14.2225 6.34819L14.3289 6.0555C14.3398 6.0239 14.3128 6.01053 14.3032 6.00677ZM8.08869 9.02287C8.08869 9.04618 8.07194 9.06504 8.04869 9.06504H7.6798C7.65655 9.06504 7.64014 9.04618 7.64014 9.02287V6.04654C7.64014 6.02325 7.65655 6.00439 7.6798 6.00439H8.04869C8.07194 6.00439 8.08869 6.02325 8.08869 6.04654V9.02287Z" fill="white"/>
</g>
<defs>
<clipPath id="clip0_660_2015">
<rect width="24" height="16.8421" fill="white" transform="translate(0 0.0791016)"/>
</clipPath>
</defs>
</svg>
