<svg width="16" height="17" viewBox="0 0 16 17" fill="none" xmlns="http://www.w3.org/2000/svg">
<path d="M5.03168 15.0003C11.0694 15.0003 14.3718 9.9981 14.3718 5.66018C14.3718 5.5181 14.3718 5.37666 14.3622 5.23586C15.0047 4.77117 15.5593 4.19579 16 3.53666C15.4009 3.80227 14.7654 3.97637 14.1146 4.05314C14.7999 3.64294 15.3128 2.99767 15.5578 2.23746C14.9134 2.61987 14.2084 2.88935 13.4733 3.03426C12.9783 2.50798 12.3237 2.15949 11.6108 2.04272C10.8978 1.92595 10.1663 2.04741 9.52931 2.3883C8.89234 2.72919 8.38548 3.27051 8.08716 3.9285C7.78884 4.58648 7.71569 5.32444 7.87904 6.02818C6.57393 5.96272 5.29717 5.62354 4.13164 5.03267C2.9661 4.4418 1.93784 3.61244 1.1136 2.59842C0.693819 3.32109 0.565248 4.17658 0.754066 4.99071C0.942885 5.80484 1.43489 6.51639 2.12992 6.9805C1.60749 6.9652 1.09643 6.82426 0.64 6.56962V6.61122C0.640207 7.36912 0.902567 8.10362 1.38258 8.69014C1.86259 9.27665 2.53071 9.67907 3.2736 9.82914C2.79032 9.96097 2.28325 9.98024 1.79136 9.88546C2.00121 10.5377 2.40962 11.108 2.95949 11.5168C3.50937 11.9255 4.17322 12.1522 4.85824 12.1651C4.17763 12.7001 3.39821 13.0957 2.56458 13.3291C1.73096 13.5626 0.859476 13.6294 0 13.5258C1.50122 14.4891 3.24795 15.0001 5.03168 14.9978" fill="#1DA1F2"/>
</svg>
