<svg width="16" height="16" viewBox="0 0 16 16" fill="none" xmlns="http://www.w3.org/2000/svg">
    <path d="M10.6665 2.66634H11.9998C12.3535 2.66634 12.6926 2.80682 12.9426 3.05687C13.1927 3.30691 13.3332 3.64605 13.3332 3.99967V13.333C13.3332 13.6866 13.1927 14.0258 12.9426 14.2758C12.6926 14.5259 12.3535 14.6663 11.9998 14.6663H3.99984C3.64622 14.6663 3.30708 14.5259 3.05703 14.2758C2.80698 14.0258 2.6665 13.6866 2.6665 13.333V3.99967C2.6665 3.64605 2.80698 3.30691 3.05703 3.05687C3.30708 2.80682 3.64622 2.66634 3.99984 2.66634H5.33317M5.99984 1.33301H9.99984C10.368 1.33301 10.6665 1.63148 10.6665 1.99967V3.33301C10.6665 3.7012 10.368 3.99967 9.99984 3.99967H5.99984C5.63165 3.99967 5.33317 3.7012 5.33317 3.33301V1.99967C5.33317 1.63148 5.63165 1.33301 5.99984 1.33301Z" stroke="#1D2939" stroke-width="1.5" stroke-linecap="round" stroke-linejoin="round"/>
</svg>
