<svg width="16" height="18" viewBox="0 0 16 18" fill="none" xmlns="http://www.w3.org/2000/svg">
<g filter="url(#filter0_d_3434_2726)">
<path d="M2.75 4.38325C2.75 3.40316 2.75 2.91311 2.94074 2.53877C3.10852 2.20948 3.37623 1.94177 3.70552 1.77399C4.07986 1.58325 4.56991 1.58325 5.55 1.58325H9.16667L13.25 5.66659V11.6166C13.25 12.5967 13.25 13.0867 13.0593 13.4611C12.8915 13.7904 12.6238 14.0581 12.2945 14.2258C11.9201 14.4166 11.4301 14.4166 10.45 14.4166H5.55C4.56991 14.4166 4.07986 14.4166 3.70552 14.2258C3.37623 14.0581 3.10852 13.7904 2.94074 13.4611C2.75 13.0867 2.75 12.5967 2.75 11.6166V4.38325Z" fill="#2D2D2E"/>
</g>
<g opacity="0.96">
<path d="M5.3045 10.6461V9.00806H4.692V10.6321C4.692 10.8701 4.5555 10.9751 4.3665 10.9751C4.23 10.9751 4.167 10.9261 4.09 10.8491L3.6875 11.2481C3.8905 11.4511 4.076 11.5211 4.3665 11.5211C4.8355 11.5211 5.3045 11.2376 5.3045 10.6461Z" fill="white"/>
<path d="M7.44519 10.7371C7.44519 10.5061 7.39269 10.3206 7.25969 10.1911C7.15469 10.0861 6.99369 10.0161 6.76969 9.98456L6.46869 9.94256C6.38119 9.93206 6.32869 9.90056 6.29719 9.86906C6.25869 9.83056 6.24819 9.78506 6.24819 9.75356C6.24819 9.64506 6.33569 9.52256 6.54919 9.52256C6.65769 9.52256 6.86419 9.51206 7.02169 9.66956L7.40669 9.28456C7.19319 9.07106 6.92369 8.98706 6.56669 8.98706C5.99969 8.98706 5.65669 9.31956 5.65669 9.77456C5.65669 9.98806 5.71269 10.1561 5.82819 10.2751C5.94019 10.3906 6.10819 10.4641 6.32869 10.4956L6.62969 10.5376C6.71019 10.5481 6.76269 10.5726 6.79419 10.6041C6.82919 10.6426 6.84319 10.6916 6.84319 10.7511C6.84319 10.8946 6.72769 10.9751 6.48619 10.9751C6.28669 10.9751 6.05919 10.9296 5.92969 10.8001L5.53769 11.1921C5.78969 11.4511 6.10119 11.5211 6.48269 11.5211C7.00769 11.5211 7.44519 11.2446 7.44519 10.7371Z" fill="white"/>
<path d="M9.66339 10.2541C9.66339 9.87956 9.67389 9.52956 9.41139 9.26706C9.22939 9.08506 9.01939 8.98706 8.71489 8.98706C8.41039 8.98706 8.20039 9.08506 8.01839 9.26706C7.75589 9.52956 7.76639 9.87956 7.76639 10.2541C7.76639 10.6286 7.75589 10.9786 8.01839 11.2411C8.20039 11.4231 8.41039 11.5211 8.71489 11.5211C9.01939 11.5211 9.22939 11.4231 9.41139 11.2411C9.67389 10.9786 9.66339 10.6286 9.66339 10.2541ZM9.05089 10.2541C9.05089 10.7091 9.01589 10.7896 8.95989 10.8631C8.91439 10.9226 8.82689 10.9751 8.71489 10.9751C8.60289 10.9751 8.51539 10.9226 8.46989 10.8631C8.41389 10.7896 8.37889 10.7091 8.37889 10.2541C8.37889 9.79906 8.41389 9.71506 8.46989 9.64156C8.51539 9.58206 8.60289 9.53306 8.71489 9.53306C8.82689 9.53306 8.91439 9.58206 8.95989 9.64156C9.01589 9.71506 9.05089 9.79906 9.05089 10.2541Z" fill="white"/>
<path d="M12.0317 11.5001V9.00806H11.4192V10.2611L10.6212 9.00806H10.0857V11.5001H10.6982V10.2471L11.4962 11.5001H12.0317Z" fill="white"/>
</g>
<path opacity="0.5" d="M9.1665 1.58325L13.2498 5.66658H10.3332C9.68884 5.66658 9.1665 5.14425 9.1665 4.49992V1.58325Z" fill="white"/>
<defs>
<filter id="filter0_d_3434_2726" x="0.75" y="0.583252" width="14.5" height="16.8333" filterUnits="userSpaceOnUse" color-interpolation-filters="sRGB">
<feFlood flood-opacity="0" result="BackgroundImageFix"/>
<feColorMatrix in="SourceAlpha" type="matrix" values="0 0 0 0 0 0 0 0 0 0 0 0 0 0 0 0 0 0 127 0" result="hardAlpha"/>
<feOffset dy="1"/>
<feGaussianBlur stdDeviation="1"/>
<feColorMatrix type="matrix" values="0 0 0 0 0.0627451 0 0 0 0 0.0941176 0 0 0 0 0.156863 0 0 0 0.05 0"/>
<feBlend mode="normal" in2="BackgroundImageFix" result="effect1_dropShadow_3434_2726"/>
<feBlend mode="normal" in="SourceGraphic" in2="effect1_dropShadow_3434_2726" result="shape"/>
</filter>
</defs>
</svg>
