<svg width="16" height="16" viewBox="0 0 16 16" fill="none" xmlns="http://www.w3.org/2000/svg">
  <path d="M4.33333 4.33333H4.34M11.6667 4.33333H11.6733M4.33333 11.6667H4.34M8.66667 8.66667H8.67333M11.6667 11.6667H11.6733M11.3333 14H14V11.3333M9.33333 11V14M14 9.33333H11M10.4 6.66667H12.9333C13.3067 6.66667 13.4934 6.66667 13.636 6.594C13.7614 6.53009 13.8634 6.4281 13.9273 6.30266C14 6.16005 14 5.97337 14 5.6V3.06667C14 2.6933 14 2.50661 13.9273 2.36401C13.8634 2.23856 13.7614 2.13658 13.636 2.07266C13.4934 2 13.3067 2 12.9333 2H10.4C10.0266 2 9.83995 2 9.69734 2.07266C9.5719 2.13658 9.46991 2.23856 9.406 2.36401C9.33333 2.50661 9.33333 2.6933 9.33333 3.06667V5.6C9.33333 5.97337 9.33333 6.16005 9.406 6.30266C9.46991 6.4281 9.5719 6.53009 9.69734 6.594C9.83995 6.66667 10.0266 6.66667 10.4 6.66667ZM3.06667 6.66667H5.6C5.97337 6.66667 6.16005 6.66667 6.30266 6.594C6.4281 6.53009 6.53009 6.4281 6.594 6.30266C6.66667 6.16005 6.66667 5.97337 6.66667 5.6V3.06667C6.66667 2.6933 6.66667 2.50661 6.594 2.36401C6.53009 2.23856 6.4281 2.13658 6.30266 2.07266C6.16005 2 5.97337 2 5.6 2H3.06667C2.6933 2 2.50661 2 2.36401 2.07266C2.23856 2.13658 2.13658 2.23856 2.07266 2.36401C2 2.50661 2 2.6933 2 3.06667V5.6C2 5.97337 2 6.16005 2.07266 6.30266C2.13658 6.4281 2.23856 6.53009 2.36401 6.594C2.50661 6.66667 2.6933 6.66667 3.06667 6.66667ZM3.06667 14H5.6C5.97337 14 6.16005 14 6.30266 13.9273C6.4281 13.8634 6.53009 13.7614 6.594 13.636C6.66667 13.4934 6.66667 13.3067 6.66667 12.9333V10.4C6.66667 10.0266 6.66667 9.83995 6.594 9.69734C6.53009 9.5719 6.4281 9.46991 6.30266 9.406C6.16005 9.33333 5.97337 9.33333 5.6 9.33333H3.06667C2.6933 9.33333 2.50661 9.33333 2.36401 9.406C2.23856 9.46991 2.13658 9.5719 2.07266 9.69734C2 9.83995 2 10.0266 2 10.4V12.9333C2 13.3067 2 13.4934 2.07266 13.636C2.13658 13.7614 2.23856 13.8634 2.36401 13.9273C2.50661 14 2.6933 14 3.06667 14Z" stroke="#667085" stroke-width="1.5" stroke-linecap="round" stroke-linejoin="round"/>
  </svg>
  