<svg width="16" height="16" viewBox="0 0 16 16" fill="none" xmlns="http://www.w3.org/2000/svg">
<path fill-rule="evenodd" clip-rule="evenodd" d="M8.66659 9.98845C10.1231 9.93732 11.4455 9.71981 12.461 9.38077C13.0418 9.18687 13.5593 8.94109 13.9452 8.6353C14.3245 8.33478 14.6666 7.89967 14.6666 7.33341V3.33341C14.6666 2.76545 14.3207 2.33047 13.9411 2.03132C13.5539 1.72624 13.0351 1.48065 12.4534 1.28675C11.283 0.896612 9.70849 0.666748 7.99992 0.666748C6.29135 0.666748 4.71686 0.896612 3.54646 1.28675C2.96474 1.48065 2.44589 1.72624 2.05878 2.03132C1.67918 2.33047 1.33325 2.76545 1.33325 3.33341V7.33341C1.33325 7.89967 1.67538 8.33478 2.05463 8.6353C2.44053 8.94109 2.958 9.18687 3.53881 9.38077C4.55435 9.71981 5.87675 9.93732 7.33325 9.98845V11.4472C6.76498 11.6481 6.31458 12.0985 6.11372 12.6667H1.99992C1.63173 12.6667 1.33325 12.9652 1.33325 13.3334C1.33325 13.7016 1.63173 14.0001 1.99992 14.0001H6.11372C6.38828 14.7769 7.12911 15.3334 7.99992 15.3334C8.87073 15.3334 9.61156 14.7769 9.88612 14.0001H13.9999C14.3681 14.0001 14.6666 13.7016 14.6666 13.3334C14.6666 12.9652 14.3681 12.6667 13.9999 12.6667H9.88612C9.68526 12.0985 9.23486 11.6481 8.66659 11.4472V9.98845ZM2.66659 3.33337C2.66659 3.33337 2.66657 3.32994 2.66862 3.32322C2.67089 3.31579 2.67647 3.30111 2.68997 3.27913C2.71827 3.23303 2.77597 3.16373 2.88408 3.07853C3.1042 2.90506 3.46403 2.71968 3.9681 2.55166C4.96927 2.21793 6.39478 2.00008 7.99992 2.00008C9.60506 2.00008 11.0306 2.21793 12.0317 2.55166C12.5358 2.71968 12.8956 2.90506 13.1158 3.07853C13.2239 3.16373 13.2816 3.23303 13.3099 3.27913C13.3234 3.30111 13.329 3.31579 13.3312 3.32322C13.3333 3.32994 13.3333 3.33337 13.3333 3.33337C13.3333 3.33337 13.3332 3.33722 13.3312 3.34361C13.329 3.35104 13.3234 3.36572 13.3099 3.3877C13.2816 3.4338 13.2239 3.5031 13.1158 3.5883C12.8956 3.76177 12.5358 3.94715 12.0317 4.11517C11.0306 4.4489 9.60506 4.66675 7.99992 4.66675C6.39478 4.66675 4.96927 4.4489 3.9681 4.11517C3.46403 3.94715 3.1042 3.76177 2.88408 3.5883C2.77597 3.5031 2.71827 3.4338 2.68997 3.3877C2.67647 3.36572 2.67089 3.35104 2.66862 3.34361C2.6667 3.33731 2.66659 3.33337 2.66659 3.33337Z" fill="#155EEF"/>
</svg>
