<svg width="12" height="12" viewBox="0 0 12 12" fill="none" xmlns="http://www.w3.org/2000/svg">
<g id="terminal-square">
<path id="Solid" fill-rule="evenodd" clip-rule="evenodd" d="M8.91927 1H3.08073C2.81716 0.999992 2.58977 0.999984 2.40249 1.01529C2.20481 1.03144 2.00821 1.06709 1.81902 1.16349C1.53677 1.3073 1.3073 1.53677 1.16349 1.81902C1.06709 2.00821 1.03144 2.20481 1.01529 2.40249C0.999984 2.58977 0.999992 2.81714 1 3.08071V8.91927C0.999992 9.18284 0.999984 9.41023 1.01529 9.59752C1.03144 9.79519 1.06709 9.9918 1.16349 10.181C1.3073 10.4632 1.53677 10.6927 1.81902 10.8365C2.00821 10.9329 2.20481 10.9686 2.40249 10.9847C2.58977 11 2.81715 11 3.08072 11H8.91928C9.18285 11 9.41023 11 9.59752 10.9847C9.79519 10.9686 9.9918 10.9329 10.181 10.8365C10.4632 10.6927 10.6927 10.4632 10.8365 10.181C10.9329 9.9918 10.9686 9.79519 10.9847 9.59752C11 9.41023 11 9.18285 11 8.91928V3.08072C11 2.81715 11 2.58977 10.9847 2.40249C10.9686 2.20481 10.9329 2.00821 10.8365 1.81902C10.6927 1.53677 10.4632 1.3073 10.181 1.16349C9.9918 1.06709 9.79519 1.03144 9.59752 1.01529C9.41023 0.999984 9.18284 0.999992 8.91927 1ZM3.85355 4.14645C3.65829 3.95118 3.34171 3.95118 3.14645 4.14645C2.95118 4.34171 2.95118 4.65829 3.14645 4.85355L4.29289 6L3.14645 7.14645C2.95118 7.34171 2.95118 7.65829 3.14645 7.85355C3.34171 8.04882 3.65829 8.04882 3.85355 7.85355L5.35355 6.35355C5.54882 6.15829 5.54882 5.84171 5.35355 5.64645L3.85355 4.14645ZM6.5 7C6.22386 7 6 7.22386 6 7.5C6 7.77614 6.22386 8 6.5 8H8.5C8.77614 8 9 7.77614 9 7.5C9 7.22386 8.77614 7 8.5 7H6.5Z" fill="#B54708"/>
</g>
</svg>
