<?xml version="1.0" standalone="no"?><!DOCTYPE svg PUBLIC "-//W3C//DTD SVG 1.1//EN" "http://www.w3.org/Graphics/SVG/1.1/DTD/svg11.dtd"><svg t="1711946937387" class="icon" viewBox="0 0 1024 1024" version="1.1" xmlns="http://www.w3.org/2000/svg" p-id="5208" xmlns:xlink="http://www.w3.org/1999/xlink" width="200" height="200"><path d="M262.339048 243.809524h326.070857s91.672381 84.504381 91.672381 200.655238l-152.81981 105.569524S445.781333 359.960381 262.339048 243.809524z" fill="#00DAB8" p-id="5209"></path><path d="M853.333333 423.350857s-112.103619-42.276571-183.393523-10.581333c-71.338667 31.695238-101.912381 73.923048-132.486096 105.618286-40.71619 42.22781-112.054857 116.150857-173.202285 73.923047-61.147429-42.276571 244.540952 147.846095 244.540952 147.846095s127.463619-71.631238 173.202286-190.122666C822.759619 444.464762 853.333333 423.350857 853.333333 423.350857z" fill="#0C3AA0" p-id="5210"></path><path d="M170.666667 402.236952v316.757334s112.298667 138.142476 376.978285 63.390476c112.103619-31.695238 203.824762-179.541333 203.824762-179.541333S618.934857 824.612571 170.666667 402.285714z" fill="#296DFF" p-id="5211"></path></svg>
