<svg class="icon" viewBox="0 0 1024 1024" version="1.1" xmlns="http://www.w3.org/2000/svg"
     width="200" height="200">
    <path d="M421.875 118c89.239 0 173.203 11.837 236.305 32.87 3.28 1.093 6.5 2.21 9.657 3.35l2.357 0.859c26.973 9.933 49.338 21.597 66.225 34.904 23.535 18.547 37.331 41.018 37.331 66.635l-0.004-0.718 0.004 0.188v162.51C894.078 434.278 987 537.171 987 661.765 987 797.204 877.196 907 741.75 907c-38.19 0-75.165-8.762-108.605-25.303C573.57 898.002 499.7 907 421.875 907c-89.239 0-173.203-11.837-236.305-32.87-3.28-1.093-6.5-2.21-9.657-3.35l-2.357-0.859c-26.973-9.933-49.338-21.597-66.225-34.905-23.3-18.36-37.054-40.568-37.331-65.866V256.618l0.004-0.768c0.273-25.298 14.027-47.505 37.327-65.867 16.887-13.307 39.252-24.971 66.225-34.904l2.357-0.86a414.19 414.19 0 0 1 9.657-3.35C248.672 129.838 332.636 118 421.875 118zM133.999 681.725l0.001 86.657c0 1.057 0.36 2.357 1.167 3.887l0.243 0.443c0.638 1.124 1.508 2.363 2.644 3.712l0.468 0.546c0.563 0.644 1.184 1.31 1.868 2.001l0.6 0.598c0.514 0.502 1.06 1.017 1.639 1.543l0.71 0.637 0.368 0.322 0.759 0.653 0.792 0.664c0.27 0.223 0.545 0.448 0.826 0.675l0.86 0.686c2.993 2.359 6.387 4.709 10.162 7.036l1.272 0.775c0.429 0.258 0.862 0.516 1.3 0.773l1.329 0.771 1.356 0.77 1.383 0.766c1.398 0.766 2.836 1.528 4.315 2.286l1.492 0.757c1.004 0.504 2.025 1.005 3.064 1.505l1.572 0.748c0.529 0.25 1.061 0.498 1.599 0.745l1.624 0.742a246.56 246.56 0 0 0 5.028 2.205l1.727 0.727 0.873 0.362 1.765 0.722 0.892 0.36 1.803 0.715c1.512 0.595 3.05 1.185 4.615 1.77l1.888 0.7 1.913 0.696c0.642 0.231 1.288 0.462 1.937 0.691l1.961 0.686c0.658 0.228 1.32 0.455 1.985 0.681l2.009 0.676C261.908 832.114 339.13 843 421.875 843c50.403 0 98.793-4.035 141.664-11.446l1.061-0.186-0.08-0.083a246.149 246.149 0 0 1-33.772-44.465 245.904 245.904 0 0 1-8.394-15.365 244.693 244.693 0 0 1-12.506-29.72 244.006 244.006 0 0 1-2.911-9.005c-27.528 2.435-56.05 3.682-85.062 3.682-89.239 0-173.203-11.837-236.305-32.87l-2.448-0.824a397.1 397.1 0 0 1-13.058-4.69l-2.299-0.882c-12.308-4.765-23.593-9.909-33.766-15.421zM741.75 544.471c-64.782 0-117.3 52.514-117.3 117.294s52.518 117.294 117.3 117.294c20.388 0 39.979-5.243 57.184-14.86l46.347 46.344a182.266 182.266 0 0 0 45.258-45.254l-46.349-46.345c9.617-17.203 14.86-36.793 14.86-57.18 0-64.779-52.518-117.293-117.3-117.293z m0 64c29.436 0 53.3 23.862 53.3 53.294 0 14.155-5.502 27.36-15.196 37.264l-0.05 0.047-0.373 0.367c-0.14 0.14-0.278 0.281-0.415 0.423l0.425-0.42c-9.953 9.954-23.333 15.613-37.691 15.613-29.436 0-53.3-23.862-53.3-53.294s23.864-53.294 53.3-53.294z m-607.752-97.334l0.002 86.657c0 1.358 0.594 3.12 1.97 5.253l0.319 0.48 0.345 0.492c0.298 0.416 0.624 0.843 0.98 1.283l0.44 0.534 0.468 0.546c0.322 0.368 0.662 0.743 1.023 1.126l0.556 0.58 0.289 0.295 0.6 0.598c0.514 0.502 1.06 1.017 1.639 1.543l0.71 0.636c0.243 0.214 0.49 0.43 0.743 0.648l0.776 0.659c0.264 0.221 0.534 0.444 0.809 0.67l0.843 0.68 0.434 0.343c2.66 2.097 5.638 4.187 8.918 6.26l1.244 0.777c4.194 2.586 8.858 5.143 13.966 7.652l1.545 0.751 1.572 0.748a240.411 240.411 0 0 0 9.111 4.056l1.74 0.725 0.88 0.362 1.777 0.72 0.898 0.358 1.815 0.713c1.219 0.474 2.454 0.946 3.705 1.414l1.888 0.7 0.954 0.349 1.925 0.693 1.949 0.689 1.973 0.683 1.997 0.679 1.007 0.337c56.1 18.699 133.323 29.586 216.067 29.586 25.497 0 50.549-1.028 74.743-3.032a244.642 244.642 0 0 1-0.118-7.615c0-35.321 7.51-69.501 21.556-100.676-30.875 3.12-63.193 4.735-96.181 4.735-89.239 0-173.203-11.838-236.305-32.87a401.903 401.903 0 0 1-15.506-5.515l-2.299-0.881c-0.762-0.295-1.52-0.592-2.275-0.89l-2.252-0.898c-10.56-4.258-20.327-8.804-29.24-13.633z m575.753-170.588c-14.899 8.072-32.183 15.354-51.571 21.817-63.102 21.032-147.066 32.87-236.305 32.87s-173.203-11.838-236.305-32.87c-19.388-6.463-36.672-13.745-51.57-21.817v86.657c0 1.358 0.594 3.12 1.97 5.253l0.319 0.48 0.345 0.492 0.371 0.504c0.193 0.256 0.395 0.515 0.609 0.78l0.44 0.533 0.468 0.546 0.497 0.557c0.085 0.094 0.172 0.188 0.26 0.283l0.54 0.575c0.556 0.58 1.156 1.178 1.804 1.792l0.663 0.62c0.113 0.104 0.227 0.21 0.343 0.314l0.71 0.637 0.368 0.323 0.759 0.653 0.392 0.33 0.809 0.67c0.413 0.337 0.838 0.679 1.277 1.024 8.149 6.422 19.265 12.78 32.953 18.78l1.689 0.734c0.85 0.366 1.711 0.73 2.581 1.093l1.753 0.723 0.885 0.36 1.79 0.718a307.437 307.437 0 0 0 8.362 3.177l1.925 0.693 1.949 0.688 1.973 0.684 1.997 0.678 1.007 0.338c56.1 18.699 133.323 29.586 216.067 29.586 51.494 0 101.043-4.199 145.052-12.047a92.866 92.866 0 0 1 1.09-1.106l-0.292 0.294a247.187 247.187 0 0 1 18.6-16.92 245.81 245.81 0 0 1 23.027-16.754 244.71 244.71 0 0 1 32.317-17.475 244.1 244.1 0 0 1 66.656-19.02l1.425-0.189z"
          fill="#ff0099"></path>
</svg>