<svg width="16" height="16" viewBox="0 0 16 16" fill="none" xmlns="http://www.w3.org/2000/svg">
<path d="M4.66665 11.3335H6.66665V12.6668H4.66665V14.6668H3.33331V12.6668H1.33331V11.3335H3.33331V9.3335H4.66665V11.3335Z" fill="#354052"/>
<path fill-rule="evenodd" clip-rule="evenodd" d="M8.66665 1.3335C8.90745 1.3335 9.07492 1.46573 9.23566 1.62646L13.0403 5.43115C13.2011 5.59195 13.3333 5.75924 13.3333 6.00016C13.3333 6.04697 13.3333 6.09209 13.3333 6.13818V13.6668C13.3333 14.2191 12.8856 14.6668 12.3333 14.6668H7.33331V13.3335H12V6.66683H8.99998C8.4477 6.66683 7.99998 6.21911 7.99998 5.66683V2.66683H3.99998V8.00016H2.66665V2.3335C2.66665 1.78121 3.11436 1.3335 3.66665 1.3335H8.52863C8.57467 1.3335 8.61987 1.3335 8.66665 1.3335ZM9.33331 5.3335H11.0573L9.33331 3.60954V5.3335Z" fill="#354052"/>
</svg>
