<svg width="16" height="16" viewBox="0 0 16 16" fill="none" xmlns="http://www.w3.org/2000/svg">
<g id="sticker-square">
<path id="Icon" d="M8.66667 2.33333V4.13333C8.66667 5.25344 8.66667 5.81349 8.88465 6.24131C9.0764 6.61764 9.38236 6.9236 9.75869 7.11535C10.1865 7.33333 10.7466 7.33333 11.8667 7.33333H13.6667M14 8.65882V10.8C14 11.9201 14 12.4802 13.782 12.908C13.5903 13.2843 13.2843 13.5903 12.908 13.782C12.4802 14 11.9201 14 10.8 14H5.2C4.0799 14 3.51984 14 3.09202 13.782C2.71569 13.5903 2.40973 13.2843 2.21799 12.908C2 12.4802 2 11.9201 2 10.8V5.2C2 4.0799 2 3.51984 2.21799 3.09202C2.40973 2.71569 2.71569 2.40973 3.09202 2.21799C3.51984 2 4.0799 2 5.2 2H7.34118C7.83036 2 8.07496 2 8.30513 2.05526C8.5092 2.10425 8.70429 2.18506 8.88324 2.29472C9.08507 2.4184 9.25802 2.59135 9.60393 2.93726L13.0627 6.39608C13.4086 6.74198 13.5816 6.91493 13.7053 7.11676C13.8149 7.29571 13.8957 7.4908 13.9447 7.69487C14 7.92505 14 8.16964 14 8.65882Z" stroke="#667085" stroke-width="1.5" stroke-linecap="round" stroke-linejoin="round"/>
</g>
</svg>
