<?xml version="1.0" encoding="utf-8"?>
<svg viewBox="540.1546 563.7749 150.5263 25" xmlns="http://www.w3.org/2000/svg">
  <g clip-path="url(#a)" transform="matrix(0.17650800943374634, 0, 0, -0.17650800943374634, 445.969970703125, 671.58935546875)">
    <path fill="#00e5e5" d="M618.577 552.875l-13.795-59.901c-.218-.948.502-1.853 1.475-1.853h27.575c.973 0 1.693.905 1.474 1.853l-13.795 59.901c-.358 1.557-2.575 1.557-2.934 0"/>
    <path fill="#00e5e5" d="M542.203 530.153l-8.564-37.188c-.218-.944.499-1.844 1.467-1.844h17.135c.968 0 1.684.9 1.467 1.844l-8.565 37.188c-.359 1.561-2.581 1.561-2.94 0"/>
    <path fill="#006eff" d="M561.028 575.58l-19.024-82.607c-.219-.948.502-1.853 1.474-1.853h38.034c.973 0 1.693.905 1.474 1.853l-19.024 82.607c-.358 1.557-2.575 1.557-2.934 0"/>
    <path fill="#006eff" d="M592.95 609.651l-26.871-116.678c-.218-.947.502-1.852 1.475-1.852h53.726c.973 0 1.693.905 1.475 1.852l-26.871 116.678c-.358 1.557-2.575 1.557-2.934 0"/>
    <path fill="#00e5e5" d="M575.175 564.245l-16.414-71.271c-.218-.948.502-1.853 1.475-1.853h32.812c.973 0 1.693.905 1.475 1.853l-16.414 71.271c-.358 1.557-2.576 1.557-2.934 0"/>
    <path fill="#4b4b4b" d="M677.358 492.868l-24.407 72.089h13.49l20.804-64.365 21.318 64.365h13.285l-24.614-72.089z"/>
    <path fill="#4b4b4b" d="M744.98 502.857c3.09 0 5.922.788 8.496 2.368 2.575 1.579 4.617 3.691 6.128 6.333 1.509 2.643 2.266 5.544 2.266 8.703 0 3.09-.757 5.973-2.266 8.651-1.511 2.677-3.553 4.789-6.128 6.334-2.574 1.545-5.406 2.317-8.496 2.317-3.159 0-6.025-.79-8.6-2.369-2.574-1.58-4.618-3.674-6.127-6.282-1.511-2.611-2.266-5.493-2.266-8.651 0-3.159.755-6.06 2.266-8.703 1.509-2.642 3.553-4.754 6.127-6.333 2.575-1.58 5.441-2.368 8.6-2.368m0-10.813c-5.149 0-9.853 1.269-14.109 3.81-4.258 2.539-7.657 5.974-10.196 10.298-2.541 4.326-3.81 9.027-3.81 14.109 0 5.08 1.269 9.766 3.81 14.058 2.539 4.29 5.938 7.706 10.196 10.247 4.256 2.539 8.96 3.811 14.109 3.811 5.08 0 9.766-1.272 14.057-3.811 4.291-2.541 7.689-5.974 10.196-10.299 2.506-4.325 3.759-8.995 3.759-14.006 0-5.082-1.253-9.783-3.759-14.109-2.507-4.324-5.905-7.759-10.196-10.298-4.291-2.541-8.977-3.81-14.057-3.81"/>
    <path fill="#4b4b4b" d="M782.261 564.957h11.844v-72.089h-11.844z"/>
    <path fill="#4b4b4b" d="M831.693 492.044c-5.149 0-9.887 1.27-14.212 3.811-4.325 2.539-7.708 5.973-10.144 10.297-2.438 4.327-3.656 8.995-3.656 14.006 0 5.15 1.252 9.887 3.759 14.212 2.505 4.326 5.904 7.74 10.195 10.247 4.29 2.506 8.976 3.76 14.058 3.76 5.835 0 11.071-1.632 15.705-4.893 4.635-3.26 7.982-7.535 10.042-12.821l-10.917-2.986c-1.374 3.02-3.365 5.44-5.973 7.261-2.61 1.817-5.561 2.728-8.857 2.728-3.159 0-6.025-.79-8.599-2.368-2.575-1.58-4.619-3.708-6.128-6.386-1.511-2.678-2.266-5.597-2.266-8.754 0-3.158.755-6.076 2.266-8.753 1.509-2.677 3.569-4.789 6.179-6.333 2.609-1.546 5.458-2.317 8.548-2.317 3.363 0 6.333.908 8.908 2.728 2.575 1.819 4.548 4.205 5.922 7.158l10.917-2.987c-2.129-5.217-5.494-9.458-10.093-12.717-4.601-3.263-9.819-4.893-15.654-4.893"/>
    <path fill="#4b4b4b" d="M892.043 502.755c3.09 0 5.955.788 8.599 2.368 2.642 1.578 4.754 3.708 6.334 6.386 1.578 2.677 2.369 5.559 2.369 8.649 0 3.09-.791 5.974-2.369 8.652-1.58 2.677-3.692 4.822-6.334 6.436-2.644 1.613-5.509 2.42-8.599 2.42-3.159 0-6.06-.79-8.703-2.368-2.643-1.58-4.721-3.708-6.23-6.386-1.511-2.678-2.266-5.596-2.266-8.754 0-3.158.755-6.059 2.266-8.701 1.509-2.644 3.569-4.756 6.179-6.334 2.608-1.58 5.526-2.368 8.754-2.368m-1.03-10.711c-4.943 0-9.492 1.27-13.646 3.811-4.155 2.539-7.45 5.973-9.886 10.297-2.438 4.327-3.656 8.995-3.656 14.006 0 5.15 1.218 9.887 3.656 14.212 2.436 4.326 5.731 7.74 9.886 10.247 4.154 2.506 8.703 3.76 13.646 3.76 3.638 0 6.968-.739 9.99-2.214 3.02-1.477 5.526-3.486 7.518-6.025v7.312h11.843v-54.582h-11.843v7.313c-1.992-2.541-4.498-4.533-7.518-5.974-3.022-1.442-6.352-2.163-9.99-2.163"/>
    <path fill="#4b4b4b" d="M931.692 492.868v54.582h11.74v-7.209c1.854 2.402 4.239 4.359 7.158 5.87 2.917 1.51 6.23 2.266 9.938 2.266 3.981 0 7.724-.894 11.226-2.678 3.501-1.786 6.315-4.361 8.444-7.725 2.128-3.364 3.193-7.244 3.193-11.636v-33.47h-11.843v30.277c0 2.883-.602 5.389-1.803 7.518-1.202 2.128-2.816 3.774-4.84 4.943-2.026 1.167-4.274 1.751-6.746 1.751-2.816 0-5.355-.721-7.621-2.163-2.265-1.441-4.016-3.398-5.252-5.87-1.236-2.472-1.854-5.288-1.854-8.444v-28.012z"/>
    <path fill="#4b4b4b" d="M1019.437 502.857c3.09 0 5.922.788 8.496 2.368 2.575 1.579 4.617 3.691 6.128 6.333 1.509 2.643 2.266 5.544 2.266 8.703 0 3.09-.757 5.973-2.266 8.651-1.511 2.677-3.553 4.789-6.128 6.334-2.574 1.545-5.406 2.317-8.496 2.317-3.159 0-6.025-.79-8.599-2.369-2.575-1.58-4.619-3.674-6.128-6.282-1.511-2.611-2.266-5.493-2.266-8.651 0-3.159.755-6.06 2.266-8.703 1.509-2.642 3.553-4.754 6.128-6.333 2.574-1.58 5.44-2.368 8.599-2.368m0-10.813c-5.149 0-9.853 1.269-14.109 3.81-4.258 2.539-7.657 5.974-10.196 10.298-2.541 4.326-3.81 9.027-3.81 14.109 0 5.08 1.269 9.766 3.81 14.058 2.539 4.29 5.938 7.706 10.196 10.247 4.256 2.539 8.96 3.811 14.109 3.811 5.08 0 9.766-1.272 14.058-3.811 4.29-2.541 7.688-5.974 10.195-10.299 2.506-4.325 3.759-8.995 3.759-14.006 0-5.082-1.253-9.783-3.759-14.109-2.507-4.324-5.905-7.759-10.195-10.298-4.292-2.541-8.978-3.81-14.058-3.81"/>
    <path fill="#4b4b4b" d="M1057.026 492.868v72.089h51.287v-11.328h-39.135v-19.156h35.016v-11.122h-35.016v-19.155h39.135v-11.328z"/>
    <path fill="#4b4b4b" d="M1118.92 492.868v54.582h11.74v-7.209c1.854 2.402 4.239 4.359 7.158 5.87 2.917 1.51 6.231 2.266 9.938 2.266 3.981 0 7.724-.894 11.226-2.678 3.501-1.786 6.316-4.361 8.444-7.725 2.128-3.364 3.193-7.244 3.193-11.636v-33.47h-11.843v30.277c0 2.883-.602 5.389-1.803 7.518-1.202 2.128-2.815 3.774-4.84 4.943-2.026 1.167-4.274 1.751-6.745 1.751-2.816 0-5.356-.721-7.621-2.163-2.266-1.441-4.017-3.398-5.253-5.87-1.236-2.472-1.854-5.288-1.854-8.444v-28.012z"/>
    <path fill="#4b4b4b" d="M1207.077 504.094c3.09 0 5.955.754 8.599 2.266 2.642 1.508 4.754 3.551 6.334 6.127 1.578 2.574 2.369 5.406 2.369 8.496 0 3.089-.773 5.922-2.317 8.496-1.545 2.574-3.657 4.599-6.334 6.076-2.678 1.476-5.561 2.214-8.651 2.214-3.159 0-6.042-.738-8.651-2.214-2.61-1.477-4.686-3.502-6.231-6.076s-2.317-5.407-2.317-8.496c0-3.09.772-5.94 2.317-8.547 1.545-2.611 3.639-4.654 6.283-6.128 2.642-1.477 5.509-2.214 8.599-2.214m1.339-34.912c-4.052 0-7.948.756-11.689 2.266-3.743 1.51-6.969 3.809-9.681 6.899-2.713 3.09-4.618 6.899-5.716 11.431h11.844c.824-2.266 2.024-4.12 3.604-5.56 1.579-1.442 3.363-2.473 5.356-3.091 1.99-.617 4.05-.927 6.179-.927 2.883 0 5.474.584 7.775 1.752 2.3 1.168 4.12 2.986 5.458 5.458 1.339 2.471 2.009 5.595 2.009 9.372v4.427c-1.992-2.334-4.48-4.188-7.467-5.561-2.986-1.373-6.333-2.059-10.041-2.059-5.149 0-9.801 1.2-13.955 3.605-4.154 2.402-7.398 5.697-9.732 9.885-2.335 4.188-3.501 8.822-3.501 13.904 0 5.216 1.184 9.921 3.553 14.109 2.368 4.187 5.628 7.466 9.783 9.835 4.154 2.369 8.77 3.518 13.852 3.45 3.638-.069 6.968-.807 9.99-2.214 3.02-1.408 5.526-3.382 7.518-5.922v7.209h11.843v-50.463c0-5.767-1.22-10.762-3.656-14.985-2.438-4.221-5.699-7.414-9.784-9.577-4.085-2.163-8.599-3.243-13.542-3.243"/>
    <path fill="#4b4b4b" d="M1247.035 547.45h11.844v-54.582h-11.844zm6.076 6.385c-2.129 0-3.949.703-5.458 2.111-1.511 1.406-2.266 3.175-2.266 5.304 0 2.059.755 3.81 2.266 5.252 1.509 1.442 3.329 2.163 5.458 2.163 2.128 0 3.93-.721 5.407-2.163 1.476-1.442 2.214-3.193 2.214-5.252 0-2.129-.738-3.898-2.214-5.304-1.477-1.408-3.279-2.111-5.407-2.111"/>
    <path fill="#4b4b4b" d="M1270.515 492.868v54.582h11.74v-7.209c1.854 2.402 4.239 4.359 7.158 5.87 2.917 1.51 6.23 2.266 9.938 2.266 3.981 0 7.724-.894 11.226-2.678 3.501-1.786 6.315-4.361 8.444-7.725 2.128-3.364 3.193-7.244 3.193-11.636v-33.47h-11.843v30.277c0 2.883-.602 5.389-1.803 7.518-1.202 2.128-2.816 3.774-4.84 4.943-2.026 1.167-4.274 1.751-6.746 1.751-2.816 0-5.355-.721-7.621-2.163-2.265-1.441-4.016-3.398-5.252-5.87-1.236-2.472-1.854-5.288-1.854-8.444v-28.012z"/>
    <path fill="#4b4b4b" d="M1374.428 524.895c-.481 2.334-1.459 4.496-2.935 6.488-1.477 1.991-3.331 3.57-5.562 4.738-2.232 1.167-4.754 1.751-7.569 1.751-2.816 0-5.373-.584-7.672-1.751-2.302-1.168-4.189-2.747-5.665-4.738-1.477-1.992-2.455-4.154-2.935-6.488zm-15.963-32.852c-5.149 0-9.87 1.27-14.16 3.811-4.292 2.539-7.673 5.974-10.145 10.298-2.471 4.326-3.707 8.994-3.707 14.006 0 5.149 1.252 9.886 3.759 14.212 2.506 4.326 5.904 7.74 10.196 10.247 4.29 2.506 8.976 3.759 14.057 3.759 4.531 0 8.754-1.03 12.668-3.089 3.913-2.06 7.157-4.859 9.732-8.394 2.574-3.537 4.238-7.502 4.995-11.894.685-3.09.72-6.146.102-9.167h-43.872c.48-2.746 1.494-5.115 3.038-7.105 1.545-1.992 3.467-3.519 5.768-4.583 2.299-1.065 4.822-1.597 7.569-1.597 2.884 0 5.681.602 8.394 1.803 2.711 1.2 4.959 2.832 6.745 4.892l10.402-2.678c-2.129-4.394-5.597-7.913-10.402-10.556-4.806-2.643-9.853-3.965-15.139-3.965"/>
  </g>
</svg>