<?xml version="1.0" encoding="utf-8"?>
<svg viewBox="-0.006 0 24.6978 24.9156" xmlns="http://www.w3.org/2000/svg">
  <path d="M20.511 15.3019L17.2442 28.1928C17.2362 28.2282 17.2364 28.2649 17.2447 28.3001C17.2531 28.3354 17.2694 28.3683 17.2923 28.3964C17.3153 28.4244 17.3444 28.4468 17.3773 28.4619C17.4103 28.477 17.4462 28.4844 17.4825 28.4835H24.0137C24.0499 28.4844 24.0859 28.477 24.1188 28.4619C24.1518 28.4468 24.1809 28.4244 24.2038 28.3964C24.2268 28.3683 24.2431 28.3354 24.2514 28.3001C24.2598 28.2649 24.26 28.2282 24.252 28.1928L20.9685 15.3019C20.9541 15.2524 20.924 15.209 20.8827 15.178C20.8415 15.1471 20.7913 15.1304 20.7397 15.1304C20.6882 15.1304 20.638 15.1471 20.5968 15.178C20.5555 15.209 20.5254 15.2524 20.511 15.3019V15.3019Z" fill="#00E5E5" transform="matrix(1.0178890228271484, 0, 0, 1.0178890228271484, -1.952212187461555e-7, -4.077521402283104)"/>
  <path d="M2.53051 18.2228L-5.28338e-06 28.1924C-0.00799016 28.2277 -0.00780431 28.2644 0.000538111 28.2997C0.00888053 28.335 0.0251596 28.3679 0.0481365 28.3959C0.0711133 28.4239 0.100182 28.4464 0.133131 28.4615C0.166079 28.4766 0.202039 28.484 0.238273 28.4831H5.28025C5.31649 28.484 5.35245 28.4766 5.38539 28.4615C5.41834 28.4464 5.44741 28.4239 5.47039 28.3959C5.49336 28.3679 5.50964 28.335 5.51799 28.2997C5.52633 28.2644 5.52651 28.2277 5.51853 28.1924L2.98563 18.2228C2.97054 18.1742 2.94032 18.1318 2.89938 18.1016C2.85844 18.0714 2.80892 18.0552 2.75807 18.0552C2.70722 18.0552 2.6577 18.0714 2.61676 18.1016C2.57582 18.1318 2.5456 18.1742 2.53051 18.2228V18.2228Z" fill="#00E5E5" transform="matrix(1.0178890228271484, 0, 0, 1.0178890228271484, -1.952212187461555e-7, -4.077521402283104)"/>
  <path d="M6.99344 9.96839L2.38275 28.1919C2.37498 28.2263 2.37494 28.262 2.38262 28.2964C2.3903 28.3308 2.40552 28.363 2.42717 28.3908C2.44882 28.4186 2.47637 28.4413 2.50783 28.4572C2.53929 28.473 2.57388 28.4817 2.60911 28.4826H11.8329C11.8691 28.4835 11.9051 28.4761 11.938 28.461C11.971 28.4459 12 28.4235 12.023 28.3955C12.046 28.3675 12.0623 28.3345 12.0706 28.2993C12.079 28.264 12.0791 28.2273 12.0712 28.1919L7.44855 9.96839C7.43347 9.91982 7.40325 9.87736 7.36231 9.8472C7.32136 9.81705 7.27185 9.80078 7.221 9.80078C7.17015 9.80078 7.12063 9.81705 7.07969 9.8472C7.03874 9.87736 7.00852 9.91982 6.99344 9.96839Z" fill="#006EFF" transform="matrix(1.0178890228271484, 0, 0, 1.0178890228271484, -1.952212187461555e-7, -4.077521402283104)"/>
  <path d="M14.9472 4.17346C14.9321 4.1249 14.9019 4.08244 14.861 4.05228C14.82 4.02213 14.7705 4.00586 14.7197 4.00586C14.6688 4.00586 14.6193 4.02213 14.5784 4.05228C14.5374 4.08244 14.5072 4.1249 14.4921 4.17346L8.18963 28.192C8.18165 28.2273 8.18183 28.264 8.19017 28.2993C8.19852 28.3346 8.2148 28.3675 8.23777 28.3955C8.26075 28.4235 8.28982 28.446 8.32277 28.4611C8.35572 28.4762 8.39168 28.4835 8.42791 28.4827H21.0233C21.0596 28.4835 21.0955 28.4762 21.1285 28.4611C21.1614 28.446 21.1905 28.4235 21.2135 28.3955C21.2364 28.3675 21.2527 28.3346 21.2611 28.2993C21.2694 28.264 21.2696 28.2273 21.2616 28.192L14.9472 4.17346Z" fill="#006EFF" transform="matrix(1.0178890228271484, 0, 0, 1.0178890228271484, -1.952212187461555e-7, -4.077521402283104)"/>
  <path d="M10.3175 12.6188L6.31915 28.1903C6.31074 28.2258 6.31061 28.2628 6.31875 28.2984C6.3269 28.3339 6.34311 28.3672 6.36614 28.3955C6.38916 28.4238 6.41839 28.4465 6.45155 28.4617C6.48472 28.4769 6.52094 28.4844 6.55743 28.4834H14.535C14.5715 28.4844 14.6077 28.4769 14.6409 28.4617C14.674 28.4465 14.7033 28.4238 14.7263 28.3955C14.7493 28.3672 14.7655 28.3339 14.7737 28.2984C14.7818 28.2628 14.7817 28.2258 14.7733 28.1903L10.7726 12.6188C10.7575 12.5702 10.7273 12.5278 10.6863 12.4976C10.6454 12.4674 10.5959 12.4512 10.545 12.4512C10.4942 12.4512 10.4447 12.4674 10.4037 12.4976C10.3628 12.5278 10.3326 12.5702 10.3175 12.6188Z" fill="#00E5E5" transform="matrix(1.0178890228271484, 0, 0, 1.0178890228271484, -1.952212187461555e-7, -4.077521402283104)"/>
</svg>