<?xml version="1.0" encoding="utf-8"?>
<svg viewBox="0 0 101.7291 25" xmlns="http://www.w3.org/2000/svg">
  <defs>
    <clipPath id="clip0_4967_21175">
      <rect width="99.9412" height="24.5665" fill="white" transform="translate(0 4)"/>
    </clipPath>
  </defs>
  <g clip-path="url(#clip0_4967_21175)" transform="matrix(1.017889022827, 0, 0, 1.017889022827, 0.893925011158, -4.07626192043)" style="transform-origin: 49.9706px 0.0704009px;">
    <path d="M57.8088 12.1255H56.1122C56.0096 12.1255 55.9264 12.2087 55.9264 12.3113V27.7947C55.9264 27.8973 56.0096 27.9806 56.1122 27.9806H57.8088C57.9114 27.9806 57.9946 27.8973 57.9946 27.7947V12.3113C57.9946 12.2087 57.9114 12.1255 57.8088 12.1255Z" fill="#4B4B4B"/>
    <path d="M80.4334 12.1895H78.6511C78.5471 12.1895 78.4628 12.2737 78.4628 12.3777V28.3781C78.4628 28.4821 78.5471 28.5663 78.6511 28.5663H80.4334C80.5374 28.5663 80.6216 28.4821 80.6216 28.3781V12.3777C80.6216 12.2737 80.5374 12.1895 80.4334 12.1895Z" fill="#4B4B4B"/>
    <path d="M51.7994 14.0625H50.1076C50.0036 14.0625 49.9194 14.1468 49.9194 14.2507V28.2639C49.9194 28.3679 50.0036 28.4522 50.1076 28.4522H51.7994C51.9034 28.4522 51.9876 28.3679 51.9876 28.2639V14.2507C51.9876 14.1468 51.9034 14.0625 51.7994 14.0625Z" fill="#4B4B4B"/>
    <path d="M63.823 14.0625H62.1312C62.0272 14.0625 61.9429 14.1468 61.9429 14.2507V28.2639C61.9429 28.3679 62.0272 28.4522 62.1312 28.4522H63.823C63.9269 28.4522 64.0112 28.3679 64.0112 28.2639V14.2507C64.0112 14.1468 63.9269 14.0625 63.823 14.0625Z" fill="#4B4B4B"/>
    <path d="M63.9135 26.3862V28.1066C63.9135 28.1989 63.8769 28.2874 63.8116 28.3526C63.7464 28.4178 63.6579 28.4545 63.5656 28.4545H50.3578C50.2656 28.4545 50.1771 28.4178 50.1118 28.3526C50.0466 28.2874 50.01 28.1989 50.01 28.1066V26.3862H63.9135Z" fill="#4B4B4B"/>
    <path d="M92.3091 13.9837V12.6398C92.3091 12.5885 92.2675 12.5469 92.2162 12.5469H84.1409C84.0896 12.5469 84.048 12.5885 84.048 12.6398V13.9837C84.048 14.035 84.0896 14.0766 84.1409 14.0766H92.2162C92.2675 14.0766 92.3091 14.035 92.3091 13.9837Z" fill="#4B4B4B"/>
    <path d="M99.6315 13.0328V14.4911C99.6315 14.5157 99.6217 14.5394 99.6043 14.5568C99.5868 14.5742 99.5632 14.584 99.5385 14.584H94.3822C94.3316 14.584 94.2831 14.5639 94.2474 14.5282C94.2116 14.4924 94.1916 14.4439 94.1916 14.3934V13.1281C94.1916 13.0776 94.2116 13.0291 94.2474 12.9933C94.2831 12.9576 94.3316 12.9375 94.3822 12.9375H99.5385C99.5632 12.9375 99.5868 12.9473 99.6043 12.9647C99.6217 12.9821 99.6315 13.0058 99.6315 13.0304V13.0328Z" fill="#4B4B4B"/>
    <path d="M43.605 14.437C43.574 15.2495 43.462 17.1128 43.0784 20.046C43.075 20.0729 43.0774 20.1002 43.0853 20.1261C43.0932 20.152 43.1064 20.176 43.1242 20.1964C43.1419 20.2169 43.1638 20.2334 43.1883 20.2448C43.2129 20.2563 43.2395 20.2624 43.2666 20.2629H45.2205C45.267 20.2621 45.3116 20.2445 45.3462 20.2135C45.3808 20.1824 45.403 20.1398 45.4088 20.0937C45.7876 17.139 45.8853 15.2733 45.9234 14.4513C45.9244 14.4257 45.9202 14.4003 45.911 14.3765C45.9018 14.3526 45.8879 14.3309 45.8701 14.3126C45.8522 14.2944 45.8309 14.2799 45.8073 14.2702C45.7837 14.2604 45.7583 14.2555 45.7328 14.2559H43.7956C43.7465 14.2552 43.6991 14.2738 43.6634 14.3076C43.6278 14.3415 43.6068 14.3879 43.605 14.437V14.437Z" fill="#4B4B4B"/>
    <path d="M34.2359 14.4394C34.2693 15.2566 34.3789 17.1343 34.7649 20.0889C34.769 20.1161 34.7672 20.1437 34.7596 20.1701C34.7521 20.1965 34.7389 20.2209 34.721 20.2417C34.7032 20.2625 34.681 20.2792 34.6561 20.2907C34.6312 20.3022 34.6041 20.3081 34.5766 20.3082H32.6085C32.5617 20.3074 32.5167 20.29 32.4818 20.2589C32.4468 20.2279 32.4241 20.1853 32.4178 20.139C32.0366 17.1605 31.9294 15.2805 31.8984 14.4536C31.8974 14.4278 31.9017 14.4021 31.911 14.3779C31.9203 14.3538 31.9344 14.3318 31.9525 14.3133C31.9705 14.2948 31.9921 14.2802 32.016 14.2703C32.0399 14.2605 32.0655 14.2555 32.0914 14.2559H34.0453C34.0946 14.2558 34.1421 14.2749 34.1776 14.3092C34.2132 14.3434 34.2341 14.39 34.2359 14.4394V14.4394Z" fill="#4B4B4B"/>
    <path d="M83.8741 15.4494C83.8503 15.4518 83.8281 15.4628 83.8119 15.4803C83.7956 15.4979 83.7864 15.5208 83.7859 15.5448V17.1055C83.7855 17.1187 83.7879 17.1319 83.7931 17.1441C83.7982 17.1564 83.8058 17.1674 83.8155 17.1764C83.8252 17.1854 83.8368 17.1923 83.8493 17.1965C83.8619 17.2007 83.8752 17.2022 83.8884 17.2008C85.2871 17.0697 86.3188 16.0666 86.457 14.5488C86.458 14.5356 86.4563 14.5225 86.4519 14.5101C86.4476 14.4977 86.4407 14.4863 86.4318 14.4767C86.4228 14.4671 86.412 14.4594 86.3999 14.4542C86.3879 14.4489 86.3749 14.4463 86.3617 14.4463H84.7938C84.7708 14.4462 84.7485 14.4546 84.7313 14.4701C84.7141 14.4855 84.7033 14.5067 84.7009 14.5297C84.5889 15.3351 84.1386 15.4375 83.8741 15.4494Z" fill="#4B4B4B"/>
    <path d="M94.9875 15.5781H93.3743C93.3602 15.5783 93.3462 15.5815 93.3334 15.5875C93.3206 15.5936 93.3093 15.6024 93.3002 15.6133C93.2912 15.6242 93.2846 15.6369 93.2809 15.6506C93.2773 15.6642 93.2766 15.6785 93.279 15.6925C93.8032 18.6448 96.3457 20.5057 99.8436 20.4986C99.8693 20.498 99.8938 20.4875 99.912 20.4693C99.9302 20.4511 99.9407 20.4266 99.9413 20.4009V18.8211C99.9413 18.7958 99.9313 18.7716 99.9134 18.7537C99.8955 18.7358 99.8713 18.7258 99.846 18.7258C97.8301 18.7258 95.6308 17.9156 95.0804 15.652C95.0752 15.6312 95.0632 15.6127 95.0464 15.5993C95.0297 15.586 95.0089 15.5785 94.9875 15.5781V15.5781Z" fill="#4B4B4B"/>
    <path d="M87.1408 12.1895H85.3394C85.2881 12.1895 85.2465 12.2311 85.2465 12.2824V14.1624C85.2465 14.2137 85.2881 14.2553 85.3394 14.2553H87.1408C87.1922 14.2553 87.2338 14.2137 87.2338 14.1624V12.2824C87.2338 12.2311 87.1922 12.1895 87.1408 12.1895Z" fill="#4B4B4B"/>
    <path d="M91.0177 12.1895H89.2163C89.165 12.1895 89.1234 12.2311 89.1234 12.2824V14.1624C89.1234 14.2137 89.165 14.2553 89.2163 14.2553H91.0177C91.0691 14.2553 91.1107 14.2137 91.1107 14.1624V12.2824C91.1107 12.2311 91.0691 12.1895 91.0177 12.1895Z" fill="#4B4B4B"/>
    <path d="M98.9262 14.3032C98.9262 14.2484 98.9262 14.2008 98.9262 14.165H97.1105C97.1105 14.2151 97.1105 14.277 97.1105 14.3533C97.1272 14.9657 97.1653 16.3977 96.1907 17.4104C95.4497 18.18 94.2345 18.5875 92.5761 18.6232C92.5633 18.6232 92.5507 18.6258 92.539 18.6307C92.5273 18.6356 92.5167 18.6429 92.5078 18.652C92.4989 18.6611 92.4919 18.6719 92.4873 18.6837C92.4827 18.6956 92.4804 18.7082 92.4807 18.7209L92.4998 20.3388C92.4998 20.352 92.5024 20.365 92.5074 20.3771C92.5125 20.3893 92.5198 20.4003 92.5291 20.4096C92.5384 20.4189 92.5494 20.4263 92.5616 20.4313C92.5737 20.4363 92.5867 20.4389 92.5999 20.4389C94.7635 20.396 96.4123 19.8003 97.4989 18.6709C99 17.1054 98.9452 15.0705 98.9262 14.3032Z" fill="#4B4B4B"/>
    <path d="M95.6117 12.168H93.9938C93.9697 12.1685 93.9468 12.1782 93.9295 12.195C93.9123 12.2118 93.902 12.2345 93.9009 12.2585C93.89 12.6263 93.7498 12.9785 93.5049 13.2531C93.2599 13.5277 92.9259 13.7071 92.5617 13.7597C92.5394 13.7631 92.519 13.7743 92.5042 13.7913C92.4893 13.8083 92.481 13.83 92.4807 13.8526V15.4729C92.4807 15.4858 92.4833 15.4986 92.4884 15.5105C92.4935 15.5224 92.5009 15.5331 92.5103 15.542C92.5197 15.5509 92.5307 15.5579 92.5428 15.5624C92.555 15.5669 92.5679 15.5689 92.5808 15.5682C93.4229 15.5146 94.2135 15.1438 94.7931 14.5305C95.3728 13.9173 95.6985 13.1071 95.7046 12.2633C95.7049 12.2509 95.7028 12.2385 95.6982 12.227C95.6937 12.2154 95.6869 12.2049 95.6783 12.196C95.6696 12.1871 95.6593 12.1801 95.6478 12.1753C95.6364 12.1704 95.6241 12.168 95.6117 12.168V12.168Z" fill="#4B4B4B"/>
    <path d="M67.2708 12.7498V14.4439C67.2708 14.4938 67.2906 14.5417 67.3259 14.577C67.3612 14.6123 67.4091 14.6322 67.459 14.6322H73.2826C73.3066 14.6322 73.3296 14.6417 73.3466 14.6587C73.3636 14.6757 73.3731 14.6987 73.3731 14.7227V16.6289C73.3734 16.641 73.3713 16.6531 73.3669 16.6643C73.3625 16.6756 73.3559 16.6859 73.3475 16.6945C73.339 16.7032 73.3289 16.7101 73.3178 16.7148C73.3066 16.7195 73.2947 16.7219 73.2826 16.7219H67.459C67.4091 16.7219 67.3612 16.7417 67.3259 16.777C67.2906 16.8123 67.2708 16.8602 67.2708 16.9101V22.5859C67.2708 22.6106 67.2757 22.6351 67.2851 22.6579C67.2946 22.6808 67.3085 22.7015 67.3259 22.719C67.3434 22.7365 67.3642 22.7504 67.387 22.7598C67.4099 22.7693 67.4343 22.7741 67.459 22.7741H73.2826C73.3068 22.7748 73.3298 22.7848 73.3468 22.8022C73.3637 22.8196 73.3731 22.8428 73.3731 22.8671V26.0314C73.3734 26.056 73.3689 26.0805 73.3597 26.1033C73.3505 26.1261 73.3368 26.1469 73.3195 26.1644C73.3023 26.1819 73.2817 26.1958 73.259 26.2053C73.2362 26.2148 73.2119 26.2197 73.1873 26.2197H68.8983C68.8561 26.2195 68.8151 26.2335 68.7818 26.2594C68.7485 26.2853 68.7249 26.3217 68.7148 26.3626L68.2978 28.1735C68.2946 28.1872 68.2944 28.2014 68.2975 28.2151C68.3005 28.2288 68.3066 28.2417 68.3154 28.2527C68.3241 28.2637 68.3352 28.2726 68.3478 28.2787C68.3604 28.2848 68.3743 28.2879 68.3883 28.2879H74.8767C75.0258 28.2879 75.1688 28.2287 75.2743 28.1232C75.3798 28.0178 75.439 27.8747 75.439 27.7256V20.887C75.439 20.8371 75.4192 20.7892 75.3839 20.7539C75.3486 20.7186 75.3007 20.6987 75.2508 20.6987H69.432C69.4197 20.6991 69.4075 20.6969 69.3961 20.6923C69.3846 20.6878 69.3743 20.6809 69.3656 20.6723C69.3569 20.6636 69.35 20.6532 69.3455 20.6418C69.3409 20.6303 69.3387 20.6181 69.3391 20.6058V18.8759C69.3391 18.8513 69.3489 18.8276 69.3663 18.8102C69.3837 18.7928 69.4074 18.783 69.432 18.783H75.2555C75.3055 18.783 75.3533 18.7631 75.3886 18.7278C75.4239 18.6925 75.4438 18.6447 75.4438 18.5947V12.7498C75.4432 12.7 75.4231 12.6525 75.388 12.6173C75.3528 12.5822 75.3053 12.5621 75.2555 12.5615H67.459C67.4091 12.5615 67.3612 12.5814 67.3259 12.6167C67.2906 12.652 67.2708 12.6998 67.2708 12.7498V12.7498Z" fill="#4B4B4B"/>
    <path d="M91.8088 14.9033H85.3562C85.3316 14.9033 85.3079 14.9131 85.2905 14.9305C85.2731 14.948 85.2633 14.9716 85.2633 14.9962V16.1328C85.2629 16.1451 85.2651 16.1574 85.2697 16.1688C85.2742 16.1802 85.2811 16.1906 85.2898 16.1993C85.2985 16.208 85.3088 16.2148 85.3203 16.2194C85.3317 16.2239 85.3439 16.2261 85.3562 16.2258H90.148C90.1603 16.2254 90.1725 16.2276 90.1839 16.2322C90.1954 16.2367 90.2057 16.2436 90.2144 16.2523C90.2231 16.261 90.23 16.2713 90.2345 16.2827C90.2391 16.2942 90.2413 16.3064 90.2409 16.3187V18.8707C90.2409 18.8953 90.2311 18.9189 90.2137 18.9364C90.1963 18.9538 90.1726 18.9636 90.148 18.9636H89.5928C89.5719 18.9636 89.5515 18.9706 89.5351 18.9836C89.5187 18.9966 89.5071 19.0147 89.5023 19.0351L89.1901 20.3837C89.1869 20.3974 89.1868 20.4116 89.1898 20.4253C89.1929 20.439 89.199 20.4519 89.2077 20.4629C89.2164 20.4739 89.2275 20.4828 89.2401 20.4889C89.2528 20.495 89.2666 20.4981 89.2807 20.4981H91.2322C91.4344 20.4981 91.6283 20.4178 91.7713 20.2748C91.9143 20.1318 91.9947 19.9378 91.9947 19.7356V15.0916C91.995 15.067 91.9904 15.0425 91.9812 15.0197C91.972 14.9969 91.9584 14.9761 91.9411 14.9586C91.9238 14.9411 91.9032 14.9272 91.8805 14.9177C91.8578 14.9082 91.8334 14.9033 91.8088 14.9033V14.9033Z" fill="#4B4B4B"/>
    <path d="M90.7961 21.5732V26.9321C90.7961 26.9567 90.7912 26.9811 90.7817 27.0038C90.7722 27.0265 90.7583 27.0471 90.7408 27.0644C90.7233 27.0817 90.7025 27.0953 90.6797 27.1045C90.6569 27.1137 90.6325 27.1183 90.6079 27.118H89.3092C89.2674 27.1177 89.2266 27.1313 89.1934 27.1568C89.1602 27.1823 89.1364 27.2181 89.1258 27.2586L88.8017 28.45C88.7976 28.4643 88.7969 28.4793 88.7997 28.4939C88.8025 28.5085 88.8086 28.5223 88.8176 28.5341C88.8267 28.5459 88.8383 28.5554 88.8517 28.5619C88.8651 28.5684 88.8798 28.5717 88.8946 28.5715H92.2591C92.4572 28.5709 92.6468 28.4918 92.7866 28.3515C92.9264 28.2113 93.005 28.0213 93.005 27.8233V21.5732H90.7961Z" fill="#4B4B4B"/>
    <path d="M84.4936 16.867V19.5023C84.4936 19.5269 84.4985 19.5513 84.508 19.574C84.5174 19.5967 84.5314 19.6173 84.5489 19.6346C84.5664 19.6519 84.5871 19.6655 84.61 19.6747C84.6328 19.6839 84.6572 19.6885 84.6818 19.6882H88.8779C88.9272 19.6882 88.9745 19.6686 89.0093 19.6337C89.0442 19.5989 89.0638 19.5516 89.0638 19.5023V16.867C89.0641 16.8423 89.0595 16.8179 89.0503 16.7951C89.0411 16.7723 89.0275 16.7515 89.0102 16.734C88.9929 16.7165 88.9723 16.7026 88.9496 16.6931C88.9269 16.6836 88.9025 16.6787 88.8779 16.6787H84.6818C84.6319 16.6787 84.584 16.6985 84.5487 16.7338C84.5134 16.7691 84.4936 16.817 84.4936 16.867V16.867ZM87.4888 18.6302H86.0591C86.0346 18.6296 86.0113 18.6196 85.994 18.6023C85.9767 18.585 85.9668 18.5617 85.9662 18.5373V17.8201C85.9668 17.7956 85.9767 17.7723 85.994 17.755C86.0113 17.7377 86.0346 17.7277 86.0591 17.7271H87.4888C87.5134 17.7271 87.537 17.7369 87.5545 17.7544C87.5719 17.7718 87.5817 17.7954 87.5817 17.8201V18.5349C87.582 18.5473 87.5798 18.5596 87.5753 18.5712C87.5708 18.5827 87.564 18.5933 87.5553 18.6022C87.5467 18.611 87.5363 18.6181 87.5249 18.6229C87.5134 18.6277 87.5012 18.6302 87.4888 18.6302V18.6302Z" fill="#4B4B4B"/>
    <path d="M99.3193 22.1593V20.987C99.3193 20.9357 99.2777 20.894 99.2264 20.894H84.5746C84.5233 20.894 84.4817 20.9357 84.4817 20.987V22.1593C84.4817 22.2106 84.5233 22.2522 84.5746 22.2522H99.2264C99.2777 22.2522 99.3193 22.2106 99.3193 22.1593Z" fill="#4B4B4B"/>
    <path d="M99.0906 24.1823V23.0099C99.0906 22.9586 99.049 22.917 98.9976 22.917H84.8058C84.7544 22.917 84.7128 22.9586 84.7128 23.0099V24.1823C84.7128 24.2336 84.7544 24.2752 84.8058 24.2752H98.9976C99.049 24.2752 99.0906 24.2336 99.0906 24.1823Z" fill="#4B4B4B"/>
    <path d="M99.8602 26.191V25.0187C99.8602 24.9674 99.8186 24.9258 99.7673 24.9258H84.0361C83.9848 24.9258 83.9432 24.9674 83.9432 25.0187V26.191C83.9432 26.2424 83.9848 26.284 84.0361 26.284H99.7673C99.8186 26.284 99.8602 26.2424 99.8602 26.191Z" fill="#4B4B4B"/>
    <path d="M37.8625 18.3203C37.9459 23.0621 33.8356 26.2336 31.386 26.398C31.338 26.3998 31.2925 26.4202 31.2592 26.4549C31.2259 26.4895 31.2073 26.5357 31.2073 26.5838V28.3042C31.2073 28.3292 31.2124 28.354 31.2221 28.377C31.2319 28.4 31.2463 28.4209 31.2643 28.4382C31.2823 28.4556 31.3036 28.4691 31.327 28.478C31.3504 28.4869 31.3753 28.491 31.4003 28.4901C33.2279 28.3804 35.301 27.394 36.8688 25.869C38.2794 24.5037 39.9665 22.0851 39.9665 18.3179V12.056C39.9665 12.0067 39.9469 11.9594 39.912 11.9246C39.8772 11.8897 39.8299 11.8701 39.7806 11.8701H38.0555C38.0062 11.8701 37.9589 11.8897 37.924 11.9246C37.8892 11.9594 37.8696 12.0067 37.8696 12.056L37.8625 18.3203Z" fill="#4B4B4B"/>
    <path d="M39.9546 18.3203C39.8688 23.0621 43.9886 26.2336 46.4286 26.398C46.4769 26.3998 46.5226 26.4201 46.5563 26.4547C46.59 26.4893 46.6091 26.5355 46.6097 26.5838V28.3042C46.6097 28.3294 46.6046 28.3544 46.5947 28.3776C46.5848 28.4008 46.5702 28.4217 46.5519 28.4391C46.5337 28.4565 46.512 28.47 46.4884 28.4788C46.4647 28.4875 46.4395 28.4914 46.4143 28.4901C44.5891 28.3805 42.5137 27.394 40.9482 25.869C39.5376 24.5037 37.8506 22.0851 37.8506 18.318V12.056C37.8506 12.0067 37.8702 11.9594 37.905 11.9246C37.9399 11.8897 37.9872 11.8701 38.0364 11.8701H39.7616C39.7862 11.8698 39.8106 11.8744 39.8334 11.8836C39.8563 11.8928 39.877 11.9064 39.8945 11.9237C39.9121 11.941 39.926 11.9616 39.9354 11.9843C39.9449 12.007 39.9498 12.0314 39.9498 12.056L39.9546 18.3203Z" fill="#4B4B4B"/>
    <path d="M20.511 15.3019L17.2442 28.1928C17.2362 28.2282 17.2364 28.2649 17.2447 28.3001C17.2531 28.3354 17.2694 28.3683 17.2923 28.3964C17.3153 28.4244 17.3444 28.4468 17.3773 28.4619C17.4103 28.477 17.4462 28.4844 17.4825 28.4835H24.0137C24.0499 28.4844 24.0859 28.477 24.1188 28.4619C24.1518 28.4468 24.1809 28.4244 24.2038 28.3964C24.2268 28.3683 24.2431 28.3354 24.2514 28.3001C24.2598 28.2649 24.26 28.2282 24.252 28.1928L20.9685 15.3019C20.9541 15.2524 20.924 15.209 20.8827 15.178C20.8415 15.1471 20.7913 15.1304 20.7397 15.1304C20.6882 15.1304 20.638 15.1471 20.5968 15.178C20.5555 15.209 20.5254 15.2524 20.511 15.3019V15.3019Z" fill="#00E5E5"/>
    <path d="M2.53051 18.2228L-5.28338e-06 28.1924C-0.00799016 28.2277 -0.00780431 28.2644 0.000538111 28.2997C0.00888053 28.335 0.0251596 28.3679 0.0481365 28.3959C0.0711133 28.4239 0.100182 28.4464 0.133131 28.4615C0.166079 28.4766 0.202039 28.484 0.238273 28.4831H5.28025C5.31649 28.484 5.35245 28.4766 5.38539 28.4615C5.41834 28.4464 5.44741 28.4239 5.47039 28.3959C5.49336 28.3679 5.50964 28.335 5.51799 28.2997C5.52633 28.2644 5.52651 28.2277 5.51853 28.1924L2.98563 18.2228C2.97054 18.1742 2.94032 18.1318 2.89938 18.1016C2.85844 18.0714 2.80892 18.0552 2.75807 18.0552C2.70722 18.0552 2.6577 18.0714 2.61676 18.1016C2.57582 18.1318 2.5456 18.1742 2.53051 18.2228V18.2228Z" fill="#00E5E5"/>
    <path d="M6.99344 9.96839L2.38275 28.1919C2.37498 28.2263 2.37494 28.262 2.38262 28.2964C2.3903 28.3308 2.40552 28.363 2.42717 28.3908C2.44882 28.4186 2.47637 28.4413 2.50783 28.4572C2.53929 28.473 2.57388 28.4817 2.60911 28.4826H11.8329C11.8691 28.4835 11.9051 28.4761 11.938 28.461C11.971 28.4459 12 28.4235 12.023 28.3955C12.046 28.3675 12.0623 28.3345 12.0706 28.2993C12.079 28.264 12.0791 28.2273 12.0712 28.1919L7.44855 9.96839C7.43347 9.91982 7.40325 9.87736 7.36231 9.8472C7.32136 9.81705 7.27185 9.80078 7.221 9.80078C7.17015 9.80078 7.12063 9.81705 7.07969 9.8472C7.03874 9.87736 7.00852 9.91982 6.99344 9.96839Z" fill="#006EFF"/>
    <path d="M14.9472 4.17346C14.9321 4.1249 14.9019 4.08244 14.861 4.05228C14.82 4.02213 14.7705 4.00586 14.7197 4.00586C14.6688 4.00586 14.6193 4.02213 14.5784 4.05228C14.5374 4.08244 14.5072 4.1249 14.4921 4.17346L8.18963 28.192C8.18165 28.2273 8.18183 28.264 8.19017 28.2993C8.19852 28.3346 8.2148 28.3675 8.23777 28.3955C8.26075 28.4235 8.28982 28.446 8.32277 28.4611C8.35572 28.4762 8.39168 28.4835 8.42791 28.4827H21.0233C21.0596 28.4835 21.0955 28.4762 21.1285 28.4611C21.1614 28.446 21.1905 28.4235 21.2135 28.3955C21.2364 28.3675 21.2527 28.3346 21.2611 28.2993C21.2694 28.264 21.2696 28.2273 21.2616 28.192L14.9472 4.17346Z" fill="#006EFF"/>
    <path d="M10.3175 12.6188L6.31915 28.1903C6.31074 28.2258 6.31061 28.2628 6.31875 28.2984C6.3269 28.3339 6.34311 28.3672 6.36614 28.3955C6.38916 28.4238 6.41839 28.4465 6.45155 28.4617C6.48472 28.4769 6.52094 28.4844 6.55743 28.4834H14.535C14.5715 28.4844 14.6077 28.4769 14.6409 28.4617C14.674 28.4465 14.7033 28.4238 14.7263 28.3955C14.7493 28.3672 14.7655 28.3339 14.7737 28.2984C14.7818 28.2628 14.7817 28.2258 14.7733 28.1903L10.7726 12.6188C10.7575 12.5702 10.7273 12.5278 10.6863 12.4976C10.6454 12.4674 10.5959 12.4512 10.545 12.4512C10.4942 12.4512 10.4447 12.4674 10.4037 12.4976C10.3628 12.5278 10.3326 12.5702 10.3175 12.6188Z" fill="#00E5E5"/>
  </g>
</svg>