<svg width="24" height="24" viewBox="0 0 24 24" fill="none" xmlns="http://www.w3.org/2000/svg">
<rect width="24" height="24" rx="8" fill="#EEF4FF"/>
<path fill-rule="evenodd" clip-rule="evenodd" d="M15.4043 14.2586C15.5696 13.9296 15.9703 13.7969 16.2993 13.9622C17.3889 14.5095 18.31 15.381 18.9766 16.4548C19.0776 16.6174 19.2246 16.8347 19.2702 17.1291C19.3191 17.4443 19.2335 17.7457 19.1061 17.9749C18.9786 18.2041 18.7676 18.4357 18.4741 18.5605C18.1949 18.6791 17.8913 18.6666 17.6667 18.6666C17.2985 18.6666 17.0001 18.3682 17.0001 18C17.0001 17.6318 17.2985 17.3333 17.6667 17.3333C17.8102 17.3333 17.8856 17.3329 17.9395 17.3292L17.9409 17.3268C17.9536 17.3038 17.8568 17.1789 17.8438 17.158C17.2956 16.2749 16.5524 15.5814 15.7008 15.1536C15.3718 14.9884 15.2391 14.5877 15.4043 14.2586Z" fill="#444CE7"/>
<path fill-rule="evenodd" clip-rule="evenodd" d="M14.0697 6.01513C14.2336 5.68541 14.6337 5.55095 14.9634 5.71481C16.1691 6.314 17.0001 7.55934 17.0001 8.99998C17.0001 10.4406 16.1691 11.686 14.9634 12.2851C14.6337 12.449 14.2336 12.3145 14.0697 11.9848C13.9059 11.6551 14.0403 11.255 14.37 11.0911C15.14 10.7085 15.6667 9.91515 15.6667 8.99998C15.6667 8.08481 15.14 7.29144 14.37 6.90883C14.0403 6.74497 13.9059 6.34485 14.0697 6.01513Z" fill="#444CE7"/>
<path fill-rule="evenodd" clip-rule="evenodd" d="M6.66673 8.99998C6.66673 6.97494 8.30835 5.33331 10.3334 5.33331C12.3584 5.33331 14.0001 6.97494 14.0001 8.99998C14.0001 11.025 12.3584 12.6666 10.3334 12.6666C8.30835 12.6666 6.66673 11.025 6.66673 8.99998Z" fill="#444CE7"/>
<path fill-rule="evenodd" clip-rule="evenodd" d="M10.3334 13.3333C12.4642 13.3333 14.3691 14.5361 15.5315 16.2801C15.6339 16.4337 15.7431 16.5976 15.8194 16.7533C15.9113 16.9407 15.9773 17.156 15.9619 17.4132C15.9496 17.6183 15.8816 17.8086 15.8007 17.9597C15.7198 18.1107 15.5991 18.2728 15.4352 18.3968C15.2157 18.5628 14.9791 18.621 14.77 18.6453C14.5858 18.6667 14.3677 18.6667 14.148 18.6667C11.6059 18.6662 9.06185 18.6662 6.51877 18.6667C6.29908 18.6667 6.08098 18.6667 5.89682 18.6453C5.68769 18.621 5.4511 18.5628 5.23155 18.3968C5.06767 18.2728 4.94702 18.1107 4.86612 17.9597C4.78523 17.8086 4.71719 17.6183 4.70488 17.4132C4.68945 17.156 4.75545 16.9407 4.84734 16.7533C4.92369 16.5976 5.0329 16.4337 5.13531 16.2801C6.2977 14.5361 8.20257 13.3333 10.3334 13.3333Z" fill="#444CE7"/>
</svg>
