<svg width="16" height="16" viewBox="0 0 16 16" fill="none" xmlns="http://www.w3.org/2000/svg">
  <path d="M2.66667 6.17435C2.66667 5.98785 2.66667 5.89459 2.69021 5.80837C2.71107 5.73198 2.74537 5.65992 2.7915 5.59556C2.84357 5.52292 2.91595 5.46411 3.0607 5.3465L7.3274 1.87983C7.56713 1.68502 7.687 1.58762 7.82027 1.55031C7.93787 1.51741 8.06213 1.51741 8.17973 1.55031C8.313 1.58762 8.43287 1.68502 8.6726 1.87983L12.9393 5.3465C13.0841 5.46411 13.1564 5.52292 13.2085 5.59556C13.2547 5.65992 13.2889 5.73198 13.3098 5.80837C13.3333 5.89459 13.3333 5.98785 13.3333 6.17435V12.2667C13.3333 12.64 13.3333 12.8267 13.2607 12.9693C13.1967 13.0947 13.0948 13.1967 12.9693 13.2607C12.8267 13.3333 12.6401 13.3333 12.2667 13.3333H3.73333C3.35997 13.3333 3.17328 13.3333 3.03067 13.2607C2.90523 13.1967 2.80325 13.0947 2.73933 12.9693C2.66667 12.8267 2.66667 12.64 2.66667 12.2667V6.17435Z" stroke="currentColor" stroke-width="1.5" stroke-linejoin="round"/>
  <path d="M10 13.3333V9.66667C10 9.11438 9.55228 8.66667 9 8.66667H7C6.44772 8.66667 6 9.11438 6 9.66667V13.3333" stroke="currentColor" stroke-width="1.5"/>
</svg>
