<svg width="24" height="24" viewBox="0 0 24 24" fill="none" xmlns="http://www.w3.org/2000/svg">
  <path d="M12 15.25C12.4142 15.25 12.75 15.5858 12.75 16V16.0098C12.75 16.424 12.4142 16.7598 12 16.7598C11.5858 16.7598 11.25 16.424 11.25 16.0098V16C11.25 15.5858 11.5858 15.25 12 15.25Z" fill="currentColor"/>
  <path d="M14 7.25C14.4142 7.25 14.75 7.58579 14.75 8V10.5C14.75 10.7359 14.6389 10.958 14.4502 11.0996L12.75 12.374V13C12.75 13.4142 12.4142 13.75 12 13.75C11.5858 13.75 11.25 13.4142 11.25 13V12C11.25 11.7641 11.3611 11.542 11.5498 11.4004L13.25 10.125V8.75H10.75V9C10.75 9.41421 10.4142 9.75 10 9.75C9.58579 9.75 9.25 9.41421 9.25 9V8C9.25 7.58579 9.58579 7.25 10 7.25H14Z" fill="currentColor"/>
</svg>
