<svg width="20" height="20" viewBox="0 0 20 20" fill="none" xmlns="http://www.w3.org/2000/svg">
  <g transform="translate(-5.5 -7.3)">
    <path d="M14.449 8.37314C15.0613 7.87562 15.9387 7.87562 16.551 8.37314L22.3843 13.1127C22.7738 13.4292 23 13.9044 23 14.4063V22.7596C23 23.6801 22.2538 24.4263 21.3333 24.4263H18.8333V17.7599C18.8333 17.2997 18.4602 16.9266 18 16.9266H13C12.5398 16.9266 12.1667 17.2997 12.1667 17.7599V24.4263H9.66667C8.74619 24.4263 8 23.6801 8 22.7596V14.4063C8 13.9044 8.22616 13.4292 8.61568 13.1127L14.449 8.37314Z" fill="currentColor"/>
    <path d="M13.833 24.4263H17.1663V18.5933H13.833V24.4263Z" fill="currentColor"/>
  </g>
</svg>
