<svg width="20" height="20" viewBox="0 0 20 20" fill="none" xmlns="http://www.w3.org/2000/svg">
  <path d="M3.33301 7.71788C3.33301 7.48475 3.33301 7.36818 3.36243 7.2604C3.38851 7.16492 3.43138 7.07484 3.48905 6.99439C3.55414 6.90359 3.64461 6.83008 3.82555 6.68307L9.15892 2.34973C9.45859 2.10622 9.60842 1.98447 9.77501 1.93783C9.92201 1.8967 10.0773 1.8967 10.2243 1.93783C10.3909 1.98447 10.5408 2.10622 10.8404 2.34973L16.1738 6.68307C16.3548 6.83008 16.4452 6.90359 16.5103 6.99439C16.568 7.07484 16.6108 7.16492 16.6369 7.2604C16.6663 7.36818 16.6663 7.48475 16.6663 7.71788V15.3333C16.6663 15.7999 16.6663 16.0334 16.5755 16.2116C16.4956 16.3684 16.3682 16.4959 16.2113 16.5758C16.0331 16.6666 15.7998 16.6666 15.333 16.6666H4.66634C4.19963 16.6666 3.96627 16.6666 3.78802 16.5758C3.63122 16.4959 3.50373 16.3684 3.42383 16.2116C3.33301 16.0334 3.33301 15.7999 3.33301 15.3333V7.71788Z" stroke="currentColor" stroke-width="1.5" stroke-linejoin="round"/>
  <path d="M12.5 16.6666V11.8333C12.5 11.281 12.0523 10.8333 11.5 10.8333H8.5C7.94772 10.8333 7.5 11.281 7.5 11.8333V16.6666" stroke="currentColor" stroke-width="1.5"/>
</svg>
