<svg width="20" height="20" viewBox="0 0 20 20" fill="none" xmlns="http://www.w3.org/2000/svg">
  <g transform="translate(-6.33 -5.55)">
    <path d="M9.66602 8.83333C9.66602 8.3731 10.0391 8 10.4993 8H14.666C15.1263 8 15.4993 8.3731 15.4993 8.83333V10.5H9.66602V8.83333Z" fill="currentColor"/>
    <path d="M17.166 8.83333C17.166 8.3731 17.5391 8 17.9993 8H22.166C22.6263 8 22.9993 8.3731 22.9993 8.83333V10.5H17.166V8.83333Z" fill="currentColor"/>
    <path d="M8 13.0001C8 12.5398 8.3731 12.1667 8.83333 12.1667H23.8333C24.2936 12.1667 24.6667 12.5398 24.6667 13.0001V21.3334C24.6667 21.7937 24.2936 22.1667 23.8333 22.1667H8.83333C8.3731 22.1667 8 21.7937 8 21.3334V13.0001Z" fill="currentColor"/>
  </g>
</svg>
