<svg width="20" height="20" viewBox="0 0 20 20" fill="none" xmlns="http://www.w3.org/2000/svg">
  <path d="M2.5 7.50008C2.5 7.03984 2.8731 6.66675 3.33333 6.66675H16.6667C17.1269 6.66675 17.5 7.03985 17.5 7.50008V15.0001C17.5 15.4603 17.1269 15.8334 16.6667 15.8334H3.33333C2.8731 15.8334 2.5 15.4603 2.5 15.0001V7.50008Z" stroke="currentColor" stroke-width="1.5" stroke-linecap="round" stroke-linejoin="round"/>
  <path d="M4.16699 6.66659V4.58325C4.16699 3.89289 4.72663 3.33325 5.41699 3.33325H7.08366C7.77402 3.33325 8.33366 3.89289 8.33366 4.58325V6.66659" stroke="currentColor" stroke-width="1.5" stroke-linecap="round" stroke-linejoin="round"/>
  <path d="M11.667 6.66659V4.16659C11.667 3.70635 12.0401 3.33325 12.5003 3.33325H15.0003C15.4606 3.33325 15.8337 3.70635 15.8337 4.16659V6.66659" stroke="currentColor" stroke-width="1.5" stroke-linecap="round" stroke-linejoin="round"/>
</svg>
