<svg width="20" height="20" viewBox="0 0 20 20" fill="none" xmlns="http://www.w3.org/2000/svg">
  <g transform="translate(-4.667 -6.333)">
    <path fill-rule="evenodd" clip-rule="evenodd" d="M10.5 8C9.11929 8 8 9.11929 8 10.5V22.1667C8 23.5474 9.11929 24.6667 10.5 24.6667H20.5C20.9602 24.6667 21.3333 24.2936 21.3333 23.8333V8.83333C21.3333 8.3731 20.9602 8 20.5 8H10.5ZM9.66667 22.1667C9.66667 22.6269 10.0398 23 10.5 23H19.6667V21.3333H10.5C10.0398 21.3333 9.66667 21.7064 9.66667 22.1667ZM12.1667 11.3333C11.7064 11.3333 11.3333 11.7064 11.3333 12.1667C11.3333 12.6269 11.7064 13 12.1667 13H17.1667C17.6269 13 18 12.6269 18 12.1667C18 11.7064 17.6269 11.3333 17.1667 11.3333H12.1667ZM11.3333 15.5C11.3333 15.0397 11.7064 14.6667 12.1667 14.6667H14.6667C15.1269 14.6667 15.5 15.0397 15.5 15.5C15.5 15.9602 15.1269 16.3333 14.6667 16.3333H12.1667C11.7064 16.3333 11.3333 15.9602 11.3333 15.5Z" fill="currentColor"/>
  </g>
</svg>
