<svg width="20" height="20" viewBox="0 0 20 20" fill="none" xmlns="http://www.w3.org/2000/svg">
  <g transform="translate(-6.3 -5.5)">
    <path fill-rule="evenodd" clip-rule="evenodd" d="M9.25369 8.58477C9.3624 8.23688 9.6846 8 10.0491 8H22.5491C22.9136 8 23.2357 8.23688 23.3445 8.58477L24.4481 12.1162C24.8042 13.256 24.5023 14.4059 23.7991 15.2164V22.1667C23.7991 22.6269 23.426 23 22.9657 23H9.63242C9.17219 23 8.79909 22.6269 8.79909 22.1667V15.2164C8.09588 14.4059 7.79393 13.256 8.15013 12.1162L9.25369 8.58477ZM18.0271 12.7092L17.6467 9.66667H14.9514L14.5711 12.7092C14.4412 13.7486 15.2516 14.6667 16.2991 14.6667C17.3465 14.6667 18.1568 13.7485 18.0271 12.7092ZM13.2718 9.66667H10.6617L9.74093 12.6133C9.42266 13.6317 10.1835 14.6667 11.2505 14.6667C12.0482 14.6667 12.721 14.0728 12.82 13.2812L13.2718 9.66667ZM19.3264 9.66667L19.6809 12.5025L19.7782 13.2812C19.8772 14.0728 20.55 14.6667 21.3477 14.6667C22.4147 14.6667 23.1755 13.6317 22.8572 12.6133L21.9364 9.66667H19.3264Z" fill="currentColor"/>
  </g>
</svg>
