<svg width="20" height="20" viewBox="0 0 20 20" fill="none" xmlns="http://www.w3.org/2000/svg">
  <path d="M16.667 9.99992V16.6666H3.33366V9.99992M7.91699 3.33325H12.0837M7.91699 3.33325L7.44543 7.10578C7.25334 8.6425 8.45158 9.99992 10.0003 9.99992C11.5491 9.99992 12.7473 8.6425 12.5552 7.10578L12.0837 3.33325M7.91699 3.33325H3.75033L2.64677 6.86465C2.16081 8.41975 3.32257 9.99992 4.95179 9.99992C6.1697 9.99992 7.19703 9.093 7.34809 7.88451L7.91699 3.33325ZM12.0837 3.33325H16.2503L17.3539 6.86465C17.8398 8.41975 16.6781 9.99992 15.0489 9.99992C13.831 9.99992 12.8037 9.093 12.6526 7.88451L12.0837 3.33325Z" stroke="currentColor" stroke-width="1.5" stroke-linecap="square" stroke-linejoin="round"/>
</svg>
