<svg width="24" height="24" viewBox="0 0 24 24" fill="none" xmlns="http://www.w3.org/2000/svg">
  <path d="M12.0004 1.875C17.0398 1.87509 21.1246 5.9602 21.1249 10.9995C21.1249 13.1138 20.4037 15.0582 19.1972 16.6055L21.7958 19.2041C22.235 19.6433 22.2348 20.3556 21.7958 20.7949C21.3565 21.2343 20.6443 21.2343 20.205 20.7949L17.6064 18.1963C16.3417 19.1831 14.8123 19.8466 13.14 20.0552C12.5235 20.132 11.9616 19.6932 11.8847 19.0767C11.8081 18.4603 12.2454 17.8981 12.8617 17.8213C16.2516 17.3983 18.8749 14.5044 18.8749 10.9995C18.8746 7.20283 15.7971 4.12509 12.0004 4.125C8.4954 4.12505 5.60139 6.74948 5.17862 10.1396C5.10154 10.7559 4.53955 11.1934 3.92325 11.1167C3.30688 11.0398 2.86963 10.4777 2.9462 9.86133C3.50765 5.35896 7.34631 1.87505 12.0004 1.875Z" fill="currentColor"/>
  <path d="M3.70727 16.1747L7.91781 11.2624C8.24038 10.8861 8.85505 11.158 8.79357 11.6498L8.49979 14.0001H10.9127C11.3399 14.0001 11.5703 14.5012 11.2923 14.8255L7.08177 19.7378C6.7592 20.1141 6.14453 19.8422 6.20601 19.3504L6.49979 17.0001H4.0869C3.65972 17.0001 3.42927 16.499 3.70727 16.1747Z" fill="currentColor"/>
</svg>
