<svg width="18" height="18" viewBox="0 0 18 18" fill="none" xmlns="http://www.w3.org/2000/svg">
<path d="M11.9362 1.5C12.4177 1.50006 12.8411 1.81975 12.9727 2.28296L15.4651 11.061C15.5117 11.2251 15.6125 11.3687 15.7515 11.4675L16.1235 11.7319C16.3544 11.8963 16.4728 12.1769 16.4297 12.4571L15.9206 15.7669C15.8394 16.2948 15.2475 16.5708 14.7905 16.2942L12.8006 15.0893C12.6837 15.0186 12.5618 14.9546 12.4307 14.9165C12.2411 14.8615 12.0443 14.833 11.8462 14.833C10.6885 14.833 9.75 13.8945 9.75 12.7368V9.14722C9.75 8.23747 10.4875 7.5 11.3972 7.5C11.5688 7.5 11.7164 7.62113 11.7503 7.78928L12.3824 10.9483L12.4043 11.0215C12.4721 11.182 12.6457 11.2781 12.8233 11.2427C13.0009 11.2072 13.1242 11.0515 13.125 10.8772L13.1177 10.8017L12.4856 7.6428C12.3818 7.12384 11.9265 6.75002 11.3972 6.75C11.08 6.75 10.7771 6.81165 10.5 6.92359V2.93628C10.5 2.14312 11.1431 1.5 11.9362 1.5Z" fill="currentColor"/>
<path d="M2.28761 11.1211C2.263 11.2855 2.25026 11.4538 2.25026 11.625C2.25026 13.3862 3.59948 14.8313 5.32057 14.9854L3.0757 16.3674C2.65801 16.6245 2.10961 16.418 1.96534 15.9492L0.926773 12.5742C0.823558 12.2388 0.967018 11.876 1.27174 11.7019L2.28761 11.1211Z" fill="currentColor"/>
<path d="M6.42041 1.5C7.01664 1.5 7.49997 1.98337 7.49997 2.57959V8.81835C6.96373 8.4594 6.31878 8.25 5.62501 8.25C4.91854 8.25 4.26271 8.46705 3.7207 8.83815L5.01124 2.6455C5.15039 1.97822 5.73876 1.50007 6.42041 1.5Z" fill="currentColor"/>
<path fill-rule="evenodd" clip-rule="evenodd" d="M5.625 9C7.07475 9 8.25 10.1753 8.25 11.625C8.25 13.0747 7.07475 14.25 5.625 14.25C4.17525 14.25 3 13.0747 3 11.625C3 10.1753 4.17525 9 5.625 9ZM5.625 10.875C5.21078 10.875 4.875 11.2108 4.875 11.625C4.875 12.0392 5.21078 12.375 5.625 12.375C6.03921 12.375 6.375 12.0392 6.375 11.625C6.375 11.2108 6.03921 10.875 5.625 10.875Z" fill="currentColor"/>
</svg>
