<svg width="18" height="18" viewBox="0 0 18 18" fill="none" xmlns="http://www.w3.org/2000/svg">
<path d="M7.875 11.8125C7.875 13.1587 6.7837 14.25 5.4375 14.25C4.0913 14.25 3 13.1587 3 11.8125C3 10.4663 4.0913 9.375 5.4375 9.375C6.7837 9.375 7.875 10.4663 7.875 11.8125Z" stroke="currentColor" stroke-width="1.5" stroke-linecap="round" stroke-linejoin="round"/>
<path d="M2.25 15.75L5.625 14.25" stroke="currentColor" stroke-width="1.5" stroke-linecap="round" stroke-linejoin="round"/>
<path d="M1.5 11.25L3 10.875" stroke="currentColor" stroke-width="1.5" stroke-linecap="round" stroke-linejoin="round"/>
<path d="M5.41699 12.5625C5.83121 12.5625 6.16699 12.2267 6.16699 11.8125C6.16699 11.3983 5.83121 11.0625 5.41699 11.0625C5.00278 11.0625 4.66699 11.3983 4.66699 11.8125C4.66699 12.2267 5.00278 12.5625 5.41699 12.5625Z" fill="currentColor"/>
<path d="M13.125 11.25L12.4956 8.10292C12.4255 7.75237 12.1177 7.5 11.7601 7.5H11.625C10.7966 7.5 10.125 8.17155 10.125 9V12.3939C10.125 13.419 10.956 14.25 11.9811 14.25C12.2408 14.25 12.4976 14.3045 12.7349 14.41L15.75 15.75" stroke="currentColor" stroke-width="1.5" stroke-linecap="round" stroke-linejoin="round"/>
<path d="M10.875 7.5V3.75C10.875 2.92157 11.5466 2.25 12.375 2.25H12.5394C12.8836 2.25 13.1836 2.48422 13.267 2.81811L15.3332 11.0833L16.5 11.625" stroke="currentColor" stroke-width="1.5" stroke-linecap="round" stroke-linejoin="round"/>
<path d="M7.125 9.75V3C7.125 2.58579 6.78921 2.25 6.375 2.25H5.52089C5.14964 2.25 4.83426 2.5216 4.77919 2.88875L3.75 9.75" stroke="currentColor" stroke-width="1.5" stroke-linecap="round" stroke-linejoin="round"/>
</svg>
