<svg width="20" height="20" viewBox="0 0 20 20" fill="none" xmlns="http://www.w3.org/2000/svg">
  <g transform="translate(-7.14 -5.08)">
    <path d="M13.7969 17.1665C14.465 17.1665 15.1067 17.2803 15.7045 17.4872L14.7247 20.9165H12.9636C11.8131 20.9167 10.8803 21.8493 10.8803 22.9998C10.8803 23.2963 10.9436 23.5778 11.0552 23.8332H8.79695C8.33682 23.833 7.95953 23.4587 8.00349 23.0007C8.30296 19.8813 10.2937 17.1666 13.7969 17.1665Z" fill="currentColor"/>
    <path d="M25.4632 16.3333C25.7246 16.3333 25.9715 16.4558 26.1289 16.6645C26.2668 16.8473 26.3224 17.0777 26.286 17.3008L26.2648 17.3953L24.5981 23.2286C24.4959 23.5863 24.1686 23.8333 23.7965 23.8333H12.9632C12.5031 23.8331 12.1299 23.4601 12.1299 22.9999C12.1299 22.5398 12.5031 22.1668 12.9632 22.1666H15.6675L17.1616 16.9379L17.2105 16.8093C17.3465 16.5223 17.6376 16.3333 17.9632 16.3333H25.4632Z" fill="currentColor"/>
    <path d="M14.2132 9.25C16.0541 9.25 17.5465 10.7424 17.5465 12.5833C17.5465 14.4243 16.0541 15.9167 14.2132 15.9167C12.3724 15.9165 10.8799 14.4242 10.8799 12.5833C10.8799 10.7425 12.3724 9.25013 14.2132 9.25Z" fill="currentColor"/>
    <path d="M22.5474 8C22.7539 8.00029 22.9276 8.15533 22.951 8.36052C23.0941 9.62402 23.8103 10.3975 25.093 10.5114C25.3029 10.53 25.4635 10.7067 25.4632 10.9175C25.4628 11.128 25.3019 11.3037 25.0921 11.3219C23.8276 11.4314 23.0613 12.1977 22.9518 13.4622C22.9335 13.672 22.758 13.833 22.5474 13.8333C22.3367 13.8336 22.1609 13.6728 22.1421 13.4631C22.0281 12.1805 21.2546 11.4635 19.9912 11.3203C19.786 11.2971 19.6303 11.124 19.6299 10.9175C19.6297 10.7108 19.7851 10.5367 19.9904 10.513C21.2719 10.3651 21.9951 9.64128 22.1429 8.3597C22.1667 8.15453 22.3408 7.99979 22.5474 8Z" fill="currentColor"/>
  </g>
</svg>
