<svg width="20" height="20" viewBox="0 0 20 20" fill="none" xmlns="http://www.w3.org/2000/svg">
  <path d="M15.8206 2.0275C15.7973 1.82217 15.6238 1.66696 15.4171 1.66675C15.2104 1.66654 15.0365 1.82139 15.0128 2.02667C14.865 3.30836 14.1416 4.03176 12.8599 4.17959C12.6547 4.20326 12.4998 4.37719 12.5 4.58383C12.5003 4.79047 12.6554 4.96408 12.8608 4.98733C14.1243 5.13046 14.8978 5.84689 15.0117 7.12955C15.0304 7.33946 15.2064 7.50032 15.4171 7.50008C15.6278 7.49984 15.8035 7.33859 15.8217 7.12863C15.9311 5.86411 16.6973 5.09787 17.9619 4.98841C18.1718 4.97023 18.3331 4.79461 18.3333 4.58387C18.3336 4.37313 18.1728 4.19715 17.9628 4.17851C16.6802 4.06457 15.9637 3.29101 15.8206 2.0275Z" fill="currentColor"/>
  <path d="M7.29167 9.16659C8.9025 9.16659 10.2083 7.86075 10.2083 6.24992C10.2083 4.63909 8.9025 3.33325 7.29167 3.33325C5.68084 3.33325 4.375 4.63909 4.375 6.24992C4.375 7.86075 5.68084 9.16659 7.29167 9.16659Z" stroke="currentColor" stroke-width="1.5"/>
  <path d="M1.66699 16.6667C1.66699 13.9053 3.90557 11.6667 6.66699 11.6667H7.08366" stroke="currentColor" stroke-width="1.5" stroke-linecap="round" stroke-linejoin="round"/>
  <path d="M9.16634 16.6666L10.833 10.8333H18.333L16.6663 16.6666H9.16634ZM9.16634 16.6666H5.83301" stroke="currentColor" stroke-width="1.5" stroke-linecap="round" stroke-linejoin="round"/>
</svg>
