<svg width="16" height="16" viewBox="0 0 16 16" fill="none" xmlns="http://www.w3.org/2000/svg">
  <g transform="translate(2 2.333)">
    <path d="M1.33333 2.33333C1.33333 1.78105 1.78105 1.33333 2.33333 1.33333C2.88562 1.33333 3.33333 1.78105 3.33333 2.33333C3.33333 2.88562 2.88562 3.33333 2.33333 3.33333C1.78105 3.33333 1.33333 2.88562 1.33333 2.33333ZM2.33333 0C1.04467 0 0 1.04467 0 2.33333C0 3.622 1.04467 4.66667 2.33333 4.66667C3.622 4.66667 4.66667 3.622 4.66667 2.33333C4.66667 1.04467 3.622 0 2.33333 0ZM6 3H11.3333V1.66667H6V3ZM8.66667 9C8.66667 8.44773 9.1144 8 9.66667 8C10.2189 8 10.6667 8.44773 10.6667 9C10.6667 9.55227 10.2189 10 9.66667 10C9.1144 10 8.66667 9.55227 8.66667 9ZM9.66667 6.66667C8.378 6.66667 7.33333 7.71133 7.33333 9C7.33333 10.2887 8.378 11.3333 9.66667 11.3333C10.9553 11.3333 12 10.2887 12 9C12 7.71133 10.9553 6.66667 9.66667 6.66667ZM0.666667 8.33333V9.66667H6V8.33333H0.666667Z" fill="currentColor"/>
  </g>
</svg>
