<svg width="18" height="18" viewBox="0 0 18 18" fill="none" xmlns="http://www.w3.org/2000/svg">
<g id="github">
<path id="Vector" d="M9 1.125C4.64906 1.125 1.125 4.64906 1.125 9C1.125 12.4847 3.37922 15.428 6.50953 16.4714C6.90328 16.5403 7.05094 16.3041 7.05094 16.0973C7.05094 15.9103 7.04109 15.2902 7.04109 14.6306C5.0625 14.9948 4.55062 14.1483 4.39312 13.7053C4.30453 13.4789 3.92063 12.78 3.58594 12.593C3.31031 12.4453 2.91656 12.0811 3.57609 12.0712C4.19625 12.0614 4.63922 12.6422 4.78688 12.8784C5.49563 14.0695 6.62766 13.7348 7.08047 13.5281C7.14938 13.0163 7.35609 12.6717 7.5825 12.4748C5.83031 12.278 3.99938 11.5987 3.99938 8.58656C3.99938 7.73016 4.30453 7.02141 4.80656 6.47016C4.72781 6.27328 4.45219 5.46609 4.88531 4.38328C4.88531 4.38328 5.54484 4.17656 7.05094 5.19047C7.68094 5.01328 8.35031 4.92469 9.01969 4.92469C9.68906 4.92469 10.3584 5.01328 10.9884 5.19047C12.4945 4.16672 13.1541 4.38328 13.1541 4.38328C13.5872 5.46609 13.3116 6.27328 13.2328 6.47016C13.7348 7.02141 14.04 7.72031 14.04 8.58656C14.04 11.6086 12.1992 12.278 10.447 12.4748C10.7325 12.7209 10.9786 13.1934 10.9786 13.9317C10.9786 14.985 10.9688 15.8316 10.9688 16.0973C10.9688 16.3041 11.1164 16.5502 11.5102 16.4714C13.0735 15.9436 14.432 14.9389 15.3943 13.5986C16.3567 12.2583 16.8746 10.65 16.875 9C16.875 4.64906 13.3509 1.125 9 1.125Z" fill="#24292F"/>
</g>
</svg>
