<svg width="16" height="16" viewBox="0 0 16 16" fill="none" xmlns="http://www.w3.org/2000/svg">
<g id="lock">
<path id="Vector" fill-rule="evenodd" clip-rule="evenodd" d="M8 1.75C6.27411 1.75 4.875 3.14911 4.875 4.875V6.125C3.83947 6.125 3 6.96444 3 8V12.375C3 13.4106 3.83947 14.25 4.875 14.25H11.125C12.1606 14.25 13 13.4106 13 12.375V8C13 6.96444 12.1606 6.125 11.125 6.125V4.875C11.125 3.14911 9.72587 1.75 8 1.75ZM9.875 6.125V4.875C9.875 3.83947 9.03556 3 8 3C6.96444 3 6.125 3.83947 6.125 4.875V6.125H9.875ZM8 8.625C8.34519 8.625 8.625 8.90481 8.625 9.25V11.125C8.625 11.4702 8.34519 11.75 8 11.75C7.65481 11.75 7.375 11.4702 7.375 11.125V9.25C7.375 8.90481 7.65481 8.625 8 8.625Z" fill="#155AEF"/>
</g>
</svg>
