<svg width="14" height="14" viewBox="0 0 14 14" fill="none" xmlns="http://www.w3.org/2000/svg">
<g id="sparkles-soft">
<path id="Vector" opacity="0.5" d="M10.9963 1.36798C10.9839 1.25339 10.8909 1.16677 10.7802 1.16666C10.6695 1.16654 10.5763 1.25295 10.5636 1.36752C10.5045 1.90085 10.3525 2.26673 10.1143 2.5149C9.87599 2.76307 9.52476 2.92145 9.01275 2.98296C8.90277 2.99618 8.81983 3.09324 8.81995 3.20856C8.82006 3.32388 8.90322 3.42076 9.0132 3.43373C9.51653 3.49312 9.87583 3.65148 10.1201 3.90135C10.3631 4.14986 10.518 4.51523 10.563 5.04321C10.573 5.16035 10.6673 5.25012 10.7802 5.24999C10.8931 5.24986 10.9872 5.15987 10.9969 5.0427C11.0401 4.52364 11.1949 4.15004 11.4394 3.89528C11.684 3.64052 12.0426 3.47926 12.5409 3.43433C12.6534 3.42419 12.7398 3.32619 12.7399 3.20858C12.7401 3.09097 12.6539 2.99277 12.5414 2.98236C12.0346 2.93546 11.6838 2.77407 11.4452 2.52098C11.2054 2.2665 11.0533 1.89229 10.9963 1.36798Z" fill="#F5F8FF"/>
<path id="Vector_2" d="M7.13646 2.85102C7.10442 2.55638 6.8653 2.33365 6.5806 2.33334C6.29595 2.33304 6.05633 2.55526 6.02374 2.84984C5.87186 4.22127 5.48089 5.1621 4.86827 5.80025C4.25565 6.43838 3.35245 6.84566 2.03587 7.00386C1.75307 7.03781 1.53975 7.28742 1.54004 7.58393C1.54033 7.88049 1.75415 8.12958 2.03701 8.16294C3.33132 8.31566 4.25509 8.72289 4.88328 9.36543C5.50807 10.0045 5.90647 10.9439 6.02222 12.3016C6.04793 12.6029 6.29035 12.8337 6.58066 12.8333C6.87102 12.833 7.11294 12.6016 7.13797 12.3003C7.24885 10.9656 7.64695 10.0049 8.27583 9.34979C8.90477 8.69471 9.82698 8.28002 11.1083 8.16452C11.3976 8.13844 11.6197 7.88644 11.62 7.58399C11.6204 7.28159 11.3988 7.02906 11.1096 7.00229C9.8062 6.88171 8.90432 6.46673 8.29084 5.81589C7.674 5.16152 7.28306 4.19926 7.13646 2.85102Z" fill="#F5F8FF"/>
</g>
</svg>
