<svg xmlns="http://www.w3.org/2000/svg" width="16" height="17" viewBox="0 0 16 17" fill="none">
  <path fill-rule="evenodd" clip-rule="evenodd" d="M2.6665 1.16667C1.56193 1.16667 0.666504 2.0621 0.666504 3.16667C0.666504 4.27124 1.56193 5.16667 2.6665 5.16667C2.79161 5.16667 2.91403 5.15519 3.03277 5.13321C2.3808 6.09319 1.99984 7.25211 1.99984 8.5C1.99984 9.7479 2.3808 10.9068 3.03277 11.8668C2.91403 11.8448 2.79161 11.8333 2.6665 11.8333C1.56193 11.8333 0.666504 12.7288 0.666504 13.8333C0.666504 14.9379 1.56193 15.8333 2.6665 15.8333C3.77107 15.8333 4.6665 14.9379 4.6665 13.8333C4.6665 13.7082 4.65502 13.5858 4.63304 13.4671C5.59302 14.119 6.75194 14.5 7.99984 14.5C9.24773 14.5 10.4066 14.119 11.3666 13.4671C11.3447 13.5858 11.3332 13.7082 11.3332 13.8333C11.3332 14.9379 12.2286 15.8333 13.3332 15.8333C14.4377 15.8333 15.3332 14.9379 15.3332 13.8333C15.3332 12.7288 14.4377 11.8333 13.3332 11.8333C13.2081 11.8333 13.0856 11.8448 12.9669 11.8668C13.6189 10.9068 13.9998 9.7479 13.9998 8.5C13.9998 7.25211 13.6189 6.09319 12.9669 5.13321C13.0856 5.15519 13.2081 5.16667 13.3332 5.16667C14.4377 5.16667 15.3332 4.27124 15.3332 3.16667C15.3332 2.0621 14.4377 1.16667 13.3332 1.16667C12.2286 1.16667 11.3332 2.0621 11.3332 3.16667C11.3332 3.29177 11.3447 3.41419 11.3666 3.53293C10.4066 2.88097 9.24773 2.50001 7.99984 2.50001C6.75194 2.50001 5.59302 2.88097 4.63304 3.53293C4.65502 3.41419 4.6665 3.29177 4.6665 3.16667C4.6665 2.0621 3.77107 1.16667 2.6665 1.16667ZM3.38043 7.83334C3.63081 6.08287 4.85262 4.64578 6.48223 4.08565C5.79223 5.22099 5.36488 6.50185 5.23815 7.83334H3.38043ZM6.48228 12.9144C4.85264 12.3543 3.63082 10.9172 3.38043 9.16667H5.23815C5.3649 10.4982 5.79226 11.779 6.48228 12.9144ZM12.6192 9.16667C12.3689 10.9168 11.1475 12.3537 9.5183 12.9141C10.2082 11.7788 10.6355 10.498 10.7622 9.16667H12.6192ZM9.51834 4.08596C11.1475 4.64631 12.3689 6.0832 12.6192 7.83334H10.7622C10.6355 6.50197 10.2082 5.22123 9.51834 4.08596ZM9.4218 7.83334C9.27457 6.52262 8.78381 5.27411 8.00019 4.2145C7.21658 5.27411 6.72582 6.52262 6.57859 7.83334H9.4218ZM6.5786 9.16667C6.72583 10.4774 7.21659 11.7259 8.00019 12.7855C8.7838 11.7259 9.27456 10.4774 9.42179 9.16667H6.5786Z" fill="#DD2590"/>
</svg>