<svg xmlns="http://www.w3.org/2000/svg" width="22" height="23" viewBox="0 0 22 23" fill="none">
  <path d="M21.4992 14.615L17.0326 15.5683L17.4865 20.0065L13.3037 18.2132L10.9994 22.0669L8.69549 18.2132L4.51225 20.0065L4.96656 15.5678L0.5 14.615L3.542 11.2832L0.5 7.9519L4.96656 6.99854L4.51225 2.55981L8.69549 4.35369L10.9994 0.5L13.3037 4.35369L17.4865 2.56031L17.0326 7.00401L21.4992 7.9519L18.4572 11.2832L21.4992 14.615Z" fill="#F16850"/>
  <path d="M10.9993 7.23111L8.69495 4.35315L4.51221 2.56026L7.00396 5.84084L10.9993 7.23111Z" fill="#FD694F"/>
  <path d="M4.96656 6.99847L0.5 7.95183L3.542 11.2831L7.11734 9.9838L4.96656 6.99847Z" fill="#FF3413"/>
  <path d="M7.00346 5.84037L4.51221 2.55978L4.96602 6.99851L7.11729 9.98384L7.00346 5.84037Z" fill="#DC1D23"/>
  <path d="M13.3031 4.35369L10.9987 0.5L8.69434 4.35369L10.9987 7.23116L13.3031 4.35369Z" fill="#FF9281"/>
  <path d="M18.4577 11.2831L21.4997 7.95183L17.0331 6.99847L14.8818 9.9838L18.4577 11.2831Z" fill="#FF8B79"/>
  <path d="M14.8823 9.98384L17.0331 6.99851L17.4929 2.55978L14.9957 5.84037L14.8818 9.98384H14.8823Z" fill="#FD694F"/>
  <path d="M14.9954 5.84034L17.4926 2.55975L13.3044 4.35364L11 7.23111L14.9954 5.84034Z" fill="#EF5240"/>
  <path d="M17.47 13.2694L21.4997 14.6149L18.4577 11.2831L14.8818 9.98383L17.47 13.2694Z" fill="#FF482C"/>
  <path d="M7.11783 9.98383L3.542 11.2831L0.5 14.6149L4.52965 13.2699L7.11783 9.98383Z" fill="#EC2101"/>
  <path d="M11 17.8612V22.0664L13.3044 18.2132L13.4008 14.439L11 17.8612Z" fill="#D21C22"/>
  <path d="M17.4703 13.2693L13.4009 14.4389L17.0334 15.5682L21.4999 14.6149L17.4703 13.2693Z" fill="#C90901"/>
  <path d="M13.3042 18.2132L17.4874 20.0065L17.0331 15.5683L13.4011 14.439L13.3042 18.2132Z" fill="#EC2101"/>
  <path d="M4.52965 13.2693L0.5 14.6154L4.96656 15.5632L8.59906 14.4394L4.52965 13.2703V13.2693Z" fill="#B6171E"/>
  <path d="M8.59912 14.439L8.69555 18.2132L10.9999 22.0669V17.8612L8.59912 14.439Z" fill="#B4151B"/>
  <path d="M4.96602 15.5623L4.51221 20.006L8.69495 18.2131L8.59852 14.439L4.96602 15.5623Z" fill="#D21C22"/>
  <path d="M14.882 9.98384L14.9954 5.84036L11 7.23113V11.2608L14.882 9.98384Z" fill="#E63320"/>
  <path d="M11.0003 7.23113L7.00391 5.84036L7.11773 9.98384L10.9998 11.2608L11.0003 7.23113Z" fill="#FF4527"/>
  <path d="M8.59912 14.439L10.9999 17.8613L13.4007 14.439L10.9999 11.2608L8.59912 14.439Z" fill="#FF9281"/>
  <path d="M11 11.2608L13.4008 14.439L17.4702 13.2699L14.882 9.98386L11 11.2608Z" fill="#FD684D"/>
  <path d="M7.1165 9.9839L4.52832 13.2694L8.59773 14.439L10.9985 11.2608L7.1165 9.9839Z" fill="#FD745C"/>
</svg>