<svg width="13" height="13" viewBox="0 0 13 13" fill="none" xmlns="http://www.w3.org/2000/svg">
<path opacity="0.5" d="M9.75878 1.67256C9.74813 1.57435 9.6684 1.5001 9.5735 1.5C9.47861 1.4999 9.39874 1.57397 9.38789 1.67217C9.33725 2.12931 9.20693 2.44292 9.00273 2.65564C8.79849 2.86835 8.49744 3.00411 8.05857 3.05683C7.9643 3.06816 7.89321 3.15136 7.89331 3.2502C7.89341 3.34905 7.96469 3.43208 8.05896 3.44321C8.49038 3.49411 8.79835 3.62984 9.00773 3.84402C9.216 4.05703 9.34877 4.3702 9.38736 4.82276C9.39595 4.92317 9.47673 5.00011 9.5735 5C9.67027 4.99988 9.75096 4.92276 9.75926 4.82232C9.79627 4.37742 9.92894 4.05719 10.1386 3.83882C10.3482 3.62045 10.6556 3.48223 11.0827 3.44372C11.1792 3.43503 11.2532 3.35103 11.2533 3.25022C11.2534 3.14942 11.1795 3.06524 11.0832 3.05632C10.6487 3.01612 10.3481 2.87779 10.1436 2.66085C9.93797 2.44273 9.80765 2.12197 9.75878 1.67256Z" fill="#FCFCFD"/>
<path d="M6.45025 2.94373C6.42279 2.69117 6.21783 2.50026 5.9738 2.5C5.72982 2.49974 5.52443 2.69021 5.49649 2.94271C5.36631 4.11822 5.0312 4.92465 4.50609 5.47164C3.98098 6.0186 3.20681 6.3677 2.07832 6.5033C1.83592 6.5324 1.65307 6.74635 1.65332 7.0005C1.65357 7.2547 1.83684 7.4682 2.0793 7.4968C3.1887 7.6277 3.9805 7.97675 4.51896 8.5275C5.05449 9.07525 5.39598 9.8805 5.49519 11.0442C5.51722 11.3024 5.72502 11.5003 5.97385 11.5C6.22273 11.4997 6.43009 11.3014 6.45154 11.0431C6.54658 9.89905 6.88782 9.07565 7.42686 8.5141C7.96595 7.9526 8.75641 7.59715 9.8547 7.49815C10.1026 7.4758 10.293 7.2598 10.2933 7.00055C10.2936 6.74135 10.1037 6.5249 9.8558 6.50195C8.7386 6.3986 7.96556 6.0429 7.43972 5.48504C6.911 4.92415 6.57591 4.09936 6.45025 2.94373Z" fill="#FCFCFD"/>
</svg>
