<svg id="Layer_2" data-name="Layer 2" xmlns="http://www.w3.org/2000/svg" viewBox="0 0 74 16" width="74" height="16">
  <g id="Layer_1-2" data-name="Layer 1">
    <rect style="fill: none;" y="0" width="74" height="16"/>
    <g id="Arize_-_standard" data-name="Arize - standard">
      <g>
        <path d="M67.29,9.7h-7.52c0,.08,0,.15.01.21.35,1.03,1.03,1.73,2.13,1.92,1.13.19,2.14,0,2.86-1.01.06-.09.19-.18.29-.19.66-.02,1.33,0,1.99,0-.1,1.79-2.59,3.32-5.07,3.14-2.66-.2-4.61-2.53-4.39-5.25.25-3.08,2.44-4.88,5.58-4.56,2.7.27,4.45,2.69,4.12,5.76ZM59.81,7.77h5.3c-.28-1.25-1.36-2.01-2.78-1.98-1.25.03-2.32.87-2.52,1.98Z"/>
        <path style="fill: #ff008c;" d="M13.87,1.69c.4-.02.74.17.99.54,2.03,2.92,4.06,5.85,6.08,8.77.42.61.28,1.33-.29,1.73-.56.39-1.31.24-1.74-.38-1.4-2.01-2.79-4.02-4.19-6.04-.03-.04-.05-.08-.08-.11-.55-.78-1.1-.78-1.64,0-1.41,2.03-2.82,4.06-4.23,6.09-.23.34-.52.59-.93.63-.51.06-.92-.13-1.19-.57-.28-.46-.25-.92.05-1.35.68-.98,1.36-1.96,2.04-2.93,1.34-1.93,2.68-3.85,4.02-5.78.26-.37.59-.6,1.11-.59Z"/>
        <path d="M35.23,13.62h-2.01v-.77c-.07.01-.1,0-.13.02-1.64,1.16-3.39,1.25-5.12.34-1.74-.92-2.47-2.51-2.45-4.45.02-2.17,1.22-3.97,3.1-4.57,1.57-.5,3.09-.45,4.46.62.02.02.06.02.14.05v-.79h2.02v9.54ZM27.57,8.88c0,.11.01.31.03.5.14,1.39,1.18,2.39,2.61,2.51,1.4.12,2.53-.63,2.92-1.97.09-.32.14-.65.15-.98.09-2.15-1.5-3.51-3.56-3.07-1.28.27-2.13,1.43-2.15,3.02Z"/>
        <path d="M53.61,5.93h-4.96v-1.85h7.76c0,.54.01,1.07,0,1.61,0,.12-.12.24-.21.34-1.52,1.79-3.05,3.57-4.57,5.36-.07.09-.14.18-.26.32h5.02v1.91h-7.83c0-.54-.01-1.08,0-1.61,0-.11.11-.22.19-.31,1.55-1.83,3.1-3.65,4.64-5.47.06-.07.11-.14.21-.28Z"/>
        <path d="M39.6,13.69h-2.02V4.15h2.02v1.03c.54-.32,1.04-.68,1.58-.94.57-.28,1.19-.27,1.85-.23v1.96c-.1,0-.2.02-.3.02-1.58.02-2.68.9-3.01,2.46-.08.38-.11.77-.11,1.16-.01,1.24,0,2.47,0,3.71v.38Z"/>
        <path d="M44.74,4.06h1.99v9.56h-1.99V4.06Z"/>
        <path style="fill: #ff008c;" d="M13.82,13.02c.84,0,1.49.64,1.5,1.46,0,.83-.68,1.53-1.5,1.52-.82,0-1.47-.67-1.48-1.5,0-.83.64-1.48,1.47-1.48Z"/>
        <path d="M47.13,1.41c0,.8-.61,1.43-1.39,1.43-.8,0-1.44-.63-1.44-1.43,0-.78.63-1.41,1.42-1.41.79,0,1.41.62,1.41,1.41Z"/>
      </g>
    </g>
  </g>
</svg>