<?xml version="1.0" encoding="UTF-8"?>
<svg width="64px" height="64px" viewBox="0 0 64 64" version="1.1" xmlns="http://www.w3.org/2000/svg" xmlns:xlink="http://www.w3.org/1999/xlink">
    <title>voyage</title>
    <g id="voyage" stroke="none" stroke-width="1" fill="none" fill-rule="evenodd">
        <rect id="矩形" fill="#333333" x="0" y="0" width="64" height="64" rx="12"></rect>
        <path d="M12.1128004,51.4376727 C13.8950799,45.8316747 30.5922254,11.1847688 31.7178757,11.0009656 C32.6559176,10.8171624 45.5070913,36.9172188 51.9795803,52.2647871 C52.1671887,52.6323936 51.0415384,53 49.4468672,53 C47.2893709,53 46.5389374,52.540492 46.5389374,51.4376727 C46.5389374,49.967247 33.2187427,17.8935861 32.8435259,18.3530942 C32.0930924,19.3640118 19.3357228,48.5887229 18.8667019,50.5186566 C18.3038768,52.6323936 17.7410516,53 14.926926,53 C12.2066045,53 11.7375836,52.7242952 12.1128004,51.4376727 Z" id="路径" fill="#FFFFFF" transform="translate(32, 32) scale(1, -1) translate(-32, -32)"></path>
    </g>
</svg>