<svg height="112.906975" viewBox="0 0 112.90697479 112.90697479" width="112.906975" xmlns="http://www.w3.org/2000/svg"><path d="m0 0h112.906975v112.906975h-112.906975z" fill="#6986eb"/><path d="m97.24234 109.8245a2.57759 2.57759 0 0 1 -2.57778 2.57778 9.80672 9.80672 0 0 1 -9.79558-9.79557v-11.02305a2.57779 2.57779 0 0 1 5.15557 0v11.02305a4.64509 4.64509 0 0 0 4.64 4.64 2.57759 2.57759 0 0 1 2.57779 2.57779zm14.95114-16.6015a2.57759 2.57759 0 0 0 -2.57778 2.57779 4.64 4.64 0 1 1 -9.28 0v-22.06525a23.2 23.2 0 1 0 -46.40009 0v22.06522a4.64 4.64 0 1 1 -9.28 0 2.57779 2.57779 0 1 0 -5.15557 0 9.79558 9.79558 0 0 0 19.59115 0v-22.06522a18.04449 18.04449 0 0 1 36.089 0v22.06522a9.79558 9.79558 0 0 0 19.59115 0 2.57759 2.57759 0 0 0 -2.57786-2.57776zm-35.05785-1.443a2.57759 2.57759 0 0 0 -2.57778 2.57778v17.52893a2.57779 2.57779 0 0 0 5.15557 0v-17.52891a2.57759 2.57759 0 0 0 -2.57779-2.5778zm-10.31113-2.77412a2.57759 2.57759 0 0 0 -2.57778 2.57778v11.02305a4.64509 4.64509 0 0 1 -4.64 4.64 2.57778 2.57778 0 1 0 0 5.15556 9.80671 9.80671 0 0 0 9.79557-9.79557v-11.02304a2.57759 2.57759 0 0 0 -2.57779-2.57778zm3.0935-18.87949a3.6089 3.6089 0 1 0 3.6089 3.6089 3.60891 3.60891 0 0 0 -3.6089-3.6089zm18.04448 3.6089a3.6089 3.6089 0 1 0 -3.60889 3.60889 3.60891 3.60891 0 0 0 3.60892-3.60889z" fill="#00001b" transform="translate(-20.682205 -26.043993)"/></svg>