<svg width="12" height="12" viewBox="0 0 12 12" fill="none" xmlns="http://www.w3.org/2000/svg">
<g id="edit-03">
<g id="Solid">
<path fill-rule="evenodd" clip-rule="evenodd" d="M5.50004 10.0001C5.50004 9.72398 5.7239 9.50012 6.00004 9.50012H10.5C10.7762 9.50012 11 9.72398 11 10.0001C11 10.2763 10.7762 10.5001 10.5 10.5001H6.00004C5.7239 10.5001 5.50004 10.2763 5.50004 10.0001Z" fill="#98A2B3"/>
<path fill-rule="evenodd" clip-rule="evenodd" d="M7.89651 1.39656C8.50599 0.787085 9.49414 0.787084 10.1036 1.39656C10.7131 2.00604 10.7131 2.99419 10.1036 3.60367L3.82225 9.88504C3.81235 9.89494 3.80254 9.90476 3.79281 9.91451C3.64909 10.0585 3.52237 10.1855 3.3696 10.2791C3.23539 10.3613 3.08907 10.4219 2.93602 10.4587C2.7618 10.5005 2.58242 10.5003 2.37897 10.5001C2.3652 10.5001 2.35132 10.5001 2.33732 10.5001H1.50005C1.22391 10.5001 1.00005 10.2763 1.00005 10.0001V9.16286C1.00005 9.14886 1.00004 9.13497 1.00003 9.1212C0.999836 8.91776 0.999669 8.73838 1.0415 8.56416C1.07824 8.4111 1.13885 8.26479 1.22109 8.13058C1.31471 7.97781 1.44166 7.85109 1.58566 7.70736C1.5954 7.69764 1.60523 7.68783 1.61513 7.67793L7.89651 1.39656Z" fill="#98A2B3"/>
</g>
</g>
</svg>
