<svg width="300" height="100" viewBox="0 0 300 100" fill="none" xmlns="http://www.w3.org/2000/svg">
<path d="M49.4653 0.800003C22.1583 0.800003 0 22.9189 0 50.2308C0 63.6945 5.38922 75.9079 14.1467 84.8276V50.2789C14.1467 40.8544 17.8277 31.9587 24.4921 25.299C31.1805 18.6153 40.0582 14.9609 49.4894 14.9609C49.5856 14.9609 49.6818 14.9609 49.7781 14.9609L49.4653 14.9849C68.9772 14.9849 84.808 30.8047 84.808 50.303C84.808 52.01 84.6877 53.6689 84.4471 55.3278L64.4781 35.3006C60.4843 31.3096 55.1432 29.0977 49.4894 29.0977C43.8355 29.0977 38.4944 31.3096 34.5006 35.3006C30.4828 39.3157 28.2934 44.629 28.2934 50.303C28.2934 55.9529 30.5068 61.2903 34.5006 65.3053C38.4944 69.2963 43.8355 71.5082 49.4894 71.5082C55.1432 71.5082 60.4843 69.2963 64.4781 65.3053C68.2073 61.5788 70.3485 56.7222 70.6372 51.5051L82.354 63.2617C77.1813 76.3648 64.406 85.6451 49.4653 85.6451C41.7183 85.6451 34.3322 83.1687 28.2693 78.5766V94.9254C34.6931 97.9787 41.8627 99.6857 49.4413 99.6857C76.7482 99.6857 98.9066 77.5669 98.9066 50.2549C98.9306 22.9189 76.7963 0.800003 49.4653 0.800003Z" fill="#1877F2"/>
<path fill-rule="evenodd" clip-rule="evenodd" d="M140.147 78.1637V57.285H154.194C159.052 57.285 162.808 55.8581 165.462 53.0041C168.116 50.1502 169.443 46.32 169.443 41.5134C169.443 36.7068 168.116 32.8765 165.462 30.0226C162.808 27.1687 159.052 25.7417 154.194 25.7417H131.658V78.1637H140.147ZM153.668 49.8498H140.147V33.1769H153.668C155.822 33.1769 157.499 33.7402 158.701 34.8668C159.903 35.9933 160.504 37.608 160.504 39.7109V43.3159C160.504 45.4187 159.903 47.0335 158.701 48.16C157.499 49.2865 155.822 49.8498 153.668 49.8498ZM187.246 57.285V78.1637H178.758V25.7417H201.294C206.151 25.7417 209.907 27.1687 212.562 30.0226C215.216 32.8765 216.543 36.7068 216.543 41.5134C216.543 46.32 215.216 50.1502 212.562 53.0041C209.907 55.8581 206.151 57.285 201.294 57.285H187.246ZM200.768 49.8498H187.246V33.1769H200.768C202.921 33.1769 204.599 33.7402 205.801 34.8668C207.003 35.9933 207.604 37.608 207.604 39.7109V43.3159C207.604 45.4187 207.003 47.0335 205.801 48.16C204.599 49.2865 202.921 49.8498 200.768 49.8498ZM246.44 71.2542V78.1637H223.604V71.2542H230.74V32.6512H223.604V25.7417H246.44V32.6512H239.229V71.2542H246.44ZM277.389 78.1712C280.795 78.1712 283.887 77.6025 286.666 76.4649C289.446 75.3273 291.825 73.6572 293.803 71.4546C295.781 69.252 297.308 66.517 298.385 63.2494C299.462 59.9819 300 56.2181 300 51.9582C300 47.6983 299.462 43.9346 298.385 40.667C297.308 37.3995 295.781 34.6644 293.803 32.4618C291.825 30.2593 289.446 28.5892 286.666 27.4516C283.887 26.314 280.795 25.7452 277.389 25.7452C273.984 25.7452 270.891 26.314 268.112 27.4516C265.333 28.5892 262.954 30.2593 260.976 32.4618C258.998 34.6644 257.47 37.3995 256.393 40.667C255.317 43.9346 254.778 47.6983 254.778 51.9582C254.778 56.2181 255.317 59.9819 256.393 63.2494C257.47 66.517 258.998 69.252 260.976 71.4546C262.954 73.6572 265.333 75.3273 268.112 76.4649C270.891 77.6025 273.984 78.1712 277.389 78.1712ZM271.64 69.586C273.348 70.2548 275.263 70.5892 277.385 70.5892C279.455 70.5892 281.357 70.2548 283.09 69.586C284.824 68.9172 286.299 67.9498 287.515 66.6838C288.731 65.4179 289.676 63.8773 290.349 62.0619C291.022 60.2466 291.358 58.1924 291.358 55.8994V48.017C291.358 45.724 291.022 43.6698 290.349 41.8545C289.676 40.0391 288.731 38.4985 287.515 37.2326C286.299 35.9666 284.824 34.9992 283.09 34.3304C281.357 33.6616 279.455 33.3272 277.385 33.3272C275.263 33.3272 273.348 33.6616 271.64 34.3304C269.932 34.9992 268.47 35.9666 267.254 37.2326C266.038 38.4985 265.093 40.0391 264.421 41.8545C263.748 43.6698 263.411 45.724 263.411 48.017V55.8994C263.411 58.1924 263.748 60.2466 264.421 62.0619C265.093 63.8773 266.038 65.4179 267.254 66.6838C268.47 67.9498 269.932 68.9172 271.64 69.586Z" fill="#222222"/>
</svg>
