<svg width="60" height="60" viewBox="0 0 60 60" fill="none" xmlns="http://www.w3.org/2000/svg">
<path d="M29.7888 0.215881C13.3449 0.215881 0 13.5422 0 29.986C0 38.0916 3.24782 45.4527 8.51506 50.8223V30.0139C8.51506 24.3372 10.7299 18.9769 14.7408 14.966C18.7704 10.9365 24.112 8.74025 29.7981 8.74025H29.9749L29.7888 8.75886C41.5423 8.75886 51.0718 18.2883 51.0718 30.0326C51.0718 31.0562 50.9973 32.0613 50.8577 33.057L38.8343 20.9964C36.4333 18.5954 33.2134 17.2646 29.8074 17.2646C26.4013 17.2646 23.1907 18.5954 20.7805 20.9964C18.3609 23.4159 17.0394 26.6172 17.0394 30.0326C17.0394 33.4479 18.3702 36.6492 20.7805 39.0688C23.1814 41.4697 26.4013 42.8005 29.8074 42.8005C33.2134 42.8005 36.424 41.4697 38.8343 39.0688C41.077 36.826 42.3706 33.8946 42.5474 30.7584L49.6014 37.8403C46.4839 45.7319 38.797 51.3249 29.7981 51.3249C25.1357 51.3249 20.6874 49.8359 17.0301 47.072V56.9178C20.9014 58.7604 25.2195 59.7841 29.7794 59.7841C46.2233 59.7841 59.5682 46.4578 59.5682 30.0139C59.5868 13.5515 46.2512 0.225187 29.7981 0.225187L29.7888 0.215881Z" fill="#0062E2"/>
</svg>
