<svg width="300" height="60" viewBox="0 0 300 60" fill="none" xmlns="http://www.w3.org/2000/svg">
<path d="M29.7888 0.215881C13.3449 0.215881 0 13.5422 0 29.986C0 38.0916 3.24782 45.4527 8.51506 50.8223V30.0139C8.51506 24.3372 10.7299 18.9769 14.7408 14.966C18.7704 10.9365 24.112 8.74025 29.7981 8.74025H29.9749L29.7888 8.75886C41.5423 8.75886 51.0718 18.2883 51.0718 30.0326C51.0718 31.0562 50.9973 32.0613 50.8577 33.057L38.8343 20.9964C36.4333 18.5954 33.2134 17.2646 29.8074 17.2646C26.4013 17.2646 23.1907 18.5954 20.7805 20.9964C18.3609 23.4159 17.0394 26.6172 17.0394 30.0326C17.0394 33.4479 18.3702 36.6492 20.7805 39.0688C23.1814 41.4697 26.4013 42.8005 29.8074 42.8005C33.2134 42.8005 36.424 41.4697 38.8343 39.0688C41.077 36.826 42.3706 33.8946 42.5474 30.7584L49.6014 37.8403C46.4839 45.7319 38.797 51.3249 29.7981 51.3249C25.1357 51.3249 20.6874 49.8359 17.0301 47.072V56.9178C20.9014 58.7604 25.2195 59.7841 29.7794 59.7841C46.2233 59.7841 59.5682 46.4578 59.5682 30.0139C59.5868 13.5515 46.2512 0.225187 29.7981 0.225187L29.7888 0.215881Z" fill="#0062E2"/>
<path fill-rule="evenodd" clip-rule="evenodd" d="M300 10.0431C300 9.49402 299.553 9.04733 299.004 9.04733H188.504C187.955 9.04733 187.508 9.49402 187.508 10.0431V49.9568C187.508 50.5059 187.955 50.9526 188.504 50.9526H299.004C299.553 50.9526 300 50.5059 300 49.9568V10.0431ZM244.499 16.1013H229.367V42.2049C226.975 40.3995 225.272 37.4681 224.053 33.9132C225.357 33.0311 226.802 31.8802 228.249 30.7278C228.588 30.4578 228.927 30.1876 229.265 29.9209L226.994 27.5757C226.045 28.6925 224.611 30.0977 223.253 31.2889C222.694 29.0833 222.238 26.701 221.922 24.2907C223.774 23.8719 225.561 23.3415 227.031 22.8203L224.509 20.2612C222.062 21.3127 217.93 22.2899 214.291 22.8855V40.353C214.291 41.721 213.556 42.3817 212.96 42.6981C213.416 43.3309 214.012 44.6617 214.217 45.3596C214.263 45.3224 214.319 45.2759 214.375 45.2294L214.421 45.1921C214.682 44.9967 215.054 44.7734 215.733 44.429L215.948 44.3267C217.083 43.759 219 42.9028 222.397 41.4418C222.183 40.809 221.875 39.6922 221.764 38.8175L217.111 40.6694V25.2027C217.492 25.1264 217.874 25.0612 218.262 24.995C218.583 24.94 218.909 24.8844 219.242 24.8211C220.331 33.6805 222.499 41.1998 227.254 45.1177C227.729 44.336 228.613 43.2658 229.348 42.605V44.3825H244.433V44.0661C245.029 44.6617 245.625 45.3969 245.969 45.9552C249.086 42.9121 250.799 39.3758 251.776 35.9419C253.172 39.897 255.21 42.9028 258.29 45.6761C258.709 44.8013 259.621 43.7869 260.421 43.1913C256.187 39.7295 254.158 35.6999 252.865 29.0182C252.921 28.297 252.929 27.569 252.936 26.9113C252.937 26.8051 252.938 26.7008 252.939 26.5986V23.7323H249.961V26.2543C249.961 30.8049 249.44 37.6263 244.433 42.9121V41.4046H232.531V38.743C233.192 39.2362 234.001 39.9342 234.383 40.3157C235.993 38.4266 237.463 36.1466 238.831 33.5595C239.985 35.6906 240.934 37.6542 241.558 39.2642L244.359 37.7566C243.521 35.6534 242.116 33.0663 240.404 30.3024C241.772 27.3617 242.889 24.1418 243.838 20.8567L240.934 20.2612C240.302 22.7087 239.501 25.091 238.552 27.3617C237.184 25.2957 235.751 23.267 234.383 21.443L232.531 22.3922V19.0328H244.499V16.1013ZM208.372 17.1436C214.254 16.3805 221.047 15.0777 224.965 13.6818V13.6725L227.589 16.2968C223.113 17.795 216.953 18.8839 211.313 19.619V26.1705C211.294 31.9403 210.69 40.2971 207.042 45.8715C206.483 45.3503 205.19 44.5779 204.454 44.2988C208.019 38.9105 208.372 31.3168 208.372 25.8913V17.1436ZM259.854 25.9379H290.88V29.2601H274.604C272.435 33.2897 269.774 37.1424 267.187 40.2878L283.109 39.1339C281.816 37.1424 280.42 35.1788 279.192 33.4665L282.17 31.8938C285.073 35.7744 288.507 40.7811 290.219 44.001L287.074 45.8901C286.581 44.8385 285.845 43.5822 285.008 42.2142C282.46 42.4272 280.222 42.6126 278.255 42.7757C266.037 43.7883 264.209 43.9398 262.822 44.4849C262.617 43.7497 262.059 41.8978 261.566 40.8462C262.441 40.6415 263.204 39.7667 264.293 38.3987C265.279 37.2727 267.941 33.4572 270.072 29.2601H259.854V25.9379ZM197.763 42.9028C199.373 40.2785 201.653 35.8674 203.403 31.9496L205.534 34.1551C203.989 37.7566 201.998 41.8513 200.248 45.1456L197.763 42.9028ZM237.147 30.5537C235.704 28.1434 234.094 25.7238 232.559 23.5555V37.6914C234.28 35.7372 235.816 33.2804 237.147 30.5537ZM197 25.8355L198.573 23.4159L198.582 23.4252C200.537 24.3 203.198 25.7704 204.566 26.8219L202.919 29.5486C201.653 28.4226 198.992 26.8499 197 25.8355ZM247.849 13.5435C247.151 18.7544 245.68 23.7977 243.261 26.915C243.996 27.2965 245.392 28.1434 245.96 28.5994C247.216 26.8126 248.23 24.5047 249.105 21.8804H256.978C256.485 24.1232 255.861 26.4311 255.294 28.041L257.853 28.8134C258.867 26.4311 259.881 22.69 260.617 19.4329L258.448 18.8001L257.927 18.9025H249.943C250.324 17.3297 250.678 15.6826 250.92 13.9982L247.849 13.5435ZM198.75 16.455L200.36 14.0726V14.0819C202.351 15.0591 205.078 16.669 206.446 17.823L204.734 20.4473C203.44 19.2933 200.741 17.5717 198.75 16.455ZM263.697 16.2037H287.288V19.526H263.697V16.2037ZM84.6574 33.2153V45.7878H84.6481H79.539V14.2123H93.1166C96.0387 14.2123 98.3001 15.0684 99.9007 16.79C101.501 18.5117 102.302 20.8196 102.302 23.7138C102.302 26.6079 101.501 28.9159 99.9007 30.6375C98.3001 32.3591 96.0387 33.2153 93.1166 33.2153H84.6574ZM84.6574 28.7297H92.8002C94.103 28.7297 95.1081 28.3947 95.834 27.7154C96.5598 27.036 96.9228 26.0589 96.9228 24.7933V22.6249C96.9228 21.35 96.5598 20.3822 95.834 19.7028C95.1081 19.0235 94.0937 18.6885 92.8002 18.6885H84.6574V28.7297ZM113.022 33.2153V45.7878H113.013H107.904V14.2123H121.482C124.404 14.2123 126.665 15.0684 128.266 16.79C129.866 18.5117 130.667 20.8196 130.667 23.7138C130.667 26.6079 129.866 28.9159 128.266 30.6375C126.665 32.3591 124.404 33.2153 121.482 33.2153H113.022ZM113.022 28.7297H121.165C122.468 28.7297 123.473 28.3947 124.199 27.7154C124.925 27.036 125.288 26.0589 125.288 24.7933V22.6249C125.288 21.35 124.925 20.3822 124.199 19.7028C123.473 19.0235 122.459 18.6885 121.165 18.6885H113.022V28.7297ZM148.674 41.628V45.7878H134.919V41.628H139.219V18.3814H134.919V14.2216H148.674V18.3814H144.328V41.628H148.674ZM172.898 44.7641C171.232 45.4434 169.361 45.7878 167.314 45.7878C165.267 45.7878 163.405 45.4434 161.73 44.7641C160.055 44.0848 158.622 43.0797 157.431 41.7489C156.24 40.4182 155.318 38.771 154.667 36.8074C154.016 34.8345 153.69 32.5731 153.69 30.0047C153.69 27.4362 154.016 25.1655 154.667 23.2019C155.318 21.2383 156.24 19.5912 157.431 18.2604C158.622 16.9389 160.055 15.9339 161.73 15.2452C163.396 14.5659 165.267 14.2216 167.314 14.2216C169.361 14.2216 171.222 14.5566 172.898 15.2452C174.573 15.9246 176.006 16.9296 177.197 18.2604C178.388 19.5912 179.309 21.2383 179.961 23.2019C180.612 25.1748 180.938 27.4362 180.938 30.0047C180.938 32.5731 180.612 34.8438 179.961 36.8074C179.309 38.771 178.388 40.4182 177.197 41.7489C176.006 43.0704 174.563 44.0848 172.898 44.7641ZM163.852 40.6229C164.885 41.0231 166.039 41.2278 167.314 41.2278C168.561 41.2278 169.706 41.0231 170.748 40.6229C171.79 40.2227 172.674 39.6365 173.409 38.8734C174.135 38.1103 174.712 37.189 175.112 36.0908C175.513 34.9927 175.717 33.755 175.717 32.3777V27.6316C175.717 26.245 175.522 25.0073 175.112 23.9185C174.712 22.8297 174.145 21.8991 173.409 21.136C172.684 20.3729 171.79 19.7866 170.748 19.3864C169.706 18.9863 168.598 18.7815 167.314 18.7815C166.03 18.7815 164.885 18.9863 163.852 19.3864C162.819 19.7866 161.944 20.3729 161.209 21.136C160.483 21.8991 159.916 22.8297 159.506 23.9185C159.106 25.0166 158.901 26.2543 158.901 27.6316V32.3777C158.901 33.7643 159.106 35.002 159.506 36.0908C159.906 37.1796 160.474 38.1103 161.209 38.8734C161.944 39.6365 162.819 40.2227 163.852 40.6229Z" fill="#111111"/>
</svg>
