<svg width="16" height="16" viewBox="0 0 16 16" fill="none" xmlns="http://www.w3.org/2000/svg">
<g id="Icon">
<g id="Icon_2">
<path d="M8.00008 8.66634C8.36827 8.66634 8.66675 8.36786 8.66675 7.99967C8.66675 7.63148 8.36827 7.33301 8.00008 7.33301C7.63189 7.33301 7.33341 7.63148 7.33341 7.99967C7.33341 8.36786 7.63189 8.66634 8.00008 8.66634Z" stroke="#344054" stroke-width="1.5" stroke-linecap="round" stroke-linejoin="round"/>
<path d="M12.6667 8.66634C13.0349 8.66634 13.3334 8.36786 13.3334 7.99967C13.3334 7.63148 13.0349 7.33301 12.6667 7.33301C12.2986 7.33301 12.0001 7.63148 12.0001 7.99967C12.0001 8.36786 12.2986 8.66634 12.6667 8.66634Z" stroke="#344054" stroke-width="1.5" stroke-linecap="round" stroke-linejoin="round"/>
<path d="M3.33341 8.66634C3.7016 8.66634 4.00008 8.36786 4.00008 7.99967C4.00008 7.63148 3.7016 7.33301 3.33341 7.33301C2.96522 7.33301 2.66675 7.63148 2.66675 7.99967C2.66675 8.36786 2.96522 8.66634 3.33341 8.66634Z" stroke="#344054" stroke-width="1.5" stroke-linecap="round" stroke-linejoin="round"/>
</g>
</g>
</svg>
