<svg width="14" height="13" viewBox="0 0 14 13" fill="none" xmlns="http://www.w3.org/2000/svg">
<path id="Icon" d="M5.30246 4.74996C5.4396 4.3601 5.7103 4.03135 6.0666 3.82195C6.4229 3.61255 6.84181 3.53601 7.24915 3.60587C7.65648 3.67574 8.02594 3.88752 8.29209 4.20368C8.55824 4.51985 8.70391 4.92001 8.70329 5.33329C8.70329 6.49996 6.95329 7.08329 6.95329 7.08329M6.99996 9.41663H7.00579M12.8333 6.49996C12.8333 9.72162 10.2216 12.3333 6.99996 12.3333C3.7783 12.3333 1.16663 9.72162 1.16663 6.49996C1.16663 3.2783 3.7783 0.666626 6.99996 0.666626C10.2216 0.666626 12.8333 3.2783 12.8333 6.49996Z" stroke="#98A2B3" stroke-width="1.25" stroke-linecap="round" stroke-linejoin="round"/>
</svg>
