<svg width="16" height="16" viewBox="0 0 16 16" fill="none" xmlns="http://www.w3.org/2000/svg">
<g id="log-in-04">
<g id="Solid">
<path d="M8.00016 1.99984C5.78015 1.99984 3.84088 3.20518 2.80244 5.00032C2.61808 5.31903 2.21026 5.42794 1.89155 5.24357C1.57285 5.05921 1.46394 4.65139 1.6483 4.33269C2.91526 2.14249 5.28495 0.666504 8.00016 0.666504C12.0502 0.666504 15.3335 3.94975 15.3335 7.99984C15.3335 12.0499 12.0502 15.3332 8.00016 15.3332C5.28495 15.3332 2.91526 13.8572 1.6483 11.667C1.46394 11.3483 1.57285 10.9405 1.89155 10.7561C2.21026 10.5717 2.61808 10.6806 2.80244 10.9994C3.84088 12.7945 5.78015 13.9998 8.00016 13.9998C11.3139 13.9998 14.0002 11.3135 14.0002 7.99984C14.0002 4.68613 11.3139 1.99984 8.00016 1.99984Z" fill="#344054"/>
<path d="M7.52876 4.86177C7.78911 4.60142 8.21122 4.60142 8.47157 4.86177L11.1382 7.52843C11.3986 7.78878 11.3986 8.21089 11.1382 8.47124L8.47157 11.1379C8.21122 11.3983 7.78911 11.3983 7.52876 11.1379C7.26841 10.8776 7.26841 10.4554 7.52876 10.1951L9.05735 8.6665H2.00016C1.63197 8.6665 1.3335 8.36803 1.3335 7.99984C1.3335 7.63165 1.63197 7.33317 2.00016 7.33317H9.05735L7.52876 5.80457C7.26841 5.54423 7.26841 5.12212 7.52876 4.86177Z" fill="#344054"/>
</g>
</g>
</svg>
