<svg width="12" height="12" viewBox="0 0 12 12" fill="none" xmlns="http://www.w3.org/2000/svg">
<g id="Left Icon" clip-path="url(#clip0_10386_42171)">
<path id="Icon" d="M7.99998 4V2.5L9.49998 1L9.99998 2L11 2.5L9.49998 4H7.99998ZM7.99998 4L5.99999 5.99997M11 6C11 8.76142 8.76142 11 6 11C3.23858 11 1 8.76142 1 6C1 3.23858 3.23858 1 6 1M8.5 6C8.5 7.38071 7.38071 8.5 6 8.5C4.61929 8.5 3.5 7.38071 3.5 6C3.5 4.61929 4.61929 3.5 6 3.5" stroke="#667085" stroke-linecap="round" stroke-linejoin="round"/>
</g>
<defs>
<clipPath id="clip0_10386_42171">
<rect width="12" height="12" fill="white"/>
</clipPath>
</defs>
</svg>
