<svg width="16" height="16" viewBox="0 0 16 16" fill="none" xmlns="http://www.w3.org/2000/svg">
<path d="M8.00002 8.3907L10.8284 11.2191L9.88562 12.1619L8.66669 10.9435V14.6668H7.33335V10.9422L6.1144 12.1619L5.17159 11.2191L8.00002 8.3907ZM8.00002 1.3335C10.3956 1.3335 12.3696 3.13857 12.6361 5.4628C14.1906 5.88786 15.3334 7.31056 15.3334 9.00016C15.3334 10.9127 13.8691 12.4832 12.0004 12.6519L12.0006 11.3098C13.1311 11.1478 14 10.1754 14 9.00016C14 7.7115 12.9554 6.66683 11.6667 6.66683C11.5275 6.66683 11.3912 6.67903 11.2592 6.70283C11.3078 6.4763 11.3334 6.24122 11.3334 6.00016C11.3334 4.15922 9.84095 2.66683 8.00002 2.66683C6.15907 2.66683 4.66669 4.15922 4.66669 6.00016C4.66669 6.24122 4.69227 6.4763 4.74139 6.70236C4.60889 6.67903 4.47255 6.66683 4.33335 6.66683C3.04469 6.66683 2.00002 7.7115 2.00002 9.00016C2.00002 10.1337 2.80829 11.0784 3.87993 11.2895L4.00005 11.3099L4.00028 12.6519C2.13133 12.4836 0.666687 10.913 0.666687 9.00016C0.666687 7.31056 1.80951 5.88786 3.36434 5.4629C3.63043 3.13857 5.60443 1.3335 8.00002 1.3335Z" fill="#354052"/>
</svg>
