<?xml version="1.0" standalone="no"?><!DOCTYPE svg PUBLIC "-//W3C//DTD SVG 1.1//EN" "http://www.w3.org/Graphics/SVG/1.1/DTD/svg11.dtd"><svg t="1714231041973" class="icon" viewBox="0 0 1024 1024" version="1.1" xmlns="http://www.w3.org/2000/svg" p-id="4311" width="48" height="48" xmlns:xlink="http://www.w3.org/1999/xlink"><path d="M450.133 213.333L305.067 42.667H140.8l145.067 170.666z m426.667 0L731.733 42.667H567.467l145.066 170.666z m-213.333 0L518.4 42.667H354.133L499.2 213.333z m275.2-170.666H780.8l145.067 170.666h76.8V106.667c0-36.267-27.734-64-64-64z m-846.934 0h-6.4c-36.266 0-64 27.733-64 64v106.666H236.8L91.733 42.667z m-70.4 874.666c0 36.267 27.734 64 64 64h853.334c36.266 0 64-27.733 64-64V256H21.333v661.333zM362.667 448c0-36.267 29.866-53.333 64-53.333 10.666 0 23.466 2.133 34.133 8.533L704 544c42.667 23.467 42.667 83.2 0 106.667l-243.2 140.8c-10.667 6.4-21.333 8.533-34.133 8.533-34.134 0-64-17.067-64-53.333V448z" fill="#666767" p-id="4312"></path></svg>