<svg width="12" height="12" viewBox="0 0 12 12" fill="none" xmlns="http://www.w3.org/2000/svg">
<path fill-rule="evenodd" clip-rule="evenodd" d="M4 6C4 5.72386 4.22386 5.5 4.5 5.5L10.5 5.5C10.7761 5.5 11 5.72386 11 6C11 6.27614 10.7761 6.5 10.5 6.5L4.5 6.5C4.22386 6.5 4 6.27614 4 6Z" fill="#667085"/>
<path fill-rule="evenodd" clip-rule="evenodd" d="M4 3C4 2.72386 4.22386 2.5 4.5 2.5L10.5 2.5C10.7761 2.5 11 2.72386 11 3C11 3.27614 10.7761 3.5 10.5 3.5L4.5 3.5C4.22386 3.5 4 3.27614 4 3Z" fill="#667085"/>
<path fill-rule="evenodd" clip-rule="evenodd" d="M4 9C4 8.72386 4.22386 8.5 4.5 8.5L10.5 8.5C10.7761 8.5 11 8.72386 11 9C11 9.27614 10.7761 9.5 10.5 9.5L4.5 9.5C4.22386 9.5 4 9.27614 4 9Z" fill="#667085"/>
<path fill-rule="evenodd" clip-rule="evenodd" d="M1 6C1 5.44772 1.44772 5 2 5C2.55228 5 3 5.44772 3 6C3 6.55228 2.55228 7 2 7C1.44772 7 1 6.55228 1 6Z" fill="#667085"/>
<path fill-rule="evenodd" clip-rule="evenodd" d="M1 3C1 2.44772 1.44772 2 2 2C2.55228 2 3 2.44772 3 3C3 3.55228 2.55228 4 2 4C1.44772 4 1 3.55228 1 3Z" fill="#667085"/>
<path fill-rule="evenodd" clip-rule="evenodd" d="M1 9C1 8.44772 1.44772 8 2 8C2.55228 8 3 8.44772 3 9C3 9.55228 2.55228 10 2 10C1.44772 10 1 9.55228 1 9Z" fill="#667085"/>
</svg>
