<svg width="368" height="52" viewBox="0 0 368 52" fill="none" xmlns="http://www.w3.org/2000/svg">
<path opacity="0.5" d="M0 0.5H368M0 2.5H368M0 4.5H368M0 6.5H368M0 8.5H368M0 10.5H368M0 12.5H368M0 14.5H368M0 16.5H368M0 18.5H368M0 20.5H368M0 22.5H368M0 24.5H368M0 26.5H368M0 28.5H368M0 30.5H368M0 32.5H368M0 34.5H368M0 36.5H368M0 38.5H368M0 40.5H368M0 42.5H368M0 44.5H368M0 46.5H368M0 48.5H368M0 50.5H368M0 52.5H368M0 54.5H368M0 56.5H368M0 58.5H368M0 60.5H368M0 62.5H368M0 64.5H368M0 66.5H368M0 68.5H368M0 70.5H368M0 72.5H368M0 74.5H368M0 76.5H368M0 78.5H368M0 80.5H368M0 82.5H368M0 84.5H368M0 86.5H368M0 88.5H368M0 90.5H368M0 92.5H368M0 94.5H368M0 96.5H368M0 98.5H368M0 100.5H368M0 102.5H368M0 104.5H368M0 106.5H368M0 108.5H368M0 110.5H368M0 112.5H368M0 114.5H368M0 116.5H368M0 118.5H368M0 120.5H368M0 122.5H368M0 124.5H368M0 126.5H368M0 128.5H368M0 130.5H368M0 132.5H368M0 134.5H368M0 136.5H368M0 138.5H368M0 140.5H368M0 142.5H368M0 144.5H368M0 146.5H368M0 148.5H368M0 150.5H368M0 152.5H368M0 154.5H368M0 156.5H368M0 158.5H368M0 160.5H368M0 162.5H368M0 164.5H368M0 166.5H368M0 168.5H368M0 170.5H368M0 172.5H368M0 174.5H368M0 176.5H368M0 178.5H368M0 180.5H368M0 182.5H368M0 184.5H368M0 186.5H368M0 188.5H368M0 190.5H368M0 192.5H368M0 194.5H368M0 196.5H368M0 198.5H368M0 200.5H368M0 202.5H368M0 204.5H368M0 206.5H368M0 208.5H368M0 210.5H368M0 212.5H368M0 214.5H368M0 216.5H368M0 218.5H368M0 220.5H368M0 222.5H368M0 224.5H368M0 226.5H368" stroke="#F79009" stroke-opacity="0.3" stroke-width="0.5"/>
</svg>
