<svg width="368" height="52" viewBox="0 0 368 52" fill="none" xmlns="http://www.w3.org/2000/svg">
<path opacity="0.5" d="M0 0H368M0 2H368M0 4H368M0 6H368M0 8H368M0 10H368M0 12H368M0 14H368M0 16H368M0 18H368M0 20H368M0 22H368M0 24H368M0 26H368M0 28H368M0 30H368M0 32H368M0 34H368M0 36H368M0 38H368M0 40H368M0 42H368M0 44H368M0 46H368M0 48H368M0 50H368M0 52H368M0 54H368M0 56H368M0 58H368M0 60H368M0 62H368M0 64H368M0 66H368M0 68H368M0 70H368M0 72H368M0 74H368M0 76H368M0 78H368M0 80H368M0 82H368M0 84H368M0 86H368M0 88H368M0 90H368M0 92H368M0 94H368M0 96H368M0 98H368M0 100H368M0 102H368M0 104H368M0 106H368M0 108H368M0 110H368M0 112H368M0 114H368M0 116H368M0 118H368M0 120H368M0 122H368M0 124H368M0 126H368M0 128H368M0 130H368M0 132H368M0 134H368M0 136H368M0 138H368M0 140H368M0 142H368M0 144H368M0 146H368M0 148H368M0 150H368M0 152H368M0 154H368M0 156H368M0 158H368M0 160H368M0 162H368M0 164H368M0 166H368M0 168H368M0 170H368M0 172H368M0 174H368M0 176H368M0 178H368M0 180H368M0 182H368M0 184H368M0 186H368M0 188H368M0 190H368M0 192H368M0 194H368M0 196H368M0 198H368M0 200H368M0 202H368M0 204H368M0 206H368M0 208H368M0 210H368M0 212H368M0 214H368M0 216H368M0 218H368M0 220H368M0 222H368M0 224H368M0 226H368" stroke="#F04438" stroke-opacity="0.3" stroke-width="0.5"/>
</svg>
