<svg width="14" height="14" viewBox="0 0 14 14" fill="none" xmlns="http://www.w3.org/2000/svg">
<g clip-path="url(#clip0_5943_4745)">
<path d="M6.99984 8.74984C7.96634 8.74984 8.74984 7.96634 8.74984 6.99984C8.74984 6.03334 7.96634 5.24984 6.99984 5.24984C6.03334 5.24984 5.24984 6.03334 5.24984 6.99984C5.24984 7.96634 6.03334 8.74984 6.99984 8.74984Z" stroke="#667085" stroke-width="1.25" stroke-linecap="round" stroke-linejoin="round"/>
<path d="M10.9241 8.59075C10.8535 8.75069 10.8324 8.92812 10.8636 9.10015C10.8948 9.27218 10.9768 9.43092 11.0991 9.5559L11.1309 9.58772C11.2295 9.68622 11.3077 9.80319 11.3611 9.93195C11.4145 10.0607 11.442 10.1987 11.442 10.3381C11.442 10.4775 11.4145 10.6155 11.3611 10.7442C11.3077 10.873 11.2295 10.99 11.1309 11.0885C11.0324 11.1871 10.9154 11.2653 10.7867 11.3187C10.6579 11.3721 10.5199 11.3995 10.3805 11.3995C10.2411 11.3995 10.1031 11.3721 9.97437 11.3187C9.84561 11.2653 9.72864 11.1871 9.63014 11.0885L9.59832 11.0567C9.47334 10.9344 9.3146 10.8524 9.14257 10.8212C8.97055 10.79 8.79312 10.8111 8.63317 10.8817C8.47632 10.9489 8.34256 11.0605 8.24833 11.2028C8.15411 11.345 8.10355 11.5118 8.10287 11.6824V11.7726C8.10287 12.0539 7.99112 12.3236 7.79222 12.5225C7.59332 12.7214 7.32355 12.8332 7.04226 12.8332C6.76097 12.8332 6.4912 12.7214 6.2923 12.5225C6.0934 12.3236 5.98166 12.0539 5.98166 11.7726V11.7248C5.97755 11.5493 5.92073 11.3791 5.81859 11.2363C5.71645 11.0935 5.57371 10.9847 5.40893 10.9241C5.24898 10.8535 5.07155 10.8324 4.89953 10.8636C4.7275 10.8948 4.56876 10.9768 4.44378 11.0991L4.41196 11.1309C4.31346 11.2295 4.19648 11.3077 4.06773 11.3611C3.93897 11.4145 3.80096 11.442 3.66158 11.442C3.5222 11.442 3.38419 11.4145 3.25543 11.3611C3.12668 11.3077 3.0097 11.2295 2.9112 11.1309C2.81259 11.0324 2.73436 10.9154 2.68099 10.7867C2.62761 10.6579 2.60014 10.5199 2.60014 10.3805C2.60014 10.2411 2.62761 10.1031 2.68099 9.97437C2.73436 9.84561 2.81259 9.72864 2.9112 9.63014L2.94302 9.59832C3.06527 9.47334 3.14728 9.3146 3.17848 9.14257C3.20967 8.97055 3.18861 8.79312 3.11802 8.63317C3.0508 8.47632 2.93918 8.34256 2.7969 8.24833C2.65463 8.15411 2.48791 8.10355 2.31726 8.10287H2.22711C1.94582 8.10287 1.67605 7.99112 1.47715 7.79222C1.27825 7.59332 1.1665 7.32355 1.1665 7.04226C1.1665 6.76097 1.27825 6.4912 1.47715 6.2923C1.67605 6.0934 1.94582 5.98166 2.22711 5.98166H2.27484C2.45036 5.97755 2.6206 5.92073 2.7634 5.81859C2.90621 5.71645 3.01499 5.57371 3.07559 5.40893C3.14619 5.24898 3.16724 5.07155 3.13605 4.89953C3.10486 4.7275 3.02285 4.56876 2.90059 4.44378L2.86878 4.41196C2.77017 4.31346 2.69194 4.19648 2.63856 4.06773C2.58519 3.93897 2.55772 3.80096 2.55772 3.66158C2.55772 3.5222 2.58519 3.38419 2.63856 3.25543C2.69194 3.12668 2.77017 3.0097 2.86878 2.9112C2.96728 2.81259 3.08425 2.73436 3.21301 2.68099C3.34176 2.62761 3.47978 2.60014 3.61916 2.60014C3.75854 2.60014 3.89655 2.62761 4.0253 2.68099C4.15406 2.73436 4.27103 2.81259 4.36953 2.9112L4.40135 2.94302C4.52633 3.06527 4.68507 3.14728 4.8571 3.17848C5.02913 3.20967 5.20656 3.18861 5.3665 3.11802H5.40893C5.56578 3.0508 5.69954 2.93918 5.79377 2.7969C5.88799 2.65463 5.93855 2.48791 5.93923 2.31726V2.22711C5.93923 1.94582 6.05097 1.67605 6.24988 1.47715C6.44878 1.27825 6.71855 1.1665 6.99984 1.1665C7.28113 1.1665 7.5509 1.27825 7.7498 1.47715C7.9487 1.67605 8.06044 1.94582 8.06044 2.22711V2.27484C8.06112 2.44548 8.11169 2.6122 8.20591 2.75448C8.30013 2.89675 8.4339 3.00837 8.59075 3.07559C8.75069 3.14619 8.92812 3.16724 9.10015 3.13605C9.27218 3.10486 9.43092 3.02285 9.5559 2.90059L9.58772 2.86878C9.68622 2.77017 9.80319 2.69194 9.93195 2.63856C10.0607 2.58519 10.1987 2.55772 10.3381 2.55772C10.4775 2.55772 10.6155 2.58519 10.7442 2.63856C10.873 2.69194 10.99 2.77017 11.0885 2.86878C11.1871 2.96728 11.2653 3.08425 11.3187 3.21301C11.3721 3.34176 11.3995 3.47978 11.3995 3.61916C11.3995 3.75854 11.3721 3.89655 11.3187 4.0253C11.2653 4.15406 11.1871 4.27103 11.0885 4.36953L11.0567 4.40135C10.9344 4.52633 10.8524 4.68507 10.8212 4.8571C10.79 5.02913 10.8111 5.20656 10.8817 5.3665V5.40893C10.9489 5.56578 11.0605 5.69954 11.2028 5.79377C11.345 5.88799 11.5118 5.93855 11.6824 5.93923H11.7726C12.0539 5.93923 12.3236 6.05097 12.5225 6.24988C12.7214 6.44878 12.8332 6.71855 12.8332 6.99984C12.8332 7.28113 12.7214 7.5509 12.5225 7.7498C12.3236 7.9487 12.0539 8.06044 11.7726 8.06044H11.7248C11.5542 8.06112 11.3875 8.11169 11.2452 8.20591C11.1029 8.30013 10.9913 8.4339 10.9241 8.59075Z" stroke="#667085" stroke-width="1.25" stroke-linecap="round" stroke-linejoin="round"/>
</g>
<defs>
<clipPath id="clip0_5943_4745">
<rect width="14" height="14" fill="white"/>
</clipPath>
</defs>
</svg>
