<svg xmlns="http://www.w3.org/2000/svg" width="12" height="12" viewBox="0 0 12 12" fill="none">
  <path d="M10.3567 3.56405L10.2334 3.84689C10.1432 4.05396 9.8568 4.05396 9.76655 3.84689L9.6433 3.56405C9.42355 3.05973 9.02775 2.6582 8.53385 2.43854L8.154 2.26961C7.94865 2.17826 7.94865 1.8794 8.154 1.78806L8.5126 1.62857C9.0192 1.40325 9.4221 0.986865 9.63805 0.465414L9.76465 0.159767C9.8529 -0.0532556 10.1471 -0.0532556 10.2353 0.159767L10.3619 0.465414C10.5779 0.986865 10.9808 1.40325 11.4874 1.62857L11.846 1.78806C12.0514 1.8794 12.0514 2.17826 11.846 2.26961L11.4662 2.43854C10.9723 2.6582 10.5764 3.05973 10.3567 3.56405ZM4.25 3H3.25V9H4.25V3ZM2 5H1V7H2V5ZM6.5 1H5.5V11H6.5V1ZM8.75 4H7.75V9H8.75V4ZM11 5H10V7H11V5Z" fill="#676F83"/>
</svg>