<svg xmlns="http://www.w3.org/2000/svg" viewBox="61.1 180.15 377.8 139.718"><path d="M431.911 245.181c3.842 0 6.989 1.952 6.989 4.337v14.776c0 2.385-3.147 4.337-6.989 4.337-3.846 0-6.99-1.952-6.99-4.337v-14.776c0-2.385 3.144-4.337 6.99-4.337ZM404.135 250.955c3.846 0 6.989 1.952 6.989 4.337v32.528c0 2.385-3.143 4.337-6.989 4.337-3.842 0-6.989-1.952-6.989-4.337v-32.528c0-2.385 3.147-4.337 6.989-4.337ZM376.363 257.688c3.842 0 6.989 1.952 6.989 4.337v36.562c0 2.385-3.147 4.337-6.989 4.337-3.846 0-6.993-1.952-6.993-4.337v-36.562c0-2.386 3.147-4.337 6.993-4.337ZM348.587 263.26c3.846 0 6.989 1.952 6.989 4.337v36.159c0 2.385-3.143 4.337-6.989 4.337-3.842 0-6.989-1.952-6.989-4.337v-36.159c0-2.385 3.147-4.337 6.989-4.337ZM320.811 268.177c3.846 0 6.989 1.952 6.989 4.337v31.318c0 2.385-3.143 4.337-6.989 4.337-3.842 0-6.989-1.952-6.989-4.337v-31.318c0-2.385 3.147-4.337 6.989-4.337ZM293.179 288.148c3.846 0 6.989 1.952 6.989 4.337v9.935c0 2.384-3.147 4.336-6.989 4.336s-6.99-1.951-6.99-4.336v-9.935c0-2.386 3.144-4.337 6.99-4.337Z" style="fill:#b1b3b4;fill-rule:evenodd"></path><path d="M431.911 205.441c3.842 0 6.989 1.952 6.989 4.337v24.459c0 2.385-3.147 4.337-6.989 4.337-3.846 0-6.99-1.952-6.99-4.337v-24.459c0-2.385 3.144-4.337 6.99-4.337ZM404.135 189.026c3.846 0 6.989 1.952 6.989 4.337v43.622c0 2.385-3.143 4.337-6.989 4.337-3.842 0-6.989-1.951-6.989-4.337v-43.622c0-2.385 3.147-4.337 6.989-4.337ZM376.363 182.848c3.842 0 6.989 1.953 6.989 4.337v56.937c0 2.384-3.147 4.337-6.989 4.337-3.846 0-6.993-1.952-6.993-4.337v-56.937c0-2.385 3.147-4.337 6.993-4.337ZM348.587 180.15c3.846 0 6.989 1.952 6.989 4.337v66.619c0 2.385-3.143 4.337-6.989 4.337-3.842 0-6.989-1.952-6.989-4.337v-66.619c0-2.385 3.147-4.337 6.989-4.337ZM320.811 181.84c3.846 0 6.989 1.952 6.989 4.337v67.627c0 2.385-3.143 4.337-6.989 4.337-3.842 0-6.989-1.951-6.989-4.337v-67.627c0-2.386 3.147-4.337 6.989-4.337ZM293.179 186.076c3.846 0 6.989 1.952 6.989 4.337v84.37c0 2.385-3.147 4.337-6.989 4.337s-6.99-1.951-6.99-4.337v-84.37c0-2.386 3.144-4.337 6.99-4.337ZM264.829 193.262c3.846 0 6.989 1.953 6.989 4.337v95.667c0 2.385-3.143 4.337-6.989 4.337-3.843 0-6.99-1.951-6.99-4.337v-95.667c0-2.385 3.147-4.337 6.99-4.337ZM237.057 205.441c3.842 0 6.989 1.953 6.989 4.337v92.036c0 2.385-3.147 4.337-6.989 4.337-3.846 0-6.99-1.951-6.99-4.337v-92.036c0-2.385 3.144-4.337 6.99-4.337ZM209.281 221.302c3.846 0 6.989 1.952 6.989 4.337v80.134c0 2.385-3.147 4.337-6.989 4.337s-6.99-1.952-6.99-4.337v-80.134c0-2.386 3.144-4.337 6.99-4.337ZM181.505 232.271c3.846 0 6.993 1.952 6.993 4.336v78.924c0 2.385-3.147 4.337-6.993 4.337-3.842 0-6.989-1.951-6.989-4.337v-78.924c0-2.385 3.147-4.336 6.989-4.336ZM153.873 241.348c3.846 0 6.989 1.953 6.989 4.337v42.009c0 2.384-3.147 4.337-6.989 4.337-3.843 0-6.99-1.952-6.99-4.337v-42.009c0-2.385 3.147-4.337 6.99-4.337ZM125.266 200.398c3.842 0 6.989 1.953 6.989 4.337v58.55c0 2.384-3.147 4.337-6.989 4.337-3.843 0-6.99-1.951-6.99-4.337v-58.55c0-2.385 3.144-4.337 6.99-4.337ZM96.7 204.231c3.842 0 6.989 1.953 6.989 4.337v18.004c0 2.384-3.147 4.337-6.989 4.337s-6.989-1.952-6.989-4.337v-18.004c0-2.385 3.143-4.337 6.989-4.337ZM68.089 201.81c3.846 0 6.99 1.953 6.99 4.337v8.12c0 2.384-3.147 4.336-6.99 4.336-3.842 0-6.989-1.951-6.989-4.336v-8.12c0-2.385 3.143-4.337 6.989-4.337ZM153.873 194.94c3.846 0 6.989 1.953 6.989 4.337v6.102c0 2.384-3.147 4.337-6.989 4.337-3.843 0-6.99-1.952-6.99-4.337v-6.102c0-2.385 3.147-4.337 6.99-4.337Z" style="fill:#000;fill-rule:evenodd"></path></svg>