<svg width="100" height="100" viewBox="0 0 100 100" fill="none" xmlns="http://www.w3.org/2000/svg">
    <rect width="100" height="100" rx="20" fill="#4A90E2" />
    <path
        d="M50 25C40.6 25 33 32.6 33 42V58C33 67.4 40.6 75 50 75C59.4 75 67 67.4 67 58V42C67 32.6 59.4 25 50 25ZM61 58C61 64.1 56.1 69 50 69C43.9 69 39 64.1 39 58V42C39 35.9 43.9 31 50 31C56.1 31 61 35.9 61 42V58Z"
        fill="white" />
    <path d="M50 37C47.2 37 45 39.2 45 42V58C45 60.8 47.2 63 50 63C52.8 63 55 60.8 55 58V42C55 39.2 52.8 37 50 37Z"
        fill="white" />
    <path
        d="M73 49H69V58C69 68.5 60.5 77 50 77C39.5 77 31 68.5 31 58V49H27V58C27 70.7 37.3 81 50 81C62.7 81 73 70.7 73 58V49Z"
        fill="white" />
    <path d="M50 85C51.1 85 52 84.1 52 83V81H48V83C48 84.1 48.9 85 50 85Z" fill="white" />
    <path
        d="M35 45C36.1046 45 37 44.1046 37 43C37 41.8954 36.1046 41 35 41C33.8954 41 33 41.8954 33 43C33 44.1046 33.8954 45 35 45Z"
        fill="white" />
    <path
        d="M35 55C36.1046 55 37 54.1046 37 53C37 51.8954 36.1046 51 35 51C33.8954 51 33 51.8954 33 53C33 54.1046 33.8954 55 35 55Z"
        fill="white" />
    <path
        d="M65 45C66.1046 45 67 44.1046 67 43C67 41.8954 66.1046 41 65 41C63.8954 41 63 41.8954 63 43C63 44.1046 63.8954 45 65 45Z"
        fill="white" />
    <path
        d="M65 55C66.1046 55 67 54.1046 67 53C67 51.8954 66.1046 51 65 51C63.8954 51 63 51.8954 63 53C63 54.1046 63.8954 55 65 55Z"
        fill="white" />
</svg>