<svg width="24" height="24" viewBox="0 0 24 24" fill="none" xmlns="http://www.w3.org/2000/svg">
<rect width="24" height="24" rx="8" fill="#EEF4FF"/>
<path d="M11.6665 9.99998C12.9552 9.99998 13.9998 8.95531 13.9998 7.66665C13.9998 6.37798 12.9552 5.33331 11.6665 5.33331C10.3778 5.33331 9.33317 6.37798 9.33317 7.66665C9.33317 8.95531 10.3778 9.99998 11.6665 9.99998Z" fill="#444CE7"/>
<path d="M8.65017 9.75198C8.49106 9.52227 8.4115 9.40741 8.32581 9.36947C8.24888 9.33541 8.1679 9.33124 8.08788 9.35723C7.99875 9.38618 7.92865 9.46797 7.78845 9.63154C7.22585 10.2879 6.84213 11.1027 6.71374 12.0001H6.6665C6.29831 12.0001 5.99984 11.7016 5.99984 11.3334C5.99984 11.0875 6.13265 10.8718 6.33365 10.7555C6.65236 10.5712 6.76127 10.1634 6.57691 9.84466C6.39255 9.52595 5.98473 9.41704 5.66602 9.60141C5.06996 9.94621 4.6665 10.5923 4.6665 11.3334C4.6665 12.438 5.56193 13.3334 6.6665 13.3334H6.71377C6.85773 14.3389 7.32239 15.2415 7.9998 15.9328L7.99979 17.4822C7.99976 17.5616 7.99973 17.6565 8.00655 17.74C8.01446 17.8368 8.03476 17.9755 8.10879 18.1208C8.20466 18.309 8.35764 18.4619 8.54581 18.5578C8.6911 18.6318 8.82976 18.6521 8.92658 18.6601C9.0101 18.6669 9.10492 18.6668 9.18432 18.6668H10.4819C10.5613 18.6668 10.6562 18.6669 10.7397 18.6601C10.8365 18.6521 10.9752 18.6318 11.1205 18.5578C11.3086 18.4619 11.4616 18.309 11.5575 18.1208C11.6315 17.9755 11.6518 17.8368 11.6597 17.74C11.6665 17.6565 11.6665 17.5616 11.6665 17.4822L11.6665 17.3335H12.3331L12.3331 17.482C12.3331 17.5614 12.3331 17.6562 12.3399 17.7398C12.3478 17.8366 12.3681 17.9753 12.4421 18.1205C12.538 18.3087 12.691 18.4617 12.8791 18.5576C13.0244 18.6316 13.1631 18.6519 13.2599 18.6598C13.3434 18.6666 13.4382 18.6666 13.5176 18.6666H14.8153C14.8947 18.6666 14.9896 18.6666 15.0731 18.6598C15.1699 18.6519 15.3085 18.6316 15.4538 18.5576C15.642 18.4617 15.795 18.3087 15.8909 18.1205C15.9649 17.9753 15.9852 17.8366 15.9931 17.7398C15.9999 17.6562 15.9999 17.5614 15.9999 17.482L15.9999 16.884C16.7373 16.5337 17.3676 15.9963 17.83 15.3332L18.1486 15.3332C18.228 15.3333 18.3229 15.3333 18.4064 15.3265C18.5032 15.3186 18.6419 15.2983 18.7872 15.2242C18.9753 15.1284 19.1283 14.9754 19.2242 14.7872C19.2982 14.6419 19.3185 14.5033 19.3264 14.4064C19.3333 14.3229 19.3332 14.2281 19.3332 14.1487V11.8424C19.3332 11.7668 19.3332 11.6765 19.327 11.5968C19.3199 11.5047 19.3015 11.3725 19.2341 11.2326C19.1358 11.0286 18.9712 10.8639 18.7671 10.7656C18.6272 10.6982 18.4951 10.6799 18.403 10.6727C18.3435 10.6681 18.2781 10.6669 18.2173 10.6666C17.9935 10.1955 17.6934 9.76819 17.3332 9.40057L17.3332 8.68818C17.3332 8.58496 17.3333 8.46813 17.3243 8.36763C17.3144 8.25667 17.2886 8.08512 17.1832 7.91509C17.0519 7.70309 16.846 7.54783 16.6061 7.47976C16.4137 7.42517 16.2416 7.44747 16.1322 7.46844C16.0331 7.48743 15.9208 7.51956 15.8216 7.54795L15.7177 7.57763C15.581 7.61667 15.5127 7.6362 15.4646 7.67139C15.4182 7.70536 15.3899 7.73885 15.364 7.7902C15.3371 7.84338 15.3279 7.92449 15.3094 8.08672C15.101 9.91393 13.5495 11.3333 11.6665 11.3333C10.4162 11.3333 9.31201 10.7075 8.65017 9.75198Z" fill="#444CE7"/>
</svg>
