<svg width="24" height="24" viewBox="0 0 24 24" fill="none" xmlns="http://www.w3.org/2000/svg">
<rect width="24" height="24" rx="8" fill="#FFF6ED"/>
<path d="M11.9998 4.66669C12.368 4.66669 12.6665 4.96516 12.6665 5.33335V6.66669C12.6665 7.03488 12.368 7.33335 11.9998 7.33335C11.6316 7.33335 11.3332 7.03488 11.3332 6.66669V5.33335C11.3332 4.96516 11.6316 4.66669 11.9998 4.66669Z" fill="#FB6514"/>
<path d="M7.75705 6.81459C7.4967 6.55424 7.07459 6.55424 6.81424 6.81459C6.55389 7.07494 6.55389 7.49705 6.81424 7.75739L7.75705 8.7002C8.0174 8.96055 8.43951 8.96055 8.69986 8.7002C8.96021 8.43985 8.96021 8.01774 8.69986 7.75739L7.75705 6.81459Z" fill="#FB6514"/>
<path d="M4.6665 12C4.6665 11.6318 4.96498 11.3334 5.33317 11.3334H6.6665C7.03469 11.3334 7.33317 11.6318 7.33317 12C7.33317 12.3682 7.03469 12.6667 6.6665 12.6667H5.33317C4.96498 12.6667 4.6665 12.3682 4.6665 12Z" fill="#FB6514"/>
<path d="M17.3332 11.3334C16.965 11.3334 16.6665 11.6318 16.6665 12C16.6665 12.3682 16.965 12.6667 17.3332 12.6667H18.6665C19.0347 12.6667 19.3332 12.3682 19.3332 12C19.3332 11.6318 19.0347 11.3334 18.6665 11.3334H17.3332Z" fill="#FB6514"/>
<path d="M16.2424 15.2998C15.982 15.0394 15.5599 15.0394 15.2996 15.2998C15.0392 15.5601 15.0392 15.9822 15.2996 16.2426L16.2424 17.1854C16.5027 17.4457 16.9249 17.4457 17.1852 17.1854C17.4456 16.925 17.4456 16.5029 17.1852 16.2426L16.2424 15.2998Z" fill="#FB6514"/>
<path d="M17.1852 7.75739C17.4456 7.49705 17.4456 7.07494 17.1852 6.81459C16.9249 6.55424 16.5027 6.55424 16.2424 6.81459L15.2996 7.75739C15.0392 8.01774 15.0392 8.43985 15.2996 8.7002C15.5599 8.96055 15.982 8.96055 16.2424 8.7002L17.1852 7.75739Z" fill="#FB6514"/>
<path d="M11.9998 16.6667C12.368 16.6667 12.6665 16.9652 12.6665 17.3334V18.6667C12.6665 19.0349 12.368 19.3334 11.9998 19.3334C11.6316 19.3334 11.3332 19.0349 11.3332 18.6667V17.3334C11.3332 16.9652 11.6316 16.6667 11.9998 16.6667Z" fill="#FB6514"/>
<path d="M8.69986 16.2426C8.96021 15.9822 8.96021 15.5601 8.69986 15.2998C8.43951 15.0394 8.0174 15.0394 7.75705 15.2998L6.81424 16.2426C6.55389 16.5029 6.55389 16.925 6.81424 17.1854C7.07459 17.4457 7.4967 17.4457 7.75705 17.1854L8.69986 16.2426Z" fill="#FB6514"/>
<path d="M12.5977 8.3716C12.4853 8.14407 12.2536 8.00002 11.9999 8.00002C11.7461 8.00002 11.5144 8.14407 11.4021 8.3716L10.527 10.1443L8.5701 10.4304C8.31906 10.4671 8.11061 10.6431 8.03236 10.8844C7.95411 11.1257 8.01962 11.3906 8.20137 11.5676L9.61684 12.9463L9.28278 14.894C9.23988 15.1441 9.34271 15.3969 9.54803 15.5461C9.75335 15.6952 10.0255 15.7149 10.2502 15.5967L11.9999 14.6766L13.7496 15.5967C13.9742 15.7149 14.2464 15.6952 14.4517 15.5461C14.657 15.3969 14.7598 15.1441 14.7169 14.894L14.3829 12.9463L15.7983 11.5676C15.9801 11.3906 16.0456 11.1257 15.9674 10.8844C15.8891 10.6431 15.6806 10.4671 15.4296 10.4304L13.4727 10.1443L12.5977 8.3716Z" fill="#FB6514"/>
</svg>
