<svg width="24" height="24" viewBox="0 0 600 600" fill="none" xmlns="http://www.w3.org/2000/svg">
    <circle cx="300" cy="300" r="300" fill="#003425"/>
    <rect x="409.733" y="340.031" width="42.3862" height="151.648" rx="21.1931" fill="white"/>
    <path fill-rule="evenodd" clip-rule="evenodd" d="M422.005 133.354C413.089 125.771 399.714 126.851 392.131 135.767L273.699 275.021C270.643 278.614 268.994 282.932 268.698 287.302C268.532 288.371 268.446 289.466 268.446 290.581V468.603C268.446 480.308 277.934 489.796 289.639 489.796C301.344 489.796 310.832 480.308 310.832 468.603V296.784L424.419 163.228C432.002 154.312 430.921 140.937 422.005 133.354Z" fill="white"/>
    <rect x="113.972" y="134.25" width="42.3862" height="174.745" rx="21.1931" transform="rotate(-39.3441 113.972 134.25)" fill="white"/>
    <circle cx="460.126" cy="279.278" r="25.9027" fill="#00FF25"/>
</svg>