<svg width="80" height="22" viewBox="0 0 450 120" version="1.1" xmlns="http://www.w3.org/2000/svg" xmlns:xlink="http://www.w3.org/1999/xlink" xml:space="preserve" xmlns:serif="http://www.serif.com/" style="fill-rule:evenodd;clip-rule:evenodd;stroke-linejoin:round;stroke-miterlimit:2;">
    <g transform="matrix(0.172742,0,0,0.172742,9.60932,8.17741)">
        <circle cx="300" cy="300" r="300" style="fill:rgb(0,52,37);"/>
    </g>
    <g transform="matrix(0.172742,0,0,0.172742,9.60932,8.17741)">
        <path d="M452.119,361.224C452.119,349.527 442.623,340.031 430.926,340.031C419.229,340.031 409.733,349.527 409.733,361.224L409.733,470.486C409.733,482.183 419.229,491.679 430.926,491.679C442.623,491.679 452.119,482.183 452.119,470.486L452.119,361.224Z" style="fill:white;"/>
    </g>
    <g transform="matrix(0.172742,0,0,0.172742,9.60932,8.17741)">
        <path d="M422.005,133.354C413.089,125.771 399.714,126.851 392.131,135.767L273.699,275.021C270.643,278.614 268.994,282.932 268.698,287.302C268.532,288.371 268.446,289.466 268.446,290.581L268.446,468.603C268.446,480.308 277.934,489.796 289.639,489.796C301.344,489.796 310.832,480.308 310.832,468.603L310.832,296.784L424.419,163.228C432.002,154.312 430.921,140.937 422.005,133.354Z" style="fill:white;"/>
    </g>
    <g transform="matrix(0.13359,-0.109514,0.109514,0.13359,-0.630793,25.9151)">
        <path d="M156.358,155.443C156.358,143.746 146.862,134.25 135.165,134.25C123.468,134.25 113.972,143.746 113.972,155.443L113.972,287.802C113.972,299.499 123.468,308.995 135.165,308.995C146.862,308.995 156.358,299.499 156.358,287.802L156.358,155.443Z" style="fill:white;"/>
    </g>
    <g transform="matrix(0.172742,0,0,0.172742,9.60932,8.17741)">
        <circle cx="460.126" cy="279.278" r="25.903" style="fill:rgb(0,255,37);"/>
    </g>
    <g transform="matrix(1,0,0,1,-77.4848,13.0849)">
        <text x="210.275px" y="74.595px" style="font-family:'AlibabaPuHuiTi_3_55_Regular', 'Alibaba PuHuiTi 3.0', serif;font-size:80px;">零一万物</text>
    </g>
</svg>
