<svg width="64" height="24" viewBox="0 0 64 24" fill="none" xmlns="http://www.w3.org/2000/svg">
    <path fill-rule="evenodd" clip-rule="evenodd" d="M1.28808 1.39558C1.76461 1.00315 2.46905 1.07132 2.86149 1.54785L7.7517 7.48596C8.14414 7.96249 8.07597 8.66693 7.59944 9.05937C7.1229 9.45181 6.41847 9.38363 6.02603 8.9071L1.13582 2.96899C0.743382 2.49246 0.811553 1.78802 1.28808 1.39558Z" fill="#133426"/>
    <path fill-rule="evenodd" clip-rule="evenodd" d="M10.1689 22.3553C9.55157 22.3553 9.05112 21.8549 9.05109 21.2375L9.05075 10.7193C9.05074 10.4478 9.14951 10.1856 9.32863 9.98168L16.1801 2.17956C16.5875 1.7157 17.2937 1.66989 17.7576 2.07723C18.2214 2.48457 18.2673 3.19081 17.8599 3.65467L11.2863 11.1403L11.2866 21.2375C11.2866 21.8548 10.7862 22.3552 10.1689 22.3553Z" fill="#133426"/>
    <path fill-rule="evenodd" clip-rule="evenodd" d="M18.2138 13.7077C18.8311 13.7077 19.3315 14.2081 19.3315 14.8255V21.0896C19.3315 21.7069 18.8311 22.2073 18.2138 22.2073C17.5965 22.2073 17.096 21.7069 17.096 21.0896V14.8255C17.096 14.2081 17.5965 13.7077 18.2138 13.7077Z" fill="#133426"/>
    <circle cx="19.7936" cy="10.3307" r="1.73695" fill="#00FF00"/>
    <path d="M61.6555 10.3637V22H60.593V10.3637H61.6555Z" fill="black"/>
    <path d="M50.1101 22H48.9964L53.2294 10.3637H54.3658L58.5987 22H57.4851L53.8374 11.7444H53.7578L50.1101 22ZM50.9112 17.5398H56.6839V18.4944H50.9112V17.5398Z" fill="black"/>
    <path d="M46.3928 22.0853C46.1693 22.0853 45.9761 22.0057 45.8132 21.8466C45.6541 21.6838 45.5746 21.4906 45.5746 21.2671C45.5746 21.0398 45.6541 20.8466 45.8132 20.6875C45.9761 20.5285 46.1693 20.4489 46.3928 20.4489C46.62 20.4489 46.8132 20.5285 46.9723 20.6875C47.1314 20.8466 47.2109 21.0398 47.2109 21.2671C47.2109 21.4148 47.1731 21.5512 47.0973 21.6762C47.0253 21.8012 46.9268 21.9016 46.8018 21.9773C46.6806 22.0493 46.5443 22.0853 46.3928 22.0853Z" fill="black"/>
    <path d="M42.6996 10.3637V22H41.6371V11.4773H41.5689L38.8416 13.2898V12.1875L41.5916 10.3637H42.6996Z" fill="black"/>
    <path d="M32.9098 22.1591C32.0916 22.1591 31.3928 21.9243 30.8132 21.4546C30.2375 20.9811 29.7943 20.2974 29.4837 19.4035C29.1768 18.5095 29.0234 17.4357 29.0234 16.1819C29.0234 14.9319 29.1768 13.8618 29.4837 12.9716C29.7943 12.0777 30.2393 11.394 30.8189 10.9205C31.4022 10.4432 32.0992 10.2046 32.9098 10.2046C33.7204 10.2046 34.4155 10.4432 34.995 10.9205C35.5784 11.394 36.0234 12.0777 36.3303 12.9716C36.6409 13.8618 36.7962 14.9319 36.7962 16.1819C36.7962 17.4357 36.6409 18.5095 36.3303 19.4035C36.0234 20.2974 35.5803 20.9811 35.0007 21.4546C34.425 21.9243 33.728 22.1591 32.9098 22.1591ZM32.9098 21.2046C33.8075 21.2046 34.5083 20.7671 35.0121 19.8921C35.5159 19.0133 35.7678 17.7766 35.7678 16.1819C35.7678 15.1213 35.6522 14.216 35.4212 13.466C35.1939 12.7122 34.8662 12.1364 34.4382 11.7387C34.014 11.341 33.5045 11.1421 32.9098 11.1421C32.0196 11.1421 31.3208 11.5853 30.8132 12.4716C30.3056 13.3542 30.0518 14.591 30.0518 16.1819C30.0518 17.2425 30.1655 18.1478 30.3928 18.8978C30.6238 19.6478 30.9515 20.2197 31.3757 20.6137C31.8037 21.0076 32.3151 21.2046 32.9098 21.2046Z" fill="black"/>
    </svg>
    