<svg width="24" height="24" viewBox="0 0 24 24" fill="none" xmlns="http://www.w3.org/2000/svg">
    <rect x="1" y="1" width="22" height="22" rx="5" fill="#133426"/>
    <path fill-rule="evenodd" clip-rule="evenodd" d="M4.52004 4.43887C4.87945 4.1429 5.41077 4.19431 5.70676 4.55371L9.39515 9.03221C9.69114 9.39161 9.63972 9.92289 9.2803 10.2189C8.92089 10.5148 8.38957 10.4634 8.09358 10.104L4.40519 5.62553C4.1092 5.26613 4.16062 4.73485 4.52004 4.43887Z" fill="white"/>
    <path fill-rule="evenodd" clip-rule="evenodd" d="M11.2183 20.2466C10.7527 20.2466 10.3752 19.8692 10.3752 19.4036L10.3749 11.4708C10.3749 11.266 10.4494 11.0683 10.5845 10.9145L15.7522 5.03014C16.0594 4.6803 16.5921 4.64575 16.942 4.95297C17.2918 5.26018 17.3264 5.79283 17.0192 6.14266L12.0611 11.7883L12.0613 19.4035C12.0613 19.8691 11.6839 20.2466 11.2183 20.2466Z" fill="white"/>
    <path fill-rule="evenodd" clip-rule="evenodd" d="M17.2861 13.7246C17.7517 13.7246 18.1291 14.102 18.1291 14.5676V19.292C18.1291 19.7576 17.7517 20.135 17.2861 20.135C16.8205 20.135 16.443 19.7576 16.443 19.292V14.5676C16.443 14.102 16.8205 13.7246 17.2861 13.7246Z" fill="white"/>
    <ellipse cx="18.4761" cy="11.1782" rx="1.31008" ry="1.31" fill="#00FF00"/>
    </svg>
    