<svg width="24" height="24" viewBox="0 0 24 24" fill="none" xmlns="http://www.w3.org/2000/svg">
  <path fill="#1868DB" d="M4.1 15.7c-.4.7-.8 1.5-1.1 2.1-.2.5 0 1 .5 1.3l3.4 1.6c.5.2 1 0 1.3-.4.3-.6.7-1.3 1.1-2 2.9-4.8 5.9-4.2 11.1-1.8.5.2 1.1 0 1.3-.5l1.3-3.5c.2-.5-.1-1.1-.6-1.3-7.6-3.5-13.8-3.6-18.3 4.5Z"/>
  <path fill="#1868DB" fill-opacity=".55" d="M19.9 8.3c.4-.7.8-1.5 1.1-2.1.2-.5 0-1-.5-1.3l-3.4-1.6c-.5-.2-1 0-1.3.4-.3.6-.7 1.3-1.1 2-2.9 4.8-5.9 4.2-11.1 1.8-.5-.2-1.1 0-1.3.5L1 11.5c-.2.5.1 1.1.6 1.3 7.6 3.5 13.8 3.6 18.3-4.5Z"/>
</svg>
