<svg width="12" height="12" viewBox="0 0 12 12" fill="none" xmlns="http://www.w3.org/2000/svg">
<g id="beaker-02">
<path id="Solid" fill-rule="evenodd" clip-rule="evenodd" d="M4.13856 0.500003H7.8617C7.92126 0.49998 7.99238 0.499953 8.05504 0.505073C8.12765 0.511005 8.23165 0.526227 8.34062 0.581751C8.48174 0.653656 8.59648 0.768392 8.66838 0.909513C8.72391 1.01849 8.73913 1.12248 8.74506 1.19509C8.75018 1.25775 8.75015 1.32888 8.75013 1.38844V2.61157C8.75015 2.67113 8.75018 2.74226 8.74506 2.80492C8.73913 2.87753 8.72391 2.98153 8.66838 3.0905C8.59648 3.23162 8.48174 3.34636 8.34062 3.41826C8.23165 3.47379 8.12765 3.48901 8.05504 3.49494C8.03725 3.49639 8.01877 3.49743 8.00006 3.49817V5.2506C8.00006 5.55312 8.00408 5.61265 8.01723 5.66153C8.03245 5.71807 8.05747 5.7715 8.09117 5.81939C8.1203 5.86078 8.16346 5.90197 8.39586 6.09564L10.2807 7.66627C10.4566 7.81255 10.6116 7.94145 10.7267 8.10509C10.8278 8.24875 10.9029 8.40904 10.9486 8.57867C11.0005 8.7719 11.0003 8.97351 11.0001 9.2023C11.0001 9.39886 11.0002 9.59542 11.0002 9.79198C11.0003 9.98232 11.0005 10.1463 10.9713 10.2927C10.853 10.8877 10.3878 11.3529 9.7928 11.4712C9.64637 11.5003 9.48246 11.5002 9.29211 11.5001H2.70822C2.51787 11.5002 2.35396 11.5003 2.20753 11.4712C1.98473 11.4269 1.78014 11.334 1.60515 11.2038C1.42854 11.0725 1.28221 10.9034 1.17753 10.7077C1.10892 10.5796 1.05831 10.4401 1.02899 10.2927C0.999862 10.1463 0.999992 9.98233 1.00014 9.79199C1.00014 9.59542 1.00006 9.39886 1.00003 9.20229C0.999794 8.97351 0.999584 8.7719 1.05157 8.57867C1.09721 8.40904 1.17229 8.24875 1.27338 8.10509C1.38855 7.94145 1.54356 7.81255 1.71947 7.66627L3.60427 6.09564C3.83667 5.90197 3.87983 5.86078 3.90896 5.81939C3.94266 5.7715 3.96768 5.71807 3.9829 5.66153C3.99605 5.61265 4.00006 5.55312 4.00006 5.2506V3.49817C3.9814 3.49743 3.96297 3.49639 3.94521 3.49494C3.8726 3.48901 3.76861 3.47379 3.65964 3.41826C3.51851 3.34636 3.40378 3.23162 3.33187 3.0905C3.27635 2.98153 3.26113 2.87753 3.25519 2.80492C3.25008 2.74226 3.2501 2.67113 3.25013 2.61158V1.38844C3.2501 1.32888 3.25008 1.25775 3.25519 1.19509C3.26113 1.12248 3.27635 1.01849 3.33187 0.909513C3.40378 0.768392 3.51851 0.653656 3.65964 0.581751C3.76861 0.526227 3.8726 0.511005 3.94521 0.505073C4.00787 0.499953 4.079 0.49998 4.13856 0.500003ZM9.11909 8.00004H2.88104L4.28066 6.83373C4.45657 6.68745 4.61158 6.55855 4.72675 6.39491C4.82784 6.25125 4.90292 6.09096 4.94856 5.92133C5.00054 5.7281 5.00033 5.52649 5.0001 5.29771L5.00006 3.50001H7.00006L7.00003 5.29771C6.99979 5.52649 6.99958 5.7281 7.05157 5.92133C7.09721 6.09096 7.17229 6.25125 7.27338 6.39491C7.38855 6.55855 7.54356 6.68745 7.71947 6.83373L9.11909 8.00004Z" fill="#0E7090"/>
</g>
</svg>
