<svg width="24" height="24" viewBox="0 0 24 24" fill="none" xmlns="http://www.w3.org/2000/svg">
<path d="M12.5836 3.8721C12.3615 3.99329 12.1665 4.11496 12 4.22818C11.8335 4.11496 11.6385 3.99329 11.4164 3.8721C10.6185 3.4369 9.45449 3 8 3C6.48169 3 4.96498 3.60857 3.83296 4.81606C2.69616 6.02865 2 7.78592 2 10C2 13.3448 4.37277 16.1023 6.58187 17.9272C7.71336 18.8619 8.86688 19.6065 9.7917 20.1203C10.2539 20.377 10.6687 20.5816 11.004 20.7253C11.1707 20.7967 11.3289 20.858 11.4705 20.9033C11.5784 20.9378 11.7841 21 12 21C12.2159 21 12.4216 20.9378 12.5295 20.9033C12.6711 20.858 12.8293 20.7967 12.996 20.7253C13.3313 20.5816 13.7461 20.377 14.2083 20.1203C15.1331 19.6065 16.2866 18.8619 17.4181 17.9272C19.6272 16.1023 22 13.3448 22 10C22 7.78592 21.3038 6.02865 20.167 4.81606C19.035 3.60857 17.5183 3 16 3C14.5455 3 13.3815 3.4369 12.5836 3.8721Z" fill="black"/>
</svg>
