<?xml version="1.0" encoding="UTF-8" standalone="no"?>
<!DOCTYPE svg PUBLIC "-//W3C//DTD SVG 1.1//EN"
 "http://www.w3.org/Graphics/SVG/1.1/DTD/svg11.dtd">
<!-- Generated by graphviz version 9.0.0 (20230911.1827)
 -->
<!-- Title: G Pages: 1 -->
<svg width="1606pt" height="239pt"
 viewBox="0.00 0.00 1606.27 239.27" xmlns="http://www.w3.org/2000/svg" xmlns:xlink="http://www.w3.org/1999/xlink">
<g id="graph0" class="graph" transform="scale(1 1) rotate(0) translate(4 235.27)">
<title>G</title><style>.edge>path:hover{stroke-width:8}</style>
<polygon fill="white" stroke="none" points="-4,4 -4,-235.27 1602.27,-235.27 1602.27,4 -4,4"/>
<!-- fields_annotation_fields -->
<g id="node1" class="node">
<title>fields_annotation_fields</title><style>.edge>path:hover{stroke-width:8}</style>
<ellipse fill="#ac4949" stroke="black" cx="150.57" cy="-100.7" rx="63.29" ry="21.57"/>
<text text-anchor="middle" x="150.57" y="-102.45" font-family="Helvetica,sans-Serif" font-size="10.00" fill="#ffffff">fields.</text>
<text text-anchor="middle" x="150.57" y="-91.2" font-family="Helvetica,sans-Serif" font-size="10.00" fill="#ffffff">annotation_fields</text>
</g>
<!-- fields_api_based_extension_fields -->
<g id="node2" class="node">
<title>fields_api_based_extension_fields</title><style>.edge>path:hover{stroke-width:8}</style>
<ellipse fill="#ac4949" stroke="black" cx="816.57" cy="-100.7" rx="96.17" ry="21.57"/>
<text text-anchor="middle" x="816.57" y="-102.45" font-family="Helvetica,sans-Serif" font-size="10.00" fill="#ffffff">fields.</text>
<text text-anchor="middle" x="816.57" y="-91.2" font-family="Helvetica,sans-Serif" font-size="10.00" fill="#ffffff">api_based_extension_fields</text>
</g>
<!-- fields_app_fields -->
<g id="node3" class="node">
<title>fields_app_fields</title><style>.edge>path:hover{stroke-width:8}</style>
<ellipse fill="#ac4949" stroke="black" cx="560.57" cy="-100.7" rx="42.6" ry="21.57"/>
<text text-anchor="middle" x="560.57" y="-102.45" font-family="Helvetica,sans-Serif" font-size="10.00" fill="#ffffff">fields.</text>
<text text-anchor="middle" x="560.57" y="-91.2" font-family="Helvetica,sans-Serif" font-size="10.00" fill="#ffffff">app_fields</text>
</g>
<!-- fields_conversation_fields -->
<g id="node4" class="node">
<title>fields_conversation_fields</title><style>.edge>path:hover{stroke-width:8}</style>
<ellipse fill="#b83d3d" stroke="black" cx="302.57" cy="-100.7" rx="70.71" ry="21.57"/>
<text text-anchor="middle" x="302.57" y="-102.45" font-family="Helvetica,sans-Serif" font-size="10.00" fill="#ffffff">fields.</text>
<text text-anchor="middle" x="302.57" y="-91.2" font-family="Helvetica,sans-Serif" font-size="10.00" fill="#ffffff">conversation_fields</text>
</g>
<!-- fields_message_fields -->
<g id="node11" class="node">
<title>fields_message_fields</title><style>.edge>path:hover{stroke-width:8}</style>
<ellipse fill="#9d4343" stroke="black" cx="59.57" cy="-21.57" rx="59.57" ry="21.57"/>
<text text-anchor="middle" x="59.57" y="-23.32" font-family="Helvetica,sans-Serif" font-size="10.00" fill="#ffffff">fields.</text>
<text text-anchor="middle" x="59.57" y="-12.07" font-family="Helvetica,sans-Serif" font-size="10.00" fill="#ffffff">message_fields</text>
</g>
<!-- fields_conversation_fields&#45;&gt;fields_message_fields -->
<g id="edge1" class="edge">
<title>fields_conversation_fields&#45;&gt;fields_message_fields</title><style>.edge>path:hover{stroke-width:8}</style>
<path fill="none" stroke="black" d="M254.56,-84.46C214.19,-71.64 156.47,-53.32 114.31,-39.94"/>
<polygon fill="#b83d3d" stroke="black" points="115.43,-36.63 104.84,-36.94 113.31,-43.3 115.43,-36.63"/>
</g>
<!-- fields_data_source_fields -->
<g id="node5" class="node">
<title>fields_data_source_fields</title><style>.edge>path:hover{stroke-width:8}</style>
<ellipse fill="#ac4949" stroke="black" cx="999.57" cy="-100.7" rx="69.12" ry="21.57"/>
<text text-anchor="middle" x="999.57" y="-102.45" font-family="Helvetica,sans-Serif" font-size="10.00" fill="#ffffff">fields.</text>
<text text-anchor="middle" x="999.57" y="-91.2" font-family="Helvetica,sans-Serif" font-size="10.00" fill="#ffffff">data_source_fields</text>
</g>
<!-- fields_dataset_fields -->
<g id="node6" class="node">
<title>fields_dataset_fields</title><style>.edge>path:hover{stroke-width:8}</style>
<ellipse fill="#b83d3d" stroke="black" cx="445.57" cy="-100.7" rx="54.27" ry="21.57"/>
<text text-anchor="middle" x="445.57" y="-102.45" font-family="Helvetica,sans-Serif" font-size="10.00" fill="#ffffff">fields.</text>
<text text-anchor="middle" x="445.57" y="-91.2" font-family="Helvetica,sans-Serif" font-size="10.00" fill="#ffffff">dataset_fields</text>
</g>
<!-- fields_document_fields -->
<g id="node7" class="node">
<title>fields_document_fields</title><style>.edge>path:hover{stroke-width:8}</style>
<ellipse fill="#9d4343" stroke="black" cx="1536.57" cy="-21.57" rx="61.7" ry="21.57"/>
<text text-anchor="middle" x="1536.57" y="-23.32" font-family="Helvetica,sans-Serif" font-size="10.00" fill="#ffffff">fields.</text>
<text text-anchor="middle" x="1536.57" y="-12.07" font-family="Helvetica,sans-Serif" font-size="10.00" fill="#ffffff">document_fields</text>
</g>
<!-- fields_dataset_fields&#45;&gt;fields_document_fields -->
<g id="edge2" class="edge">
<title>fields_dataset_fields&#45;&gt;fields_document_fields</title><style>.edge>path:hover{stroke-width:8}</style>
<path fill="none" stroke="black" d="M484.48,-85.26C492.36,-82.83 500.66,-80.62 508.57,-79.13 692.01,-44.76 1260.19,-28.82 1463.39,-24.12"/>
<polygon fill="#b83d3d" stroke="black" points="1463.37,-27.62 1473.29,-23.89 1463.21,-20.62 1463.37,-27.62"/>
</g>
<!-- fields_file_fields -->
<g id="node8" class="node">
<title>fields_file_fields</title><style>.edge>path:hover{stroke-width:8}</style>
<ellipse fill="#ac4949" stroke="black" cx="661.57" cy="-100.7" rx="40.48" ry="21.57"/>
<text text-anchor="middle" x="661.57" y="-102.45" font-family="Helvetica,sans-Serif" font-size="10.00" fill="#ffffff">fields.</text>
<text text-anchor="middle" x="661.57" y="-91.2" font-family="Helvetica,sans-Serif" font-size="10.00" fill="#ffffff">file_fields</text>
</g>
<!-- fields_hit_testing_fields -->
<g id="node9" class="node">
<title>fields_hit_testing_fields</title><style>.edge>path:hover{stroke-width:8}</style>
<ellipse fill="#ac4949" stroke="black" cx="1149.57" cy="-100.7" rx="63.29" ry="21.57"/>
<text text-anchor="middle" x="1149.57" y="-102.45" font-family="Helvetica,sans-Serif" font-size="10.00" fill="#ffffff">fields.</text>
<text text-anchor="middle" x="1149.57" y="-91.2" font-family="Helvetica,sans-Serif" font-size="10.00" fill="#ffffff">hit_testing_fields</text>
</g>
<!-- fields_installed_app_fields -->
<g id="node10" class="node">
<title>fields_installed_app_fields</title><style>.edge>path:hover{stroke-width:8}</style>
<ellipse fill="#ac4949" stroke="black" cx="1302.57" cy="-100.7" rx="71.77" ry="21.57"/>
<text text-anchor="middle" x="1302.57" y="-102.45" font-family="Helvetica,sans-Serif" font-size="10.00" fill="#ffffff">fields.</text>
<text text-anchor="middle" x="1302.57" y="-91.2" font-family="Helvetica,sans-Serif" font-size="10.00" fill="#ffffff">installed_app_fields</text>
</g>
<!-- fields_segment_fields -->
<g id="node12" class="node">
<title>fields_segment_fields</title><style>.edge>path:hover{stroke-width:8}</style>
<ellipse fill="#ac4949" stroke="black" cx="1450.57" cy="-100.7" rx="57.98" ry="21.57"/>
<text text-anchor="middle" x="1450.57" y="-102.45" font-family="Helvetica,sans-Serif" font-size="10.00" fill="#ffffff">fields.</text>
<text text-anchor="middle" x="1450.57" y="-91.2" font-family="Helvetica,sans-Serif" font-size="10.00" fill="#ffffff">segment_fields</text>
</g>
<!-- libs -->
<g id="node13" class="node">
<title>libs</title><style>.edge>path:hover{stroke-width:8}</style>
<ellipse fill="#10f9f9" stroke="black" cx="610.57" cy="-213.27" rx="27" ry="18"/>
<text text-anchor="middle" x="610.57" y="-209.39" font-family="Helvetica,sans-Serif" font-size="10.00" fill="#000000">libs</text>
</g>
<!-- libs&#45;&gt;fields_annotation_fields -->
<g id="edge3" class="edge">
<title>libs&#45;&gt;fields_annotation_fields</title><style>.edge>path:hover{stroke-width:8}</style>
<path fill="none" stroke="black" d="M610.57,-158.27C632.75,-121.08 265.13,-130.25 222.57,-122.27 217.41,-121.3 212.09,-120.13 206.79,-118.83"/>
<polygon fill="#10f9f9" stroke="black" points="208,-115.53 197.44,-116.43 206.25,-122.31 208,-115.53"/>
</g>
<!-- libs&#45;&gt;fields_api_based_extension_fields -->
<g id="edge4" class="edge">
<title>libs&#45;&gt;fields_api_based_extension_fields</title><style>.edge>path:hover{stroke-width:8}</style>
<path fill="none" stroke="black" d="M610.57,-158.27C617.37,-146.87 680.97,-130.53 735.73,-118.34"/>
<polygon fill="#10f9f9" stroke="black" points="736.4,-121.78 745.42,-116.21 734.9,-114.94 736.4,-121.78"/>
</g>
<!-- libs&#45;&gt;fields_app_fields -->
<g id="edge5" class="edge">
<title>libs&#45;&gt;fields_app_fields</title><style>.edge>path:hover{stroke-width:8}</style>
<path fill="none" stroke="black" d="M610.57,-158.27C617.98,-145.86 609.73,-133.65 597.94,-123.76"/>
<polygon fill="#10f9f9" stroke="black" points="600.22,-121.1 590.12,-117.91 596.03,-126.7 600.22,-121.1"/>
</g>
<!-- libs&#45;&gt;fields_conversation_fields -->
<g id="edge6" class="edge">
<title>libs&#45;&gt;fields_conversation_fields</title><style>.edge>path:hover{stroke-width:8}</style>
<path fill="none" stroke="black" d="M610.57,-158.27C636.85,-114.22 432.8,-132.66 382.57,-122.27 377.01,-121.12 371.26,-119.83 365.5,-118.47"/>
<polygon fill="#10f9f9" stroke="black" points="366.49,-115.11 355.95,-116.16 364.84,-121.92 366.49,-115.11"/>
</g>
<!-- libs&#45;&gt;fields_data_source_fields -->
<g id="edge7" class="edge">
<title>libs&#45;&gt;fields_data_source_fields</title><style>.edge>path:hover{stroke-width:8}</style>
<path fill="none" stroke="black" d="M610.57,-158.27C646.22,-98.52 853.21,-135.17 921.57,-122.27 927.19,-121.21 933,-119.96 938.8,-118.62"/>
<polygon fill="#10f9f9" stroke="black" points="939.52,-122.05 948.41,-116.29 937.87,-115.24 939.52,-122.05"/>
</g>
<!-- libs&#45;&gt;fields_dataset_fields -->
<g id="edge8" class="edge">
<title>libs&#45;&gt;fields_dataset_fields</title><style>.edge>path:hover{stroke-width:8}</style>
<path fill="none" stroke="black" d="M610.57,-158.27C611.35,-156.96 546.03,-134.97 497.35,-118.8"/>
<polygon fill="#10f9f9" stroke="black" points="498.65,-115.54 488.06,-115.72 496.45,-122.19 498.65,-115.54"/>
</g>
<!-- libs&#45;&gt;fields_document_fields -->
<g id="edge9" class="edge">
<title>libs&#45;&gt;fields_document_fields</title><style>.edge>path:hover{stroke-width:8}</style>
<path fill="none" stroke="black" d="M59.57,-99.7C59.56,-87.26 67.27,-84.34 78.57,-79.13 204.79,-20.96 1186.08,-20.96 1463.65,-22.14"/>
<polygon fill="#10f9f9" stroke="black" points="1463.25,-25.64 1473.27,-22.18 1463.28,-18.64 1463.25,-25.64"/>
<path fill="none" stroke="black" d="M610.57,-158.27C640.93,-107.39 132.02,-147.84 78.57,-122.27 67.35,-116.9 59.58,-114.14 59.57,-101.7"/>
<path fill="none" stroke="black" d="M606.35,-195.33C604.56,-184.3 604.16,-170.01 610.57,-159.27"/>
</g>
<!-- libs&#45;&gt;fields_file_fields -->
<g id="edge10" class="edge">
<title>libs&#45;&gt;fields_file_fields</title><style>.edge>path:hover{stroke-width:8}</style>
<path fill="none" stroke="black" d="M610.57,-158.27C616.99,-147.51 625.64,-136.97 633.99,-127.96"/>
<polygon fill="#10f9f9" stroke="black" points="636.36,-130.55 640.78,-120.92 631.32,-125.69 636.36,-130.55"/>
</g>
<!-- libs&#45;&gt;fields_hit_testing_fields -->
<g id="edge11" class="edge">
<title>libs&#45;&gt;fields_hit_testing_fields</title><style>.edge>path:hover{stroke-width:8}</style>
<path fill="none" stroke="black" d="M610.57,-158.27C637.24,-113.57 1026.35,-131.46 1077.57,-122.27 1082.74,-121.34 1088.07,-120.19 1093.38,-118.92"/>
<polygon fill="#10f9f9" stroke="black" points="1093.9,-122.4 1102.73,-116.53 1092.17,-115.62 1093.9,-122.4"/>
</g>
<!-- libs&#45;&gt;fields_installed_app_fields -->
<g id="edge12" class="edge">
<title>libs&#45;&gt;fields_installed_app_fields</title><style>.edge>path:hover{stroke-width:8}</style>
<path fill="none" stroke="black" d="M610.57,-158.27C627.99,-129.06 1187.97,-127.47 1221.57,-122.27 1227.67,-121.32 1233.97,-120.13 1240.24,-118.78"/>
<polygon fill="#10f9f9" stroke="black" points="1241,-122.2 1249.98,-116.57 1239.45,-115.37 1241,-122.2"/>
</g>
<!-- libs&#45;&gt;fields_message_fields -->
<g id="edge13" class="edge">
<title>libs&#45;&gt;fields_message_fields</title><style>.edge>path:hover{stroke-width:8}</style>
<path fill="none" stroke="black" d="M59.57,-99.7C59.56,-84.99 59.56,-68.71 59.56,-54.91"/>
<polygon fill="#10f9f9" stroke="black" points="63.06,-55.03 59.56,-45.03 56.06,-55.03 63.06,-55.03"/>
</g>
<!-- libs&#45;&gt;fields_segment_fields -->
<g id="edge14" class="edge">
<title>libs&#45;&gt;fields_segment_fields</title><style>.edge>path:hover{stroke-width:8}</style>
<path fill="none" stroke="black" d="M610.57,-158.27C632.6,-121.35 1341.22,-129.63 1383.57,-122.27 1388.43,-121.42 1393.42,-120.33 1398.38,-119.09"/>
<polygon fill="#10f9f9" stroke="black" points="1398.95,-122.57 1407.69,-116.58 1397.12,-115.81 1398.95,-122.57"/>
</g>
<!-- libs_helper -->
<g id="node14" class="node">
<title>libs_helper</title><style>.edge>path:hover{stroke-width:8}</style>
<ellipse fill="#10f9f9" stroke="black" cx="999.57" cy="-213.27" rx="35.65" ry="18"/>
<text text-anchor="middle" x="999.57" y="-209.39" font-family="Helvetica,sans-Serif" font-size="10.00" fill="#000000">libs.helper</text>
</g>
<!-- libs_helper&#45;&gt;fields_annotation_fields -->
<g id="edge15" class="edge">
<title>libs_helper&#45;&gt;fields_annotation_fields</title><style>.edge>path:hover{stroke-width:8}</style>
<path fill="none" stroke="black" d="M999.57,-158.27C975.26,-122.54 265.22,-129.25 222.57,-122.27 217.32,-121.41 211.9,-120.29 206.51,-119.03"/>
<polygon fill="#10f9f9" stroke="black" points="207.55,-115.69 197,-116.64 205.84,-122.48 207.55,-115.69"/>
<path fill="none" stroke="black" d="M1004.21,-195.07C1006.17,-183.92 1006.61,-169.61 999.57,-159.27"/>
</g>
<!-- libs_helper&#45;&gt;fields_api_based_extension_fields -->
<g id="edge16" class="edge">
<title>libs_helper&#45;&gt;fields_api_based_extension_fields</title><style>.edge>path:hover{stroke-width:8}</style>
<path fill="none" stroke="black" d="M999.57,-158.27C987.81,-140.98 943.44,-127.03 901.34,-117.3"/>
<polygon fill="#10f9f9" stroke="black" points="902.13,-113.89 891.61,-115.13 900.6,-120.72 902.13,-113.89"/>
</g>
<!-- libs_helper&#45;&gt;fields_app_fields -->
<g id="edge17" class="edge">
<title>libs_helper&#45;&gt;fields_app_fields</title><style>.edge>path:hover{stroke-width:8}</style>
<path fill="none" stroke="black" d="M999.57,-158.27C975.28,-122.56 654.58,-132.31 612.57,-122.27 609.28,-121.48 605.92,-120.53 602.57,-119.46"/>
<polygon fill="#10f9f9" stroke="black" points="604.04,-116.27 593.44,-116.28 601.73,-122.88 604.04,-116.27"/>
</g>
<!-- libs_helper&#45;&gt;fields_conversation_fields -->
<g id="edge18" class="edge">
<title>libs_helper&#45;&gt;fields_conversation_fields</title><style>.edge>path:hover{stroke-width:8}</style>
<path fill="none" stroke="black" d="M999.57,-158.27C960.94,-101.49 450.42,-132.87 382.57,-122.27 376.55,-121.33 370.32,-120.13 364.13,-118.79"/>
<polygon fill="#10f9f9" stroke="black" points="365.06,-115.41 354.53,-116.59 363.49,-122.24 365.06,-115.41"/>
</g>
<!-- libs_helper&#45;&gt;fields_data_source_fields -->
<g id="edge19" class="edge">
<title>libs_helper&#45;&gt;fields_data_source_fields</title><style>.edge>path:hover{stroke-width:8}</style>
<path fill="none" stroke="black" d="M999.57,-158.27C994.75,-151.18 993.22,-142.34 993.29,-133.78"/>
<polygon fill="#10f9f9" stroke="black" points="996.77,-134.22 994.1,-123.97 989.79,-133.65 996.77,-134.22"/>
</g>
<!-- libs_helper&#45;&gt;fields_dataset_fields -->
<g id="edge20" class="edge">
<title>libs_helper&#45;&gt;fields_dataset_fields</title><style>.edge>path:hover{stroke-width:8}</style>
<path fill="none" stroke="black" d="M999.57,-158.27C968.8,-113.04 562.25,-132.83 508.57,-122.27 504.25,-121.42 499.81,-120.36 495.39,-119.18"/>
<polygon fill="#10f9f9" stroke="black" points="496.54,-115.87 485.96,-116.45 494.59,-122.59 496.54,-115.87"/>
</g>
<!-- libs_helper&#45;&gt;fields_document_fields -->
<g id="edge21" class="edge">
<title>libs_helper&#45;&gt;fields_document_fields</title><style>.edge>path:hover{stroke-width:8}</style>
<path fill="none" stroke="black" d="M1536.57,-99.7C1536.57,-84.99 1536.57,-68.71 1536.57,-54.91"/>
<polygon fill="#10f9f9" stroke="black" points="1540.07,-55.03 1536.57,-45.03 1533.07,-55.03 1540.07,-55.03"/>
</g>
<!-- libs_helper&#45;&gt;fields_file_fields -->
<g id="edge22" class="edge">
<title>libs_helper&#45;&gt;fields_file_fields</title><style>.edge>path:hover{stroke-width:8}</style>
<path fill="none" stroke="black" d="M999.57,-158.27C963.29,-104.94 773.95,-138.68 711.57,-122.27 708.47,-121.45 705.3,-120.48 702.14,-119.42"/>
<polygon fill="#10f9f9" stroke="black" points="703.55,-116.21 692.96,-116.05 701.14,-122.78 703.55,-116.21"/>
</g>
<!-- libs_helper&#45;&gt;fields_hit_testing_fields -->
<g id="edge23" class="edge">
<title>libs_helper&#45;&gt;fields_hit_testing_fields</title><style>.edge>path:hover{stroke-width:8}</style>
<path fill="none" stroke="black" d="M999.57,-158.27C993.7,-149.63 1046.3,-131.67 1090.81,-118.29"/>
<polygon fill="#10f9f9" stroke="black" points="1091.57,-121.72 1100.17,-115.52 1089.58,-115.01 1091.57,-121.72"/>
</g>
<!-- libs_helper&#45;&gt;fields_installed_app_fields -->
<g id="edge24" class="edge">
<title>libs_helper&#45;&gt;fields_installed_app_fields</title><style>.edge>path:hover{stroke-width:8}</style>
<path fill="none" stroke="black" d="M999.57,-158.27C971.46,-116.95 1172.64,-132.43 1221.57,-122.27 1227.2,-121.1 1233.03,-119.8 1238.85,-118.44"/>
<polygon fill="#10f9f9" stroke="black" points="1239.63,-121.85 1248.54,-116.11 1238,-115.04 1239.63,-121.85"/>
</g>
<!-- libs_helper&#45;&gt;fields_message_fields -->
<g id="edge25" class="edge">
<title>libs_helper&#45;&gt;fields_message_fields</title><style>.edge>path:hover{stroke-width:8}</style>
<path fill="none" stroke="black" d="M999.57,-158.27C932.07,-59.06 1536.63,-221.69 1536.57,-101.7"/>
<path fill="none" stroke="black" d="M1536.57,-99.7C1536.57,-87.26 1528.88,-84.34 1517.57,-79.13 1391.13,-20.86 406.63,-20.96 131.05,-22.15"/>
<polygon fill="#10f9f9" stroke="black" points="131.11,-18.65 121.13,-22.19 131.15,-25.65 131.11,-18.65"/>
</g>
<!-- libs_helper&#45;&gt;fields_segment_fields -->
<g id="edge26" class="edge">
<title>libs_helper&#45;&gt;fields_segment_fields</title><style>.edge>path:hover{stroke-width:8}</style>
<path fill="none" stroke="black" d="M999.57,-158.27C975.46,-122.84 1341.54,-130.6 1383.57,-122.27 1388.21,-121.35 1392.97,-120.24 1397.73,-119.01"/>
<polygon fill="#10f9f9" stroke="black" points="1398.56,-122.41 1407.28,-116.38 1396.71,-115.66 1398.56,-122.41"/>
</g>
</g>
</svg>
