<?xml version="1.0" encoding="UTF-8" standalone="no"?>
<!DOCTYPE svg PUBLIC "-//W3C//DTD SVG 1.1//EN"
 "http://www.w3.org/Graphics/SVG/1.1/DTD/svg11.dtd">
<!-- Generated by graphviz version 9.0.0 (20230911.1827)
 -->
<!-- Title: G Pages: 1 -->
<svg width="347pt" height="160pt"
 viewBox="0.00 0.00 347.48 160.13" xmlns="http://www.w3.org/2000/svg" xmlns:xlink="http://www.w3.org/1999/xlink">
<g id="graph0" class="graph" transform="scale(1 1) rotate(0) translate(4 156.13)">
<title>G</title><style>.edge>path:hover{stroke-width:8}</style>
<polygon fill="white" stroke="none" points="-4,4 -4,-156.13 343.48,-156.13 343.48,4 -4,4"/>
<!-- libs_login -->
<g id="node1" class="node">
<title>libs_login</title><style>.edge>path:hover{stroke-width:8}</style>
<ellipse fill="#ac4949" stroke="black" cx="50.29" cy="-21.57" rx="32.1" ry="18"/>
<text text-anchor="middle" x="50.29" y="-17.69" font-family="Helvetica,sans-Serif" font-size="10.00" fill="#ffffff">libs.login</text>
</g>
<!-- libs_oauth -->
<g id="node2" class="node">
<title>libs_oauth</title><style>.edge>path:hover{stroke-width:8}</style>
<ellipse fill="#ac4949" stroke="black" cx="292.29" cy="-21.57" rx="34.32" ry="18"/>
<text text-anchor="middle" x="292.29" y="-17.69" font-family="Helvetica,sans-Serif" font-size="10.00" fill="#ffffff">libs.oauth</text>
</g>
<!-- libs_oauth_data_source -->
<g id="node3" class="node">
<title>libs_oauth_data_source</title><style>.edge>path:hover{stroke-width:8}</style>
<ellipse fill="#ac4949" stroke="black" cx="170.29" cy="-21.57" rx="69.65" ry="21.57"/>
<text text-anchor="middle" x="170.29" y="-23.32" font-family="Helvetica,sans-Serif" font-size="10.00" fill="#ffffff">libs.</text>
<text text-anchor="middle" x="170.29" y="-12.07" font-family="Helvetica,sans-Serif" font-size="10.00" fill="#ffffff">oauth_data_source</text>
</g>
<!-- models -->
<g id="node4" class="node">
<title>models</title><style>.edge>path:hover{stroke-width:8}</style>
<ellipse fill="#3bcece" stroke="black" cx="170.29" cy="-134.13" rx="28.11" ry="18"/>
<text text-anchor="middle" x="170.29" y="-130.26" font-family="Helvetica,sans-Serif" font-size="10.00" fill="#000000">models</text>
</g>
<!-- models&#45;&gt;libs_login -->
<g id="edge1" class="edge">
<title>models&#45;&gt;libs_login</title><style>.edge>path:hover{stroke-width:8}</style>
<path fill="none" stroke="black" d="M170.29,-79.13C170.52,-40.55 126.1,-59.79 91.29,-43.13 88.87,-41.97 86.37,-40.76 83.86,-39.53"/>
<polygon fill="#3bcece" stroke="black" points="85.51,-36.44 74.99,-35.14 82.4,-42.71 85.51,-36.44"/>
<path fill="none" stroke="black" d="M170.24,-115.95C170.23,-105.58 170.23,-92.1 170.29,-80.13"/>
</g>
<!-- models&#45;&gt;libs_oauth -->
<g id="edge2" class="edge">
<title>models&#45;&gt;libs_oauth</title><style>.edge>path:hover{stroke-width:8}</style>
<path fill="none" stroke="black" d="M170.29,-79.13C170.52,-40.55 214.33,-59.46 249.29,-43.13 252.01,-41.86 254.82,-40.54 257.64,-39.21"/>
<polygon fill="#3bcece" stroke="black" points="258.88,-42.5 266.41,-35.04 255.87,-36.18 258.88,-42.5"/>
</g>
<!-- models&#45;&gt;libs_oauth_data_source -->
<g id="edge3" class="edge">
<title>models&#45;&gt;libs_oauth_data_source</title><style>.edge>path:hover{stroke-width:8}</style>
<path fill="none" stroke="black" d="M170.29,-79.13C170.34,-71.31 170.36,-62.87 170.36,-54.97"/>
<polygon fill="#3bcece" stroke="black" points="173.86,-55.03 170.35,-45.03 166.86,-55.04 173.86,-55.03"/>
</g>
<!-- models_account -->
<g id="node5" class="node">
<title>models_account</title><style>.edge>path:hover{stroke-width:8}</style>
<ellipse fill="#53b6b6" stroke="black" cx="50.29" cy="-134.13" rx="50.29" ry="18"/>
<text text-anchor="middle" x="50.29" y="-130.26" font-family="Helvetica,sans-Serif" font-size="10.00" fill="#000000">models.account</text>
</g>
<!-- models_account&#45;&gt;libs_login -->
<g id="edge4" class="edge">
<title>models_account&#45;&gt;libs_login</title><style>.edge>path:hover{stroke-width:8}</style>
<path fill="none" stroke="black" d="M50.29,-115.86C50.29,-98.57 50.29,-71.69 50.29,-51.21"/>
<polygon fill="#53b6b6" stroke="black" points="53.79,-51.24 50.29,-41.24 46.79,-51.24 53.79,-51.24"/>
</g>
<!-- models_source -->
<g id="node6" class="node">
<title>models_source</title><style>.edge>path:hover{stroke-width:8}</style>
<ellipse fill="#47c2c2" stroke="black" cx="292.29" cy="-134.13" rx="47.19" ry="18"/>
<text text-anchor="middle" x="292.29" y="-130.26" font-family="Helvetica,sans-Serif" font-size="10.00" fill="#000000">models.source</text>
</g>
<!-- models_source&#45;&gt;libs_oauth -->
<g id="edge5" class="edge">
<title>models_source&#45;&gt;libs_oauth</title><style>.edge>path:hover{stroke-width:8}</style>
<path fill="none" stroke="black" d="M292.29,-79.13C288.61,-70.54 287.67,-60.5 287.93,-51.3"/>
<polygon fill="#47c2c2" stroke="black" points="291.42,-51.61 288.74,-41.36 284.44,-51.05 291.42,-51.61"/>
</g>
<!-- models_source&#45;&gt;libs_oauth_data_source -->
<g id="edge6" class="edge">
<title>models_source&#45;&gt;libs_oauth_data_source</title><style>.edge>path:hover{stroke-width:8}</style>
<path fill="none" stroke="black" d="M295.66,-115.73C296.93,-105.04 297.08,-91.3 292.29,-80.13"/>
<path fill="none" stroke="black" d="M292.29,-79.13C286.56,-65.77 257.52,-52.01 229.21,-41.42"/>
<polygon fill="#47c2c2" stroke="black" points="230.46,-38.15 219.86,-38.03 228.07,-44.73 230.46,-38.15"/>
</g>
</g>
</svg>
