<?xml version="1.0" encoding="UTF-8" standalone="no"?>
<!DOCTYPE svg PUBLIC "-//W3C//DTD SVG 1.1//EN"
 "http://www.w3.org/Graphics/SVG/1.1/DTD/svg11.dtd">
<!-- Generated by graphviz version 9.0.0 (20230911.1827)
 -->
<!-- Title: G Pages: 1 -->
<svg width="396pt" height="450pt"
 viewBox="0.00 0.00 396.26 450.09" xmlns="http://www.w3.org/2000/svg" xmlns:xlink="http://www.w3.org/1999/xlink">
<g id="graph0" class="graph" transform="scale(1 1) rotate(0) translate(4 446.09)">
<title>G</title><style>.edge>path:hover{stroke-width:8}</style>
<polygon fill="white" stroke="none" points="-4,4 -4,-446.09 392.26,-446.09 392.26,4 -4,4"/>
<!-- core -->
<g id="node1" class="node">
<title>core</title><style>.edge>path:hover{stroke-width:8}</style>
<ellipse fill="#bc2f2f" stroke="black" cx="304.88" cy="-234" rx="27" ry="18"/>
<text text-anchor="middle" x="304.88" y="-230.12" font-family="Helvetica,sans-Serif" font-size="10.00" fill="#ffffff">core</text>
</g>
<!-- models_model -->
<g id="node10" class="node">
<title>models_model</title><style>.edge>path:hover{stroke-width:8}</style>
<ellipse fill="#26269b" stroke="black" cx="139.88" cy="-90" rx="45.41" ry="18"/>
<text text-anchor="middle" x="139.88" y="-86.12" font-family="Helvetica,sans-Serif" font-size="10.00" fill="#ffffff">models.model</text>
</g>
<!-- core&#45;&gt;models_model -->
<g id="edge1" class="edge">
<title>core&#45;&gt;models_model</title><style>.edge>path:hover{stroke-width:8}</style>
<path fill="none" stroke="black" d="M283.25,-222.6C278.53,-220.38 273.55,-218.08 268.88,-216 213.4,-191.25 150.37,-223.29 142.88,-163"/>
</g>
<!-- core_file -->
<g id="node2" class="node">
<title>core_file</title><style>.edge>path:hover{stroke-width:8}</style>
<ellipse fill="#b65353" stroke="black" cx="29.88" cy="-234" rx="29.88" ry="18"/>
<text text-anchor="middle" x="29.88" y="-230.12" font-family="Helvetica,sans-Serif" font-size="10.00" fill="#ffffff">core.file</text>
</g>
<!-- core_file&#45;&gt;models_model -->
<g id="edge2" class="edge">
<title>core_file&#45;&gt;models_model</title><style>.edge>path:hover{stroke-width:8}</style>
<path fill="none" stroke="black" d="M142.88,-161C141.2,-147.46 140.42,-132.35 140.07,-119.64"/>
<polygon fill="#b65353" stroke="black" points="143.57,-119.77 139.88,-109.84 136.57,-119.9 143.57,-119.77"/>
<path fill="none" stroke="black" d="M54.81,-223.49C88.85,-209.7 145.43,-183.55 142.88,-163"/>
</g>
<!-- core_file_upload_file_parser -->
<g id="node3" class="node">
<title>core_file_upload_file_parser</title><style>.edge>path:hover{stroke-width:8}</style>
<ellipse fill="#b65353" stroke="black" cx="87.88" cy="-317.52" rx="67" ry="29.52"/>
<text text-anchor="middle" x="87.88" y="-324.9" font-family="Helvetica,sans-Serif" font-size="10.00" fill="#ffffff">core.</text>
<text text-anchor="middle" x="87.88" y="-313.65" font-family="Helvetica,sans-Serif" font-size="10.00" fill="#ffffff">file.</text>
<text text-anchor="middle" x="87.88" y="-302.4" font-family="Helvetica,sans-Serif" font-size="10.00" fill="#ffffff">upload_file_parser</text>
</g>
<!-- core_file_upload_file_parser&#45;&gt;models_model -->
<g id="edge3" class="edge">
<title>core_file_upload_file_parser&#45;&gt;models_model</title><style>.edge>path:hover{stroke-width:8}</style>
<path fill="none" stroke="black" d="M90.15,-287.9C92.53,-267.29 97.32,-239.15 106.88,-216 117.75,-189.68 146.39,-191.26 142.88,-163"/>
</g>
<!-- core_moderation -->
<g id="node4" class="node">
<title>core_moderation</title><style>.edge>path:hover{stroke-width:8}</style>
<ellipse fill="#b65353" stroke="black" cx="267.88" cy="-317.52" rx="45.25" ry="21.57"/>
<text text-anchor="middle" x="267.88" y="-319.27" font-family="Helvetica,sans-Serif" font-size="10.00" fill="#ffffff">core.</text>
<text text-anchor="middle" x="267.88" y="-308.02" font-family="Helvetica,sans-Serif" font-size="10.00" fill="#ffffff">moderation</text>
</g>
<!-- core_moderation&#45;&gt;core -->
<g id="edge4" class="edge">
<title>core_moderation&#45;&gt;core</title><style>.edge>path:hover{stroke-width:8}</style>
<path fill="none" stroke="black" d="M277.22,-295.95C281.87,-285.69 287.57,-273.15 292.57,-262.12"/>
<polygon fill="#b65353" stroke="black" points="295.72,-263.66 296.66,-253.1 289.34,-260.76 295.72,-263.66"/>
</g>
<!-- core_moderation_base -->
<g id="node5" class="node">
<title>core_moderation_base</title><style>.edge>path:hover{stroke-width:8}</style>
<ellipse fill="#b34c4c" stroke="black" cx="340.88" cy="-412.57" rx="47.38" ry="29.52"/>
<text text-anchor="middle" x="340.88" y="-419.94" font-family="Helvetica,sans-Serif" font-size="10.00" fill="#ffffff">core.</text>
<text text-anchor="middle" x="340.88" y="-408.69" font-family="Helvetica,sans-Serif" font-size="10.00" fill="#ffffff">moderation.</text>
<text text-anchor="middle" x="340.88" y="-397.44" font-family="Helvetica,sans-Serif" font-size="10.00" fill="#ffffff">base</text>
</g>
<!-- core_moderation_base&#45;&gt;core -->
<g id="edge5" class="edge">
<title>core_moderation_base&#45;&gt;core</title><style>.edge>path:hover{stroke-width:8}</style>
<path fill="none" stroke="black" d="M337.77,-382.85C334.73,-357.65 329.45,-320.11 321.88,-288 319.92,-279.69 317.29,-270.8 314.68,-262.73"/>
<polygon fill="#b34c4c" stroke="black" points="318.06,-261.8 311.57,-253.43 311.43,-264.02 318.06,-261.8"/>
</g>
<!-- libs -->
<g id="node6" class="node">
<title>libs</title><style>.edge>path:hover{stroke-width:8}</style>
<ellipse fill="#53b653" stroke="black" cx="142.88" cy="-234" rx="27" ry="18"/>
<text text-anchor="middle" x="142.88" y="-230.12" font-family="Helvetica,sans-Serif" font-size="10.00" fill="#000000">libs</text>
</g>
<!-- libs&#45;&gt;models_model -->
<g id="edge6" class="edge">
<title>libs&#45;&gt;models_model</title><style>.edge>path:hover{stroke-width:8}</style>
<path fill="none" stroke="black" d="M144.06,-215.67C144.75,-201.46 145.1,-180.85 142.88,-163"/>
</g>
<!-- libs_helper -->
<g id="node7" class="node">
<title>libs_helper</title><style>.edge>path:hover{stroke-width:8}</style>
<ellipse fill="#53b653" stroke="black" cx="223.88" cy="-234" rx="35.65" ry="18"/>
<text text-anchor="middle" x="223.88" y="-230.12" font-family="Helvetica,sans-Serif" font-size="10.00" fill="#000000">libs.helper</text>
</g>
<!-- libs_helper&#45;&gt;models_model -->
<g id="edge7" class="edge">
<title>libs_helper&#45;&gt;models_model</title><style>.edge>path:hover{stroke-width:8}</style>
<path fill="none" stroke="black" d="M196.8,-221.83C174.63,-210.71 146.38,-191.22 142.88,-163"/>
</g>
<!-- models_account -->
<g id="node8" class="node">
<title>models_account</title><style>.edge>path:hover{stroke-width:8}</style>
<ellipse fill="#3b3bce" stroke="black" cx="64.88" cy="-162" rx="50.29" ry="18"/>
<text text-anchor="middle" x="64.88" y="-158.12" font-family="Helvetica,sans-Serif" font-size="10.00" fill="#ffffff">models.account</text>
</g>
<!-- models_dataset -->
<g id="node9" class="node">
<title>models_dataset</title><style>.edge>path:hover{stroke-width:8}</style>
<ellipse fill="#3a3ab0" stroke="black" cx="64.88" cy="-18" rx="48.96" ry="18"/>
<text text-anchor="middle" x="64.88" y="-14.12" font-family="Helvetica,sans-Serif" font-size="10.00" fill="#ffffff">models.dataset</text>
</g>
<!-- models_account&#45;&gt;models_dataset -->
<g id="edge8" class="edge">
<title>models_account&#45;&gt;models_dataset</title><style>.edge>path:hover{stroke-width:8}</style>
<path fill="none" stroke="black" d="M64.88,-143.59C64.88,-119.61 64.88,-76.14 64.88,-47.42"/>
<polygon fill="#3b3bce" stroke="black" points="68.38,-47.62 64.88,-37.62 61.38,-47.62 68.38,-47.62"/>
</g>
<!-- models_account&#45;&gt;models_model -->
<g id="edge9" class="edge">
<title>models_account&#45;&gt;models_model</title><style>.edge>path:hover{stroke-width:8}</style>
<path fill="none" stroke="black" d="M82.28,-144.76C91.9,-135.78 104.04,-124.45 114.69,-114.51"/>
<polygon fill="#3b3bce" stroke="black" points="116.81,-117.32 121.73,-107.94 112.03,-112.2 116.81,-117.32"/>
</g>
<!-- models_model&#45;&gt;models_dataset -->
<g id="edge11" class="edge">
<title>models_model&#45;&gt;models_dataset</title><style>.edge>path:hover{stroke-width:8}</style>
<path fill="none" stroke="black" d="M114.73,-65.53C107.01,-58.32 98.5,-50.38 90.73,-43.12"/>
<polygon fill="#26269b" stroke="black" points="112.06,-67.82 121.76,-72.08 116.83,-62.7 112.06,-67.82"/>
<polygon fill="#26269b" stroke="black" points="93.16,-40.6 83.46,-36.34 88.38,-45.72 93.16,-40.6"/>
</g>
<!-- models_web -->
<g id="node11" class="node">
<title>models_web</title><style>.edge>path:hover{stroke-width:8}</style>
<ellipse fill="#4949ac" stroke="black" cx="171.88" cy="-18" rx="40.53" ry="18"/>
<text text-anchor="middle" x="171.88" y="-14.12" font-family="Helvetica,sans-Serif" font-size="10.00" fill="#ffffff">models.web</text>
</g>
<!-- models_model&#45;&gt;models_web -->
<g id="edge12" class="edge">
<title>models_model&#45;&gt;models_web</title><style>.edge>path:hover{stroke-width:8}</style>
<path fill="none" stroke="black" d="M147.63,-72.05C151.2,-64.23 155.54,-54.75 159.55,-45.98"/>
<polygon fill="#26269b" stroke="black" points="162.6,-47.72 163.58,-37.17 156.24,-44.81 162.6,-47.72"/>
</g>
</g>
</svg>
