<?xml version="1.0" encoding="UTF-8" standalone="no"?>
<!DOCTYPE svg PUBLIC "-//W3C//DTD SVG 1.1//EN"
 "http://www.w3.org/Graphics/SVG/1.1/DTD/svg11.dtd">
<!-- Generated by graphviz version 9.0.0 (20230911.1827)
 -->
<!-- Title: G Pages: 1 -->
<svg width="1576pt" height="479pt"
 viewBox="0.00 0.00 1575.66 478.62" xmlns="http://www.w3.org/2000/svg" xmlns:xlink="http://www.w3.org/1999/xlink">
<g id="graph0" class="graph" transform="scale(1 1) rotate(0) translate(4 474.62)">
<title>G</title><style>.edge>path:hover{stroke-width:8}</style>
<polygon fill="white" stroke="none" points="-4,4 -4,-474.62 1571.66,-474.62 1571.66,4 -4,4"/>
<!-- services -->
<g id="node1" class="node">
<title>services</title><style>.edge>path:hover{stroke-width:8}</style>
<ellipse fill="#ef0606" stroke="black" cx="738.54" cy="-179.83" rx="31.21" ry="18"/>
<text text-anchor="middle" x="738.54" y="-175.96" font-family="Helvetica,sans-Serif" font-size="10.00" fill="#ffffff">services</text>
</g>
<!-- services_account_service -->
<g id="node2" class="node">
<title>services_account_service</title><style>.edge>path:hover{stroke-width:8}</style>
<ellipse fill="#b03a3a" stroke="black" cx="391.54" cy="-179.83" rx="61.7" ry="21.57"/>
<text text-anchor="middle" x="391.54" y="-181.58" font-family="Helvetica,sans-Serif" font-size="10.00" fill="#ffffff">services.</text>
<text text-anchor="middle" x="391.54" y="-170.33" font-family="Helvetica,sans-Serif" font-size="10.00" fill="#ffffff">account_service</text>
</g>
<!-- services_workspace_service -->
<g id="node33" class="node">
<title>services_workspace_service</title><style>.edge>path:hover{stroke-width:8}</style>
<ellipse fill="#a44646" stroke="black" cx="345.54" cy="-100.7" rx="70.71" ry="21.57"/>
<text text-anchor="middle" x="345.54" y="-102.45" font-family="Helvetica,sans-Serif" font-size="10.00" fill="#ffffff">services.</text>
<text text-anchor="middle" x="345.54" y="-91.2" font-family="Helvetica,sans-Serif" font-size="10.00" fill="#ffffff">workspace_service</text>
</g>
<!-- services_account_service&#45;&gt;services_workspace_service -->
<g id="edge1" class="edge">
<title>services_account_service&#45;&gt;services_workspace_service</title><style>.edge>path:hover{stroke-width:8}</style>
<path fill="none" stroke="black" d="M379.46,-158.57C374.62,-150.46 368.95,-140.95 363.64,-132.05"/>
<polygon fill="#b03a3a" stroke="black" points="366.77,-130.46 358.64,-123.67 360.76,-134.05 366.77,-130.46"/>
</g>
<!-- services_app_model_config_service -->
<g id="node3" class="node">
<title>services_app_model_config_service</title><style>.edge>path:hover{stroke-width:8}</style>
<ellipse fill="#b83d3d" stroke="black" cx="140.54" cy="-100.7" rx="92.98" ry="21.57"/>
<text text-anchor="middle" x="140.54" y="-102.45" font-family="Helvetica,sans-Serif" font-size="10.00" fill="#ffffff">services.</text>
<text text-anchor="middle" x="140.54" y="-91.2" font-family="Helvetica,sans-Serif" font-size="10.00" fill="#ffffff">app_model_config_service</text>
</g>
<!-- services_completion_service -->
<g id="node6" class="node">
<title>services_completion_service</title><style>.edge>path:hover{stroke-width:8}</style>
<ellipse fill="#883a3a" stroke="black" cx="755.54" cy="-21.57" rx="70.71" ry="21.57"/>
<text text-anchor="middle" x="755.54" y="-23.32" font-family="Helvetica,sans-Serif" font-size="10.00" fill="#ffffff">services.</text>
<text text-anchor="middle" x="755.54" y="-12.07" font-family="Helvetica,sans-Serif" font-size="10.00" fill="#ffffff">completion_service</text>
</g>
<!-- services_app_model_config_service&#45;&gt;services_completion_service -->
<g id="edge2" class="edge">
<title>services_app_model_config_service&#45;&gt;services_completion_service</title><style>.edge>path:hover{stroke-width:8}</style>
<path fill="none" stroke="black" d="M213.82,-87.04C230.78,-84.28 248.77,-81.48 265.54,-79.13 410.6,-58.84 580.57,-40.41 677.4,-30.42"/>
<polygon fill="#b83d3d" stroke="black" points="677.74,-33.9 687.33,-29.39 677.03,-26.94 677.74,-33.9"/>
</g>
<!-- services_audio_service -->
<g id="node4" class="node">
<title>services_audio_service</title><style>.edge>path:hover{stroke-width:8}</style>
<ellipse fill="#a44646" stroke="black" cx="635.54" cy="-179.83" rx="53.74" ry="21.57"/>
<text text-anchor="middle" x="635.54" y="-181.58" font-family="Helvetica,sans-Serif" font-size="10.00" fill="#ffffff">services.</text>
<text text-anchor="middle" x="635.54" y="-170.33" font-family="Helvetica,sans-Serif" font-size="10.00" fill="#ffffff">audio_service</text>
</g>
<!-- services_billing_service -->
<g id="node5" class="node">
<title>services_billing_service</title><style>.edge>path:hover{stroke-width:8}</style>
<ellipse fill="#c24747" stroke="black" cx="314.54" cy="-258.97" rx="54.8" ry="21.57"/>
<text text-anchor="middle" x="314.54" y="-260.72" font-family="Helvetica,sans-Serif" font-size="10.00" fill="#ffffff">services.</text>
<text text-anchor="middle" x="314.54" y="-249.47" font-family="Helvetica,sans-Serif" font-size="10.00" fill="#ffffff">billing_service</text>
</g>
<!-- services_feature_service -->
<g id="node24" class="node">
<title>services_feature_service</title><style>.edge>path:hover{stroke-width:8}</style>
<ellipse fill="#b83d3d" stroke="black" cx="253.54" cy="-179.83" rx="58.51" ry="21.57"/>
<text text-anchor="middle" x="253.54" y="-181.58" font-family="Helvetica,sans-Serif" font-size="10.00" fill="#ffffff">services.</text>
<text text-anchor="middle" x="253.54" y="-170.33" font-family="Helvetica,sans-Serif" font-size="10.00" fill="#ffffff">feature_service</text>
</g>
<!-- services_billing_service&#45;&gt;services_feature_service -->
<g id="edge3" class="edge">
<title>services_billing_service&#45;&gt;services_feature_service</title><style>.edge>path:hover{stroke-width:8}</style>
<path fill="none" stroke="black" d="M298.83,-238.1C291.99,-229.44 283.82,-219.12 276.33,-209.65"/>
<polygon fill="#c24747" stroke="black" points="279.3,-207.76 270.35,-202.09 273.81,-212.1 279.3,-207.76"/>
</g>
<!-- services_conversation_service -->
<g id="node7" class="node">
<title>services_conversation_service</title><style>.edge>path:hover{stroke-width:8}</style>
<ellipse fill="#b42d2d" stroke="black" cx="1016.54" cy="-179.83" rx="76.54" ry="21.57"/>
<text text-anchor="middle" x="1016.54" y="-181.58" font-family="Helvetica,sans-Serif" font-size="10.00" fill="#ffffff">services.</text>
<text text-anchor="middle" x="1016.54" y="-170.33" font-family="Helvetica,sans-Serif" font-size="10.00" fill="#ffffff">conversation_service</text>
</g>
<!-- services_message_service -->
<g id="node27" class="node">
<title>services_message_service</title><style>.edge>path:hover{stroke-width:8}</style>
<ellipse fill="#993333" stroke="black" cx="890.54" cy="-100.7" rx="65.41" ry="21.57"/>
<text text-anchor="middle" x="890.54" y="-102.45" font-family="Helvetica,sans-Serif" font-size="10.00" fill="#ffffff">services.</text>
<text text-anchor="middle" x="890.54" y="-91.2" font-family="Helvetica,sans-Serif" font-size="10.00" fill="#ffffff">message_service</text>
</g>
<!-- services_conversation_service&#45;&gt;services_message_service -->
<g id="edge4" class="edge">
<title>services_conversation_service&#45;&gt;services_message_service</title><style>.edge>path:hover{stroke-width:8}</style>
<path fill="none" stroke="black" d="M985.4,-159.77C968.79,-149.6 948.19,-136.99 930.43,-126.12"/>
<polygon fill="#b42d2d" stroke="black" points="932.54,-123.31 922.19,-121.07 928.89,-129.28 932.54,-123.31"/>
</g>
<!-- services_web_conversation_service -->
<g id="node32" class="node">
<title>services_web_conversation_service</title><style>.edge>path:hover{stroke-width:8}</style>
<ellipse fill="#ac4949" stroke="black" cx="1066.54" cy="-100.7" rx="92.98" ry="21.57"/>
<text text-anchor="middle" x="1066.54" y="-102.45" font-family="Helvetica,sans-Serif" font-size="10.00" fill="#ffffff">services.</text>
<text text-anchor="middle" x="1066.54" y="-91.2" font-family="Helvetica,sans-Serif" font-size="10.00" fill="#ffffff">web_conversation_service</text>
</g>
<!-- services_conversation_service&#45;&gt;services_web_conversation_service -->
<g id="edge5" class="edge">
<title>services_conversation_service&#45;&gt;services_web_conversation_service</title><style>.edge>path:hover{stroke-width:8}</style>
<path fill="none" stroke="black" d="M1029.94,-158.16C1035.15,-150.12 1041.23,-140.75 1046.92,-131.97"/>
<polygon fill="#b42d2d" stroke="black" points="1049.78,-133.99 1052.28,-123.7 1043.91,-130.19 1049.78,-133.99"/>
</g>
<!-- services_dataset_service -->
<g id="node8" class="node">
<title>services_dataset_service</title><style>.edge>path:hover{stroke-width:8}</style>
<ellipse fill="#913030" stroke="black" cx="116.54" cy="-179.83" rx="60.1" ry="21.57"/>
<text text-anchor="middle" x="116.54" y="-181.58" font-family="Helvetica,sans-Serif" font-size="10.00" fill="#ffffff">services.</text>
<text text-anchor="middle" x="116.54" y="-170.33" font-family="Helvetica,sans-Serif" font-size="10.00" fill="#ffffff">dataset_service</text>
</g>
<!-- services_dataset_service&#45;&gt;services_app_model_config_service -->
<g id="edge6" class="edge">
<title>services_dataset_service&#45;&gt;services_app_model_config_service</title><style>.edge>path:hover{stroke-width:8}</style>
<path fill="none" stroke="black" d="M122.97,-158.16C125.32,-150.62 128.04,-141.89 130.62,-133.6"/>
<polygon fill="#913030" stroke="black" points="133.93,-134.73 133.56,-124.14 127.25,-132.65 133.93,-134.73"/>
</g>
<!-- services_entities -->
<g id="node9" class="node">
<title>services_entities</title><style>.edge>path:hover{stroke-width:8}</style>
<ellipse fill="#c24747" stroke="black" cx="1267.54" cy="-346.06" rx="39.42" ry="21.57"/>
<text text-anchor="middle" x="1267.54" y="-347.81" font-family="Helvetica,sans-Serif" font-size="10.00" fill="#ffffff">services.</text>
<text text-anchor="middle" x="1267.54" y="-336.56" font-family="Helvetica,sans-Serif" font-size="10.00" fill="#ffffff">entities</text>
</g>
<!-- services_model_provider_service -->
<g id="node28" class="node">
<title>services_model_provider_service</title><style>.edge>path:hover{stroke-width:8}</style>
<ellipse fill="#a44646" stroke="black" cx="1299.54" cy="-258.97" rx="83.97" ry="21.57"/>
<text text-anchor="middle" x="1299.54" y="-260.72" font-family="Helvetica,sans-Serif" font-size="10.00" fill="#ffffff">services.</text>
<text text-anchor="middle" x="1299.54" y="-249.47" font-family="Helvetica,sans-Serif" font-size="10.00" fill="#ffffff">model_provider_service</text>
</g>
<!-- services_entities&#45;&gt;services_model_provider_service -->
<g id="edge7" class="edge">
<title>services_entities&#45;&gt;services_model_provider_service</title><style>.edge>path:hover{stroke-width:8}</style>
<path fill="none" stroke="black" d="M1275.29,-324.46C1279.03,-314.5 1283.61,-302.33 1287.78,-291.26"/>
<polygon fill="#c24747" stroke="black" points="1290.98,-292.68 1291.22,-282.09 1284.43,-290.21 1290.98,-292.68"/>
</g>
<!-- services_entities_model_provider_entities -->
<g id="node10" class="node">
<title>services_entities_model_provider_entities</title><style>.edge>path:hover{stroke-width:8}</style>
<ellipse fill="#c24747" stroke="black" cx="1334.54" cy="-441.1" rx="83.97" ry="29.52"/>
<text text-anchor="middle" x="1334.54" y="-448.47" font-family="Helvetica,sans-Serif" font-size="10.00" fill="#ffffff">services.</text>
<text text-anchor="middle" x="1334.54" y="-437.22" font-family="Helvetica,sans-Serif" font-size="10.00" fill="#ffffff">entities.</text>
<text text-anchor="middle" x="1334.54" y="-425.97" font-family="Helvetica,sans-Serif" font-size="10.00" fill="#ffffff">model_provider_entities</text>
</g>
<!-- services_entities_model_provider_entities&#45;&gt;services_model_provider_service -->
<g id="edge8" class="edge">
<title>services_entities_model_provider_entities&#45;&gt;services_model_provider_service</title><style>.edge>path:hover{stroke-width:8}</style>
<path fill="none" stroke="black" d="M1331.12,-411.2C1327.9,-386.04 1322.53,-348.67 1315.54,-316.53 1313.77,-308.4 1311.51,-299.71 1309.24,-291.64"/>
<polygon fill="#c24747" stroke="black" points="1312.66,-290.85 1306.51,-282.22 1305.93,-292.8 1312.66,-290.85"/>
</g>
<!-- services_errors -->
<g id="node11" class="node">
<title>services_errors</title><style>.edge>path:hover{stroke-width:8}</style>
<ellipse fill="#950303" stroke="black" cx="635.54" cy="-258.97" rx="39.42" ry="21.57"/>
<text text-anchor="middle" x="635.54" y="-260.72" font-family="Helvetica,sans-Serif" font-size="10.00" fill="#ffffff">services.</text>
<text text-anchor="middle" x="635.54" y="-249.47" font-family="Helvetica,sans-Serif" font-size="10.00" fill="#ffffff">errors</text>
</g>
<!-- services_errors&#45;&gt;services -->
<g id="edge9" class="edge">
<title>services_errors&#45;&gt;services</title><style>.edge>path:hover{stroke-width:8}</style>
<path fill="none" stroke="black" d="M658.15,-241.04C673.69,-229.4 694.43,-213.87 710.95,-201.5"/>
<polygon fill="#950303" stroke="black" points="713,-204.34 718.9,-195.54 708.8,-198.73 713,-204.34"/>
</g>
<!-- services_errors&#45;&gt;services_account_service -->
<g id="edge10" class="edge">
<title>services_errors&#45;&gt;services_account_service</title><style>.edge>path:hover{stroke-width:8}</style>
<path fill="none" stroke="black" d="M601.87,-247.32C561.97,-234.71 494.89,-213.51 447.22,-198.44"/>
<polygon fill="#950303" stroke="black" points="448.49,-195.17 437.9,-195.49 446.38,-201.84 448.49,-195.17"/>
</g>
<!-- services_errors&#45;&gt;services_audio_service -->
<g id="edge11" class="edge">
<title>services_errors&#45;&gt;services_audio_service</title><style>.edge>path:hover{stroke-width:8}</style>
<path fill="none" stroke="black" d="M635.54,-237.3C635.54,-229.92 635.54,-221.42 635.54,-213.3"/>
<polygon fill="#950303" stroke="black" points="639.04,-213.34 635.54,-203.34 632.04,-213.34 639.04,-213.34"/>
</g>
<!-- services_errors&#45;&gt;services_completion_service -->
<g id="edge12" class="edge">
<title>services_errors&#45;&gt;services_completion_service</title><style>.edge>path:hover{stroke-width:8}</style>
<path fill="none" stroke="black" d="M797.54,-99.7C789.63,-84.04 780.35,-66.87 772.52,-52.72"/>
<polygon fill="#950303" stroke="black" points="775.78,-51.37 767.86,-44.33 769.66,-54.77 775.78,-51.37"/>
<path fill="none" stroke="black" d="M674.09,-253.74C715.32,-246.78 777.48,-228.49 797.54,-180.83"/>
<path fill="none" stroke="black" d="M797.54,-178.83C810.85,-147.24 813,-132.3 797.54,-101.7"/>
</g>
<!-- services_errors&#45;&gt;services_conversation_service -->
<g id="edge13" class="edge">
<title>services_errors&#45;&gt;services_conversation_service</title><style>.edge>path:hover{stroke-width:8}</style>
<path fill="none" stroke="black" d="M672.69,-251.09C727.93,-240.77 834.94,-220.47 925.54,-201.4 932.59,-199.92 939.94,-198.33 947.27,-196.71"/>
<polygon fill="#950303" stroke="black" points="947.86,-200.17 956.87,-194.58 946.35,-193.33 947.86,-200.17"/>
</g>
<!-- services_errors&#45;&gt;services_dataset_service -->
<g id="edge14" class="edge">
<title>services_errors&#45;&gt;services_dataset_service</title><style>.edge>path:hover{stroke-width:8}</style>
<path fill="none" stroke="black" d="M596.36,-255.22C517.78,-249.24 335.6,-232.97 185.54,-201.4 180.73,-200.39 175.77,-199.2 170.82,-197.92"/>
<polygon fill="#950303" stroke="black" points="172.09,-194.64 161.53,-195.38 170.25,-201.39 172.09,-194.64"/>
</g>
<!-- services_file_service -->
<g id="node25" class="node">
<title>services_file_service</title><style>.edge>path:hover{stroke-width:8}</style>
<ellipse fill="#a44646" stroke="black" cx="517.54" cy="-179.83" rx="46.32" ry="21.57"/>
<text text-anchor="middle" x="517.54" y="-181.58" font-family="Helvetica,sans-Serif" font-size="10.00" fill="#ffffff">services.</text>
<text text-anchor="middle" x="517.54" y="-170.33" font-family="Helvetica,sans-Serif" font-size="10.00" fill="#ffffff">file_service</text>
</g>
<!-- services_errors&#45;&gt;services_file_service -->
<g id="edge15" class="edge">
<title>services_errors&#45;&gt;services_file_service</title><style>.edge>path:hover{stroke-width:8}</style>
<path fill="none" stroke="black" d="M610.81,-241.8C594.19,-230.94 572.03,-216.45 553.48,-204.33"/>
<polygon fill="#950303" stroke="black" points="555.44,-201.42 545.15,-198.88 551.61,-207.28 555.44,-201.42"/>
</g>
<!-- services_errors&#45;&gt;services_message_service -->
<g id="edge16" class="edge">
<title>services_errors&#45;&gt;services_message_service</title><style>.edge>path:hover{stroke-width:8}</style>
<path fill="none" stroke="black" d="M673.42,-252.41C711.13,-245.43 769.33,-230.64 811.54,-201.4 837.68,-183.3 859.4,-154.03 873.41,-131.87"/>
<polygon fill="#950303" stroke="black" points="876.26,-133.91 878.5,-123.55 870.29,-130.26 876.26,-133.91"/>
</g>
<!-- services_errors_account -->
<g id="node12" class="node">
<title>services_errors_account</title><style>.edge>path:hover{stroke-width:8}</style>
<ellipse fill="#c82323" stroke="black" cx="140.54" cy="-346.06" rx="39.42" ry="29.52"/>
<text text-anchor="middle" x="140.54" y="-353.43" font-family="Helvetica,sans-Serif" font-size="10.00" fill="#ffffff">services.</text>
<text text-anchor="middle" x="140.54" y="-342.18" font-family="Helvetica,sans-Serif" font-size="10.00" fill="#ffffff">errors.</text>
<text text-anchor="middle" x="140.54" y="-330.93" font-family="Helvetica,sans-Serif" font-size="10.00" fill="#ffffff">account</text>
</g>
<!-- services_errors_account&#45;&gt;services_account_service -->
<g id="edge17" class="edge">
<title>services_errors_account&#45;&gt;services_account_service</title><style>.edge>path:hover{stroke-width:8}</style>
<path fill="none" stroke="black" d="M169.81,-325.88C176.12,-322.36 182.9,-319.02 189.54,-316.53 269.64,-286.6 319.87,-342.74 378.54,-280.53 395.22,-262.85 397.6,-234.92 396.3,-213.11"/>
<polygon fill="#c82323" stroke="black" points="399.8,-212.88 395.41,-203.24 392.83,-213.51 399.8,-212.88"/>
</g>
<!-- services_errors_account&#45;&gt;services_dataset_service -->
<g id="edge18" class="edge">
<title>services_errors_account&#45;&gt;services_dataset_service</title><style>.edge>path:hover{stroke-width:8}</style>
<path fill="none" stroke="black" d="M108.76,-327.99C85.75,-313.03 59.37,-289.16 63.54,-259.97"/>
</g>
<!-- services_errors_account&#45;&gt;services_errors -->
<g id="edge19" class="edge">
<title>services_errors_account&#45;&gt;services_errors</title><style>.edge>path:hover{stroke-width:8}</style>
<path fill="none" stroke="black" d="M169.69,-325.56C176.02,-322.06 182.83,-318.81 189.54,-316.53 226.45,-304.03 477.23,-276.61 585.71,-265.15"/>
<polygon fill="#c82323" stroke="black" points="585.9,-268.65 595.48,-264.13 585.17,-261.69 585.9,-268.65"/>
</g>
<!-- services_errors_app -->
<g id="node13" class="node">
<title>services_errors_app</title><style>.edge>path:hover{stroke-width:8}</style>
<ellipse fill="#ce3b3b" stroke="black" cx="769.54" cy="-346.06" rx="39.42" ry="29.52"/>
<text text-anchor="middle" x="769.54" y="-353.43" font-family="Helvetica,sans-Serif" font-size="10.00" fill="#ffffff">services.</text>
<text text-anchor="middle" x="769.54" y="-342.18" font-family="Helvetica,sans-Serif" font-size="10.00" fill="#ffffff">errors.</text>
<text text-anchor="middle" x="769.54" y="-330.93" font-family="Helvetica,sans-Serif" font-size="10.00" fill="#ffffff">app</text>
</g>
<!-- services_errors_app&#45;&gt;services_completion_service -->
<g id="edge20" class="edge">
<title>services_errors_app&#45;&gt;services_completion_service</title><style>.edge>path:hover{stroke-width:8}</style>
<path fill="none" stroke="black" d="M770.51,-316.06C772.52,-282.35 778.69,-225.62 797.54,-180.83"/>
</g>
<!-- services_errors_app&#45;&gt;services_errors -->
<g id="edge21" class="edge">
<title>services_errors_app&#45;&gt;services_errors</title><style>.edge>path:hover{stroke-width:8}</style>
<path fill="none" stroke="black" d="M739.8,-326.17C719.21,-313.09 691.73,-295.64 670.15,-281.94"/>
<polygon fill="#ce3b3b" stroke="black" points="672.29,-279.16 661.98,-276.75 668.54,-285.07 672.29,-279.16"/>
</g>
<!-- services_errors_app_model_config -->
<g id="node14" class="node">
<title>services_errors_app_model_config</title><style>.edge>path:hover{stroke-width:8}</style>
<ellipse fill="#c82323" stroke="black" cx="893.54" cy="-346.06" rx="67" ry="29.52"/>
<text text-anchor="middle" x="893.54" y="-353.43" font-family="Helvetica,sans-Serif" font-size="10.00" fill="#ffffff">services.</text>
<text text-anchor="middle" x="893.54" y="-342.18" font-family="Helvetica,sans-Serif" font-size="10.00" fill="#ffffff">errors.</text>
<text text-anchor="middle" x="893.54" y="-330.93" font-family="Helvetica,sans-Serif" font-size="10.00" fill="#ffffff">app_model_config</text>
</g>
<!-- services_errors_app_model_config&#45;&gt;services_completion_service -->
<g id="edge22" class="edge">
<title>services_errors_app_model_config&#45;&gt;services_completion_service</title><style>.edge>path:hover{stroke-width:8}</style>
<path fill="none" stroke="black" d="M873.54,-178.83C850.45,-136.61 819.24,-144.66 797.54,-101.7"/>
<path fill="none" stroke="black" d="M873.54,-257.97C873.71,-223.69 889.99,-210.91 873.54,-180.83"/>
<path fill="none" stroke="black" d="M883.35,-316.69C878.37,-300.33 873.45,-279.24 873.54,-259.97"/>
</g>
<!-- services_errors_app_model_config&#45;&gt;services_errors -->
<g id="edge23" class="edge">
<title>services_errors_app_model_config&#45;&gt;services_errors</title><style>.edge>path:hover{stroke-width:8}</style>
<path fill="none" stroke="black" d="M843.82,-325.93C835.09,-322.7 826.07,-319.46 817.54,-316.53 771.31,-300.69 717.83,-284.29 680.86,-273.26"/>
<polygon fill="#c82323" stroke="black" points="681.98,-269.94 671.4,-270.45 679.99,-276.65 681.98,-269.94"/>
</g>
<!-- services_errors_app_model_config&#45;&gt;services_message_service -->
<g id="edge24" class="edge">
<title>services_errors_app_model_config&#45;&gt;services_message_service</title><style>.edge>path:hover{stroke-width:8}</style>
<path fill="none" stroke="black" d="M873.54,-257.97C873.73,-219.75 912,-219.05 911.54,-180.83"/>
<path fill="none" stroke="black" d="M911.54,-178.83C911.36,-163.55 907.45,-147.13 903.05,-133.39"/>
<polygon fill="#c82323" stroke="black" points="906.37,-132.31 899.8,-124 899.76,-134.59 906.37,-132.31"/>
</g>
<!-- services_errors_audio -->
<g id="node15" class="node">
<title>services_errors_audio</title><style>.edge>path:hover{stroke-width:8}</style>
<ellipse fill="#ce3b3b" stroke="black" cx="431.54" cy="-346.06" rx="39.42" ry="29.52"/>
<text text-anchor="middle" x="431.54" y="-353.43" font-family="Helvetica,sans-Serif" font-size="10.00" fill="#ffffff">services.</text>
<text text-anchor="middle" x="431.54" y="-342.18" font-family="Helvetica,sans-Serif" font-size="10.00" fill="#ffffff">errors.</text>
<text text-anchor="middle" x="431.54" y="-330.93" font-family="Helvetica,sans-Serif" font-size="10.00" fill="#ffffff">audio</text>
</g>
<!-- services_errors_audio&#45;&gt;services_audio_service -->
<g id="edge25" class="edge">
<title>services_errors_audio&#45;&gt;services_audio_service</title><style>.edge>path:hover{stroke-width:8}</style>
<path fill="none" stroke="black" d="M457.79,-323.92C495.03,-293.95 563.13,-239.13 603.36,-206.74"/>
<polygon fill="#ce3b3b" stroke="black" points="605.46,-209.55 611.05,-200.55 601.07,-204.09 605.46,-209.55"/>
</g>
<!-- services_errors_audio&#45;&gt;services_errors -->
<g id="edge26" class="edge">
<title>services_errors_audio&#45;&gt;services_errors</title><style>.edge>path:hover{stroke-width:8}</style>
<path fill="none" stroke="black" d="M461.28,-326.21C467.22,-322.79 473.5,-319.4 479.54,-316.53 490.08,-311.55 549.69,-290.24 592.08,-275.25"/>
<polygon fill="#ce3b3b" stroke="black" points="593.03,-278.63 601.29,-272 590.7,-272.03 593.03,-278.63"/>
</g>
<!-- services_errors_base -->
<g id="node16" class="node">
<title>services_errors_base</title><style>.edge>path:hover{stroke-width:8}</style>
<ellipse fill="#f91010" stroke="black" cx="584.54" cy="-441.1" rx="39.42" ry="29.52"/>
<text text-anchor="middle" x="584.54" y="-448.47" font-family="Helvetica,sans-Serif" font-size="10.00" fill="#ffffff">services.</text>
<text text-anchor="middle" x="584.54" y="-437.22" font-family="Helvetica,sans-Serif" font-size="10.00" fill="#ffffff">errors.</text>
<text text-anchor="middle" x="584.54" y="-425.97" font-family="Helvetica,sans-Serif" font-size="10.00" fill="#ffffff">base</text>
</g>
<!-- services_errors_base&#45;&gt;services_errors -->
<g id="edge27" class="edge">
<title>services_errors_base&#45;&gt;services_errors</title><style>.edge>path:hover{stroke-width:8}</style>
<path fill="none" stroke="black" d="M619.66,-427.48C642.34,-417.27 670.05,-400.47 683.54,-375.58 696.05,-352.51 692.59,-341.17 683.54,-316.53 679.41,-305.29 671.95,-294.75 664.12,-285.89"/>
<polygon fill="#f91010" stroke="black" points="666.74,-283.56 657.32,-278.72 661.66,-288.38 666.74,-283.56"/>
</g>
<!-- services_errors_base&#45;&gt;services_errors_account -->
<g id="edge28" class="edge">
<title>services_errors_base&#45;&gt;services_errors_account</title><style>.edge>path:hover{stroke-width:8}</style>
<path fill="none" stroke="black" d="M544.95,-438.39C472.44,-434.22 314.3,-420.34 189.54,-375.58 186.31,-374.42 183.05,-373.05 179.83,-371.54"/>
<polygon fill="#f91010" stroke="black" points="181.6,-368.51 171.1,-367.06 178.4,-374.74 181.6,-368.51"/>
</g>
<!-- services_errors_base&#45;&gt;services_errors_app_model_config -->
<g id="edge29" class="edge">
<title>services_errors_base&#45;&gt;services_errors_app_model_config</title><style>.edge>path:hover{stroke-width:8}</style>
<path fill="none" stroke="black" d="M621.97,-430.83C668.26,-419.11 749.29,-397.79 817.54,-375.58 822.85,-373.85 828.34,-371.97 833.82,-370.04"/>
<polygon fill="#f91010" stroke="black" points="834.65,-373.46 842.88,-366.77 832.28,-366.87 834.65,-373.46"/>
</g>
<!-- services_errors_completion -->
<g id="node17" class="node">
<title>services_errors_completion</title><style>.edge>path:hover{stroke-width:8}</style>
<ellipse fill="#b03a3a" stroke="black" cx="533.54" cy="-346.06" rx="44.72" ry="29.52"/>
<text text-anchor="middle" x="533.54" y="-353.43" font-family="Helvetica,sans-Serif" font-size="10.00" fill="#ffffff">services.</text>
<text text-anchor="middle" x="533.54" y="-342.18" font-family="Helvetica,sans-Serif" font-size="10.00" fill="#ffffff">errors.</text>
<text text-anchor="middle" x="533.54" y="-330.93" font-family="Helvetica,sans-Serif" font-size="10.00" fill="#ffffff">completion</text>
</g>
<!-- services_errors_base&#45;&gt;services_errors_completion -->
<g id="edge30" class="edge">
<title>services_errors_base&#45;&gt;services_errors_completion</title><style>.edge>path:hover{stroke-width:8}</style>
<path fill="none" stroke="black" d="M570.06,-413.69C565.04,-404.51 559.3,-394.05 553.89,-384.18"/>
<polygon fill="#f91010" stroke="black" points="557.01,-382.6 549.14,-375.51 550.88,-385.96 557.01,-382.6"/>
</g>
<!-- services_errors_conversation -->
<g id="node18" class="node">
<title>services_errors_conversation</title><style>.edge>path:hover{stroke-width:8}</style>
<ellipse fill="#d31717" stroke="black" cx="1029.54" cy="-346.06" rx="50.56" ry="29.52"/>
<text text-anchor="middle" x="1029.54" y="-353.43" font-family="Helvetica,sans-Serif" font-size="10.00" fill="#ffffff">services.</text>
<text text-anchor="middle" x="1029.54" y="-342.18" font-family="Helvetica,sans-Serif" font-size="10.00" fill="#ffffff">errors.</text>
<text text-anchor="middle" x="1029.54" y="-330.93" font-family="Helvetica,sans-Serif" font-size="10.00" fill="#ffffff">conversation</text>
</g>
<!-- services_errors_base&#45;&gt;services_errors_conversation -->
<g id="edge31" class="edge">
<title>services_errors_base&#45;&gt;services_errors_conversation</title><style>.edge>path:hover{stroke-width:8}</style>
<path fill="none" stroke="black" d="M623.9,-437.13C694.54,-431.01 846.88,-414.18 969.54,-375.58 973.69,-374.27 977.93,-372.73 982.12,-371.05"/>
<polygon fill="#f91010" stroke="black" points="983.21,-374.39 991.03,-367.25 980.46,-367.96 983.21,-374.39"/>
</g>
<!-- services_errors_dataset -->
<g id="node19" class="node">
<title>services_errors_dataset</title><style>.edge>path:hover{stroke-width:8}</style>
<ellipse fill="#bc2f2f" stroke="black" cx="237.54" cy="-346.06" rx="39.42" ry="29.52"/>
<text text-anchor="middle" x="237.54" y="-353.43" font-family="Helvetica,sans-Serif" font-size="10.00" fill="#ffffff">services.</text>
<text text-anchor="middle" x="237.54" y="-342.18" font-family="Helvetica,sans-Serif" font-size="10.00" fill="#ffffff">errors.</text>
<text text-anchor="middle" x="237.54" y="-330.93" font-family="Helvetica,sans-Serif" font-size="10.00" fill="#ffffff">dataset</text>
</g>
<!-- services_errors_base&#45;&gt;services_errors_dataset -->
<g id="edge32" class="edge">
<title>services_errors_base&#45;&gt;services_errors_dataset</title><style>.edge>path:hover{stroke-width:8}</style>
<path fill="none" stroke="black" d="M545.31,-435.59C487.23,-428.04 375.62,-410.14 286.54,-375.58 283.34,-374.34 280.1,-372.9 276.9,-371.35"/>
<polygon fill="#f91010" stroke="black" points="278.68,-368.34 268.2,-366.81 275.44,-374.54 278.68,-368.34"/>
</g>
<!-- services_errors_document -->
<g id="node20" class="node">
<title>services_errors_document</title><style>.edge>path:hover{stroke-width:8}</style>
<ellipse fill="#bc2f2f" stroke="black" cx="41.54" cy="-346.06" rx="41.54" ry="29.52"/>
<text text-anchor="middle" x="41.54" y="-353.43" font-family="Helvetica,sans-Serif" font-size="10.00" fill="#ffffff">services.</text>
<text text-anchor="middle" x="41.54" y="-342.18" font-family="Helvetica,sans-Serif" font-size="10.00" fill="#ffffff">errors.</text>
<text text-anchor="middle" x="41.54" y="-330.93" font-family="Helvetica,sans-Serif" font-size="10.00" fill="#ffffff">document</text>
</g>
<!-- services_errors_base&#45;&gt;services_errors_document -->
<g id="edge33" class="edge">
<title>services_errors_base&#45;&gt;services_errors_document</title><style>.edge>path:hover{stroke-width:8}</style>
<path fill="none" stroke="black" d="M544.83,-439.93C459.7,-438.48 254.24,-429.19 92.54,-375.58 89.08,-374.43 85.58,-373.04 82.12,-371.5"/>
<polygon fill="#f91010" stroke="black" points="83.84,-368.44 73.32,-367.18 80.76,-374.73 83.84,-368.44"/>
</g>
<!-- services_errors_file -->
<g id="node21" class="node">
<title>services_errors_file</title><style>.edge>path:hover{stroke-width:8}</style>
<ellipse fill="#c82323" stroke="black" cx="334.54" cy="-346.06" rx="39.42" ry="29.52"/>
<text text-anchor="middle" x="334.54" y="-353.43" font-family="Helvetica,sans-Serif" font-size="10.00" fill="#ffffff">services.</text>
<text text-anchor="middle" x="334.54" y="-342.18" font-family="Helvetica,sans-Serif" font-size="10.00" fill="#ffffff">errors.</text>
<text text-anchor="middle" x="334.54" y="-330.93" font-family="Helvetica,sans-Serif" font-size="10.00" fill="#ffffff">file</text>
</g>
<!-- services_errors_base&#45;&gt;services_errors_file -->
<g id="edge34" class="edge">
<title>services_errors_base&#45;&gt;services_errors_file</title><style>.edge>path:hover{stroke-width:8}</style>
<path fill="none" stroke="black" d="M547.35,-430.76C506.32,-419.87 438.79,-400.17 383.54,-375.58 380.45,-374.2 377.3,-372.68 374.18,-371.08"/>
<polygon fill="#f91010" stroke="black" points="376.12,-368.15 365.66,-366.48 372.79,-374.31 376.12,-368.15"/>
</g>
<!-- services_errors_index -->
<g id="node22" class="node">
<title>services_errors_index</title><style>.edge>path:hover{stroke-width:8}</style>
<ellipse fill="#b03a3a" stroke="black" cx="635.54" cy="-346.06" rx="39.42" ry="29.52"/>
<text text-anchor="middle" x="635.54" y="-353.43" font-family="Helvetica,sans-Serif" font-size="10.00" fill="#ffffff">services.</text>
<text text-anchor="middle" x="635.54" y="-342.18" font-family="Helvetica,sans-Serif" font-size="10.00" fill="#ffffff">errors.</text>
<text text-anchor="middle" x="635.54" y="-330.93" font-family="Helvetica,sans-Serif" font-size="10.00" fill="#ffffff">index</text>
</g>
<!-- services_errors_base&#45;&gt;services_errors_index -->
<g id="edge35" class="edge">
<title>services_errors_base&#45;&gt;services_errors_index</title><style>.edge>path:hover{stroke-width:8}</style>
<path fill="none" stroke="black" d="M599.02,-413.69C604.09,-404.43 609.88,-393.87 615.34,-383.92"/>
<polygon fill="#f91010" stroke="black" points="618.39,-385.64 620.12,-375.19 612.25,-382.27 618.39,-385.64"/>
</g>
<!-- services_errors_message -->
<g id="node23" class="node">
<title>services_errors_message</title><style>.edge>path:hover{stroke-width:8}</style>
<ellipse fill="#d31717" stroke="black" cx="1137.54" cy="-346.06" rx="39.42" ry="29.52"/>
<text text-anchor="middle" x="1137.54" y="-353.43" font-family="Helvetica,sans-Serif" font-size="10.00" fill="#ffffff">services.</text>
<text text-anchor="middle" x="1137.54" y="-342.18" font-family="Helvetica,sans-Serif" font-size="10.00" fill="#ffffff">errors.</text>
<text text-anchor="middle" x="1137.54" y="-330.93" font-family="Helvetica,sans-Serif" font-size="10.00" fill="#ffffff">message</text>
</g>
<!-- services_errors_base&#45;&gt;services_errors_message -->
<g id="edge36" class="edge">
<title>services_errors_base&#45;&gt;services_errors_message</title><style>.edge>path:hover{stroke-width:8}</style>
<path fill="none" stroke="black" d="M624.42,-440.44C711.4,-440.03 923.65,-432.7 1089.54,-375.58 1092.59,-374.53 1095.66,-373.27 1098.69,-371.87"/>
<polygon fill="#f91010" stroke="black" points="1100.12,-375.07 1107.42,-367.39 1096.92,-368.84 1100.12,-375.07"/>
</g>
<!-- services_errors_completion&#45;&gt;services_errors -->
<g id="edge37" class="edge">
<title>services_errors_completion&#45;&gt;services_errors</title><style>.edge>path:hover{stroke-width:8}</style>
<path fill="none" stroke="black" d="M560.88,-322.25C574.85,-310.59 591.88,-296.39 606.14,-284.5"/>
<polygon fill="#b03a3a" stroke="black" points="608.01,-287.49 613.44,-278.4 603.52,-282.12 608.01,-287.49"/>
</g>
<!-- services_errors_conversation&#45;&gt;services_completion_service -->
<g id="edge38" class="edge">
<title>services_errors_conversation&#45;&gt;services_completion_service</title><style>.edge>path:hover{stroke-width:8}</style>
<path fill="none" stroke="black" d="M911.54,-257.97C899.16,-221.81 891.88,-214.36 873.54,-180.83"/>
<path fill="none" stroke="black" d="M993.13,-325.14C960.89,-306.48 917.97,-278.72 911.54,-259.97"/>
</g>
<!-- services_errors_conversation&#45;&gt;services_conversation_service -->
<g id="edge39" class="edge">
<title>services_errors_conversation&#45;&gt;services_conversation_service</title><style>.edge>path:hover{stroke-width:8}</style>
<path fill="none" stroke="black" d="M911.54,-257.97C902.54,-231.69 926.34,-212.87 953.54,-200.4"/>
<polygon fill="#d31717" stroke="black" points="954.84,-203.65 962.68,-196.53 952.11,-197.21 954.84,-203.65"/>
</g>
<!-- services_errors_conversation&#45;&gt;services_errors -->
<g id="edge40" class="edge">
<title>services_errors_conversation&#45;&gt;services_errors</title><style>.edge>path:hover{stroke-width:8}</style>
<path fill="none" stroke="black" d="M992.42,-325.47C984.99,-322.11 977.13,-318.93 969.54,-316.53 871.8,-285.68 752.34,-270.62 686.03,-264.15"/>
<polygon fill="#d31717" stroke="black" points="686.47,-260.67 676.19,-263.22 685.81,-267.64 686.47,-260.67"/>
</g>
<!-- services_errors_conversation&#45;&gt;services_message_service -->
<g id="edge41" class="edge">
<title>services_errors_conversation&#45;&gt;services_message_service</title><style>.edge>path:hover{stroke-width:8}</style>
<path fill="none" stroke="black" d="M911.54,-257.97C900.44,-225.54 911.95,-215.11 911.54,-180.83"/>
</g>
<!-- services_errors_dataset&#45;&gt;services_dataset_service -->
<g id="edge42" class="edge">
<title>services_errors_dataset&#45;&gt;services_dataset_service</title><style>.edge>path:hover{stroke-width:8}</style>
<path fill="none" stroke="black" d="M243.95,-316.49C246.3,-297.96 245.57,-274.62 231.54,-259.97"/>
<path fill="none" stroke="black" d="M231.54,-257.97C222.94,-248.98 222.23,-245.21 212.54,-237.4 196.68,-224.61 177.62,-212.77 160.68,-203.26"/>
<polygon fill="#bc2f2f" stroke="black" points="162.77,-200.41 152.32,-198.67 159.4,-206.55 162.77,-200.41"/>
</g>
<!-- services_errors_dataset&#45;&gt;services_errors -->
<g id="edge43" class="edge">
<title>services_errors_dataset&#45;&gt;services_errors</title><style>.edge>path:hover{stroke-width:8}</style>
<path fill="none" stroke="black" d="M266.75,-325.74C273.08,-322.23 279.87,-318.92 286.54,-316.53 388.42,-280.05 515.5,-266.99 584.75,-262.39"/>
<polygon fill="#bc2f2f" stroke="black" points="584.9,-265.89 594.66,-261.77 584.46,-258.9 584.9,-265.89"/>
</g>
<!-- services_errors_document&#45;&gt;services_dataset_service -->
<g id="edge44" class="edge">
<title>services_errors_document&#45;&gt;services_dataset_service</title><style>.edge>path:hover{stroke-width:8}</style>
<path fill="none" stroke="black" d="M50.47,-317.01C55.28,-300.57 60.78,-279.3 63.54,-259.97"/>
<path fill="none" stroke="black" d="M63.54,-257.97C66.17,-239.63 76.97,-222.32 88.14,-208.77"/>
<polygon fill="#bc2f2f" stroke="black" points="90.49,-211.4 94.46,-201.57 85.23,-206.78 90.49,-211.4"/>
</g>
<!-- services_errors_document&#45;&gt;services_errors -->
<g id="edge45" class="edge">
<title>services_errors_document&#45;&gt;services_errors</title><style>.edge>path:hover{stroke-width:8}</style>
<path fill="none" stroke="black" d="M71.92,-325.45C78.5,-321.96 85.58,-318.74 92.54,-316.53 138.87,-301.85 459.5,-274.39 585.17,-264.05"/>
<polygon fill="#bc2f2f" stroke="black" points="585.17,-267.56 594.85,-263.25 584.59,-260.58 585.17,-267.56"/>
</g>
<!-- services_errors_file&#45;&gt;services_dataset_service -->
<g id="edge46" class="edge">
<title>services_errors_file&#45;&gt;services_dataset_service</title><style>.edge>path:hover{stroke-width:8}</style>
<path fill="none" stroke="black" d="M306.36,-325.27C289.58,-313.04 268.2,-296.65 250.54,-280.53 241.35,-272.14 240.15,-268.96 231.54,-259.97"/>
</g>
<!-- services_errors_file&#45;&gt;services_errors -->
<g id="edge47" class="edge">
<title>services_errors_file&#45;&gt;services_errors</title><style>.edge>path:hover{stroke-width:8}</style>
<path fill="none" stroke="black" d="M363.87,-326.05C370.18,-322.51 376.95,-319.12 383.54,-316.53 451.26,-289.96 534.35,-274.35 586.14,-266.48"/>
<polygon fill="#c82323" stroke="black" points="586.45,-269.97 595.83,-265.05 585.43,-263.05 586.45,-269.97"/>
</g>
<!-- services_errors_file&#45;&gt;services_file_service -->
<g id="edge48" class="edge">
<title>services_errors_file&#45;&gt;services_file_service</title><style>.edge>path:hover{stroke-width:8}</style>
<path fill="none" stroke="black" d="M360.88,-323.62C375.9,-311.24 394.98,-295.24 411.54,-280.53 438.77,-256.36 468.94,-227.8 490.11,-207.46"/>
<polygon fill="#c82323" stroke="black" points="492.45,-210.06 497.23,-200.6 487.6,-205.02 492.45,-210.06"/>
</g>
<!-- services_errors_index&#45;&gt;services_errors -->
<g id="edge49" class="edge">
<title>services_errors_index&#45;&gt;services_errors</title><style>.edge>path:hover{stroke-width:8}</style>
<path fill="none" stroke="black" d="M635.54,-316.25C635.54,-308.56 635.54,-300.21 635.54,-292.35"/>
<polygon fill="#b03a3a" stroke="black" points="639.04,-292.46 635.54,-282.46 632.04,-292.46 639.04,-292.46"/>
</g>
<!-- services_errors_message&#45;&gt;services_completion_service -->
<g id="edge50" class="edge">
<title>services_errors_message&#45;&gt;services_completion_service</title><style>.edge>path:hover{stroke-width:8}</style>
<path fill="none" stroke="black" d="M1187.54,-178.83C1164.33,-140.16 1201.7,-109.71 1168.54,-79.13 1113.66,-28.53 907.97,-56.57 834.54,-43.13 828.94,-42.11 823.14,-40.9 817.36,-39.58"/>
<polygon fill="#d31717" stroke="black" points="818.3,-36.21 807.76,-37.3 816.69,-43.02 818.3,-36.21"/>
</g>
<!-- services_errors_message&#45;&gt;services_conversation_service -->
<g id="edge51" class="edge">
<title>services_errors_message&#45;&gt;services_conversation_service</title><style>.edge>path:hover{stroke-width:8}</style>
<path fill="none" stroke="black" d="M1187.54,-257.97C1181.4,-217.71 1140.46,-198.38 1100.19,-189.13"/>
<polygon fill="#d31717" stroke="black" points="1101.14,-185.76 1090.64,-187.15 1099.71,-192.61 1101.14,-185.76"/>
<path fill="none" stroke="black" d="M1161.89,-322.39C1176.3,-306.24 1191.11,-283.34 1187.54,-259.97"/>
</g>
<!-- services_errors_message&#45;&gt;services_errors -->
<g id="edge52" class="edge">
<title>services_errors_message&#45;&gt;services_errors</title><style>.edge>path:hover{stroke-width:8}</style>
<path fill="none" stroke="black" d="M1108.77,-325.39C1102.64,-321.95 1096.05,-318.76 1089.54,-316.53 1051.98,-303.67 796.1,-276.39 685.88,-265.06"/>
<polygon fill="#d31717" stroke="black" points="686.24,-261.58 675.93,-264.04 685.52,-268.54 686.24,-261.58"/>
</g>
<!-- services_errors_message&#45;&gt;services_message_service -->
<g id="edge53" class="edge">
<title>services_errors_message&#45;&gt;services_message_service</title><style>.edge>path:hover{stroke-width:8}</style>
<path fill="none" stroke="black" d="M1187.54,-257.97C1182.37,-224.08 1205.19,-210.23 1187.54,-180.83"/>
<path fill="none" stroke="black" d="M1187.54,-178.83C1134.92,-91.16 1063.36,-148.53 964.54,-122.27 959.98,-121.05 955.26,-119.78 950.51,-118.49"/>
<polygon fill="#d31717" stroke="black" points="951.49,-115.13 940.92,-115.86 949.64,-121.88 951.49,-115.13"/>
</g>
<!-- services_feature_service&#45;&gt;services_workspace_service -->
<g id="edge54" class="edge">
<title>services_feature_service&#45;&gt;services_workspace_service</title><style>.edge>path:hover{stroke-width:8}</style>
<path fill="none" stroke="black" d="M276.28,-159.77C287.5,-150.36 301.23,-138.86 313.49,-128.58"/>
<polygon fill="#b83d3d" stroke="black" points="315.53,-131.43 320.94,-122.33 311.03,-126.07 315.53,-131.43"/>
</g>
<!-- services_hit_testing_service -->
<g id="node26" class="node">
<title>services_hit_testing_service</title><style>.edge>path:hover{stroke-width:8}</style>
<ellipse fill="#ac4949" stroke="black" cx="1498.54" cy="-346.06" rx="69.12" ry="21.57"/>
<text text-anchor="middle" x="1498.54" y="-347.81" font-family="Helvetica,sans-Serif" font-size="10.00" fill="#ffffff">services.</text>
<text text-anchor="middle" x="1498.54" y="-336.56" font-family="Helvetica,sans-Serif" font-size="10.00" fill="#ffffff">hit_testing_service</text>
</g>
<!-- services_saved_message_service -->
<g id="node30" class="node">
<title>services_saved_message_service</title><style>.edge>path:hover{stroke-width:8}</style>
<ellipse fill="#ac4949" stroke="black" cx="931.54" cy="-21.57" rx="87.68" ry="21.57"/>
<text text-anchor="middle" x="931.54" y="-23.32" font-family="Helvetica,sans-Serif" font-size="10.00" fill="#ffffff">services.</text>
<text text-anchor="middle" x="931.54" y="-12.07" font-family="Helvetica,sans-Serif" font-size="10.00" fill="#ffffff">saved_message_service</text>
</g>
<!-- services_message_service&#45;&gt;services_saved_message_service -->
<g id="edge55" class="edge">
<title>services_message_service&#45;&gt;services_saved_message_service</title><style>.edge>path:hover{stroke-width:8}</style>
<path fill="none" stroke="black" d="M901.53,-79.03C905.71,-71.16 910.57,-62.02 915.15,-53.41"/>
<polygon fill="#993333" stroke="black" points="918.21,-55.1 919.81,-44.63 912.03,-51.82 918.21,-55.1"/>
</g>
<!-- services_retrieval_service -->
<g id="node29" class="node">
<title>services_retrieval_service</title><style>.edge>path:hover{stroke-width:8}</style>
<ellipse fill="#c24747" stroke="black" cx="1498.54" cy="-441.1" rx="61.7" ry="21.57"/>
<text text-anchor="middle" x="1498.54" y="-442.85" font-family="Helvetica,sans-Serif" font-size="10.00" fill="#ffffff">services.</text>
<text text-anchor="middle" x="1498.54" y="-431.6" font-family="Helvetica,sans-Serif" font-size="10.00" fill="#ffffff">retrieval_service</text>
</g>
<!-- services_retrieval_service&#45;&gt;services_hit_testing_service -->
<g id="edge56" class="edge">
<title>services_retrieval_service&#45;&gt;services_hit_testing_service</title><style>.edge>path:hover{stroke-width:8}</style>
<path fill="none" stroke="black" d="M1498.54,-419.45C1498.54,-407.61 1498.54,-392.48 1498.54,-379.13"/>
<polygon fill="#c24747" stroke="black" points="1502.04,-379.48 1498.54,-369.48 1495.04,-379.48 1502.04,-379.48"/>
</g>
<!-- services_vector_service -->
<g id="node31" class="node">
<title>services_vector_service</title><style>.edge>path:hover{stroke-width:8}</style>
<ellipse fill="#c24747" stroke="black" cx="147.54" cy="-258.97" rx="56.39" ry="21.57"/>
<text text-anchor="middle" x="147.54" y="-260.72" font-family="Helvetica,sans-Serif" font-size="10.00" fill="#ffffff">services.</text>
<text text-anchor="middle" x="147.54" y="-249.47" font-family="Helvetica,sans-Serif" font-size="10.00" fill="#ffffff">vector_service</text>
</g>
<!-- services_vector_service&#45;&gt;services_dataset_service -->
<g id="edge57" class="edge">
<title>services_vector_service&#45;&gt;services_dataset_service</title><style>.edge>path:hover{stroke-width:8}</style>
<path fill="none" stroke="black" d="M139.24,-237.3C136.14,-229.6 132.56,-220.69 129.17,-212.24"/>
<polygon fill="#c24747" stroke="black" points="132.41,-210.94 125.44,-202.97 125.92,-213.55 132.41,-210.94"/>
</g>
</g>
</svg>
