<svg version="1.1" id="Layer_1" xmlns="http://www.w3.org/2000/svg" xmlns:xlink="http://www.w3.org/1999/xlink" x="0px" y="0px"
	 width="100%" viewBox="0 0 176 323" enable-background="new 0 0 176 323" xml:space="preserve">
<path fill="#F03F30" opacity="1.000000" stroke="none"
	d="
M41.044968,257.626282
	C27.696184,236.155075 31.957315,212.441483 52.045750,197.344925
	C79.002586,177.086716 106.149689,157.081665 133.645813,136.647858
	C139.760117,144.272156 142.374191,152.876511 142.340073,162.386032
	C142.284485,177.881165 135.226303,189.665787 122.998329,198.722351
	C97.096687,217.906250 71.232124,237.140259 45.308189,256.293945
	C44.162773,257.140198 42.580475,257.395203 41.044968,257.626282
z"/>
<path fill="#F03F30" opacity="1.000000" stroke="none"
	d="
M99.096405,138.076599
	C79.500099,152.629852 60.200359,166.985321 40.905945,181.336838
	C27.259842,163.327515 29.469128,137.268982 46.741867,123.517693
	C67.654190,106.868828 89.408379,91.276695 110.817230,75.252617
	C117.976021,69.894424 125.193146,64.614182 132.376923,59.303246
	C147.358932,78.560143 142.926590,105.166771 122.208939,120.964401
	C114.681282,126.704391 107.002701,132.246460 99.096405,138.076599
z"/>
</svg>