<svg width="16" height="16" viewBox="0 0 16 16" fill="none" xmlns="http://www.w3.org/2000/svg">
<g id="citations">
<path id="Subtract" d="M0.666992 7.99996C0.666992 3.94987 3.95024 0.666626 8.00033 0.666626C12.0504 0.666626 15.3337 3.94987 15.3337 7.99996C15.3337 12.05 12.0504 15.3333 8.00033 15.3333C3.95024 15.3333 0.666992 12.05 0.666992 7.99996ZM4.66699 7.9801V9.97196H7.35742V7.48922H5.87533C5.85644 7.21231 5.90365 6.94484 6.01693 6.68681C6.2372 6.19592 6.66829 5.84979 7.31022 5.6484V4.66663C6.44803 4.83655 5.79036 5.19527 5.33724 5.7428C4.89041 6.29032 4.66699 7.03609 4.66699 7.9801ZM10.0264 6.70569C10.2466 6.19592 10.6746 5.84349 11.3102 5.6484V4.66663C10.4732 4.83655 9.82183 5.19212 9.35612 5.73336C8.8967 6.27459 8.66699 7.02351 8.66699 7.9801V9.97196H11.3574V7.48922H9.87533C9.85015 7.23748 9.9005 6.9763 10.0264 6.70569Z" fill="#FD853A"/>
</g>
</svg>
