<svg width="16" height="16" viewBox="0 0 16 16" fill="none" xmlns="http://www.w3.org/2000/svg">
<g clip-path="url(#clip0_7278_16509)">
<path d="M13.4375 13.9375V6.3125H2.5625V13.9375C2.5625 14.4898 3.01022 14.9375 3.5625 14.9375H12.4375C12.9898 14.9375 13.4375 14.4898 13.4375 13.9375Z" stroke="#667085" stroke-width="1.5" stroke-linecap="round" stroke-linejoin="round"/>
<path d="M13.6249 2.375L11.1733 5.97327" stroke="#667085" stroke-width="1.5" stroke-linecap="round" stroke-linejoin="round"/>
<path d="M6.3125 9.3125H9.6875" stroke="#667085" stroke-width="1.5" stroke-linecap="round" stroke-linejoin="round"/>
<path d="M8.74536 1.43634L8.75 1.42705L8.75464 1.43634C8.8756 1.67825 9.07175 1.8744 9.31366 1.99536L9.32295 2L9.31366 2.00464C9.07175 2.1256 8.8756 2.32175 8.75464 2.56366L8.75 2.57295L8.74536 2.56366C8.6244 2.32175 8.42825 2.1256 8.18634 2.00464L8.17705 2L8.18634 1.99536C8.42825 1.8744 8.6244 1.67825 8.74536 1.43634L8.07454 1.10093L8.74536 1.43634Z" stroke="#667085" stroke-width="1.5" stroke-linecap="square" stroke-linejoin="round"/>
<path d="M4.51955 2.71615L4.625 2.66343L4.51955 2.71615L4.44925 2.57555L4.31195 2.30095C4.44093 2.55892 4.80907 2.55892 4.93805 2.30095L4.80075 2.57555L4.51955 2.71615ZM4.625 2.88765C4.69208 2.97794 4.77206 3.05792 4.86235 3.125C4.77206 3.19208 4.69208 3.27206 4.625 3.36235C4.55792 3.27206 4.47794 3.19208 4.38765 3.125C4.47794 3.05792 4.55792 2.97794 4.625 2.88765ZM4.16343 3.125L4.21615 3.01955L4.21615 3.01955L4.16343 3.125Z" stroke="#667085" stroke-width="1.5" stroke-linecap="square" stroke-linejoin="round"/>
</g>
<defs>
<clipPath id="clip0_7278_16509">
<rect width="16" height="16" fill="white"/>
</clipPath>
</defs>
</svg>
