<svg width="16" height="16" viewBox="0 0 16 16" fill="none" xmlns="http://www.w3.org/2000/svg">
<g clip-path="url(#clip0_6139_55194)">
<path d="M8 0.5C6.4467 0.5 5.1875 1.7592 5.1875 3.3125C5.1875 4.8658 6.4467 6.125 8 6.125C9.5533 6.125 10.8125 4.8658 10.8125 3.3125C10.8125 1.7592 9.5533 0.5 8 0.5Z" fill="#155EEF"/>
<path d="M15.5 8C15.5 6.4467 14.2408 5.1875 12.6875 5.1875C11.1342 5.1875 9.875 6.4467 9.875 8C9.875 9.5533 11.1342 10.8125 12.6875 10.8125C14.2408 10.8125 15.5 9.5533 15.5 8Z" fill="#155EEF"/>
<path d="M8 9.875C6.4467 9.875 5.1875 11.1342 5.1875 12.6875C5.1875 14.2408 6.4467 15.5 8 15.5C9.5533 15.5 10.8125 14.2408 10.8125 12.6875C10.8125 11.1342 9.5533 9.875 8 9.875Z" fill="#155EEF"/>
<path d="M6.125 8C6.125 6.4467 4.8658 5.1875 3.3125 5.1875C1.7592 5.1875 0.5 6.4467 0.5 8C0.5 9.5533 1.7592 10.8125 3.3125 10.8125C4.8658 10.8125 6.125 9.5533 6.125 8Z" fill="#155EEF"/>
</g>
<defs>
<clipPath id="clip0_6139_55194">
<rect width="16" height="16" fill="white"/>
</clipPath>
</defs>
</svg>
