<svg width="24" height="24" viewBox="0 0 24 24" fill="none" xmlns="http://www.w3.org/2000/svg">
<path d="M17.4542 11.9996H11.9999V13.8177M17.4542 11.9996C17.4542 13.0037 18.2682 13.8177 19.2724 13.8177C20.2765 13.8177 21.0905 13.0037 21.0905 11.9996C21.0905 10.9955 20.2765 10.1815 19.2724 10.1815C18.2682 10.1815 17.4542 10.9955 17.4542 11.9996ZM6.54554 12.9087C5.318 12.9012 4.14258 12.4115 3.27293 11.5451M6.54554 12.9087C6.53904 13.471 6.71172 14.0207 7.03861 14.4783C7.36549 14.936 7.82958 15.2776 8.36365 15.4539M6.54554 12.9087C6.54223 12.5292 6.62185 12.1534 6.77888 11.808C6.9359 11.4625 7.16652 11.1556 7.45459 10.9086M3.27293 11.5451C2.8848 11.7842 2.56415 12.1184 2.34142 12.5161C2.1187 12.9139 2.00125 13.3619 2.00022 13.8177C1.99583 14.2518 2.10201 14.6799 2.30876 15.0616C2.51552 15.4433 2.81603 15.766 3.182 15.9995C3.00399 16.4639 2.91159 16.9567 2.90928 17.454C2.90333 18.0525 3.01683 18.6463 3.24315 19.2004C3.46946 19.7546 3.80404 20.258 4.2273 20.6813C4.65056 21.1045 5.154 21.4391 5.70815 21.6654C6.2623 21.8917 6.85603 22.0052 7.45458 21.9993C8.05314 22.0052 8.64686 21.8917 9.20101 21.6654C9.75516 21.4391 10.2586 21.1045 10.6819 20.6813C11.1051 20.258 11.4397 19.7546 11.666 19.2004C11.8923 18.6463 12.0058 18.0525 11.9999 17.454V16.5449H14.7271L16.1688 17.9867M3.27293 11.5451C2.44984 10.6912 1.9931 9.54938 2.00022 8.36339C1.99427 7.76484 2.10777 7.17111 2.33409 6.61696C2.5604 6.06281 2.89498 5.55937 3.31824 5.13611C3.7415 4.71285 4.24494 4.37827 4.79909 4.15195C5.35324 3.92564 5.94697 3.81214 6.54552 3.81809H6.72733C6.90356 3.28402 7.24525 2.81993 7.70289 2.49304C8.16052 2.16616 8.71035 1.99346 9.2727 1.99997C9.63267 1.99331 9.99029 2.0593 10.3242 2.19399C10.6581 2.32869 10.9614 2.52933 11.2159 2.78391C11.4705 3.03849 11.6712 3.34179 11.8059 3.67567C11.9406 4.00956 12.0065 4.36718 11.9999 4.72715M16.1688 6.0126L14.7271 7.45437H11.9999V9.27249M19.2724 19.2721C19.2724 20.2762 18.4584 21.0902 17.4542 21.0902C16.4501 21.0902 15.6361 20.2762 15.6361 19.2721C15.6361 18.268 16.4501 17.454 17.4542 17.454C18.4584 17.454 19.2724 18.268 19.2724 19.2721ZM19.2724 4.72714C19.2724 5.73126 18.4584 6.54526 17.4542 6.54526C16.4501 6.54526 15.6361 5.73126 15.6361 4.72714C15.6361 3.72302 16.4501 2.90902 17.4542 2.90902C18.4584 2.90902 19.2724 3.72302 19.2724 4.72714Z" stroke="black" stroke-width="2" stroke-linecap="round" stroke-linejoin="round"/>
</svg>
