<svg width="14" height="14" viewBox="0 0 14 14" fill="none" xmlns="http://www.w3.org/2000/svg">
<g id="brackets-x">
<g id="Solid">
<path d="M3.16659 1.75C2.10767 1.75 1.24976 2.60792 1.24976 3.66683V6.09163L0.753862 6.58752C0.644466 6.69692 0.583008 6.84529 0.583008 7C0.583008 7.15471 0.644466 7.30308 0.753862 7.41248L1.24976 7.90837V10.3332C1.24976 11.3921 2.10768 12.25 3.16659 12.25C3.48876 12.25 3.74992 11.9888 3.74992 11.6667C3.74992 11.3445 3.48876 11.0833 3.16659 11.0833C2.75201 11.0833 2.41642 10.7478 2.41642 10.3332V7.66675C2.41642 7.51204 2.35497 7.36367 2.24557 7.25427L1.9913 7L2.24557 6.74573C2.35497 6.63633 2.41642 6.48796 2.41642 6.33325V3.66683C2.41642 3.25225 2.75201 2.91667 3.16659 2.91667C3.48876 2.91667 3.74992 2.6555 3.74992 2.33333C3.74992 2.01117 3.48876 1.75 3.16659 1.75Z" fill="#2970FF"/>
<path d="M10.8326 1.75C10.5105 1.75 10.2493 2.01117 10.2493 2.33333C10.2493 2.6555 10.5105 2.91667 10.8326 2.91667C11.2472 2.91667 11.5828 3.25225 11.5828 3.66683V6.33325C11.5828 6.48796 11.6443 6.63633 11.7537 6.74573L12.0079 7L11.7537 7.25427C11.6443 7.36367 11.5828 7.51204 11.5828 7.66675V10.3332C11.5828 10.7476 11.2468 11.0833 10.8326 11.0833C10.5105 11.0833 10.2493 11.3445 10.2493 11.6667C10.2493 11.9888 10.5105 12.25 10.8326 12.25C11.8908 12.25 12.7495 11.3923 12.7495 10.3332V7.90837L13.2454 7.41248C13.4732 7.18467 13.4732 6.81533 13.2454 6.58752L12.7495 6.09163V3.66683C12.7495 2.60792 11.8916 1.75 10.8326 1.75Z" fill="#2970FF"/>
<path d="M9.16215 4.83752C9.38996 5.06533 9.38996 5.43467 9.16215 5.66248L7.82463 7L9.16215 8.33752C9.38996 8.56533 9.38996 8.93467 9.16215 9.16248C8.93435 9.39028 8.565 9.39028 8.3372 9.16248L6.99967 7.82496L5.66215 9.16248C5.43435 9.39028 5.065 9.39028 4.8372 9.16248C4.60939 8.93467 4.60939 8.56533 4.8372 8.33752L6.17472 7L4.8372 5.66248C4.60939 5.43467 4.60939 5.06533 4.8372 4.83752C5.065 4.60972 5.43435 4.60972 5.66215 4.83752L6.99967 6.17504L8.3372 4.83752C8.565 4.60972 8.93435 4.60972 9.16215 4.83752Z" fill="#2970FF"/>
</g>
</g>
</svg>
