<svg width="16" height="16" viewBox="0 0 16 16" fill="none" xmlns="http://www.w3.org/2000/svg">
    <path d="M10.6665 2.66683C11.2865 2.66683 11.5965 2.66683 11.8508 2.73498C12.541 2.91991 13.0801 3.45901 13.265 4.14919C13.3332 4.40352 13.3332 4.71352 13.3332 5.3335V11.4668C13.3332 12.5869 13.3332 13.147 13.1152 13.5748C12.9234 13.9511 12.6175 14.2571 12.2412 14.4488C11.8133 14.6668 11.2533 14.6668 10.1332 14.6668H5.8665C4.7464 14.6668 4.18635 14.6668 3.75852 14.4488C3.3822 14.2571 3.07624 13.9511 2.88449 13.5748C2.6665 13.147 2.6665 12.5869 2.6665 11.4668V5.3335C2.6665 4.71352 2.6665 4.40352 2.73465 4.14919C2.91959 3.45901 3.45868 2.91991 4.14887 2.73498C4.4032 2.66683 4.71319 2.66683 5.33317 2.66683M5.99984 10.0002L7.33317 11.3335L10.3332 8.3335M6.39984 4.00016H9.59984C9.9732 4.00016 10.1599 4.00016 10.3025 3.9275C10.4279 3.86359 10.5299 3.7616 10.5938 3.63616C10.6665 3.49355 10.6665 3.30686 10.6665 2.9335V2.40016C10.6665 2.02679 10.6665 1.84011 10.5938 1.6975C10.5299 1.57206 10.4279 1.47007 10.3025 1.40616C10.1599 1.3335 9.97321 1.3335 9.59984 1.3335H6.39984C6.02647 1.3335 5.83978 1.3335 5.69718 1.40616C5.57174 1.47007 5.46975 1.57206 5.40583 1.6975C5.33317 1.84011 5.33317 2.02679 5.33317 2.40016V2.9335C5.33317 3.30686 5.33317 3.49355 5.40583 3.63616C5.46975 3.7616 5.57174 3.86359 5.69718 3.9275C5.83978 4.00016 6.02647 4.00016 6.39984 4.00016Z" stroke="#1D2939" stroke-width="1.5" stroke-linecap="round" stroke-linejoin="round"/>
</svg>
