<svg xmlns="http://www.w3.org/2000/svg" width="24" height="25" viewBox="0 0 24 25" fill="none">
  <path d="M22.3627 6.50009H18.3156H18.1783V6.63743V7.07751V7.21484H18.3156H18.5969C18.924 7.21484 19.2189 7.38272 19.386 7.66394C19.553 7.94516 19.5593 8.28448 19.4028 8.57169L14.9027 16.8317L12.8532 11.9459L14.7837 8.40336C15.1832 7.67026 15.95 7.21484 16.7849 7.21484H16.8761H17.0134V7.07751V6.63743V6.50009H16.8761H12.829H12.6917V6.63743V7.07751V7.21484H12.829H13.1102C13.4373 7.21484 13.7323 7.38272 13.8993 7.66394C14.0663 7.94516 14.0726 8.28448 13.9162 8.57169L12.5159 11.1419L11.268 8.16696C11.1776 7.95134 11.1999 7.71594 11.3294 7.52124C11.4589 7.32654 11.6673 7.21484 11.9011 7.21484H12.221H12.3583V7.07751V6.63743V6.50009H12.221H7.3808H7.24347V6.63743V7.07751V7.21484H7.3808H7.44737C8.40218 7.21484 9.25775 7.78379 9.62715 8.66426L11.471 13.0599L9.4161 16.8317L5.78141 8.16696C5.69095 7.95134 5.71334 7.71594 5.8428 7.52124C5.97227 7.32654 6.18065 7.21484 6.41449 7.21484H6.90603H7.04337V7.07751V6.63743V6.50009H6.90603H1.63734H1.5V6.63743V7.07751V7.21484H1.63734H1.96072C2.91554 7.21484 3.77116 7.78379 4.1405 8.66426L8.33049 18.6529C8.40379 18.8276 8.57372 18.9405 8.76347 18.9405C8.93762 18.9405 9.09139 18.849 9.17485 18.6958L9.72141 17.6928L11.8081 13.8635L13.8171 18.6528C13.8904 18.8275 14.0603 18.9404 14.2501 18.9404C14.4242 18.9404 14.578 18.849 14.6614 18.6958L15.208 17.6928L20.2703 8.40327C20.6698 7.67016 21.4366 7.21475 22.2715 7.21475H22.3627H22.5V7.07741V6.63734V6.5H22.3627V6.50009Z" fill="#222A30"/>
</svg>