<svg xmlns="http://www.w3.org/2000/svg" xmlns:xlink="http://www.w3.org/1999/xlink" fill="none" version="1.1" width="128" height="128" viewBox="0 0 128 128"><g><g style="opacity:0;"><rect x="0" y="0" width="128" height="128" rx="0" fill="#FFFFFF" fill-opacity="1"/></g><g><path d="M100.74,12L93.2335,12C69.21260000000001,12,55.3672,27.3468,55.3672,50.8672L55.3672,54.8988C52.6011,54.1056,49.7377,53.7031,46.8601,53.7031C29.816499999999998,53.7031,16,67.5196,16,84.5632C16,101.6069,29.816499999999998,115.423,46.8601,115.423C63.9037,115.423,77.72030000000001,101.6069,77.72030000000001,84.5632C77.72030000000001,82.4902,77.51140000000001,80.4223,77.0967,78.3911L77.2197,78.3911L100.74,78.3911C106.9654,78.3681,112,73.3151,112,67.08959999999999C112,60.8642,106.9654,55.8111,100.74,55.7882L100.7362,55.7882L100.6985,55.7879L100.6606,55.7882L77.2197,55.7882L77.2195,49.8663C77.2195,40.8584,83.7252,34.352900000000005,93.2335,34.352900000000005L100.5653,34.352900000000005L100.5733,34.352900000000005L100.5812,34.352900000000005L100.74,34.352900000000005L100.74,34.352900000000005C106.8469,34.2605,111.7497,29.284,111.7497,23.1764C111.7497,17.06889,106.8469,12.0923454,100.74,12L100.74,12ZM56.0347,84.5632C56.0347,79.4962,51.9271,75.3885,46.8601,75.3885C41.793099999999995,75.3885,37.6854,79.4962,37.6854,84.5632C37.6854,89.6303,41.793099999999995,93.7378,46.8601,93.7378C51.9271,93.7378,56.0347,89.6303,56.0347,84.5632Z" fill-rule="evenodd" fill="#8358F6" fill-opacity="1"/></g></g></svg>