<svg width="18" height="18" viewBox="0 0 18 18" fill="none" xmlns="http://www.w3.org/2000/svg">
<path d="M3 2.25C3.41421 2.25 3.75 2.58579 3.75 3V15C3.75 15.4142 3.41421 15.75 3 15.75C2.58579 15.75 2.25 15.4142 2.25 15V3C2.25 2.58579 2.58579 2.25 3 2.25Z" fill="#676F83"/>
<path d="M15 2.25C15.4142 2.25 15.75 2.58579 15.75 3V15C15.75 15.4142 15.4142 15.75 15 15.75C14.5858 15.75 14.25 15.4142 14.25 15V3C14.25 2.58579 14.5858 2.25 15 2.25Z" fill="#676F83"/>
<path fill-rule="evenodd" clip-rule="evenodd" d="M10.125 4.5C10.5392 4.5 10.875 4.83579 10.875 5.25V12.75C10.875 13.1642 10.5392 13.5 10.125 13.5H7.875C7.46079 13.5 7.125 13.1642 7.125 12.75V5.25C7.125 4.83579 7.46079 4.5 7.875 4.5H10.125ZM8.625 12H9.375V6H8.625V12Z" fill="#676F83"/>
</svg>
