<svg width="18" height="18" viewBox="0 0 18 18" fill="none" xmlns="http://www.w3.org/2000/svg">
<path d="M15 14.25C15.4142 14.25 15.75 14.5858 15.75 15C15.75 15.4142 15.4142 15.75 15 15.75H3C2.58579 15.75 2.25 15.4142 2.25 15C2.25 14.5858 2.58579 14.25 3 14.25H15Z" fill="#676F83"/>
<path fill-rule="evenodd" clip-rule="evenodd" d="M13.5 7.125C13.9142 7.125 14.25 7.46079 14.25 7.875V10.125C14.25 10.5392 13.9142 10.875 13.5 10.875H4.5C4.08579 10.875 3.75 10.5392 3.75 10.125V7.875C3.75 7.46079 4.08579 7.125 4.5 7.125H13.5ZM5.25 9.375H12.75V8.625H5.25V9.375Z" fill="#676F83"/>
<path d="M15 2.25C15.4142 2.25 15.75 2.58579 15.75 3C15.75 3.41421 15.4142 3.75 15 3.75H3C2.58579 3.75 2.25 3.41421 2.25 3C2.25 2.58579 2.58579 2.25 3 2.25H15Z" fill="#676F83"/>
</svg>
