<svg width="24" height="24" viewBox="0 0 24 24" fill="none" xmlns="http://www.w3.org/2000/svg">
<g id="api-connection">
<g id="vector">
<path d="M4.36364 11.8182C4.36364 7.60073 7.78255 4.18182 12 4.18182C14.8252 4.18182 17.2934 5.71543 18.6154 8.00079C18.9171 8.52231 19.5844 8.70053 20.106 8.39884C20.6275 8.09716 20.8057 7.42982 20.504 6.9083C18.8081 3.97648 15.6355 2 12 2C6.9463 2 2.78441 5.81824 2.24174 10.7273H1.09091C0.488417 10.7273 0 11.2157 0 11.8182C0 12.4207 0.488417 12.9091 1.09091 12.9091H2.24174C2.78441 17.8181 6.9463 21.6364 12 21.6364C15.6355 21.6364 18.8081 19.6599 20.504 16.7281C20.8057 16.2065 20.6275 15.5392 20.106 15.2375C19.5844 14.9358 18.9171 15.1141 18.6154 15.6356C17.2934 17.9209 14.8252 19.4545 12 19.4545C7.78255 19.4545 4.36364 16.0356 4.36364 11.8182Z" fill="black"/>
<path d="M12 6.36364C8.98754 6.36364 6.54545 8.80572 6.54545 11.8182C6.54545 14.8306 8.98754 17.2727 12 17.2727C14.6389 17.2727 16.84 15.3988 17.3454 12.9091H22.9091C23.5116 12.9091 24 12.4207 24 11.8182C24 11.2157 23.5116 10.7273 22.9091 10.7273H17.3454C16.84 8.23756 14.6389 6.36364 12 6.36364Z" fill="black"/>
</g>
</g>
</svg>
