<svg width="16" height="16" viewBox="0 0 16 16" fill="none" xmlns="http://www.w3.org/2000/svg">
<path d="M14 6.33333V8.33333C14 9.9902 11.3137 11.3333 8 11.3333C4.68629 11.3333 2 9.9902 2 8.33333V6.33333C2 7.9902 4.68629 9.33333 8 9.33333C11.3137 9.33333 14 7.9902 14 6.33333ZM2 9.66667C2 11.3235 4.68629 12.6667 8 12.6667C11.3137 12.6667 14 11.3235 14 9.66667V11.6667C14 13.3235 11.3137 14.6667 8 14.6667C4.68629 14.6667 2 13.3235 2 11.6667V9.66667ZM8 8C4.68629 8 2 6.65685 2 5C2 3.34315 4.68629 2 8 2C11.3137 2 14 3.34315 14 5C14 6.65685 11.3137 8 8 8Z" fill="#A4AAC1"/>
</svg>
