<svg width="12" height="11" viewBox="0 0 12 11" fill="none" xmlns="http://www.w3.org/2000/svg">
<path d="M0.583333 0C0.26117 0 0 0.26117 0 0.583333V9.91667C0 10.2388 0.26117 10.5 0.583333 10.5H11.0833C11.4055 10.5 11.6667 10.2388 11.6667 9.91667V0.583333C11.6667 0.26117 11.4055 0 11.0833 0H0.583333ZM5.25 1.16667V2.91667H1.16667V1.16667H5.25ZM1.16667 6.41667V4.08333H5.25V6.41667H1.16667ZM1.16667 7.58333H5.25V9.33333H1.16667V7.58333ZM6.41667 7.58333H10.5V9.33333H6.41667V7.58333ZM10.5 6.41667H6.41667V4.08333H10.5V6.41667ZM10.5 1.16667V2.91667H6.41667V1.16667H10.5Z" fill="black"/>
</svg>
