<svg width="16" height="16" viewBox="0 0 16 16" fill="none" xmlns="http://www.w3.org/2000/svg">
<path d="M14 11.9998L13.3332 12.7292C12.9796 13.1159 12.5001 13.3332 12.0001 13.3332C11.5001 13.3332 11.0205 13.1159 10.6669 12.7292C10.3128 12.3432 9.83332 12.1265 9.33345 12.1265C8.83359 12.1265 8.35409 12.3432 7.99998 12.7292M2 13.3332H3.11636C3.44248 13.3332 3.60554 13.3332 3.75899 13.2963C3.89504 13.2637 4.0251 13.2098 4.1444 13.1367C4.27895 13.0542 4.39425 12.9389 4.62486 12.7083L13 4.33316C13.5523 3.78087 13.5523 2.88544 13 2.33316C12.4477 1.78087 11.5523 1.78087 11 2.33316L2.62484 10.7083C2.39424 10.9389 2.27894 11.0542 2.19648 11.1888C2.12338 11.3081 2.0695 11.4381 2.03684 11.5742C2 11.7276 2 11.8907 2 12.2168V13.3332Z" stroke="#6B7280" strokeLinecap="round" strokeLinejoin="round" />
</svg>