<svg width="32" height="32" viewBox="0 0 32 32" fill="none" xmlns="http://www.w3.org/2000/svg">
<path d="M23.447 16.8939C23.6128 16.8108 23.7523 16.6832 23.8498 16.5253C23.9473 16.3674 23.9989 16.1855 23.9989 15.9999C23.9989 15.8144 23.9473 15.6325 23.8498 15.4746C23.7523 15.3167 23.6128 15.1891 23.447 15.1059L9.44697 8.10595C9.27338 8.01909 9.07827 7.98463 8.88543 8.00677C8.69259 8.02891 8.51036 8.1067 8.36098 8.23064C8.2116 8.35458 8.10151 8.51931 8.04415 8.70475C7.9868 8.89019 7.98465 9.08831 8.03797 9.27495L9.46697 14.2749C9.52674 14.4839 9.65297 14.6677 9.82655 14.7985C10.0001 14.9294 10.2116 15.0001 10.429 14.9999H15C15.2652 14.9999 15.5195 15.1053 15.7071 15.2928C15.8946 15.4804 16 15.7347 16 15.9999C16 16.2652 15.8946 16.5195 15.7071 16.7071C15.5195 16.8946 15.2652 16.9999 15 16.9999H10.429C10.2116 16.9998 10.0001 17.0705 9.82655 17.2013C9.65297 17.3322 9.52674 17.516 9.46697 17.7249L8.03897 22.7249C7.98554 22.9115 7.98756 23.1096 8.04478 23.2951C8.10201 23.4805 8.21195 23.6453 8.36122 23.7693C8.51049 23.8934 8.69263 23.9713 8.88542 23.9936C9.07821 24.0159 9.27332 23.9816 9.44697 23.8949L23.447 16.8949V16.8939Z" fill="#D1D5DB"/>
</svg>
