<svg width="68" height="24" viewBox="0 0 68 24" fill="none" xmlns="http://www.w3.org/2000/svg">
<g id="Gemini">
<path id="Union" fill-rule="evenodd" clip-rule="evenodd" d="M50.6875 4.37014C48.3498 4.59292 46.5349 6.41319 46.3337 8.72764C46.1446 6.44662 44.2677 4.56074 41.9805 4.3737C44.2762 4.1997 46.152 2.28299 46.3373 0C46.4882 2.28911 48.405 4.20047 50.6875 4.37014ZM15.4567 9.41141L13.9579 10.9076C9.92941 6.64892 2.69298 9.97287 3.17317 15.8112C3.22394 23.108 14.5012 24.4317 15.3628 16.8809H9.52096L9.50061 14.9149H17.3595C18.8163 23.1364 8.44367 27.0292 3.19453 21.238C0.847044 18.7556 0.363651 14.7682 1.83717 11.7212C4.1129 6.62089 11.6505 5.29845 15.4567 9.41141ZM45.5915 23.5989H47.6945C47.6944 22.9155 47.6945 22.2307 47.6946 21.5452V21.5325C47.6948 19.8907 47.695 18.2453 47.6924 16.6072C47.6914 15.9407 47.6161 15.2823 47.4024 14.647C46.4188 11.2828 41.4255 11.4067 39.8332 14.214C38.5637 11.4171 34.4009 11.5236 32.8538 14.0084L32.8082 13.9976V12.4806L32.4233 12.4804H32.4224C31.8687 12.4801 31.3324 12.4798 30.7949 12.4811V23.5848L32.8977 23.5672C32.8981 22.9411 32.8979 22.3122 32.8977 21.6822V21.6812V21.6802V21.6791V21.6781V21.6771V21.676V21.676V21.6759V21.6758V21.6757V21.6757V21.6756C32.8973 20.204 32.8969 18.7261 32.904 17.2614C32.8889 15.3646 34.5674 13.5687 36.5358 14.124C37.7794 14.3298 38.1851 15.6148 38.1761 16.7257C38.1821 17.7019 38.18 18.6824 38.178 19.6633V19.6638C38.1752 20.9756 38.1724 22.2881 38.1891 23.5919L40.2846 23.5731C40.2929 22.7511 40.2881 21.9245 40.2832 21.0966C40.2753 19.7402 40.2674 18.3805 40.317 17.0328C40.4418 15.2122 42.0141 13.6186 43.9064 14.1168C45.2685 14.3231 45.6136 15.7748 45.5882 16.9545C45.5938 18.4959 45.5929 20.0492 45.5921 21.5968V21.5991V21.6014V21.6037V21.606V21.6083V21.6106C45.5917 22.2749 45.5913 22.9382 45.5915 23.5989ZM20.6167 18.4408C20.5625 21.9486 25.2121 23.6996 27.2993 20.0558L29.1566 20.9592C27.8157 23.7067 24.2337 24.7424 21.5381 23.4213C18.0052 21.7253 17.41 16.5007 20.0334 13.7517C21.4609 12.1752 23.7291 11.7901 25.7206 12.3653C28.3408 13.1257 29.4974 15.8937 29.326 18.4399C27.5547 18.4415 25.7971 18.4412 24.0364 18.4409C22.8993 18.4407 21.7609 18.4405 20.6167 18.4408ZM27.1041 16.6957C26.7048 13.1033 21.2867 13.2256 20.7494 16.6957H27.1041ZM53.543 23.5999H55.6206L55.6206 22.4361C55.6205 20.7877 55.6205 19.1443 55.6207 17.4939C55.6208 16.8853 55.7234 16.297 56.0063 15.7531C56.6115 14.3862 58.1745 13.7002 59.5927 14.1774C60.7512 14.4455 61.2852 15.6069 61.2762 16.7154C61.2774 18.3497 61.2771 19.9826 61.2769 21.6162V21.6166V21.617V21.6174V21.6179L61.2766 23.6007H63.3698C63.3913 22.0924 63.3869 20.584 63.3826 19.0755V19.0754V19.0753V19.0753V19.0752C63.3799 18.1682 63.3773 17.2612 63.3803 16.3541C63.3796 15.8622 63.3103 15.3765 63.1698 14.9052C62.3248 11.5142 57.3558 11.2385 55.5828 14.0038L55.5336 13.9905V12.4917H53.539C53.4898 12.7313 53.4934 23.4113 53.543 23.5999ZM49.6211 12.4944H51.7065V23.5994H49.6211V12.4944ZM65.1035 23.5991H67.1831C67.2367 23.2198 67.2133 12.6566 67.1634 12.4983H65.1035V23.5991ZM52.1504 8.67829C52.1709 10.4847 49.2418 10.7058 49.1816 8.65714C49.2189 6.5948 52.2437 6.81331 52.1504 8.67829ZM66.1387 10.1324C64.2712 10.1609 64.1316 7.19881 66.1559 7.17114C68.1709 7.19817 68.0215 10.2087 66.1387 10.1324Z" fill="url(#paint0_linear_14286_118464)"/>
</g>
<defs>
<linearGradient id="paint0_linear_14286_118464" x1="-2" y1="0.999998" x2="67.9999" y2="27.5002" gradientUnits="userSpaceOnUse">
<stop stop-color="#7798E0"/>
<stop offset="0.210002" stop-color="#086FFF"/>
<stop offset="0.345945" stop-color="#086FFF"/>
<stop offset="0.591777" stop-color="#479AFF"/>
<stop offset="0.895892" stop-color="#B7C4FA"/>
<stop offset="1" stop-color="#B5C5F9"/>
</linearGradient>
</defs>
</svg>
