<svg width="16" height="16" viewBox="0 0 16 16" fill="none" xmlns="http://www.w3.org/2000/svg">
<g clip-path="url(#clip0_16762_59518)">
<path d="M12.6667 0H3.33333C1.49238 0 0 1.49238 0 3.33333V12.6667C0 14.5076 1.49238 16 3.33333 16H12.6667C14.5076 16 16 14.5076 16 12.6667V3.33333C16 1.49238 14.5076 0 12.6667 0Z" fill="url(#paint0_linear_16762_59518)"/>
<path fill-rule="evenodd" clip-rule="evenodd" d="M7.99984 12.093L6.3825 12.6323L5.75184 12.2116L6.4385 11.9823L6.22784 11.3503L5.04917 11.743L4.6665 11.4883V9.66631C4.6665 9.54031 4.59517 9.42497 4.4825 9.3683L3.33317 8.79364V7.20564L4.33317 6.70564L5.33317 7.20564V8.33297C5.33317 8.45964 5.4045 8.57497 5.51717 8.63164L6.8505 9.29831L7.14917 8.70164L5.99984 8.12697V7.20564L7.14917 6.63164C7.26184 6.57497 7.33317 6.45964 7.33317 6.33297V5.33297H6.6665V6.12697L5.6665 6.62697L4.6665 6.12697V4.51164L5.33317 4.06697V5.33297H5.99984V3.62297L6.3825 3.36764L7.99984 3.90697V12.093ZM11.6665 11.333C11.8498 11.333 11.9998 11.4823 11.9998 11.6663C11.9998 11.8503 11.8498 11.9996 11.6665 11.9996C11.4832 11.9996 11.3332 11.8503 11.3332 11.6663C11.3332 11.4823 11.4832 11.333 11.6665 11.333ZM10.9998 3.99964C11.1832 3.99964 11.3332 4.14897 11.3332 4.33297C11.3332 4.51697 11.1832 4.6663 10.9998 4.6663C10.8165 4.6663 10.6665 4.51697 10.6665 4.33297C10.6665 4.14897 10.8165 3.99964 10.9998 3.99964ZM12.3332 7.99964C12.5165 7.99964 12.6665 8.14897 12.6665 8.33297C12.6665 8.51697 12.5165 8.66631 12.3332 8.66631C12.1498 8.66631 11.9998 8.51697 11.9998 8.33297C11.9998 8.14897 12.1498 7.99964 12.3332 7.99964ZM11.3945 8.66631C11.5325 9.05364 11.8992 9.33297 12.3332 9.33297C12.8845 9.33297 13.3332 8.88497 13.3332 8.33297C13.3332 7.78164 12.8845 7.33297 12.3332 7.33297C11.8992 7.33297 11.5325 7.61297 11.3945 7.99964H8.6665V6.66631H10.9998C11.1838 6.66631 11.3332 6.51764 11.3332 6.33297V5.27164C11.7205 5.13364 11.9998 4.76697 11.9998 4.33297C11.9998 3.78164 11.5512 3.33297 10.9998 3.33297C10.4485 3.33297 9.99984 3.78164 9.99984 4.33297C9.99984 4.76697 10.2792 5.13364 10.6665 5.27164V5.99964H8.6665V3.6663C8.6665 3.52297 8.5745 3.39564 8.4385 3.3503L6.4385 2.68364C6.3405 2.65097 6.23384 2.66564 6.1485 2.7223L4.1485 4.05564C4.05584 4.11764 3.99984 4.22164 3.99984 4.33297V6.12697L2.8505 6.70164C2.73784 6.75831 2.6665 6.87364 2.6665 6.99964V8.99964C2.6665 9.12631 2.73784 9.24164 2.8505 9.29831L3.99984 9.87231V11.6663C3.99984 11.7776 4.05584 11.8823 4.1485 11.9436L6.1485 13.277C6.20384 13.3143 6.26784 13.333 6.33317 13.333C6.3685 13.333 6.40384 13.3276 6.4385 13.3156L8.4385 12.649C8.5745 12.6043 8.6665 12.477 8.6665 12.333V10.6663H10.1952L10.7638 11.2356L10.7725 11.227C10.7072 11.3603 10.6665 11.5083 10.6665 11.6663C10.6665 12.2176 11.1152 12.6663 11.6665 12.6663C12.2178 12.6663 12.6665 12.2176 12.6665 11.6663C12.6665 11.115 12.2178 10.6663 11.6665 10.6663C11.5078 10.6663 11.3598 10.707 11.2272 10.773L11.2358 10.7643L10.5692 10.0976C10.5065 10.035 10.4218 9.99964 10.3332 9.99964H8.6665V8.66631H11.3945Z" fill="white"/>
</g>
<defs>
<linearGradient id="paint0_linear_16762_59518" x1="0" y1="1600" x2="1600" y2="0" gradientUnits="userSpaceOnUse">
<stop stop-color="#055F4E"/>
<stop offset="1" stop-color="#56C0A7"/>
</linearGradient>
<clipPath id="clip0_16762_59518">
<rect width="16" height="16" fill="white"/>
</clipPath>
</defs>
</svg>
