<svg width="140" height="24" viewBox="0 0 140 24" fill="none" xmlns="http://www.w3.org/2000/svg">
<path d="M131.701 17.9999V6.8999H133.876V13.6049L136.531 10.3349H139.141L135.976 13.9949L139.381 17.9999H136.711L133.876 14.5049V17.9999H131.701Z" fill="#252F3E"/>
<path d="M129.847 17.6699C129.577 17.8299 129.252 17.9499 128.872 18.0299C128.492 18.1199 128.097 18.1649 127.687 18.1649C126.467 18.1649 125.532 17.8249 124.882 17.1449C124.242 16.4649 123.922 15.4849 123.922 14.2049C123.922 12.9349 124.262 11.9449 124.942 11.2349C125.622 10.5249 126.567 10.1699 127.777 10.1699C128.507 10.1699 129.182 10.3299 129.802 10.6499V12.1049C129.212 11.9349 128.672 11.8499 128.182 11.8499C127.482 11.8499 126.967 12.0299 126.637 12.3899C126.307 12.7399 126.142 13.2999 126.142 14.0699V14.2799C126.142 15.0399 126.302 15.5999 126.622 15.9599C126.952 16.3099 127.457 16.4849 128.137 16.4849C128.627 16.4849 129.197 16.3949 129.847 16.2149V17.6699Z" fill="#252F3E"/>
<path d="M118.51 18.2249C117.32 18.2249 116.39 17.8699 115.72 17.1599C115.05 16.4399 114.715 15.4399 114.715 14.1599C114.715 12.8899 115.05 11.8999 115.72 11.1899C116.39 10.4699 117.32 10.1099 118.51 10.1099C119.7 10.1099 120.63 10.4699 121.3 11.1899C121.97 11.8999 122.305 12.8899 122.305 14.1599C122.305 15.4399 121.97 16.4399 121.3 17.1599C120.63 17.8699 119.7 18.2249 118.51 18.2249ZM118.51 16.5449C119.56 16.5449 120.085 15.7499 120.085 14.1599C120.085 12.5799 119.56 11.7899 118.51 11.7899C117.46 11.7899 116.935 12.5799 116.935 14.1599C116.935 15.7499 117.46 16.5449 118.51 16.5449Z" fill="#252F3E"/>
<path d="M108.727 17.9998V10.3348H110.527L110.797 11.4748C111.197 11.0348 111.572 10.7248 111.922 10.5448C112.282 10.3548 112.662 10.2598 113.062 10.2598C113.252 10.2598 113.452 10.2748 113.662 10.3048V12.3298C113.382 12.2698 113.072 12.2398 112.732 12.2398C112.082 12.2398 111.477 12.3548 110.917 12.5848V17.9998H108.727Z" fill="#252F3E"/>
<path d="M104.417 17.9999L104.237 17.3249C103.617 17.8849 102.882 18.1649 102.032 18.1649C101.402 18.1649 100.847 18.0099 100.367 17.6999C99.8866 17.3799 99.5116 16.9199 99.2416 16.3199C98.9816 15.7199 98.8516 15.0149 98.8516 14.2049C98.8516 12.9649 99.1466 11.9749 99.7366 11.2349C100.327 10.4849 101.107 10.1099 102.077 10.1099C102.867 10.1099 103.552 10.3349 104.132 10.7849V6.8999H106.322V17.9999H104.417ZM102.752 16.5149C103.232 16.5149 103.692 16.3749 104.132 16.0949V12.1349C103.702 11.8849 103.207 11.7599 102.647 11.7599C102.117 11.7599 101.722 11.9599 101.462 12.3599C101.202 12.7499 101.072 13.3449 101.072 14.1449C101.072 14.9449 101.207 15.5399 101.477 15.9299C101.757 16.3199 102.182 16.5149 102.752 16.5149Z" fill="#252F3E"/>
<path d="M92.4625 14.6999C92.5025 15.3599 92.7025 15.8399 93.0625 16.1399C93.4225 16.4299 93.9875 16.5749 94.7575 16.5749C95.4275 16.5749 96.2075 16.4499 97.0975 16.1999V17.6549C96.7475 17.8349 96.3275 17.9749 95.8375 18.0749C95.3575 18.1749 94.8575 18.2249 94.3375 18.2249C93.0675 18.2249 92.0975 17.8799 91.4275 17.1899C90.7675 16.4999 90.4375 15.4899 90.4375 14.1599C90.4375 12.8799 90.7675 11.8849 91.4275 11.1749C92.0875 10.4649 93.0025 10.1099 94.1725 10.1099C95.1625 10.1099 95.9225 10.3849 96.4525 10.9349C96.9925 11.4749 97.2625 12.2499 97.2625 13.2599C97.2625 13.4799 97.2475 13.7299 97.2175 14.0099C97.1875 14.2899 97.1525 14.5199 97.1125 14.6999H92.4625ZM94.0975 11.6249C93.6075 11.6249 93.2175 11.7749 92.9275 12.0749C92.6475 12.3649 92.4875 12.7899 92.4475 13.3499H95.3875V13.0949C95.3875 12.1149 94.9575 11.6249 94.0975 11.6249Z" fill="#252F3E"/>
<path d="M81.1992 18V7.60498H84.9342C85.9342 7.60498 86.7392 7.85998 87.3492 8.36998C87.9692 8.87998 88.2792 9.54498 88.2792 10.365C88.2792 10.875 88.1592 11.315 87.9192 11.685C87.6892 12.045 87.3442 12.325 86.8842 12.525C87.5242 12.715 88.0092 13.03 88.3392 13.47C88.6792 13.9 88.8492 14.43 88.8492 15.06C88.8492 15.96 88.5142 16.675 87.8442 17.205C87.1742 17.735 86.2742 18 85.1442 18H81.1992ZM83.3292 13.47V16.395H85.0992C86.1192 16.395 86.6292 15.915 86.6292 14.955C86.6292 13.965 86.0842 13.47 84.9942 13.47H83.3292ZM83.3292 9.20998V11.94H84.6342C85.6042 11.94 86.0892 11.49 86.0892 10.59C86.0892 9.66998 85.6442 9.20998 84.7542 9.20998H83.3292Z" fill="#252F3E"/>
<path fill-rule="evenodd" clip-rule="evenodd" d="M62.0002 20.4425L58.6644 21.5548L57.3636 20.6872L58.7799 20.2142L58.3454 18.9107L55.9143 19.7206L55.1251 19.1953V15.4374C55.1251 15.1775 54.9779 14.9396 54.7456 14.8227L52.375 13.6375V10.3621L54.4376 9.33087L56.5001 10.3621V12.6873C56.5001 12.9486 56.6472 13.1864 56.8796 13.3033L59.6297 14.6783L60.2457 13.4477L57.8751 12.2624V10.3621L60.2457 9.17824C60.4781 9.06136 60.6252 8.82349 60.6252 8.56223V6.49969H59.2502V8.13735L57.1876 9.16862L55.1251 8.13735V4.80566L56.5001 3.88852V6.49969H57.8751V2.97275L58.6644 2.44612L62.0002 3.55851V20.4425ZM69.5628 18.8749C69.941 18.8749 70.2504 19.1829 70.2504 19.5624C70.2504 19.9419 69.941 20.2499 69.5628 20.2499C69.1847 20.2499 68.8753 19.9419 68.8753 19.5624C68.8753 19.1829 69.1847 18.8749 69.5628 18.8749ZM68.1878 3.74964C68.566 3.74964 68.8753 4.05765 68.8753 4.43715C68.8753 4.81666 68.566 5.12467 68.1878 5.12467C67.8097 5.12467 67.5003 4.81666 67.5003 4.43715C67.5003 4.05765 67.8097 3.74964 68.1878 3.74964ZM70.9379 11.9998C71.316 11.9998 71.6254 12.3078 71.6254 12.6873C71.6254 13.0668 71.316 13.3748 70.9379 13.3748C70.5597 13.3748 70.2504 13.0668 70.2504 12.6873C70.2504 12.3078 70.5597 11.9998 70.9379 11.9998ZM69.0018 13.3748C69.2865 14.1737 70.0427 14.7498 70.9379 14.7498C72.075 14.7498 73.0004 13.8258 73.0004 12.6873C73.0004 11.5502 72.075 10.6248 70.9379 10.6248C70.0427 10.6248 69.2865 11.2023 69.0018 11.9998H63.3752V9.24974H68.1878C68.5673 9.24974 68.8753 8.94311 68.8753 8.56223V6.37319C69.6742 6.08856 70.2504 5.3323 70.2504 4.43715C70.2504 3.30001 69.325 2.37462 68.1878 2.37462C67.0507 2.37462 66.1253 3.30001 66.1253 4.43715C66.1253 5.3323 66.7014 6.08856 67.5003 6.37319V7.87472H63.3752V3.06213C63.3752 2.7665 63.1855 2.50387 62.905 2.41037L58.7799 1.03534C58.5778 0.967964 58.3578 0.998214 58.1818 1.11509L54.0567 3.86514C53.8656 3.99302 53.7501 4.20752 53.7501 4.43715V8.13735L51.3795 9.32262C51.1471 9.4395 51 9.67738 51 9.93726V14.0623C51 14.3236 51.1471 14.5615 51.3795 14.6783L53.7501 15.8622V19.5624C53.7501 19.7921 53.8656 20.0079 54.0567 20.1344L58.1818 22.8845C58.2959 22.9615 58.4279 23 58.5626 23C58.6355 23 58.7084 22.989 58.7799 22.9642L62.905 21.5892C63.1855 21.4971 63.3752 21.2345 63.3752 20.9375V17.4999H66.5282L67.7011 18.6742L67.7189 18.6563C67.5842 18.9313 67.5003 19.2366 67.5003 19.5624C67.5003 20.6996 68.4257 21.625 69.5628 21.625C70.7 21.625 71.6254 20.6996 71.6254 19.5624C71.6254 18.4253 70.7 17.4999 69.5628 17.4999C69.2356 17.4999 68.9303 17.5838 68.6567 17.7199L68.6746 17.702L67.2996 16.327C67.1703 16.1977 66.9957 16.1249 66.8128 16.1249H63.3752V13.3748H69.0018Z" fill="#252F3E"/>
<line x1="43.25" y1="4" x2="43.25" y2="20" stroke="black" stroke-opacity="0.08" stroke-width="0.5"/>
<path d="M9.89554 9.62679C9.89554 10.0589 9.94226 10.4093 10.024 10.6663C10.1175 10.9232 10.2342 11.2035 10.3978 11.5072C10.4562 11.6006 10.4795 11.6941 10.4795 11.7758C10.4795 11.8926 10.4094 12.0094 10.2576 12.1262L9.52179 12.6168C9.41667 12.6869 9.31156 12.7219 9.21812 12.7219C9.10132 12.7219 8.98453 12.6635 8.86773 12.5584C8.70422 12.3832 8.56406 12.1963 8.44726 12.0094C8.33047 11.8109 8.21367 11.589 8.0852 11.3203C7.17419 12.3949 6.02958 12.9321 4.65139 12.9321C3.6703 12.9321 2.88777 12.6518 2.31546 12.0912C1.74316 11.5306 1.45117 10.7831 1.45117 9.84871C1.45117 8.85594 1.80156 8.05004 2.51402 7.4427C3.22647 6.83536 4.17252 6.53169 5.37552 6.53169C5.77263 6.53169 6.18142 6.56673 6.61356 6.62513C7.04571 6.68353 7.48954 6.77697 7.95672 6.88208V6.02947C7.95672 5.14182 7.76985 4.5228 7.40778 4.16073C7.03403 3.79866 6.40333 3.62347 5.504 3.62347C5.09521 3.62347 4.67475 3.67019 4.2426 3.7753C3.81046 3.88042 3.38999 4.00889 2.9812 4.17241C2.79433 4.25417 2.65417 4.30089 2.57242 4.32424C2.49066 4.3476 2.43226 4.35928 2.38554 4.35928C2.22203 4.35928 2.14027 4.24249 2.14027 3.99722V3.42491C2.14027 3.23804 2.16363 3.09788 2.22203 3.01613C2.28042 2.93437 2.38554 2.85261 2.54906 2.77085C2.95784 2.56062 3.44839 2.38543 4.02069 2.24527C4.59299 2.09344 5.20033 2.02336 5.84271 2.02336C7.23258 2.02336 8.24871 2.33871 8.90277 2.96941C9.54515 3.60011 9.87218 4.55784 9.87218 5.8426V9.62679H9.89554ZM5.15361 11.4021C5.53904 11.4021 5.93615 11.332 6.35661 11.1919C6.77708 11.0517 7.15083 10.7948 7.46618 10.4444C7.65305 10.2225 7.79321 9.97718 7.86328 9.69687C7.93336 9.41656 7.98008 9.07785 7.98008 8.68074V8.1902C7.64137 8.10844 7.2793 8.03836 6.90555 7.99165C6.53181 7.94493 6.16974 7.92157 5.80767 7.92157C5.02514 7.92157 4.45283 8.0734 4.06741 8.38875C3.68198 8.7041 3.49511 9.14793 3.49511 9.73191C3.49511 10.2809 3.63526 10.6896 3.92725 10.9699C4.20756 11.2619 4.61635 11.4021 5.15361 11.4021ZM14.5323 12.6635C14.3221 12.6635 14.182 12.6285 14.0885 12.5467C13.9951 12.4766 13.9133 12.3131 13.8432 12.0912L11.0985 3.06285C11.0285 2.82925 10.9934 2.67742 10.9934 2.59566C10.9934 2.40879 11.0869 2.30367 11.2737 2.30367H12.4183C12.6402 2.30367 12.7921 2.33871 12.8738 2.42047C12.9673 2.49054 13.0374 2.65406 13.1074 2.87597L15.0696 10.6079L16.8916 2.87597C16.95 2.64238 17.0201 2.49054 17.1135 2.42047C17.207 2.35039 17.3705 2.30367 17.5807 2.30367H18.5151C18.737 2.30367 18.8888 2.33871 18.9823 2.42047C19.0757 2.49054 19.1575 2.65406 19.2042 2.87597L21.0496 10.7013L23.0701 2.87597C23.1402 2.64238 23.222 2.49054 23.3037 2.42047C23.3972 2.35039 23.549 2.30367 23.7592 2.30367H24.8454C25.0323 2.30367 25.1374 2.39711 25.1374 2.59566C25.1374 2.65406 25.1258 2.71246 25.1141 2.78253C25.1024 2.85261 25.079 2.94605 25.0323 3.07453L22.2175 12.1029C22.1475 12.3365 22.0657 12.4883 21.9723 12.5584C21.8788 12.6285 21.727 12.6752 21.5284 12.6752H20.524C20.3021 12.6752 20.1502 12.6401 20.0568 12.5584C19.9634 12.4766 19.8816 12.3248 19.8349 12.0912L18.0246 4.55784L16.2259 12.0795C16.1675 12.3131 16.0974 12.4649 16.004 12.5467C15.9105 12.6285 15.747 12.6635 15.5368 12.6635H14.5323ZM29.5407 12.9788C28.9333 12.9788 28.326 12.9088 27.742 12.7686C27.158 12.6285 26.7025 12.4766 26.3988 12.3014C26.212 12.1963 26.0835 12.0795 26.0368 11.9744C25.9901 11.8693 25.9667 11.7525 25.9667 11.6474V11.0517C25.9667 10.8064 26.0601 10.6896 26.2353 10.6896C26.3054 10.6896 26.3755 10.7013 26.4456 10.7247C26.5156 10.748 26.6208 10.7948 26.7375 10.8415C27.1347 11.0167 27.5668 11.1568 28.0223 11.2503C28.4895 11.3437 28.945 11.3904 29.4122 11.3904C30.148 11.3904 30.7203 11.2619 31.1174 11.005C31.5145 10.748 31.7247 10.3743 31.7247 9.89542C31.7247 9.56839 31.6196 9.29976 31.4094 9.07785C31.1992 8.85594 30.8021 8.65738 30.2298 8.47051L28.5362 7.94493C27.6836 7.6763 27.0529 7.27919 26.6675 6.75361C26.282 6.2397 26.0835 5.6674 26.0835 5.06006C26.0835 4.56952 26.1886 4.13737 26.3988 3.76362C26.6091 3.38987 26.8894 3.06285 27.2398 2.80589C27.5902 2.53726 27.9873 2.33871 28.4545 2.19855C28.9216 2.0584 29.4122 2 29.9261 2C30.183 2 30.4517 2.01168 30.7086 2.04672C30.9773 2.08176 31.2225 2.12848 31.4678 2.17519C31.7014 2.23359 31.9233 2.29199 32.1335 2.36207C32.3438 2.43215 32.5073 2.50222 32.6241 2.5723C32.7876 2.66574 32.9044 2.75918 32.9745 2.86429C33.0445 2.95773 33.0796 3.0862 33.0796 3.24972V3.79866C33.0796 4.04393 32.9861 4.17241 32.811 4.17241C32.7175 4.17241 32.5657 4.12569 32.3671 4.03225C31.7014 3.72858 30.9539 3.57675 30.1246 3.57675C29.4589 3.57675 28.9333 3.68187 28.5712 3.90378C28.2092 4.12569 28.0223 4.4644 28.0223 4.94326C28.0223 5.27029 28.1391 5.5506 28.3727 5.77252C28.6063 5.99443 29.0384 6.21634 29.6575 6.4149L31.316 6.94048C32.1569 7.20911 32.7642 7.58286 33.1263 8.06172C33.4884 8.54059 33.6636 9.08953 33.6636 9.69687C33.6636 10.1991 33.5584 10.6546 33.3599 11.0517C33.1497 11.4488 32.8693 11.7992 32.5073 12.0795C32.1452 12.3715 31.7131 12.5817 31.2108 12.7336C30.6853 12.8971 30.1363 12.9788 29.5407 12.9788Z" fill="#252F3E"/>
<path fill-rule="evenodd" clip-rule="evenodd" d="M31.749 18.6553C27.9064 21.4934 22.3235 23.0001 17.5232 23.0001C10.7957 23.0001 4.73399 20.5123 0.155575 16.3778C-0.206494 16.0507 0.120536 15.6069 0.552682 15.8639C5.50484 18.737 11.6133 20.4773 17.932 20.4773C22.195 20.4773 26.8786 19.5896 31.1883 17.7676C31.8307 17.4756 32.3797 18.1881 31.749 18.6553Z" fill="#FF9900"/>
<path fill-rule="evenodd" clip-rule="evenodd" d="M33.3507 16.833C32.8601 16.2023 30.1037 16.5293 28.854 16.6811C28.4803 16.7278 28.4219 16.4008 28.7606 16.1555C30.9564 14.6138 34.5654 15.0577 34.9858 15.5716C35.4063 16.0971 34.869 19.7062 32.8134 21.4347C32.4981 21.7034 32.1944 21.5632 32.3345 21.2128C32.8017 20.0565 33.8412 17.452 33.3507 16.833Z" fill="#FF9900"/>
</svg>
