<svg width="16" height="16" viewBox="0 0 16 16" fill="none" xmlns="http://www.w3.org/2000/svg">
<g clip-path="url(#clip0_15960_46917)">
<mask id="mask0_15960_46917" style="mask-type:luminance" maskUnits="userSpaceOnUse" x="0" y="0" width="16" height="16">
<path d="M16 0H0V16H16V0Z" fill="white"/>
</mask>
<g mask="url(#mask0_15960_46917)">
<path d="M13.1765 0H2.82353C1.26414 0 0 1.26414 0 2.82353V13.1765C0 14.7359 1.26414 16 2.82353 16H13.1765C14.7359 16 16 14.7359 16 13.1765V2.82353C16 1.26414 14.7359 0 13.1765 0Z" fill="#F1EFED"/>
<path d="M11.4119 7.64706C12.9713 7.64706 14.2354 6.38292 14.2354 4.82353C14.2354 3.26414 12.9713 2 11.4119 2C9.85252 2 8.58838 3.26414 8.58838 4.82353C8.58838 6.38292 9.85252 7.64706 11.4119 7.64706Z" fill="#D3D1D1"/>
<path d="M11.4119 14.2354C12.9713 14.2354 14.2354 12.9713 14.2354 11.4119C14.2354 9.85252 12.9713 8.58838 11.4119 8.58838C9.85252 8.58838 8.58838 9.85252 8.58838 11.4119C8.58838 12.9713 9.85252 14.2354 11.4119 14.2354Z" fill="#D3D1D1"/>
<path d="M4.82353 14.2354C6.38292 14.2354 7.64706 12.9713 7.64706 11.4119C7.64706 9.85252 6.38292 8.58838 4.82353 8.58838C3.26414 8.58838 2 9.85252 2 11.4119C2 12.9713 3.26414 14.2354 4.82353 14.2354Z" fill="#D3D1D1"/>
<path d="M4.82353 7.64706C6.38292 7.64706 7.64706 6.38292 7.64706 4.82353C7.64706 3.26414 6.38292 2 4.82353 2C3.26414 2 2 3.26414 2 4.82353C2 6.38292 3.26414 7.64706 4.82353 7.64706Z" fill="#0F6FFF"/>
</g>
</g>
<defs>
<clipPath id="clip0_15960_46917">
<rect width="16" height="16" fill="white"/>
</clipPath>
</defs>
</svg>
