<svg width="114" height="24" viewBox="0 0 114 24" fill="none" xmlns="http://www.w3.org/2000/svg">
<path d="M3.21688 7.55431H1V5.74708H3.21688V2.30127H5.19279V5.74708H8.30124V7.55431H5.19279V14.8074C5.19279 15.3214 5.28918 15.6909 5.48195 15.9158C5.69079 16.1246 6.0442 16.2291 6.5422 16.2291H8.68679V18.0363H6.42171C5.26507 18.0363 4.43776 17.7792 3.93977 17.2652C3.45784 16.7511 3.21688 15.9398 3.21688 14.8314V7.55431Z" fill="black"/>
<path d="M15.0554 18.1809C13.8667 18.1809 12.8064 17.9159 11.8747 17.3857C10.959 16.8556 10.2441 16.1166 9.73006 15.1689C9.21601 14.2211 8.95898 13.1287 8.95898 11.8918C8.95898 10.6548 9.21601 9.5624 9.73006 8.6146C10.2441 7.6668 10.959 6.92785 11.8747 6.39772C12.8064 5.8676 13.8667 5.60254 15.0554 5.60254C16.2442 5.60254 17.2964 5.8676 18.212 6.39772C19.1438 6.92785 19.8667 7.6668 20.3807 8.6146C20.8948 9.5624 21.1518 10.6548 21.1518 11.8918C21.1518 13.1287 20.8948 14.2211 20.3807 15.1689C19.8667 16.1166 19.1438 16.8556 18.212 17.3857C17.2964 17.9159 16.2442 18.1809 15.0554 18.1809ZM15.0554 16.4219C15.8586 16.4219 16.5654 16.2291 17.1759 15.8435C17.8023 15.458 18.2844 14.9199 18.6216 14.2291C18.959 13.5383 19.1277 12.7592 19.1277 11.8918C19.1277 11.0242 18.959 10.2451 18.6216 9.55437C18.2844 8.86359 17.8023 8.32545 17.1759 7.9399C16.5654 7.55436 15.8586 7.36159 15.0554 7.36159C14.2521 7.36159 13.5373 7.55436 12.9108 7.9399C12.3004 8.32545 11.8265 8.86359 11.4891 9.55437C11.1518 10.2451 10.9831 11.0242 10.9831 11.8918C10.9831 12.7592 11.1518 13.5383 11.4891 14.2291C11.8265 14.9199 12.3004 15.458 12.9108 15.8435C13.5373 16.2291 14.2521 16.4219 15.0554 16.4219Z" fill="black"/>
<path d="M34.6823 5.74712V17.4339C34.6823 21.1448 32.6503 23.0002 28.5859 23.0002C26.9956 23.0002 25.6944 22.6388 24.6823 21.9158C23.6863 21.193 23.108 20.1649 22.9474 18.8315H24.9715C25.1322 19.6025 25.5418 20.197 26.2004 20.6146C26.8591 21.0323 27.7024 21.2411 28.7305 21.2411C31.3811 21.2411 32.7065 19.948 32.7065 17.3617V15.9159C31.823 17.4259 30.4173 18.1809 28.4896 18.1809C27.349 18.1809 26.3289 17.9319 25.4293 17.4339C24.5458 16.9359 23.847 16.213 23.3329 15.2652C22.8349 14.3174 22.5859 13.193 22.5859 11.8918C22.5859 10.6548 22.8349 9.5624 23.3329 8.6146C23.847 7.6668 24.5538 6.92785 25.4534 6.39772C26.3531 5.8676 27.365 5.60254 28.4896 5.60254C29.4855 5.60254 30.337 5.80334 31.0438 6.20495C31.7507 6.5905 32.3049 7.14472 32.7065 7.86761L32.9715 5.74712H34.6823ZM28.6824 16.4219C29.4695 16.4219 30.1683 16.2371 30.7787 15.8677C31.4053 15.4821 31.8872 14.9519 32.2246 14.2772C32.5618 13.5865 32.7306 12.8074 32.7306 11.9399C32.7306 11.0564 32.5618 10.2692 32.2246 9.57846C31.8872 8.87163 31.4053 8.32545 30.7787 7.9399C30.1683 7.55436 29.4695 7.36159 28.6824 7.36159C27.4615 7.36159 26.4735 7.78729 25.7185 8.63869C24.9795 9.47404 24.61 10.5584 24.61 11.8918C24.61 13.2251 24.9795 14.3174 25.7185 15.1689C26.4735 16.0042 27.4615 16.4219 28.6824 16.4219Z" fill="black"/>
<path d="M36.5449 11.8918C36.5449 10.6387 36.7859 9.5383 37.2678 8.5905C37.7658 7.64271 38.4565 6.91179 39.3401 6.39772C40.2236 5.8676 41.2357 5.60254 42.3763 5.60254C43.5007 5.60254 44.4968 5.83547 45.3642 6.30133C46.2317 6.7672 46.9144 7.4419 47.4124 8.32545C47.9104 9.20898 48.1755 10.2451 48.2076 11.4339C48.2076 11.6106 48.1915 11.8918 48.1594 12.2772H38.6172V12.446C38.6493 13.6507 39.0187 14.6146 39.7256 15.3375C40.4324 16.0605 41.3562 16.4219 42.4967 16.4219C43.3802 16.4219 44.1272 16.205 44.7377 15.7712C45.3642 15.3215 45.7818 14.703 45.9908 13.9158H47.9907C47.7497 15.1689 47.1473 16.197 46.1834 17.0001C45.2196 17.7873 44.0389 18.1809 42.6412 18.1809C41.4204 18.1809 40.3521 17.9239 39.4365 17.4098C38.5208 16.8797 37.806 16.1408 37.2919 15.1929C36.7939 14.2291 36.5449 13.1287 36.5449 11.8918ZM46.1594 10.6387C46.063 9.59452 45.6694 8.78328 44.9787 8.20496C44.304 7.62664 43.4445 7.33749 42.4003 7.33749C41.4686 7.33749 40.6493 7.64271 39.9425 8.25315C39.2357 8.86359 38.8341 9.65878 38.7376 10.6387H46.1594Z" fill="black"/>
<path d="M50.7442 7.55431H48.5273V5.74708H50.7442V2.30127H52.7201V5.74708H55.8285V7.55431H52.7201V14.8074C52.7201 15.3214 52.8165 15.6909 53.0093 15.9158C53.2181 16.1246 53.5715 16.2291 54.0696 16.2291H56.2141V18.0363H53.9491C52.7924 18.0363 51.9651 17.7792 51.4671 17.2652C50.9851 16.7511 50.7442 15.9398 50.7442 14.8314V7.55431Z" fill="black"/>
<path d="M63.2468 5.6027C64.7408 5.6027 65.9456 6.0525 66.8613 6.95211C67.7769 7.8517 68.2348 9.26536 68.2348 11.1931V18.0365H66.2589V11.3136C66.2589 10.0445 65.9697 9.08062 65.3914 8.42199C64.8131 7.74729 63.9858 7.40994 62.9095 7.40994C61.7689 7.40994 60.8613 7.81154 60.1866 8.61476C59.5279 9.41798 59.1986 10.5103 59.1986 11.8919V18.0365H57.2227V1.16895H59.1986V7.77139C59.6002 7.12881 60.1303 6.60672 60.789 6.20511C61.4637 5.8035 62.283 5.6027 63.2468 5.6027Z" fill="black"/>
<path d="M69.9258 11.8918C69.9258 10.6387 70.1667 9.5383 70.6486 8.5905C71.1467 7.64271 71.8374 6.91179 72.721 6.39772C73.6045 5.8676 74.6165 5.60254 75.7571 5.60254C76.8816 5.60254 77.8776 5.83547 78.7451 6.30133C79.6126 6.7672 80.2953 7.4419 80.7933 8.32545C81.2912 9.20898 81.5563 10.2451 81.5885 11.4339C81.5885 11.6106 81.5723 11.8918 81.5403 12.2772H71.998V12.446C72.0302 13.6507 72.3996 14.6146 73.1064 15.3375C73.8133 16.0605 74.737 16.4219 75.8776 16.4219C76.7611 16.4219 77.5081 16.205 78.1186 15.7712C78.7451 15.3215 79.1627 14.703 79.3715 13.9158H81.3715C81.1306 15.1689 80.5282 16.197 79.5643 17.0001C78.6005 17.7873 77.4198 18.1809 76.0221 18.1809C74.8012 18.1809 73.733 17.9239 72.8173 17.4098C71.9017 16.8797 71.1868 16.1408 70.6728 15.1929C70.1747 14.2291 69.9258 13.1287 69.9258 11.8918ZM79.5403 10.6387C79.4438 9.59452 79.0502 8.78328 78.3595 8.20496C77.6848 7.62664 76.8254 7.33749 75.7811 7.33749C74.8495 7.33749 74.0302 7.64271 73.3234 8.25315C72.6165 8.86359 72.2149 9.65878 72.1185 10.6387H79.5403Z" fill="black"/>
<path d="M89.6864 5.74707V7.67478H88.6984C87.5257 7.67478 86.6823 8.06836 86.1682 8.85551C85.6703 9.64266 85.4212 10.6146 85.4212 11.7712V18.0363H83.4453V5.74707H85.1562L85.4212 7.6025C85.7746 7.04024 86.2325 6.59045 86.7947 6.25309C87.357 5.91575 88.1361 5.74707 89.1321 5.74707H89.6864Z" fill="black"/>
<path d="M109.812 16.2291V18.0364H108.726C107.939 18.0364 107.378 17.8757 107.04 17.5543C106.703 17.2331 106.526 16.7592 106.51 16.1327C105.562 17.4982 104.189 18.1809 102.39 18.1809C101.024 18.1809 99.9237 17.8596 99.0883 17.2171C98.269 16.5745 97.8594 15.6989 97.8594 14.5905C97.8594 13.3536 98.2771 12.4058 99.1124 11.7471C99.9637 11.0885 101.193 10.7592 102.799 10.7592H106.414V9.9158C106.414 9.11259 106.14 8.48608 105.594 8.03628C105.064 7.58648 104.317 7.36159 103.353 7.36159C102.502 7.36159 101.795 7.55436 101.233 7.9399C100.687 8.30937 100.349 8.80737 100.221 9.43388H98.2449C98.3894 8.22906 98.9196 7.28929 99.8353 6.61459C100.767 5.93989 101.972 5.60254 103.45 5.60254C105.024 5.60254 106.237 5.98808 107.088 6.75917C107.955 7.5142 108.39 8.60657 108.39 10.0363V15.3375C108.39 15.9319 108.662 16.2291 109.209 16.2291H109.812ZM106.414 12.4218H102.606C100.775 12.4218 99.8594 13.1045 99.8594 14.47C99.8594 15.0805 100.1 15.5704 100.582 15.9399C101.064 16.3094 101.715 16.4942 102.534 16.4942C103.739 16.4942 104.687 16.1809 105.377 15.5544C106.068 14.9118 106.414 14.0684 106.414 13.0242V12.4218Z" fill="black"/>
<path d="M111.922 1C112.291 1 112.597 1.12048 112.837 1.36145C113.079 1.60241 113.199 1.90763 113.199 2.27711C113.199 2.64659 113.079 2.95182 112.837 3.19278C112.597 3.43374 112.291 3.55423 111.922 3.55423C111.552 3.55423 111.247 3.43374 111.007 3.19278C110.765 2.95182 110.645 2.64659 110.645 2.27711C110.645 1.90763 110.765 1.60241 111.007 1.36145C111.247 1.12048 111.552 1 111.922 1ZM110.934 5.74701H112.91V18.0362H110.934V5.74701Z" fill="black"/>
<path d="M93.9949 16.1652C93.9949 17.1986 93.1469 18.0364 92.1009 18.0364C91.055 18.0364 90.207 17.1986 90.207 16.1652C90.207 15.1317 91.055 14.2939 92.1009 14.2939C93.1469 14.2939 93.9949 15.1317 93.9949 16.1652Z" fill="#0F6FFF"/>
</svg>
