<svg viewBox="0 83.15545000000002 85 76.44" data-name="图层 1" id="图层_1"
  xmlns="http://www.w3.org/2000/svg" style="max-height: 500px" width="85"
  height="76.44">
  <defs>
    <style>.cls-1{fill:#4999d4}</style>
  </defs>
  <title>tencent-cloud</title>
  <path
    d="M27.569 113.353a17.56 17.56 0 0 1 33.148-3.743.158.158 0 0 0 .194.105 21.267 21.267 0 0 1 7.008-.729c.235.018.327-.116.25-.33a24.828 24.828 0 0 0-47.933 4.444.082.082 0 0 0 .016 0 18.537 18.537 0 0 0-9.85 31.533 18.007 18.007 0 0 0 10.325 5h-.001a43.066 43.066 0 0 0 5.266.282c1.68.011 33.725.008 35.067.008 2.7 0 4.457-.002 6.345-.14a18.245 18.245 0 0 0 11.723-5.15 18.532 18.532 0 0 0-12.901-31.789 18.06 18.06 0 0 0-11.704 4.285c-1.467 1.196-3.006 2.626-4.944 4.508-.642.625-13.336 12.94-21.67 21.028-1.16-.005-2.828-.021-4.306-.07a11.704 11.704 0 0 1-8.125-3.148A11.275 11.275 0 0 1 23.33 120.1a11.706 11.706 0 0 1 7.646 3.062c1.44 1.192 4.633 4 6.035 5.263a.17.17 0 0 0 .24.002l4.945-4.825a.176.176 0 0 0-.004-.27c-2.378-2.15-5.749-5.158-7.778-6.669a18.874 18.874 0 0 0-6.844-3.31zm46.482 26.094a11.704 11.704 0 0 1-8.125 3.147 168.92 168.92 0 0 1-5.204.073h-22.38c8.142-7.91 15.245-14.808 16.051-15.59.738-.717 2.398-2.306 3.83-3.595 3.145-2.831 5.974-3.4 7.976-3.382a11.275 11.275 0 0 1 7.852 19.347z"
    class="cls-1" />
</svg>