<?xml version="1.0" encoding="utf-8"?>
<svg width="132" height="38" viewBox="0 0 132 38" fill="none" xmlns="http://www.w3.org/2000/svg">
  <path d="M22.6559 24.9256C22.3238 24.8234 22.2983 24.3636 22.6814 24.2104C29.2712 21.0943 28.837 14.0192 28.837 14.0192C28.8114 6.84201 23.5498 0.201162 15.07 0.252246C5.61952 0.303329 -0.0507412 7.73597 0.00034225 16.5223C0.0769674 31.8984 11.8262 37.773 15.4786 37.7475L15.4531 31.643C15.4531 30.6724 15.4531 29.9062 16.0405 29.9062C16.0405 29.9062 19.8207 33.6864 24.0096 33.6864C30.5483 33.6608 32.7704 28.1694 32.7704 28.1694L22.6559 24.9256ZM15.0955 20.2259C11.7495 20.2514 9.04212 17.544 9.01657 14.198C8.99103 10.8521 11.6985 8.14464 15.0444 8.1191C18.3904 8.09356 21.0978 10.801 21.1234 14.1469C21.1234 17.4929 18.4159 20.2003 15.0955 20.2259Z" fill="white"/>
  <path fill-rule="evenodd" clip-rule="evenodd" d="M 92.565 2.401 C 92.565 1.38 93.444 0.563 94.545 0.563 C 95.644 0.563 96.523 1.399 96.523 2.401 C 96.523 3.423 95.644 4.24 94.545 4.24 C 93.444 4.24 92.565 3.423 92.565 2.401 Z M 92.945 5.967 L 96.143 5.967 L 96.143 18.448 L 92.945 18.448 L 92.945 5.967 Z M 109.474 1.622 L 109.474 5.763 L 109.474 7.584 C 108.995 6.859 107.536 5.578 104.977 5.578 C 101.339 5.578 98.223 8.141 98.223 12.189 C 98.223 15.83 100.88 18.839 105.016 18.839 C 107.756 18.839 109.035 17.594 109.614 16.647 L 109.614 18.448 L 112.672 18.448 L 112.672 1.622 L 109.474 1.622 Z M 108.516 14.901 C 107.756 15.607 106.696 16.034 105.537 16.034 C 103.058 16.034 101.419 14.307 101.419 12.189 L 101.419 12.17 C 101.419 10.221 102.938 8.345 105.556 8.345 C 106.716 8.345 107.735 8.753 108.475 9.441 C 109.215 10.109 109.675 11.038 109.675 12.115 C 109.715 13.211 109.273 14.195 108.516 14.901 Z M 79.393 7.788 C 80.353 6.524 81.932 5.578 84.151 5.578 C 88.847 5.578 90.846 9.273 90.826 12.319 C 90.826 15.866 88.107 18.839 84.172 18.839 C 81.553 18.839 80.133 17.594 79.593 16.795 L 79.593 18.448 L 79.593 22.813 L 76.396 22.813 L 76.396 5.967 L 79.393 5.967 L 79.393 7.788 Z M 83.551 16.053 C 85.989 16.053 87.628 14.25 87.628 12.208 L 87.649 12.208 L 87.649 12.189 C 87.649 10.388 86.25 8.345 83.532 8.345 C 82.353 8.345 81.352 8.771 80.613 9.477 C 79.893 10.164 79.453 11.131 79.453 12.226 C 79.453 13.304 79.893 14.25 80.633 14.937 C 81.373 15.625 82.392 16.053 83.551 16.053 Z M 70.4 7.788 C 69.82 6.785 68.322 5.578 65.863 5.578 C 62.085 5.578 59.027 8.252 59.027 12.189 C 59.027 15.718 61.546 18.839 65.863 18.839 C 67.741 18.839 69.54 18.114 70.4 16.647 L 70.4 18.448 L 73.599 18.448 L 73.599 5.967 L 70.4 5.967 L 70.4 7.788 Z M 70.419 12.301 C 70.38 12.913 70.22 13.507 69.9 14.046 C 69.281 15.179 68.12 16.053 66.322 16.053 C 63.444 16.053 62.246 13.804 62.246 12.263 L 62.246 12.245 C 62.246 10.313 63.704 8.364 66.301 8.364 C 68.24 8.364 69.481 9.384 70.04 10.574 C 70.32 11.094 70.44 11.707 70.419 12.301 Z M 50.612 1.602 C 54.789 1.602 57.608 3.516 57.608 7.156 C 57.608 9.998 55.469 11.929 52.41 12.394 L 58.607 17.668 C 58.028 18.337 57.188 18.597 56.349 18.597 C 54.63 18.597 53.551 17.983 52.111 16.442 C 51.213 15.496 48.774 12.876 48.774 12.876 C 48.774 12.876 48.513 12.524 48.094 12.524 L 47.954 12.524 L 47.954 18.429 L 44.316 18.429 L 44.316 1.602 L 50.612 1.602 Z M 49.954 4.129 L 47.994 4.129 L 47.994 10.183 L 49.954 10.183 C 51.971 10.183 54.13 9.384 54.13 7.174 C 54.13 5.113 52.45 4.129 49.954 4.129 Z" fill="white" style=""/>
  <text class="cls-3" style="white-space: pre; fill: rgb(255, 255, 255); font-family: NokiaPureText-Regular, &quot;Nokia Pure Text&quot;; font-size: 39px; line-height: 62.4px; perspective-origin: 77.0938px 2.375px;" x="-105.056" y="59.714" transform="matrix(0.253166, 0, 0, 0.322234, 70.186676, 15.300613)"><tspan x="-105.056" y="59.714" style="font-size: 39px; word-spacing: 0px;">Now pa</tspan><tspan class="cls-5" x="23.564" y="59.714" style="font-size: 39px; word-spacing: 0px;">r</tspan><tspan class="cls-4" x="38.694" y="59.714" style="font-size: 39px; word-spacing: 0px;">t </tspan><tspan class="cls-1" x="63.384" y="59.714" style="fill: rgb(255, 255, 255); font-family: NokiaPureText-Regular, &quot;Nokia Pure Text&quot;; font-size: 39px; letter-spacing: -0.78px; line-height: 62.4px; word-spacing: 0px;">o</tspan><tspan x="85.294" y="59.714" style="font-size: 39px; word-spacing: 0px;">f Nokia</tspan></text>
</svg>