<svg preserveAspectRatio="none" width="100%" height="100%" overflow="visible" style="display: block;" viewBox="0 0 14 12.9447" fill="none" xmlns="http://www.w3.org/2000/svg">
<path id="Vector" d="M4.92578 9.8151C4.92578 8.82303 4.12163 8.01823 3.12956 8.01823C2.13752 8.01827 1.33333 8.82306 1.33333 9.8151C1.33349 10.807 2.13762 11.6113 3.12956 11.6113C4.12153 11.6113 4.92563 10.807 4.92578 9.8151ZM12.6667 9.8151C12.6667 8.82306 11.8625 8.01827 10.8704 8.01823C9.87837 8.01823 9.07422 8.82303 9.07422 9.8151C9.07438 10.807 9.87847 11.6113 10.8704 11.6113C11.8624 11.6113 12.6665 10.807 12.6667 9.8151ZM8.79622 3.12956C8.79619 2.13752 7.99205 1.33333 7 1.33333C6.00795 1.33333 5.20382 2.13752 5.20378 3.12956C5.20378 4.12163 6.00793 4.92578 7 4.92578C7.99207 4.92578 8.79622 4.12163 8.79622 3.12956ZM10.1296 3.12956C10.1296 4.62918 9.07477 5.88194 7.66667 6.1875V6.72526L8.74284 7.51953C9.3012 7.00174 10.0489 6.6849 10.8704 6.6849C12.5989 6.68493 14 8.08668 14 9.8151C13.9998 11.5434 12.5988 12.9446 10.8704 12.9447C9.14209 12.9447 7.74104 11.5434 7.74089 9.8151C7.74089 9.38937 7.82585 8.98325 7.97982 8.61328L7 7.88932L6.01953 8.61328C6.17356 8.98332 6.25911 9.38929 6.25911 9.8151C6.25896 11.5434 4.85791 12.9447 3.12956 12.9447C1.40124 12.9446 0.000156326 11.5434 0 9.8151C0 8.08668 1.40114 6.68493 3.12956 6.6849C3.95094 6.6849 4.69819 7.00193 5.25651 7.51953L6.33333 6.72526V6.1875C4.92523 5.88194 3.87044 4.62918 3.87044 3.12956C3.87048 1.40114 5.27158 0 7 0C8.72843 0 10.1295 1.40114 10.1296 3.12956Z" fill="var(--fill-0, #495464)"/>
</svg>
