<svg preserveAspectRatio="none" width="100%" height="100%" overflow="visible" style="display: block;" viewBox="0 0 16 16" fill="none" xmlns="http://www.w3.org/2000/svg">
<g id="Icon">
<g id="Vector">
<path d="M5.92578 11.0095C5.92578 10.0175 5.12163 9.21267 4.12956 9.21267C3.13752 9.21271 2.33333 10.0175 2.33333 11.0095C2.33349 12.0015 3.13762 12.8057 4.12956 12.8058C5.12153 12.8058 5.92562 12.0015 5.92578 11.0095ZM13.6667 11.0095C13.6667 10.0175 12.8625 9.21271 11.8704 9.21267C10.8784 9.21267 10.0742 10.0175 10.0742 11.0095C10.0744 12.0015 10.8785 12.8058 11.8704 12.8058C12.8624 12.8057 13.6665 12.0015 13.6667 11.0095ZM9.79622 4.324C9.79619 3.33197 8.99205 2.52778 8 2.52778C7.00795 2.52778 6.20382 3.33197 6.20378 4.324C6.20378 5.31607 7.00793 6.12023 8 6.12023C8.99207 6.12023 9.79622 5.31607 9.79622 4.324ZM11.1296 4.324C11.1296 5.82362 10.0748 7.07639 8.66667 7.38194V7.9197L9.74284 8.71398C10.3012 8.19618 11.0489 7.87934 11.8704 7.87934C13.5989 7.87938 15 9.28112 15 11.0095C14.9998 12.7378 13.5988 14.1391 11.8704 14.1391C10.1421 14.1391 8.74104 12.7379 8.74089 11.0095C8.74089 10.5838 8.82585 10.1777 8.97982 9.80772L8 9.08377L7.01953 9.80772C7.17356 10.1778 7.25911 10.5837 7.25911 11.0095C7.25896 12.7379 5.85791 14.1391 4.12956 14.1391C2.40124 14.1391 1.00016 12.7378 1 11.0095C1 9.28112 2.40114 7.87938 4.12956 7.87934C4.95094 7.87934 5.69819 8.19637 6.25651 8.71398L7.33333 7.9197V7.38194C5.92523 7.07639 4.87044 5.82362 4.87044 4.324C4.87048 2.59559 6.27158 1.19444 8 1.19444C9.72842 1.19444 11.1295 2.59559 11.1296 4.324Z" fill="var(--fill-0, #18222F)"/>
<path d="M9.79622 4.324C9.79619 3.33197 8.99205 2.52778 8 2.52778C7.00795 2.52778 6.20382 3.33197 6.20378 4.324C6.20378 5.31607 7.00793 6.12023 8 6.12023C8.99207 6.12023 9.79622 5.31607 9.79622 4.324Z" fill="var(--fill-0, #18222F)"/>
<path d="M5.92578 11.0095C5.92578 10.0175 5.12163 9.21267 4.12956 9.21267C3.13752 9.21271 2.33333 10.0175 2.33333 11.0095C2.33349 12.0015 3.13762 12.8057 4.12956 12.8058C5.12153 12.8058 5.92562 12.0015 5.92578 11.0095Z" fill="var(--fill-0, #18222F)"/>
<path d="M13.6667 11.0095C13.6667 10.0175 12.8625 9.21271 11.8704 9.21267C10.8784 9.21267 10.0742 10.0175 10.0742 11.0095C10.0744 12.0015 10.8785 12.8058 11.8704 12.8058C12.8624 12.8057 13.6665 12.0015 13.6667 11.0095Z" fill="var(--fill-0, #18222F)"/>
</g>
</g>
</svg>
