<svg preserveAspectRatio="none" width="100%" height="100%" overflow="visible" style="display: block;" viewBox="0 0 12 13.3333" fill="none" xmlns="http://www.w3.org/2000/svg">
<path id="Vector" d="M3.33333 2C3.33333 0.895433 4.22877 0 5.33333 0C6.43793 0 7.33333 0.895433 7.33333 2C7.33333 2.23376 7.2932 2.45815 7.21953 2.66667H11.3333C11.7015 2.66667 12 2.96515 12 3.33333V5.41735C12 5.62345 11.9047 5.81796 11.7418 5.94423C11.5789 6.07053 11.3667 6.11433 11.1671 6.063C11.0079 6.022 10.8403 6 10.6667 6C9.56207 6 8.66667 6.8954 8.66667 8C8.66667 9.1046 9.56207 10 10.6667 10C10.8403 10 11.0079 9.978 11.1671 9.937C11.3667 9.88567 11.5789 9.92947 11.7418 10.0557C11.9047 10.1821 12 10.3765 12 10.5827V12.6667C12 13.0349 11.7015 13.3333 11.3333 13.3333H0.666667C0.29848 13.3333 0 13.0349 0 12.6667V3.33333C0 2.96515 0.29848 2.66667 0.666667 2.66667H3.44714C3.37343 2.45815 3.33333 2.23376 3.33333 2Z" fill="var(--fill-0, #18222F)"/>
</svg>
