<svg preserveAspectRatio="none" width="100%" height="100%" overflow="visible" style="display: block;" viewBox="0 0 12 13.3333" fill="none" xmlns="http://www.w3.org/2000/svg">
<path id="Vector" d="M2.66667 2.66667C2.66667 1.19391 3.86057 0 5.33333 0C6.80607 0 8 1.19391 8 2.66667H11.3333C11.7015 2.66667 12 2.96515 12 3.33333V6.1138C12 6.3302 11.8949 6.53313 11.7183 6.65813C11.5415 6.78307 11.3152 6.81447 11.1112 6.74233C10.973 6.69353 10.8237 6.66667 10.6667 6.66667C9.93027 6.66667 9.33333 7.2636 9.33333 8C9.33333 8.7364 9.93027 9.33333 10.6667 9.33333C10.8237 9.33333 10.973 9.30647 11.1112 9.25767C11.3152 9.18553 11.5415 9.21693 11.7183 9.34187C11.8949 9.46687 12 9.6698 12 9.8862V12.6667C12 13.0349 11.7015 13.3333 11.3333 13.3333H0.666667C0.29848 13.3333 0 13.0349 0 12.6667V3.33333C0 2.96515 0.29848 2.66667 0.666667 2.66667H2.66667ZM5.33333 1.33333C4.59695 1.33333 4 1.93029 4 2.66667C4 2.82369 4.02687 2.97301 4.0757 3.11117C4.14781 3.31521 4.11641 3.54157 3.99145 3.71826C3.86649 3.89495 3.66355 4 3.44714 4H1.33333V12H10.6667V10.6667C9.19393 10.6667 8 9.47273 8 8C8 6.52727 9.19393 5.33333 10.6667 5.33333V4H7.21953C7.00313 4 6.8002 3.89495 6.6752 3.71826C6.55027 3.54157 6.51887 3.31521 6.591 3.11117C6.6398 2.97301 6.66667 2.8237 6.66667 2.66667C6.66667 1.93029 6.06973 1.33333 5.33333 1.33333Z" fill="var(--fill-0, #495464)"/>
</svg>
