<svg width="11.6416" height="13.086" viewBox="0 0 11.6416 13.086" fill="none" xmlns="http://www.w3.org/2000/svg">
<path d="M10.0996 0.512695C10.1337 0.518171 10.156 0.524407 10.168 0.52832C10.2148 0.543681 10.2522 0.579318 10.2705 0.625C10.5581 1.34398 10.5694 1.95842 10.4502 2.44824L10.3955 2.67578L10.5342 2.86328C10.9293 3.39873 11.1416 4.03345 11.1416 4.76172C11.1416 5.94177 10.8789 6.76774 10.4385 7.34668C9.99983 7.92308 9.33952 8.3137 8.42773 8.53711L7.91602 8.66309L8.06738 9.16699C8.1351 9.39201 8.17383 9.65236 8.17383 9.94336L8.16895 11.2803C8.16815 11.4068 8.16748 11.5418 8.16602 11.75L8.16309 12.1553L8.55762 12.2422C8.62114 12.2562 8.67222 12.3062 8.68555 12.3721C8.7036 12.4623 8.64494 12.5503 8.55469 12.5684C8.30873 12.6174 8.13226 12.5563 8.02148 12.4668C7.90812 12.3752 7.83118 12.2287 7.83105 12.043C7.83105 11.9847 7.83103 11.8999 7.83203 11.748C7.83356 11.5396 7.83507 11.4046 7.83594 11.2783C7.83901 10.8059 7.84082 10.3843 7.84082 9.94336C7.84082 9.41961 7.70678 8.93648 7.38281 8.65723C7.27271 8.56225 7.32913 8.38146 7.47363 8.36523C8.5007 8.24979 9.36433 7.98413 9.96094 7.37695C10.5669 6.76005 10.8086 5.884 10.8086 4.76172C10.8086 4.00303 10.5554 3.35601 10.0693 2.82227C10.0264 2.77514 10.0144 2.70773 10.0381 2.64844C10.1874 2.27509 10.24 1.81114 10.126 1.28125L10.0137 0.759766L9.50098 0.905273L9.49414 0.907227C9.09648 1.01979 8.63458 1.25105 8.11035 1.60742C8.06963 1.63503 8.01887 1.64314 7.97168 1.62988C7.37871 1.46312 6.74527 1.37892 6.1084 1.37891C5.4715 1.37891 4.83803 1.46315 4.24512 1.62988C4.19802 1.64313 4.14702 1.63474 4.10645 1.60742C3.57968 1.25283 3.11619 1.02297 2.71777 0.910156L2.20703 0.765625L2.09277 1.28418C1.97674 1.813 2.02979 2.27614 2.17871 2.64844C2.20225 2.70762 2.19033 2.77513 2.14746 2.82227C1.66395 3.35317 1.4082 4.00895 1.4082 4.76172C1.40822 5.88234 1.64983 6.75778 2.25391 7.375C2.84913 7.98307 3.71022 8.25023 4.7334 8.36523C4.87762 8.38143 4.93358 8.56104 4.82422 8.65625C4.66044 8.79875 4.55302 9.0215 4.48828 9.20898C4.41614 9.41793 4.36621 9.67286 4.36621 9.94336V12.043C4.36598 12.3722 4.10732 12.6499 3.64648 12.5693C3.55582 12.5535 3.49488 12.4666 3.51074 12.376C3.52276 12.3083 3.57458 12.2564 3.63965 12.2422L4.0332 12.1562V10.5586L3.49902 10.5947C2.9627 10.6308 2.58298 10.5389 2.30859 10.3555C2.16409 10.2588 2.0263 10.1279 1.83984 9.90527C1.80759 9.86673 1.71954 9.75814 1.64258 9.66211C1.60519 9.61545 1.57219 9.5735 1.55176 9.54785C1.54666 9.54146 1.54226 9.53528 1.53906 9.53125L1.53711 9.5293C1.53789 9.53032 1.54048 9.53427 1.54395 9.53906C1.54454 9.53989 1.55212 9.55023 1.56055 9.56348C1.56664 9.57332 1.58653 9.60864 1.59863 9.63477C1.62166 9.72473 1.52906 9.94237 1.35645 10.1016L1.14648 9.84082L1.53613 9.52734C1.53304 9.52351 1.52837 9.51827 1.52539 9.51465C1.52488 9.51403 1.52438 9.51285 1.52344 9.51172C1.52279 9.51094 1.51991 9.50772 1.5166 9.50391C1.51604 9.50326 1.51446 9.50199 1.5127 9.5C1.21539 9.13323 0.948869 8.85872 0.610352 8.7373C0.523946 8.70626 0.479023 8.61085 0.509766 8.52441C0.540776 8.43794 0.636154 8.39219 0.722656 8.42285C1.0883 8.55402 1.35448 8.77291 1.7793 9.29785C1.78078 9.29986 1.78248 9.30178 1.7832 9.30273C1.78551 9.30578 1.78769 9.30808 1.78809 9.30859C1.79204 9.31367 1.79973 9.32481 1.80859 9.33594C1.82821 9.36058 1.8612 9.401 1.89746 9.44629L2.0957 9.69141C2.2267 9.84782 2.35754 9.98732 2.49316 10.0781C2.78339 10.2725 3.19313 10.2925 3.58887 10.2529L4.01172 10.2109L4.03809 9.78711C4.05126 9.57333 4.09056 9.36582 4.15039 9.17578L4.31055 8.66699L3.79199 8.54004C2.88088 8.31734 2.21997 7.92594 1.78027 7.34863C1.33864 6.76857 1.07521 5.94109 1.0752 4.76172C1.0752 4.0396 1.28837 3.39917 1.68262 2.86328L1.82129 2.67578L1.76562 2.44824C1.64647 1.95845 1.65776 1.34391 1.94531 0.625C1.96354 0.57943 2.00137 0.544774 2.04785 0.529297C2.07893 0.520398 2.08893 0.517862 2.11621 0.513672C2.47591 0.45859 3.10496 0.581722 4.05176 1.1748L4.22852 1.28516L4.43164 1.2373C4.97053 1.11008 5.53743 1.04492 6.1084 1.04492C6.67867 1.04494 7.24479 1.11034 7.7832 1.2373L7.9873 1.28516L8.16504 1.17285C9.10977 0.576084 9.73863 0.454651 10.0996 0.512695ZM2.39551 9.2666C2.28256 9.36997 2.13716 9.45037 1.96484 9.45117C1.91043 9.42066 1.8462 9.37172 1.83301 9.35937C1.82701 9.35346 1.81779 9.34341 1.81445 9.33984C1.81233 9.33754 1.80911 9.3337 1.80762 9.33203C1.80466 9.3287 1.80177 9.32635 1.80078 9.3252L1.79687 9.32031L1.80078 9.32422L2.19043 9.01172C2.22028 9.0493 2.31937 9.17218 2.39551 9.2666Z" stroke="currentColor"/>
</svg>
