<svg width="14.6667" height="13.3333" viewBox="0 0 14.6667 13.3333" fill="none" xmlns="http://www.w3.org/2000/svg">
<path d="M9.13867 6.72949C8.67785 7.21017 8.03241 7.5 7.33301 7.5C6.63364 7.49991 5.9881 7.21021 5.52734 6.72949L5.16699 6.35254L4.80566 6.72949C4.34483 7.21027 3.69949 7.5 3 7.5C2.90569 7.5 2.81278 7.49447 2.72168 7.48438L2.16699 7.42285V12.5H12.5V7.42285L11.9453 7.48438C11.8543 7.49446 11.7612 7.49999 11.667 7.5C10.9676 7.5 10.3221 7.21017 9.86133 6.72949L9.5 6.35254L9.13867 6.72949ZM2.75977 1.08301L1.14258 3.88379C0.941179 4.21836 0.833008 4.60162 0.833008 5C0.833008 6.19661 1.80338 7.16699 3 7.16699C3.89354 7.16699 4.68499 6.62068 5.01172 5.80566C5.06765 5.66613 5.26532 5.66617 5.32129 5.80566C5.64794 6.62063 6.43956 7.16686 7.33301 7.16699C8.22659 7.16699 9.019 6.62072 9.3457 5.80566C9.4017 5.66633 9.5983 5.66633 9.6543 5.80566C9.981 6.62072 10.7734 7.16699 11.667 7.16699C12.8635 7.16682 13.833 6.1965 13.833 5C13.833 4.59984 13.725 4.21734 13.5186 3.87402H13.5176L11.9072 1.08301L11.7627 0.833008H2.90332L2.75977 1.08301ZM1.83301 7.22754L1.61133 7.0791C0.94019 6.62981 0.5 5.86624 0.5 5C0.5 4.53874 0.625339 4.09665 0.850586 3.72266L0.855469 3.71484L2.66309 0.583008C2.69288 0.531554 2.74815 0.5 2.80762 0.5H11.8594C11.9188 0.500086 11.9742 0.531575 12.0039 0.583008L13.8057 3.7041L13.8096 3.71191C14.0416 4.09734 14.167 4.53978 14.167 5C14.167 5.86614 13.7267 6.62979 13.0557 7.0791L12.833 7.22754V12.5H13.5V12.833H1.16699V12.5H1.83301V7.22754Z" stroke="currentColor"/>
</svg>
