<svg width="13.3333" height="13.3333" viewBox="0 0 13.3333 13.3333" fill="none" xmlns="http://www.w3.org/2000/svg">
<path d="M12.6709 1.83301C12.754 1.83301 12.833 1.90708 12.833 2.00195V9.125L9.125 12.8311L2.00098 12.832C1.90424 12.8318 1.83301 12.7562 1.83301 12.6709V7.16699H2.16699V12.5H8.5V8.66699C8.5 8.57647 8.57647 8.5 8.66699 8.5L12 8.49902H12.5V2.16699H7.16699V1.83301H12.6709ZM11.4473 8.83301H8.83301V12.6533L9.68652 11.7998L11.8008 9.68652L12.6553 8.83203L11.4473 8.83301ZM2.83301 0.5V2.5H4.83301V2.83301H2.83301V4.83301H2.5V2.83301H0.5V2.5H2.5V0.5H2.83301Z" stroke="currentColor"/>
</svg>
