<svg preserveAspectRatio="none" width="100%" height="100%" overflow="visible" style="display: block;" viewBox="0 0 13.4445 14.6667" fill="none" xmlns="http://www.w3.org/2000/svg">
<g id="Vector">
<path d="M7.873 1.01976C8.28503 1.01976 8.68078 1.18055 8.97605 1.46791C9.12039 1.60841 9.23516 1.77638 9.31357 1.96193C9.39199 2.14747 9.43248 2.34683 9.43265 2.54827C9.43282 2.7497 9.39267 2.94913 9.31457 3.13481C9.23647 3.32048 9.12199 3.48865 8.97788 3.62939L4.53331 7.98841C4.48512 8.03528 4.44681 8.09133 4.42065 8.15326C4.39449 8.21519 4.38102 8.28173 4.38102 8.34896C4.38102 8.41619 4.39449 8.48273 4.42065 8.54466C4.44681 8.60659 4.48512 8.66264 4.53331 8.70951C4.63178 8.80538 4.76378 8.85902 4.9012 8.85902C5.03862 8.85902 5.17062 8.80538 5.26908 8.70951L5.32897 8.65024L5.33019 8.64901L9.71304 4.3505C10.0085 4.06393 10.404 3.90381 10.8155 3.90415C11.2271 3.90449 11.6224 4.06527 11.9173 4.35233L11.9479 4.38228C12.0924 4.52293 12.2072 4.69111 12.2856 4.87689C12.3641 5.06267 12.4045 5.26228 12.4045 5.46393C12.4045 5.66559 12.3641 5.8652 12.2856 6.05098C12.2072 6.23676 12.0924 6.40494 11.9479 6.54559L6.62757 11.7632C6.51503 11.8726 6.42557 12.0034 6.36448 12.1479C6.30339 12.2925 6.27191 12.4478 6.27191 12.6047C6.27191 12.7616 6.30339 12.9169 6.36448 13.0615C6.42557 13.206 6.51503 13.3368 6.62757 13.4462L7.72023 14.5175C7.81867 14.6131 7.95053 14.6667 8.08781 14.6667C8.22508 14.6667 8.35695 14.6131 8.45539 14.5175C8.50358 14.4706 8.54189 14.4145 8.56805 14.3526C8.59421 14.2907 8.60769 14.2241 8.60769 14.1569C8.60769 14.0897 8.59421 14.0231 8.56805 13.9612C8.54189 13.8993 8.50358 13.8432 8.45539 13.7964L7.36273 12.7245C7.34667 12.7089 7.33391 12.6902 7.32519 12.6696C7.31647 12.649 7.31198 12.6268 7.31198 12.6044C7.31198 12.582 7.31647 12.5598 7.32519 12.5392C7.33391 12.5186 7.34667 12.4999 7.36273 12.4843L12.683 7.2673C12.924 7.03296 13.1155 6.75268 13.2463 6.44304C13.3771 6.1334 13.4445 5.80068 13.4445 5.46454C13.4445 5.12841 13.3771 4.79569 13.2463 4.48605C13.1155 4.17641 12.924 3.89613 12.683 3.66178L12.6525 3.63123C12.3646 3.35023 12.016 3.13908 11.6336 3.01405C11.2512 2.88903 10.8453 2.85347 10.447 2.91012C10.5038 2.51705 10.4668 2.1161 10.3389 1.74009C10.211 1.36408 9.99593 1.0237 9.71121 0.746808C9.21914 0.267942 8.55962 0 7.873 0C7.18639 0 6.52687 0.267942 6.0348 0.746808L0.152297 6.51564C0.104103 6.56251 0.0657945 6.61857 0.039636 6.6805C0.0134776 6.74243 0 6.80897 0 6.8762C0 6.94342 0.0134776 7.00997 0.039636 7.0719C0.0657945 7.13382 0.104103 7.18988 0.152297 7.23675C0.250735 7.33243 0.382601 7.38595 0.519877 7.38595C0.657153 7.38595 0.789019 7.33243 0.887457 7.23675L6.76996 1.46791C7.06523 1.18055 7.46098 1.01976 7.873 1.01976Z" fill="var(--fill-0, #495464)"/>
<path d="M8.35362 2.74526C8.32747 2.80719 8.28916 2.86324 8.24096 2.91011L3.88989 7.17685C3.74539 7.3175 3.63053 7.48568 3.5521 7.67146C3.47367 7.85724 3.43327 8.05685 3.43327 8.25851C3.43327 8.46016 3.47367 8.65977 3.5521 8.84555C3.63053 9.03133 3.74539 9.19951 3.88989 9.34017C4.18516 9.62753 4.58092 9.78832 4.99294 9.78832C5.40496 9.78832 5.80072 9.62753 6.09598 9.34017L10.4464 5.07343C10.5449 4.97756 10.6769 4.92392 10.8143 4.92392C10.9518 4.92392 11.0837 4.97756 11.1822 5.07343C11.2304 5.1203 11.2687 5.17635 11.2949 5.23828C11.321 5.30021 11.3345 5.36675 11.3345 5.43398C11.3345 5.5012 11.321 5.56775 11.2949 5.62968C11.2687 5.69161 11.2304 5.74766 11.1822 5.79453L6.83114 10.0613C6.339 10.54 5.67951 10.8078 4.99294 10.8078C4.30636 10.8078 3.64688 10.54 3.15473 10.0613C2.91376 9.82692 2.72222 9.54664 2.59143 9.237C2.46064 8.92736 2.39325 8.59464 2.39325 8.25851C2.39325 7.92238 2.46064 7.58966 2.59143 7.28001C2.72222 6.97037 2.91376 6.69009 3.15473 6.45575L7.50519 2.18901C7.60366 2.09315 7.73566 2.03951 7.87308 2.03951C8.0105 2.03951 8.1425 2.09315 8.24096 2.18901C8.28916 2.23588 8.32747 2.29193 8.35362 2.35386C8.37978 2.41579 8.39326 2.48233 8.39326 2.54956C8.39326 2.61679 8.37978 2.68333 8.35362 2.74526Z" fill="var(--fill-0, #495464)"/>
</g>
</svg>
