<svg preserveAspectRatio="none" width="100%" height="100%" overflow="visible" style="display: block;" viewBox="0 0 12.3333 14" fill="none" xmlns="http://www.w3.org/2000/svg">
<path id="Vector" d="M11.6667 0C12.0349 0 12.3333 0.29848 12.3333 0.666667V4C12.3333 4.36819 12.0349 4.66667 11.6667 4.66667H8.33333V13.3333C8.33333 13.7015 8.03487 14 7.66667 14H5C4.63181 14 4.33333 13.7015 4.33333 13.3333V4.66667H0.666667C0.29848 4.66667 0 4.36819 0 4V2.41202C0 2.15951 0.142667 1.92867 0.368527 1.81574L4 0H11.6667ZM8.33333 1.33333H4.31476L1.33333 2.82405V3.33333H5.66667V12.6667H7V3.33333H8.33333V1.33333ZM11 1.33333H9.66667V3.33333H11V1.33333Z" fill="var(--fill-0, #495464)"/>
</svg>
