<svg preserveAspectRatio="none" width="100%" height="100%" overflow="visible" style="display: block;" viewBox="0 0 13.325 13.325" fill="none" xmlns="http://www.w3.org/2000/svg">
<g id="Vector">
<path fill-rule="evenodd" clip-rule="evenodd" d="M5.81641 5.01888L5.91797 5.04883L12.8913 7.70573L12.9837 7.7487C13.3889 7.97463 13.4445 8.54581 13.0905 8.8457L13.0085 8.9056L10.4837 10.4837L8.9056 13.0085C8.62921 13.4507 7.99075 13.4178 7.7487 12.9837L7.70573 12.8913L5.04883 5.91797C4.85479 5.40863 5.31088 4.90871 5.81641 5.01888ZM8.47852 11.1751L9.43359 9.64779L9.47786 9.58529C9.52536 9.52564 9.5828 9.47422 9.64779 9.43359L11.1751 8.47852L6.81901 6.81901L8.47852 11.1751Z" fill="var(--fill-0, #495464)"/>
<path d="M3.87891 9.06445L2.22917 10.7142L1.28646 9.77148L2.9362 8.12175L3.87891 9.06445Z" fill="var(--fill-0, #495464)"/>
<path d="M2.33333 6.66667H0V5.33333H2.33333V6.66667Z" fill="var(--fill-0, #495464)"/>
<path d="M3.87891 2.93555L2.9362 3.87826L1.28646 2.22852L2.22917 1.28581L3.87891 2.93555Z" fill="var(--fill-0, #495464)"/>
<path d="M10.7142 2.22852L9.06445 3.87826L8.12175 2.93555L9.77148 1.28581L10.7142 2.22852Z" fill="var(--fill-0, #495464)"/>
<path d="M6.66667 2.33333H5.33333V0H6.66667V2.33333Z" fill="var(--fill-0, #495464)"/>
</g>
</svg>
