<svg preserveAspectRatio="none" width="100%" height="100%" overflow="visible" style="display: block;" viewBox="0 0 12.1 11.4333" fill="none" xmlns="http://www.w3.org/2000/svg">
<g id="Vector">
<path d="M1.71667 0C0.768578 0 0 0.768578 0 1.71667C0 2.66476 0.768578 3.43333 1.71667 3.43333H3.71667C4.66475 3.43333 5.43333 2.66476 5.43333 1.71667C5.43333 0.768578 4.66476 0 3.71667 0H1.71667Z" fill="var(--fill-0, #18222F)"/>
<path d="M8.38333 4C7.43524 4 6.66667 4.76858 6.66667 5.71667C6.66667 6.66476 7.43524 7.43333 8.38333 7.43333H10.3833C11.3314 7.43333 12.1 6.66476 12.1 5.71667C12.1 4.76858 11.3314 4 10.3833 4H8.38333Z" fill="var(--fill-0, #18222F)"/>
<path d="M0 9.71667C0 8.76858 0.768578 8 1.71667 8H3.71667C4.66476 8 5.43333 8.76858 5.43333 9.71667C5.43333 10.6648 4.66475 11.4333 3.71667 11.4333H1.71667C0.768578 11.4333 0 10.6648 0 9.71667Z" fill="var(--fill-0, #18222F)"/>
<path d="M7.05001 2.38334H6.38334V1.05001H7.05001C8.15458 1.05001 9.05001 1.94544 9.05001 3.05001H7.71667C7.71667 2.68182 7.4182 2.38334 7.05001 2.38334Z" fill="var(--fill-0, #18222F)"/>
<path d="M9.05001 8.38334C9.05001 9.48791 8.15458 10.3833 7.05001 10.3833H6.38334V9.05001H7.05001C7.4182 9.05001 7.71667 8.75153 7.71667 8.38334H9.05001Z" fill="var(--fill-0, #18222F)"/>
</g>
</svg>
