<svg viewBox="0 0 16 16" fill="none" xmlns="http://www.w3.org/2000/svg">
<path fill-rule="evenodd" clip-rule="evenodd" d="M13.3333 2C13.7015 2 14 2.29848 14 2.66667V6C14 6.36819 13.7015 6.66667 13.3333 6.66667H10C9.63181 6.66667 9.33333 6.36819 9.33333 6V5H6.63086C5.94959 5.00026 5.70734 5.90184 6.29688 6.24349L10.3717 8.60221C12.1411 9.62681 11.4138 12.3331 9.36914 12.3333H6.66667V13.3333C6.66667 13.7015 6.36819 14 6 14H2.66667C2.29848 14 2 13.7015 2 13.3333V10C2 9.63181 2.29848 9.33333 2.66667 9.33333H6C6.36819 9.33333 6.66667 9.63181 6.66667 10V11H9.36914C10.0504 10.9997 10.2929 10.0981 9.70378 9.75651L5.62891 7.39779C3.85933 6.37322 4.58611 3.66693 6.63086 3.66667H9.33333V2.66667C9.33333 2.29848 9.63181 2 10 2H13.3333ZM3.33333 12.6667H5.33333V10.6667H3.33333V12.6667ZM10.6667 5.33333H12.6667V3.33333H10.6667V5.33333Z" fill="currentColor"/>
</svg>
