<svg preserveAspectRatio="none" width="100%" height="100%" overflow="visible" style="display: block;" viewBox="0 0 12.6667 12" fill="none" xmlns="http://www.w3.org/2000/svg">
<path id="Vector" d="M2 12C0.895401 12 7.95946e-07 11.1046 6.99382e-07 10C6.02818e-07 8.89543 0.8954 8 2 8H4C4.8706 8 5.61127 8.55625 5.886 9.33273L6.66667 9.33333C7.4 9.33333 8 8.73333 8 8L7.9994 7.88599C7.22293 7.61125 6.66667 6.8706 6.66667 6C6.66667 5.1294 7.22293 4.38873 7.9994 4.114L8 4C8 3.26667 7.4 2.66667 6.66667 2.66667L5.8862 2.6666C5.61167 3.4434 4.87087 4 4 4L2 4C0.8954 4 9.65672e-08 3.1046 0 2C-9.65672e-08 0.8954 0.8954 2.71413e-07 2 1.74846e-07L4 0C4.8706 -7.61103e-08 5.61127 0.556266 5.886 1.33273L6.66667 1.33333C8.14 1.33333 9.33333 2.52667 9.33333 4L10.6667 4C11.7712 4 12.6667 4.8954 12.6667 6C12.6667 7.1046 11.7712 8 10.6667 8H9.33333C9.33333 9.47276 8.13943 10.6667 6.66667 10.6667L5.8862 10.6666C5.61167 11.4434 4.87087 12 4 12H2ZM2 2.66667L4 2.66667C4.3682 2.66667 4.66667 2.3682 4.66667 2C4.66667 1.6318 4.3682 1.33333 4 1.33333L2 1.33333C1.6318 1.33333 1.33333 1.6318 1.33333 2C1.33333 2.3682 1.6318 2.66667 2 2.66667ZM8.66667 6.66667H10.6667C11.0349 6.66667 11.3333 6.3682 11.3333 6C11.3333 5.6318 11.0349 5.33333 10.6667 5.33333L8.66667 5.33333C8.29848 5.33333 8 5.6318 8 6C8 6.3682 8.29848 6.66667 8.66667 6.66667ZM2 10.6667H4C4.3682 10.6667 4.66667 10.3682 4.66667 10C4.66667 9.63181 4.3682 9.33333 4 9.33333H2C1.6318 9.33333 1.33333 9.63181 1.33333 10C1.33333 10.3682 1.6318 10.6667 2 10.6667Z" fill="var(--fill-0, #495464)"/>
</svg>
