<svg width="12" height="12" viewBox="0 0 12 12" fill="none" xmlns="http://www.w3.org/2000/svg">
<g clip-path="url(#clip0_7847_32895)">
<path d="M10.5 2.5C10.5 3.32843 8.48528 4 6 4C3.51472 4 1.5 3.32843 1.5 2.5M10.5 2.5C10.5 1.67157 8.48528 1 6 1C3.51472 1 1.5 1.67157 1.5 2.5M10.5 2.5V9.5C10.5 10.33 8.5 11 6 11C3.5 11 1.5 10.33 1.5 9.5V2.5M10.5 6C10.5 6.83 8.5 7.5 6 7.5C3.5 7.5 1.5 6.83 1.5 6" stroke="#667085" stroke-width="1.25" stroke-linecap="round" stroke-linejoin="round"/>
</g>
<defs>
<clipPath id="clip0_7847_32895">
<rect width="12" height="12" fill="white"/>
</clipPath>
</defs>
</svg>
