<svg width="16" height="16" viewBox="0 0 16 16" fill="none" xmlns="http://www.w3.org/2000/svg">
<path d="M4 10.8283C2.78237 9.85175 2 8.35117 2 6.66683C2 3.72131 4.38782 1.3335 7.33333 1.3335C10.2084 1.3335 12.5503 3.60853 12.6608 6.45654L13.888 8.29704C14.0843 8.59144 14.0161 8.98774 13.7331 9.20003L12.6667 9.99951V11.3335C12.6667 12.0699 12.0697 12.6668 11.3333 12.6668H10V14.6668H8.66667V12.0002C8.66667 11.632 8.96514 11.3335 9.33333 11.3335H11.3333V9.66683C11.3333 9.45699 11.4324 9.25953 11.6003 9.13363L12.4284 8.51188L11.4453 7.03662C11.3723 6.92711 11.3333 6.79845 11.3333 6.66683C11.3333 4.45769 9.54248 2.66683 7.33333 2.66683C5.1242 2.66683 3.33333 4.45769 3.33333 6.66683C3.33333 8.02552 4.0103 9.22611 5.04818 9.95003C5.2269 10.0747 5.33329 10.279 5.33333 10.4969V14.6668H4V10.8283Z" fill="#354052"/>
<path d="M8.04367 5.57362L7.6504 4.55128C7.59993 4.42007 7.47393 4.3335 7.33333 4.3335C7.19273 4.3335 7.06673 4.42007 7.01627 4.55128L6.62303 5.57362C6.55531 5.74968 6.41618 5.88881 6.24012 5.95653L5.21778 6.34974C5.08657 6.4002 5 6.52626 5 6.66683C5 6.80743 5.08657 6.93343 5.21778 6.9839L6.24012 7.37716C6.41618 7.44483 6.55531 7.58396 6.62303 7.76003L7.01627 8.78236C7.06673 8.91356 7.19273 9.00016 7.33333 9.00016C7.47393 9.00016 7.59993 8.91356 7.6504 8.78236L8.04367 7.76003C8.11133 7.58396 8.25047 7.44483 8.42653 7.37716L9.44887 6.9839C9.58007 6.93343 9.66667 6.80743 9.66667 6.66683C9.66667 6.52626 9.58007 6.4002 9.44887 6.34974L8.42653 5.95653C8.25047 5.88881 8.11133 5.74968 8.04367 5.57362Z" fill="#354052"/>
</svg>
