<svg version="1.1" id="Layer_1" xmlns="http://www.w3.org/2000/svg" xmlns:xlink="http://www.w3.org/1999/xlink" x="0px" y="0px"
	 width="100%" viewBox="0 0 1024 1024" enable-background="new 0 0 1024 1024" xml:space="preserve">
<path fill="#000000" opacity="1.000000" stroke="none" 
	d="
M225.903809,606.965698 
	C225.973099,550.308960 226.000595,494.146545 226.134079,437.984375 
	C226.172882,421.657410 225.977005,405.302307 226.851212,389.011749 
	C227.990433,367.783020 233.461975,347.332550 240.270706,327.271149 
	C251.198395,295.073578 267.173859,265.644257 289.256104,239.693512 
	C316.877441,207.233322 349.714050,181.666595 388.970734,164.590485 
	C397.386505,160.929764 406.094086,158.096298 414.599792,154.706787 
	C421.710358,151.873199 423.671143,149.137604 423.679932,141.579620 
	C423.700287,124.081024 423.272888,106.569389 423.823700,89.088142 
	C424.214661,76.679848 424.149384,64.135376 428.630798,52.133266 
	C439.773560,22.290724 470.062775,1.349796 501.705933,1.685639 
	C542.474487,2.118333 568.732361,30.497869 576.443054,62.827728 
	C577.817139,68.589317 578.002380,74.724792 578.058472,80.694008 
	C578.252747,101.356728 578.156189,122.022247 578.152649,142.686707 
	C578.151123,151.549744 578.800598,152.851990 587.205627,155.929138 
	C602.074890,161.372940 616.808655,167.049194 630.782349,174.611084 
	C671.906616,196.865524 705.315918,227.445023 731.052063,266.502869 
	C746.292786,289.632568 758.040710,314.354950 765.572144,340.996887 
	C770.692261,359.108887 774.190430,377.539062 775.402649,396.394592 
	C776.374817,411.517242 777.628174,426.637939 776.935303,441.783997 
	C776.296265,455.754425 774.969604,469.712067 775.384338,483.700348 
	C776.435852,519.170898 777.269165,554.642456 776.877808,590.129578 
	C776.758667,600.934631 775.598816,611.723450 777.625244,622.501831 
	C780.512817,637.861267 789.509094,649.736694 799.016296,661.455811 
	C820.744995,688.239685 842.322815,715.145935 863.929321,742.028748 
	C865.698914,744.230530 867.501892,746.485229 868.798645,748.971191 
	C871.663513,754.463257 875.593323,758.328552 881.949341,759.356934 
	C884.513367,759.771790 886.381897,761.503418 888.184753,763.293640 
	C905.637939,780.624756 921.418396,799.259094 933.301636,820.948547 
	C933.860474,821.968506 934.412903,823.054443 935.212280,823.870605 
	C945.016174,833.880188 946.025635,846.138977 944.805603,859.217041 
	C944.283813,864.810974 945.139160,870.519836 945.076233,876.173218 
	C944.979553,884.866699 942.729614,886.873474 934.038635,887.297241 
	C891.272644,889.382629 848.495911,890.802979 805.676697,891.573303 
	C736.684265,892.814331 667.699036,892.530640 598.716675,891.802795 
	C524.226135,891.016846 449.731903,890.851013 375.252808,891.610596 
	C289.593842,892.484253 203.944138,891.956909 118.290245,891.878540 
	C110.963188,891.871887 103.635117,891.579712 96.309807,891.347900 
	C82.751381,890.918884 76.799179,884.181580 77.441200,870.611694 
	C78.007874,858.634277 78.268272,846.661743 77.194176,834.658569 
	C76.424850,826.061401 79.624054,818.296875 84.278877,811.164124 
	C89.290878,803.484131 94.579475,796.000061 100.723763,789.169495 
	C112.451302,776.132202 122.221359,761.588379 132.728455,747.615234 
	C150.367950,724.156921 169.917160,702.276855 188.538773,679.630737 
	C196.472015,669.982910 204.110275,660.089539 211.768555,650.219299 
	C221.516602,637.655762 226.269501,623.391846 225.903809,606.965698 
M860.650085,812.902527 
	C847.669678,803.085449 835.785156,792.247803 828.605286,777.259705 
	C827.007751,773.924744 825.310486,770.717590 823.008057,767.851501 
	C803.493408,743.559937 784.654175,718.676819 763.827698,695.505676 
	C738.264709,667.064819 726.547668,634.680298 727.278503,596.127686 
	C728.484680,532.496033 728.690247,468.812408 726.621460,405.165436 
	C726.275085,394.510254 725.377014,383.877167 723.153992,373.460815 
	C711.388794,318.331512 684.417419,272.538452 639.456238,237.853516 
	C588.682129,198.684235 531.026672,183.881180 467.977417,191.802856 
	C418.697845,197.994476 375.955627,219.822235 340.663513,254.566681 
	C296.144226,298.395111 273.090515,352.248718 272.402649,414.821106 
	C271.710205,477.812561 272.136627,540.817749 272.281097,603.816406 
	C272.353424,635.367126 262.788483,662.783752 242.163803,687.275757 
	C215.714798,718.684143 187.518448,748.928833 167.808701,785.505737 
	C166.221741,788.450806 163.657455,790.489502 160.162155,790.303223 
	C156.110214,790.087402 154.866165,792.010132 154.948212,795.686829 
	C155.097458,802.373047 152.086411,807.532837 146.881073,811.521362 
	C144.103958,813.649292 141.292892,815.733093 138.489334,817.826355 
	C136.679214,819.177856 135.255753,820.839905 135.229385,823.181946 
	C135.156265,829.675476 135.186707,836.170471 135.224594,842.664673 
	C135.238266,845.007385 136.465302,846.589722 138.826553,846.638000 
	C146.966187,846.804382 155.151062,848.616028 163.230530,847.025452 
	C174.818604,844.744080 186.304703,842.002930 198.219772,842.057922 
	C284.045471,842.454163 369.871185,841.819214 455.699310,842.466064 
	C517.686279,842.933289 579.682190,843.164612 641.676514,842.133545 
	C677.667053,841.535034 713.673889,841.699951 749.672180,841.834106 
	C793.645691,841.997986 837.557312,844.031555 881.433105,846.900757 
	C884.458557,847.098633 887.720581,847.881897 890.545105,845.229431 
	C883.854004,831.624390 874.164185,820.995178 860.650085,812.902527 
M470.153625,111.498383 
	C470.214264,118.991570 470.269165,126.484802 470.337158,133.977921 
	C470.402710,141.204208 471.677948,142.562729 478.973663,141.838531 
	C492.431183,140.502670 505.860992,140.143082 519.286926,142.013214 
	C525.491211,142.877396 527.855164,141.108734 527.497192,134.986008 
	C526.339905,115.186737 526.991150,95.369774 526.674255,75.563560 
	C526.653076,74.239304 526.646362,72.875977 526.340271,71.601082 
	C523.017273,57.760582 513.646729,51.274750 498.517181,51.019966 
	C485.448639,50.799892 474.650696,61.330509 472.239624,72.726723 
	C469.591675,85.242584 469.890472,97.857040 470.153625,111.498383 
z"/>
<path fill="#000000" opacity="1.000000" stroke="none" 
	d="
M531.234497,1018.509888 
	C502.571350,1025.089600 474.978973,1023.716675 448.337891,1011.497131 
	C421.768372,999.310364 402.096680,979.935242 388.651917,954.086243 
	C380.622284,938.648376 376.097778,922.290405 375.291656,904.873535 
	C375.000763,898.589050 376.787781,895.966858 382.942780,895.863647 
	C393.602173,895.684937 404.267151,895.866211 414.928864,895.781555 
	C420.343689,895.738647 422.566528,898.692993 423.355560,903.650391 
	C425.245300,915.523438 427.742493,927.267151 434.346893,937.585388 
	C450.324738,962.548096 473.385651,974.541443 502.842865,973.889465 
	C536.922058,973.135193 571.304688,945.624084 574.850830,907.315063 
	C575.791016,897.157715 577.541443,895.881836 587.805420,895.803528 
	C596.468140,895.737427 605.132812,895.716675 613.794922,895.819397 
	C622.883240,895.927185 624.603821,897.890564 623.892700,906.934998 
	C621.976440,931.306702 613.564880,953.174622 598.975159,972.802063 
	C581.812561,995.890991 559.189453,1010.748535 531.234497,1018.509888 
z"/>
<path fill="#000000" opacity="1.000000" stroke="none" 
	d="
M511.822571,348.204926 
	C515.581055,350.485718 519.027710,352.285004 523.334106,351.984192 
	C527.221924,351.712616 529.298157,354.376526 530.606506,358.108826 
	C537.748962,355.520538 542.372375,358.883820 546.335205,364.310516 
	C549.657898,368.860596 554.763184,371.316925 559.410400,374.199982 
	C562.096069,375.866089 564.041382,377.497192 563.141785,380.168396 
	C572.471313,389.787323 586.169861,394.931854 587.905884,410.281311 
	C588.101868,412.014374 589.104736,413.770081 590.091064,415.281921 
	C598.078552,427.525452 599.479797,441.283386 600.105408,455.430908 
	C600.857178,472.430115 598.697876,488.649109 590.433044,503.773346 
	C589.668701,505.171997 589.316956,506.948151 589.279602,508.560760 
	C589.197205,512.109314 587.886780,514.943298 585.449036,517.483826 
	C580.286560,522.864075 576.551636,528.781677 579.027344,536.764343 
	C579.650696,538.774353 578.184937,539.818970 576.774658,540.769348 
	C567.740356,546.857971 563.229370,555.761963 561.524048,566.152649 
	C560.618774,571.669067 557.788818,575.156677 552.883057,577.446899 
	C545.402649,580.939148 543.388123,585.444641 544.766174,593.557556 
	C546.178284,601.870667 549.541016,608.675171 557.198120,612.981873 
	C561.286255,615.281250 564.482361,614.900269 567.931580,611.585449 
	C582.157776,597.913635 595.229736,583.299194 605.999390,566.703979 
	C607.719482,564.053528 609.715088,561.580261 611.610168,559.045227 
	C620.346497,547.358154 631.844971,541.656128 646.582153,542.602722 
	C651.728210,542.933289 656.911926,542.642029 662.077332,542.715393 
	C667.998474,542.799438 669.415649,544.130127 670.005859,549.927917 
	C670.600647,555.770264 671.502380,556.572510 677.546936,556.636780 
	C683.902405,556.704346 685.299683,557.932739 685.342102,564.165833 
	C685.451965,580.319275 684.992065,596.480347 686.296143,612.612854 
	C686.689758,617.481689 686.109619,622.374207 684.477234,626.911987 
	C675.350281,652.284119 666.957825,677.965942 654.234802,701.884827 
	C650.075928,709.703308 645.153381,716.997986 639.096924,723.529236 
	C629.406616,733.979248 617.202942,739.048279 603.303406,740.226685 
	C579.477844,742.246887 555.736694,739.876648 531.974304,738.527405 
	C522.667480,737.998901 513.354065,737.720825 504.208801,735.733154 
	C474.915192,729.366272 449.592224,716.216309 428.171783,694.669739 
	C415.035248,681.455872 408.858765,665.978455 407.921967,648.403320 
	C406.876801,628.794373 407.737427,609.086060 407.667206,589.421448 
	C407.648956,584.316345 408.515167,579.505981 410.926178,574.979126 
	C411.547150,573.813293 412.148132,572.553467 412.368439,571.269897 
	C417.386475,542.035217 429.377716,515.603577 444.592896,490.428802 
	C445.770599,488.480255 449.117462,486.419525 445.993713,483.611115 
	C442.759705,480.703583 439.160889,480.335876 435.568604,483.155762 
	C434.786591,483.769684 434.052521,484.459167 433.370514,485.183685 
	C427.693451,491.215149 425.771088,491.374146 419.350677,485.929993 
	C417.455872,484.323334 415.898041,482.324677 414.131897,480.559570 
	C411.328705,477.758026 408.265839,475.626953 403.948242,476.518829 
	C400.383911,477.255096 398.758423,475.039368 398.844727,472.062286 
	C399.074402,464.139862 396.744965,456.594055 395.933533,448.843262 
	C394.907562,439.043030 398.851776,429.838287 399.794891,420.298126 
	C401.053040,407.571564 404.562073,395.901733 412.088593,385.468811 
	C413.415802,383.629059 414.200043,381.291992 414.820343,379.068878 
	C416.284454,373.821350 419.156403,369.270721 423.823181,366.924286 
	C432.251740,362.686493 437.154236,355.612579 441.319000,347.757874 
	C442.815033,344.936279 444.801270,343.691864 447.923645,343.345917 
	C451.885376,342.906952 455.764252,341.613098 459.726196,341.312653 
	C463.882294,340.997467 468.459808,339.646942 471.827728,343.756622 
	C472.107330,344.097809 472.761169,344.452850 473.124084,344.357239 
	C478.691437,342.890259 484.897308,345.134674 489.859985,343.242188 
	C498.691589,339.874268 505.014526,343.224030 511.822571,348.204926 
M410.530487,448.060120 
	C411.384796,449.061829 412.522430,449.934723 413.046295,451.086731 
	C415.898315,457.358459 427.833832,462.941406 434.384064,460.898438 
	C435.937286,460.413971 437.957550,460.161804 438.229279,458.212677 
	C438.503662,456.244507 436.767609,455.270508 435.212372,454.707794 
	C430.545715,453.019501 429.134857,449.282898 428.920349,444.882294 
	C428.538605,437.050354 429.210449,429.244751 430.732147,421.587250 
	C432.765076,411.357208 439.501862,405.413422 449.431610,403.060883 
	C453.789307,402.028503 458.275543,401.541077 462.699951,400.786041 
	C464.097687,400.547516 465.482941,400.586792 466.282104,401.886688 
	C468.630402,405.706238 472.466858,406.897675 476.462036,407.382599 
	C480.185272,407.834534 481.162231,409.906403 481.062286,413.153839 
	C480.877899,419.143524 480.745636,425.134796 480.561371,431.124481 
	C480.309052,439.325287 479.942413,447.531097 481.662048,455.978180 
	C483.668610,454.729218 485.056305,453.824951 486.481628,452.984589 
	C498.045868,446.166199 509.370270,439.627472 523.978027,441.286072 
	C530.695190,442.048706 537.145630,441.606323 542.504883,446.491394 
	C543.187561,447.113708 544.252625,447.411133 545.193726,447.640320 
	C552.074524,449.315857 553.324036,450.843628 553.333313,457.889771 
	C553.352966,472.879730 553.381897,487.869720 553.356201,502.859619 
	C553.341614,511.365112 554.309143,519.785645 555.404175,528.195740 
	C555.716309,530.593079 556.548828,533.185059 559.271118,533.310974 
	C561.891296,533.432129 561.811462,530.534119 562.272156,528.771973 
	C564.946533,518.541809 569.168152,509.060089 574.676025,500.011963 
	C582.413513,487.300995 585.700684,472.889618 588.439270,458.540131 
	C590.428345,448.117950 577.897461,423.192078 568.989990,417.123566 
	C568.317444,416.665405 567.121216,415.897400 567.213623,415.557709 
	C568.514587,410.773865 563.527344,409.145996 562.372375,405.644867 
	C557.288879,409.366058 555.996460,408.879700 554.514771,402.952484 
	C553.965393,400.754730 553.325562,398.473358 551.268616,397.133698 
	C543.237549,399.947205 541.921692,399.463440 538.426086,391.917328 
	C535.783386,386.212280 531.562439,383.081543 525.179077,383.054626 
	C523.681458,383.048309 522.179932,382.995850 520.688049,382.870941 
	C519.128723,382.740326 517.511902,382.277954 517.192993,380.578369 
	C516.840210,378.697906 518.385986,378.055969 519.918579,377.676025 
	C522.053650,377.146606 523.815186,375.902008 521.430542,374.139557 
	C518.832275,372.219177 515.869385,369.967163 512.388794,370.386902 
	C507.687805,370.953857 502.967072,374.190857 498.558441,369.627777 
	C498.411194,369.475403 497.795624,369.514832 497.620331,369.688690 
	C493.724884,373.551605 489.578217,372.645477 485.239380,370.546814 
	C484.144104,370.017029 483.043091,371.006592 482.000214,371.519592 
	C476.705322,374.124329 475.870911,373.732178 474.745972,368.120178 
	C474.575836,367.271423 474.366852,366.506775 473.359711,366.116821 
	C471.056183,366.512115 469.333466,368.182220 467.370453,369.384460 
	C465.028503,370.818848 462.772125,371.160736 460.456512,369.295349 
	C456.397797,366.025879 452.899353,366.672546 449.795959,370.792206 
	C448.912842,371.964539 447.690125,372.925171 446.496399,373.812347 
	C437.172913,380.741455 430.165253,390.013336 423.124969,398.921021 
	C419.751343,403.189514 417.262512,409.173126 415.254028,414.559509 
	C412.489532,421.973267 410.647369,429.808441 408.066223,437.359955 
	C406.785187,441.107788 407.039948,444.578613 410.530487,448.060120 
M458.935669,639.365784 
	C451.110657,639.796936 450.022766,641.793823 454.025940,648.444336 
	C454.797791,649.726624 455.617554,650.990234 456.523743,652.179749 
	C461.628387,658.880432 468.645325,663.534180 474.787964,669.122070 
	C481.581665,675.302246 492.885071,674.428528 498.070282,666.844910 
	C502.549408,660.293945 508.405182,655.132996 513.656128,649.361572 
	C515.281677,647.574951 518.046143,646.053284 515.928406,643.146362 
	C513.389099,639.660645 511.475281,634.037231 505.927887,635.766602 
	C490.765808,640.492981 475.269348,639.112488 458.935669,639.365784 
M449.597321,598.593323 
	C450.909546,601.528564 453.474548,603.541565 456.320526,602.468384 
	C464.475281,599.393188 473.788879,599.557068 480.934143,593.666931 
	C483.781158,591.320068 486.994965,589.589172 490.634857,588.748901 
	C494.850555,587.775635 496.691711,584.979980 496.690063,580.797791 
	C496.688354,576.475281 496.573914,572.150269 496.685364,567.830933 
	C496.787720,563.863159 495.012939,561.957214 491.052246,561.983337 
	C486.896179,562.010803 482.739563,561.951538 478.583435,561.976196 
	C472.755524,562.010803 467.611755,560.868164 465.624664,554.368286 
	C463.634247,555.281311 463.228394,557.016968 462.531982,558.448669 
	C457.145081,569.523376 455.683441,582.073730 449.608795,592.923645 
	C448.895386,594.197876 449.440552,596.176758 449.597321,598.593323 
M567.444946,700.608826 
	C570.091980,700.775085 572.840698,700.547485 575.362793,701.198059 
	C579.362671,702.229736 580.927246,700.601379 581.363159,696.946411 
	C582.621399,686.395874 584.157227,675.867065 583.738953,665.191345 
	C583.613770,661.995422 583.794250,658.850952 579.265503,658.206421 
	C570.629944,656.977234 568.298096,657.395020 566.804932,662.429749 
	C564.727417,669.434753 560.455627,674.728821 555.222778,679.501465 
	C550.558472,683.755493 545.960876,688.083374 541.372070,692.419067 
	C540.067566,693.651672 538.315857,694.900024 538.942139,696.972900 
	C539.549683,698.983704 541.640869,698.416260 543.203613,698.759705 
	C550.877319,700.446228 558.641907,700.894348 567.444946,700.608826 
M514.736023,508.539795 
	C514.723083,506.043213 514.729370,503.546356 514.690491,501.050171 
	C514.664856,499.401489 514.899597,497.542053 513.066895,496.659668 
	C511.185364,495.753784 509.848114,497.121521 508.728241,498.289124 
	C503.870026,503.354279 498.122772,507.382874 492.929291,512.045776 
	C489.438263,515.180115 485.542480,518.065491 483.172211,522.752625 
	C486.825104,524.465027 490.171967,523.952820 493.412781,523.942444 
	C503.087952,523.911560 504.691528,525.542053 504.587128,535.228760 
	C504.537842,539.798523 503.842865,544.487610 506.038269,548.807434 
	C511.880005,547.738403 514.542603,544.774109 514.619202,538.985901 
	C514.749084,529.167358 514.706848,519.346436 514.736023,508.539795 
M638.339539,604.836243 
	C634.002136,610.524292 629.416382,616.042542 625.385437,621.940063 
	C619.348755,630.771973 620.593628,640.359375 623.667908,650.213196 
	C632.365234,633.740112 639.842834,616.869385 646.059814,598.119141 
	C642.185608,599.898987 640.709717,602.358765 638.339539,604.836243 
M465.710144,429.781311 
	C463.489990,428.696198 461.361572,427.300140 459.024719,426.610504 
	C456.528320,425.873871 453.713928,426.323975 452.723663,429.059845 
	C451.788696,431.642883 454.168304,432.304138 456.156647,432.825317 
	C458.386932,433.409973 459.210999,434.851898 459.401459,437.159698 
	C459.662415,440.322144 459.682709,443.693390 462.538513,446.569763 
	C464.498230,443.566010 466.198181,440.800629 468.059143,438.148193 
	C470.407166,434.801544 470.455139,432.056030 465.710144,429.781311 
z"/>
<path fill="#000000" opacity="1.000000" stroke="none" 
	d="
M499.937744,238.726532 
	C533.309021,243.374588 563.266846,255.652740 590.648254,274.263245 
	C622.071411,295.620758 645.821899,323.612152 662.226868,357.915558 
	C674.969666,384.561035 681.373169,412.754852 683.279663,442.058319 
	C683.824219,450.427643 681.675415,452.031891 673.135986,452.364136 
	C663.149780,452.752686 653.183899,452.457062 643.210876,452.189392 
	C635.728638,451.988586 634.183899,450.609985 633.898926,443.007874 
	C633.030518,419.837189 627.336426,397.863708 616.744934,377.337616 
	C602.068909,348.895752 581.315002,325.772186 553.587158,309.495514 
	C529.551025,295.385925 503.769409,286.577209 475.527740,286.218964 
	C470.214264,286.151550 467.849640,283.619354 467.763550,277.900208 
	C467.593018,266.572937 467.698639,255.241623 467.664398,243.912033 
	C467.653046,240.157791 469.342804,238.063538 473.168610,237.512100 
	C480.342255,236.478119 487.419678,237.985703 494.545837,238.118774 
	C496.197906,238.149628 497.843964,238.499374 499.937744,238.726532 
z"/>
</svg>