<svg width="20" height="20" viewBox="0 0 20 20" fill="none" xmlns="http://www.w3.org/2000/svg">
<path d="M14.1667 6.66634H15.8333C16.2754 6.66634 16.6993 6.84194 17.0118 7.1545C17.3244 7.46706 17.5 7.89098 17.5 8.33301V13.333C17.5 13.775 17.3244 14.199 17.0118 14.5115C16.6993 14.8241 16.2754 14.9997 15.8333 14.9997H14.1667V18.333L10.8333 14.9997H7.5C7.28111 14.9999 7.06433 14.9569 6.86211 14.8731C6.6599 14.7893 6.47623 14.6663 6.32167 14.5113M6.32167 14.5113L9.16667 11.6663H12.5C12.942 11.6663 13.366 11.4907 13.6785 11.1782C13.9911 10.8656 14.1667 10.4417 14.1667 9.99967V4.99967C14.1667 4.55765 13.9911 4.13372 13.6785 3.82116C13.366 3.5086 12.942 3.33301 12.5 3.33301H4.16667C3.72464 3.33301 3.30072 3.5086 2.98816 3.82116C2.67559 4.13372 2.5 4.55765 2.5 4.99967V9.99967C2.5 10.4417 2.67559 10.8656 2.98816 11.1782C3.30072 11.4907 3.72464 11.6663 4.16667 11.6663H5.83333V14.9997L6.32167 14.5113Z" stroke="currentColor" stroke-width="1.5" stroke-linecap="round" stroke-linejoin="round"/>
</svg>
