<svg width="12" height="12" viewBox="0 0 12 12" fill="none" xmlns="http://www.w3.org/2000/svg">
<path fill-rule="evenodd" clip-rule="evenodd" d="M6.5 1.00779C6.5 0.994638 6.5 0.988062 6.49943 0.976137C6.48764 0.729248 6.27052 0.51224 6.02363 0.50056C6.01171 0.499996 6.0078 0.499998 6.00001 0.5H4.37933C3.97686 0.499995 3.64468 0.49999 3.37409 0.522098C3.09304 0.545061 2.83469 0.594343 2.59202 0.717989C2.2157 0.909735 1.90973 1.2157 1.71799 1.59202C1.59434 1.83469 1.54506 2.09304 1.5221 2.37409C1.49999 2.64468 1.49999 2.97686 1.5 3.37934V8.62066C1.49999 9.02313 1.49999 9.35532 1.5221 9.62591C1.54506 9.90696 1.59434 10.1653 1.71799 10.408C1.90973 10.7843 2.2157 11.0903 2.59202 11.282C2.83469 11.4057 3.09304 11.4549 3.37409 11.4779C3.64468 11.5 3.97686 11.5 4.37934 11.5H7.62066C8.02314 11.5 8.35532 11.5 8.62591 11.4779C8.90696 11.4549 9.16531 11.4057 9.40798 11.282C9.78431 11.0903 10.0903 10.7843 10.282 10.408C10.4057 10.1653 10.4549 9.90696 10.4779 9.62591C10.5 9.35532 10.5 9.02314 10.5 8.62066V4.99997C10.5 4.9922 10.5 4.98832 10.4994 4.97641C10.4878 4.72949 10.2707 4.51236 10.0238 4.50057C10.0119 4.50001 10.0054 4.50001 9.99225 4.50001L7.78404 4.50001C7.65786 4.50002 7.53496 4.50004 7.43089 4.49153C7.31659 4.48219 7.18172 4.46016 7.04601 4.39101C6.85785 4.29514 6.70487 4.14216 6.609 3.954C6.53985 3.81828 6.51781 3.68342 6.50848 3.56912C6.49997 3.46504 6.49999 3.34215 6.5 3.21596L6.5 1.00779ZM4 6.5C3.72386 6.5 3.5 6.72386 3.5 7C3.5 7.27614 3.72386 7.5 4 7.5H8C8.27614 7.5 8.5 7.27614 8.5 7C8.5 6.72386 8.27614 6.5 8 6.5H4ZM4 8.5C3.72386 8.5 3.5 8.72386 3.5 9C3.5 9.27614 3.72386 9.5 4 9.5H7C7.27614 9.5 7.5 9.27614 7.5 9C7.5 8.72386 7.27614 8.5 7 8.5H4Z" fill="#98A2B3"/>
<path d="M9.45398 3.5C9.60079 3.5 9.67419 3.5 9.73432 3.46314C9.81925 3.41107 9.87002 3.28842 9.84674 3.19157C9.83025 3.12299 9.78238 3.07516 9.68665 2.97952L8.02049 1.31336C7.92484 1.21762 7.87701 1.16975 7.80843 1.15326C7.71158 1.12998 7.58893 1.18075 7.53687 1.26567C7.5 1.3258 7.5 1.39921 7.5 1.54602L7.5 3.09998C7.5 3.23999 7.5 3.30999 7.52725 3.36347C7.55122 3.41051 7.58946 3.44876 7.6365 3.47272C7.68998 3.49997 7.75998 3.49997 7.9 3.49998L9.45398 3.5Z" fill="#98A2B3"/>
</svg>
