<svg width="26" height="26" viewBox="0 0 26 26" fill="none" xmlns="http://www.w3.org/2000/svg">
<path d="M22.0101 4.50191C20.3529 3.74154 18.5759 3.18133 16.7179 2.86048C16.6841 2.85428 16.6503 2.86976 16.6328 2.90071C16.4043 3.30719 16.1511 3.83748 15.9738 4.25429C13.9754 3.95511 11.9873 3.95511 10.0298 4.25429C9.85253 3.82822 9.59019 3.30719 9.36062 2.90071C9.34319 2.87079 9.30939 2.85532 9.27555 2.86048C7.41857 3.18031 5.64152 3.74051 3.98335 4.50191C3.96899 4.5081 3.95669 4.51843 3.94852 4.53183C0.577841 9.56755 -0.345529 14.4795 0.107445 19.3306C0.109495 19.3543 0.122817 19.377 0.141265 19.3914C2.36514 21.0246 4.51935 22.0161 6.63355 22.6732C6.66739 22.6836 6.70324 22.6712 6.72477 22.6433C7.22489 21.9604 7.6707 21.2402 8.05293 20.4829C8.07549 20.4386 8.05396 20.386 8.00785 20.3684C7.30073 20.1002 6.6274 19.7731 5.97971 19.4017C5.92848 19.3718 5.92437 19.2985 5.9715 19.2635C6.1078 19.1613 6.24414 19.0551 6.37428 18.9478C6.39783 18.9282 6.43064 18.924 6.45833 18.9364C10.7134 20.8791 15.32 20.8791 19.5249 18.9364C19.5525 18.923 19.5854 18.9272 19.6099 18.9467C19.7401 19.054 19.8764 19.1613 20.0137 19.2635C20.0609 19.2985 20.0578 19.3718 20.0066 19.4017C19.3589 19.7804 18.6855 20.1002 17.9774 20.3674C17.9313 20.3849 17.9108 20.4386 17.9333 20.4829C18.3238 21.2392 18.7696 21.9593 19.2605 22.6423C19.281 22.6712 19.3179 22.6836 19.3517 22.6732C21.4761 22.0161 23.6303 21.0246 25.8542 19.3914C25.8737 19.377 25.886 19.3553 25.8881 19.3316C26.4302 13.7232 24.98 8.85156 22.0439 4.53286C22.0367 4.51843 22.0245 4.5081 22.0101 4.50191ZM8.68836 16.3768C7.40729 16.3768 6.35173 15.2007 6.35173 13.7563C6.35173 12.3119 7.38682 11.1358 8.68836 11.1358C10.0001 11.1358 11.0455 12.3222 11.025 13.7563C11.025 15.2007 9.98986 16.3768 8.68836 16.3768ZM17.3276 16.3768C16.0466 16.3768 14.991 15.2007 14.991 13.7563C14.991 12.3119 16.0261 11.1358 17.3276 11.1358C18.6394 11.1358 19.6847 12.3222 19.6643 13.7563C19.6643 15.2007 18.6394 16.3768 17.3276 16.3768Z" fill="#5865F2"/>
</svg>
