<svg width="16" height="16" viewBox="0 0 16 16" fill="none" xmlns="http://www.w3.org/2000/svg">
<path fill-rule="evenodd" clip-rule="evenodd" d="M8 2.5C4.96243 2.5 2.5 4.96243 2.5 8C2.5 11.0376 4.96243 13.5 8 13.5C11.0376 13.5 13.5 11.0376 13.5 8C13.5 4.96243 11.0376 2.5 8 2.5ZM9.85355 6.14645C10.0488 6.34171 10.0488 6.65829 9.85355 6.85355L8.70711 8L9.85355 9.14645C10.0488 9.34171 10.0488 9.65829 9.85355 9.85355C9.65829 10.0488 9.34171 10.0488 9.14645 9.85355L8 8.70711L6.85355 9.85355C6.65829 10.0488 6.34171 10.0488 6.14645 9.85355C5.95118 9.65829 5.95118 9.34171 6.14645 9.14645L7.29289 8L6.14645 6.85355C5.95118 6.65829 5.95118 6.34171 6.14645 6.14645C6.34171 5.95118 6.65829 5.95118 6.85355 6.14645L8 7.29289L9.14645 6.14645C9.34171 5.95118 9.65829 5.95118 9.85355 6.14645Z" fill="#98A2B3"/>
</svg>
