<svg width="20" height="21" viewBox="0 0 20 21" fill="none" xmlns="http://www.w3.org/2000/svg">
<path d="M5.49939 19.1498H13.6897C15.3354 19.1498 16.1891 18.2807 16.1891 16.6273V9.6521C16.1891 8.58313 16.0507 8.09095 15.3816 7.41418L11.3441 3.30749C10.6981 2.65381 10.1675 2.5 9.20618 2.5H5.49939C3.85363 2.5 3 3.36902 3 5.02246V16.6273C3 18.2884 3.85363 19.1498 5.49939 19.1498ZM5.62243 17.6424C4.87645 17.6424 4.50732 17.2502 4.50732 16.5351V5.11475C4.50732 4.40722 4.87645 4.00732 5.62243 4.00732H8.89856V8.22168C8.89856 9.32142 9.44457 9.85205 10.5366 9.85205H14.6818V16.5351C14.6818 17.2502 14.3049 17.6424 13.5589 17.6424H5.62243ZM10.675 8.52929C10.3597 8.52929 10.229 8.39087 10.229 8.07556V4.21496L14.4741 8.52929H10.675ZM12.3362 11.8746H6.70678C6.41454 11.8746 6.2069 12.09 6.2069 12.3591C6.2069 12.636 6.41454 12.8513 6.70678 12.8513H12.3362C12.613 12.8513 12.8207 12.636 12.8207 12.3591C12.8207 12.09 12.613 11.8746 12.3362 11.8746ZM12.3362 14.4587H6.70678C6.41454 14.4587 6.2069 14.674 6.2069 14.9509C6.2069 15.22 6.41454 15.4276 6.70678 15.4276H12.3362C12.613 15.4276 12.8207 15.22 12.8207 14.9509C12.8207 14.674 12.613 14.4587 12.3362 14.4587Z" fill="#37352F" fill-opacity="0.45"/>
</svg>
