<svg width="16" height="16" viewBox="0 0 16 16" fill="none" xmlns="http://www.w3.org/2000/svg">
<g id="file-search-02">
<g id="Solid">
<path fill-rule="evenodd" clip-rule="evenodd" d="M10.1609 0.666748H5.83913C5.3025 0.66674 4.85958 0.666734 4.49878 0.696212C4.12405 0.726828 3.77958 0.792538 3.45603 0.957399C2.95426 1.21306 2.54631 1.62101 2.29065 2.12277C2.12579 2.44633 2.06008 2.7908 2.02946 3.16553C1.99999 3.52632 1.99999 3.96924 2 4.50587V11.4943C1.99999 12.0309 1.99999 12.4738 2.02946 12.8346C2.06008 13.2094 2.12579 13.5538 2.29065 13.8774C2.54631 14.3792 2.95426 14.7871 3.45603 15.0428C3.77958 15.2076 4.12405 15.2733 4.49878 15.304C4.85958 15.3334 5.30248 15.3334 5.83912 15.3334H7.75554C8.22798 15.3334 8.4642 15.3334 8.55219 15.2689C8.64172 15.2033 8.67645 15.1421 8.68693 15.0316C8.69724 14.9229 8.55693 14.6879 8.27632 14.2177C7.88913 13.5689 7.66667 12.8105 7.66667 12.0001C7.66667 9.60685 9.60677 7.66675 12 7.66675C12.4106 7.66675 12.8078 7.72385 13.1842 7.83055C13.5061 7.92177 13.667 7.96739 13.7581 7.94138C13.847 7.91602 13.9015 7.87486 13.9501 7.79623C14 7.71563 14 7.56892 14 7.27549V4.50587C14 3.96923 14 3.52633 13.9705 3.16553C13.9399 2.7908 13.8742 2.44633 13.7093 2.12277C13.4537 1.62101 13.0457 1.21306 12.544 0.957399C12.2204 0.792538 11.8759 0.726828 11.5012 0.696212C11.1404 0.666734 10.6975 0.66674 10.1609 0.666748ZM4.66667 3.33342C4.29848 3.33342 4 3.63189 4 4.00008C4 4.36827 4.29848 4.66675 4.66667 4.66675H10.6667C11.0349 4.66675 11.3333 4.36827 11.3333 4.00008C11.3333 3.63189 11.0349 3.33342 10.6667 3.33342H4.66667ZM4 6.66675C4 6.29856 4.29848 6.00008 4.66667 6.00008H8.66667C9.03486 6.00008 9.33333 6.29856 9.33333 6.66675C9.33333 7.03494 9.03486 7.33342 8.66667 7.33342H4.66667C4.29848 7.33342 4 7.03494 4 6.66675ZM4 9.33342C4 8.96523 4.29848 8.66675 4.66667 8.66675H6C6.36819 8.66675 6.66667 8.96523 6.66667 9.33342C6.66667 9.7016 6.36819 10.0001 6 10.0001H4.66667C4.29848 10.0001 4 9.7016 4 9.33342Z" fill="#039855"/>
<path fill-rule="evenodd" clip-rule="evenodd" d="M9 12.0001C9 10.3432 10.3431 9.00008 12 9.00008C13.6569 9.00008 15 10.3432 15 12.0001C15 12.5871 14.8314 13.1348 14.54 13.5972L15.1381 14.1953C15.3984 14.4557 15.3984 14.8778 15.1381 15.1382C14.8777 15.3985 14.4556 15.3985 14.1953 15.1382L13.5972 14.54C13.1347 14.8315 12.587 15.0001 12 15.0001C10.3431 15.0001 9 13.6569 9 12.0001ZM12 10.3334C11.0795 10.3334 10.3333 11.0796 10.3333 12.0001C10.3333 12.9206 11.0795 13.6667 12 13.6667C12.9205 13.6667 13.6667 12.9206 13.6667 12.0001C13.6667 11.0796 12.9205 10.3334 12 10.3334Z" fill="#039855"/>
</g>
</g>
</svg>
