<svg xmlns="http://www.w3.org/2000/svg" width="200" height="200" viewBox="0 0 200 200" fill="none">
<path d="M167.358 102.395C167.358 117.174 157.246 129.18 144.61 131.027H137.861C125.225 129.18 115.113 117.174 115.113 102.395H100.792C100.792 123.637 115.118 142.106 133.653 145.801V164.276H147.139V145.801C165.674 142.106 180 124.558 180 102.4H167.358V102.395ZM154.717 62.677C154.717 53.4397 147.979 46.9765 140.396 46.9765C138.523 46.9446 136.663 47.3273 134.924 48.1024C133.185 48.8775 131.603 50.0294 130.27 51.4909C128.936 52.9524 127.878 54.6943 127.157 56.6148C126.436 58.5354 126.066 60.5962 126.07 62.677V78.3775H154.717V70.4478V62.677ZM126.07 102.395C126.07 111.632 132.813 118.095 140.396 118.095C142.269 118.127 144.13 117.744 145.868 116.969C147.607 116.194 149.189 115.042 150.523 113.581C151.856 112.119 152.914 110.377 153.635 108.457C154.356 106.536 154.726 104.475 154.722 102.395V86.694H126.07V102.395ZM92.1297 45.8938L70.4796 21.7595L69.4235 20.5865L59.604 20L68.3674 20.5865L67.3113 21.7654L64.1429 25.2961L63.6149 25.8826L64.1429 27.0614L66.2552 29.4133L77.8723 42.3631H54.1099C35.1 43.5361 20.3146 61.1896 20.3146 81.7874V83.5527H28.2354V81.7932C28.2354 65.8992 39.8525 52.3628 54.1099 51.1899H77.8723L66.2552 64.1338L64.671 65.8992L64.1429 67.0722L63.6149 67.6645L64.1429 68.251L68.3674 72.9606L68.8954 73.5471L69.4235 72.9606L74.1759 67.6645L92.1297 47.6591L92.6578 47.0727L92.1297 45.8938ZM20 95.8496V118.213H30.033V107.034H50.099V168.821H40.066V180H70.165V168.821H60.132V107.034H80.198V118.213H90.231V95.8496H20Z" fill="#FF0099"/>
</svg>