<svg xmlns="http://www.w3.org/2000/svg" version="1.1" xmlns:xlink="http://www.w3.org/1999/xlink"
    width="512" height="512" x="0" y="0" viewBox="0 0 32 32"
    style="enable-background:new 0 0 512 512" xml:space="preserve"><g><linearGradient id="a" x1="10.37" x2="23.778" y1="30.252" y2="7.029" data-name="New Gradient Swatch 1" gradientUnits="userSpaceOnUse"><stop offset="0" stop-color="#605faa"></stop><stop offset="1" stop-color="#80d2e7"></stop></linearGradient><path fill="url(#a)" d="M19 6a3 3 0 0 1-2 2.82c-.31.12-.65.18-1 .18s-.69-.06-1-.18A3 3 0 0 1 13 6c0-1.65 1.35-3 3-3s3 1.35 3 3zm7 9v11c0 1.65-1.35 3-3 3H9c-1.65 0-3-1.35-3-3V15c0-1.65 1.35-3 3-3h6v-1.1c.32.07.66.1 1 .1s.68-.03 1-.1V12h6c1.65 0 3 1.35 3 3zm-14 4.5c.83 0 1.5-.67 1.5-1.5s-.67-1.5-1.5-1.5-1.5.67-1.5 1.5.67 1.5 1.5 1.5zm7.8 2.9c-.33-.44-.96-.53-1.4-.2-.93.7-1.9.8-2.4.8-1.16 0-2-.5-2.4-.8-.44-.33-1.07-.24-1.4.2s-.24 1.07.2 1.4c.6.45 1.86 1.2 3.6 1.2.75 0 2.21-.16 3.6-1.2.44-.33.53-.96.2-1.4zm1.7-4.4c0-.83-.67-1.5-1.5-1.5s-1.5.67-1.5 1.5.67 1.5 1.5 1.5 1.5-.67 1.5-1.5zM4 16c-1.103 0-2 .897-2 2v5c0 1.103.897 2 2 2zm24 0v9c1.103 0 2-.897 2-2v-5c0-1.103-.897-2-2-2z" opacity="1" data-original="url(#a)"></path></g></svg>