<svg xmlns="http://www.w3.org/2000/svg" version="1.1" xmlns:xlink="http://www.w3.org/1999/xlink"
    width="512" height="512" x="0" y="0" viewBox="0 0 512 512"
    style="enable-background:new 0 0 512 512" xml:space="preserve" class=""><g><linearGradient id="a"><stop offset="0" stop-color="#0039a6"></stop><stop offset="1" stop-color="#318ce7"></stop></linearGradient><linearGradient xlink:href="#a" id="b" x1="380.473" x2="130.789" y1="124.842" y2="124.842" gradientUnits="userSpaceOnUse"></linearGradient><linearGradient xlink:href="#a" id="c" x1="505.954" x2="5.305" y1="403.135" y2="403.135" gradientUnits="userSpaceOnUse"></linearGradient><g fill-rule="evenodd" clip-rule="evenodd"><path fill="url(#b)" d="M380.473 124.842c0 68.948-55.894 124.842-124.842 124.842S130.789 193.79 130.789 124.842C130.789 55.894 186.683 0 255.631 0s124.842 55.894 124.842 124.842z" opacity="1" data-original="url(#b)"></path><path fill="url(#c)" d="M461.258 512c27.614 0 50.62-22.769 43.333-49.405-10.744-39.275-34.185-75.577-68.205-104.553-47.94-40.833-112.96-63.772-180.757-63.772-67.796 0-132.817 22.939-180.756 63.772-34.02 28.976-57.46 65.278-68.205 104.553C-.62 489.231 22.387 512 50 512z" opacity="1" data-original="url(#c)"></path></g></g></svg>