<svg width="400" height="400" viewBox="0 0 400 400" fill="none" xmlns="http://www.w3.org/2000/svg">
<path fill-rule="evenodd" clip-rule="evenodd" d="M101.008 42L190.99 124.905L190.99 124.886L190.99 42.1913H208.506L208.506 125.276L298.891 42V136.524L336 136.524V272.866H299.005V357.035L208.506 277.525L208.506 357.948H190.99L190.99 278.836L101.11 358V272.866H64V136.524H101.008V42ZM177.785 153.826H81.5159V255.564H101.088V223.472L177.785 153.826ZM118.625 231.149V319.392L190.99 255.655L190.99 165.421L118.625 231.149ZM209.01 254.812V165.336L281.396 231.068V272.866H281.489V318.491L209.01 254.812ZM299.005 255.564H318.484V153.826L222.932 153.826L299.005 222.751V255.564ZM281.375 136.524V81.7983L221.977 136.524L281.375 136.524ZM177.921 136.524H118.524V81.7983L177.921 136.524Z" fill="black"/>
</svg>
