<svg width="27" height="27" viewBox="0 0 27 27" fill="none" xmlns="http://www.w3.org/2000/svg">
<path fill-rule="evenodd" clip-rule="evenodd" d="M9.625 0C9.27992 0.000320434 8.93828 0.0686147 8.6196 0.200983C8.30091 0.333351 8.01142 0.527199 7.76766 0.771458C7.5239 1.01572 7.33064 1.3056 7.19893 1.62456C7.06721 1.94351 6.99962 2.28529 7 2.63037C6.99968 2.97541 7.06732 3.31714 7.19907 3.63603C7.33081 3.95493 7.52408 4.24476 7.76783 4.48897C8.01159 4.73317 8.30105 4.92698 8.61971 5.05932C8.93836 5.19165 9.27996 5.25993 9.625 5.26025H12.25V2.63037C12.2504 2.28529 12.1828 1.94351 12.0511 1.62456C11.9194 1.3056 11.7261 1.01572 11.4823 0.771458C11.2386 0.527199 10.9491 0.333351 10.6304 0.200983C10.3117 0.0686147 9.97008 0.000320434 9.625 0ZM9.625 7.01416H2.625C2.27996 7.01448 1.93836 7.08276 1.61971 7.21509C1.30106 7.34743 1.01159 7.54124 0.767835 7.78544C0.524081 8.02965 0.330814 8.31948 0.199069 8.63838C0.0673241 8.95728 -0.000319124 9.299 1.63476e-06 9.64404C-0.000383292 9.98912 0.0672126 10.3309 0.198929 10.6499C0.330645 10.9688 0.523902 11.2587 0.767662 11.503C1.01142 11.7472 1.30091 11.9411 1.6196 12.0734C1.93828 12.2058 2.27992 12.2741 2.625 12.2744H9.625C9.97008 12.2741 10.3117 12.2058 10.6304 12.0734C10.9491 11.9411 11.2386 11.7472 11.4823 11.503C11.7261 11.2587 11.9194 10.9688 12.0511 10.6499C12.1828 10.3309 12.2504 9.98912 12.25 9.64404C12.2503 9.299 12.1827 8.95728 12.0509 8.63838C11.9192 8.31948 11.7259 8.02965 11.4822 7.78544C11.2384 7.54124 10.9489 7.34743 10.6303 7.21509C10.3116 7.08276 9.97004 7.01448 9.625 7.01416Z" fill="#44BEDF"/>
<path fill-rule="evenodd" clip-rule="evenodd" d="M26.25 9.64404C26.2503 9.299 26.1827 8.95728 26.0509 8.63838C25.9192 8.31948 25.7259 8.02965 25.4822 7.78544C25.2384 7.54124 24.9489 7.34743 24.6303 7.21509C24.3116 7.08276 23.97 7.01448 23.625 7.01416C23.28 7.01448 22.9384 7.08276 22.6197 7.21509C22.3011 7.34743 22.0116 7.54124 21.7678 7.78544C21.5241 8.02965 21.3308 8.31948 21.1991 8.63838C21.0673 8.95728 20.9997 9.299 21 9.64404V12.2744H23.625C23.9701 12.2741 24.3117 12.2058 24.6304 12.0734C24.9491 11.9411 25.2386 11.7472 25.4823 11.503C25.7261 11.2587 25.9194 10.9688 26.0511 10.6499C26.1828 10.3309 26.2504 9.98912 26.25 9.64404ZM19.25 9.64404V2.63037C19.2504 2.28529 19.1828 1.94351 19.0511 1.62456C18.9194 1.3056 18.7261 1.01572 18.4823 0.771458C18.2386 0.527199 17.9491 0.333351 17.6304 0.200983C17.3117 0.0686147 16.9701 0.000320434 16.625 0C16.2799 0.000320434 15.9383 0.0686147 15.6196 0.200983C15.3009 0.333351 15.0114 0.527199 14.7677 0.771458C14.5239 1.01572 14.3306 1.3056 14.1989 1.62456C14.0672 1.94351 13.9996 2.28529 14 2.63037V9.64404C13.9996 9.98912 14.0672 10.3309 14.1989 10.6499C14.3306 10.9688 14.5239 11.2587 14.7677 11.503C15.0114 11.7472 15.3009 11.9411 15.6196 12.0734C15.9383 12.2058 16.2799 12.2741 16.625 12.2744C16.9701 12.2741 17.3117 12.2058 17.6304 12.0734C17.9491 11.9411 18.2386 11.7472 18.4823 11.503C18.7261 11.2587 18.9194 10.9688 19.0511 10.6499C19.1828 10.3309 19.2504 9.98912 19.25 9.64404Z" fill="#2EB67D"/>
<path fill-rule="evenodd" clip-rule="evenodd" d="M16.625 26.302C16.9701 26.3017 17.3117 26.2334 17.6304 26.101C17.9491 25.9686 18.2386 25.7748 18.4823 25.5305C18.7261 25.2863 18.9194 24.9964 19.0511 24.6774C19.1828 24.3585 19.2504 24.0167 19.25 23.6716C19.2503 23.3266 19.1827 22.9849 19.0509 22.666C18.9192 22.3471 18.7259 22.0572 18.4822 21.813C18.2384 21.5688 17.9489 21.375 17.6303 21.2427C17.3116 21.1103 16.97 21.0421 16.625 21.0417H14V23.6716C13.9996 24.0167 14.0672 24.3585 14.1989 24.6774C14.3306 24.9964 14.5239 25.2863 14.7677 25.5305C15.0114 25.7748 15.3009 25.9686 15.6196 26.101C15.9383 26.2334 16.2799 26.3017 16.625 26.302ZM16.625 19.2878H23.625C23.97 19.2875 24.3116 19.2192 24.6303 19.0869C24.9489 18.9546 25.2384 18.7608 25.4822 18.5166C25.7259 18.2723 25.9192 17.9825 26.0509 17.6636C26.1827 17.3447 26.2503 17.003 26.25 16.658C26.2504 16.3129 26.1828 15.9711 26.0511 15.6521C25.9194 15.3332 25.7261 15.0433 25.4823 14.799C25.2386 14.5548 24.9491 14.3609 24.6304 14.2286C24.3117 14.0962 23.9701 14.0279 23.625 14.0276H16.625C16.2799 14.0279 15.9383 14.0962 15.6196 14.2286C15.3009 14.3609 15.0114 14.5548 14.7677 14.799C14.5239 15.0433 14.3306 15.3332 14.1989 15.6521C14.0672 15.9711 13.9996 16.3129 14 16.658C13.9997 17.003 14.0673 17.3447 14.1991 17.6636C14.3308 17.9825 14.5241 18.2723 14.7678 18.5166C15.0116 18.7608 15.3011 18.9546 15.6197 19.0869C15.9384 19.2192 16.28 19.2875 16.625 19.2878Z" fill="#ECB22E"/>
<path fill-rule="evenodd" clip-rule="evenodd" d="M2.22485e-06 16.658C-0.000318534 17.003 0.0673247 17.3447 0.19907 17.6636C0.330815 17.9825 0.524081 18.2723 0.767835 18.5166C1.01159 18.7608 1.30106 18.9546 1.61971 19.0869C1.93836 19.2192 2.27996 19.2875 2.625 19.2878C2.97004 19.2875 3.31164 19.2192 3.63029 19.0869C3.94895 18.9546 4.23841 18.7608 4.48217 18.5166C4.72592 18.2723 4.91919 17.9825 5.05093 17.6636C5.18268 17.3447 5.25032 17.003 5.25 16.658V14.0276H2.625C2.27988 14.0279 1.9382 14.0962 1.61948 14.2286C1.30077 14.361 1.01126 14.5549 0.76749 14.7992C0.523723 15.0435 0.330477 15.3335 0.198789 15.6525C0.0671016 15.9715 -0.000446885 16.3128 2.22485e-06 16.658ZM7 16.658V23.6716C6.99962 24.0167 7.06721 24.3585 7.19893 24.6774C7.33064 24.9964 7.5239 25.2863 7.76766 25.5305C8.01142 25.7748 8.30091 25.9686 8.6196 26.101C8.93828 26.2334 9.27992 26.3017 9.625 26.302C9.97008 26.3017 10.3117 26.2334 10.6304 26.101C10.9491 25.9686 11.2386 25.7748 11.4823 25.5305C11.7261 25.2863 11.9194 24.9964 12.0511 24.6774C12.1828 24.3585 12.2504 24.0167 12.25 23.6716V16.6584C12.2504 16.3134 12.1828 15.9716 12.0511 15.6526C11.9194 15.3337 11.7261 15.0438 11.4823 14.7995C11.2386 14.5553 10.9491 14.3614 10.6304 14.2291C10.3117 14.0967 9.97008 14.0284 9.625 14.0281C9.27992 14.0284 8.93828 14.0967 8.6196 14.2291C8.30091 14.3614 8.01142 14.5553 7.76766 14.7995C7.5239 15.0438 7.33064 15.3337 7.19893 15.6526C7.06721 15.9716 6.99962 16.3129 7 16.658Z" fill="#E01E5A"/>
</svg>
