<svg width="16" height="18" viewBox="0 0 16 18" fill="none" xmlns="http://www.w3.org/2000/svg">
<g filter="url(#filter0_d_3434_4797)">
<path d="M2.75 4.38325C2.75 3.40316 2.75 2.91311 2.94074 2.53877C3.10852 2.20948 3.37623 1.94177 3.70552 1.77399C4.07986 1.58325 4.56991 1.58325 5.55 1.58325H9.16667L13.25 5.66659V11.6166C13.25 12.5967 13.25 13.0867 13.0593 13.4611C12.8915 13.7904 12.6238 14.0581 12.2945 14.2258C11.9201 14.4166 11.4301 14.4166 10.45 14.4166H5.55C4.56991 14.4166 4.07986 14.4166 3.70552 14.2258C3.37623 14.0581 3.10852 13.7904 2.94074 13.4611C2.75 13.0867 2.75 12.5967 2.75 11.6166V4.38325Z" fill="#EC5B27"/>
</g>
<g opacity="0.96">
<path d="M5.49319 11.5001V9.00806H4.88069V9.96706H4.22969V9.00806H3.61719V11.5001H4.22969V10.5131H4.88069V11.5001H5.49319Z" fill="white"/>
<path d="M7.68659 9.55406V9.00806H5.84909V9.55406H6.46159V11.5001H7.07409V9.55406H7.68659Z" fill="white"/>
<path d="M10.3675 11.5001V9.00806H9.76546L9.20546 10.1071L8.64546 9.00806H8.04346V11.5001H8.65596V10.3066L9.00946 10.9226H9.40146L9.75496 10.3066V11.5001H10.3675Z" fill="white"/>
<path d="M12.5291 11.5001V10.9541H11.4826V9.00806H10.8701V11.5001H12.5291Z" fill="white"/>
</g>
<path opacity="0.5" d="M9.1665 1.58325L13.2498 5.66658H10.3332C9.68884 5.66658 9.1665 5.14425 9.1665 4.49992V1.58325Z" fill="white"/>
<defs>
<filter id="filter0_d_3434_4797" x="0.75" y="0.583252" width="14.5" height="16.8333" filterUnits="userSpaceOnUse" color-interpolation-filters="sRGB">
<feFlood flood-opacity="0" result="BackgroundImageFix"/>
<feColorMatrix in="SourceAlpha" type="matrix" values="0 0 0 0 0 0 0 0 0 0 0 0 0 0 0 0 0 0 127 0" result="hardAlpha"/>
<feOffset dy="1"/>
<feGaussianBlur stdDeviation="1"/>
<feColorMatrix type="matrix" values="0 0 0 0 0.0627451 0 0 0 0 0.0941176 0 0 0 0 0.156863 0 0 0 0.05 0"/>
<feBlend mode="normal" in2="BackgroundImageFix" result="effect1_dropShadow_3434_4797"/>
<feBlend mode="normal" in="SourceGraphic" in2="effect1_dropShadow_3434_4797" result="shape"/>
</filter>
</defs>
</svg>
