<svg width="16" height="18" viewBox="0 0 16 18" fill="none" xmlns="http://www.w3.org/2000/svg">
<g filter="url(#filter0_d_3434_9549)">
<path d="M2.75 4.38325C2.75 3.40316 2.75 2.91311 2.94074 2.53877C3.10852 2.20948 3.37623 1.94177 3.70552 1.77399C4.07986 1.58325 4.56991 1.58325 5.55 1.58325H9.16667L13.25 5.66659V11.6166C13.25 12.5967 13.25 13.0867 13.0593 13.4611C12.8915 13.7904 12.6238 14.0581 12.2945 14.2258C11.9201 14.4166 11.4301 14.4166 10.45 14.4166H5.55C4.56991 14.4166 4.07986 14.4166 3.70552 14.2258C3.37623 14.0581 3.10852 13.7904 2.94074 13.4611C2.75 13.0867 2.75 12.5967 2.75 11.6166V4.38325Z" fill="#DD3633"/>
</g>
<g opacity="0.96">
<path d="M6.81016 9.80956C6.81016 9.40006 6.51266 9.00806 5.95966 9.00806H4.97266V11.5001H5.58516V10.6111H5.95966C6.51266 10.6111 6.81016 10.2191 6.81016 9.80956ZM6.19766 9.80956C6.19766 9.93906 6.09966 10.0616 5.93166 10.0616H5.58516V9.55756H5.93166C6.09966 9.55756 6.19766 9.68006 6.19766 9.80956Z" fill="white"/>
<path d="M9.02199 10.2541C9.02199 9.86206 9.05349 9.54356 8.76299 9.25306C8.59149 9.08156 8.34999 9.00806 8.09099 9.00806H7.16699V11.5001H8.09099C8.34999 11.5001 8.59149 11.4266 8.76299 11.2551C9.05349 10.9646 9.02199 10.6461 9.02199 10.2541ZM8.40949 10.2541C8.40949 10.6776 8.39199 10.7441 8.34299 10.8141C8.28699 10.8981 8.20299 10.9541 8.04899 10.9541H7.77949V9.55406H8.04899C8.20299 9.55406 8.28699 9.61006 8.34299 9.69406C8.39199 9.76406 8.40949 9.83406 8.40949 10.2541Z" fill="white"/>
<path d="M11.1408 9.55406V9.00806H9.44678V11.5001H10.0593V10.5376H10.9833V9.99156H10.0593V9.55406H11.1408Z" fill="white"/>
</g>
<path opacity="0.5" d="M9.1665 1.58325L13.2498 5.66658H10.3332C9.68884 5.66658 9.1665 5.14425 9.1665 4.49992V1.58325Z" fill="white"/>
<defs>
<filter id="filter0_d_3434_9549" x="0.75" y="0.583252" width="14.5" height="16.8333" filterUnits="userSpaceOnUse" color-interpolation-filters="sRGB">
<feFlood flood-opacity="0" result="BackgroundImageFix"/>
<feColorMatrix in="SourceAlpha" type="matrix" values="0 0 0 0 0 0 0 0 0 0 0 0 0 0 0 0 0 0 127 0" result="hardAlpha"/>
<feOffset dy="1"/>
<feGaussianBlur stdDeviation="1"/>
<feColorMatrix type="matrix" values="0 0 0 0 0.0627451 0 0 0 0 0.0941176 0 0 0 0 0.156863 0 0 0 0.05 0"/>
<feBlend mode="normal" in2="BackgroundImageFix" result="effect1_dropShadow_3434_9549"/>
<feBlend mode="normal" in="SourceGraphic" in2="effect1_dropShadow_3434_9549" result="shape"/>
</filter>
</defs>
</svg>
