<svg width="24" height="24" viewBox="0 0 24 24" fill="none" xmlns="http://www.w3.org/2000/svg">
<path d="M4 5C3.44772 5 3 5.44772 3 6C3 6.55228 3.44772 7 4 7H20C20.5523 7 21 6.55228 21 6C21 5.44772 20.5523 5 20 5H4Z" fill="black"/>
<path d="M17.9191 9.60608C17.7616 9.2384 17.4 9 17 9C16.6 9 16.2384 9.2384 16.0809 9.60608L14.7384 12.7384L11.6061 14.0809C11.2384 14.2384 11 14.6 11 15C11 15.4 11.2384 15.7616 11.6061 15.9191L14.7384 17.2616L16.0809 20.3939C16.2384 20.7616 16.6 21 17 21C17.4 21 17.7616 20.7616 17.9191 20.3939L19.2616 17.2616L22.3939 15.9191C22.7616 15.7616 23 15.4 23 15C23 14.6 22.7616 14.2384 22.3939 14.0809L19.2616 12.7384L17.9191 9.60608Z" fill="black"/>
<path d="M4 11C3.44772 11 3 11.4477 3 12C3 12.5523 3.44772 13 4 13H9C9.55228 13 10 12.5523 10 12C10 11.4477 9.55228 11 9 11H4Z" fill="black"/>
<path d="M4 17C3.44772 17 3 17.4477 3 18C3 18.5523 3.44772 19 4 19H7C7.55228 19 8 18.5523 8 18C8 17.4477 7.55228 17 7 17H4Z" fill="black"/>
</svg>
