<svg width="16" height="16" viewBox="0 0 16 16" fill="none" xmlns="http://www.w3.org/2000/svg">
<g id="variable assigner">
<g id="Vector">
<path fill-rule="evenodd" clip-rule="evenodd" d="M1.71438 4.42875C1.71438 3.22516 2.68954 2.25 3.89313 2.25C4.30734 2.25 4.64313 2.58579 4.64313 3C4.64313 3.41421 4.30734 3.75 3.89313 3.75C3.51796 3.75 3.21438 4.05359 3.21438 4.42875V7.28563C3.21438 7.48454 3.13536 7.6753 2.9947 7.81596L2.81066 8L2.9947 8.18404C3.13536 8.3247 3.21438 8.51546 3.21438 8.71437V11.5713C3.21438 11.9464 3.51796 12.25 3.89313 12.25C4.30734 12.25 4.64313 12.5858 4.64313 13C4.64313 13.4142 4.30734 13.75 3.89313 13.75C2.68954 13.75 1.71438 12.7748 1.71438 11.5713V9.02503L1.21967 8.53033C1.07902 8.38968 1 8.19891 1 8C1 7.80109 1.07902 7.61032 1.21967 7.46967L1.71438 6.97497V4.42875ZM11.3568 3C11.3568 2.58579 11.6925 2.25 12.1068 2.25C13.3103 2.25 14.2855 3.22516 14.2855 4.42875V6.97497L14.7802 7.46967C14.9209 7.61032 14.9999 7.80109 14.9999 8C14.9999 8.19891 14.9209 8.38968 14.7802 8.53033L14.2855 9.02503V11.5713C14.2855 12.7751 13.3095 13.75 12.1068 13.75C11.6925 13.75 11.3568 13.4142 11.3568 13C11.3568 12.5858 11.6925 12.25 12.1068 12.25C12.4815 12.25 12.7855 11.9462 12.7855 11.5713V8.71437C12.7855 8.51546 12.8645 8.3247 13.0052 8.18404L13.1892 8L13.0052 7.81596C12.8645 7.6753 12.7855 7.48454 12.7855 7.28563V4.42875C12.7855 4.05359 12.4819 3.75 12.1068 3.75C11.6925 3.75 11.3568 3.41421 11.3568 3Z" fill="white"/>
<path fill-rule="evenodd" clip-rule="evenodd" d="M5.25 6C5.25 5.58579 5.58579 5.25 6 5.25H10C10.4142 5.25 10.75 5.58579 10.75 6C10.75 6.41421 10.4142 6.75 10 6.75H6C5.58579 6.75 5.25 6.41421 5.25 6Z" fill="white"/>
<path fill-rule="evenodd" clip-rule="evenodd" d="M5.25 10C5.25 9.58579 5.58579 9.25 6 9.25H10C10.4142 9.25 10.75 9.58579 10.75 10C10.75 10.4142 10.4142 10.75 10 10.75H6C5.58579 10.75 5.25 10.4142 5.25 10Z" fill="white"/>
</g>
</g>
</svg>
