<svg width="14" height="14" viewBox="0 0 14 14" fill="none" xmlns="http://www.w3.org/2000/svg">
<g id="icons/end">
<path id="Vector (Stroke)" fill-rule="evenodd" clip-rule="evenodd" d="M6.67315 1.18094C6.87691 1.0639 7.12769 1.06475 7.33067 1.18315L10.8307 3.22481C11.0323 3.34242 11.1562 3.55826 11.1562 3.79167C11.1562 4.02507 11.0323 4.24091 10.8307 4.35852L7.65625 6.21026V9.91667C7.65625 10.2791 7.36244 10.5729 7 10.5729C6.63756 10.5729 6.34375 10.2791 6.34375 9.91667V5.84577C6.34361 5.83788 6.34361 5.83 6.34375 5.82213V1.75C6.34375 1.51502 6.46939 1.29797 6.67315 1.18094ZM7.65625 4.69078L9.19758 3.79167L7.65625 2.89256V4.69078ZM5.31099 8.25466C5.37977 8.61051 5.14704 8.95473 4.79119 9.0235C3.97285 9.18165 3.32667 9.41764 2.90374 9.67762C2.45323 9.95454 2.40625 10.1564 2.40625 10.2086C2.40625 10.2448 2.42254 10.3508 2.60674 10.5202C2.79151 10.6901 3.09509 10.8732 3.52555 11.0406C4.38229 11.3738 5.61047 11.594 7 11.594C8.38954 11.594 9.61773 11.3738 10.4745 11.0406C10.9049 10.8732 11.2085 10.6901 11.3933 10.5202C11.5775 10.3508 11.5938 10.2448 11.5938 10.2086C11.5938 10.1564 11.5468 9.95454 11.0963 9.67762C10.6733 9.41764 10.0271 9.18165 9.20881 9.0235C8.85296 8.95473 8.62023 8.61051 8.68901 8.25465C8.75778 7.8988 9.102 7.66608 9.45786 7.73485C10.3682 7.91077 11.1803 8.18867 11.7836 8.55947C12.3592 8.91331 12.9062 9.45912 12.9062 10.2086C12.9062 10.7361 12.6287 11.1672 12.2816 11.4864C11.935 11.805 11.4698 12.0618 10.9502 12.2639C9.90679 12.6696 8.50997 12.9065 7 12.9065C5.49004 12.9065 4.09322 12.6696 3.04983 12.2639C2.53023 12.0618 2.06497 11.805 1.7184 11.4864C1.37128 11.1672 1.09375 10.7361 1.09375 10.2086C1.09375 9.45913 1.64077 8.91332 2.21642 8.55947C2.81966 8.18867 3.63181 7.91077 4.54215 7.73485C4.898 7.66608 5.24222 7.8988 5.31099 8.25466Z" fill="white"/>
</g>
</svg>
