<svg width="14" height="14" viewBox="0 0 14 14" fill="none" xmlns="http://www.w3.org/2000/svg">
<g id="Knowledge Base">
<path id="Vector" d="M5.25016 3.49999C4.928 3.49999 4.66683 3.76116 4.66683 4.08332C4.66683 4.40549 4.928 4.66666 5.25016 4.66666V3.49999ZM8.75016 4.66666C9.07234 4.66666 9.3335 4.40549 9.3335 4.08332C9.3335 3.76116 9.07234 3.49999 8.75016 3.49999V4.66666ZM5.25016 5.83332C4.928 5.83332 4.66683 6.09448 4.66683 6.41666C4.66683 6.73883 4.928 6.99999 5.25016 6.99999V5.83332ZM7.00016 6.99999C7.32234 6.99999 7.5835 6.73883 7.5835 6.41666C7.5835 6.09448 7.32234 5.83332 7.00016 5.83332V6.99999ZM4.0835 2.33332H9.91683V1.16666H4.0835V2.33332ZM10.5002 2.91666V11.0833H11.6668V2.91666H10.5002ZM9.91683 11.6667H4.0835V12.8333H9.91683V11.6667ZM3.50016 11.0833V2.91666H2.3335V11.0833H3.50016ZM4.0835 11.6667C3.76133 11.6667 3.50016 11.4055 3.50016 11.0833H2.3335C2.3335 12.0498 3.117 12.8333 4.0835 12.8333V11.6667ZM10.5002 11.0833C10.5002 11.4055 10.239 11.6667 9.91683 11.6667V12.8333C10.8834 12.8333 11.6668 12.0498 11.6668 11.0833H10.5002ZM9.91683 2.33332C10.239 2.33332 10.5002 2.59449 10.5002 2.91666H11.6668C11.6668 1.95016 10.8834 1.16666 9.91683 1.16666V2.33332ZM4.0835 1.16666C3.117 1.16666 2.3335 1.95016 2.3335 2.91666H3.50016C3.50016 2.59449 3.76133 2.33332 4.0835 2.33332V1.16666ZM10.5002 6.99999V8.74999H11.6668V6.99999H10.5002ZM9.91683 9.33332H4.0835V10.5H9.91683V9.33332ZM4.0835 12.8333H5.8335V11.6667H4.0835V12.8333ZM4.0835 9.33332C3.117 9.33332 2.3335 10.1168 2.3335 11.0833H3.50016C3.50016 10.7611 3.76133 10.5 4.0835 10.5V9.33332ZM10.5002 8.74999C10.5002 9.07216 10.239 9.33332 9.91683 9.33332V10.5C10.8834 10.5 11.6668 9.71651 11.6668 8.74999H10.5002ZM5.25016 4.66666H8.75016V3.49999H5.25016V4.66666ZM5.25016 6.99999H7.00016V5.83332H5.25016V6.99999Z" fill="white"/>
</g>
</svg>
