<svg width="12" height="14" viewBox="0 0 12 14" fill="none" xmlns="http://www.w3.org/2000/svg">
<path d="M2 9.49479C0.782372 8.51826 0 7.01768 0 5.33333C0 2.38782 2.38782 0 5.33333 0C8.20841 0 10.5503 2.27504 10.6608 5.12305L11.888 6.96354C12.0843 7.25794 12.0161 7.65424 11.7331 7.86654L10.6667 8.66602V10C10.6667 10.7364 10.0697 11.3333 9.33333 11.3333H8V13.3333H6.66667V10.6667C6.66667 10.2985 6.96514 10 7.33333 10H9.33333V8.33333C9.33333 8.12349 9.43239 7.92603 9.60026 7.80013L10.4284 7.17838L9.44531 5.70312C9.3723 5.59361 9.33333 5.46495 9.33333 5.33333C9.33333 3.1242 7.54248 1.33333 5.33333 1.33333C3.1242 1.33333 1.33333 3.1242 1.33333 5.33333C1.33333 6.69202 2.0103 7.89261 3.04818 8.61654C3.2269 8.74119 3.33329 8.94552 3.33333 9.16341V13.3333H2V9.49479Z" fill="#354052"/>
<path d="M6.04367 4.24012L5.6504 3.21778C5.59993 3.08657 5.47393 3 5.33333 3C5.19273 3 5.06673 3.08657 5.01627 3.21778L4.62303 4.24012C4.55531 4.41618 4.41618 4.55531 4.24012 4.62303L3.21778 5.01624C3.08657 5.0667 3 5.19276 3 5.33333C3 5.47393 3.08657 5.59993 3.21778 5.6504L4.24012 6.04367C4.41618 6.11133 4.55531 6.25047 4.62303 6.42653L5.01627 7.44887C5.06673 7.58007 5.19273 7.66667 5.33333 7.66667C5.47393 7.66667 5.59993 7.58007 5.6504 7.44887L6.04367 6.42653C6.11133 6.25047 6.25047 6.11133 6.42653 6.04367L7.44887 5.6504C7.58007 5.59993 7.66667 5.47393 7.66667 5.33333C7.66667 5.19276 7.58007 5.0667 7.44887 5.01624L6.42653 4.62303C6.25047 4.55531 6.11133 4.41618 6.04367 4.24012Z" fill="#354052"/>
</svg>
