<svg xmlns="http://www.w3.org/2000/svg" xmlns:xlink="http://www.w3.org/1999/xlink" width="80" height="80" viewBox="0 0 80 80">
  <defs>
    <clipPath id="clip-画板_16">
      <rect width="80" height="80"/>
    </clipPath>
  </defs>
  <g id="画板_16" data-name="画板 – 16" clip-path="url(#clip-画板_16)">
    <g id="组_27" data-name="组 27">
      <circle id="椭圆_13" data-name="椭圆 13" cx="40" cy="40" r="40" fill="#3e96f3"/>
      <g id="组_26" data-name="组 26" transform="translate(16.361 16.674)">
        <path id="路径_63230" data-name="路径 63230" d="M92.52,179.361c5.974,0,8.592-2.307,8.592-8.2,0-6.428.067-32.5.067-32.5h-.738a5.221,5.221,0,0,0-4.005,1.344H86.076A5.3,5.3,0,0,0,82,138.6h-.582v32.855c0,5.487,2.461,7.906,8.413,7.906Zm-5.348-33.93h8.189c-.022,4.457-.022,8.04-.022,10.952H87.15C87.15,153.471,87.173,149.888,87.173,145.431Zm-.067,25.823c0-2.016,0-3.315.022-9.451h8.189c-.022,6.316-.022,7.547-.022,9.429,0,1.792-1.052,2.71-2.842,2.71H89.7A2.447,2.447,0,0,1,87.106,171.253Z" transform="translate(-81.4 -137.973)" fill="#fff"/>
        <path id="路径_63231" data-name="路径 63231" d="M172.508,168.341h12.373v6.495c0,2.508-.873,3.27-3.468,3.27H178.84v4.972h4.027c5.437,0,7.988-2.419,7.988-7.637V143.549c0-5.33-2.17-7.749-8.323-7.749h-7.719c-6.22,0-8.323,2.441-8.323,7.7v27.413c0,3.942-1.611,6.293-4.99,7.525v4.614c7.652-.851,10.986-4.838,10.986-12.027C172.508,170.178,172.508,169.26,172.508,168.341Zm0-24.255c0-2.038.85-2.844,3.132-2.844h6.332c1.991,0,2.909.9,2.909,2.934v4.994H172.508Zm0,10.5h12.373v8.331H172.508Z" transform="translate(-143.578 -135.8)" fill="#fff"/>
      </g>
    </g>
  </g>
</svg>
