<?xml version="1.0" encoding="utf-8"?>
<!-- Generator: Adobe Illustrator 16.0.0, SVG Export Plug-In . SVG Version: 6.00 Build 0)  -->
<!DOCTYPE svg PUBLIC "-//W3C//DTD SVG 1.1//EN" "http://www.w3.org/Graphics/SVG/1.1/DTD/svg11.dtd">
<svg version="1.1" xmlns="http://www.w3.org/2000/svg" xmlns:xlink="http://www.w3.org/1999/xlink" x="0px" y="0px" width="500px"
	 height="500px" viewBox="0 0 500 500" enable-background="new 0 0 500 500" xml:space="preserve">
<g id="Layer_2">
	<circle fill="#13C4AC" cx="248.71" cy="250.291" r="244.29"/>
</g>
<g id="Layer_1">
	<path fill="#FFFFFF" d="M319.934,127.893h-25.959l-0.976,148.161c0,52.775-16.009,65.808-28.388,74.977
		c6.764-16.644,7.534-23.27,7.43-61.726l0.979-161.412h-19.982c-52.395,0-82.29,19.417-82.29,70.27
		c0,45.306,33.594,66.264,74.584,64.414l0.009,29.124c0.051,44.62-2.011,59.33-26.874,63.522c-8.509,1.436-22.499-2.773-32.053-7.09
		l1.181,26.543c7.089,3.082,21.265,6.781,37.292,6.781c56.708,0,94.067-30.203,94.067-108.486L319.934,127.893z"/>
</g>
</svg>
