<svg width="567" height="376" viewBox="0 0 567 376" fill="none" xmlns="http://www.w3.org/2000/svg">
<path d="M58.0366 161.868C58.0366 161.868 109.261 86.2912 211.538 78.4724V51.053C98.2528 60.1511 0.152344 156.098 0.152344 156.098C0.152344 156.098 55.7148 316.717 211.538 331.426V302.282C97.1876 287.896 58.0366 161.868 58.0366 161.868ZM211.538 244.32V271.013C125.114 255.603 101.125 165.768 101.125 165.768C101.125 165.768 142.621 119.799 211.538 112.345V141.633C211.486 141.633 211.449 141.617 211.406 141.617C175.235 137.276 146.978 171.067 146.978 171.067C146.978 171.067 162.816 227.949 211.538 244.32ZM211.538 0.47998V51.053C214.864 50.7981 218.189 50.5818 221.533 50.468C350.326 46.1273 434.243 156.098 434.243 156.098C434.243 156.098 337.861 273.296 237.448 273.296C228.245 273.296 219.63 272.443 211.538 271.009V302.282C218.695 303.201 225.903 303.667 233.119 303.675C326.56 303.675 394.134 255.954 459.566 199.474C470.415 208.162 514.828 229.299 523.958 238.55C461.745 290.639 316.752 332.626 234.551 332.626C226.627 332.626 219.018 332.148 211.538 331.426V375.369H566.701V0.47998H211.538ZM211.538 112.345V78.4724C214.829 78.2425 218.146 78.0672 221.533 77.9602C314.148 75.0512 374.909 157.548 374.909 157.548C374.909 157.548 309.281 248.693 238.914 248.693C228.787 248.693 219.707 247.065 211.536 244.318V141.631C247.591 145.987 254.848 161.914 276.524 198.049L324.737 157.398C324.737 157.398 289.544 111.243 230.219 111.243C223.768 111.241 217.597 111.696 211.538 112.345Z" fill="#77B900"/>
</svg>
