<svg xmlns="http://www.w3.org/2000/svg" width="14" height="16" viewBox="0 0 14 16" fill="none">
  <path d="M7.5 2.2912C10.875 2.66428 13.5 5.52559 13.5 9V15.75H0V9C0 5.52559 2.62504 2.66428 6 2.2912V0H7.5V2.2912ZM6.75 12.75C8.82105 12.75 10.5 11.071 10.5 9C10.5 6.92895 8.82105 5.25 6.75 5.25C4.67893 5.25 3 6.92895 3 9C3 11.071 4.67893 12.75 6.75 12.75ZM6.75 11.25C5.50732 11.25 4.5 10.2427 4.5 9C4.5 7.75732 5.50732 6.75 6.75 6.75C7.99268 6.75 9 7.75732 9 9C9 10.2427 7.99268 11.25 6.75 11.25ZM6.75 9.75C7.16422 9.75 7.5 9.41422 7.5 9C7.5 8.58578 7.16422 8.25 6.75 8.25C6.33578 8.25 6 8.58578 6 9C6 9.41422 6.33578 9.75 6.75 9.75Z" fill="currentColor" />
</svg>
