<svg viewBox="0 0 40 40" xmlns="http://www.w3.org/2000/svg">
  <rect x="0" y="0" width="40" height="40" style="fill: #0d0a08;"></rect>
  <g clip-path="url(#clip0_269_13)" transform="matrix(0.429227, 0, 0, 0.429227, 6.326543, 9.593137)" style="background-color: f4f3f2">
    <path d="M6.05159 7.04111H0.5V44.0227H6.05159C13.5 44.0227 16.6023 42.1692 16.6023 34.1718V16.8831C16.6023 8.791 13.503 7.03223 6.05159 7.03223V7.03815V7.04111ZM11.9755 34.1718C11.9755 38.7019 10.5898 39.3948 6.09591 39.3948H5.12091V11.6601H6.09591C10.5839 11.6601 11.9755 12.353 11.9755 16.8831V34.1718Z" fill="white"></path>
    <path d="M18.9834 26.2188V29.9169H25.9207V26.2188H18.9834Z" fill="white"></path>
    <path d="M28.562 13.9783V44.0225H33.1888V13.9783H28.562Z" fill="white"></path>
    <path d="M41.3822 7.04111H35.8306V44.0227H41.3822C48.8306 44.0227 51.9358 42.1692 51.9358 34.1718V16.8831C51.9358 8.791 48.8365 7.03223 41.3822 7.03223V7.03815V7.04111ZM47.306 34.1718C47.306 38.7019 45.9203 39.3948 41.4265 39.3948H40.4515V11.6601H41.4265C45.9144 11.6601 47.306 12.353 47.306 16.8831V34.1718Z" fill="white"></path>
    <path d="M30.8758 11.2278C32.2775 11.2278 33.4138 10.0917 33.4138 8.69032C33.4138 7.2889 32.2775 6.15283 30.8758 6.15283C29.4742 6.15283 28.3379 7.2889 28.3379 8.69032C28.3379 10.0917 29.4742 11.2278 30.8758 11.2278Z" fill="#FF882E"></path>
    <path d="M36.191 4.02677C36.9621 4.02677 37.5885 3.40202 37.5885 2.62923C37.5885 1.85644 36.9621 1.23169 36.191 1.23169C35.4198 1.23169 34.7935 1.85644 34.7935 2.62923C34.7935 3.40202 35.4198 4.02677 36.191 4.02677Z" fill="#FF882E"></path>
    <path d="M42.1978 2.09631C42.7769 2.09631 43.2467 1.62553 43.2467 1.04816C43.2467 0.470782 42.7769 0 42.1978 0C41.6187 0 41.1489 0.470782 41.1489 1.04816C41.1489 1.62553 41.6187 2.09631 42.1978 2.09631Z" fill="#FF882E"></path>
    <path d="M47.8467 3.14734C48.4258 3.14734 48.8956 2.67656 48.8956 2.09918C48.8956 1.52181 48.4258 1.05103 47.8467 1.05103C47.2676 1.05103 46.7979 1.52181 46.7979 2.09918C46.7979 2.67656 47.2676 3.14734 47.8467 3.14734Z" fill="#FF882E"></path>
    <path d="M55.9065 53C54.7276 53 53.729 52.6239 53.0081 52.3515L52.7422 52.2538C51.5367 51.8156 50.3726 51.3774 49.2854 50.951C48.6826 50.7142 48.3842 50.0332 48.6206 49.4291C48.857 48.8251 49.5395 48.529 50.1422 48.7659C51.2117 49.1863 52.3581 49.6157 53.5488 50.048C53.6433 50.0835 53.7408 50.119 53.8383 50.1575C54.6449 50.4625 55.5608 50.8089 56.5654 50.5839C57.4635 50.3825 58.0219 50.0391 58.3144 49.5091C58.5892 49.0117 58.5035 48.6593 58.3144 48.0227C58.1549 47.4897 57.9599 46.8265 58.214 46.107C58.4976 45.3016 59.0738 44.9078 59.4963 44.6206C59.8833 44.3542 59.9631 44.2831 60.0074 44.0581C60.1049 43.5606 59.8272 43.3001 59.7297 43.2261C59.2895 43.0662 58.9763 42.6516 58.9585 42.1661C58.9379 41.5916 59.3338 41.0883 59.8951 40.9728C59.9956 40.9521 60.2999 40.8899 60.5451 40.6412C60.6722 40.5139 60.8908 40.2474 60.9115 39.8891C60.9292 39.5605 60.7549 39.291 60.4683 38.8913C60.1492 38.4501 59.5554 37.627 60.1049 36.7032C60.5392 35.9719 61.4581 35.5899 62.1967 35.282C62.3504 35.2168 62.4892 35.1606 62.5956 35.1103C63.0388 34.8911 63.2338 34.6484 63.1392 33.8696C63.1097 33.6357 63.0004 33.4492 62.9295 33.3485C61.9456 32.0813 61.0297 30.8081 60.1315 29.4579C59.3397 28.2617 58.8079 27.3823 58.601 26.1328C58.3913 24.8804 59.0472 22.5916 59.124 22.334C59.907 19.6692 59.9424 17.641 58.0367 13.321C56.5979 10.064 54.376 7.8345 52.7658 6.53762C52.2606 6.13198 52.1808 5.39176 52.5885 4.88841C52.9963 4.38209 53.7349 4.30215 54.2401 4.71075C56.8401 6.8041 58.8935 9.4541 60.1847 12.3735C62.1435 16.8119 62.4331 19.3938 61.3783 22.9943C61.1006 23.9388 60.8465 25.3008 60.9204 25.7479C61.0415 26.4792 61.3192 26.9915 62.0904 28.161C62.959 29.4668 63.8454 30.6985 64.7997 31.9243C64.8085 31.9362 64.8174 31.9451 64.8233 31.9569C65.0685 32.2944 65.3788 32.8511 65.4704 33.5824C65.7244 35.7084 64.6135 36.7299 63.6385 37.2125C63.4967 37.2835 63.3076 37.3635 63.1008 37.4494C62.9531 37.5115 62.7226 37.6063 62.5129 37.707C62.8645 38.2103 63.3195 38.9742 63.2604 40.0165C63.2131 40.8603 62.8408 41.6716 62.2115 42.2993C62.1613 42.3496 62.1081 42.4 62.052 42.4473C62.3622 43.0721 62.4567 43.7857 62.3179 44.5022C62.0845 45.6954 61.2956 46.2343 60.8258 46.5541C60.6249 46.6903 60.492 46.7851 60.4476 46.8561C60.4565 46.9597 60.5245 47.1818 60.5717 47.3476C60.7845 48.0612 61.139 49.2574 60.3767 50.6372C59.7533 51.7682 58.6454 52.5173 57.0883 52.8667C56.6806 52.9585 56.2876 52.997 55.9124 52.997L55.9065 53Z" fill="#FF882E"></path>
  </g>
</svg>