<?xml version="1.0" encoding="iso-8859-1"?>
<svg version="1.1" id="Layer_1" xmlns="http://www.w3.org/2000/svg" xmlns:xlink="http://www.w3.org/1999/xlink"
	 viewBox="0 0 392.663 392.663" xml:space="preserve">
<path style="fill:#FFFFFF;" d="M261.947,80.42h-47.709c-6.012,0-10.925-4.848-10.925-10.925V21.786H87.79V165.43h174.158V80.42z"/>
<rect x="34.392" y="250.828" style="fill:#56ACE0;" width="282.44" height="119.919"/>
<g>
	<rect x="21.851" y="187.281" style="fill:#FFC10D;" width="307.394" height="41.697"/>
	<polygon style="fill:#FFC10D;" points="246.497,58.634 225.164,37.236 225.164,58.634 	"/>
</g>
<g>
	<path style="fill:#194F82;" d="M234.473,137.438H114.747c-6.012,0-10.925-4.848-10.925-10.925c0-6.012,4.848-10.925,10.925-10.925
		h119.725c6.012,0,10.925,4.848,10.925,10.925C245.398,132.59,240.549,137.438,234.473,137.438z"/>
	<path style="fill:#194F82;" d="M171.119,76.735h-56.501c-6.012,0-10.925-4.848-10.925-10.925c0-6.012,4.848-10.925,10.925-10.925
		h56.501c6.012,0,10.925,4.848,10.925,10.925C182.044,71.887,177.196,76.735,171.119,76.735z"/>
	<path style="fill:#194F82;" d="M72.792,287.289H61.026c-6.012,0-10.925-4.848-10.925-10.925c0-6.012,4.848-10.925,10.925-10.925
		h11.766c6.012,0,10.925,4.848,10.925,10.925C83.653,282.44,78.804,287.289,72.792,287.289z"/>
	<path style="fill:#194F82;" d="M127.095,287.289h-11.766c-6.012,0-10.925-4.848-10.925-10.925c0-6.012,4.848-10.925,10.925-10.925
		h11.766c6.012,0,10.925,4.848,10.925,10.925C138.02,282.44,133.107,287.289,127.095,287.289z"/>
	<path style="fill:#194F82;" d="M181.398,287.289h-11.766c-6.012,0-10.925-4.848-10.925-10.925c0-6.012,4.848-10.925,10.925-10.925
		h11.766c6.012,0,10.925,4.848,10.925,10.925C192.323,282.44,187.475,287.289,181.398,287.289z"/>
	<path style="fill:#194F82;" d="M235.83,287.289h-11.766c-6.012,0-10.925-4.848-10.925-10.925c0-6.012,4.848-10.925,10.925-10.925
		h11.766c6.012,0,10.925,4.848,10.925,10.925C246.691,282.44,241.842,287.289,235.83,287.289z"/>
	<path style="fill:#194F82;" d="M290.133,287.289h-11.766c-6.012,0-10.925-4.848-10.925-10.925c0-6.012,4.848-10.925,10.925-10.925
		h11.766c6.012,0,10.925,4.848,10.925,10.925C301.059,282.44,296.145,287.289,290.133,287.289z"/>
	<path style="fill:#194F82;" d="M72.792,321.616H61.026c-6.012,0-10.925-4.848-10.925-10.925s4.848-10.925,10.925-10.925h11.766
		c6.012,0,10.925,4.848,10.925,10.925C83.653,316.703,78.804,321.616,72.792,321.616z"/>
	<path style="fill:#194F82;" d="M127.095,321.616h-11.766c-6.012,0-10.925-4.848-10.925-10.925s4.848-10.925,10.925-10.925h11.766
		c6.012,0,10.925,4.848,10.925,10.925C138.02,316.703,133.107,321.616,127.095,321.616z"/>
	<path style="fill:#194F82;" d="M181.398,321.616h-11.766c-6.012,0-10.925-4.848-10.925-10.925s4.848-10.925,10.925-10.925h11.766
		c6.012,0,10.925,4.848,10.925,10.925C192.323,316.703,187.475,321.616,181.398,321.616z"/>
	<path style="fill:#194F82;" d="M235.83,321.616h-11.766c-6.012,0-10.925-4.848-10.925-10.925s4.848-10.925,10.925-10.925h11.766
		c6.012,0,10.925,4.848,10.925,10.925C246.691,316.703,241.842,321.616,235.83,321.616z"/>
	<path style="fill:#194F82;" d="M290.133,321.616h-11.766c-6.012,0-10.925-4.848-10.925-10.925s4.848-10.925,10.925-10.925h11.766
		c6.012,0,10.925,4.848,10.925,10.925C301.059,316.703,296.145,321.616,290.133,321.616z"/>
	<path style="fill:#194F82;" d="M72.792,356.008H61.026c-6.012,0-10.925-4.848-10.925-10.925s4.848-10.925,10.925-10.925h11.766
		c6.012,0,10.925,4.848,10.925,10.925C83.653,351.03,78.804,356.008,72.792,356.008z"/>
	<path style="fill:#194F82;" d="M181.398,356.008h-66.069c-6.012,0-10.925-4.848-10.925-10.925s4.848-10.925,10.925-10.925h66.069
		c6.012,0,10.925,4.848,10.925,10.925C192.323,351.03,187.475,356.008,181.398,356.008z"/>
	<path style="fill:#194F82;" d="M235.83,356.008h-11.766c-6.012,0-10.925-4.848-10.925-10.925s4.848-10.925,10.925-10.925h11.766
		c6.012,0,10.925,4.848,10.925,10.925C246.691,351.03,241.842,356.008,235.83,356.008z"/>
	<path style="fill:#194F82;" d="M290.133,356.008h-11.766c-6.012,0-10.925-4.848-10.925-10.925s4.848-10.925,10.925-10.925h11.766
		c6.012,0,10.925,4.848,10.925,10.925C301.059,351.03,296.145,356.008,290.133,356.008z"/>
	<path style="fill:#194F82;" d="M381.737,141.382c-6.012,0-10.925,4.848-10.925,10.925v44.994h-19.717V176.42
		c0-6.012-4.848-10.925-10.925-10.925h-56.436V69.56c0-2.844-1.164-5.624-3.168-7.758L221.867,3.168
		C219.863,1.164,217.083,0,214.109,0H76.865c-6.012,0-10.925,4.848-10.925,10.925v154.57H10.925C4.913,165.495,0,170.343,0,176.42
		v63.547c0,6.012,4.848,10.925,10.925,10.925h1.616v130.844c0,6.012,4.848,10.925,10.925,10.925h304.226
		c6.012,0,10.925-4.848,10.925-10.925V250.828h1.616c6.012,0,10.925-4.848,10.925-10.925v-20.881h30.578
		c6.012,0,10.925-4.848,10.925-10.925v-55.79C392.598,146.295,387.749,141.382,381.737,141.382z M246.497,58.634h-21.398V37.236
		L246.497,58.634z M87.79,21.786h115.523v47.709c0,6.012,4.848,10.925,10.925,10.925h47.709v85.075H87.79V21.786z M316.768,370.747
		H34.392V250.828h282.44v119.919H316.768z M329.244,229.042H21.851v-41.697h307.394V229.042z"/>
</g>
</svg>