<svg width="12" height="12" viewBox="0 0 12 12" fill="none" xmlns="http://www.w3.org/2000/svg">
<path d="M4.2 1.5H2.3C2.01997 1.5 1.87996 1.5 1.773 1.5545C1.67892 1.60243 1.60243 1.67892 1.5545 1.773C1.5 1.87996 1.5 2.01997 1.5 2.3V4.2C1.5 4.48003 1.5 4.62004 1.5545 4.727C1.60243 4.82108 1.67892 4.89757 1.773 4.9455C1.87996 5 2.01997 5 2.3 5H4.2C4.48003 5 4.62004 5 4.727 4.9455C4.82108 4.89757 4.89757 4.82108 4.9455 4.727C5 4.62004 5 4.48003 5 4.2V2.3C5 2.01997 5 1.87996 4.9455 1.773C4.89757 1.67892 4.82108 1.60243 4.727 1.5545C4.62004 1.5 4.48003 1.5 4.2 1.5Z" stroke="#98A2B3" stroke-linecap="round" stroke-linejoin="round"/>
<path d="M9.7 1.5H7.8C7.51997 1.5 7.37996 1.5 7.273 1.5545C7.17892 1.60243 7.10243 1.67892 7.0545 1.773C7 1.87996 7 2.01997 7 2.3V4.2C7 4.48003 7 4.62004 7.0545 4.727C7.10243 4.82108 7.17892 4.89757 7.273 4.9455C7.37996 5 7.51997 5 7.8 5H9.7C9.98003 5 10.12 5 10.227 4.9455C10.3211 4.89757 10.3976 4.82108 10.4455 4.727C10.5 4.62004 10.5 4.48003 10.5 4.2V2.3C10.5 2.01997 10.5 1.87996 10.4455 1.773C10.3976 1.67892 10.3211 1.60243 10.227 1.5545C10.12 1.5 9.98003 1.5 9.7 1.5Z" stroke="#98A2B3" stroke-linecap="round" stroke-linejoin="round"/>
<path d="M9.7 7H7.8C7.51997 7 7.37996 7 7.273 7.0545C7.17892 7.10243 7.10243 7.17892 7.0545 7.273C7 7.37996 7 7.51997 7 7.8V9.7C7 9.98003 7 10.12 7.0545 10.227C7.10243 10.3211 7.17892 10.3976 7.273 10.4455C7.37996 10.5 7.51997 10.5 7.8 10.5H9.7C9.98003 10.5 10.12 10.5 10.227 10.4455C10.3211 10.3976 10.3976 10.3211 10.4455 10.227C10.5 10.12 10.5 9.98003 10.5 9.7V7.8C10.5 7.51997 10.5 7.37996 10.4455 7.273C10.3976 7.17892 10.3211 7.10243 10.227 7.0545C10.12 7 9.98003 7 9.7 7Z" stroke="#98A2B3" stroke-linecap="round" stroke-linejoin="round"/>
<path d="M4.2 7H2.3C2.01997 7 1.87996 7 1.773 7.0545C1.67892 7.10243 1.60243 7.17892 1.5545 7.273C1.5 7.37996 1.5 7.51997 1.5 7.8V9.7C1.5 9.98003 1.5 10.12 1.5545 10.227C1.60243 10.3211 1.67892 10.3976 1.773 10.4455C1.87996 10.5 2.01997 10.5 2.3 10.5H4.2C4.48003 10.5 4.62004 10.5 4.727 10.4455C4.82108 10.3976 4.89757 10.3211 4.9455 10.227C5 10.12 5 9.98003 5 9.7V7.8C5 7.51997 5 7.37996 4.9455 7.273C4.89757 7.17892 4.82108 7.10243 4.727 7.0545C4.62004 7 4.48003 7 4.2 7Z" stroke="#98A2B3" stroke-linecap="round" stroke-linejoin="round"/>
</svg>
