<svg width="20" height="20" viewBox="0 0 20 20" fill="none" xmlns="http://www.w3.org/2000/svg">
<g id="Verified">
<mask id="mask0_6295_120949" style="mask-type:alpha" maskUnits="userSpaceOnUse" x="0" y="0" width="20" height="20">
<g id="Mask">
<path fill-rule="evenodd" clip-rule="evenodd" d="M8.08817 1.62512C9.14394 0.569299 10.8558 0.56929 11.9116 1.62512L12.8128 2.52633C12.9819 2.69533 13.2111 2.79028 13.4501 2.79028H14.5059C15.9991 2.79028 17.2095 4.00074 17.2095 5.4939V6.54972C17.2095 6.78874 17.3045 7.01796 17.4735 7.18697L18.3747 8.08818C19.4305 9.14401 19.4305 10.8559 18.3747 11.9117L17.4735 12.8129C17.3045 12.9819 17.2095 13.2112 17.2095 13.4502V14.5059C17.2095 15.9991 15.9991 17.2095 14.5059 17.2095H13.4501C13.2111 17.2095 12.9819 17.3045 12.8128 17.4735L11.9116 18.3747C10.8558 19.4305 9.14403 19.4305 8.08817 18.3747L7.18696 17.4735C7.01795 17.3045 6.78873 17.2095 6.54972 17.2095H5.49389C4.00072 17.2095 2.79028 15.9991 2.79028 14.5059V13.4502C2.79028 13.2112 2.69533 12.9819 2.52632 12.8129L1.62513 11.9117C0.569295 10.8559 0.569295 9.14401 1.62512 8.08818L2.52632 7.18697C2.69533 7.01797 2.79028 6.78874 2.79028 6.54972V5.4939C2.79028 4.00074 4.00072 2.79028 5.49389 2.79028H6.54972C6.78873 2.79028 7.01795 2.69533 7.18696 2.52633L8.08817 1.62512Z" fill="#B2CAFF"/>
<path fill-rule="evenodd" clip-rule="evenodd" d="M8.08817 1.62512C9.14394 0.569299 10.8558 0.56929 11.9116 1.62512L12.8128 2.52633C12.9819 2.69533 13.2111 2.79028 13.4501 2.79028H14.5059C15.9991 2.79028 17.2095 4.00074 17.2095 5.4939V6.54972C17.2095 6.78874 17.3045 7.01796 17.4735 7.18697L18.3747 8.08818C19.4305 9.14401 19.4305 10.8559 18.3747 11.9117L17.4735 12.8129C17.3045 12.9819 17.2095 13.2112 17.2095 13.4502V14.5059C17.2095 15.9991 15.9991 17.2095 14.5059 17.2095H13.4501C13.2111 17.2095 12.9819 17.3045 12.8128 17.4735L11.9116 18.3747C10.8558 19.4305 9.14403 19.4305 8.08817 18.3747L7.18696 17.4735C7.01795 17.3045 6.78873 17.2095 6.54972 17.2095H5.49389C4.00072 17.2095 2.79028 15.9991 2.79028 14.5059V13.4502C2.79028 13.2112 2.69533 12.9819 2.52632 12.8129L1.62513 11.9117C0.569295 10.8559 0.569295 9.14401 1.62512 8.08818L2.52632 7.18697C2.69533 7.01797 2.79028 6.78874 2.79028 6.54972V5.4939C2.79028 4.00074 4.00072 2.79028 5.49389 2.79028H6.54972C6.78873 2.79028 7.01795 2.69533 7.18696 2.52633L8.08817 1.62512Z" fill="url(#paint0_linear_6295_120949)" fill-opacity="0.9"/>
<path d="M8.27881 1.81577L8.27881 1.81576C9.2293 0.865233 10.7704 0.865217 11.721 1.81577L12.6222 2.71697L12.6222 2.71701C12.8418 2.93652 13.1395 3.05989 13.4501 3.05989H14.5059C15.8502 3.05989 16.9399 4.14963 16.9399 5.4939V6.54972C16.9399 6.86027 17.0633 7.15805 17.2828 7.3776L17.2829 7.37762L18.1841 8.27882L18.3747 8.08818L18.1841 8.27882C19.1346 9.22937 19.1346 10.7705 18.1841 11.7211L17.2829 12.6223C17.0633 12.8418 16.9399 13.1396 16.9399 13.4502V14.5059C16.9399 15.8502 15.8502 16.9399 14.5059 16.9399H13.4501C13.1395 16.9399 12.8418 17.0633 12.6222 17.2828L12.6222 17.2829L11.721 18.1841C10.7704 19.1346 9.22939 19.1346 8.27881 18.1841L7.37761 17.2829L7.37759 17.2828C7.15804 17.0633 6.86027 16.9399 6.54972 16.9399H5.49389C4.14962 16.9399 3.05989 15.8502 3.05989 14.5059V13.4502C3.05989 13.1397 2.93655 12.8418 2.71696 12.6223C2.71696 12.6223 2.71695 12.6223 2.71694 12.6222L1.81577 11.7211C0.865224 10.7705 0.865226 9.22936 1.81576 8.27882L2.71696 7.37762C2.71696 7.37762 2.71696 7.37762 2.71696 7.37762C2.93654 7.15805 3.05989 6.86024 3.05989 6.54972V5.4939C3.05989 4.14964 4.14963 3.05989 5.49389 3.05989H6.54972C6.86024 3.05989 7.15803 2.93653 7.3776 2.71698L7.37761 2.71697L8.27881 1.81577Z" stroke="url(#paint1_linear_6295_120949)" stroke-opacity="0.8" stroke-width="0.539216"/>
</g>
</mask>
<g mask="url(#mask0_6295_120949)">
<g id="badge-bg">
<path fill-rule="evenodd" clip-rule="evenodd" d="M8.08817 1.62512C9.14394 0.569299 10.8558 0.56929 11.9116 1.62512L12.8128 2.52633C12.9819 2.69533 13.2111 2.79028 13.4501 2.79028H14.5059C15.9991 2.79028 17.2095 4.00074 17.2095 5.4939V6.54972C17.2095 6.78874 17.3045 7.01796 17.4735 7.18697L18.3747 8.08818C19.4305 9.14401 19.4305 10.8559 18.3747 11.9117L17.4735 12.8129C17.3045 12.9819 17.2095 13.2112 17.2095 13.4502V14.5059C17.2095 15.9991 15.9991 17.2095 14.5059 17.2095H13.4501C13.2111 17.2095 12.9819 17.3045 12.8128 17.4735L11.9116 18.3747C10.8558 19.4305 9.14403 19.4305 8.08817 18.3747L7.18696 17.4735C7.01795 17.3045 6.78873 17.2095 6.54972 17.2095H5.49389C4.00072 17.2095 2.79028 15.9991 2.79028 14.5059V13.4502C2.79028 13.2112 2.69533 12.9819 2.52632 12.8129L1.62513 11.9117C0.569295 10.8559 0.569295 9.14401 1.62512 8.08818L2.52632 7.18697C2.69533 7.01797 2.79028 6.78874 2.79028 6.54972V5.4939C2.79028 4.00074 4.00072 2.79028 5.49389 2.79028H6.54972C6.78873 2.79028 7.01795 2.69533 7.18696 2.52633L8.08817 1.62512Z" fill="#B2CAFF"/>
<path fill-rule="evenodd" clip-rule="evenodd" d="M8.08817 1.62512C9.14394 0.569299 10.8558 0.56929 11.9116 1.62512L12.8128 2.52633C12.9819 2.69533 13.2111 2.79028 13.4501 2.79028H14.5059C15.9991 2.79028 17.2095 4.00074 17.2095 5.4939V6.54972C17.2095 6.78874 17.3045 7.01796 17.4735 7.18697L18.3747 8.08818C19.4305 9.14401 19.4305 10.8559 18.3747 11.9117L17.4735 12.8129C17.3045 12.9819 17.2095 13.2112 17.2095 13.4502V14.5059C17.2095 15.9991 15.9991 17.2095 14.5059 17.2095H13.4501C13.2111 17.2095 12.9819 17.3045 12.8128 17.4735L11.9116 18.3747C10.8558 19.4305 9.14403 19.4305 8.08817 18.3747L7.18696 17.4735C7.01795 17.3045 6.78873 17.2095 6.54972 17.2095H5.49389C4.00072 17.2095 2.79028 15.9991 2.79028 14.5059V13.4502C2.79028 13.2112 2.69533 12.9819 2.52632 12.8129L1.62513 11.9117C0.569295 10.8559 0.569295 9.14401 1.62512 8.08818L2.52632 7.18697C2.69533 7.01797 2.79028 6.78874 2.79028 6.54972V5.4939C2.79028 4.00074 4.00072 2.79028 5.49389 2.79028H6.54972C6.78873 2.79028 7.01795 2.69533 7.18696 2.52633L8.08817 1.62512Z" fill="url(#paint2_linear_6295_120949)" fill-opacity="0.9"/>
<path d="M8.44172 1.97868L8.44173 1.97867C9.30224 1.11812 10.6975 1.1181 11.5581 1.97868L12.4593 2.87988L12.4593 2.87995C12.7221 3.14262 13.0784 3.29028 13.4501 3.29028H14.5059C15.723 3.29028 16.7095 4.27687 16.7095 5.4939V6.54972C16.7095 6.9214 16.8572 7.27776 17.1199 7.54049L17.1199 7.54053L18.0211 8.44173L18.3747 8.08818L18.0211 8.44174C18.8817 9.3023 18.8817 10.6976 18.0211 11.5582L17.1199 12.4594C16.8572 12.7221 16.7095 13.0785 16.7095 13.4502V14.5059C16.7095 15.723 15.723 16.7095 14.5059 16.7095H13.4501C13.0784 16.7095 12.7221 16.8573 12.4594 17.1198L12.4593 17.1199L11.5581 18.0211C10.6975 18.8817 9.30233 18.8817 8.44172 18.0211L7.54052 17.1199L7.54048 17.1199C7.27775 16.8572 6.92139 16.7095 6.54972 16.7095H5.49389C4.27686 16.7095 3.29028 15.723 3.29028 14.5059V13.4502C3.29028 13.0786 3.14267 12.7221 2.87984 12.4593L1.97868 11.5582C1.11811 10.6976 1.11811 9.3023 1.97867 8.44173L2.87986 7.54054C2.87987 7.54053 2.87987 7.54053 2.87987 7.54053C3.14266 7.27775 3.29028 6.92134 3.29028 6.54972V5.4939C3.29028 4.27688 4.27687 3.29028 5.49389 3.29028H6.54972C6.92135 3.29028 7.27774 3.14265 7.54051 2.87989L7.54052 2.87988L8.44172 1.97868Z" stroke="url(#paint3_linear_6295_120949)" stroke-opacity="0.8"/>
</g>
<g id="check" filter="url(#filter0_d_6295_120949)">
<path fill-rule="evenodd" clip-rule="evenodd" d="M13.4219 6.98125C13.8732 7.28917 13.9829 7.89538 13.667 8.33526L10.04 13.3857C9.87754 13.6119 9.62408 13.7601 9.34287 13.7933C9.06166 13.8266 8.77923 13.7417 8.56605 13.5599L6.49346 11.7922C6.0789 11.4386 6.03689 10.8244 6.39963 10.4203C6.76238 10.0162 7.39252 9.97526 7.80709 10.3288L9.04316 11.3831L12.0328 7.22019C12.3487 6.78031 12.9706 6.67333 13.4219 6.98125Z" fill="url(#paint4_linear_6295_120949)" shape-rendering="crispEdges"/>
</g>
<path id="highlight" opacity="0.5" d="M0 0H15.5556L5.26663 20H0V0Z" fill="url(#paint5_linear_6295_120949)"/>
</g>
</g>
<defs>
<filter id="filter0_d_6295_120949" x="5.65283" y="6.55542" width="8.69458" height="7.99512" filterUnits="userSpaceOnUse" color-interpolation-filters="sRGB">
<feFlood flood-opacity="0" result="BackgroundImageFix"/>
<feColorMatrix in="SourceAlpha" type="matrix" values="0 0 0 0 0 0 0 0 0 0 0 0 0 0 0 0 0 0 127 0" result="hardAlpha"/>
<feOffset dy="0.25"/>
<feGaussianBlur stdDeviation="0.25"/>
<feComposite in2="hardAlpha" operator="out"/>
<feColorMatrix type="matrix" values="0 0 0 0 0 0 0 0 0 0 0 0 0 0 0 0 0 0 0.2 0"/>
<feBlend mode="normal" in2="BackgroundImageFix" result="effect1_dropShadow_6295_120949"/>
<feBlend mode="normal" in="SourceGraphic" in2="effect1_dropShadow_6295_120949" result="shape"/>
</filter>
<linearGradient id="paint0_linear_6295_120949" x1="16.302" y1="19.1666" x2="-0.37184" y2="14.82" gradientUnits="userSpaceOnUse">
<stop stop-color="#155AEF"/>
<stop offset="1" stop-color="#5289FF"/>
</linearGradient>
<linearGradient id="paint1_linear_6295_120949" x1="8.67462" y1="0.833252" x2="18.9651" y2="12.5066" gradientUnits="userSpaceOnUse">
<stop stop-color="white" stop-opacity="0.95"/>
<stop offset="1" stop-color="#155AEF"/>
</linearGradient>
<linearGradient id="paint2_linear_6295_120949" x1="16.302" y1="19.1666" x2="-0.37184" y2="14.82" gradientUnits="userSpaceOnUse">
<stop stop-color="#155AEF"/>
<stop offset="1" stop-color="#5289FF"/>
</linearGradient>
<linearGradient id="paint3_linear_6295_120949" x1="8.67462" y1="0.833252" x2="18.9651" y2="12.5066" gradientUnits="userSpaceOnUse">
<stop stop-color="white" stop-opacity="0.95"/>
<stop offset="1" stop-color="#155AEF"/>
</linearGradient>
<linearGradient id="paint4_linear_6295_120949" x1="10.0001" y1="6.80542" x2="10.0001" y2="13.8004" gradientUnits="userSpaceOnUse">
<stop stop-color="white"/>
<stop offset="1" stop-color="white" stop-opacity="0.9"/>
</linearGradient>
<linearGradient id="paint5_linear_6295_120949" x1="-4.78632" y1="4.375" x2="16.2164" y2="10.4" gradientUnits="userSpaceOnUse">
<stop stop-color="white" stop-opacity="0.12"/>
<stop offset="1" stop-color="white" stop-opacity="0.3"/>
</linearGradient>
</defs>
</svg>
