<svg xmlns="http://www.w3.org/2000/svg" viewBox="0 0 93 28" fill="none"><g clip-path="url(#clip0_879_26997)"><path d="M32.2687 6.20585C34.1782 6.20585 35.5382 7.63437 35.9184 9.52109H28.615C28.9953 7.60742 30.3122 6.20585 32.2687 6.20585ZM32.3373 1.00391C26.2983 1.00391 22.0156 5.4916 22.0156 11.8391V12.5129C22.0156 18.9547 26.4676 23.1728 33.3532 23.1728C34.8824 23.1728 38.5885 23.1728 42.1066 20.4371V15.6934C39.2268 17.8766 37.32 18.1865 34.8353 18.1865C31.2192 18.1865 28.9133 16.758 28.4618 13.4967H42.4425C42.4587 13.1598 42.4587 12.8228 42.4587 12.4994C42.6051 5.14121 37.9597 1.00391 32.3373 1.00391Z" fill="#565656"></path><path d="M50.2102 4.51856C52.2165 2.09278 54.165 1.08203 56.7262 1.08203C59.8573 1.08203 64.019 2.95527 64.019 9.22187V22.6176H57.7233V10.2191C57.7233 7.20039 56.3782 5.97402 54.6004 5.97402C53.0429 5.97402 51.8456 6.83652 50.2102 9.4914V22.6176H43.8984V1.68847H50.2102V4.51856Z" fill="#565656"></path><path d="M6.91751 17.9686H12.1529C13.4752 17.9686 14.7048 17.4969 14.7048 15.7853C14.7048 14.1412 13.4752 13.6022 12.1529 13.6022H6.91751V17.9686ZM6.93633 9.61309H11.7525C12.7657 9.61309 14.2721 9.57265 14.2721 7.98241C14.2721 6.54042 12.8503 6.29785 11.7525 6.29785H6.93633V9.61309ZM21.2799 16.3918C21.2799 17.9012 20.7263 19.8553 18.9175 21.2703C17.1612 22.618 15.3202 22.7123 13.623 22.7123H0.890625V1.10938H13.1742C14.4306 1.13633 15.4022 1.13633 16.5363 1.51367C18.4996 2.17402 20.604 3.46778 20.604 6.55391C20.604 8.66973 19.5437 10.3273 17.8465 11.2168C18.4082 11.5267 18.9175 11.7828 19.4497 12.2814C20.3782 13.1035 21.2799 14.4377 21.2799 16.3918Z" fill="#565656"></path><path d="M79.9448 16.9182C79.0848 17.9559 77.8888 18.4545 76.5988 18.4545C74.9459 18.4545 73.7096 17.6863 72.8093 16.3521C72.1132 15.301 71.7491 13.9264 71.7504 12.4439C71.7504 10.5572 72.3699 8.92657 73.3468 7.79454C74.2337 6.68946 75.2147 6.28516 76.5988 6.28516C77.5394 6.28516 78.4398 6.50079 79.1788 7.0668C80.5495 8.18536 81.423 10.2203 81.423 12.39C81.423 14.1285 80.872 15.8266 79.9448 16.9182ZM81.8799 22.1201L81.853 22.0393C85.6022 20.7186 88.1957 17.0529 88.1957 12.0801C88.1957 3.81894 81.7455 0.894531 76.76 0.894531C70.7479 0.894531 65.2344 4.69493 65.2344 12.0262C65.2344 18.7375 70.076 23.1443 76.7197 23.1713C77.7007 24.3438 83.049 28.9123 91.1251 26.3248L92.1061 19.3709C88.2091 22.6592 82.7533 22.3762 81.8799 22.1201Z" fill="#565656"></path></g><defs><clipPath id="clip0_879_26997"><rect width="93" height="28" fill="white"></rect></clipPath></defs></svg>