<svg xmlns="http://www.w3.org/2000/svg" viewBox="0 0 129 28" fill="currentColor"><path d="M120.023 22.3065C120.023 20.4918 121.499 19.0195 123.315 19.0195C125.133 19.0195 126.607 20.4918 126.607 22.3065C126.607 24.1212 125.133 25.5925 123.315 25.5925C121.499 25.5925 120.023 24.1212 120.023 22.3065Z" fill="currentColor"></path><path d="M15.0334 13.6031C15.0334 11.5212 14.6305 9.9766 13.8246 8.97035C13.0177 7.96505 11.7955 7.46286 10.1524 7.46286H8.40445V20.1942H9.74177C11.5669 20.1942 12.9044 19.654 13.7559 18.5697C14.6066 17.4874 15.0334 15.8315 15.0334 13.6031ZM21.2669 13.3863C21.2669 17.1792 20.2457 20.1019 18.2034 22.1534C16.1611 24.2059 13.2902 25.2321 9.58939 25.2321H2.39844V2.50391H10.0914C13.6597 2.50391 16.4145 3.43692 18.3558 5.30201C20.2962 7.16805 21.2669 9.86154 21.2669 13.3863Z" fill="currentColor"></path><path d="M41.1875 25.2296H46.9096V2.40625H41.1875V25.2296Z" fill="currentColor"></path><path d="M54.9435 16.7161C54.9435 18.1713 55.134 19.2812 55.5141 20.044C55.8951 20.8077 56.5333 21.1891 57.4306 21.1891C58.3184 21.1891 58.9461 20.8077 59.3119 20.044C59.6777 19.2812 59.8596 18.1713 59.8596 16.7161C59.8596 15.2686 59.6748 14.1767 59.3043 13.4396C58.9328 12.7006 58.2994 12.3306 57.4012 12.3306C56.5229 12.3306 55.8951 12.6987 55.5141 13.4311C55.134 14.1644 54.9435 15.2591 54.9435 16.7161ZM65.6837 16.7161C65.6837 19.4886 64.9558 21.6514 63.4965 23.2016C62.0382 24.7529 59.9968 25.5289 57.3725 25.5289C54.8558 25.5289 52.8525 24.7357 51.3656 23.1493C49.8768 21.5629 49.1328 19.4192 49.1328 16.7161C49.1328 13.9523 49.8616 11.8047 51.3209 10.2734C52.7802 8.74218 54.8263 7.97656 57.4611 7.97656C59.0891 7.97656 60.5294 8.33134 61.7772 9.0399C63.026 9.74846 63.9901 10.7633 64.6673 12.0853C65.3455 13.4054 65.6837 14.95 65.6837 16.7161Z" fill="currentColor"></path><path d="M67.9609 25.2305H73.684V16.4957V8.27734H67.9609V25.2305Z" fill="currentColor"></path><path d="M67.9609 6.22678H73.684V2.40625H67.9609V6.22678Z" fill="currentColor"></path><path d="M85.274 20.9077C86.0465 20.9077 86.9666 20.7118 88.0401 20.3228V24.5884C87.2686 24.927 86.5352 25.1696 85.8379 25.3132C85.1406 25.4587 84.3223 25.531 83.3859 25.531C81.4646 25.531 80.0796 25.0488 79.2289 24.0863C78.3821 23.1238 77.9572 21.6458 77.9572 19.6514V12.6627H75.9531V8.28011H77.9572V3.95074L83.7242 2.94922V8.28011H87.3754V12.6627H83.7242V19.2614C83.7242 20.359 84.2414 20.9077 85.274 20.9077Z" fill="currentColor"></path><path d="M98.5249 20.9077C99.2975 20.9077 100.218 20.7118 101.291 20.3228V24.5884C100.521 24.927 99.7861 25.1696 99.0888 25.3132C98.3906 25.4587 97.5752 25.531 96.6369 25.531C94.7156 25.531 93.3306 25.0488 92.4819 24.0863C91.6332 23.1238 91.2084 21.6458 91.2084 19.6514V12.6627H89.2031V8.28011H91.2084V3.88512L96.9742 2.94922V8.28011H100.627V12.6627H96.9742V19.2614C96.9742 20.359 97.4914 20.9077 98.5249 20.9077Z" fill="currentColor"></path><path d="M108.508 14.6504C108.586 13.7221 108.852 13.0421 109.305 12.6074C109.76 12.1737 110.322 11.9569 110.995 11.9569C111.728 11.9569 112.311 12.2003 112.744 12.6911C113.179 13.179 113.406 13.8324 113.424 14.6504H108.508ZM116.578 9.97483C115.218 8.6433 113.288 7.97656 110.791 7.97656C108.167 7.97656 106.147 8.74218 104.732 10.2734C103.317 11.8047 102.609 14.0017 102.609 16.8645C102.609 19.637 103.374 21.775 104.9 23.2758C106.427 24.7766 108.571 25.528 111.333 25.528C112.659 25.528 113.8 25.4377 114.757 25.2579C115.707 25.08 116.627 24.7585 117.52 24.2944L116.641 20.4739C115.992 20.7383 115.375 20.9418 114.792 21.0759C113.95 21.2709 113.026 21.3689 112.02 21.3689C110.917 21.3689 110.046 21.0997 109.408 20.5614C108.77 20.0221 108.43 19.2784 108.391 18.3311H118.619V15.728C118.619 13.2237 117.939 11.3054 116.578 9.97483Z" fill="currentColor"></path><path d="M28.8592 14.6504C28.9373 13.7221 29.2031 13.0421 29.6564 12.6074C30.1109 12.1737 30.6739 11.9569 31.3474 11.9569C32.079 11.9569 32.6619 12.2003 33.0954 12.6911C33.5307 13.179 33.7564 13.8324 33.7765 14.6504H28.8592ZM36.9304 9.97483C35.5692 8.6433 33.6402 7.97656 31.1426 7.97656C28.5172 7.97656 26.4987 8.74218 25.0841 10.2734C23.6696 11.8047 22.9609 14.0017 22.9609 16.8645C22.9609 19.637 23.7249 21.775 25.2529 23.2758C26.7789 24.7766 28.923 25.528 31.6846 25.528C33.0105 25.528 34.1517 25.4377 35.108 25.2579C36.0587 25.08 36.979 24.7585 37.8725 24.2944L36.9923 20.4739C36.3436 20.7383 35.7263 20.9418 35.1443 21.0759C34.3003 21.2709 33.3773 21.3689 32.3713 21.3689C31.2692 21.3689 30.3977 21.0997 29.7595 20.5614C29.1203 20.0221 28.7812 19.2784 28.7422 18.3311H38.9708V15.728C38.9708 13.2237 38.2906 11.3054 36.9304 9.97483Z" fill="currentColor"></path></svg>