<svg xmlns="http://www.w3.org/2000/svg" viewBox="0 0 72 28" fill="none"><g clip-path="url(#clip0_879_27054)"><mask id="mask0_879_27054" style="mask-type:luminance" maskUnits="userSpaceOnUse" x="0" y="0" width="81" height="40"><path d="M0 -0.00070862H80.1725V39.2422H0V-0.00070862Z" fill="white"></path></mask><g mask="url(#mask0_879_27054)"><mask id="mask1_879_27054" style="mask-type:luminance" maskUnits="userSpaceOnUse" x="-47" y="-34" width="571" height="804"><path d="M-46.1094 -33.8359H523.49V769.977H-46.1094V-33.8359Z" fill="white"></path></mask><g mask="url(#mask1_879_27054)"><mask id="mask2_879_27054" style="mask-type:luminance" maskUnits="userSpaceOnUse" x="-52" y="-43" width="582" height="822"><path d="M-51.6875 -42.1561H529.292V778.145H-51.6875V-42.1561Z" fill="white"></path></mask><g mask="url(#mask2_879_27054)"><path d="M64.6574 27.1914L64.4036 27.2985C63.3881 27.6882 60.4199 28 58.5256 28C56.7486 28 54.3759 27.3375 52.9992 25.4962C52.4719 24.785 51.9642 23.6743 51.9544 22.1057H50.1578L48.7811 27.62H44.108L45.7523 22.1057H44.2662L40.7004 27.62H36.9432L36.6093 22.1057H34.9523L33.3178 27.62H29.3175L31.0125 22.1057H21.5932V22.0181L19.9128 27.6298H15.6498L17.3194 22.1057H12.1133L14.7027 27.6298H9.77673L7.54174 22.1057H6.20797C5.37315 24.8239 4.71603 27.0062 4.66721 27.1816L4.57933 27.6298H0L4.19268 13.7077V-5.20141e-05H19.9108V13.5421L20.5094 11.5449H21.5932V-5.20141e-05H37.2742V11.5449H38.9575V-5.20141e-05H54.6395V14.5943C55.1668 13.8733 55.7331 13.2985 56.3287 12.8503V-5.20141e-05H72V22.1057H66.083L64.6574 27.1914ZM56.3482 22.1057C56.358 22.8169 56.4947 23.421 56.8072 23.8204C57.2563 24.4245 58.0472 24.7167 59.1701 24.7167C60.4198 24.7167 60.8885 24.5804 61.0447 24.5219L61.8161 22.1057H56.3482Z" fill="#565656"></path><path d="M27.9731 16.6213C27.4664 18.1412 26.777 18.9206 24.5225 18.9693C23.7746 18.9791 22.9583 18.9596 21.8462 18.9596L23.22 14.2539C26.6032 14.2539 28.8528 13.9811 27.9731 16.6213ZM8.65106 12.1105H5.25611L0.757812 27.0653H4.11957C4.18401 26.7536 8.65106 12.1105 8.65106 12.1105ZM17.4699 12.1105H13.3407L6.77539 18.716L10.1557 27.0653H13.8153L10.0434 19.0278L17.4699 12.1105ZM31.0761 16.6213C31.9305 12.0131 28.2065 12.0716 24.75 12.1105H20.9274L16.4076 27.0653H19.4921L21.2613 21.1516H23.7306C28.517 21.1614 30.6319 19.0375 31.0761 16.6213ZM52.0727 12.1105H47.1516C41.1643 20.3917 39.7173 25.0389 39.7173 25.0389C40.2904 19.7779 39.5435 12.1105 39.5435 12.1105H34.6703L30.0812 27.0556H32.901L36.6983 14.2539L37.4735 27.0556H40.391L48.6748 14.2539L44.8688 27.0556H48.3331L52.0727 12.1105ZM61.8367 11.7891C58.8197 11.7891 55.08 12.4613 52.9319 19.5246C51.1256 25.4286 55.4999 27.4453 58.5267 27.4453C60.5186 27.4453 63.3502 27.1043 64.1899 26.7731L66.3184 19.2226H59.962L59.259 21.4829H62.5983L61.5633 24.7564C61.5633 24.7564 61.7 25.2727 59.1809 25.2824C55.9978 25.2922 55.1191 23.0806 56.1638 19.4467C57.1305 16.066 58.683 13.8155 61.5341 13.9519C63.4771 14.0396 64.5707 14.7605 64.0337 16.5434C64.0044 16.6603 63.9848 16.8162 63.936 16.9137L67.0214 16.9233C67.8026 14.6339 66.2403 11.7891 61.8367 11.7891Z" fill="white"></path></g></g></g></g><defs><clipPath id="clip0_879_27054"><rect width="72" height="28" fill="white"></rect></clipPath></defs></svg>