<svg xmlns="http://www.w3.org/2000/svg" viewBox="0 0 74 26" fill="none"><g clip-path="url(#clip0_879_26989)"><path d="M65.6308 11.0738C66.1036 13.758 64.3756 16.609 61.1487 19.1318C61.1179 19.156 61.1507 19.2037 61.1831 19.182C63.7558 17.454 66.4802 15.5171 68.3259 12.9455C68.9867 12.0247 69.5441 10.9196 69.6419 9.76226C69.8246 7.60175 68.4201 5.73271 66.6592 4.71748C65.4868 4.0412 64.1987 3.61671 62.8918 3.31289C60.6158 2.78034 58.2727 2.6114 55.9429 2.64304C54.7589 2.65886 53.5755 2.72456 52.3965 2.8396C51.2585 2.95061 50.1202 3.09729 48.9942 3.29921C47.8768 3.49979 46.7649 3.72129 45.6623 3.99641C45.5428 4.02645 45.4233 4.05648 45.3038 4.08732C45.268 4.0967 45.2772 4.15194 45.3145 4.14819C56.0021 3.10882 64.7227 5.91827 65.6308 11.0738Z" fill="#565656"></path><path d="M56.0709 1.33519C56.0339 1.3368 56.0265 1.28183 56.0628 1.27405C56.8856 1.10324 57.7128 0.952269 58.5416 0.815511C59.8602 0.597233 61.1856 0.415961 62.5152 0.284298C64.8027 0.0571714 67.1847 -0.0785152 69.4777 0.257482C69.9928 0.333369 70.5043 0.438218 71.005 0.583557C72.254 0.946369 73.5345 1.63767 73.88 3.01705C74.1057 3.91886 73.9684 4.87992 73.6955 5.7533C73.1647 7.45125 72.1297 8.96605 71.0335 10.3264C70.9654 10.4111 70.8965 10.4951 70.8276 10.5787C70.8057 10.605 70.7644 10.5806 70.7764 10.5479C71.231 9.3176 71.4296 7.92106 71.1961 6.6197C70.8513 4.69999 69.3608 3.29138 67.6865 2.53223C65.6542 1.61086 63.4175 1.38561 61.2203 1.2939C59.5048 1.22176 57.7856 1.25609 56.0709 1.33519Z" fill="#565656"></path><path d="M30.9034 19.2183L33.2324 22.3766H24.8294L22.1695 25.9841H18.3134L30.1276 9.96137L41.9418 25.9841H38.0854L30.1276 15.1912L27.1582 19.2183H30.9034ZM46.6987 15.8256H49.7722V25.9844H46.6987V15.8256ZM39.0345 10.8669H57.4364V14.0252H39.0345V10.8669ZM17.3077 21.4153C17.3077 23.9346 15.313 25.9841 12.8613 25.9841L0.0234375 25.9844V21.802H3.09695V22.8258H12.8613C13.6194 22.8258 14.2339 22.1946 14.2339 21.4153C14.2339 20.6363 13.6194 20.0051 12.8613 20.0051H0.0234375V16.8465L10.3423 16.8462C11.1001 16.8462 11.7147 16.215 11.7147 15.436C11.7147 14.6567 11.1001 14.0255 10.3423 14.0255H3.09695V15.0493H0.0234375V10.8669H10.3423C12.794 10.8669 14.7885 12.9167 14.7885 15.436C14.7885 16.0434 14.6716 16.6229 14.4612 17.1535C16.1246 17.8153 17.3077 19.4755 17.3077 21.4153Z" fill="#565656"></path></g><defs><clipPath id="clip0_879_26989"><rect width="74" height="26" fill="white"></rect></clipPath></defs></svg>