<svg xmlns="http://www.w3.org/2000/svg" viewBox="0 0 81 26" fill="none"><g clip-path="url(#clip0_879_27004)"><path d="M78.1963 7.03127V7.2398H77.7978V8.43559H77.574V7.23977H77.1719V7.03125L78.1963 7.03127ZM79.7593 8.43559H79.5391V7.42202L79.1652 8.43559H78.9387L78.5657 7.42202V8.43559H78.3419V7.03127H78.6421L79.0506 8.1618L79.4645 7.03127H79.7593V8.43559Z" fill="#565656"></path><mask id="mask0_879_27004" style="mask-type:luminance" maskUnits="userSpaceOnUse" x="-25" y="-16" width="122" height="77"><path d="M-24.5703 60.625H96.9288V-15.2136H-24.5703V60.625Z" fill="white"></path></mask><g mask="url(#mask0_879_27004)"><path d="M15.4392 15.8886C17.4671 15.8886 19.0355 14.1824 19.0355 12.2206C19.0355 10.1853 17.4389 8.52444 15.4392 8.52444C13.4422 8.52444 11.8447 10.1853 11.8447 12.2206C11.8447 14.1824 13.4131 15.8886 15.4392 15.8886ZM15.4392 6.68951C18.4596 6.68951 21.0052 9.09831 21.0052 12.2351C21.0052 15.2749 18.5015 17.7227 15.4392 17.7227C12.3769 17.7227 9.875 15.2749 9.875 12.2351C9.875 9.09831 12.4205 6.68951 15.4392 6.68951Z" fill="#565656"></path><path d="M9.17164 14.555C8.69583 15.0591 7.75968 15.8886 6.33589 15.8886C4.45175 15.8886 2.79778 14.1824 2.79778 12.1916C2.79778 10.072 4.53908 8.52443 6.26401 8.52443C7.44308 8.52443 8.3947 9.05387 9.15709 9.92964C9.39818 9.30047 9.73479 8.72116 10.1496 8.20532C9.03336 7.14098 7.57318 6.68949 6.33589 6.68949C3.25995 6.68949 0.828125 9.23973 0.828125 12.1635C0.828125 15.1588 3.30179 17.7227 6.37864 17.7227C7.75513 17.7227 9.12979 17.1705 10.1351 16.2132C9.73479 15.7137 9.40909 15.1579 9.17164 14.555Z" fill="#565656"></path><path d="M43.1953 6.97669H50.0341V8.80981H45.1613V11.234H49.8785V13.0699H45.1613V15.7452H50.0341V17.5774H43.1953V6.97669ZM53.3846 15.745H53.8003C54.8648 15.745 55.5553 15.6716 56.3886 15.231C57.4385 14.6571 57.9853 13.4368 57.9853 12.3063C57.9853 11.2746 57.5395 10.301 56.8481 9.69899C56.032 8.95468 54.9931 8.80963 53.7567 8.80963H53.3846V15.745ZM51.414 6.97651H53.8304C56.4469 6.97651 57.5832 7.67821 58.2 8.20947C59.208 9.0671 59.9559 10.6446 59.9559 12.3063C59.9559 14.2111 58.9624 16.0469 57.4112 16.8927C56.4323 17.434 55.0658 17.5781 53.8749 17.5781H51.414V6.97651Z" fill="#565656"></path><path d="M21.8759 17.5078C22.1234 16.8659 22.4518 16.225 22.8649 15.5822C23.6909 14.2994 24.8345 13.0275 26.3611 11.7029L29.6818 6.90801H27.2208L24.6607 10.6042L22.1743 6.90801H19.6406L23.3079 12.2233L19.6406 17.5078H21.8759Z" fill="#565656"></path><path d="M38.9519 6.9696L36.1471 14.992H36.1179L33.4159 7.33859C33.4159 7.33859 33.0256 7.59061 32.3542 8.00129C31.6855 8.41197 30.5547 9.19618 30.5547 9.19618V17.5703H32.5234V9.62136H32.5525L35.2855 17.5703H36.9522L39.6706 9.62136H39.7161V17.5703H41.6848V6.9696H38.9519Z" fill="#565656"></path></g><mask id="mask1_879_27004" style="mask-type:luminance" maskUnits="userSpaceOnUse" x="0" y="0" width="80" height="25"><path d="M0.835938 24.1641H79.7559V0.840336H0.835938V24.1641Z" fill="white"></path></mask><g mask="url(#mask1_879_27004)"><path d="M66.7984 12.9974L68.0047 9.74551H68.0338L69.2411 12.9974H66.7984ZM72.3316 15.4008L68.7962 6.98133H67.2587L62.8281 17.582H65.0016L66.1361 14.846H69.9453L70.9415 17.2475C71.4273 16.6537 71.9031 16.0091 72.3316 15.4008Z" fill="#565656"></path><path d="M76.209 8.6641C74.3613 1.21559 59.8377 -1.07445 45.0657 2.49025C41.9952 3.22821 39.1576 4.17831 36.6139 5.28254C36.4492 5.3596 36.4902 5.49014 36.6412 5.45025C38.6463 4.68963 40.7989 4.02328 43.0869 3.47661C57.8626 -0.0645124 72.4144 2.3443 74.2994 9.9433C74.9554 12.5969 73.7354 15.6938 70.9751 18.6565C70.7622 18.8714 70.9533 19.0581 71.1816 18.8523C75.0845 15.4798 76.9678 11.7302 76.209 8.6641Z" fill="#565656"></path></g><mask id="mask2_879_27004" style="mask-type:luminance" maskUnits="userSpaceOnUse" x="-25" y="-16" width="122" height="77"><path d="M-24.5703 60.625H96.9288V-15.2136H-24.5703V60.625Z" fill="white"></path></mask><g mask="url(#mask2_879_27004)"><path d="M25.6908 13.6656C25.4725 14.4752 25.5416 14.9956 25.5416 14.9956L27.3903 17.5703H29.8521L26.224 12.5895C26.224 12.5895 25.8446 13.0999 25.6908 13.6656Z" fill="#565656"></path><path d="M62.7063 14.9811V6.97318H60.7357V17.5748H61.6209L62.7063 14.9811ZM47.9839 19.9136C48.4006 20.1294 48.6562 20.5201 48.7481 21.0722H48.1777C48.1104 20.7676 47.9693 20.5392 47.7546 20.3977C47.5399 20.2536 47.2715 20.1838 46.9449 20.1838C46.5583 20.1838 46.2335 20.3325 45.9715 20.628C45.7076 20.9172 45.573 21.3614 45.573 21.9416C45.573 22.4511 45.6831 22.8573 45.9023 23.1764C46.1189 23.4937 46.4746 23.6487 46.9668 23.6487C47.3443 23.6487 47.6564 23.5372 47.9011 23.3187C48.1486 23.0957 48.2759 22.7331 48.2823 22.2381H46.9495V21.7585H48.8182V24.0313H48.4451L48.306 23.4892C48.1167 23.6968 47.9475 23.8464 47.7965 23.9307C47.5481 24.0739 47.2315 24.1456 46.8485 24.1456C46.3518 24.1456 45.9269 23.9815 45.5666 23.6533C45.1782 23.2489 44.9844 22.6841 44.9844 21.9743C44.9844 21.2635 45.1745 20.7024 45.5548 20.2799C45.9169 19.8837 46.3845 19.6815 46.9613 19.6815C47.3534 19.6815 47.6955 19.7604 47.9839 19.9136ZM52.3012 21.7326C52.5651 21.7326 52.7716 21.6818 52.9244 21.5721C53.0782 21.4642 53.1537 21.2675 53.1537 20.9856C53.1537 20.6882 53.05 20.4797 52.8353 20.37C52.7179 20.312 52.5678 20.2811 52.374 20.2811H51.0048V21.7326H52.3012ZM50.4289 19.7934H52.3622C52.6806 19.7934 52.9426 19.8396 53.15 19.9339C53.5458 20.1098 53.7405 20.4461 53.7405 20.9303C53.7405 21.1859 53.6868 21.3962 53.5804 21.5576C53.4794 21.719 53.3293 21.8459 53.14 21.9465C53.3074 22.0145 53.4321 22.1034 53.5176 22.2122C53.5995 22.3237 53.6459 22.5032 53.655 22.7443L53.6768 23.3182C53.6832 23.4787 53.695 23.5938 53.7168 23.6736C53.7532 23.8096 53.8096 23.8966 53.8997 23.9365V24.0317H53.1946C53.1731 23.986 53.1573 23.9379 53.1473 23.8884C53.1382 23.8313 53.1273 23.7189 53.1191 23.5521L53.0864 22.8459C53.0718 22.5739 52.9717 22.3862 52.7834 22.2919C52.6779 22.2376 52.5068 22.2122 52.2785 22.2122H51.0048V24.0317H50.4289V19.7934ZM58.1161 23.1001C58.3427 22.7347 58.4564 22.3213 58.4564 21.8445C58.4564 21.3477 58.3263 20.9424 58.0661 20.6441C57.8041 20.3368 57.4456 20.1836 56.9926 20.1836C56.5486 20.1836 56.1938 20.335 55.9117 20.6378C55.6333 20.9352 55.496 21.383 55.496 21.9705C55.496 22.4446 55.6115 22.8363 55.8526 23.1608C56.0937 23.4854 56.4758 23.6422 57.0162 23.6422C57.5193 23.6422 57.8905 23.4663 58.1161 23.1001ZM58.6265 20.3948C58.9058 20.7747 59.0486 21.2497 59.0486 21.8345C59.0486 22.4736 58.8849 22.9967 58.5637 23.4192C58.1862 23.9079 57.6458 24.1562 56.9443 24.1562C56.2902 24.1562 55.7725 23.9396 55.3977 23.5099C55.0666 23.0937 54.8973 22.5715 54.8973 21.9306C54.8973 21.3585 55.0429 20.8653 55.3304 20.4601C55.6925 19.9388 56.2384 19.6768 56.9571 19.6768C57.7076 19.6768 58.2653 19.918 58.6265 20.3948ZM60.7132 19.7931V22.4132C60.7132 22.7169 60.7715 22.9762 60.8907 23.1801C61.0599 23.4893 61.3537 23.638 61.7658 23.638C62.2589 23.638 62.5937 23.4775 62.7712 23.143C62.8639 22.9616 62.9122 22.7151 62.9122 22.4132V19.7931H63.4971V22.172C63.4971 22.6915 63.4253 23.0958 63.2833 23.3796C63.0231 23.8873 62.5319 24.1457 61.815 24.1457C61.089 24.1457 60.6004 23.8873 60.3448 23.3796C60.201 23.0958 60.1319 22.6915 60.1319 22.172V19.7931H60.7132ZM67.2607 20.3733C67.1361 20.3135 66.9623 20.2809 66.7412 20.2809H65.6013V21.7514H66.7412C66.9996 21.7514 67.2079 21.7006 67.3653 21.59C67.5272 21.4794 67.6082 21.2836 67.6082 21.0052C67.6082 20.6988 67.4927 20.4848 67.2607 20.3733ZM65.0236 19.7931H66.9295C67.3062 19.7931 67.6128 19.8983 67.8411 20.1059C68.074 20.3217 68.1887 20.6227 68.1887 21.0025C68.1887 21.3361 68.0877 21.6272 67.8802 21.8683C67.6737 22.1158 67.3553 22.2382 66.9295 22.2382H65.6013V24.0314H65.0236V19.7931Z" fill="#565656"></path></g></g><defs><clipPath id="clip0_879_27004"><rect width="81" height="26" fill="white"></rect></clipPath></defs></svg>