<svg xmlns="http://www.w3.org/2000/svg" viewBox="0 0 147 26" fill="none"><g clip-path="url(#clip0_879_27044)"><path fill-rule="evenodd" clip-rule="evenodd" d="M133.203 19.8449H138.788V0H133.203V19.8449Z" fill="#565656"></path><path fill-rule="evenodd" clip-rule="evenodd" d="M146.998 0V19.8449H141.414V0H146.998Z" fill="#565656"></path><path fill-rule="evenodd" clip-rule="evenodd" d="M11.9073 7.70778H7.39079V0H0V19.8449H7.39079V10.0048H11.9073V19.8449H19.2988V0H11.9073V7.70778Z" fill="#565656"></path><path fill-rule="evenodd" clip-rule="evenodd" d="M46.6073 7.38153L46.1553 6.06986H40.0781V19.8466H46.1553V11.5641C46.1553 9.75977 47.3055 8.77608 48.2908 8.77608C49.1118 8.77608 50.1791 8.93996 50.1791 10.7443V19.8466H56.2563V10.9084C56.2563 5.90599 50.6319 3.93839 46.6073 7.38153Z" fill="#565656"></path><path fill-rule="evenodd" clip-rule="evenodd" d="M109.018 14.0616L106.185 6.06641H102.038L99.2039 14.3895L96.2474 6.06641H90.458H90.4165H88.1177L85.2019 13.077L81.0959 6.06641H74.1562L82.3275 20.0071L81.2602 22.6304C80.8902 23.4511 80.0055 23.4917 79.8322 22.7124C79.8322 21.3035 78.688 20.1619 77.277 20.1619C75.8658 20.1619 74.7218 21.3035 74.7218 22.7124C74.7317 24.1888 76.2097 26.1158 79.1247 25.9925C82.0406 25.8699 83.272 23.4511 83.6826 22.4259L90.4358 6.12012L95.3035 19.8432H99.738L102.448 11.9292L105.24 19.8432H109.428L114.15 6.06641H111.728L109.018 14.0616Z" fill="#565656"></path><path fill-rule="evenodd" clip-rule="evenodd" d="M29.7705 5.36719C25.1205 5.36719 21.3516 8.81963 21.3516 13.0781C21.3516 17.3381 25.1205 20.7906 29.7705 20.7906C34.4213 20.7906 38.1911 17.3381 38.1911 13.0781C38.1911 8.81963 34.4213 5.36719 29.7705 5.36719ZM31.8653 16.686C31.8653 17.8414 30.9276 18.7777 29.7705 18.7777C28.615 18.7777 27.6772 17.8414 27.6772 16.686V9.47091C27.6772 8.31636 28.615 7.38088 29.7705 7.38088C30.9276 7.38088 31.8653 8.31636 31.8653 9.47091V16.686Z" fill="#565656"></path><path fill-rule="evenodd" clip-rule="evenodd" d="M74.8276 14.1853C74.8721 13.8626 74.895 13.4122 74.895 13.0781C74.895 8.81963 71.1253 5.36719 66.4753 5.36719C61.8245 5.36719 58.0547 8.81963 58.0547 13.0781C58.0547 17.3381 61.8245 20.7906 66.4753 20.7906C69.6704 20.7906 72.4497 19.16 73.8768 16.7581L72.0168 16.0709C70.8927 17.7862 68.8317 18.9348 66.4753 18.9348C65.3182 18.9348 64.3805 17.8414 64.3805 16.686V14.186L74.8276 14.1853ZM64.3805 9.47091C64.3805 8.31636 65.3182 7.38088 66.4753 7.38088C67.6316 7.38088 68.5693 8.31636 68.5693 9.47091V12.2177H64.3805V9.47091Z" fill="#565656"></path><path fill-rule="evenodd" clip-rule="evenodd" d="M131.085 14.1853C131.13 13.8626 131.153 13.4122 131.153 13.0781C131.153 8.81963 127.383 5.36719 122.732 5.36719C118.082 5.36719 114.312 8.81963 114.312 13.0781C114.312 17.3381 118.082 20.7906 122.732 20.7906C125.928 20.7906 128.707 19.16 130.135 16.7581L128.275 16.0709C127.15 17.7862 125.089 18.9348 122.732 18.9348C121.576 18.9348 120.638 17.8414 120.638 16.686V14.186L131.085 14.1853ZM120.638 9.47091C120.638 8.31636 121.576 7.38088 122.732 7.38088C123.889 7.38088 124.827 8.31636 124.827 9.47091V12.2177H120.638V9.47091Z" fill="#565656"></path></g><defs><clipPath id="clip0_879_27044"><rect width="147" height="26" fill="white"></rect></clipPath></defs></svg>