<?xml version="1.0" encoding="iso-8859-1"?>
<!-- Generator: Adobe Illustrator 27.5.0, SVG Export Plug-In . SVG Version: 6.00 Build 0)  -->
<svg version="1.1" id="&#x56FE;&#x5C42;_1" xmlns="http://www.w3.org/2000/svg" xmlns:xlink="http://www.w3.org/1999/xlink" x="0px"
	 y="0px" viewBox="0 0 1000 1000" style="enable-background:new 0 0 1000 1000;" xml:space="preserve">
<g>
	<g>
		<path style="fill:#384549;" d="M500,406.702L371.979,511.458L255.5,414.5l197-144c0,0-146-103-276,33c0,0-81,85-21,205
			L44.093,677.991c-7.404,11.264-12.161,24.119-13.439,37.538c-1.685,17.696,2.06,39.918,24.846,55.971
			c0,0,66.558,54.018,115.356-23.633c2.156-3.43,4.328-6.849,6.604-10.201L266.5,606.5c0,0,121,40,198-58
			C464.5,548.5,520.5,477.904,500,406.702z M105.5,738.5c-13.807,0-25-11.193-25-25s11.193-25,25-25s25,11.193,25,25
			S119.307,738.5,105.5,738.5z"/>
	</g>
</g>
<ellipse style="fill:#384549;" cx="736.5" cy="237" rx="222" ry="89.5"/>
<path style="fill:#374448;" d="M517.5,302.5c0,0,195,145,441,0v50.618c0,14.878-6.12,29.173-17.119,39.192
	c-23.315,21.236-77.902,48.094-204.881,48.094c0,0-138.997,4.017-200.938-48.409c-11.487-9.722-18.062-24.045-18.062-39.094V302.5z"
	/>
<path style="fill:#0195EC;" d="M517.5,563.5c0,0,200.5,130.5,441,0v50.618c0,14.878-6.12,29.173-17.119,39.192
	c-23.315,21.236-77.902,48.094-204.881,48.094c0,0-138.997,4.017-200.938-48.409c-11.487-9.722-18.062-24.045-18.062-39.094V563.5z"
	/>
<path style="fill:#0195EA;" d="M517.5,414c0,0,192,128.5,441,0v60.34c0,17.736-6.12,34.777-17.119,46.72
	c-23.315,25.315-77.902,57.331-204.881,57.331c0,0-138.997,4.789-200.938-57.706c-11.487-11.589-18.062-28.663-18.062-46.602V414z"
	/>
<path style="fill:#0195EA;" d="M517.5,676c0,0,192,128.5,441,0v60.34c0,17.736-6.12,34.777-17.119,46.72
	c-23.315,25.315-77.902,57.331-204.881,57.331c0,0-138.997,4.789-200.938-57.706c-11.487-11.589-18.062-28.663-18.062-46.602V676z"
	/>
</svg>
