<svg width="195.000000" height="41.359375" viewBox="0 0 195 41.3594" fill="none" xmlns="http://www.w3.org/2000/svg" xmlns:xlink="http://www.w3.org/1999/xlink">
	<desc>
			Created with Pixso.
	</desc>
	<defs>
		<clipPath id="clip30_2029">
			<rect id="_图层_1" width="134.577469" height="25.511124" transform="translate(60.422485 10.022217)" fill="white"/>
		</clipPath>
	</defs>
	<g clip-path="url(#clip30_2029)">
		<path id="path" d="M119.508 30.113L117.562 30.113L117.562 27.0967L119.508 27.0967C120.713 27.0967 121.931 26.7961 122.715 25.9614C123.5 25.1265 123.796 23.8464 123.796 22.5664C123.796 21.2864 123.512 20.0063 122.715 19.1716C121.919 18.3369 120.713 18.0364 119.508 18.0364C118.302 18.0364 117.085 18.3369 116.3 19.1716C115.515 20.0063 115.219 21.2864 115.219 22.5664L115.219 34.9551L111.806 34.9551L111.806 15.031L115.219 15.031L115.219 16.2998L115.845 16.2998C115.913 16.2219 115.981 16.1553 116.049 16.0884C116.903 15.3093 118.211 15.031 119.496 15.031C121.51 15.031 123.523 15.532 124.843 16.9233C126.162 18.3145 126.629 20.4517 126.629 22.5776C126.629 24.7036 126.151 26.8296 124.843 28.2319C123.535 29.6345 121.51 30.113 119.508 30.113Z" fill-rule="nonzero" fill="#4D6BFE"/>
		<path id="path" d="M67.5664 15.5654L69.5117 15.5654L69.5117 18.5818L67.5664 18.5818C66.3606 18.5818 65.1434 18.8823 64.3585 19.717C63.5736 20.552 63.2778 21.832 63.2778 23.1121C63.2778 24.3921 63.5623 25.6721 64.3585 26.5068C65.1548 27.3418 66.3606 27.6423 67.5664 27.6423C68.7722 27.6423 69.9895 27.3418 70.7744 26.5068C71.5593 25.6721 71.8551 24.3921 71.8551 23.1121L71.8551 10.7124L75.2677 10.7124L75.2677 30.6475L71.8551 30.6475L71.8551 29.3787L71.2294 29.3787C71.1611 29.4565 71.0929 29.5234 71.0247 29.5901C70.1715 30.3691 68.8633 30.6475 67.5779 30.6475C65.5643 30.6475 63.5509 30.1467 62.2313 28.7554C60.9117 27.364 60.4453 25.2268 60.4453 23.1008C60.4453 20.9749 60.9231 18.8489 62.2313 17.4465C63.5509 16.0552 65.5643 15.5654 67.5664 15.5654Z" fill-rule="nonzero" fill="#4D6BFE"/>
		<path id="path" d="M92.3881 22.845L92.3881 24.0581L83.299 24.0581L83.299 21.6428L89.328 21.6428C89.1914 20.7634 88.8729 19.9397 88.3042 19.3386C87.4851 18.4705 86.2224 18.1589 84.9711 18.1589C83.7198 18.1589 82.4572 18.4705 81.6381 19.3386C80.819 20.2068 80.5232 21.5315 80.5232 22.845C80.5232 24.1582 80.819 25.4939 81.6381 26.3511C82.4572 27.208 83.7198 27.531 84.9711 27.531C86.2224 27.531 87.4851 27.2192 88.3042 26.3511C88.418 26.2285 88.5203 26.095 88.6227 25.9614L91.9899 25.9614C91.6941 27.0078 91.2277 27.9539 90.5225 28.6885C89.1573 30.1243 87.0529 30.6475 84.9711 30.6475C82.8894 30.6475 80.7849 30.1355 79.4198 28.6885C78.0547 27.2415 77.5542 25.0376 77.5542 22.845C77.5542 20.6521 78.0433 18.437 79.4198 17.0012C80.7963 15.5654 82.8894 15.0422 84.9711 15.0422C87.0529 15.0422 89.1573 15.5542 90.5225 17.0012C91.8988 18.4482 92.3881 20.6521 92.3881 22.845Z" fill-rule="nonzero" fill="#4D6BFE"/>
		<path id="path" d="M109.52 22.845L109.52 24.0581L100.431 24.0581L100.431 21.6428L106.46 21.6428C106.323 20.7634 106.005 19.9397 105.436 19.3386C104.617 18.4705 103.354 18.1589 102.103 18.1589C100.852 18.1589 99.5889 18.4705 98.7698 19.3386C97.9507 20.2068 97.6549 21.5315 97.6549 22.845C97.6549 24.1582 97.9507 25.4939 98.7698 26.3511C99.5889 27.208 100.852 27.531 102.103 27.531C103.354 27.531 104.617 27.2192 105.436 26.3511C105.55 26.2285 105.652 26.095 105.754 25.9614L109.122 25.9614C108.826 27.0078 108.359 27.9539 107.654 28.6885C106.289 30.1243 104.185 30.6475 102.103 30.6475C100.021 30.6475 97.9166 30.1355 96.5515 28.6885C95.1864 27.2415 94.6859 25.0376 94.6859 22.845C94.6859 20.6521 95.175 18.437 96.5515 17.0012C97.928 15.5654 100.021 15.0422 102.103 15.0422C104.185 15.0422 106.289 15.5542 107.654 17.0012C109.031 18.4482 109.52 20.6521 109.52 22.845Z" fill-rule="nonzero" fill="#4D6BFE"/>
		<path id="path" d="M136.355 30.6475C138.437 30.6475 140.541 30.3469 141.906 29.49C143.271 28.6328 143.772 27.3306 143.772 26.0393C143.772 24.7483 143.282 23.4348 141.906 22.5889C140.541 21.7429 138.437 21.4312 136.355 21.4312C135.467 21.4312 134.648 21.3088 134.068 20.9861C133.488 20.6521 133.272 20.1511 133.272 19.6504C133.272 19.1494 133.477 18.6375 134.068 18.3147C134.648 17.9807 135.547 17.8694 136.434 17.8694C137.322 17.8694 138.22 17.9919 138.801 18.3147C139.381 18.6487 139.597 19.1494 139.597 19.6504L143.066 19.6504C143.066 18.3591 142.623 17.0457 141.383 16.2C140.143 15.354 138.243 15.0422 136.355 15.0422C134.466 15.0422 132.567 15.3428 131.327 16.2C130.087 17.0569 129.643 18.3591 129.643 19.6504C129.643 20.9414 130.087 22.2549 131.327 23.1008C132.567 23.9468 134.466 24.2585 136.355 24.2585C137.333 24.2585 138.414 24.3809 139.062 24.7036C139.711 25.0266 139.938 25.5386 139.938 26.0393C139.938 26.5403 139.711 27.0522 139.062 27.375C138.414 27.6978 137.424 27.8203 136.446 27.8203C135.467 27.8203 134.466 27.6978 133.829 27.375C133.192 27.0522 132.953 26.5403 132.953 26.0393L128.949 26.0393C128.949 27.3306 129.438 28.644 130.815 29.49C132.191 30.3359 134.273 30.6475 136.355 30.6475Z" fill-rule="nonzero" fill="#4D6BFE"/>
		<path id="path" d="M160.903 22.845L160.903 24.0581L151.814 24.0581L151.814 21.6428L157.843 21.6428C157.707 20.7634 157.388 19.9397 156.82 19.3386C156 18.4705 154.738 18.1589 153.486 18.1589C152.235 18.1589 150.972 18.4705 150.153 19.3386C149.334 20.2068 149.039 21.5315 149.039 22.845C149.039 24.1582 149.334 25.4939 150.153 26.3511C150.972 27.208 152.235 27.531 153.486 27.531C154.738 27.531 156 27.2192 156.82 26.3511C156.933 26.2285 157.036 26.095 157.138 25.9614L160.505 25.9614C160.209 27.0078 159.743 27.9539 159.038 28.6885C157.673 30.1243 155.568 30.6475 153.486 30.6475C151.405 30.6475 149.3 30.1355 147.935 28.6885C146.57 27.2415 146.07 25.0376 146.07 22.845C146.07 20.6521 146.559 18.437 147.935 17.0012C149.312 15.5654 151.405 15.0422 153.486 15.0422C155.568 15.0422 157.673 15.5542 159.038 17.0012C160.414 18.4482 160.903 20.6521 160.903 22.845Z" fill-rule="nonzero" fill="#4D6BFE"/>
		<path id="path" d="M178.035 22.845L178.035 24.0581L168.946 24.0581L168.946 21.6428L174.975 21.6428C174.839 20.7634 174.52 19.9397 173.951 19.3386C173.132 18.4705 171.87 18.1589 170.618 18.1589C169.367 18.1589 168.104 18.4705 167.285 19.3386C166.466 20.2068 166.17 21.5315 166.17 22.845C166.17 24.1582 166.466 25.4939 167.285 26.3511C168.104 27.208 169.367 27.531 170.618 27.531C171.87 27.531 173.132 27.2192 173.951 26.3511C174.065 26.2285 174.167 26.095 174.27 25.9614L177.637 25.9614C177.341 27.0078 176.875 27.9539 176.17 28.6885C174.804 30.1243 172.7 30.6475 170.618 30.6475C168.536 30.6475 166.432 30.1355 165.067 28.6885C163.702 27.2415 163.201 25.0376 163.201 22.845C163.201 20.6521 163.69 18.437 165.067 17.0012C166.443 15.5654 168.536 15.0422 170.618 15.0422C172.7 15.0422 174.804 15.5542 176.17 17.0012C177.546 18.4482 178.035 20.6521 178.035 22.845Z" fill-rule="nonzero" fill="#4D6BFE"/>
		<rect id="rect" x="180.321533" y="10.022217" width="3.412687" height="20.625223" fill="#4D6BFE"/>
		<path id="polygon" d="M189.559 22.3772L195.155 30.6475L190.935 30.6475L185.338 22.3772L190.935 15.7322L195.155 15.7322L189.559 22.3772Z" fill-rule="nonzero" fill="#4D6BFE"/>
	</g>
	<path id="path" d="M55.6128 3.47119C55.0175 3.17944 54.7611 3.73535 54.413 4.01782C54.2939 4.10889 54.1932 4.22729 54.0924 4.33667C53.2223 5.26587 52.2057 5.87646 50.8776 5.80347C48.9359 5.69409 47.2781 6.30469 45.8126 7.78979C45.5012 5.9585 44.4663 4.86499 42.8909 4.16357C42.0667 3.79907 41.2332 3.43457 40.6561 2.64185C40.2532 2.07715 40.1432 1.44849 39.9418 0.828857C39.8135 0.455322 39.6853 0.0725098 39.2548 0.00878906C38.7877 -0.0639648 38.6045 0.327637 38.4213 0.655762C37.6886 1.99512 37.4047 3.47119 37.4321 4.96533C37.4962 8.32739 38.9159 11.0059 41.7369 12.9102C42.0575 13.1289 42.1399 13.3474 42.0392 13.6665C41.8468 14.3225 41.6178 14.9602 41.4164 15.6162C41.2881 16.0354 41.0957 16.1265 40.647 15.9441C39.0991 15.2974 37.7618 14.3406 36.5803 13.1836C34.5745 11.2429 32.761 9.10181 30.4988 7.42529C29.9675 7.03345 29.4363 6.66919 28.8867 6.32275C26.5786 4.08154 29.189 2.24097 29.7935 2.02246C30.4254 1.79468 30.0133 1.01099 27.9708 1.02026C25.9283 1.0293 24.0599 1.71265 21.6786 2.62378C21.3306 2.7605 20.9641 2.8606 20.5886 2.94263C18.4271 2.53271 16.1831 2.44141 13.8384 2.70581C9.42371 3.19775 5.89758 5.28418 3.30554 8.84668C0.191406 13.1289 -0.54126 17.9941 0.356323 23.0691C1.29968 28.4172 4.02905 32.8452 8.22388 36.3076C12.5745 39.8972 17.5845 41.6558 23.2997 41.3186C26.771 41.1182 30.6361 40.6536 34.9958 36.9636C36.0948 37.5103 37.2489 37.7288 39.1632 37.8928C40.6378 38.0295 42.0575 37.8201 43.1565 37.5923C44.8784 37.2278 44.7594 35.6333 44.1366 35.3418C39.09 32.9912 40.1981 33.9478 39.1907 33.1733C41.7552 30.1394 45.6204 26.9868 47.1316 16.7732C47.2506 15.9624 47.1499 15.4521 47.1316 14.7961C47.1224 14.3953 47.214 14.2405 47.672 14.1948C48.9359 14.0491 50.1632 13.7029 51.2898 13.0833C54.5596 11.2976 55.8784 8.36377 56.1898 4.84692C56.2357 4.30933 56.1807 3.75342 55.6128 3.47119ZM27.119 35.123C22.2281 31.2783 19.856 30.0117 18.8759 30.0664C17.96 30.1211 18.1249 31.1689 18.3263 31.8523C18.537 32.5264 18.8118 32.9912 19.1964 33.5833C19.462 33.9751 19.6453 34.5581 18.9309 34.9956C17.3555 35.9705 14.6169 34.6675 14.4886 34.6038C11.3014 32.7268 8.63611 30.2485 6.75842 26.8594C4.94495 23.5974 3.89172 20.0989 3.71765 16.3633C3.67188 15.4614 3.9375 15.1423 4.83508 14.9785C6.0166 14.7598 7.23474 14.7141 8.41626 14.8872C13.408 15.6162 17.6577 17.8484 21.2206 21.3835C23.2539 23.397 24.7926 25.8025 26.3772 28.1531C28.0624 30.6494 29.8759 33.0276 32.184 34.9773C32.9991 35.6606 33.6494 36.1799 34.2722 36.5627C32.3947 36.7722 29.2622 36.8179 27.119 35.123ZM29.4637 20.0442C29.4637 19.6433 29.7843 19.3245 30.1874 19.3245C30.2789 19.3245 30.3613 19.3425 30.4346 19.3699C30.5354 19.4065 30.627 19.4612 30.7002 19.543C30.8285 19.6707 30.9017 19.8528 30.9017 20.0442C30.9017 20.4451 30.5812 20.7639 30.1782 20.7639C29.7751 20.7639 29.4637 20.4451 29.4637 20.0442ZM36.7452 23.7798C36.2781 23.9712 35.811 24.135 35.3622 24.1533C34.6661 24.1897 33.9059 23.9072 33.4938 23.561C32.8527 23.0234 32.3947 22.7229 32.2023 21.7844C32.1199 21.3835 32.1656 20.7639 32.239 20.4087C32.4038 19.6433 32.2206 19.1514 31.6803 18.7048C31.2406 18.3403 30.6819 18.2402 30.0682 18.2402C29.8392 18.2402 29.6287 18.1399 29.4729 18.0579C29.2164 17.9304 29.0059 17.6116 29.2073 17.2197C29.2714 17.0923 29.5829 16.7825 29.6561 16.7278C30.4896 16.2539 31.4513 16.4089 32.3397 16.7642C33.1641 17.1013 33.7869 17.7209 34.6844 18.5955C35.6003 19.6523 35.7651 19.9441 36.2872 20.7366C36.6995 21.3562 37.075 21.9939 37.3314 22.7229C37.4871 23.1785 37.2856 23.552 36.7452 23.7798Z" fill-rule="nonzero" fill="#4D6BFE"/>
</svg>
