<svg width="16" height="16" viewBox="0 0 16 16" fill="none" xmlns="http://www.w3.org/2000/svg">
<path d="M14.6667 6H1.33337M9.33337 11.6667L11 10L9.33337 8.33333M6.66671 8.33333L5.00004 10L6.66671 11.6667M1.33337 5.2L1.33337 10.8C1.33337 11.9201 1.33337 12.4802 1.55136 12.908C1.74311 13.2843 2.04907 13.5903 2.42539 13.782C2.85322 14 3.41327 14 4.53337 14H11.4667C12.5868 14 13.1469 14 13.5747 13.782C13.951 13.5903 14.257 13.2843 14.4487 12.908C14.6667 12.4802 14.6667 11.9201 14.6667 10.8V5.2C14.6667 4.0799 14.6667 3.51984 14.4487 3.09202C14.257 2.7157 13.951 2.40973 13.5747 2.21799C13.1469 2 12.5868 2 11.4667 2L4.53337 2C3.41327 2 2.85322 2 2.42539 2.21799C2.04907 2.40973 1.74311 2.71569 1.55136 3.09202C1.33337 3.51984 1.33337 4.0799 1.33337 5.2Z" stroke="#344054" stroke-width="1.25" stroke-linecap="round" stroke-linejoin="round"/>
</svg>
