<svg xmlns="http://www.w3.org/2000/svg" width="18" height="18" viewBox="0 0 18 18"><defs><linearGradient id="fd61c0da-1f70-4882-b1d9-4e1439860343" x1="7.822" y1="17.653" x2="7.822" gradientUnits="userSpaceOnUse"><stop offset="0" stop-color="#0078d4" /><stop offset="0.817" stop-color="#5ea0ef" /></linearGradient></defs><g id="a10557d0-9eba-48db-bcc1-2d84120ca6a5"><g><path d="M8.824.132H1.311A.594.594,0,0,0,.718.726v16.2a.594.594,0,0,0,.593.594H14.332a.594.594,0,0,0,.593-.594V6.205a.594.594,0,0,0-.593-.594H10.01a.594.594,0,0,1-.593-.594V.726A.593.593,0,0,0,8.824.132Z" fill="#83b9f9" /><path d="M8.55.89V4.96a1.494,1.494,0,0,0,1.491,1.493h4.1v10.31H1.5V.89H8.55M8.837,0H1.215a.6.6,0,0,0-.6.6V17.05a.6.6,0,0,0,.6.6H14.428a.6.6,0,0,0,.6-.6V6.165a.6.6,0,0,0-.6-.6H10.041a.6.6,0,0,1-.6-.6V.6a.6.6,0,0,0-.6-.6Z" fill="url(#fd61c0da-1f70-4882-b1d9-4e1439860343)" /><path d="M14.8,5.683,9.232.132V4.655a1.022,1.022,0,0,0,1.015,1.028Z" fill="#0078d4" /></g><rect x="2.686" y="8.329" width="9.713" height="1.36" rx="0.567" fill="#fff" /><rect x="2.686" y="11.083" width="9.713" height="1.36" rx="0.567" fill="#fff" opacity="0.8" /><rect x="2.686" y="13.838" width="9.713" height="1.36" rx="0.567" fill="#fff" opacity="0.6" /><g><path d="M12.71,17.787c-2.076,0-3.783-1.6-4.685-4.4A45.578,45.578,0,0,0,6.052,9.118c1.32.014,5.935.063,6.818.063,2.112,0,3.749,2.524,3.749,4.7A3.914,3.914,0,0,1,12.71,17.787Z" fill="#50e6ff" /><path d="M6.4,9.335c1.644.017,5.656.059,6.469.059,1.992,0,3.536,2.41,3.536,4.483a3.7,3.7,0,0,1-3.7,3.7c-1.977,0-3.611-1.55-4.483-4.253A41.272,41.272,0,0,0,6.4,9.335M5.7,8.9s1.739,3.366,2.121,4.55C8.7,16.174,10.433,18,12.71,18a4.123,4.123,0,0,0,4.123-4.123c0-2.277-1.685-4.91-3.963-4.91C11.837,8.967,5.7,8.9,5.7,8.9Z" fill="#50e6ff" /></g><g><circle cx="12.87" cy="13.484" r="4.516" fill="#fff" /><path d="M12.87,9.446a4.038,4.038,0,1,1-4.037,4.038A4.042,4.042,0,0,1,12.87,9.446m0-.479a4.517,4.517,0,1,0,4.517,4.517A4.516,4.516,0,0,0,12.87,8.967Z" fill="#50e6ff" /></g><path d="M12.324,12.9H10.866V11.44h1.458Zm2.551-1.458H13.417V12.9h1.458ZM12.324,14H10.866v1.458h1.458Zm2.551,0H13.417v1.458h1.458Z" fill="#50e6ff" /></g></svg>