<svg width="137" height="163" viewBox="0 0 137 163" fill="none" xmlns="http://www.w3.org/2000/svg">
<path fill-rule="evenodd" clip-rule="evenodd" d="M104.652 29.325L103.017 35.0547H114.393L116.014 29.325H104.652ZM88.9956 39.352L87.346 45.0817H111.549L113.17 39.352H88.9956ZM72.8984 55.1088L74.5479 49.379H110.326L108.705 55.1088H72.8984ZM30.4937 59.4061L28.8442 65.1358H105.861L107.482 59.4061H30.4937ZM33.3802 75.1628L35.0298 69.4331H104.638L103.017 75.1628H33.3802ZM37.3478 135.325L38.9973 129.595H27.6069L26 135.325H37.3478ZM54.6682 119.568L53.0186 125.298H28.8442L30.4511 119.568H54.6682ZM67.4662 115.271L69.1157 109.541H33.2949L31.688 115.271H67.4662ZM113.17 99.5142L111.521 105.244H34.5322L36.1391 99.5142H113.17ZM106.97 95.2169L108.62 89.4871H38.9832L37.3763 95.2169H106.97ZM102.021 79.4601L100.372 85.1898H35.0724L36.6793 79.4601H102.021Z" fill="#805CFB"/>
</svg>
