<svg width="500" height="162" viewBox="0 0 500 162" fill="none" xmlns="http://www.w3.org/2000/svg">
<path fill-rule="evenodd" clip-rule="evenodd" d="M42.5305 42L40.0623 50.518H16.3342L18.7422 42H42.5305ZM38.0367 59.8974L29.007 92.1937C27.2612 98.4243 29.007 102.277 33.9432 102.277C38.8795 102.277 43.575 98.5146 52.8455 88.5518L61.1227 59.8974H71.9584L61.1227 98.0631C60.28 100.862 61.1227 102.277 63.5909 102.277C66.1596 102.277 71.0349 100.118 82.6087 93.5465L89.8095 68.4768H77.9805L80.4486 59.8986H103.264L101.006 67.634L100.404 69.6808C102.382 67.3205 104.843 65.4115 107.621 64.0824C110.398 62.7532 113.429 62.0348 116.507 61.9754C128.848 61.9754 136.945 71.878 136.945 85.9042C136.945 102.338 125.778 114.769 111.029 114.769C106.921 114.842 102.895 113.609 99.5315 111.248L98.9596 110.826L98.7188 110.616L97.7255 109.743C94.829 106.928 92.7933 103.347 91.8562 99.4187L81.9837 133.762H71.0577L79.4382 104.585C69.4379 110.003 64.3802 111.668 60.1295 111.668C51.4308 111.668 47.9092 106.28 50.4977 96.8892L50.7385 95.9561C41.3476 107.334 35.2375 111.668 28.4351 111.668C19.4054 111.668 14.6798 103.812 17.7499 93.2472L24.7931 68.4756H25.1522L25.1604 68.4456H0L2.40793 59.8974L27.4999 59.8974H38.0367ZM97.0332 91.1414C97.0332 100.322 102.511 105.679 110.096 105.679C119.577 105.679 126.621 97.0409 126.621 85.7838C126.621 76.8143 121.564 71.0352 113.889 71.0352C104.287 71.0352 97.0332 80.5165 97.0332 91.1414ZM201.953 72.3305H216.822V63.692H201.953V46.3249H201.743L191.419 54.3312V63.692H182.871V72.3305H191.419V99.0585C191.419 102.43 191.419 114.861 205.114 114.861C208.988 115.003 212.812 113.952 216.07 111.851V103.965H215.859C213.598 105.225 211.072 105.936 208.485 106.041C203.218 106.041 201.953 102.279 201.953 94.9951V72.3305ZM142.031 100.5V109.53C147.611 113.051 154.065 114.938 160.663 114.978C171.107 114.978 179.324 109.59 179.324 99.597C179.324 89.4421 170.197 86.5376 162.598 84.1193C157.179 82.3946 152.536 80.9172 152.536 77.2334C152.536 73.6516 156.028 71.2136 161.807 71.2136C167.043 71.2212 172.142 72.8859 176.375 75.9692H176.585V66.9395C172.007 64.0811 166.722 62.5591 161.325 62.545C150.188 62.545 142.814 68.5648 142.814 77.9257C142.814 87.5253 151.332 90.2816 158.735 92.6769C164.423 94.5174 169.452 96.1448 169.452 100.5C169.452 104.292 165.569 106.7 159.549 106.7C153.327 106.458 147.332 104.292 142.393 100.5H142.031ZM266.552 79.4936V113.746H258.425L257.492 106.071C255.696 108.954 253.167 111.308 250.163 112.895C247.16 114.481 243.79 115.242 240.396 115.101C230.915 115.101 222.066 109.623 222.066 99.5095C222.066 87.801 232.6 84.1289 244.188 84.1289C251.894 84.1289 256.228 83.7075 256.228 78.7412C256.228 73.7748 251.773 71.6077 244.73 71.6077C237.667 71.573 230.852 74.2068 225.647 78.982H225.437L225.768 69.5007C231.407 65.0923 238.299 62.5844 245.453 62.3371C255.897 62.2168 266.552 66.551 266.552 79.4936ZM256.77 93.6402V88.3729C254.422 91.3828 249.697 92.045 243.466 92.045C237.236 92.045 232.42 94.3626 232.42 99.4193C232.42 104.476 237.567 106.794 242.623 106.794C244.427 106.908 246.236 106.654 247.938 106.046C249.641 105.439 251.202 104.49 252.526 103.26C253.849 102.029 254.909 100.541 255.638 98.8869C256.368 97.2331 256.753 95.4478 256.77 93.6402ZM324.577 63.6931H316.481L315.307 72.2412C313.561 69.1151 310.983 66.5344 307.859 64.7861C304.734 63.0379 301.186 62.1906 297.609 62.3386C284.756 62.3386 273.891 72.3315 273.891 87.6218C273.891 103.424 284.425 112.905 296.856 112.905C300.191 113.01 303.501 112.297 306.497 110.828C309.493 109.359 312.084 107.178 314.043 104.477V108.481C314.043 118.925 307.722 124.614 298.451 124.614C290.792 124.634 283.357 122.032 277.382 117.239H277.171V126.811C283.552 131.553 291.347 134.003 299.294 133.764C314.253 133.764 324.577 124.704 324.577 106.494V63.6931ZM299.806 71.3984C309.287 71.3984 314.584 79.2844 314.584 87.5014C314.584 96.0496 309.287 103.845 299.806 103.845C289.602 103.845 284.756 95.9292 284.756 87.5014C284.756 79.0737 289.271 71.3984 299.806 71.3984ZM348.753 91.8308C345.705 91.8308 343.327 92.2803 343.327 95.3068C343.327 100.461 349.606 105.795 359.329 105.795C362.879 105.975 366.43 105.446 369.766 104.241C373.103 103.036 376.157 101.179 378.745 98.7828H378.958V107.773C373.384 112.554 366.207 115.138 358.811 115.024C343.023 115.024 332.02 104.416 332.02 88.5645C331.884 85.1244 332.457 81.6929 333.705 78.4762C334.953 75.2596 336.85 72.3244 339.282 69.8471C341.713 67.3697 344.629 65.4014 347.854 64.0606C351.08 62.7198 354.547 62.034 358.049 62.0447C363.658 61.8285 369.142 63.7075 373.4 67.3041C377.658 70.9007 380.373 75.9484 381 81.4326V91.8308H348.753ZM350.246 84.1895H370.424C370.49 82.458 370.188 80.7321 369.538 79.1217C368.887 77.5114 367.902 76.052 366.646 74.8367C365.39 73.6214 363.89 72.677 362.242 72.0636C360.594 71.4502 358.833 71.1813 357.074 71.2742C347.93 71.2742 343.114 77.567 342.474 86.4968C344.704 84.8454 347.459 84.0275 350.246 84.1895Z" fill="#805CFB"/>
<path fill-rule="evenodd" clip-rule="evenodd" d="M487.652 28L486.017 33.7297H497.393L499.014 28H487.652Z" fill="#805CFB"/>
<path fill-rule="evenodd" clip-rule="evenodd" d="M471.995 38.027L470.346 43.7568H494.549L496.17 38.027H471.995Z" fill="#805CFB"/>
<path fill-rule="evenodd" clip-rule="evenodd" d="M457.548 48.054L455.898 53.7838H491.705L493.326 48.054H457.548Z" fill="#805CFB"/>
<path fill-rule="evenodd" clip-rule="evenodd" d="M413.494 58.0811L411.844 63.8108H488.861L490.482 58.0811H413.494Z" fill="#805CFB"/>
<path fill-rule="evenodd" clip-rule="evenodd" d="M418.03 68.1081L416.38 73.8378H486.017L487.638 68.1081H418.03Z" fill="#805CFB"/>
<path fill-rule="evenodd" clip-rule="evenodd" d="M420.348 134L421.997 128.27H410.607L409 134H420.348Z" fill="#805CFB"/>
<path fill-rule="evenodd" clip-rule="evenodd" d="M436.019 123.973L437.668 118.243H413.451L411.844 123.973H436.019Z" fill="#805CFB"/>
<path fill-rule="evenodd" clip-rule="evenodd" d="M450.466 113.946L452.116 108.216H416.295L414.688 113.946H450.466Z" fill="#805CFB"/>
<path fill-rule="evenodd" clip-rule="evenodd" d="M494.521 103.919L496.17 98.1891H419.139L417.532 103.919H494.521Z" fill="#805CFB"/>
<path fill-rule="evenodd" clip-rule="evenodd" d="M489.97 93.8919L491.62 88.1622H421.983L420.376 93.8919H489.97Z" fill="#805CFB"/>
<path fill-rule="evenodd" clip-rule="evenodd" d="M483.372 83.8649L485.021 78.1351H419.679L418.073 83.8649H483.372Z" fill="#805CFB"/>
</svg>
