<!DOCTYPE svg PUBLIC "-//W3C//DTD SVG 1.1//EN" "http://www.w3.org/Graphics/SVG/1.1/DTD/svg11.dtd">
<!-- Uploaded to: SVG Repo, www.svgrepo.com, Transformed by: SVG Repo Mixer Tools -->
<svg fill="#4aa4f8" width="800px" height="800px" viewBox="0 0 1024 1024" xmlns="http://www.w3.org/2000/svg" class="icon" stroke="#4aa4f8">
<g id="SVGRepo_bgCarrier" stroke-width="0"/>
<g id="SVGRepo_tracerCarrier" stroke-linecap="round" stroke-linejoin="round"/>
<g id="SVGRepo_iconCarrier"> <path d="M512 64C264.6 64 64 264.6 64 512s200.6 448 448 448 448-200.6 448-448S759.4 64 512 64zm227 385.3c-1 4.2-3.5 10.4-7 17.8h.1l-.4.7c-20.3 43.1-73.1 127.7-73.1 127.7s-.1-.2-.3-.5l-15.5 26.8h74.5L575.1 810l32.3-128h-58.6l20.4-84.7c-16.5 3.9-35.9 9.4-59 16.8 0 0-31.2 18.2-89.9-35 0 0-39.6-34.7-16.6-43.4 9.8-3.7 47.4-8.4 77-12.3 40-5.4 64.6-8.2 64.6-8.2S422 517 392.7 512.5c-29.3-4.6-66.4-53.1-74.3-95.8 0 0-12.2-23.4 26.3-12.3 38.5 11.1 197.9 43.2 197.9 43.2s-207.4-63.3-221.2-78.7c-13.8-15.4-40.6-84.2-37.1-126.5 0 0 1.5-10.5 12.4-7.7 0 0 153.3 69.7 258.1 107.9 104.8 37.9 195.9 57.3 184.2 106.7z"/> </g>
</svg>