<svg width="16" height="16" viewBox="0 0 16 16" fill="none" xmlns="http://www.w3.org/2000/svg">
<g id="Icon">
<path id="Vector" d="M8 1C4.1325 1 1 4.1325 1 8C1 11.0975 3.00375 13.7137 5.78625 14.6413C6.13625 14.7025 6.2675 14.4925 6.2675 14.3088C6.2675 14.1425 6.25875 13.5913 6.25875 13.005C4.5 13.3288 4.045 12.5763 3.905 12.1825C3.82625 11.9812 3.485 11.36 3.1875 11.1937C2.9425 11.0625 2.5925 10.7387 3.17875 10.73C3.73 10.7212 4.12375 11.2375 4.255 11.4475C4.885 12.5062 5.89125 12.2088 6.29375 12.025C6.355 11.57 6.53875 11.2638 6.74 11.0887C5.1825 10.9137 3.555 10.31 3.555 7.6325C3.555 6.87125 3.82625 6.24125 4.2725 5.75125C4.2025 5.57625 3.9575 4.85875 4.3425 3.89625C4.3425 3.89625 4.92875 3.7125 6.2675 4.61375C6.8275 4.45625 7.4225 4.3775 8.0175 4.3775C8.6125 4.3775 9.2075 4.45625 9.7675 4.61375C11.1063 3.70375 11.6925 3.89625 11.6925 3.89625C12.0775 4.85875 11.8325 5.57625 11.7625 5.75125C12.2087 6.24125 12.48 6.8625 12.48 7.6325C12.48 10.3187 10.8438 10.9137 9.28625 11.0887C9.54 11.3075 9.75875 11.7275 9.75875 12.3837C9.75875 13.32 9.75 14.0725 9.75 14.3088C9.75 14.4925 9.88125 14.7113 10.2312 14.6413C11.6209 14.1721 12.8284 13.279 13.6839 12.0877C14.5393 10.8963 14.9996 9.46668 15 8C15 4.1325 11.8675 1 8 1Z" fill="#676F83"/>
</g>
</svg>
