<svg viewBox="-29.62167543756803 0.1 574.391675437568 799.8100000000002" xmlns="http://www.w3.org/2000/svg" width="1888"
     height="2500">
    <linearGradient id="a" gradientUnits="userSpaceOnUse" x1="286.383" x2="542.057" y1="284.169" y2="569.112">
        <stop offset="0" stop-color="#37bdff"/>
        <stop offset=".25" stop-color="#26c6f4"/>
        <stop offset=".5" stop-color="#15d0e9"/>
        <stop offset=".75" stop-color="#3bd6df"/>
        <stop offset="1" stop-color="#62dcd4"/>
    </linearGradient>
    <linearGradient id="b" gradientUnits="userSpaceOnUse" x1="108.979" x2="100.756" y1="675.98" y2="43.669">
        <stop offset="0" stop-color="#1b48ef"/>
        <stop offset=".5" stop-color="#2080f1"/>
        <stop offset="1" stop-color="#26b8f4"/>
    </linearGradient>
    <linearGradient id="c" gradientUnits="userSpaceOnUse" x1="256.823" x2="875.632" y1="649.719" y2="649.719">
        <stop offset="0" stop-color="#39d2ff"/>
        <stop offset=".5" stop-color="#248ffa"/>
        <stop offset="1" stop-color="#104cf5"/>
    </linearGradient>
    <linearGradient id="d" gradientUnits="userSpaceOnUse" x1="256.823" x2="875.632" y1="649.719" y2="649.719">
        <stop offset="0" stop-color="#fff"/>
        <stop offset="1"/>
    </linearGradient>
    <path d="M249.97 277.48c-.12.96-.12 2.05-.12 3.12 0 4.16.83 8.16 2.33 11.84l1.34 2.76 5.3 13.56 27.53 70.23 24.01 61.33c6.85 12.38 17.82 22.1 31.05 27.28l4.11 1.51c.16.05.43.05.65.11l65.81 22.63v.05l25.16 8.64 1.72.58c.06 0 .16.06.22.06 4.96 1.25 9.82 2.93 14.46 4.98 10.73 4.63 20.46 11.23 28.77 19.28 3.35 3.2 6.43 6.65 9.28 10.33a88.64 88.64 0 0 1 6.64 9.72c8.78 14.58 13.82 31.72 13.82 49.97 0 3.26-.16 6.41-.49 9.61-.11 1.41-.28 2.77-.49 4.12v.11c-.22 1.43-.49 2.91-.76 4.36-.28 1.41-.54 2.81-.86 4.21-.05.16-.11.33-.17.49-.3 1.42-.68 2.82-1.07 4.23-.35 1.33-.79 2.7-1.28 3.99a42.96 42.96 0 0 1-1.51 4.16c-.49 1.4-1.07 2.82-1.72 4.16-1.78 4.11-3.9 8.06-6.28 11.83a97.889 97.889 0 0 1-10.47 13.95c30.88-33.2 51.41-76.07 56.52-123.51.86-7.78 1.3-15.67 1.3-23.61 0-5.07-.22-10.09-.55-15.13-3.89-56.89-29.79-107.77-69.32-144.08-10.9-10.09-22.81-19.07-35.62-26.69l-24.2-12.37-122.63-62.93a30.15 30.15 0 0 0-11.93-2.44c-15.88 0-28.99 12.11-30.55 27.56z"
          fill="#7f7f7f"/>
    <path d="M249.97 277.48c-.12.96-.12 2.05-.12 3.12 0 4.16.83 8.16 2.33 11.84l1.34 2.76 5.3 13.56 27.53 70.23 24.01 61.33c6.85 12.38 17.82 22.1 31.05 27.28l4.11 1.51c.16.05.43.05.65.11l65.81 22.63v.05l25.16 8.64 1.72.58c.06 0 .16.06.22.06 4.96 1.25 9.82 2.93 14.46 4.98 10.73 4.63 20.46 11.23 28.77 19.28 3.35 3.2 6.43 6.65 9.28 10.33a88.64 88.64 0 0 1 6.64 9.72c8.78 14.58 13.82 31.72 13.82 49.97 0 3.26-.16 6.41-.49 9.61-.11 1.41-.28 2.77-.49 4.12v.11c-.22 1.43-.49 2.91-.76 4.36-.28 1.41-.54 2.81-.86 4.21-.05.16-.11.33-.17.49-.3 1.42-.68 2.82-1.07 4.23-.35 1.33-.79 2.7-1.28 3.99a42.96 42.96 0 0 1-1.51 4.16c-.49 1.4-1.07 2.82-1.72 4.16-1.78 4.11-3.9 8.06-6.28 11.83a97.889 97.889 0 0 1-10.47 13.95c30.88-33.2 51.41-76.07 56.52-123.51.86-7.78 1.3-15.67 1.3-23.61 0-5.07-.22-10.09-.55-15.13-3.89-56.89-29.79-107.77-69.32-144.08-10.9-10.09-22.81-19.07-35.62-26.69l-24.2-12.37-122.63-62.93a30.15 30.15 0 0 0-11.93-2.44c-15.88 0-28.99 12.11-30.55 27.56z"
          fill="url(#a)"/>
    <path d="M31.62.1C14.17.41.16 14.69.16 32.15v559.06c.07 3.9.29 7.75.57 11.66.25 2.06.52 4.2.9 6.28 7.97 44.87 47.01 78.92 94.15 78.92 16.53 0 32.03-4.21 45.59-11.53.08-.06.22-.14.29-.14l4.88-2.95 19.78-11.64 25.16-14.93.06-496.73c0-33.01-16.52-62.11-41.81-79.4-.6-.36-1.18-.74-1.71-1.17L50.12 5.56C45.16 2.28 39.18.22 32.77.1z"
          fill="#7f7f7f"/>
    <path d="M31.62.1C14.17.41.16 14.69.16 32.15v559.06c.07 3.9.29 7.75.57 11.66.25 2.06.52 4.2.9 6.28 7.97 44.87 47.01 78.92 94.15 78.92 16.53 0 32.03-4.21 45.59-11.53.08-.06.22-.14.29-.14l4.88-2.95 19.78-11.64 25.16-14.93.06-496.73c0-33.01-16.52-62.11-41.81-79.4-.6-.36-1.18-.74-1.71-1.17L50.12 5.56C45.16 2.28 39.18.22 32.77.1z"
          fill="url(#b)"/>
    <path d="M419.81 510.84L194.72 644.26l-3.24 1.95v.71l-25.16 14.9-19.77 11.67-4.85 2.93-.33.16c-13.53 7.35-29.04 11.51-45.56 11.51-47.13 0-86.22-34.03-94.16-78.92 3.77 32.84 14.96 63.41 31.84 90.04 34.76 54.87 93.54 93.04 161.54 99.67h41.58c36.78-3.84 67.49-18.57 99.77-38.46l49.64-30.36c22.36-14.33 83.05-49.58 100.93-69.36 3.89-4.33 7.4-8.97 10.47-13.94 2.38-3.78 4.5-7.73 6.28-11.84.6-1.4 1.17-2.76 1.72-4.15.52-1.38 1.01-2.77 1.51-4.18.93-2.7 1.67-5.41 2.38-8.2.36-1.59.69-3.16 1.02-4.72 1.08-5.89 1.67-11.94 1.67-18.21 0-18.25-5.04-35.39-13.77-49.95-2-3.4-4.2-6.65-6.64-9.72-2.85-3.7-5.93-7.13-9.28-10.33-8.31-8.05-18.01-14.65-28.77-19.29-4.64-2.05-9.48-3.74-14.46-4.97-.06 0-.16-.06-.22-.06l-1.72-.58z"
          fill="#7f7f7f"/>
    <path d="M419.81 510.84L194.72 644.26l-3.24 1.95v.71l-25.16 14.9-19.77 11.67-4.85 2.93-.33.16c-13.53 7.35-29.04 11.51-45.56 11.51-47.13 0-86.22-34.03-94.16-78.92 3.77 32.84 14.96 63.41 31.84 90.04 34.76 54.87 93.54 93.04 161.54 99.67h41.58c36.78-3.84 67.49-18.57 99.77-38.46l49.64-30.36c22.36-14.33 83.05-49.58 100.93-69.36 3.89-4.33 7.4-8.97 10.47-13.94 2.38-3.78 4.5-7.73 6.28-11.84.6-1.4 1.17-2.76 1.72-4.15.52-1.38 1.01-2.77 1.51-4.18.93-2.7 1.67-5.41 2.38-8.2.36-1.59.69-3.16 1.02-4.72 1.08-5.89 1.67-11.94 1.67-18.21 0-18.25-5.04-35.39-13.77-49.95-2-3.4-4.2-6.65-6.64-9.72-2.85-3.7-5.93-7.13-9.28-10.33-8.31-8.05-18.01-14.65-28.77-19.29-4.64-2.05-9.48-3.74-14.46-4.97-.06 0-.16-.06-.22-.06l-1.72-.58z"
          fill="url(#c)"/>
    <path d="M512 595.46c0 6.27-.59 12.33-1.68 18.22-.32 1.56-.65 3.12-1.02 4.7-.7 2.8-1.44 5.51-2.37 8.22-.49 1.4-.99 2.8-1.51 4.16-.54 1.4-1.12 2.76-1.73 4.16a87.873 87.873 0 0 1-6.26 11.83 96.567 96.567 0 0 1-10.48 13.94c-17.88 19.79-78.57 55.04-100.93 69.37l-49.64 30.36c-36.39 22.42-70.77 38.29-114.13 39.38-2.05.06-4.06.11-6.05.11-2.8 0-5.56-.05-8.33-.16-73.42-2.8-137.45-42.25-174.38-100.54a213.368 213.368 0 0 1-31.84-90.04c7.94 44.89 47.03 78.92 94.16 78.92 16.52 0 32.03-4.17 45.56-11.51l.33-.17 4.85-2.92 19.77-11.67 25.16-14.9v-.71l3.24-1.95 225.09-133.43 17.33-10.27 1.72.58c.05 0 .16.06.22.06 4.98 1.23 9.83 2.92 14.46 4.97 10.76 4.64 20.45 11.24 28.77 19.29a92.13 92.13 0 0 1 9.28 10.33c2.44 3.07 4.64 6.32 6.64 9.72 8.73 14.56 13.77 31.7 13.77 49.95z"
          fill="#7f7f7f" opacity=".15"/>
    <path d="M512 595.46c0 6.27-.59 12.33-1.68 18.22-.32 1.56-.65 3.12-1.02 4.7-.7 2.8-1.44 5.51-2.37 8.22-.49 1.4-.99 2.8-1.51 4.16-.54 1.4-1.12 2.76-1.73 4.16a87.873 87.873 0 0 1-6.26 11.83 96.567 96.567 0 0 1-10.48 13.94c-17.88 19.79-78.57 55.04-100.93 69.37l-49.64 30.36c-36.39 22.42-70.77 38.29-114.13 39.38-2.05.06-4.06.11-6.05.11-2.8 0-5.56-.05-8.33-.16-73.42-2.8-137.45-42.25-174.38-100.54a213.368 213.368 0 0 1-31.84-90.04c7.94 44.89 47.03 78.92 94.16 78.92 16.52 0 32.03-4.17 45.56-11.51l.33-.17 4.85-2.92 19.77-11.67 25.16-14.9v-.71l3.24-1.95 225.09-133.43 17.33-10.27 1.72.58c.05 0 .16.06.22.06 4.98 1.23 9.83 2.92 14.46 4.97 10.76 4.64 20.45 11.24 28.77 19.29a92.13 92.13 0 0 1 9.28 10.33c2.44 3.07 4.64 6.32 6.64 9.72 8.73 14.56 13.77 31.7 13.77 49.95z"
          fill="url(#d)" opacity=".15"/>
</svg>