<?xml version="1.0" encoding="UTF-8"?>
<!DOCTYPE svg PUBLIC "-//W3C//DTD SVG 1.1//EN" "http://www.w3.org/Graphics/SVG/1.1/DTD/svg11.dtd">
<svg xmlns="http://www.w3.org/2000/svg" version="1.1" width="64px" height="64px" style="shape-rendering:geometricPrecision; text-rendering:geometricPrecision; image-rendering:optimizeQuality; fill-rule:evenodd; clip-rule:evenodd" xmlns:xlink="http://www.w3.org/1999/xlink">
<g><path style="opacity:1" fill="#fefefe" d="M -0.5,-0.5 C 20.8333,-0.5 42.1667,-0.5 63.5,-0.5C 63.5,20.8333 63.5,42.1667 63.5,63.5C 42.1667,63.5 20.8333,63.5 -0.5,63.5C -0.5,42.1667 -0.5,20.8333 -0.5,-0.5 Z"/></g>
<g><path style="opacity:1" fill="#346df3" d="M 47.5,33.5 C 43.3272,29.8779 38.9939,29.7112 34.5,33C 32.682,35.4897 30.3487,37.3231 27.5,38.5C 23.5003,43.5136 24.167,47.847 29.5,51.5C 24.1563,51.666 18.8229,51.4994 13.5,51C 13,50.5 12.5,50 12,49.5C 11.3333,36.8333 11.3333,24.1667 12,11.5C 12.5,11 13,10.5 13.5,10C 24.1667,9.33333 34.8333,9.33333 45.5,10C 46,10.5 46.5,11 47,11.5C 47.4997,18.8258 47.6663,26.1591 47.5,33.5 Z"/></g>
<g><path style="opacity:1" fill="#f9fafe" d="M 20.5,19.5 C 25.1785,19.3342 29.8452,19.5008 34.5,20C 35.8333,21 35.8333,22 34.5,23C 29.8333,23.6667 25.1667,23.6667 20.5,23C 19.3157,21.8545 19.3157,20.6879 20.5,19.5 Z"/></g>
<g><path style="opacity:1" fill="#f3f6fe" d="M 20.5,27.5 C 22.5273,27.3379 24.5273,27.5045 26.5,28C 27.8333,29 27.8333,30 26.5,31C 24.5,31.6667 22.5,31.6667 20.5,31C 19.3157,29.8545 19.3157,28.6879 20.5,27.5 Z"/></g>
<g><path style="opacity:1" fill="#36d4c1" d="M 47.5,33.5 C 48.7298,35.2972 49.3964,37.2972 49.5,39.5C 51.3904,39.2965 52.8904,39.9632 54,41.5C 55.1825,45.2739 54.3492,48.4406 51.5,51C 44.1742,51.4997 36.8409,51.6663 29.5,51.5C 24.167,47.847 23.5003,43.5136 27.5,38.5C 30.3487,37.3231 32.682,35.4897 34.5,33C 38.9939,29.7112 43.3272,29.8779 47.5,33.5 Z"/></g>
</svg>
