<svg xmlns="http://www.w3.org/2000/svg" xmlns:xlink="http://www.w3.org/1999/xlink" fill="none" version="1.1" width="159" height="24" viewBox="0 0 159 24"><defs><clipPath id="master_svg0_42_18775"><rect x="0" y="0" width="28.5" height="24" rx="0"/></clipPath></defs><g><g clip-path="url(#master_svg0_42_18775)"><g><path d="M6.10294,22C5.68819,22,5.18195,21.8532,4.58421,21.5595C4.46861,21.5027,4.39038,21.4658,4.34951,21.4488C3.49789,21.0943,2.74367,20.5941,2.08684,19.9484C0.695613,18.5806,0,16.9311,0,15C0,13.0689,0.695612,11.4194,2.08684,10.0516C3.24259,8.91537,4.59607,8.2511,6.14728,8.05878C6.34758,5.97414,7.22633,4.16634,8.78354,2.63539C10.5706,0.878463,12.7286,0,15.2573,0C17.2884,0,19.1146,0.595472,20.7358,1.78642C22.327,2.95528,23.4151,4.46783,24,6.32406L22.0568,6.91594C21.6024,5.47377,20.7561,4.29798,19.5181,3.38858C18.2579,2.46286,16.8377,2,15.2573,2C13.2903,2,11.6119,2.6832,10.222,4.04961C8.83217,5.41601,8.13725,7.06614,8.13725,9L8.13725,10L7.12009,10C5.71758,10,4.51932,10.4886,3.52532,11.4659C2.53132,12.4431,2.03431,13.6211,2.03431,15C2.03431,16.3789,2.53132,17.5569,3.52532,18.5341C3.99531,18.9962,4.53447,19.3538,5.14278,19.6071C5.2229,19.6405,5.33983,19.695,5.49356,19.7705C5.80505,19.9235,6.00818,20,6.10294,20L6.10294,22Z" fill-rule="evenodd" fill="#000000" fill-opacity="1" style="mix-blend-mode:passthrough"/></g><g><path d="M20.18796103515625,11.66909C19.46346103515625,11.5762,18.72726103515625,11.52975,17.991011035156248,11.52975C16.728921035156247,11.52975,15.45515103515625,11.66909,14.23981103515625,11.91292C13.02447103515625,12.156749999999999,11.85588103515625,12.539909999999999,10.73402103515625,12.98113C9.98612103515625,13.306239999999999,9.23822103515625,13.69327,8.49031803515625,14.14223C7.99950790415625,14.43251,7.85927603515625,15.10595,8.15142503515625,15.59361L11.11966103515625,19.9478C11.45855103515625,20.4354,12.13634103515625,20.5747,12.627151035156249,20.2845C12.821921035156251,20.152900000000002,13.14523103515625,19.990299999999998,13.59708103515625,19.796799999999998C14.27487103515625,19.506500000000003,14.964341035156249,19.3091,15.68887103515625,19.169800000000002C16.413401035156248,19.018900000000002,17.14962103515625,18.926000000000002,17.93258103515625,18.926000000000002L20.071061035156248,11.715530000000001L20.18796103515625,11.66909ZM22.91076103515625,12.20319L22.525161035156252,8L20.18796103515625,11.6807C20.72556103515625,11.72714,21.21636103515625,11.82003,21.74216103515625,11.92453C21.74216103515625,11.91679,22.13166103515625,12.00968,22.91076103515625,12.20319ZM18.09616103515625,18.9724L17.06782103515625,22.4557L18.773961035156248,24L21.11116103515625,23.465899999999998L21.788961035156248,19.5414C21.298161035156248,19.402,20.81896103515625,19.2511,20.32816103515625,19.1582C19.60366103515625,19.076900000000002,18.86746103515625,18.9724,18.09616103515625,18.9724ZM27.49166103515625,14.14223C26.74376103515625,13.69327,25.99586103515625,13.306239999999999,25.24796103515625,12.98113C24.52346103515625,12.69086,23.74046103515625,12.40058,22.95756103515625,12.20319L22.95756103515625,12.40058L21.69546103515625,19.5646C21.89416103515625,19.6575,22.139561035156248,19.7039,22.32646103515625,19.8084C22.77836103515625,20.0019,23.101661035156248,20.1645,23.29646103515625,20.2961C23.78726103515625,20.586399999999998,24.51176103515625,20.4354,24.80396103515625,19.959400000000002L27.77216103515625,15.605229999999999C28.16946103515625,15.05951,28.02926103515625,14.43251,27.49166103515625,14.14223Z" fill="#000000" fill-opacity="1" style="mix-blend-mode:passthrough"/></g></g><g><path d="M53.295,19.1189814453125L51.951,21.2189814453125Q46.05,17.6279814453125,43.971000000000004,13.0079814453125Q42.921,15.4019814453125,40.884,17.3969814453125Q38.847,19.3919814453125,35.97,21.2399814453125L34.5,19.1609814453125Q41.997,14.9609814453125,42.585,9.2489814453125L35.214,9.2489814453125L35.214,7.1069814453125L42.647999999999996,7.1069814453125L42.647999999999996,2.2979812453125L44.958,2.3819804453125L44.958,7.1069814453125L52.455,7.1069814453125L52.455,9.2489814453125L44.916,9.2489814453125L44.894999999999996,9.5219814453125Q45.650999999999996,12.6509814453125,47.646,14.8979814453125Q49.641,17.1449814453125,53.295,19.1189814453125ZM66.021,7.0649814453125L64.215,7.0649814453125L64.215,5.9099814453125L61.653,5.9099814453125L61.653,4.1039814453125L64.215,4.1039814453125L64.215,2.2559814453125L66.021,2.3399810453125L66.021,4.1039814453125L68.77199999999999,4.1039814453125L68.77199999999999,2.2559814453125L70.557,2.3399810453125L70.557,4.1039814453125L73.413,4.1039814453125L73.413,5.9099814453125L70.557,5.9099814453125L70.557,7.0649814453125L68.77199999999999,7.0649814453125L68.77199999999999,5.9099814453125L66.021,5.9099814453125L66.021,7.0649814453125ZM68.814,16.8929814453125Q69.549,17.9009814453125,70.84049999999999,18.6044814453125Q72.132,19.3079814453125,74.19,19.7279814453125L73.62299999999999,21.6179814453125Q69.36,20.5679814453125,67.449,18.1109814453125Q66.693,19.2449814453125,65.202,20.1059814453125Q63.711,20.9669814453125,61.296,21.6389814453125L60.54,19.8119814453125Q62.766,19.3289814453125,64.0575,18.6044814453125Q65.349,17.879981445312502,65.895,16.8929814453125L61.317,16.8929814453125L61.317,15.2339814453125L66.378,15.2339814453125Q66.399,15.1499814453125,66.399,15.0029814453125Q66.42,14.7299814453125,66.42,13.9949814453125L62.262,13.9949814453125L62.262,12.4199814453125L60.96,13.3439814453125Q60.519,12.3779814453125,59.784,11.2439814453125L59.784,21.2189814453125L57.957,21.2189814453125L57.957,12.0839814453125Q56.949,14.6669814453125,55.962,16.3049814453125L54.45,14.7929814453125Q55.332,13.3649814453125,56.193,11.5904814453125Q57.054,9.815981445312499,57.620999999999995,8.1779814453125L55.521,8.1779814453125L55.521,6.2669814453125L57.957,6.2669814453125L57.957,2.3189811453125L59.784,2.4029824453125L59.784,6.2669814453125L61.757999999999996,6.2669814453125L61.757999999999996,8.1779814453125L59.784,8.1779814453125L59.784,10.3829814453125L60.708,9.6689814453125Q61.59,10.7609814453125,62.262,12.0419814453125L62.262,7.5479814453125L72.489,7.5479814453125L72.489,13.9949814453125L68.37299999999999,13.9949814453125Q68.331,14.7089814453125,68.331,15.0029814453125L68.331,15.2339814453125L73.497,15.2339814453125L73.497,16.8929814453125L68.814,16.8929814453125ZM70.809,10.1099814453125L70.809,9.1019814453125L64.005,9.1019814453125L64.005,10.1099814453125L70.809,10.1099814453125ZM70.809,11.4749814453125L64.005,11.4749814453125L64.005,12.4409814453125L70.809,12.4409814453125L70.809,11.4749814453125ZM88.89,13.7639814453125L88.30199999999999,11.8529814453125L89.856,11.7269814453125Q90.63300000000001,11.6639814453125,90.88499999999999,11.4644814453125Q91.137,11.2649814453125,91.137,10.5929814453125L91.137,2.6969814453125L93.09,2.7809824453125L93.09,11.1179814453125Q93.09,12.0839814453125,92.85900000000001,12.5879814453125Q92.628,13.0919814453125,92.0715,13.3229814453125Q91.515,13.5539814453125,90.444,13.6379814453125L88.89,13.7639814453125ZM76.35300000000001,13.5959814453125Q77.445,12.4619814453125,77.928,11.6639814453125Q78.411,10.8659814453125,78.55799999999999,9.8579814453125L76.311,9.8579814453125L76.311,8.0309814453125L78.684,8.0309814453125L78.684,7.4639814453125L78.684,5.2589814453125L76.836,5.2589814453125L76.836,3.3689814453125L86.706,3.3689814453125L86.706,5.2589814453125L84.9,5.2589814453125L84.9,8.0309814453125L87.126,8.0309814453125L87.126,9.8579814453125L84.9,9.8579814453125L84.9,13.4909814453125L82.926,13.4909814453125L82.926,9.8579814453125L80.532,9.8579814453125Q80.364,11.3699814453125,79.797,12.4619814453125Q79.22999999999999,13.5539814453125,77.949,14.8349814453125L76.35300000000001,13.5959814453125ZM87.672,3.7679814453125L89.583,3.8519814453125L89.583,11.0969814453125L87.672,11.0969814453125L87.672,3.7679814453125ZM80.637,5.2589814453125L80.637,7.4849814453125L80.637,8.0309814453125L82.926,8.0309814453125L82.926,5.2589814453125L80.637,5.2589814453125ZM86.223,16.7039814453125L86.223,18.9719814453125L94.32900000000001,18.9719814453125L94.32900000000001,20.8409814453125L76.017,20.8409814453125L76.017,18.9719814453125L84.144,18.9719814453125L84.144,16.7039814453125L78.15899999999999,16.7039814453125L78.15899999999999,14.8769814453125L84.144,14.8769814453125L84.144,13.6799814453125L86.223,13.7639814453125L86.223,14.8769814453125L92.229,14.8769814453125L92.229,16.7039814453125L86.223,16.7039814453125ZM115.119,3.4739814453125L115.119,5.5319814453125L112.494,5.5319814453125L112.494,18.0899814453125Q112.494,19.3289814453125,112.2315,19.9169814453125Q111.969,20.5049814453125,111.3075,20.7569814453125Q110.646,21.0089814453125,109.239,21.1349814453125L107.874,21.2609814453125L107.223,19.1819814453125L108.819,19.0559814453125Q109.554,18.9929814453125,109.8795,18.8669814453125Q110.205,18.7409814453125,110.31,18.4469814453125Q110.415,18.1529814453125,110.415,17.501981445312502L110.415,5.5319814453125L96.59700000000001,5.5319814453125L96.59700000000001,3.4739814453125L115.119,3.4739814453125ZM98.802,7.9679814453125L107.433,7.9679814453125L107.433,17.2499814453125L98.802,17.2499814453125L98.802,7.9679814453125ZM100.797,15.2129814453125L105.459,15.2129814453125L105.459,10.0259814453125L100.797,10.0259814453125L100.797,15.2129814453125ZM132.192,5.1539814453125L126.711,5.1539814453125L126.711,15.1289814453125L124.737,15.1289814453125L124.737,3.1799814453125L134.166,3.1799814453125L134.166,15.0869814453125L132.192,15.0869814453125L132.192,5.1539814453125ZM123.036,18.6569814453125Q122.385,17.2499814453125,121.482,15.4649814453125Q120.327,17.9009814453125,118.311,20.8199814453125L116.715,19.4549814453125Q119.088,16.2839814453125,120.369,13.2179814453125Q118.584,9.7739814453125,117.534,8.0099814453125L119.067,7.0229814453125Q119.76,8.1149814453125,121.251,10.7609814453125Q121.839,8.7449814453125,122.217,6.0989814453125L117.576,6.0989814453125L117.576,4.0829814453125L124.254,4.0829814453125L124.254,6.0989814453125Q123.75,9.8579814453125,122.511,13.0919814453125Q123.771,15.4439814453125,124.695,17.3549814453125L123.036,18.6569814453125ZM135.78300000000002,16.5779814453125Q135.72,17.8379814453125,135.594,18.6359814453125Q135.46800000000002,19.6019814453125,135.237,20.0849814453125Q135.006,20.5679814453125,134.523,20.7779814453125Q134.04000000000002,20.9879814453125,133.095,20.9879814453125L131.247,20.9879814453125Q130.05,20.9879814453125,129.5775,20.4839814453125Q129.10500000000002,19.9799814453125,129.10500000000002,18.6359814453125L129.10500000000002,16.3469814453125Q128.349,17.8379814453125,127.068,19.1399814453125Q125.787,20.4419814453125,123.834,21.7439814453125L122.532,20.0219814453125Q124.863,18.5939814453125,126.0705,17.2394814453125Q127.278,15.8849814453125,127.74,14.2994814453125Q128.202,12.7139814453125,128.286,10.2569814453125L128.349,6.1409814453125L130.449,6.224981445312499L130.386,10.5089814453125Q130.32299999999998,12.2309814453125,130.05,13.5959814453125L131.058,13.6379814453125L131.058,17.9219814453125Q131.058,18.5939814453125,131.226,18.7829814453125Q131.394,18.9719814453125,131.982,18.9719814453125L132.696,18.9719814453125Q133.263,18.9719814453125,133.4625,18.7934814453125Q133.662,18.6149814453125,133.74599999999998,17.942981445312498Q133.872,16.7249814453125,133.872,15.8639814453125L135.78300000000002,16.5779814453125ZM139.374,2.5079814453125Q140.088,2.9909814453125,141.054,3.8204814453125Q142.01999999999998,4.6499814453125,142.587,5.2379814453125L141.39,6.8759814453125Q140.928,6.3089814453125,139.941,5.3954814453125Q138.954,4.4819814453125,138.28199999999998,3.9569814453125L139.374,2.5079814453125ZM152.184,19.0769814453125Q152.751,19.0139814453125,153.014,18.9299814453125Q153.276,18.8459814453125,153.381,18.6359814453125Q153.486,18.4259814453125,153.486,17.9639814453125L153.486,2.6549814453125L155.124,2.7389824453125L155.124,18.5939814453125Q155.124,19.5389814453125,154.95600000000002,20.0009814453125Q154.788,20.4629814453125,154.315,20.6729814453125Q153.84300000000002,20.8829814453125,152.83499999999998,20.9669814453125L151.659,21.0509814453125L151.09199999999998,19.1609814453125L152.184,19.0769814453125ZM142.587,15.8429814453125L142.587,3.4529814453125L149.286,3.4529814453125L149.286,15.7799814453125L147.543,15.7799814453125L147.543,5.2799814453125L144.288,5.2799814453125L144.288,15.8429814453125L142.587,15.8429814453125ZM150.546,16.4099814453125L150.546,4.4819814453125L152.184,4.5659814453125005L152.184,16.4099814453125L150.546,16.4099814453125ZM141.012,19.7279814453125Q142.81799999999998,18.4049814453125,143.679,17.3654814453125Q144.54000000000002,16.3259814453125,144.834,15.0974814453125Q145.128,13.8689814453125,145.128,11.7689814453125L145.128,6.224981445312499L146.76600000000002,6.3089814453125L146.76600000000002,11.7689814453125Q146.76600000000002,14.2889814453125,146.33499999999998,15.8954814453125Q145.905,17.501981445312502,144.95,18.6779814453125Q143.994,19.8539814453125,142.209,21.1979814453125L141.012,19.7279814453125ZM138.639,7.2329814453125Q139.353,7.7369814453125,140.329,8.5874814453125Q141.30599999999998,9.4379814453125,141.957,10.1099814453125L140.76,11.7899814453125Q140.151,11.0969814453125,139.174,10.2044814453125Q138.19799999999998,9.311981445312501,137.421,8.7239814453125L138.639,7.2329814453125ZM137.82,20.2949814453125Q138.156,19.3709814453125,138.933,16.5989814453125Q139.70999999999998,13.8269814453125,139.878,12.9029814453125L140.781,13.1969814453125L141.642,13.4909814453125Q141.369,14.7299814453125,140.66500000000002,17.2814814453125Q139.962,19.8329814453125,139.60500000000002,20.9249814453125L137.82,20.2949814453125ZM147.144,15.9689814453125Q148.86599999999999,17.5439814453125,150.10500000000002,19.1189814453125L148.86599999999999,20.4839814453125Q148.06799999999998,19.4129814453125,147.449,18.6884814453125Q146.829,17.9639814453125,146.01,17.207981445312498L147.144,15.9689814453125Z" fill="#000000" fill-opacity="1"/></g></g></svg>
