<svg xmlns="http://www.w3.org/2000/svg" xmlns:xlink="http://www.w3.org/1999/xlink" fill="none" version="1.1" width="106" height="16" viewBox="0 0 106 16"><defs><clipPath id="master_svg0_36_00924"><rect x="0" y="0" width="19" height="16" rx="0"/></clipPath></defs><g><g clip-path="url(#master_svg0_36_00924)"><g><g><path d="M4.06862,14.6667C3.79213,14.6667,3.45463,14.5688,3.05614,14.373C2.97908,14.3351,2.92692,14.3105,2.89968,14.2992C2.33193,14.0628,1.82911,13.7294,1.39123,13.2989C0.463742,12.3871,0,11.2874,0,10C0,8.71258,0.463742,7.61293,1.39123,6.70107C2.16172,5.94358,3.06404,5.50073,4.09819,5.37252C4.23172,3.98276,4.81755,2.77756,5.85569,1.75693C7.04708,0.585642,8.4857,0,10.1716,0C11.5256,0,12.743,0.396982,13.8239,1.19095C14.8847,1.97019,15.61,2.97855,16,4.21604L14.7045,4.61063C14.4016,3.64918,13.8374,2.86532,13.0121,2.25905C12.1719,1.64191,11.2251,1.33333,10.1716,1.33333C8.8602,1.33333,7.74124,1.7888,6.81467,2.69974C5.88811,3.61067,5.42483,4.71076,5.42483,6L5.42483,6.66667L4.74673,6.66667C3.81172,6.66667,3.01288,6.99242,2.35021,7.64393C1.68754,8.2954,1.35621,9.08076,1.35621,10C1.35621,10.9192,1.68754,11.7046,2.35021,12.3561C2.66354,12.6641,3.02298,12.9026,3.42852,13.0714C3.48193,13.0937,3.55988,13.13,3.66237,13.1803C3.87004,13.2823,4.00545,13.3333,4.06862,13.3333L4.06862,14.6667Z" fill-rule="evenodd" fill="#000000" fill-opacity="1" style="mix-blend-mode:passthrough"/></g><g><path d="M13.458613505859375,7.779393492279053C12.975613505859375,7.717463492279053,12.484813505859375,7.686503492279053,11.993983505859376,7.686503492279053C11.152583505859376,7.686503492279053,10.303403505859375,7.779393492279053,9.493183505859374,7.941943492279053C8.682953505859375,8.104503492279052,7.903893505859375,8.359943492279053,7.155983505859375,8.654083492279053C6.657383505859375,8.870823492279053,6.158783505859375,9.128843492279053,5.660181505859375,9.428153492279053C5.332974751859375,9.621673492279053,5.239486705859375,10.070633492279054,5.434253505859375,10.395743492279053L7.413073505859375,13.298533492279052C7.639003505859375,13.623603492279052,8.090863505859375,13.716463492279052,8.418073505859375,13.523003492279052C8.547913505859375,13.435263492279052,8.763453505859374,13.326893492279053,9.064693505859374,13.197863492279053C9.516553505859374,13.004333492279052,9.976203505859374,12.872733492279053,10.459223505859375,12.779863492279052C10.942243505859375,12.679263492279052,11.433053505859375,12.617333492279052,11.955023505859375,12.617333492279052L13.380683505859375,7.810353492279052L13.458613505859375,7.779393492279053ZM15.273813505859374,8.135463492279053L15.016753505859375,5.333333492279053L13.458613505859375,7.787133492279053C13.817013505859375,7.818093492279052,14.144213505859375,7.880023492279053,14.494743505859375,7.949683492279053C14.494743505859375,7.944523492279053,14.754433505859375,8.006453492279054,15.273813505859374,8.135463492279053ZM12.064083505859376,12.648273492279053L11.378523505859375,14.970463492279054L12.515943505859376,16.00003349227905L14.074083505859376,15.643933492279054L14.525943505859376,13.027603492279052C14.198743505859374,12.934663492279054,13.879283505859375,12.834063492279054,13.552083505859375,12.772133492279053C13.069083505859375,12.717933492279052,12.578283505859375,12.648273492279053,12.064083505859376,12.648273492279053ZM18.327743505859374,9.428153492279053C17.829143505859374,9.128843492279053,17.330543505859374,8.870823492279053,16.831943505859375,8.654083492279053C16.348943505859374,8.460573492279053,15.826943505859376,8.267053492279054,15.305013505859375,8.135463492279053L15.305013505859375,8.267053492279054L14.463613505859374,13.043063492279053C14.596083505859376,13.105003492279053,14.759683505859375,13.135933492279053,14.884283505859376,13.205603492279053C15.185523505859376,13.334623492279052,15.401043505859375,13.443003492279052,15.530943505859375,13.530733492279053C15.858143505859376,13.724263492279054,16.341143505859375,13.623603492279052,16.535943505859375,13.306263492279053L18.514743505859375,10.403483492279053C18.779643505859376,10.039673492279054,18.686143505859377,9.621673492279053,18.327743505859374,9.428153492279053Z" fill="#000000" fill-opacity="1" style="mix-blend-mode:passthrough"/></g></g></g><g><g><path d="M36.174,12.958L35.278,14.358Q31.344,11.964,29.958,8.884Q29.258,10.48,27.9,11.81Q26.542,13.14,24.624,14.372L23.644,12.986Q28.642,10.186,29.034,6.378L24.12,6.378L24.12,4.95L29.076,4.95L29.076,1.743999L30.616,1.7999990000000001L30.616,4.95L35.614000000000004,4.95L35.614000000000004,6.378L30.588,6.378L30.573999999999998,6.56Q31.078,8.646,32.408,10.144Q33.738,11.642,36.174,12.958ZM44.658,4.922000000000001L43.454,4.922000000000001L43.454,4.152L41.745999999999995,4.152L41.745999999999995,2.948L43.454,2.948L43.454,1.716L44.658,1.771999L44.658,2.948L46.492000000000004,2.948L46.492000000000004,1.716L47.682,1.771999L47.682,2.948L49.586,2.948L49.586,4.152L47.682,4.152L47.682,4.922000000000001L46.492000000000004,4.922000000000001L46.492000000000004,4.152L44.658,4.152L44.658,4.922000000000001ZM46.519999999999996,11.474Q47.010000000000005,12.146,47.870999999999995,12.615Q48.732,13.084,50.104,13.364L49.726,14.624Q46.884,13.924,45.61,12.286Q45.106,13.042,44.111999999999995,13.616Q43.117999999999995,14.19,41.507999999999996,14.638L41.004000000000005,13.42Q42.488,13.098,43.349000000000004,12.615Q44.21,12.132,44.574,11.474L41.522,11.474L41.522,10.368L44.896,10.368Q44.91,10.312,44.91,10.214Q44.924,10.032,44.924,9.542L42.152,9.542L42.152,8.492L41.284,9.108Q40.989999999999995,8.464,40.5,7.708L40.5,14.358L39.282,14.358L39.282,8.268Q38.61,9.99,37.952,11.082L36.944,10.074Q37.532,9.122,38.106,7.939Q38.68,6.756,39.058,5.664L37.658,5.664L37.658,4.390000000000001L39.282,4.390000000000001L39.282,1.7579989999999999L40.5,1.814L40.5,4.390000000000001L41.816,4.390000000000001L41.816,5.664L40.5,5.664L40.5,7.134L41.116,6.658Q41.704,7.386,42.152,8.24L42.152,5.244L48.97,5.244L48.97,9.542L46.226,9.542Q46.198,10.018,46.198,10.214L46.198,10.368L49.641999999999996,10.368L49.641999999999996,11.474L46.519999999999996,11.474ZM47.85,6.952L47.85,6.28L43.314,6.28L43.314,6.952L47.85,6.952ZM47.85,7.862L43.314,7.862L43.314,8.506L47.85,8.506L47.85,7.862ZM59.904,9.388L59.512,8.114L60.548,8.030000000000001Q61.066,7.988,61.234,7.855Q61.402,7.722,61.402,7.274L61.402,2.01L62.704,2.066L62.704,7.624Q62.704,8.268,62.55,8.604Q62.396,8.940000000000001,62.025,9.094Q61.654,9.248,60.94,9.304L59.904,9.388ZM51.546,9.276Q52.274,8.52,52.596000000000004,7.988Q52.918,7.456,53.016,6.784L51.518,6.784L51.518,5.566L53.1,5.566L53.1,5.188L53.1,3.718L51.867999999999995,3.718L51.867999999999995,2.458L58.448,2.458L58.448,3.718L57.244,3.718L57.244,5.566L58.728,5.566L58.728,6.784L57.244,6.784L57.244,9.206L55.928,9.206L55.928,6.784L54.332,6.784Q54.22,7.792,53.842,8.52Q53.464,9.248,52.61,10.102L51.546,9.276ZM59.092,2.724L60.366,2.7800000000000002L60.366,7.61L59.092,7.61L59.092,2.724ZM54.402,3.718L54.402,5.202L54.402,5.566L55.928,5.566L55.928,3.718L54.402,3.718ZM58.126,11.348L58.126,12.86L63.53,12.86L63.53,14.106L51.322,14.106L51.322,12.86L56.74,12.86L56.74,11.348L52.75,11.348L52.75,10.13L56.74,10.13L56.74,9.332L58.126,9.388L58.126,10.13L62.13,10.13L62.13,11.348L58.126,11.348ZM77.39,2.528L77.39,3.9L75.64,3.9L75.64,12.272Q75.64,13.098,75.465,13.49Q75.28999999999999,13.882,74.84899999999999,14.05Q74.408,14.218,73.47,14.302L72.56,14.386L72.126,13L73.19,12.916Q73.68,12.874,73.89699999999999,12.79Q74.114,12.706,74.184,12.51Q74.25399999999999,12.314,74.25399999999999,11.88L74.25399999999999,3.9L65.042,3.9L65.042,2.528L77.39,2.528ZM66.512,5.524L72.26599999999999,5.524L72.26599999999999,11.712L66.512,11.712L66.512,5.524ZM67.842,10.354L70.95,10.354L70.95,6.896L67.842,6.896L67.842,10.354ZM88.772,3.648L85.118,3.648L85.118,10.298L83.80199999999999,10.298L83.80199999999999,2.332L90.088,2.332L90.088,10.27L88.772,10.27L88.772,3.648ZM82.668,12.65Q82.23400000000001,11.712,81.632,10.522Q80.862,12.146,79.518,14.092L78.45400000000001,13.182Q80.036,11.068,80.89,9.024Q79.7,6.728,79,5.552L80.02199999999999,4.894Q80.48400000000001,5.622,81.47800000000001,7.386Q81.87,6.042,82.122,4.2780000000000005L79.02799999999999,4.2780000000000005L79.02799999999999,2.934L83.47999999999999,2.934L83.47999999999999,4.2780000000000005Q83.144,6.784,82.318,8.940000000000001Q83.158,10.508,83.774,11.782L82.668,12.65ZM91.166,11.264Q91.124,12.104,91.04,12.636Q90.956,13.28,90.802,13.602Q90.648,13.924,90.326,14.064Q90.004,14.204,89.374,14.204L88.142,14.204Q87.344,14.204,87.029,13.868Q86.714,13.532,86.714,12.636L86.714,11.11Q86.21000000000001,12.104,85.356,12.972Q84.50200000000001,13.84,83.2,14.708L82.332,13.56Q83.886,12.608,84.691,11.705Q85.49600000000001,10.802,85.804,9.745Q86.112,8.687999999999999,86.168,7.05L86.21000000000001,4.306L87.61,4.362L87.568,7.218Q87.526,8.366,87.344,9.276L88.016,9.304L88.016,12.16Q88.016,12.608,88.128,12.734Q88.24,12.86,88.632,12.86L89.108,12.86Q89.486,12.86,89.619,12.741Q89.752,12.622,89.808,12.174Q89.892,11.362,89.892,10.788L91.166,11.264ZM93.56,1.884Q94.036,2.206,94.68,2.759Q95.324,3.312,95.702,3.704L94.904,4.795999999999999Q94.596,4.418,93.938,3.809Q93.28,3.2,92.832,2.85L93.56,1.884ZM102.1,12.93Q102.478,12.888,102.653,12.832Q102.828,12.776,102.898,12.636Q102.968,12.496,102.968,12.188L102.968,1.981999L104.06,2.0380000000000003L104.06,12.608Q104.06,13.238,103.948,13.546Q103.836,13.854,103.521,13.994Q103.206,14.134,102.534,14.19L101.75,14.246L101.372,12.986L102.1,12.93ZM95.702,10.774L95.702,2.5140000000000002L100.168,2.5140000000000002L100.168,10.732L99.006,10.732L99.006,3.732L96.836,3.732L96.836,10.774L95.702,10.774ZM101.008,11.152L101.008,3.2L102.1,3.256L102.1,11.152L101.008,11.152ZM94.652,13.364Q95.856,12.482,96.43,11.789Q97.004,11.096,97.2,10.277Q97.396,9.458,97.396,8.058L97.396,4.362L98.488,4.418L98.488,8.058Q98.488,9.738,98.201,10.809Q97.914,11.88,97.277,12.664Q96.64,13.448,95.45,14.344L94.652,13.364ZM93.07,5.034Q93.546,5.37,94.197,5.937Q94.848,6.504,95.282,6.952L94.484,8.072Q94.078,7.61,93.427,7.015Q92.776,6.42,92.258,6.028L93.07,5.034ZM92.524,13.742Q92.748,13.126,93.266,11.278Q93.784,9.43,93.896,8.814L94.498,9.01L95.072,9.206Q94.89,10.032,94.421,11.733Q93.952,13.434,93.714,14.162L92.524,13.742ZM98.74,10.858Q99.888,11.908,100.714,12.958L99.888,13.868Q99.356,13.154,98.943,12.671Q98.53,12.188,97.984,11.684L98.74,10.858Z" fill="#000000" fill-opacity="1"/></g></g></g></svg>
