<svg width="111" height="24" viewBox="0 0 111 24" fill="none" xmlns="http://www.w3.org/2000/svg">
<g id="Clip path group">
<mask id="mask0_20135_18315" style="mask-type:luminance" maskUnits="userSpaceOnUse" x="0" y="0" width="144" height="24">
<g id="clip0_823_291">
<path id="Vector" d="M143.36 0H0V24H143.36V0Z" fill="white"/>
</g>
</mask>
<g mask="url(#mask0_20135_18315)">
<g id="Group">
<path id="Vector_2" d="M31.9258 17.3144V5.5896H33.5612V15.7456H39.5908V17.3144H31.9258ZM41.5502 11.1713C41.8806 9.47033 43.3343 8.36391 45.1845 8.36391C47.3155 8.36391 48.7197 9.60244 48.7197 12.03V15.3492C48.7197 15.729 48.8849 15.8942 49.2483 15.8942H49.6283V17.3144H49.1657C48.1085 17.3144 47.4807 16.7529 47.3155 15.9768C46.9852 16.7859 45.9609 17.5125 44.5898 17.5125C42.8222 17.5125 41.4016 16.5878 41.4016 15.019C41.4016 13.2024 42.7396 12.6905 44.755 12.3107L47.1173 11.8483C47.1008 10.5107 46.3409 9.85015 45.168 9.85015C44.1768 9.85015 43.45 10.4446 43.2517 11.2868L41.5502 11.1713ZM43.0865 14.9859C43.1031 15.5969 43.6317 16.1089 44.7881 16.1089C46.1096 16.1089 47.1503 15.1841 47.1503 13.6153V13.2355L45.2671 13.5657C44.0447 13.7804 43.0865 13.8795 43.0865 14.9859ZM51.8189 8.56208H53.2892L53.3387 10.0318C53.8013 8.90887 54.7759 8.36391 55.9488 8.36391C57.8981 8.36391 58.8563 9.80061 58.8563 11.6832V17.3144H57.2539V12.096C57.2539 10.5437 56.7418 9.73455 55.5358 9.73455C54.2638 9.73455 53.4213 10.5437 53.4213 12.096V17.3144H51.8189V8.56208ZM64.8465 16.852C62.6824 16.852 61.1461 15.118 61.1461 12.6575C61.1461 10.1144 62.6824 8.36391 64.8465 8.36391C66.0193 8.36391 67.0436 8.99143 67.44 9.89969L67.4565 8.56208H68.9929V16.3566C68.9763 18.7511 67.4565 19.9896 65.1108 19.9896C63.1945 19.9896 61.8069 18.9823 61.3939 17.463L63.0789 17.3474C63.4258 18.107 64.1031 18.5529 65.1108 18.5529C66.5315 18.5529 67.3739 17.9089 67.3905 16.7034V15.3988C66.9444 16.241 65.8872 16.852 64.8465 16.852ZM62.8311 12.641C62.8311 14.2924 63.7066 15.4483 65.1438 15.4483C66.548 15.4483 67.407 14.2924 67.4235 12.641C67.4565 11.0061 66.581 9.85015 65.1438 9.85015C63.7066 9.85015 62.8311 11.0061 62.8311 12.641ZM73.4961 8.18226C73.4961 6.56391 74.3055 5.5896 76.0897 5.5896H78.5015V7.00978H76.0566C75.495 7.00978 75.0985 7.43914 75.0985 8.14923V9.12354H78.3859V10.5437H75.0985V17.3144H73.4961V10.5437H71.1999V9.12354H73.4961V8.18226ZM88.3571 17.3144H86.8373L86.8207 15.8942C86.3582 16.9841 85.4001 17.5125 84.2767 17.5125C82.3605 17.5125 81.4189 16.0758 81.4189 14.1933V8.56208H83.0212V13.7804C83.0212 15.3327 83.5334 16.1419 84.6897 16.1419C85.9287 16.1419 86.7547 15.3327 86.7547 13.7804V8.56208H88.3571V17.3144ZM96.7925 11.3034C96.6108 10.3786 95.7518 9.85015 94.7275 9.85015C93.885 9.85015 93.1086 10.263 93.1251 11.0722C93.1251 11.9474 94.1824 12.1456 95.1571 12.3933C96.8255 12.8061 98.494 13.4171 98.494 15.052C98.494 16.7694 96.842 17.5125 95.0249 17.5125C92.9765 17.5125 91.308 16.3566 91.1758 14.5401L92.8608 14.441C93.026 15.4153 93.9016 16.0263 95.0249 16.0263C95.9004 16.0263 96.809 15.7951 96.809 14.9694C96.809 14.1107 95.7022 13.9621 94.7275 13.7309C93.0756 13.3346 91.4402 12.7235 91.4402 11.1382C91.4402 9.37125 93.026 8.36391 94.8762 8.36391C96.7264 8.36391 98.1636 9.47033 98.4444 11.2043L96.7925 11.3034ZM100.817 12.9382C100.817 10.1474 102.419 8.36391 104.88 8.36391C106.846 8.36391 108.63 9.63547 108.763 12.7896V13.4006H102.518C102.65 15.052 103.493 16.0263 104.88 16.0263C105.756 16.0263 106.549 15.5144 106.929 14.6391L108.63 14.7878C108.135 16.4557 106.632 17.5125 104.88 17.5125C102.419 17.5125 100.817 15.729 100.817 12.9382ZM102.568 12.1125H107.011C106.78 10.4446 105.872 9.85015 104.88 9.85015C103.608 9.85015 102.799 10.6924 102.568 12.1125Z" fill="black"/>
<g id="Clip path group_2">
<mask id="mask1_20135_18315" style="mask-type:luminance" maskUnits="userSpaceOnUse" x="0" y="-1" width="25" height="26">
<g id="clip1_823_291">
<path id="Vector_3" d="M24.5471 -0.0771484H0.308594V24.1529H24.5471V-0.0771484Z" fill="white"/>
</g>
</mask>
<g mask="url(#mask1_20135_18315)">
<g id="Group_2">
<path id="Vector_4" d="M21.9423 16.8532C20.8746 18.2972 19.2396 19.2605 17.3946 19.4012C17.3372 19.4051 17.2797 19.4092 17.2215 19.4124C15.0582 19.5201 13.424 18.5334 12.3404 17.6174C10.4229 16.6027 8.92256 16.3471 8.04475 16.1261C7.4064 15.9654 6.84782 15.644 6.60842 15.4833C6.39617 15.3572 5.96925 15.0647 5.65086 14.5191C5.29416 13.9077 5.27342 13.3235 5.279 13.0752C5.46493 13.0504 5.70512 13.023 5.98601 13.0054C6.21582 12.9909 6.43845 12.9853 6.68823 12.9844C8.62571 12.982 10.1283 13.0768 11.2215 13.5622C11.8128 13.8241 12.361 14.1728 12.8493 14.5979C13.4774 15.1459 14.7613 16.012 16.3437 15.7164C16.5448 15.6786 16.7379 15.6287 16.9239 15.5677C17.4935 15.4857 18.4679 15.4198 19.6154 15.7243C20.7046 16.0136 21.4882 16.5134 21.9423 16.8532Z" fill="#0A60B5" stroke="black" stroke-width="2.56" stroke-miterlimit="10"/>
<path id="Vector_5" d="M21.8003 6.90944C21.319 6.28602 20.7339 5.69669 20.043 5.29456C19.3066 4.86626 18.367 4.49744 17.2306 4.3975C14.4541 4.15321 12.5557 5.69273 12.2099 5.98382C11.7796 6.38753 10.0582 7.81602 7.98609 8.60917C7.62509 8.73768 6.93016 9.0414 6.31253 9.71961C5.82401 10.2557 5.58492 10.8046 5.46777 11.1457C5.71483 11.1798 5.96985 11.2044 6.23284 11.2194C8.2419 11.3313 9.96813 11.3424 11.0974 10.7896C11.8433 10.4247 12.4976 9.90517 13.0618 9.29681C14.0787 8.19987 15.5618 7.71051 16.9118 8.04605C17.5318 8.13247 18.6117 8.19833 19.8605 7.81602C20.7228 7.55189 21.3652 7.21957 21.8003 6.90944Z" fill="#0A60B5" stroke="black" stroke-width="2.56" stroke-miterlimit="10"/>
<path id="Vector_6" d="M2.95884 7.37229C2.1886 6.97653 1.58732 6.52001 1.17721 6.16263C0.947963 5.96275 0.591797 6.12665 0.591797 6.43206V8.92893C0.591797 9.03766 0.640978 9.14079 0.725063 9.20796L1.74835 10.1922C1.80229 9.79638 1.9181 9.25834 2.17829 8.66347C2.4234 8.10227 2.71769 7.67288 2.95884 7.37229Z" fill="#0A60B5" stroke="black" stroke-width="2.56" stroke-miterlimit="10"/>
<path id="Vector_7" d="M19.4326 12.9446C19.5497 12.584 19.6146 12.2056 19.6243 11.8201C19.6323 11.5156 19.597 11.4018 19.5441 11.1069C20.0886 11.0155 20.7686 10.8664 21.3886 10.7061C22.0438 10.537 22.5282 10.3406 23.0727 10.145C23.1521 10.5257 23.2355 10.7109 23.2644 10.993C23.2916 11.2591 23.3085 11.5348 23.3132 11.8201C23.3277 12.7066 23.2194 13.5105 23.0526 14.215C22.5394 13.9488 21.9299 13.6732 21.2282 13.4311C20.5754 13.2051 19.9683 13.0512 19.4326 12.9446Z" fill="#0A60B5" stroke="black" stroke-width="2.56" stroke-miterlimit="10"/>
<path id="Vector_8" d="M1.15342 18.2166C0.918616 18.3871 0.591797 18.2191 0.591797 17.927V14.8605C0.591797 14.7676 0.627493 14.6796 0.689366 14.614C0.720303 14.5812 0.748859 14.5628 0.761552 14.5556L1.77532 14.1204C1.84988 14.5268 1.97284 15.0133 2.17829 15.5429C2.41864 16.1621 2.7042 16.6637 2.95884 17.0454C2.35676 17.4358 1.75469 17.8263 1.15342 18.2166Z" fill="#0A60B5" stroke="black" stroke-width="2.56" stroke-miterlimit="10"/>
<path id="Vector_9" fill-rule="evenodd" clip-rule="evenodd" d="M7.68233 4.81872C9.70993 4.71818 11.2261 5.56713 12.0077 6.13451C11.4161 6.65689 9.81509 7.91742 7.92157 8.64547C7.79386 8.69117 7.62441 8.7588 7.43136 8.85733C6.06118 9.53194 5.24643 10.8764 5.21006 12.3127C5.20395 12.5545 5.21629 12.7953 5.24827 13.032C5.24481 13.0325 5.24136 13.033 5.23794 13.0334C5.23236 13.2797 5.2531 13.8593 5.60958 14.4661C5.9278 15.0073 6.35446 15.2975 6.5666 15.4227C6.67187 15.4928 6.83891 15.5939 7.04732 15.6986C7.29214 15.829 7.56361 15.9383 7.86305 16.0229C7.90892 16.0362 7.95532 16.0488 8.00211 16.0605C8.11111 16.0877 8.22985 16.1159 8.35794 16.1463C9.26137 16.3607 10.6303 16.6854 12.3087 17.5673C12.4783 17.7095 12.6609 17.8529 12.8568 17.993C12.7973 18.0463 12.7472 18.0927 12.7067 18.1309C12.3606 18.4235 10.4609 19.9709 7.68233 19.7254C6.5451 19.625 5.60404 19.2542 4.86793 18.8238C3.62779 18.0991 2.69071 16.9526 2.17951 15.6109C1.85014 14.7459 1.56303 13.6274 1.5423 12.3111C1.52395 11.187 1.70419 10.1969 1.94983 9.37575C2.70188 6.86682 4.89504 5.0268 7.5093 4.82989L7.50941 4.82988C7.5668 4.82589 7.62418 4.82191 7.68233 4.81872ZM21.8835 16.7762C21.4284 16.4391 20.6476 15.947 19.5661 15.6619C18.4192 15.3597 17.4455 15.4251 16.8761 15.5064C16.6902 15.567 16.4972 15.6164 16.2963 15.6539C14.7148 15.9473 13.4316 15.0879 12.8039 14.5442C12.6819 14.4387 12.5561 14.338 12.4269 14.2422C12.8493 13.871 13.3137 13.5508 13.82 13.3021C14.9501 12.7473 16.6775 12.7584 18.6881 12.87C21.4586 13.0247 23.3726 14.3441 24.1367 14.95C24.222 15.0177 24.2707 15.1198 24.2707 15.2282V17.718C24.2707 18.0233 23.9125 18.1867 23.682 17.9867C23.2692 17.6292 22.6618 17.1721 21.8835 16.7762ZM13.0009 9.33672C12.8193 9.5334 12.6283 9.72087 12.4279 9.89693C12.8159 10.1847 13.2353 10.4283 13.6788 10.6234C14.7715 11.1049 16.2732 11.199 18.2095 11.1966C21.0495 11.1926 23.1406 10.1235 24.1 9.54153C24.206 9.47696 24.2707 9.36218 24.2707 9.23781V6.182C24.2707 5.89101 23.9421 5.72359 23.706 5.8934C23.1472 6.29546 22.3162 6.80863 21.2445 7.21229C20.8586 7.43971 20.3776 7.6719 19.8046 7.84826C18.5548 8.23249 17.4742 8.16632 16.8538 8.07944C15.5028 7.74222 14.0186 8.2341 13.0009 9.33672Z" fill="#E11312"/>
<path id="Vector_10" d="M12.0069 6.13459L12.21 6.36447L12.4968 6.11122L12.1871 5.88642L12.0069 6.13459ZM7.68154 4.8188L7.66636 4.51247L7.66557 4.51251L7.66477 4.51255L7.68154 4.8188ZM7.92078 8.64555L8.0241 8.9344L8.02755 8.93317L8.03092 8.93187L7.92078 8.64555ZM7.43056 8.85741L7.56612 9.13253L7.56811 9.13161L7.57008 9.13062L7.43056 8.85741ZM5.24747 13.0321L5.28765 13.3361L5.59271 13.2959L5.55152 12.991L5.24747 13.0321ZM5.23715 13.0335L5.1967 12.7295L4.93636 12.764L4.93041 13.0265L5.23715 13.0335ZM6.56581 15.4228L6.736 15.1676L6.729 15.1629L6.72175 15.1587L6.56581 15.4228ZM7.04653 15.6987L7.19079 15.428L7.18759 15.4263L7.18433 15.4247L7.04653 15.6987ZM7.86225 16.023L7.94762 15.7285L7.9467 15.7282L7.94571 15.7279L7.86225 16.023ZM12.3079 17.5673L12.5052 17.3324L12.4799 17.3112L12.4506 17.2958L12.3079 17.5673ZM12.856 17.9931L13.0606 18.2216L13.3458 17.9664L13.0346 17.7437L12.856 17.9931ZM12.7059 18.131L12.904 18.3652L12.9105 18.3598L12.9165 18.3541L12.7059 18.131ZM4.86713 18.8239L5.02207 18.5591L5.02197 18.559L4.86713 18.8239ZM1.5415 12.3112L1.84828 12.3064L1.84827 12.3062L1.5415 12.3112ZM1.94903 9.37583L1.65512 9.28773L1.65507 9.28796L1.94903 9.37583ZM7.5085 4.82997L7.48794 4.52395L7.48669 4.52403L7.48544 4.52413L7.5085 4.82997ZM7.50862 4.82996L7.52918 5.13598L7.52987 5.13593L7.50862 4.82996ZM19.5653 15.662L19.6435 15.3654H19.6435L19.5653 15.662ZM21.8827 16.7763L21.7001 17.0227L21.7207 17.038L21.7436 17.0496L21.8827 16.7763ZM16.8753 15.5065L16.8319 15.2028L16.8055 15.2066L16.7801 15.2149L16.8753 15.5065ZM16.2955 15.654L16.3515 15.9555H16.3517L16.2955 15.654ZM12.8031 14.5443L13.0041 14.3125L13.0038 14.3122L12.8031 14.5443ZM12.4261 14.2422L12.2236 14.0119L11.9383 14.2625L12.2434 14.4886L12.4261 14.2422ZM18.6873 12.8701L18.7044 12.5638H18.7042L18.6873 12.8701ZM24.1359 14.95L24.3267 14.7099L24.3266 14.7098L24.1359 14.95ZM23.6813 17.9868L23.8824 17.7552L23.8821 17.7549L23.6813 17.9868ZM12.4271 9.89701L12.2246 9.66667L11.9394 9.91717L12.2444 10.1434L12.4271 9.89701ZM13.678 10.6234L13.8018 10.3428L13.8016 10.3427L13.678 10.6234ZM18.2087 11.1967L18.2091 11.5034H18.2092L18.2087 11.1967ZM24.0992 9.54161L24.2584 9.80384L24.2588 9.80361L24.0992 9.54161ZM21.2437 7.21237L21.1355 6.92536L21.1107 6.9347L21.088 6.94815L21.2437 7.21237ZM16.853 8.07952L16.7786 8.37711L16.7943 8.38102L16.8104 8.38324L16.853 8.07952ZM12.1871 5.88642C11.3742 5.29623 9.7896 4.40718 7.66636 4.51247L7.69672 5.12514C9.62867 5.02934 11.0765 5.83819 11.8266 6.38275L12.1871 5.88642ZM8.03092 8.93187C9.97246 8.18534 11.605 6.89867 12.21 6.36447L11.8038 5.90471C11.2255 6.41528 9.65613 7.64973 7.81063 8.35932L8.03092 8.93187ZM7.57008 9.13062C7.74904 9.03922 7.90597 8.97657 8.0241 8.9344L7.81746 8.35679C7.68016 8.40586 7.49818 8.47855 7.29104 8.58429L7.57008 9.13062ZM5.51598 12.3205C5.54953 10.9957 6.30059 9.75569 7.56612 9.13253L7.29499 8.5823C5.82017 9.30843 4.94173 10.7573 4.90255 12.3051L5.51598 12.3205ZM5.55152 12.991C5.52184 12.7713 5.51027 12.5468 5.51598 12.3205L4.90255 12.3051C4.89604 12.5623 4.90915 12.8196 4.94341 13.0731L5.55152 12.991ZM5.27759 13.3375C5.28094 13.3371 5.28429 13.3366 5.28765 13.3361L5.20729 12.728C5.20373 12.7285 5.2002 12.729 5.1967 12.7295L5.27759 13.3375ZM5.87334 14.3108C5.55756 13.7734 5.53893 13.2588 5.54388 13.0404L4.93041 13.0265C4.92419 13.3008 4.94703 13.9455 5.34423 14.6215L5.87334 14.3108ZM6.72175 15.1587C6.53331 15.0475 6.15501 14.7899 5.87331 14.3107L5.34423 14.6215C5.69895 15.2249 6.17402 15.5477 6.40985 15.6869L6.72175 15.1587ZM7.18433 15.4247C6.98719 15.3256 6.83096 15.2309 6.736 15.1676L6.39562 15.678C6.51119 15.755 6.68904 15.8623 6.90873 15.9728L7.18433 15.4247ZM7.94571 15.7279C7.66622 15.6489 7.41526 15.5476 7.19079 15.428L6.90227 15.9694C7.16743 16.1106 7.4594 16.2279 7.7788 16.3182L7.94571 15.7279ZM8.07572 15.763C8.03277 15.7523 7.99004 15.7407 7.94762 15.7285L7.7768 16.3176C7.8262 16.3319 7.87621 16.3455 7.92691 16.3581L8.07572 15.763ZM8.42802 15.8479C8.29947 15.8174 8.18257 15.7897 8.07572 15.763L7.92691 16.3581C8.03798 16.3859 8.15864 16.4145 8.28627 16.4448L8.42802 15.8479ZM12.4506 17.2958C10.7369 16.3954 9.3372 16.0636 8.42802 15.8479L8.28627 16.4448C9.18402 16.6578 10.522 16.9755 12.1651 17.8389L12.4506 17.2958ZM13.0346 17.7437C12.8458 17.6086 12.6693 17.4702 12.5052 17.3324L12.1107 17.8023C12.2855 17.949 12.4745 18.0973 12.6774 18.2425L13.0346 17.7437ZM12.9165 18.3541C12.9555 18.3173 13.0035 18.2727 13.0606 18.2216L12.6514 17.7646C12.5895 17.8199 12.5373 17.8684 12.4953 17.908L12.9165 18.3541ZM7.65454 20.031C10.5596 20.2878 12.5414 18.6718 12.904 18.3652L12.5078 17.8968C12.1782 18.1755 10.3606 19.6543 7.70861 19.42L7.65454 20.031ZM4.7122 19.0885C5.48062 19.538 6.46494 19.9259 7.65455 20.0311L7.70861 19.42C6.62375 19.3242 5.72585 18.9707 5.02207 18.5591L4.7122 19.0885ZM1.89197 15.7201C2.42664 17.1235 3.4083 18.3266 4.71229 19.0886L5.02197 18.559C3.84569 17.8717 2.95318 16.7819 2.46543 15.5018L1.89197 15.7201ZM1.23472 12.316C1.25612 13.6744 1.55244 14.8284 1.89197 15.7201L2.46546 15.5019C2.14624 14.6635 1.86835 13.5804 1.84828 12.3064L1.23472 12.316ZM1.65507 9.28796C1.40184 10.1345 1.21579 11.1561 1.23472 12.3163L1.84827 12.3062C1.83052 11.2181 2.00495 10.2594 2.24298 9.4637L1.65507 9.28796ZM7.48544 4.52413C4.73874 4.73102 2.44195 6.66285 1.65512 9.28773L2.24293 9.46385C2.96021 7.07095 5.04976 5.32275 7.53155 5.13581L7.48544 4.52413ZM7.48805 4.52394L7.48794 4.52395L7.52906 5.13599L7.52918 5.13598L7.48805 4.52394ZM7.66477 4.51255C7.60399 4.51588 7.54439 4.52003 7.48736 4.52399L7.52987 5.13593C7.58761 5.13192 7.64276 5.1281 7.69834 5.12505L7.66477 4.51255ZM19.4871 15.9585C20.5195 16.2307 21.2651 16.7006 21.7001 17.0227L22.0654 16.5298C21.5901 16.1778 20.7741 15.6634 19.6435 15.3654L19.4871 15.9585ZM16.9186 15.8101C17.4624 15.7325 18.3923 15.6701 19.4871 15.9585L19.6435 15.3654C18.4447 15.0495 17.427 15.1179 16.8319 15.2028L16.9186 15.8101ZM16.3517 15.9555C16.5658 15.9156 16.7717 15.8629 16.9704 15.7981L16.7801 15.2149C16.6071 15.2713 16.4271 15.3174 16.2392 15.3524L16.3517 15.9555ZM12.6023 14.776C13.2517 15.3386 14.6295 16.275 16.3515 15.9555L16.2395 15.3524C14.7985 15.6197 13.6099 14.8372 13.0041 14.3125L12.6023 14.776ZM12.2434 14.4886C12.3665 14.5799 12.4863 14.6758 12.6025 14.7763L13.0038 14.3122C12.876 14.2017 12.7442 14.0962 12.6089 13.9959L12.2434 14.4886ZM13.6839 13.0269C13.1508 13.2889 12.6639 13.625 12.2236 14.0119L12.6286 14.4726C13.033 14.1173 13.4752 13.8129 13.9546 13.5774L13.6839 13.0269ZM18.7042 12.5638C17.6973 12.5079 16.7474 12.4763 15.9035 12.5301C15.0621 12.5838 14.3014 12.7237 13.6839 13.0269L13.9546 13.5774C14.4672 13.3258 15.1352 13.1938 15.9426 13.1423C16.7477 13.0909 17.6667 13.1206 18.6702 13.1763L18.7042 12.5638ZM24.3266 14.7098C23.5387 14.085 21.5647 12.7236 18.7044 12.5638L18.6702 13.1763C21.3509 13.3259 23.2049 14.6033 23.9452 15.1903L24.3266 14.7098ZM24.5767 15.2283C24.5767 15.0273 24.4861 14.8365 24.3267 14.7099L23.945 15.1902C23.9563 15.1992 23.9631 15.2124 23.9631 15.2283H24.5767ZM24.5767 17.7181V15.2283H23.9631V17.7181H24.5767ZM23.4801 18.2183C23.9096 18.5912 24.5767 18.2859 24.5767 17.7181H23.9631C23.9631 17.7326 23.9593 17.7405 23.9559 17.7456C23.9516 17.7519 23.9445 17.7584 23.9345 17.7629C23.9246 17.7675 23.915 17.7685 23.9076 17.7677C23.9016 17.7669 23.8933 17.7646 23.8824 17.7552L23.4801 18.2183ZM21.7436 17.0496C22.4948 17.4318 23.0817 17.8734 23.4804 18.2186L23.8821 17.7549C23.4551 17.3852 22.8272 16.9126 22.0218 16.5029L21.7436 17.0496ZM12.6296 10.1274C12.8386 9.94385 13.0372 9.74886 13.2256 9.54483L12.7747 9.1287C12.5998 9.31809 12.4165 9.49805 12.2246 9.66667L12.6296 10.1274ZM13.8016 10.3427C13.379 10.1569 12.9795 9.92476 12.6099 9.65072L12.2444 10.1434C12.6507 10.4448 13.0899 10.6999 13.5545 10.9042L13.8016 10.3427ZM18.2083 10.89C16.2651 10.8924 14.8268 10.7946 13.8018 10.3428L13.5543 10.9041C14.7145 11.4154 16.2797 11.5058 18.2091 11.5034L18.2083 10.89ZM23.94 9.27945C23.0063 9.84586 20.971 10.8861 18.2083 10.89L18.2092 11.5034C21.1263 11.4993 23.2733 10.4014 24.2584 9.80384L23.94 9.27945ZM23.9631 9.23789C23.9631 9.25522 23.9542 9.27078 23.9396 9.27968L24.2588 9.80361C24.4563 9.68338 24.5767 9.4693 24.5767 9.23789H23.9631ZM23.9631 6.18208V9.23789H24.5767V6.18208H23.9631ZM23.8844 6.14243C23.9185 6.11792 23.9631 6.14225 23.9631 6.18208H24.5767C24.5767 5.63993 23.9641 5.32941 23.526 5.64453L23.8844 6.14243ZM21.3519 7.49938C22.4546 7.08404 23.3093 6.55621 23.8844 6.14243L23.526 5.64453C22.9834 6.03488 22.1762 6.53338 21.1355 6.92536L21.3519 7.49938ZM19.894 8.14148C20.4934 7.95707 20.9962 7.71423 21.3995 7.4766L21.088 6.94815C20.7192 7.16536 20.2602 7.38697 19.7135 7.55519L19.894 8.14148ZM16.8104 8.38324C17.4579 8.47395 18.5872 8.54334 19.894 8.14148L19.7136 7.55517C18.5209 7.92187 17.4889 7.85892 16.8955 7.7758L16.8104 8.38324ZM13.2256 9.54483C14.1759 8.5152 15.5483 8.07001 16.7786 8.37711L16.9273 7.78194C15.4556 7.41459 13.8597 7.95323 12.7746 9.12877L13.2256 9.54483Z" fill="black"/>
</g>
</g>
</g>
</g>
</g>
</g>
</svg>
