<?xml version="1.0" encoding="UTF-8"?>
<svg xmlns="http://www.w3.org/2000/svg" xmlns:xlink="http://www.w3.org/1999/xlink" width="180px" height="24px" viewBox="0 0 180 24" version="1.1">
<g id="surface1">
<path style=" stroke:none;fill-rule:nonzero;fill:rgb(10.196079%,11.372549%,14.117648%);fill-opacity:1;" d="M 31.269531 4.941406 C 31.3125 4.941406 31.355469 4.941406 31.398438 4.941406 C 31.425781 4.941406 31.449219 4.941406 31.472656 4.941406 C 31.550781 4.941406 31.632812 4.941406 31.710938 4.941406 C 31.769531 4.941406 31.828125 4.941406 31.882812 4.941406 C 32.039062 4.941406 32.195312 4.941406 32.351562 4.941406 C 32.511719 4.941406 32.675781 4.941406 32.835938 4.941406 C 33.144531 4.941406 33.453125 4.941406 33.761719 4.941406 C 34.109375 4.941406 34.460938 4.941406 34.808594 4.941406 C 35.53125 4.941406 36.25 4.945312 36.972656 4.945312 C 36.972656 5.277344 36.972656 5.609375 36.972656 5.953125 C 36.171875 6.0625 36.171875 6.0625 35.351562 6.171875 C 35.503906 6.746094 35.652344 7.320312 35.800781 7.898438 C 35.820312 7.960938 35.820312 7.960938 35.835938 8.027344 C 36.195312 9.402344 36.554688 10.777344 36.917969 12.148438 C 37.011719 12.511719 37.105469 12.871094 37.203125 13.234375 C 37.222656 13.316406 37.246094 13.402344 37.269531 13.488281 C 37.304688 13.621094 37.339844 13.753906 37.371094 13.886719 C 37.386719 13.933594 37.398438 13.984375 37.410156 14.03125 C 37.429688 14.097656 37.445312 14.164062 37.460938 14.230469 C 37.476562 14.285156 37.476562 14.285156 37.492188 14.339844 C 37.511719 14.4375 37.511719 14.4375 37.511719 14.582031 C 37.535156 14.582031 37.558594 14.582031 37.585938 14.582031 C 37.585938 14.558594 37.589844 14.539062 37.59375 14.519531 C 37.644531 14.238281 37.730469 13.96875 37.820312 13.695312 C 37.835938 13.644531 37.851562 13.59375 37.867188 13.542969 C 37.902344 13.429688 37.9375 13.320312 37.972656 13.210938 C 38.03125 13.039062 38.085938 12.863281 38.140625 12.6875 C 38.199219 12.507812 38.257812 12.328125 38.316406 12.148438 C 38.488281 11.605469 38.660156 11.0625 38.832031 10.519531 C 38.855469 10.449219 38.878906 10.378906 38.898438 10.3125 C 39.339844 8.917969 39.78125 7.527344 40.210938 6.136719 C 40.179688 6.132812 40.148438 6.132812 40.117188 6.128906 C 39.761719 6.109375 39.414062 6.070312 39.0625 6.023438 C 39.007812 6.019531 38.957031 6.011719 38.902344 6.003906 C 38.777344 5.988281 38.648438 5.972656 38.519531 5.953125 C 38.519531 5.621094 38.519531 5.289062 38.519531 4.945312 C 39.261719 4.945312 40.003906 4.941406 40.742188 4.941406 C 41.085938 4.941406 41.429688 4.941406 41.773438 4.941406 C 42.074219 4.941406 42.375 4.941406 42.675781 4.941406 C 42.832031 4.941406 42.992188 4.941406 43.152344 4.941406 C 43.300781 4.941406 43.449219 4.941406 43.597656 4.941406 C 43.652344 4.941406 43.707031 4.941406 43.761719 4.941406 C 43.839844 4.941406 43.914062 4.941406 43.988281 4.941406 C 44.050781 4.941406 44.050781 4.941406 44.113281 4.941406 C 44.207031 4.945312 44.207031 4.945312 44.242188 4.980469 C 44.246094 5.050781 44.246094 5.125 44.246094 5.195312 C 44.246094 5.238281 44.246094 5.277344 44.246094 5.316406 C 44.246094 5.390625 44.246094 5.390625 44.246094 5.46875 C 44.246094 5.628906 44.246094 5.789062 44.242188 5.953125 C 43.636719 6.027344 43.03125 6.097656 42.40625 6.171875 C 43.019531 8.191406 43.019531 8.191406 43.632812 10.214844 C 43.65625 10.289062 43.679688 10.367188 43.703125 10.441406 C 43.855469 10.941406 44.007812 11.441406 44.15625 11.9375 C 44.226562 12.167969 44.296875 12.398438 44.367188 12.625 C 44.40625 12.761719 44.449219 12.898438 44.492188 13.035156 C 44.816406 14.109375 44.816406 14.109375 44.964844 14.617188 C 45.042969 14.496094 45.070312 14.402344 45.109375 14.261719 C 45.117188 14.226562 45.117188 14.226562 45.128906 14.1875 C 45.152344 14.101562 45.175781 14.019531 45.199219 13.933594 C 45.214844 13.875 45.230469 13.8125 45.246094 13.753906 C 45.285156 13.621094 45.320312 13.488281 45.355469 13.359375 C 45.441406 13.039062 45.53125 12.71875 45.617188 12.402344 C 45.648438 12.289062 45.679688 12.175781 45.710938 12.0625 C 45.929688 11.25 46.15625 10.441406 46.382812 9.628906 C 46.421875 9.484375 46.460938 9.339844 46.503906 9.195312 C 46.597656 8.855469 46.691406 8.515625 46.785156 8.171875 C 46.847656 7.960938 46.90625 7.746094 46.964844 7.535156 C 47.003906 7.390625 47.046875 7.246094 47.085938 7.101562 C 47.105469 7.03125 47.125 6.960938 47.144531 6.894531 C 47.167969 6.796875 47.195312 6.703125 47.222656 6.609375 C 47.230469 6.578125 47.238281 6.550781 47.246094 6.523438 C 47.273438 6.417969 47.304688 6.3125 47.339844 6.207031 C 46.8125 6.109375 46.285156 6.03125 45.757812 5.953125 C 45.757812 5.621094 45.757812 5.289062 45.757812 4.945312 C 46.320312 4.945312 46.882812 4.941406 47.445312 4.941406 C 47.707031 4.941406 47.964844 4.941406 48.226562 4.941406 C 48.457031 4.941406 48.683594 4.941406 48.910156 4.941406 C 49.03125 4.941406 49.152344 4.941406 49.273438 4.941406 C 49.40625 4.941406 49.539062 4.941406 49.675781 4.941406 C 49.714844 4.941406 49.757812 4.941406 49.796875 4.941406 C 49.832031 4.941406 49.871094 4.941406 49.90625 4.941406 C 49.957031 4.941406 49.957031 4.941406 50.003906 4.941406 C 50.074219 4.945312 50.074219 4.945312 50.113281 4.980469 C 50.113281 5.050781 50.117188 5.121094 50.117188 5.1875 C 50.117188 5.230469 50.117188 5.273438 50.113281 5.316406 C 50.113281 5.363281 50.113281 5.40625 50.113281 5.453125 C 50.113281 5.496094 50.113281 5.542969 50.113281 5.585938 C 50.113281 5.699219 50.113281 5.808594 50.113281 5.917969 C 49.9375 5.949219 49.765625 5.980469 49.59375 6.007812 C 49.535156 6.019531 49.476562 6.03125 49.417969 6.039062 C 49.109375 6.09375 48.804688 6.144531 48.492188 6.171875 C 48.480469 6.21875 48.480469 6.21875 48.46875 6.265625 C 48.359375 6.722656 48.230469 7.171875 48.105469 7.625 C 48.085938 7.691406 48.066406 7.757812 48.046875 7.828125 C 47.808594 8.671875 47.570312 9.519531 47.328125 10.363281 C 47.058594 11.300781 46.792969 12.242188 46.527344 13.179688 C 46.492188 13.308594 46.453125 13.4375 46.417969 13.5625 C 46.25 14.148438 46.085938 14.734375 45.921875 15.316406 C 45.847656 15.566406 45.777344 15.816406 45.707031 16.0625 C 45.667969 16.207031 45.625 16.355469 45.585938 16.5 C 45.417969 17.089844 45.25 17.675781 45.070312 18.261719 C 44.597656 18.261719 44.121094 18.261719 43.632812 18.261719 C 43.550781 18.007812 43.550781 18.007812 43.464844 17.746094 C 43.390625 17.515625 43.316406 17.28125 43.242188 17.050781 C 43.230469 17.019531 43.222656 16.988281 43.210938 16.957031 C 42.949219 16.152344 42.6875 15.347656 42.425781 14.542969 C 42.21875 13.910156 42.015625 13.273438 41.8125 12.636719 C 41.546875 11.800781 41.269531 10.964844 40.996094 10.128906 C 40.957031 10.019531 40.921875 9.90625 40.886719 9.792969 C 40.859375 9.71875 40.835938 9.640625 40.808594 9.5625 C 40.570312 8.84375 40.570312 8.84375 40.570312 8.699219 C 40.546875 8.699219 40.523438 8.699219 40.5 8.699219 C 40.496094 8.71875 40.492188 8.742188 40.488281 8.765625 C 40.445312 8.984375 40.390625 9.195312 40.320312 9.410156 C 40.3125 9.445312 40.300781 9.476562 40.289062 9.511719 C 40.265625 9.585938 40.242188 9.660156 40.21875 9.730469 C 40.15625 9.9375 40.089844 10.144531 40.023438 10.347656 C 40.011719 10.394531 39.996094 10.4375 39.984375 10.480469 C 39.824219 10.992188 39.664062 11.5 39.507812 12.011719 C 39.476562 12.113281 39.445312 12.21875 39.414062 12.324219 C 39.347656 12.535156 39.28125 12.746094 39.21875 12.957031 C 39.113281 13.292969 39.011719 13.632812 38.90625 13.96875 C 38.898438 13.996094 38.890625 14.019531 38.882812 14.046875 C 38.84375 14.171875 38.804688 14.300781 38.765625 14.429688 C 38.695312 14.65625 38.625 14.882812 38.554688 15.109375 C 38.515625 15.234375 38.476562 15.363281 38.4375 15.488281 C 38.421875 15.542969 38.40625 15.59375 38.390625 15.644531 C 38.121094 16.519531 37.851562 17.390625 37.585938 18.261719 C 37.109375 18.261719 36.632812 18.261719 36.144531 18.261719 C 35.722656 16.84375 35.304688 15.429688 34.890625 14.011719 C 34.882812 13.984375 34.875 13.957031 34.867188 13.929688 C 34.792969 13.675781 34.71875 13.421875 34.644531 13.171875 C 34.441406 12.46875 34.234375 11.765625 34.027344 11.0625 C 33.996094 10.957031 33.964844 10.851562 33.933594 10.742188 C 33.625 9.675781 33.308594 8.609375 32.996094 7.542969 C 32.964844 7.429688 32.933594 7.320312 32.898438 7.207031 C 32.84375 7.023438 32.792969 6.84375 32.738281 6.660156 C 32.726562 6.632812 32.71875 6.601562 32.710938 6.574219 C 32.695312 6.523438 32.679688 6.472656 32.664062 6.421875 C 32.628906 6.304688 32.617188 6.222656 32.617188 6.097656 C 32.589844 6.097656 32.566406 6.097656 32.539062 6.09375 C 32.070312 6.066406 31.605469 6.007812 31.140625 5.953125 C 31.140625 5.792969 31.136719 5.632812 31.136719 5.46875 C 31.136719 5.421875 31.136719 5.378906 31.136719 5.328125 C 31.136719 5.285156 31.136719 5.242188 31.136719 5.195312 C 31.136719 5.15625 31.136719 5.117188 31.136719 5.074219 C 31.140625 4.945312 31.144531 4.945312 31.269531 4.941406 Z M 31.269531 4.941406 "/>
<path style=" stroke:none;fill-rule:nonzero;fill:rgb(10.196079%,11.372549%,14.117648%);fill-opacity:1;" d="M 123.730469 4.871094 C 124.570312 4.871094 125.410156 4.871094 126.25 4.867188 C 126.640625 4.867188 127.03125 4.867188 127.417969 4.867188 C 127.757812 4.867188 128.101562 4.867188 128.441406 4.867188 C 128.621094 4.867188 128.800781 4.863281 128.980469 4.863281 C 132.234375 4.855469 132.234375 4.855469 133.34375 5.847656 C 133.375 5.871094 133.402344 5.894531 133.433594 5.921875 C 133.789062 6.21875 134.046875 6.601562 134.207031 7.039062 C 134.222656 7.074219 134.234375 7.113281 134.25 7.148438 C 134.484375 7.875 134.402344 8.675781 134.074219 9.355469 C 133.675781 10.132812 133.042969 10.617188 132.226562 10.898438 C 131.976562 10.976562 131.726562 11.046875 131.472656 11.117188 C 131.496094 11.121094 131.519531 11.125 131.546875 11.132812 C 132.78125 11.40625 133.953125 11.773438 134.667969 12.898438 C 135.089844 13.597656 135.1875 14.453125 135.003906 15.242188 C 134.710938 16.207031 134.046875 16.957031 133.167969 17.433594 C 132.484375 17.792969 131.734375 17.980469 130.96875 18.082031 C 130.921875 18.085938 130.878906 18.09375 130.832031 18.101562 C 130.167969 18.179688 129.496094 18.164062 128.828125 18.160156 C 128.648438 18.160156 128.46875 18.160156 128.289062 18.160156 C 127.949219 18.160156 127.609375 18.160156 127.269531 18.160156 C 126.886719 18.15625 126.5 18.15625 126.113281 18.15625 C 125.320312 18.15625 124.527344 18.15625 123.730469 18.152344 C 123.730469 17.820312 123.730469 17.488281 123.730469 17.144531 C 124.289062 17.082031 124.847656 17.023438 125.425781 16.960938 C 125.425781 13.367188 125.425781 9.769531 125.425781 6.0625 C 125.234375 6.050781 125.042969 6.039062 124.847656 6.027344 C 124.675781 6.011719 124.507812 5.992188 124.335938 5.972656 C 124.292969 5.96875 124.25 5.964844 124.207031 5.957031 C 124.042969 5.941406 123.890625 5.921875 123.730469 5.882812 C 123.730469 5.550781 123.730469 5.214844 123.730469 4.871094 Z M 128.089844 5.953125 C 128.082031 6.363281 128.078125 6.769531 128.074219 7.179688 C 128.070312 7.367188 128.070312 7.558594 128.066406 7.746094 C 128.054688 8.738281 128.050781 9.726562 128.050781 10.71875 C 129.730469 10.777344 129.730469 10.777344 131.1875 10.035156 C 131.695312 9.480469 131.789062 8.75 131.769531 8.027344 C 131.746094 7.484375 131.574219 6.964844 131.191406 6.566406 C 130.5 5.953125 129.542969 5.949219 128.671875 5.953125 C 128.613281 5.953125 128.558594 5.953125 128.5 5.953125 C 128.363281 5.953125 128.226562 5.953125 128.089844 5.953125 Z M 128.089844 11.765625 C 128.089844 13.503906 128.089844 15.242188 128.089844 17.035156 C 129.425781 17.082031 129.425781 17.082031 130.730469 16.828125 C 130.753906 16.820312 130.78125 16.8125 130.808594 16.800781 C 131.367188 16.597656 131.828125 16.238281 132.101562 15.707031 C 132.421875 14.984375 132.4375 14.128906 132.191406 13.382812 C 131.945312 12.738281 131.496094 12.351562 130.886719 12.070312 C 129.992188 11.707031 129.035156 11.765625 128.089844 11.765625 Z M 128.089844 11.765625 "/>
<path style=" stroke:none;fill-rule:nonzero;fill:rgb(10.196079%,11.372549%,14.117648%);fill-opacity:1;" d="M 114.253906 5.214844 C 114.550781 5.507812 114.765625 5.875 114.875 6.28125 C 114.882812 6.308594 114.890625 6.332031 114.898438 6.363281 C 115.0625 7.011719 114.933594 7.714844 114.621094 8.296875 C 114.515625 8.46875 114.398438 8.621094 114.265625 8.769531 C 114.234375 8.800781 114.207031 8.832031 114.179688 8.863281 C 113.578125 9.496094 112.800781 9.925781 112.03125 10.320312 C 112.058594 10.351562 112.089844 10.382812 112.117188 10.414062 C 112.460938 10.785156 112.460938 10.785156 112.597656 10.945312 C 112.710938 11.074219 112.828125 11.195312 112.953125 11.316406 C 113.023438 11.390625 113.09375 11.464844 113.160156 11.539062 C 113.292969 11.695312 113.429688 11.84375 113.570312 11.992188 C 114.136719 12.589844 114.136719 12.589844 114.382812 12.878906 C 114.523438 13.042969 114.675781 13.199219 114.824219 13.359375 C 114.929688 13.472656 115.039062 13.589844 115.144531 13.707031 C 115.164062 13.726562 115.183594 13.746094 115.203125 13.769531 C 115.238281 13.808594 115.273438 13.851562 115.3125 13.890625 C 115.398438 13.988281 115.488281 14.074219 115.597656 14.148438 C 115.609375 14.113281 115.609375 14.113281 115.621094 14.078125 C 115.671875 13.957031 115.730469 13.847656 115.792969 13.734375 C 116.347656 12.714844 116.699219 11.628906 116.964844 10.503906 C 116.933594 10.5 116.898438 10.496094 116.867188 10.492188 C 116.558594 10.457031 116.25 10.410156 115.945312 10.355469 C 115.910156 10.347656 115.871094 10.34375 115.835938 10.335938 C 115.574219 10.289062 115.574219 10.289062 115.453125 10.25 C 115.441406 9.492188 115.441406 9.492188 115.523438 9.238281 C 116.925781 9.238281 118.328125 9.238281 119.773438 9.238281 C 119.773438 9.546875 119.773438 9.859375 119.773438 10.175781 C 119.296875 10.261719 118.820312 10.34375 118.332031 10.429688 C 118.289062 10.570312 118.25 10.707031 118.207031 10.851562 C 117.8125 12.144531 117.246094 13.550781 116.398438 14.621094 C 116.34375 14.6875 116.34375 14.6875 116.351562 14.777344 C 116.402344 14.902344 116.472656 14.96875 116.574219 15.0625 C 116.6875 15.171875 116.800781 15.28125 116.90625 15.40625 C 117.039062 15.5625 117.1875 15.707031 117.332031 15.851562 C 117.464844 15.980469 117.589844 16.117188 117.707031 16.257812 C 117.808594 16.371094 117.902344 16.398438 118.042969 16.421875 C 118.082031 16.429688 118.117188 16.433594 118.15625 16.441406 C 118.195312 16.449219 118.234375 16.453125 118.273438 16.460938 C 118.316406 16.46875 118.355469 16.476562 118.398438 16.484375 C 118.527344 16.503906 118.65625 16.527344 118.785156 16.550781 C 118.917969 16.570312 119.046875 16.59375 119.175781 16.617188 C 119.257812 16.628906 119.335938 16.644531 119.417969 16.65625 C 119.472656 16.667969 119.472656 16.667969 119.527344 16.675781 C 119.5625 16.683594 119.59375 16.6875 119.625 16.695312 C 119.699219 16.710938 119.699219 16.710938 119.734375 16.746094 C 119.730469 17.132812 119.675781 17.519531 119.628906 17.902344 C 119.539062 17.921875 119.445312 17.945312 119.355469 17.96875 C 119.320312 17.976562 119.320312 17.976562 119.28125 17.988281 C 118.820312 18.097656 118.367188 18.128906 117.894531 18.128906 C 117.808594 18.128906 117.722656 18.128906 117.636719 18.128906 C 116.769531 18.132812 116 17.875 115.34375 17.289062 C 115.285156 17.226562 115.222656 17.167969 115.164062 17.105469 C 115.078125 17.023438 114.988281 16.941406 114.902344 16.859375 C 114.867188 16.828125 114.867188 16.828125 114.832031 16.796875 C 114.773438 16.742188 114.71875 16.691406 114.660156 16.636719 C 114.644531 16.652344 114.628906 16.664062 114.613281 16.675781 C 114.210938 17.027344 113.789062 17.332031 113.316406 17.578125 C 113.265625 17.605469 113.214844 17.636719 113.164062 17.664062 C 112.972656 17.773438 112.765625 17.839844 112.554688 17.90625 C 112.515625 17.917969 112.515625 17.917969 112.472656 17.933594 C 111.945312 18.089844 111.40625 18.136719 110.859375 18.132812 C 110.765625 18.128906 110.675781 18.132812 110.585938 18.132812 C 109.410156 18.132812 108.335938 17.738281 107.476562 16.925781 C 106.800781 16.230469 106.535156 15.367188 106.546875 14.414062 C 106.566406 13.589844 106.84375 12.824219 107.386719 12.199219 C 107.414062 12.167969 107.4375 12.136719 107.464844 12.109375 C 107.972656 11.523438 108.597656 11.132812 109.261719 10.753906 C 109.308594 10.726562 109.355469 10.699219 109.402344 10.671875 C 109.441406 10.652344 109.476562 10.632812 109.511719 10.609375 C 109.496094 10.59375 109.480469 10.578125 109.464844 10.5625 C 108.597656 9.640625 108.140625 8.421875 108.171875 7.164062 C 108.195312 6.554688 108.386719 5.980469 108.792969 5.523438 C 108.8125 5.492188 108.835938 5.464844 108.855469 5.433594 C 109.375 4.816406 110.246094 4.496094 111.023438 4.402344 C 111.074219 4.394531 111.074219 4.394531 111.125 4.390625 C 112.207031 4.273438 113.429688 4.449219 114.253906 5.214844 Z M 110.503906 5.699219 C 110.148438 6.171875 110.121094 6.660156 110.183594 7.230469 C 110.328125 8.195312 110.882812 8.90625 111.492188 9.636719 C 111.597656 9.589844 111.675781 9.535156 111.757812 9.453125 C 111.789062 9.417969 111.789062 9.417969 111.824219 9.386719 C 111.847656 9.363281 111.871094 9.339844 111.894531 9.3125 C 111.917969 9.289062 111.941406 9.265625 111.96875 9.238281 C 112.160156 9.042969 112.335938 8.84375 112.5 8.625 C 112.527344 8.589844 112.554688 8.550781 112.582031 8.511719 C 113.003906 7.9375 113.25 7.289062 113.183594 6.570312 C 113.109375 6.117188 112.933594 5.730469 112.554688 5.457031 C 111.890625 5.046875 111.050781 5.117188 110.503906 5.699219 Z M 109.570312 11.738281 C 108.996094 12.335938 108.777344 13.1875 108.78125 13.996094 C 108.796875 14.699219 109.078125 15.390625 109.5625 15.898438 C 110.199219 16.496094 110.96875 16.710938 111.828125 16.683594 C 112.441406 16.65625 113.007812 16.503906 113.554688 16.21875 C 113.578125 16.207031 113.605469 16.191406 113.632812 16.179688 C 113.765625 16.109375 113.863281 16.050781 113.941406 15.914062 C 113.925781 15.902344 113.914062 15.886719 113.898438 15.871094 C 113.1875 15.113281 113.1875 15.113281 112.875 14.722656 C 112.78125 14.609375 112.6875 14.5 112.59375 14.390625 C 112.457031 14.226562 112.324219 14.0625 112.195312 13.898438 C 112.042969 13.699219 111.882812 13.507812 111.71875 13.320312 C 111.585938 13.164062 111.453125 13.003906 111.324219 12.84375 C 111.226562 12.722656 111.128906 12.609375 111.027344 12.492188 C 110.882812 12.324219 110.742188 12.152344 110.601562 11.976562 C 110.585938 11.953125 110.570312 11.933594 110.554688 11.914062 C 110.523438 11.871094 110.492188 11.832031 110.457031 11.789062 C 110.382812 11.691406 110.308594 11.59375 110.230469 11.5 C 110.191406 11.449219 110.191406 11.449219 110.152344 11.402344 C 110.121094 11.367188 110.121094 11.367188 110.089844 11.332031 C 109.898438 11.332031 109.699219 11.617188 109.570312 11.738281 Z M 109.570312 11.738281 "/>
<path style=" stroke:none;fill-rule:nonzero;fill:rgb(10.196079%,11.372549%,14.117648%);fill-opacity:1;" d="M 74.988281 8.300781 C 75.152344 8.414062 75.152344 8.414062 75.203125 8.515625 C 75.207031 8.621094 75.210938 8.722656 75.207031 8.824219 C 75.207031 8.867188 75.207031 8.867188 75.207031 8.914062 C 75.207031 8.980469 75.207031 9.042969 75.207031 9.105469 C 75.207031 9.203125 75.207031 9.304688 75.207031 9.402344 C 75.207031 9.464844 75.207031 9.527344 75.207031 9.585938 C 75.207031 9.617188 75.207031 9.648438 75.210938 9.675781 C 75.207031 9.882812 75.207031 9.882812 75.167969 9.925781 C 75.109375 9.929688 75.054688 9.929688 74.996094 9.929688 C 74.957031 9.929688 74.921875 9.929688 74.882812 9.929688 C 74.84375 9.929688 74.804688 9.929688 74.761719 9.929688 C 74.722656 9.929688 74.679688 9.929688 74.640625 9.929688 C 74.507812 9.929688 74.378906 9.925781 74.246094 9.925781 C 74.160156 9.925781 74.070312 9.925781 73.984375 9.925781 C 73.765625 9.925781 73.550781 9.925781 73.332031 9.925781 C 73.347656 9.957031 73.363281 9.992188 73.378906 10.027344 C 73.398438 10.074219 73.417969 10.117188 73.4375 10.164062 C 73.445312 10.183594 73.457031 10.207031 73.464844 10.230469 C 73.804688 11.011719 73.792969 11.996094 73.484375 12.785156 C 73.125 13.597656 72.535156 14.183594 71.703125 14.507812 C 70.597656 14.914062 69.316406 14.914062 68.183594 14.617188 C 67.917969 15.003906 67.820312 15.410156 67.859375 15.878906 C 67.90625 16.046875 67.972656 16.144531 68.105469 16.253906 C 68.429688 16.417969 68.78125 16.425781 69.136719 16.425781 C 69.167969 16.425781 69.199219 16.425781 69.234375 16.425781 C 69.300781 16.425781 69.371094 16.429688 69.441406 16.429688 C 69.550781 16.429688 69.664062 16.429688 69.773438 16.429688 C 70.089844 16.433594 70.402344 16.433594 70.71875 16.433594 C 70.910156 16.4375 71.105469 16.4375 71.296875 16.4375 C 71.371094 16.441406 71.445312 16.441406 71.515625 16.441406 C 72.488281 16.441406 73.558594 16.53125 74.292969 17.242188 C 74.320312 17.269531 74.347656 17.296875 74.375 17.324219 C 74.402344 17.347656 74.425781 17.371094 74.453125 17.398438 C 74.933594 17.894531 75.09375 18.59375 75.097656 19.265625 C 75.082031 20.023438 74.773438 20.703125 74.269531 21.257812 C 74.242188 21.285156 74.21875 21.3125 74.191406 21.339844 C 73.214844 22.378906 71.65625 22.769531 70.28125 22.816406 C 68.835938 22.851562 67.144531 22.84375 66.023438 21.78125 C 65.609375 21.335938 65.488281 20.828125 65.507812 20.234375 C 65.519531 20.042969 65.546875 19.878906 65.628906 19.707031 C 65.640625 19.671875 65.65625 19.640625 65.671875 19.609375 C 65.992188 18.964844 66.578125 18.613281 67.175781 18.261719 C 67.148438 18.25 67.121094 18.238281 67.09375 18.226562 C 66.601562 17.996094 66.335938 17.714844 66.132812 17.214844 C 65.984375 16.707031 66.105469 16.136719 66.335938 15.679688 C 66.632812 15.167969 67.042969 14.738281 67.464844 14.328125 C 67.441406 14.3125 67.414062 14.300781 67.390625 14.285156 C 67.136719 14.128906 66.917969 13.957031 66.707031 13.75 C 66.683594 13.730469 66.664062 13.707031 66.640625 13.683594 C 66.320312 13.351562 66.128906 12.894531 66.023438 12.449219 C 66.015625 12.417969 66.007812 12.386719 66 12.355469 C 65.824219 11.511719 65.949219 10.566406 66.414062 9.839844 C 66.933594 9.105469 67.640625 8.65625 68.507812 8.445312 C 68.53125 8.4375 68.554688 8.433594 68.578125 8.425781 C 69.375 8.238281 70.378906 8.246094 71.171875 8.445312 C 71.195312 8.449219 71.21875 8.457031 71.246094 8.464844 C 71.53125 8.539062 71.800781 8.644531 72.070312 8.769531 C 72.09375 8.777344 72.117188 8.789062 72.144531 8.800781 C 72.246094 8.851562 72.34375 8.898438 72.433594 8.972656 C 72.585938 9.097656 72.585938 9.097656 72.773438 9.125 C 72.875 9.09375 72.96875 9.054688 73.0625 9.007812 C 73.097656 8.992188 73.132812 8.976562 73.167969 8.960938 C 73.28125 8.914062 73.394531 8.863281 73.503906 8.8125 C 73.578125 8.78125 73.65625 8.746094 73.730469 8.714844 C 73.980469 8.605469 74.230469 8.496094 74.480469 8.378906 C 74.519531 8.363281 74.554688 8.347656 74.59375 8.328125 C 74.625 8.316406 74.65625 8.300781 74.6875 8.289062 C 74.796875 8.257812 74.875 8.273438 74.988281 8.300781 Z M 68.753906 9.761719 C 68.210938 10.476562 68.128906 11.394531 68.238281 12.261719 C 68.324219 12.8125 68.53125 13.335938 68.96875 13.699219 C 69.308594 13.925781 69.703125 13.972656 70.101562 13.914062 C 70.523438 13.828125 70.8125 13.632812 71.0625 13.28125 C 71.527344 12.5625 71.613281 11.621094 71.457031 10.789062 C 71.347656 10.289062 71.105469 9.761719 70.675781 9.460938 C 70.058594 9.109375 69.226562 9.222656 68.753906 9.761719 Z M 67.859375 18.550781 C 67.4375 19.101562 67.300781 19.667969 67.355469 20.355469 C 67.433594 20.769531 67.644531 21.085938 67.976562 21.335938 C 68.421875 21.628906 69.023438 21.746094 69.550781 21.761719 C 69.589844 21.761719 69.589844 21.761719 69.628906 21.765625 C 70.699219 21.792969 71.863281 21.6875 72.683594 20.917969 C 72.980469 20.605469 73.066406 20.269531 73.054688 19.847656 C 73.023438 19.488281 72.855469 19.203125 72.589844 18.96875 C 72.171875 18.664062 71.59375 18.671875 71.097656 18.675781 C 71.035156 18.675781 70.96875 18.675781 70.90625 18.675781 C 70.734375 18.671875 70.566406 18.671875 70.398438 18.671875 C 70.128906 18.671875 69.859375 18.671875 69.59375 18.667969 C 69.5 18.667969 69.40625 18.667969 69.3125 18.667969 C 68.824219 18.667969 68.34375 18.621094 67.859375 18.550781 Z M 67.859375 18.550781 "/>
<path style=" stroke:none;fill-rule:nonzero;fill:rgb(10.196079%,11.372549%,14.117648%);fill-opacity:1;" d="M 79.558594 3.574219 C 79.59375 3.585938 79.59375 3.585938 79.628906 3.597656 C 79.710938 3.640625 79.757812 3.679688 79.8125 3.753906 C 79.84375 3.925781 79.832031 4.09375 79.820312 4.265625 C 79.820312 4.320312 79.816406 4.375 79.816406 4.425781 C 79.8125 4.542969 79.804688 4.660156 79.800781 4.773438 C 79.785156 5.054688 79.777344 5.339844 79.769531 5.621094 C 79.765625 5.6875 79.765625 5.753906 79.761719 5.820312 C 79.734375 6.660156 79.734375 7.5 79.734375 8.34375 C 79.734375 8.460938 79.734375 8.574219 79.734375 8.691406 C 79.738281 9.128906 79.738281 9.5625 79.738281 9.996094 C 79.765625 9.96875 79.792969 9.9375 79.824219 9.90625 C 79.859375 9.867188 79.894531 9.828125 79.929688 9.789062 C 79.949219 9.769531 79.964844 9.75 79.984375 9.726562 C 80.671875 8.976562 81.667969 8.402344 82.695312 8.328125 C 83.457031 8.300781 84.191406 8.367188 84.792969 8.890625 C 84.851562 8.945312 84.90625 9.003906 84.960938 9.058594 C 85 9.097656 85 9.097656 85.039062 9.132812 C 85.867188 9.992188 85.804688 11.351562 85.804688 12.457031 C 85.804688 12.621094 85.808594 12.785156 85.808594 12.949219 C 85.808594 13.257812 85.8125 13.566406 85.8125 13.875 C 85.8125 14.230469 85.8125 14.582031 85.816406 14.933594 C 85.820312 15.660156 85.820312 16.382812 85.824219 17.105469 C 85.871094 17.113281 85.871094 17.113281 85.917969 17.121094 C 85.960938 17.128906 86.003906 17.132812 86.046875 17.140625 C 86.105469 17.148438 86.105469 17.148438 86.167969 17.160156 C 86.339844 17.1875 86.507812 17.21875 86.679688 17.253906 C 86.710938 17.257812 86.742188 17.265625 86.777344 17.273438 C 86.820312 17.28125 86.820312 17.28125 86.867188 17.289062 C 86.894531 17.296875 86.921875 17.300781 86.949219 17.308594 C 87.011719 17.324219 87.011719 17.324219 87.046875 17.359375 C 87.050781 17.421875 87.050781 17.480469 87.054688 17.542969 C 87.054688 17.582031 87.054688 17.617188 87.054688 17.65625 C 87.054688 17.695312 87.050781 17.734375 87.050781 17.773438 C 87.050781 17.8125 87.054688 17.851562 87.054688 17.894531 C 87.054688 17.949219 87.054688 17.949219 87.054688 18.003906 C 87.054688 18.039062 87.050781 18.074219 87.050781 18.109375 C 87.046875 18.191406 87.046875 18.191406 87.011719 18.226562 C 86.949219 18.230469 86.886719 18.230469 86.820312 18.230469 C 86.761719 18.230469 86.761719 18.230469 86.695312 18.230469 C 86.652344 18.230469 86.605469 18.230469 86.558594 18.230469 C 86.511719 18.230469 86.460938 18.230469 86.414062 18.230469 C 86.285156 18.230469 86.152344 18.230469 86.019531 18.230469 C 85.882812 18.230469 85.746094 18.230469 85.609375 18.230469 C 85.378906 18.230469 85.148438 18.230469 84.917969 18.230469 C 84.652344 18.230469 84.386719 18.230469 84.121094 18.230469 C 83.890625 18.230469 83.664062 18.230469 83.433594 18.230469 C 83.296875 18.230469 83.160156 18.230469 83.027344 18.230469 C 82.898438 18.230469 82.769531 18.230469 82.640625 18.230469 C 82.570312 18.230469 82.5 18.230469 82.429688 18.230469 C 82.390625 18.230469 82.347656 18.230469 82.304688 18.230469 C 82.269531 18.230469 82.234375 18.230469 82.195312 18.230469 C 82.117188 18.226562 82.117188 18.226562 82.078125 18.191406 C 82.078125 18.128906 82.074219 18.066406 82.078125 18.003906 C 82.078125 17.96875 82.078125 17.929688 82.078125 17.890625 C 82.078125 17.851562 82.078125 17.8125 82.078125 17.773438 C 82.078125 17.734375 82.078125 17.691406 82.078125 17.652344 C 82.078125 17.554688 82.078125 17.457031 82.078125 17.359375 C 82.21875 17.296875 82.355469 17.261719 82.503906 17.234375 C 82.550781 17.222656 82.597656 17.214844 82.644531 17.203125 C 82.667969 17.199219 82.691406 17.195312 82.714844 17.1875 C 82.789062 17.175781 82.863281 17.160156 82.933594 17.144531 C 83.292969 17.070312 83.292969 17.070312 83.375 17.070312 C 83.375 16.359375 83.371094 15.652344 83.367188 14.941406 C 83.367188 14.613281 83.363281 14.285156 83.363281 13.953125 C 83.363281 13.667969 83.363281 13.378906 83.359375 13.09375 C 83.359375 12.941406 83.359375 12.789062 83.359375 12.636719 C 83.359375 12.492188 83.355469 12.347656 83.355469 12.207031 C 83.355469 12.152344 83.355469 12.101562 83.355469 12.050781 C 83.355469 11.496094 83.332031 10.800781 82.9375 10.375 C 82.585938 10.082031 82.109375 10.121094 81.683594 10.140625 C 81.152344 10.203125 80.609375 10.511719 80.199219 10.847656 C 80.136719 10.898438 80.136719 10.898438 80.054688 10.953125 C 79.910156 11.054688 79.824219 11.132812 79.78125 11.308594 C 79.773438 11.460938 79.773438 11.609375 79.773438 11.765625 C 79.773438 11.824219 79.773438 11.878906 79.773438 11.9375 C 79.773438 12.097656 79.777344 12.253906 79.777344 12.414062 C 79.78125 12.578125 79.78125 12.742188 79.78125 12.90625 C 79.78125 13.21875 79.785156 13.53125 79.789062 13.84375 C 79.792969 14.199219 79.792969 14.554688 79.796875 14.914062 C 79.800781 15.644531 79.804688 16.375 79.8125 17.105469 C 79.855469 17.113281 79.855469 17.113281 79.898438 17.121094 C 80.027344 17.148438 80.15625 17.171875 80.285156 17.195312 C 80.332031 17.203125 80.375 17.210938 80.421875 17.21875 C 80.464844 17.226562 80.507812 17.234375 80.554688 17.246094 C 80.59375 17.25 80.632812 17.257812 80.675781 17.265625 C 80.769531 17.285156 80.867188 17.304688 80.964844 17.324219 C 80.964844 17.621094 80.964844 17.917969 80.964844 18.226562 C 79.335938 18.226562 77.707031 18.226562 76.03125 18.226562 C 76.03125 17.929688 76.03125 17.628906 76.03125 17.324219 C 76.449219 17.238281 76.863281 17.15625 77.292969 17.070312 C 77.316406 16.738281 77.332031 16.414062 77.332031 16.085938 C 77.332031 16.039062 77.335938 15.992188 77.335938 15.945312 C 77.335938 15.820312 77.335938 15.695312 77.335938 15.570312 C 77.335938 15.433594 77.335938 15.300781 77.335938 15.164062 C 77.335938 14.929688 77.339844 14.695312 77.339844 14.460938 C 77.339844 14.121094 77.339844 13.78125 77.339844 13.445312 C 77.34375 12.894531 77.34375 12.34375 77.347656 11.792969 C 77.347656 11.257812 77.347656 10.726562 77.351562 10.191406 C 77.351562 10.160156 77.351562 10.125 77.351562 10.09375 C 77.351562 9.925781 77.351562 9.761719 77.351562 9.59375 C 77.355469 8.226562 77.359375 6.855469 77.363281 5.484375 C 77.335938 5.484375 77.304688 5.480469 77.273438 5.476562 C 77.214844 5.472656 77.214844 5.472656 77.15625 5.46875 C 77.117188 5.464844 77.078125 5.460938 77.039062 5.460938 C 76.914062 5.449219 76.792969 5.433594 76.667969 5.414062 C 76.625 5.40625 76.582031 5.402344 76.535156 5.394531 C 76.492188 5.386719 76.445312 5.382812 76.402344 5.375 C 76.355469 5.367188 76.308594 5.363281 76.261719 5.355469 C 76.148438 5.339844 76.035156 5.320312 75.925781 5.304688 C 75.925781 5.019531 75.925781 4.734375 75.925781 4.4375 C 76.367188 4.316406 76.808594 4.195312 77.253906 4.082031 C 77.28125 4.074219 77.3125 4.066406 77.34375 4.058594 C 77.507812 4.015625 77.667969 3.976562 77.828125 3.933594 C 77.960938 3.902344 78.09375 3.867188 78.226562 3.832031 C 78.386719 3.789062 78.546875 3.75 78.710938 3.707031 C 78.773438 3.691406 78.832031 3.675781 78.894531 3.660156 C 78.980469 3.640625 79.0625 3.617188 79.148438 3.597656 C 79.175781 3.589844 79.199219 3.582031 79.226562 3.574219 C 79.347656 3.546875 79.441406 3.523438 79.558594 3.574219 Z M 79.558594 3.574219 "/>
<path style=" stroke:none;fill-rule:nonzero;fill:rgb(10.196079%,11.372549%,14.117648%);fill-opacity:1;" d="M 149.539062 9.019531 C 150.164062 9.609375 150.351562 10.503906 150.40625 11.332031 C 150.414062 11.503906 150.414062 11.675781 150.414062 11.847656 C 150.414062 11.898438 150.414062 11.949219 150.414062 12 C 150.414062 12.109375 150.414062 12.21875 150.414062 12.324219 C 150.414062 12.496094 150.417969 12.667969 150.417969 12.839844 C 150.417969 13.328125 150.421875 13.816406 150.421875 14.304688 C 150.421875 14.574219 150.425781 14.84375 150.425781 15.113281 C 150.425781 15.253906 150.425781 15.398438 150.425781 15.539062 C 150.425781 15.675781 150.425781 15.808594 150.429688 15.941406 C 150.429688 16.015625 150.429688 16.085938 150.429688 16.160156 C 150.429688 16.449219 150.4375 16.75 150.628906 16.984375 C 150.796875 17.066406 150.953125 17.097656 151.140625 17.050781 C 151.347656 16.964844 151.507812 16.832031 151.667969 16.671875 C 151.839844 16.800781 152.007812 16.929688 152.171875 17.070312 C 152.09375 17.292969 151.953125 17.460938 151.8125 17.648438 C 151.769531 17.703125 151.769531 17.703125 151.730469 17.761719 C 151.285156 18.226562 150.714844 18.402344 150.089844 18.417969 C 149.546875 18.40625 149 18.246094 148.597656 17.863281 C 148.398438 17.632812 148.140625 17.28125 148.140625 16.960938 C 147.871094 17.171875 147.871094 17.171875 147.625 17.410156 C 147.433594 17.609375 147.207031 17.773438 146.988281 17.9375 C 146.953125 17.960938 146.921875 17.988281 146.886719 18.011719 C 146.230469 18.46875 145.285156 18.511719 144.515625 18.375 C 143.875 18.234375 143.289062 17.894531 142.921875 17.339844 C 142.550781 16.703125 142.449219 15.925781 142.625 15.210938 C 142.929688 14.292969 143.617188 13.765625 144.453125 13.339844 C 145.414062 12.871094 146.464844 12.566406 147.492188 12.269531 C 147.515625 12.265625 147.539062 12.257812 147.5625 12.25 C 147.707031 12.210938 147.851562 12.167969 147.996094 12.125 C 148.042969 10.792969 148.042969 10.792969 147.492188 9.636719 C 147.183594 9.34375 146.742188 9.304688 146.335938 9.308594 C 146.296875 9.308594 146.296875 9.308594 146.257812 9.308594 C 146.007812 9.308594 145.761719 9.324219 145.511719 9.347656 C 145.507812 9.390625 145.503906 9.433594 145.5 9.476562 C 145.476562 9.703125 145.433594 9.925781 145.390625 10.148438 C 145.378906 10.222656 145.363281 10.292969 145.351562 10.367188 C 145.25 10.910156 145.105469 11.378906 144.640625 11.710938 C 144.285156 11.902344 143.917969 11.898438 143.53125 11.800781 C 143.273438 11.714844 143.109375 11.558594 142.984375 11.316406 C 142.851562 11.023438 142.859375 10.777344 142.960938 10.472656 C 142.972656 10.433594 142.972656 10.433594 142.984375 10.398438 C 143.128906 9.96875 143.363281 9.664062 143.675781 9.347656 C 143.703125 9.320312 143.726562 9.292969 143.753906 9.265625 C 145.101562 7.960938 148.113281 7.828125 149.539062 9.019531 Z M 147.59375 13.113281 C 147.4375 13.167969 147.28125 13.21875 147.121094 13.269531 C 146.359375 13.511719 145.515625 13.84375 145.117188 14.585938 C 144.875 15.066406 144.832031 15.535156 144.972656 16.058594 C 145.078125 16.375 145.226562 16.566406 145.515625 16.730469 C 145.945312 16.9375 146.414062 16.957031 146.863281 16.800781 C 147.089844 16.703125 147.308594 16.578125 147.511719 16.441406 C 147.601562 16.386719 147.601562 16.386719 147.699219 16.335938 C 147.839844 16.257812 147.96875 16.1875 148.019531 16.027344 C 148.054688 15.816406 148.042969 15.601562 148.035156 15.390625 C 148.035156 15.320312 148.035156 15.25 148.03125 15.179688 C 148.03125 15 148.027344 14.820312 148.023438 14.636719 C 148.019531 14.453125 148.015625 14.265625 148.015625 14.082031 C 148.011719 13.71875 148.003906 13.355469 147.996094 12.992188 C 147.871094 12.992188 147.714844 13.074219 147.59375 13.113281 Z M 147.59375 13.113281 "/>
<path style=" stroke:none;fill-rule:nonzero;fill:rgb(10.196079%,11.372549%,14.117648%);fill-opacity:1;" d="M 57.050781 9.363281 C 57.308594 9.609375 57.496094 9.867188 57.671875 10.175781 C 57.691406 10.210938 57.691406 10.210938 57.710938 10.246094 C 58.257812 11.210938 58.3125 12.382812 58.140625 13.460938 C 58.105469 13.496094 58.105469 13.496094 58.003906 13.503906 C 57.9375 13.503906 57.9375 13.503906 57.871094 13.503906 C 57.84375 13.503906 57.820312 13.503906 57.796875 13.503906 C 57.710938 13.503906 57.628906 13.503906 57.542969 13.5 C 57.484375 13.5 57.425781 13.5 57.367188 13.5 C 57.203125 13.5 57.042969 13.5 56.878906 13.5 C 56.710938 13.5 56.539062 13.5 56.371094 13.5 C 56.050781 13.5 55.730469 13.5 55.40625 13.5 C 55.042969 13.5 54.675781 13.5 54.3125 13.5 C 53.558594 13.5 52.808594 13.5 52.054688 13.496094 C 52.074219 13.636719 52.089844 13.773438 52.105469 13.914062 C 52.109375 13.949219 52.113281 13.988281 52.121094 14.03125 C 52.21875 14.851562 52.511719 15.660156 53.15625 16.210938 C 53.902344 16.785156 54.714844 16.902344 55.632812 16.804688 C 56.308594 16.695312 56.855469 16.273438 57.335938 15.804688 C 57.519531 15.625 57.519531 15.625 57.636719 15.628906 C 57.695312 15.671875 57.695312 15.671875 57.753906 15.734375 C 57.886719 15.878906 58.027344 16.003906 58.175781 16.132812 C 58.019531 16.570312 57.703125 16.921875 57.382812 17.25 C 57.359375 17.277344 57.335938 17.304688 57.3125 17.328125 C 56.6875 18 55.757812 18.367188 54.863281 18.476562 C 54.832031 18.480469 54.800781 18.484375 54.769531 18.492188 C 53.460938 18.636719 52.15625 18.316406 51.109375 17.507812 C 50.132812 16.6875 49.617188 15.546875 49.464844 14.292969 C 49.457031 14.242188 49.457031 14.242188 49.453125 14.191406 C 49.304688 12.75 49.609375 11.277344 50.515625 10.121094 C 50.558594 10.066406 50.605469 10.015625 50.652344 9.960938 C 50.675781 9.933594 50.695312 9.90625 50.71875 9.878906 C 51.476562 8.980469 52.703125 8.460938 53.851562 8.351562 C 55.050781 8.265625 56.144531 8.550781 57.050781 9.363281 Z M 52.839844 9.980469 C 52.425781 10.511719 52.230469 11.082031 52.117188 11.738281 C 52.113281 11.773438 52.105469 11.8125 52.101562 11.851562 C 52.09375 11.886719 52.089844 11.921875 52.082031 11.957031 C 52.078125 11.988281 52.070312 12.019531 52.066406 12.054688 C 52.058594 12.148438 52.054688 12.238281 52.054688 12.332031 C 52.054688 12.359375 52.054688 12.390625 52.054688 12.421875 C 52.054688 12.441406 52.054688 12.464844 52.054688 12.488281 C 52.457031 12.488281 52.863281 12.492188 53.265625 12.492188 C 53.453125 12.492188 53.636719 12.496094 53.824219 12.496094 C 54.007812 12.496094 54.1875 12.496094 54.367188 12.496094 C 54.4375 12.496094 54.503906 12.5 54.574219 12.5 C 54.671875 12.5 54.765625 12.5 54.863281 12.5 C 54.890625 12.5 54.921875 12.5 54.949219 12.5 C 55.199219 12.5 55.445312 12.457031 55.632812 12.273438 C 55.90625 11.902344 55.917969 11.414062 55.871094 10.972656 C 55.792969 10.453125 55.523438 9.953125 55.097656 9.640625 C 54.339844 9.167969 53.425781 9.292969 52.839844 9.980469 Z M 52.839844 9.980469 "/>
<path style=" stroke:none;fill-rule:nonzero;fill:rgb(10.196079%,11.372549%,14.117648%);fill-opacity:1;" d="M 169.09375 9.128906 C 169.359375 9.367188 169.585938 9.621094 169.777344 9.925781 C 169.796875 9.957031 169.816406 9.988281 169.839844 10.019531 C 170.441406 10.984375 170.546875 12.25 170.351562 13.351562 C 170.285156 13.421875 170.171875 13.394531 170.082031 13.394531 C 170.058594 13.394531 170.03125 13.394531 170.007812 13.394531 C 169.921875 13.394531 169.839844 13.398438 169.757812 13.398438 C 169.695312 13.398438 169.636719 13.398438 169.578125 13.398438 C 169.414062 13.398438 169.253906 13.398438 169.089844 13.402344 C 168.921875 13.402344 168.753906 13.402344 168.582031 13.402344 C 168.261719 13.40625 167.941406 13.40625 167.621094 13.40625 C 167.253906 13.410156 166.890625 13.410156 166.523438 13.414062 C 165.773438 13.417969 165.019531 13.421875 164.269531 13.425781 C 164.277344 13.535156 164.289062 13.644531 164.300781 13.753906 C 164.304688 13.785156 164.308594 13.816406 164.3125 13.847656 C 164.332031 14.070312 164.367188 14.285156 164.421875 14.5 C 164.429688 14.53125 164.4375 14.5625 164.445312 14.597656 C 164.554688 15.019531 164.714844 15.390625 164.988281 15.734375 C 165.007812 15.761719 165.027344 15.789062 165.050781 15.816406 C 165.480469 16.34375 166.148438 16.679688 166.824219 16.746094 C 167.761719 16.808594 168.507812 16.617188 169.230469 16.007812 C 169.40625 15.851562 169.574219 15.6875 169.738281 15.519531 C 169.847656 15.566406 169.925781 15.621094 170.007812 15.699219 C 170.03125 15.722656 170.054688 15.742188 170.074219 15.765625 C 170.097656 15.785156 170.121094 15.808594 170.144531 15.828125 C 170.167969 15.851562 170.191406 15.875 170.214844 15.898438 C 170.273438 15.949219 170.332031 16.003906 170.386719 16.058594 C 169.984375 16.976562 169.152344 17.726562 168.230469 18.097656 C 168.082031 18.15625 167.925781 18.207031 167.769531 18.253906 C 167.75 18.261719 167.726562 18.269531 167.703125 18.277344 C 167.265625 18.402344 166.824219 18.421875 166.375 18.417969 C 166.34375 18.417969 166.316406 18.417969 166.289062 18.417969 C 165.828125 18.417969 165.394531 18.390625 164.953125 18.261719 C 164.914062 18.25 164.914062 18.25 164.871094 18.238281 C 163.804688 17.925781 162.941406 17.257812 162.359375 16.3125 C 162.347656 16.289062 162.332031 16.269531 162.320312 16.246094 C 161.546875 14.96875 161.472656 13.28125 161.816406 11.863281 C 162.113281 10.703125 162.855469 9.625 163.878906 8.996094 C 165.457031 8.070312 167.621094 7.890625 169.09375 9.128906 Z M 165.160156 9.746094 C 164.566406 10.40625 164.265625 11.320312 164.265625 12.207031 C 164.265625 12.238281 164.269531 12.269531 164.269531 12.304688 C 164.269531 12.328125 164.269531 12.355469 164.269531 12.378906 C 164.671875 12.382812 165.074219 12.382812 165.476562 12.382812 C 165.664062 12.386719 165.851562 12.386719 166.039062 12.386719 C 166.21875 12.386719 166.398438 12.390625 166.578125 12.390625 C 166.648438 12.390625 166.71875 12.390625 166.785156 12.390625 C 166.882812 12.390625 166.980469 12.390625 167.074219 12.390625 C 167.105469 12.390625 167.132812 12.390625 167.160156 12.390625 C 167.390625 12.390625 167.617188 12.347656 167.808594 12.210938 C 168.121094 11.832031 168.117188 11.40625 168.085938 10.933594 C 168.019531 10.425781 167.796875 10.03125 167.4375 9.671875 C 167.414062 9.652344 167.394531 9.628906 167.371094 9.605469 C 166.746094 9.027344 165.742188 9.183594 165.160156 9.746094 Z M 165.160156 9.746094 "/>
<path style=" stroke:none;fill-rule:nonzero;fill:rgb(10.196079%,11.372549%,14.117648%);fill-opacity:1;" d="M 178.8125 9.058594 C 178.816406 9.464844 178.804688 9.867188 178.785156 10.269531 C 178.777344 10.367188 178.773438 10.460938 178.769531 10.554688 C 178.765625 10.617188 178.761719 10.675781 178.757812 10.738281 C 178.757812 10.765625 178.757812 10.792969 178.753906 10.824219 C 178.746094 10.960938 178.730469 11.085938 178.703125 11.222656 C 178.253906 11.222656 177.800781 11.222656 177.335938 11.222656 C 177.308594 11.109375 177.285156 10.992188 177.257812 10.871094 C 177.234375 10.757812 177.207031 10.648438 177.183594 10.535156 C 177.167969 10.457031 177.148438 10.378906 177.132812 10.300781 C 177.109375 10.1875 177.082031 10.074219 177.058594 9.960938 C 177.050781 9.925781 177.042969 9.890625 177.035156 9.855469 C 177.027344 9.824219 177.019531 9.789062 177.011719 9.757812 C 177.007812 9.730469 177 9.699219 176.992188 9.671875 C 176.976562 9.597656 176.976562 9.597656 176.941406 9.527344 C 176.855469 9.5 176.769531 9.476562 176.679688 9.453125 C 176.644531 9.445312 176.644531 9.445312 176.609375 9.433594 C 176.011719 9.28125 175.253906 9.25 174.699219 9.5625 C 174.445312 9.722656 174.304688 9.914062 174.191406 10.1875 C 174.125 10.5625 174.160156 10.890625 174.355469 11.222656 C 174.742188 11.742188 175.621094 11.933594 176.203125 12.109375 C 177.277344 12.433594 178.445312 12.898438 179.035156 13.914062 C 179.371094 14.570312 179.433594 15.386719 179.242188 16.097656 C 178.972656 16.914062 178.4375 17.554688 177.671875 17.945312 C 176.191406 18.667969 174.367188 18.59375 172.835938 18.082031 C 172.511719 17.960938 172.207031 17.804688 171.898438 17.648438 C 171.855469 16.855469 171.863281 16.0625 171.863281 15.265625 C 172.328125 15.265625 172.789062 15.265625 173.269531 15.265625 C 173.304688 15.457031 173.304688 15.457031 173.34375 15.652344 C 173.371094 15.773438 173.394531 15.894531 173.417969 16.019531 C 173.4375 16.101562 173.453125 16.1875 173.472656 16.273438 C 173.496094 16.394531 173.519531 16.519531 173.546875 16.640625 C 173.554688 16.679688 173.5625 16.71875 173.570312 16.757812 C 173.578125 16.792969 173.582031 16.828125 173.589844 16.863281 C 173.597656 16.894531 173.601562 16.925781 173.609375 16.957031 C 173.625 17.035156 173.625 17.035156 173.664062 17.105469 C 174.484375 17.425781 175.546875 17.503906 176.367188 17.15625 C 176.699219 16.996094 176.925781 16.8125 177.054688 16.460938 C 177.136719 16.140625 177.121094 15.792969 176.988281 15.492188 C 176.867188 15.289062 176.730469 15.160156 176.53125 15.035156 C 176.496094 15.007812 176.457031 14.984375 176.417969 14.957031 C 175.894531 14.65625 175.308594 14.484375 174.742188 14.292969 C 174.101562 14.078125 173.523438 13.835938 172.980469 13.425781 C 172.945312 13.398438 172.910156 13.375 172.875 13.347656 C 172.839844 13.316406 172.839844 13.316406 172.800781 13.28125 C 172.800781 13.257812 172.800781 13.234375 172.800781 13.210938 C 172.78125 13.203125 172.757812 13.195312 172.738281 13.1875 C 172.402344 12.984375 172.191406 12.425781 172.089844 12.066406 C 171.90625 11.257812 172.035156 10.449219 172.476562 9.746094 C 173.023438 8.9375 173.851562 8.507812 174.78125 8.3125 C 176.195312 8.050781 177.578125 8.359375 178.8125 9.058594 Z M 178.8125 9.058594 "/>
<path style=" stroke:none;fill-rule:nonzero;fill:rgb(10.196079%,11.372549%,14.117648%);fill-opacity:1;" d="M 101.914062 9.167969 C 101.953125 9.203125 101.953125 9.203125 101.953125 9.28125 C 101.953125 9.316406 101.953125 9.351562 101.949219 9.386719 C 101.949219 9.429688 101.949219 9.46875 101.945312 9.507812 C 101.945312 9.550781 101.941406 9.597656 101.941406 9.640625 C 101.9375 9.683594 101.9375 9.730469 101.9375 9.773438 C 101.914062 10.292969 101.878906 10.8125 101.84375 11.332031 C 101.390625 11.332031 100.941406 11.332031 100.476562 11.332031 C 100.386719 10.96875 100.296875 10.605469 100.214844 10.242188 C 100.207031 10.199219 100.195312 10.15625 100.1875 10.109375 C 100.175781 10.070312 100.167969 10.03125 100.15625 9.988281 C 100.148438 9.949219 100.140625 9.914062 100.132812 9.878906 C 100.117188 9.78125 100.117188 9.78125 100.117188 9.636719 C 100.058594 9.621094 100 9.601562 99.941406 9.585938 C 99.910156 9.578125 99.878906 9.566406 99.84375 9.558594 C 99.535156 9.480469 99.234375 9.441406 98.914062 9.445312 C 98.878906 9.445312 98.84375 9.445312 98.804688 9.445312 C 98.34375 9.453125 97.945312 9.527344 97.59375 9.847656 C 97.34375 10.117188 97.289062 10.359375 97.292969 10.722656 C 97.300781 10.929688 97.335938 11.085938 97.453125 11.261719 C 97.464844 11.28125 97.476562 11.304688 97.492188 11.324219 C 97.894531 11.882812 98.875 12.09375 99.492188 12.269531 C 100.582031 12.582031 101.554688 13.085938 102.132812 14.109375 C 102.324219 14.472656 102.433594 14.859375 102.457031 15.265625 C 102.457031 15.296875 102.460938 15.328125 102.460938 15.359375 C 102.484375 16.128906 102.234375 16.785156 101.734375 17.359375 C 101.714844 17.382812 101.695312 17.40625 101.675781 17.433594 C 100.925781 18.25 99.773438 18.523438 98.710938 18.585938 C 97.71875 18.621094 96.804688 18.511719 95.867188 18.175781 C 95.828125 18.164062 95.828125 18.164062 95.789062 18.148438 C 95.515625 18.046875 95.261719 17.898438 95.003906 17.757812 C 95.003906 17.449219 95.003906 17.144531 95.003906 16.839844 C 95 16.699219 95 16.558594 95 16.414062 C 95 16.277344 95 16.140625 95 16.003906 C 95 15.953125 95 15.902344 95 15.847656 C 95 15.777344 95 15.703125 95 15.628906 C 95 15.589844 95 15.546875 95 15.503906 C 95.003906 15.410156 95.003906 15.410156 95.039062 15.375 C 95.136719 15.371094 95.230469 15.371094 95.324219 15.371094 C 95.351562 15.371094 95.382812 15.371094 95.410156 15.371094 C 95.472656 15.371094 95.53125 15.371094 95.59375 15.371094 C 95.683594 15.371094 95.777344 15.371094 95.871094 15.371094 C 95.929688 15.371094 95.988281 15.371094 96.046875 15.371094 C 96.074219 15.371094 96.101562 15.371094 96.132812 15.371094 C 96.328125 15.371094 96.328125 15.371094 96.40625 15.410156 C 96.429688 15.476562 96.429688 15.476562 96.445312 15.558594 C 96.453125 15.59375 96.457031 15.625 96.464844 15.65625 C 96.472656 15.691406 96.480469 15.726562 96.484375 15.761719 C 96.492188 15.796875 96.5 15.832031 96.507812 15.871094 C 96.523438 15.945312 96.539062 16.019531 96.550781 16.09375 C 96.574219 16.210938 96.597656 16.324219 96.621094 16.441406 C 96.636719 16.511719 96.648438 16.585938 96.664062 16.660156 C 96.671875 16.695312 96.675781 16.726562 96.683594 16.761719 C 96.714844 16.929688 96.742188 17.082031 96.730469 17.25 C 96.796875 17.265625 96.796875 17.265625 96.867188 17.28125 C 97.039062 17.320312 97.210938 17.363281 97.378906 17.40625 C 97.675781 17.472656 97.964844 17.476562 98.265625 17.476562 C 98.308594 17.476562 98.355469 17.476562 98.402344 17.480469 C 98.945312 17.480469 99.476562 17.390625 99.910156 17.039062 C 100.140625 16.800781 100.230469 16.507812 100.238281 16.183594 C 100.226562 15.851562 100.140625 15.570312 99.898438 15.339844 C 99.324219 14.898438 98.652344 14.683594 97.96875 14.460938 C 96.929688 14.121094 95.921875 13.6875 95.390625 12.667969 C 95.070312 11.996094 95.058594 11.195312 95.292969 10.496094 C 95.640625 9.613281 96.273438 9.042969 97.128906 8.660156 C 98.691406 8.03125 100.484375 8.390625 101.914062 9.167969 Z M 101.914062 9.167969 "/>
<path style=" stroke:none;fill-rule:nonzero;fill:rgb(10.196079%,11.372549%,14.117648%);fill-opacity:1;" d="M 158.914062 8.65625 C 158.941406 8.664062 158.96875 8.675781 158.996094 8.6875 C 159.277344 8.804688 159.53125 8.949219 159.804688 9.09375 C 159.769531 9.808594 159.734375 10.523438 159.695312 11.261719 C 159.246094 11.261719 158.792969 11.261719 158.328125 11.261719 C 158.164062 10.652344 158.164062 10.652344 158.113281 10.414062 C 158.109375 10.386719 158.105469 10.363281 158.097656 10.339844 C 158.082031 10.261719 158.066406 10.183594 158.050781 10.109375 C 158.039062 10.054688 158.027344 10 158.015625 9.949219 C 157.988281 9.820312 157.960938 9.691406 157.933594 9.5625 C 157.851562 9.539062 157.773438 9.515625 157.695312 9.492188 C 157.648438 9.480469 157.605469 9.46875 157.558594 9.453125 C 157.289062 9.382812 157.035156 9.375 156.753906 9.375 C 156.695312 9.375 156.695312 9.375 156.632812 9.371094 C 156.207031 9.371094 155.859375 9.472656 155.496094 9.695312 C 155.257812 9.933594 155.125 10.226562 155.121094 10.5625 C 155.140625 10.875 155.234375 11.148438 155.453125 11.378906 C 155.964844 11.832031 156.730469 12.007812 157.367188 12.199219 C 158.441406 12.527344 159.429688 13.003906 160 14.03125 C 160.320312 14.699219 160.40625 15.554688 160.175781 16.265625 C 159.832031 17.128906 159.214844 17.71875 158.378906 18.105469 C 156.902344 18.730469 155.007812 18.601562 153.539062 18.007812 C 153.304688 17.902344 153.070312 17.792969 152.855469 17.648438 C 152.839844 17.550781 152.839844 17.550781 152.839844 17.425781 C 152.839844 17.378906 152.839844 17.332031 152.839844 17.28125 C 152.839844 17.230469 152.835938 17.179688 152.835938 17.128906 C 152.835938 17.074219 152.835938 17.023438 152.835938 16.96875 C 152.832031 16.832031 152.832031 16.695312 152.832031 16.554688 C 152.832031 16.390625 152.828125 16.222656 152.828125 16.058594 C 152.824219 15.804688 152.820312 15.554688 152.820312 15.300781 C 153.285156 15.300781 153.746094 15.300781 154.222656 15.300781 C 154.304688 15.546875 154.304688 15.546875 154.332031 15.671875 C 154.335938 15.703125 154.34375 15.730469 154.347656 15.757812 C 154.355469 15.789062 154.359375 15.820312 154.367188 15.847656 C 154.371094 15.878906 154.378906 15.910156 154.386719 15.945312 C 154.398438 16.011719 154.410156 16.074219 154.425781 16.140625 C 154.445312 16.242188 154.464844 16.34375 154.484375 16.445312 C 154.496094 16.507812 154.511719 16.574219 154.523438 16.636719 C 154.53125 16.667969 154.535156 16.695312 154.542969 16.726562 C 154.570312 16.867188 154.589844 17 154.585938 17.144531 C 155.550781 17.394531 156.632812 17.589844 157.550781 17.078125 C 157.828125 16.898438 157.972656 16.6875 158.066406 16.375 C 158.105469 16.035156 158.066406 15.746094 157.910156 15.441406 C 157.382812 14.800781 156.542969 14.597656 155.789062 14.34375 C 154.785156 14.007812 153.769531 13.589844 153.253906 12.59375 C 152.925781 11.898438 152.90625 11.121094 153.144531 10.394531 C 153.152344 10.363281 153.164062 10.332031 153.171875 10.296875 C 153.402344 9.628906 153.941406 9.101562 154.546875 8.769531 C 154.582031 8.75 154.617188 8.730469 154.652344 8.710938 C 155.074219 8.480469 155.550781 8.359375 156.023438 8.300781 C 156.050781 8.296875 156.082031 8.292969 156.109375 8.289062 C 157.070312 8.175781 158.015625 8.300781 158.914062 8.65625 Z M 158.914062 8.65625 "/>
<path style=" stroke:none;fill-rule:nonzero;fill:rgb(10.196079%,11.372549%,14.117648%);fill-opacity:1;" d="M 89.929688 5.882812 C 90.472656 5.882812 91.019531 5.882812 91.585938 5.882812 C 91.585938 6.441406 91.582031 7 91.566406 7.558594 C 91.566406 7.597656 91.566406 7.597656 91.566406 7.640625 C 91.5625 7.714844 91.5625 7.792969 91.558594 7.871094 C 91.558594 7.914062 91.558594 7.957031 91.554688 8.003906 C 91.546875 8.210938 91.527344 8.417969 91.511719 8.625 C 92.296875 8.625 93.082031 8.625 93.886719 8.625 C 93.886719 9.054688 93.886719 9.484375 93.886719 9.925781 C 93.09375 9.925781 92.296875 9.925781 91.476562 9.925781 C 91.476562 10.695312 91.480469 11.46875 91.484375 12.238281 C 91.484375 12.597656 91.488281 12.953125 91.488281 13.3125 C 91.488281 13.625 91.492188 13.9375 91.492188 14.25 C 91.492188 14.414062 91.492188 14.578125 91.492188 14.746094 C 91.492188 14.902344 91.496094 15.058594 91.496094 15.214844 C 91.496094 15.269531 91.496094 15.328125 91.496094 15.382812 C 91.492188 16.148438 91.492188 16.148438 91.800781 16.816406 C 92.015625 17.023438 92.261719 17.105469 92.554688 17.105469 C 92.910156 17.058594 93.21875 16.933594 93.53125 16.761719 C 93.683594 16.683594 93.683594 16.683594 93.78125 16.671875 C 93.839844 16.710938 93.839844 16.710938 93.894531 16.773438 C 93.917969 16.792969 93.9375 16.816406 93.960938 16.835938 C 93.980469 16.859375 94 16.882812 94.023438 16.90625 C 94.042969 16.929688 94.066406 16.949219 94.089844 16.972656 C 94.140625 17.03125 94.195312 17.085938 94.246094 17.144531 C 94.175781 17.34375 94.058594 17.488281 93.925781 17.648438 C 93.90625 17.667969 93.886719 17.691406 93.871094 17.714844 C 93.5625 18.050781 93.128906 18.273438 92.699219 18.40625 C 92.664062 18.417969 92.625 18.429688 92.589844 18.441406 C 92.265625 18.523438 91.949219 18.527344 91.617188 18.527344 C 91.574219 18.527344 91.527344 18.527344 91.480469 18.53125 C 90.78125 18.527344 90.125 18.316406 89.597656 17.847656 C 89.316406 17.550781 89.140625 17.109375 89.0625 16.710938 C 89.058594 16.679688 89.050781 16.644531 89.046875 16.613281 C 89.027344 16.480469 89.023438 16.351562 89.023438 16.21875 C 89.023438 16.191406 89.023438 16.164062 89.023438 16.136719 C 89.023438 16.046875 89.023438 15.957031 89.023438 15.867188 C 89.023438 15.800781 89.023438 15.734375 89.023438 15.671875 C 89.023438 15.496094 89.023438 15.320312 89.023438 15.144531 C 89.023438 14.960938 89.023438 14.777344 89.023438 14.59375 C 89.023438 14.246094 89.023438 13.898438 89.027344 13.550781 C 89.027344 13.15625 89.027344 12.761719 89.027344 12.367188 C 89.027344 11.550781 89.027344 10.738281 89.027344 9.925781 C 88.554688 9.925781 88.078125 9.925781 87.589844 9.925781 C 87.589844 9.554688 87.589844 9.1875 87.589844 8.804688 C 88.371094 8.699219 88.371094 8.699219 89.171875 8.589844 C 89.222656 8.402344 89.273438 8.21875 89.328125 8.023438 C 89.359375 7.90625 89.394531 7.789062 89.425781 7.671875 C 89.476562 7.484375 89.53125 7.296875 89.582031 7.109375 C 89.625 6.957031 89.664062 6.808594 89.707031 6.65625 C 89.722656 6.597656 89.738281 6.542969 89.753906 6.484375 C 89.777344 6.402344 89.800781 6.324219 89.820312 6.242188 C 89.828125 6.21875 89.835938 6.195312 89.84375 6.167969 C 89.867188 6.074219 89.894531 5.976562 89.929688 5.882812 Z M 89.929688 5.882812 "/>
<path style=" stroke:none;fill-rule:nonzero;fill:rgb(10.196079%,11.372549%,14.117648%);fill-opacity:1;" d="M 140.027344 8.332031 C 140.105469 8.394531 140.140625 8.425781 140.167969 8.523438 C 140.175781 8.621094 140.171875 8.71875 140.164062 8.820312 C 140.164062 8.859375 140.164062 8.898438 140.160156 8.9375 C 140.160156 9.023438 140.15625 9.109375 140.152344 9.195312 C 140.140625 9.410156 140.136719 9.628906 140.132812 9.847656 C 140.128906 9.925781 140.125 10.007812 140.125 10.089844 C 140.105469 10.761719 140.109375 11.4375 140.109375 12.113281 C 140.109375 12.289062 140.109375 12.464844 140.109375 12.644531 C 140.109375 12.964844 140.109375 13.289062 140.109375 13.613281 C 140.109375 13.980469 140.109375 14.351562 140.109375 14.722656 C 140.109375 15.480469 140.109375 16.238281 140.113281 17 C 140.140625 17.003906 140.171875 17.007812 140.203125 17.015625 C 140.3125 17.035156 140.421875 17.054688 140.53125 17.074219 C 140.605469 17.085938 140.675781 17.097656 140.746094 17.113281 C 140.789062 17.121094 140.835938 17.128906 140.882812 17.136719 C 140.921875 17.144531 140.964844 17.152344 141.007812 17.160156 C 141.105469 17.175781 141.203125 17.195312 141.300781 17.214844 C 141.300781 17.511719 141.300781 17.808594 141.300781 18.117188 C 139.660156 18.117188 138.019531 18.117188 136.332031 18.117188 C 136.332031 17.820312 136.332031 17.523438 136.332031 17.214844 C 136.480469 17.183594 136.632812 17.152344 136.78125 17.121094 C 136.832031 17.113281 136.882812 17.101562 136.933594 17.089844 C 137.007812 17.074219 137.082031 17.0625 137.15625 17.046875 C 137.222656 17.03125 137.222656 17.03125 137.289062 17.019531 C 137.40625 17 137.511719 16.996094 137.628906 17 C 137.628906 16.34375 137.628906 15.6875 137.628906 15.03125 C 137.628906 14.730469 137.628906 14.425781 137.628906 14.121094 C 137.632812 13.855469 137.632812 13.589844 137.632812 13.320312 C 137.632812 13.183594 137.632812 13.042969 137.632812 12.902344 C 137.632812 12.101562 137.617188 11.300781 137.59375 10.503906 C 137.523438 10.492188 137.523438 10.492188 137.453125 10.484375 C 137.304688 10.464844 137.15625 10.445312 137.007812 10.425781 C 136.945312 10.417969 136.878906 10.410156 136.8125 10.402344 C 136.714844 10.390625 136.621094 10.378906 136.527344 10.363281 C 136.480469 10.359375 136.480469 10.359375 136.4375 10.351562 C 136.226562 10.324219 136.226562 10.324219 136.1875 10.285156 C 136.183594 10.226562 136.183594 10.167969 136.183594 10.109375 C 136.183594 10.074219 136.183594 10.035156 136.183594 10 C 136.183594 9.960938 136.183594 9.925781 136.1875 9.886719 C 136.1875 9.847656 136.1875 9.8125 136.1875 9.773438 C 136.1875 9.679688 136.1875 9.585938 136.1875 9.492188 C 136.453125 9.382812 136.722656 9.285156 136.992188 9.1875 C 137.035156 9.175781 137.078125 9.160156 137.121094 9.144531 C 137.253906 9.097656 137.390625 9.050781 137.527344 9.003906 C 137.710938 8.9375 137.898438 8.871094 138.082031 8.808594 C 138.105469 8.800781 138.128906 8.792969 138.152344 8.785156 C 138.425781 8.6875 138.703125 8.589844 138.976562 8.488281 C 139.003906 8.480469 139.03125 8.46875 139.058594 8.460938 C 139.175781 8.417969 139.292969 8.375 139.40625 8.328125 C 139.464844 8.308594 139.464844 8.308594 139.527344 8.285156 C 139.574219 8.269531 139.574219 8.269531 139.625 8.25 C 139.785156 8.214844 139.890625 8.253906 140.027344 8.332031 Z M 140.027344 8.332031 "/>
<path style=" stroke:none;fill-rule:nonzero;fill:rgb(10.196079%,11.372549%,14.117648%);fill-opacity:1;" d="M 63.324219 8.480469 C 63.324219 11.316406 63.324219 14.148438 63.324219 17.070312 C 63.804688 17.160156 63.804688 17.160156 64.296875 17.25 C 64.378906 17.273438 64.460938 17.296875 64.546875 17.324219 C 64.546875 17.609375 64.546875 17.894531 64.546875 18.191406 C 62.898438 18.191406 61.246094 18.191406 59.542969 18.191406 C 59.542969 17.902344 59.542969 17.617188 59.542969 17.324219 C 59.8125 17.253906 60.082031 17.191406 60.351562 17.136719 C 60.398438 17.125 60.398438 17.125 60.445312 17.117188 C 60.476562 17.109375 60.503906 17.105469 60.535156 17.097656 C 60.5625 17.09375 60.589844 17.085938 60.617188 17.082031 C 60.703125 17.070312 60.789062 17.070312 60.875 17.070312 C 60.871094 16.328125 60.867188 15.585938 60.863281 14.84375 C 60.863281 14.5 60.859375 14.15625 60.859375 13.8125 C 60.855469 13.511719 60.855469 13.210938 60.851562 12.910156 C 60.851562 12.753906 60.851562 12.59375 60.851562 12.433594 C 60.851562 12.285156 60.847656 12.132812 60.847656 11.984375 C 60.847656 11.929688 60.847656 11.875 60.847656 11.820312 C 60.847656 11.527344 60.839844 11.230469 60.824219 10.9375 C 60.824219 10.910156 60.820312 10.882812 60.820312 10.851562 C 60.8125 10.710938 60.8125 10.710938 60.769531 10.574219 C 60.667969 10.554688 60.566406 10.539062 60.464844 10.527344 C 60.433594 10.523438 60.40625 10.519531 60.375 10.515625 C 60.277344 10.503906 60.179688 10.492188 60.082031 10.480469 C 60.015625 10.472656 59.949219 10.464844 59.882812 10.453125 C 59.722656 10.433594 59.5625 10.414062 59.398438 10.394531 C 59.398438 10.121094 59.398438 9.847656 59.398438 9.5625 C 59.945312 9.359375 60.492188 9.164062 61.042969 8.972656 C 61.167969 8.929688 61.292969 8.886719 61.414062 8.84375 C 61.496094 8.8125 61.578125 8.785156 61.660156 8.753906 C 61.871094 8.683594 62.078125 8.609375 62.285156 8.53125 C 62.328125 8.515625 62.367188 8.5 62.410156 8.484375 C 62.488281 8.453125 62.566406 8.425781 62.644531 8.394531 C 62.679688 8.382812 62.714844 8.371094 62.75 8.355469 C 62.796875 8.339844 62.796875 8.339844 62.84375 8.320312 C 63.042969 8.273438 63.140625 8.378906 63.324219 8.480469 Z M 63.324219 8.480469 "/>
<path style=" stroke:none;fill-rule:nonzero;fill:rgb(98.823529%,73.725492%,19.607843%);fill-opacity:1;" d="M 12.960938 13.894531 C 13.460938 14.277344 13.789062 14.785156 13.917969 15.40625 C 13.996094 16.015625 13.898438 16.632812 13.527344 17.132812 C 13.101562 17.652344 12.558594 18.015625 11.875 18.089844 C 11.214844 18.136719 10.617188 17.9375 10.117188 17.503906 C 10.078125 17.472656 10.078125 17.472656 10.042969 17.441406 C 9.632812 17.066406 9.390625 16.492188 9.351562 15.941406 C 9.335938 15.269531 9.53125 14.683594 10 14.1875 C 10.789062 13.386719 12.03125 13.265625 12.960938 13.894531 Z M 12.960938 13.894531 "/>
<path style=" stroke:none;fill-rule:nonzero;fill:rgb(98.823529%,73.725492%,19.607843%);fill-opacity:1;" d="M 4.285156 6.136719 C 4.410156 6.238281 4.527344 6.34375 4.644531 6.460938 C 4.671875 6.484375 4.695312 6.511719 4.722656 6.539062 C 5.125 6.960938 5.316406 7.539062 5.308594 8.117188 C 5.28125 8.777344 4.996094 9.328125 4.527344 9.789062 C 4.0625 10.191406 3.457031 10.382812 2.847656 10.351562 C 2.367188 10.304688 1.964844 10.15625 1.585938 9.851562 C 1.546875 9.824219 1.546875 9.824219 1.507812 9.792969 C 1.046875 9.417969 0.792969 8.847656 0.726562 8.265625 C 0.679688 7.679688 0.835938 7.097656 1.207031 6.636719 C 1.503906 6.289062 1.839844 6.050781 2.269531 5.882812 C 2.296875 5.871094 2.328125 5.859375 2.355469 5.847656 C 2.984375 5.640625 3.746094 5.765625 4.285156 6.136719 Z M 4.285156 6.136719 "/>
<path style=" stroke:none;fill-rule:nonzero;fill:rgb(98.823529%,73.725492%,19.607843%);fill-opacity:1;" d="M 4.445312 17.527344 C 4.90625 17.921875 5.242188 18.472656 5.296875 19.089844 C 5.339844 19.726562 5.175781 20.328125 4.753906 20.816406 C 4.316406 21.308594 3.777344 21.5625 3.125 21.628906 C 2.507812 21.652344 1.925781 21.421875 1.460938 21.019531 C 0.992188 20.574219 0.730469 19.984375 0.714844 19.335938 C 0.722656 18.800781 0.890625 18.320312 1.222656 17.902344 C 1.242188 17.875 1.261719 17.851562 1.28125 17.824219 C 1.617188 17.398438 2.148438 17.132812 2.679688 17.042969 C 3.3125 16.976562 3.941406 17.125 4.445312 17.527344 Z M 4.445312 17.527344 "/>
<path style=" stroke:none;fill-rule:nonzero;fill:rgb(98.823529%,73.725492%,19.607843%);fill-opacity:1;" d="M 21.671875 6.253906 C 21.761719 6.332031 21.84375 6.410156 21.925781 6.496094 C 21.945312 6.515625 21.964844 6.535156 21.984375 6.550781 C 22.367188 6.945312 22.523438 7.53125 22.550781 8.070312 C 22.527344 8.601562 22.355469 9.070312 22.03125 9.492188 C 22.011719 9.515625 21.996094 9.542969 21.976562 9.566406 C 21.617188 10.019531 21.0625 10.277344 20.496094 10.351562 C 19.863281 10.390625 19.265625 10.226562 18.78125 9.804688 C 18.726562 9.746094 18.667969 9.691406 18.613281 9.636719 C 18.589844 9.613281 18.566406 9.589844 18.542969 9.570312 C 18.128906 9.136719 17.980469 8.558594 17.988281 7.976562 C 18.003906 7.371094 18.253906 6.800781 18.683594 6.375 C 19.535156 5.625 20.769531 5.570312 21.671875 6.253906 Z M 21.671875 6.253906 "/>
<path style=" stroke:none;fill-rule:nonzero;fill:rgb(10.196079%,11.372549%,14.117648%);fill-opacity:1;" d="M 63.070312 3.96875 C 63.382812 4.222656 63.5625 4.546875 63.613281 4.945312 C 63.652344 5.339844 63.527344 5.710938 63.289062 6.027344 C 63.011719 6.324219 62.675781 6.527344 62.261719 6.542969 C 62.203125 6.542969 62.148438 6.542969 62.089844 6.542969 C 62.058594 6.542969 62.027344 6.542969 61.996094 6.542969 C 61.585938 6.535156 61.25 6.414062 60.941406 6.136719 C 60.714844 5.898438 60.535156 5.597656 60.515625 5.269531 C 60.515625 5.242188 60.511719 5.21875 60.507812 5.191406 C 60.492188 4.84375 60.585938 4.484375 60.8125 4.214844 C 60.832031 4.195312 60.855469 4.171875 60.875 4.148438 C 60.898438 4.125 60.921875 4.101562 60.945312 4.074219 C 61.527344 3.507812 62.433594 3.5 63.070312 3.96875 Z M 63.070312 3.96875 "/>
<path style=" stroke:none;fill-rule:nonzero;fill:rgb(10.196079%,11.372549%,14.117648%);fill-opacity:1;" d="M 139.816406 3.851562 C 140.179688 4.132812 140.355469 4.449219 140.414062 4.910156 C 140.429688 5.296875 140.324219 5.664062 140.070312 5.957031 C 140.046875 5.980469 140.027344 6.003906 140.003906 6.027344 C 139.976562 6.058594 139.976562 6.058594 139.945312 6.089844 C 139.597656 6.417969 139.175781 6.476562 138.714844 6.46875 C 138.53125 6.460938 138.371094 6.425781 138.203125 6.351562 C 138.175781 6.339844 138.148438 6.328125 138.121094 6.316406 C 137.808594 6.160156 137.554688 5.90625 137.410156 5.585938 C 137.269531 5.171875 137.273438 4.761719 137.449219 4.359375 C 137.660156 3.980469 138.003906 3.726562 138.414062 3.605469 C 138.90625 3.488281 139.398438 3.566406 139.816406 3.851562 Z M 139.816406 3.851562 "/>
<path style=" stroke:none;fill-rule:nonzero;fill:rgb(98.823529%,73.725492%,19.607843%);fill-opacity:1;" d="M 12.484375 8.941406 C 12.8125 9.175781 12.996094 9.480469 13.089844 9.875 C 13.152344 10.257812 13.066406 10.632812 12.859375 10.96875 C 12.617188 11.300781 12.3125 11.488281 11.914062 11.585938 C 11.429688 11.628906 11.035156 11.53125 10.65625 11.222656 C 10.382812 10.972656 10.21875 10.621094 10.1875 10.25 C 10.183594 9.800781 10.308594 9.421875 10.621094 9.09375 C 11.15625 8.605469 11.875 8.566406 12.484375 8.941406 Z M 12.484375 8.941406 "/>
<path style=" stroke:none;fill-rule:nonzero;fill:rgb(98.431373%,73.725492%,19.607843%);fill-opacity:1;" d="M 21.140625 1.230469 C 21.433594 1.453125 21.632812 1.769531 21.707031 2.128906 C 21.75 2.570312 21.699219 2.96875 21.410156 3.324219 C 21.125 3.636719 20.835938 3.835938 20.40625 3.871094 C 19.980469 3.878906 19.613281 3.800781 19.296875 3.5 C 18.988281 3.195312 18.828125 2.867188 18.816406 2.429688 C 18.820312 1.996094 18.964844 1.675781 19.261719 1.367188 C 19.796875 0.859375 20.53125 0.84375 21.140625 1.230469 Z M 21.140625 1.230469 "/>
<path style=" stroke:none;fill-rule:nonzero;fill:rgb(98.823529%,73.725492%,19.607843%);fill-opacity:1;" d="M 3.859375 1.214844 C 4.15625 1.457031 4.390625 1.746094 4.464844 2.128906 C 4.496094 2.574219 4.460938 2.964844 4.167969 3.324219 C 3.882812 3.636719 3.59375 3.835938 3.164062 3.871094 C 2.734375 3.878906 2.371094 3.800781 2.050781 3.5 C 1.839844 3.296875 1.707031 3.097656 1.621094 2.816406 C 1.613281 2.792969 1.605469 2.769531 1.597656 2.746094 C 1.523438 2.359375 1.582031 1.96875 1.789062 1.636719 C 2.273438 0.964844 3.152344 0.726562 3.859375 1.214844 Z M 3.859375 1.214844 "/>
<path style=" stroke:none;fill-rule:nonzero;fill:rgb(98.823529%,73.725492%,19.607843%);fill-opacity:1;" d="M 3.828125 12.476562 C 3.871094 12.515625 3.917969 12.554688 3.960938 12.59375 C 3.984375 12.617188 4.007812 12.640625 4.035156 12.667969 C 4.320312 12.960938 4.445312 13.273438 4.449219 13.679688 C 4.441406 14.097656 4.324219 14.417969 4.03125 14.726562 C 3.746094 14.996094 3.386719 15.164062 2.988281 15.15625 C 2.542969 15.128906 2.171875 14.960938 1.867188 14.632812 C 1.609375 14.300781 1.503906 13.914062 1.546875 13.496094 C 1.632812 13.066406 1.824219 12.726562 2.179688 12.46875 C 2.683594 12.160156 3.332031 12.128906 3.828125 12.476562 Z M 3.828125 12.476562 "/>
<path style=" stroke:none;fill-rule:nonzero;fill:rgb(98.823529%,73.725492%,19.607843%);fill-opacity:1;" d="M 21.085938 12.515625 C 21.40625 12.742188 21.636719 13.070312 21.707031 13.460938 C 21.742188 13.949219 21.660156 14.3125 21.359375 14.707031 C 21.21875 14.859375 21.0625 14.957031 20.878906 15.050781 C 20.84375 15.070312 20.84375 15.070312 20.804688 15.089844 C 20.492188 15.21875 20.078125 15.203125 19.765625 15.097656 C 19.398438 14.941406 19.074219 14.65625 18.921875 14.28125 C 18.898438 14.222656 18.882812 14.167969 18.863281 14.109375 C 18.855469 14.089844 18.851562 14.066406 18.84375 14.042969 C 18.769531 13.664062 18.828125 13.28125 19.019531 12.949219 C 19.234375 12.636719 19.507812 12.417969 19.871094 12.308594 C 19.894531 12.300781 19.917969 12.292969 19.941406 12.285156 C 20.359375 12.203125 20.730469 12.292969 21.085938 12.515625 Z M 21.085938 12.515625 "/>
<path style=" stroke:none;fill-rule:nonzero;fill:rgb(98.823529%,73.725492%,19.607843%);fill-opacity:1;" d="M 12.5625 20.28125 C 12.90625 20.597656 13.078125 20.972656 13.117188 21.433594 C 13.101562 21.828125 12.929688 22.183594 12.667969 22.476562 C 12.375 22.746094 11.996094 22.875 11.601562 22.882812 C 11.203125 22.863281 10.875 22.703125 10.589844 22.429688 C 10.296875 22.097656 10.183594 21.734375 10.1875 21.292969 C 10.25 20.84375 10.449219 20.496094 10.800781 20.210938 C 11.371094 19.847656 12.019531 19.875 12.5625 20.28125 Z M 12.5625 20.28125 "/>
<path style=" stroke:none;fill-rule:nonzero;fill:rgb(98.823529%,73.725492%,19.607843%);fill-opacity:1;" d="M 21.039062 18.101562 C 21.375 18.347656 21.632812 18.671875 21.707031 19.089844 C 21.738281 19.527344 21.695312 19.902344 21.410156 20.25 C 21.136719 20.550781 20.832031 20.765625 20.417969 20.796875 C 19.964844 20.800781 19.585938 20.699219 19.25 20.386719 C 19.097656 20.222656 18.980469 20.058594 18.898438 19.851562 C 18.886719 19.8125 18.871094 19.773438 18.855469 19.738281 C 18.777344 19.332031 18.8125 18.941406 19.019531 18.578125 C 19.476562 17.917969 20.339844 17.652344 21.039062 18.101562 Z M 21.039062 18.101562 "/>
<path style=" stroke:none;fill-rule:nonzero;fill:rgb(98.823529%,73.725492%,19.607843%);fill-opacity:1;" d="M 12.402344 3.304688 C 12.742188 3.554688 12.976562 3.863281 13.054688 4.28125 C 13.109375 4.671875 13.042969 5.054688 12.804688 5.375 C 12.53125 5.695312 12.203125 5.925781 11.773438 5.964844 C 11.308594 5.980469 10.929688 5.839844 10.585938 5.523438 C 10.277344 5.171875 10.195312 4.832031 10.210938 4.371094 C 10.234375 4.007812 10.398438 3.71875 10.65625 3.464844 C 11.164062 3.058594 11.832031 2.949219 12.402344 3.304688 Z M 12.402344 3.304688 "/>
</g>
</svg>
