<?xml version="1.0" standalone="no"?><!DOCTYPE svg PUBLIC "-//W3C//DTD SVG 1.1//EN" "http://www.w3.org/Graphics/SVG/1.1/DTD/svg11.dtd"><svg t="1733214470293" class="icon" viewBox="0 0 1024 1024" version="1.1" xmlns="http://www.w3.org/2000/svg" p-id="1474" xmlns:xlink="http://www.w3.org/1999/xlink" width="200" height="200"><path d="M512 64a448 448 0 1 1 0 896A448 448 0 0 1 512 64z" fill="#FF6A00" p-id="1475"></path><path d="M324.8 602.624a26.752 26.752 0 0 1-21.312-25.92v-142.72a27.712 27.712 0 0 1 21.376-25.984l132.416-28.672 13.952-56.896H317.312a97.6 97.6 0 0 0-98.24 96.96v169.344c0.384 54.08 44.16 97.856 98.24 98.176h153.92l-13.888-56.512-132.544-27.776zM710.4 322.432c54.016 0.128 97.92 43.584 98.56 97.6v170.176a98.368 98.368 0 0 1-98.56 98.048H555.328l14.08-56.832 132.608-28.736a27.84 27.84 0 0 0 21.376-25.92v-142.72a26.88 26.88 0 0 0-21.376-25.984l-132.544-28.8-14.08-56.832zM570.368 497.92v13.952H457.28v-13.952h113.088z" fill="#FFFFFF" p-id="1476"></path></svg>