<svg width="126" height="74" viewBox="0 0 126 74" fill="none" xmlns="http://www.w3.org/2000/svg">
<g id="Grid BG">
<mask id="mask0_3169_30072" style="mask-type:alpha" maskUnits="userSpaceOnUse" x="0" y="0" width="126" height="74">
<rect id="Mask" x="0.400391" width="125" height="74" fill="url(#paint0_linear_3169_30072)"/>
</mask>
<g mask="url(#mask0_3169_30072)">
<path id="Grid" d="M7.40039 -3H-0.599609V5M7.40039 -3V5M7.40039 -3H15.4004M7.40039 5H-0.599609M7.40039 5H15.4004M7.40039 5V13M-0.599609 5V13M15.4004 -3V5M15.4004 -3H23.4004M15.4004 5H23.4004M15.4004 5V13M23.4004 -3V5M23.4004 -3H31.4004M23.4004 5H31.4004M23.4004 5V13M31.4004 -3V5M31.4004 -3H39.4004M31.4004 5H39.4004M31.4004 5V13M39.4004 -3V5M39.4004 -3H47.4004M39.4004 5H47.4004M39.4004 5V13M47.4004 -3V5M47.4004 -3H55.4004M47.4004 5H55.4004M47.4004 5V13M55.4004 -3V5M55.4004 -3H63.4004M55.4004 5H63.4004M55.4004 5V13M63.4004 -3V5M63.4004 -3H71.4004M63.4004 5H71.4004M63.4004 5V13M71.4004 -3V5M71.4004 -3H79.4004M71.4004 5H79.4004M71.4004 5V13M79.4004 -3V5M79.4004 -3H87.4004M79.4004 5H87.4004M79.4004 5V13M87.4004 -3V5M87.4004 -3H95.4004M87.4004 5H95.4004M87.4004 5V13M95.4004 -3V5M95.4004 -3H103.4M95.4004 5H103.4M95.4004 5V13M103.4 -3V5M103.4 -3H111.4M103.4 5H111.4M103.4 5V13M111.4 -3V5M111.4 -3H119.4M111.4 5H119.4M111.4 5V13M119.4 -3V5M119.4 -3H127.4V5M119.4 5H127.4M119.4 5V13M127.4 5V13M7.40039 13H-0.599609M7.40039 13H15.4004M7.40039 13V21M-0.599609 13V21M15.4004 13H23.4004M15.4004 13V21M23.4004 13H31.4004M23.4004 13V21M31.4004 13H39.4004M31.4004 13V21M39.4004 13H47.4004M39.4004 13V21M47.4004 13H55.4004M47.4004 13V21M55.4004 13H63.4004M55.4004 13V21M63.4004 13H71.4004M63.4004 13V21M71.4004 13H79.4004M71.4004 13V21M79.4004 13H87.4004M79.4004 13V21M87.4004 13H95.4004M87.4004 13V21M95.4004 13H103.4M95.4004 13V21M103.4 13H111.4M103.4 13V21M111.4 13H119.4M111.4 13V21M119.4 13H127.4M119.4 13V21M127.4 13V21M7.40039 21H-0.599609M7.40039 21H15.4004M7.40039 21V29M-0.599609 21V29M15.4004 21H23.4004M15.4004 21V29M23.4004 21H31.4004M23.4004 21V29M31.4004 21H39.4004M31.4004 21V29M39.4004 21H47.4004M39.4004 21V29M47.4004 21H55.4004M47.4004 21V29M55.4004 21H63.4004M55.4004 21V29M63.4004 21H71.4004M63.4004 21V29M71.4004 21H79.4004M71.4004 21V29M79.4004 21H87.4004M79.4004 21V29M87.4004 21H95.4004M87.4004 21V29M95.4004 21H103.4M95.4004 21V29M103.4 21H111.4M103.4 21V29M111.4 21H119.4M111.4 21V29M119.4 21H127.4M119.4 21V29M127.4 21V29M7.40039 29H-0.599609M7.40039 29H15.4004M7.40039 29V37M-0.599609 29V37M15.4004 29H23.4004M15.4004 29V37M23.4004 29H31.4004M23.4004 29V37M31.4004 29H39.4004M31.4004 29V37M39.4004 29H47.4004M39.4004 29V37M47.4004 29H55.4004M47.4004 29V37M55.4004 29H63.4004M55.4004 29V37M63.4004 29H71.4004M63.4004 29V37M71.4004 29H79.4004M71.4004 29V37M79.4004 29H87.4004M79.4004 29V37M87.4004 29H95.4004M87.4004 29V37M95.4004 29H103.4M95.4004 29V37M103.4 29H111.4M103.4 29V37M111.4 29H119.4M111.4 29V37M119.4 29H127.4M119.4 29V37M127.4 29V37M7.40039 37H-0.599609M7.40039 37H15.4004M7.40039 37V45M-0.599609 37V45M15.4004 37H23.4004M15.4004 37V45M23.4004 37H31.4004M23.4004 37V45M31.4004 37H39.4004M31.4004 37V45M39.4004 37H47.4004M39.4004 37V45M47.4004 37H55.4004M47.4004 37V45M55.4004 37H63.4004M55.4004 37V45M63.4004 37H71.4004M63.4004 37V45M71.4004 37H79.4004M71.4004 37V45M79.4004 37H87.4004M79.4004 37V45M87.4004 37H95.4004M87.4004 37V45M95.4004 37H103.4M95.4004 37V45M103.4 37H111.4M103.4 37V45M111.4 37H119.4M111.4 37V45M119.4 37H127.4M119.4 37V45M127.4 37V45M7.40039 45H-0.599609M7.40039 45H15.4004M7.40039 45V53M-0.599609 45V53M15.4004 45H23.4004M15.4004 45V53M23.4004 45H31.4004M23.4004 45V53M31.4004 45H39.4004M31.4004 45V53M39.4004 45H47.4004M39.4004 45V53M47.4004 45H55.4004M47.4004 45V53M55.4004 45H63.4004M55.4004 45V53M63.4004 45H71.4004M63.4004 45V53M71.4004 45H79.4004M71.4004 45V53M79.4004 45H87.4004M79.4004 45V53M87.4004 45H95.4004M87.4004 45V53M95.4004 45H103.4M95.4004 45V53M103.4 45H111.4M103.4 45V53M111.4 45H119.4M111.4 45V53M119.4 45H127.4M119.4 45V53M127.4 45V53M7.40039 53H-0.599609M7.40039 53H15.4004M7.40039 53V61M-0.599609 53V61M15.4004 53H23.4004M15.4004 53V61M23.4004 53H31.4004M23.4004 53V61M31.4004 53H39.4004M31.4004 53V61M39.4004 53H47.4004M39.4004 53V61M47.4004 53H55.4004M47.4004 53V61M55.4004 53H63.4004M55.4004 53V61M63.4004 53H71.4004M63.4004 53V61M71.4004 53H79.4004M71.4004 53V61M79.4004 53H87.4004M79.4004 53V61M87.4004 53H95.4004M87.4004 53V61M95.4004 53H103.4M95.4004 53V61M103.4 53H111.4M103.4 53V61M111.4 53H119.4M111.4 53V61M119.4 53H127.4M119.4 53V61M127.4 53V61M7.40039 61H-0.599609M7.40039 61H15.4004M7.40039 61V69M-0.599609 61V69M15.4004 61H23.4004M15.4004 61V69M23.4004 61H31.4004M23.4004 61V69M31.4004 61H39.4004M31.4004 61V69M39.4004 61H47.4004M39.4004 61V69M47.4004 61H55.4004M47.4004 61V69M55.4004 61H63.4004M55.4004 61V69M63.4004 61H71.4004M63.4004 61V69M71.4004 61H79.4004M71.4004 61V69M79.4004 61H87.4004M79.4004 61V69M87.4004 61H95.4004M87.4004 61V69M95.4004 61H103.4M95.4004 61V69M103.4 61H111.4M103.4 61V69M111.4 61H119.4M111.4 61V69M119.4 61H127.4M119.4 61V69M127.4 61V69M7.40039 69H-0.599609M7.40039 69H15.4004M7.40039 69V77M-0.599609 69V77H7.40039M15.4004 69H23.4004M15.4004 69V77M23.4004 69H31.4004M23.4004 69V77M31.4004 69H39.4004M31.4004 69V77M39.4004 69H47.4004M39.4004 69V77M47.4004 69H55.4004M47.4004 69V77M55.4004 69H63.4004M55.4004 69V77M63.4004 69H71.4004M63.4004 69V77M71.4004 69H79.4004M71.4004 69V77M79.4004 69H87.4004M79.4004 69V77M87.4004 69H95.4004M87.4004 69V77M95.4004 69H103.4M95.4004 69V77M103.4 69H111.4M103.4 69V77M111.4 69H119.4M111.4 69V77M119.4 69H127.4M119.4 69V77M127.4 69V77H119.4M7.40039 77H15.4004M15.4004 77H23.4004M23.4004 77H31.4004M31.4004 77H39.4004M39.4004 77H47.4004M47.4004 77H55.4004M55.4004 77H63.4004M63.4004 77H71.4004M71.4004 77H79.4004M79.4004 77H87.4004M87.4004 77H95.4004M95.4004 77H103.4M103.4 77H111.4M111.4 77H119.4" stroke="#DC6803" stroke-width="0.5"/>
</g>
</g>
<defs>
<linearGradient id="paint0_linear_3169_30072" x1="62.9004" y1="0" x2="62.9004" y2="74" gradientUnits="userSpaceOnUse">
<stop stop-color="#D9D9D9" stop-opacity="0.08"/>
<stop offset="1" stop-color="#737373" stop-opacity="0"/>
</linearGradient>
</defs>
</svg>
