<svg width="126" height="74" viewBox="0 0 126 74" fill="none" xmlns="http://www.w3.org/2000/svg">
<g id="Grid BG">
<mask id="mask0_3169_30058" style="mask-type:alpha" maskUnits="userSpaceOnUse" x="0" y="0" width="126" height="74">
<rect id="Mask" x="0.799805" width="125" height="74" fill="url(#paint0_linear_3169_30058)"/>
</mask>
<g mask="url(#mask0_3169_30058)">
<path id="Grid" d="M7.7998 -3H-0.200195V5M7.7998 -3V5M7.7998 -3H15.7998M7.7998 5H-0.200195M7.7998 5H15.7998M7.7998 5V13M-0.200195 5V13M15.7998 -3V5M15.7998 -3H23.7998M15.7998 5H23.7998M15.7998 5V13M23.7998 -3V5M23.7998 -3H31.7998M23.7998 5H31.7998M23.7998 5V13M31.7998 -3V5M31.7998 -3H39.7998M31.7998 5H39.7998M31.7998 5V13M39.7998 -3V5M39.7998 -3H47.7998M39.7998 5H47.7998M39.7998 5V13M47.7998 -3V5M47.7998 -3H55.7998M47.7998 5H55.7998M47.7998 5V13M55.7998 -3V5M55.7998 -3H63.7998M55.7998 5H63.7998M55.7998 5V13M63.7998 -3V5M63.7998 -3H71.7998M63.7998 5H71.7998M63.7998 5V13M71.7998 -3V5M71.7998 -3H79.7998M71.7998 5H79.7998M71.7998 5V13M79.7998 -3V5M79.7998 -3H87.7998M79.7998 5H87.7998M79.7998 5V13M87.7998 -3V5M87.7998 -3H95.7998M87.7998 5H95.7998M87.7998 5V13M95.7998 -3V5M95.7998 -3H103.8M95.7998 5H103.8M95.7998 5V13M103.8 -3V5M103.8 -3H111.8M103.8 5H111.8M103.8 5V13M111.8 -3V5M111.8 -3H119.8M111.8 5H119.8M111.8 5V13M119.8 -3V5M119.8 -3H127.8V5M119.8 5H127.8M119.8 5V13M127.8 5V13M7.7998 13H-0.200195M7.7998 13H15.7998M7.7998 13V21M-0.200195 13V21M15.7998 13H23.7998M15.7998 13V21M23.7998 13H31.7998M23.7998 13V21M31.7998 13H39.7998M31.7998 13V21M39.7998 13H47.7998M39.7998 13V21M47.7998 13H55.7998M47.7998 13V21M55.7998 13H63.7998M55.7998 13V21M63.7998 13H71.7998M63.7998 13V21M71.7998 13H79.7998M71.7998 13V21M79.7998 13H87.7998M79.7998 13V21M87.7998 13H95.7998M87.7998 13V21M95.7998 13H103.8M95.7998 13V21M103.8 13H111.8M103.8 13V21M111.8 13H119.8M111.8 13V21M119.8 13H127.8M119.8 13V21M127.8 13V21M7.7998 21H-0.200195M7.7998 21H15.7998M7.7998 21V29M-0.200195 21V29M15.7998 21H23.7998M15.7998 21V29M23.7998 21H31.7998M23.7998 21V29M31.7998 21H39.7998M31.7998 21V29M39.7998 21H47.7998M39.7998 21V29M47.7998 21H55.7998M47.7998 21V29M55.7998 21H63.7998M55.7998 21V29M63.7998 21H71.7998M63.7998 21V29M71.7998 21H79.7998M71.7998 21V29M79.7998 21H87.7998M79.7998 21V29M87.7998 21H95.7998M87.7998 21V29M95.7998 21H103.8M95.7998 21V29M103.8 21H111.8M103.8 21V29M111.8 21H119.8M111.8 21V29M119.8 21H127.8M119.8 21V29M127.8 21V29M7.7998 29H-0.200195M7.7998 29H15.7998M7.7998 29V37M-0.200195 29V37M15.7998 29H23.7998M15.7998 29V37M23.7998 29H31.7998M23.7998 29V37M31.7998 29H39.7998M31.7998 29V37M39.7998 29H47.7998M39.7998 29V37M47.7998 29H55.7998M47.7998 29V37M55.7998 29H63.7998M55.7998 29V37M63.7998 29H71.7998M63.7998 29V37M71.7998 29H79.7998M71.7998 29V37M79.7998 29H87.7998M79.7998 29V37M87.7998 29H95.7998M87.7998 29V37M95.7998 29H103.8M95.7998 29V37M103.8 29H111.8M103.8 29V37M111.8 29H119.8M111.8 29V37M119.8 29H127.8M119.8 29V37M127.8 29V37M7.7998 37H-0.200195M7.7998 37H15.7998M7.7998 37V45M-0.200195 37V45M15.7998 37H23.7998M15.7998 37V45M23.7998 37H31.7998M23.7998 37V45M31.7998 37H39.7998M31.7998 37V45M39.7998 37H47.7998M39.7998 37V45M47.7998 37H55.7998M47.7998 37V45M55.7998 37H63.7998M55.7998 37V45M63.7998 37H71.7998M63.7998 37V45M71.7998 37H79.7998M71.7998 37V45M79.7998 37H87.7998M79.7998 37V45M87.7998 37H95.7998M87.7998 37V45M95.7998 37H103.8M95.7998 37V45M103.8 37H111.8M103.8 37V45M111.8 37H119.8M111.8 37V45M119.8 37H127.8M119.8 37V45M127.8 37V45M7.7998 45H-0.200195M7.7998 45H15.7998M7.7998 45V53M-0.200195 45V53M15.7998 45H23.7998M15.7998 45V53M23.7998 45H31.7998M23.7998 45V53M31.7998 45H39.7998M31.7998 45V53M39.7998 45H47.7998M39.7998 45V53M47.7998 45H55.7998M47.7998 45V53M55.7998 45H63.7998M55.7998 45V53M63.7998 45H71.7998M63.7998 45V53M71.7998 45H79.7998M71.7998 45V53M79.7998 45H87.7998M79.7998 45V53M87.7998 45H95.7998M87.7998 45V53M95.7998 45H103.8M95.7998 45V53M103.8 45H111.8M103.8 45V53M111.8 45H119.8M111.8 45V53M119.8 45H127.8M119.8 45V53M127.8 45V53M7.7998 53H-0.200195M7.7998 53H15.7998M7.7998 53V61M-0.200195 53V61M15.7998 53H23.7998M15.7998 53V61M23.7998 53H31.7998M23.7998 53V61M31.7998 53H39.7998M31.7998 53V61M39.7998 53H47.7998M39.7998 53V61M47.7998 53H55.7998M47.7998 53V61M55.7998 53H63.7998M55.7998 53V61M63.7998 53H71.7998M63.7998 53V61M71.7998 53H79.7998M71.7998 53V61M79.7998 53H87.7998M79.7998 53V61M87.7998 53H95.7998M87.7998 53V61M95.7998 53H103.8M95.7998 53V61M103.8 53H111.8M103.8 53V61M111.8 53H119.8M111.8 53V61M119.8 53H127.8M119.8 53V61M127.8 53V61M7.7998 61H-0.200195M7.7998 61H15.7998M7.7998 61V69M-0.200195 61V69M15.7998 61H23.7998M15.7998 61V69M23.7998 61H31.7998M23.7998 61V69M31.7998 61H39.7998M31.7998 61V69M39.7998 61H47.7998M39.7998 61V69M47.7998 61H55.7998M47.7998 61V69M55.7998 61H63.7998M55.7998 61V69M63.7998 61H71.7998M63.7998 61V69M71.7998 61H79.7998M71.7998 61V69M79.7998 61H87.7998M79.7998 61V69M87.7998 61H95.7998M87.7998 61V69M95.7998 61H103.8M95.7998 61V69M103.8 61H111.8M103.8 61V69M111.8 61H119.8M111.8 61V69M119.8 61H127.8M119.8 61V69M127.8 61V69M7.7998 69H-0.200195M7.7998 69H15.7998M7.7998 69V77M-0.200195 69V77H7.7998M15.7998 69H23.7998M15.7998 69V77M23.7998 69H31.7998M23.7998 69V77M31.7998 69H39.7998M31.7998 69V77M39.7998 69H47.7998M39.7998 69V77M47.7998 69H55.7998M47.7998 69V77M55.7998 69H63.7998M55.7998 69V77M63.7998 69H71.7998M63.7998 69V77M71.7998 69H79.7998M71.7998 69V77M79.7998 69H87.7998M79.7998 69V77M87.7998 69H95.7998M87.7998 69V77M95.7998 69H103.8M95.7998 69V77M103.8 69H111.8M103.8 69V77M111.8 69H119.8M111.8 69V77M119.8 69H127.8M119.8 69V77M127.8 69V77H119.8M7.7998 77H15.7998M15.7998 77H23.7998M23.7998 77H31.7998M31.7998 77H39.7998M39.7998 77H47.7998M47.7998 77H55.7998M55.7998 77H63.7998M63.7998 77H71.7998M71.7998 77H79.7998M79.7998 77H87.7998M87.7998 77H95.7998M95.7998 77H103.8M103.8 77H111.8M111.8 77H119.8" stroke="#1570EF" stroke-width="0.5"/>
</g>
</g>
<defs>
<linearGradient id="paint0_linear_3169_30058" x1="63.2998" y1="0" x2="63.2998" y2="74" gradientUnits="userSpaceOnUse">
<stop stop-color="#D9D9D9" stop-opacity="0.08"/>
<stop offset="1" stop-color="#737373" stop-opacity="0"/>
</linearGradient>
</defs>
</svg>
