<svg width="125" height="74" viewBox="0 0 125 74" fill="none" xmlns="http://www.w3.org/2000/svg">
<g id="Grid BG">
<mask id="mask0_3169_30051" style="mask-type:alpha" maskUnits="userSpaceOnUse" x="0" y="0" width="125" height="74">
<rect id="Mask" width="125" height="74" fill="url(#paint0_linear_3169_30051)"/>
</mask>
<g mask="url(#mask0_3169_30051)">
<path id="Grid" d="M7 -3H-1V5M7 -3V5M7 -3H15M7 5H-1M7 5H15M7 5V13M-1 5V13M15 -3V5M15 -3H23M15 5H23M15 5V13M23 -3V5M23 -3H31M23 5H31M23 5V13M31 -3V5M31 -3H39M31 5H39M31 5V13M39 -3V5M39 -3H47M39 5H47M39 5V13M47 -3V5M47 -3H55M47 5H55M47 5V13M55 -3V5M55 -3H63M55 5H63M55 5V13M63 -3V5M63 -3H71M63 5H71M63 5V13M71 -3V5M71 -3H79M71 5H79M71 5V13M79 -3V5M79 -3H87M79 5H87M79 5V13M87 -3V5M87 -3H95M87 5H95M87 5V13M95 -3V5M95 -3H103M95 5H103M95 5V13M103 -3V5M103 -3H111M103 5H111M103 5V13M111 -3V5M111 -3H119M111 5H119M111 5V13M119 -3V5M119 -3H127V5M119 5H127M119 5V13M127 5V13M7 13H-1M7 13H15M7 13V21M-1 13V21M15 13H23M15 13V21M23 13H31M23 13V21M31 13H39M31 13V21M39 13H47M39 13V21M47 13H55M47 13V21M55 13H63M55 13V21M63 13H71M63 13V21M71 13H79M71 13V21M79 13H87M79 13V21M87 13H95M87 13V21M95 13H103M95 13V21M103 13H111M103 13V21M111 13H119M111 13V21M119 13H127M119 13V21M127 13V21M7 21H-1M7 21H15M7 21V29M-1 21V29M15 21H23M15 21V29M23 21H31M23 21V29M31 21H39M31 21V29M39 21H47M39 21V29M47 21H55M47 21V29M55 21H63M55 21V29M63 21H71M63 21V29M71 21H79M71 21V29M79 21H87M79 21V29M87 21H95M87 21V29M95 21H103M95 21V29M103 21H111M103 21V29M111 21H119M111 21V29M119 21H127M119 21V29M127 21V29M7 29H-1M7 29H15M7 29V37M-1 29V37M15 29H23M15 29V37M23 29H31M23 29V37M31 29H39M31 29V37M39 29H47M39 29V37M47 29H55M47 29V37M55 29H63M55 29V37M63 29H71M63 29V37M71 29H79M71 29V37M79 29H87M79 29V37M87 29H95M87 29V37M95 29H103M95 29V37M103 29H111M103 29V37M111 29H119M111 29V37M119 29H127M119 29V37M127 29V37M7 37H-1M7 37H15M7 37V45M-1 37V45M15 37H23M15 37V45M23 37H31M23 37V45M31 37H39M31 37V45M39 37H47M39 37V45M47 37H55M47 37V45M55 37H63M55 37V45M63 37H71M63 37V45M71 37H79M71 37V45M79 37H87M79 37V45M87 37H95M87 37V45M95 37H103M95 37V45M103 37H111M103 37V45M111 37H119M111 37V45M119 37H127M119 37V45M127 37V45M7 45H-1M7 45H15M7 45V53M-1 45V53M15 45H23M15 45V53M23 45H31M23 45V53M31 45H39M31 45V53M39 45H47M39 45V53M47 45H55M47 45V53M55 45H63M55 45V53M63 45H71M63 45V53M71 45H79M71 45V53M79 45H87M79 45V53M87 45H95M87 45V53M95 45H103M95 45V53M103 45H111M103 45V53M111 45H119M111 45V53M119 45H127M119 45V53M127 45V53M7 53H-1M7 53H15M7 53V61M-1 53V61M15 53H23M15 53V61M23 53H31M23 53V61M31 53H39M31 53V61M39 53H47M39 53V61M47 53H55M47 53V61M55 53H63M55 53V61M63 53H71M63 53V61M71 53H79M71 53V61M79 53H87M79 53V61M87 53H95M87 53V61M95 53H103M95 53V61M103 53H111M103 53V61M111 53H119M111 53V61M119 53H127M119 53V61M127 53V61M7 61H-1M7 61H15M7 61V69M-1 61V69M15 61H23M15 61V69M23 61H31M23 61V69M31 61H39M31 61V69M39 61H47M39 61V69M47 61H55M47 61V69M55 61H63M55 61V69M63 61H71M63 61V69M71 61H79M71 61V69M79 61H87M79 61V69M87 61H95M87 61V69M95 61H103M95 61V69M103 61H111M103 61V69M111 61H119M111 61V69M119 61H127M119 61V69M127 61V69M7 69H-1M7 69H15M7 69V77M-1 69V77H7M15 69H23M15 69V77M23 69H31M23 69V77M31 69H39M31 69V77M39 69H47M39 69V77M47 69H55M47 69V77M55 69H63M55 69V77M63 69H71M63 69V77M71 69H79M71 69V77M79 69H87M79 69V77M87 69H95M87 69V77M95 69H103M95 69V77M103 69H111M103 69V77M111 69H119M111 69V77M119 69H127M119 69V77M127 69V77H119M7 77H15M15 77H23M23 77H31M31 77H39M39 77H47M47 77H55M55 77H63M63 77H71M71 77H79M79 77H87M87 77H95M95 77H103M103 77H111M111 77H119" stroke="#1570EF" stroke-width="0.5"/>
</g>
</g>
<defs>
<linearGradient id="paint0_linear_3169_30051" x1="62.5" y1="0" x2="62.5" y2="74" gradientUnits="userSpaceOnUse">
<stop stop-color="#D9D9D9" stop-opacity="0.08"/>
<stop offset="1" stop-color="#737373" stop-opacity="0"/>
</linearGradient>
</defs>
</svg>
