<?xml version="1.0" standalone="no"?>
<!DOCTYPE svg PUBLIC "-//W3C//DTD SVG 20010904//EN"
 "http://www.w3.org/TR/2001/REC-SVG-20010904/DTD/svg10.dtd">
<svg version="1.0" xmlns="http://www.w3.org/2000/svg"
 width="128.000000pt" height="128.000000pt" viewBox="0 0 128.000000 128.000000"
 preserveAspectRatio="xMidYMid meet">

<g transform="translate(0.000000,128.000000) scale(0.100000,-0.100000)"
fill="#000000" stroke="none">
<path d="M0 975 l0 -305 33 1 c54 0 336 35 343 41 3 4 0 57 -7 118 -10 85 -17
113 -29 120 -47 25 -45 104 2 133 13 8 118 26 246 41 208 26 225 26 248 11 14
-9 30 -27 36 -41 10 -22 8 -33 -10 -68 l-23 -42 40 -316 40 -315 30 -31 c17
-17 31 -38 31 -47 0 -25 -27 -72 -46 -79 -35 -13 -450 -59 -476 -53 -52 13
-70 85 -32 127 10 13 10 33 -1 120 -8 58 -15 111 -15 118 0 16 -31 16 -237 -5
l-173 -17 0 -243 0 -243 640 0 640 0 0 640 0 640 -640 0 -640 0 0 -305z"/>
<path d="M578 977 c-128 -16 -168 -24 -168 -35 0 -10 8 -12 28 -8 15 3 90 12
167 21 167 18 188 23 180 35 -7 12 -1 12 -207 -13z"/>
<path d="M660 326 c-100 -13 -163 -25 -160 -31 3 -5 14 -9 25 -8 104 11 305
35 323 39 12 2 22 9 22 14 0 13 -14 12 -210 -14z"/>
</g>
</svg>
