<svg xmlns="http://www.w3.org/2000/svg" xmlns:xlink="http://www.w3.org/1999/xlink" width="80" height="80" viewBox="0 0 80 80">
  <defs>
    <clipPath id="clip-path23">
      <rect width="80" height="80"/>
    </clipPath>
  </defs>
  <g id="path23" data-name="path23" clip-path="url(#clip-path23)">
    <path id="border6" data-name="border 6" d="M34.392,77.165a8.273,8.273,0,0,1-4.124-1.1L3.641,60.774A8.29,8.29,0,0,1-.5,53.629V23.039a8.287,8.287,0,0,1,4.14-7.145L30.268.6a8.31,8.31,0,0,1,8.248,0l26.627,15.3a8.286,8.286,0,0,1,4.14,7.144v30.59a8.29,8.29,0,0,1-4.14,7.147L38.516,76.068A8.274,8.274,0,0,1,34.392,77.165Z" transform="translate(5.608 1.666)" fill="#409bf4"/>
    <path id="hap" data-name="hap1" d="M27.336,68.026,3.679,54.438A7.361,7.361,0,0,1,0,48.089V20.911a7.362,7.362,0,0,1,3.678-6.348L27.336.975a7.379,7.379,0,0,1,7.328,0l23.658,13.59A7.366,7.366,0,0,1,62,20.909v27.18a7.368,7.368,0,0,1-3.679,6.349L34.663,68.026a7.372,7.372,0,0,1-7.328,0ZM2.9,48.089A4.407,4.407,0,0,0,5.114,51.9L28.77,65.486a4.5,4.5,0,0,0,4.458,0L56.885,51.9l.3.545-.3-.545A4.411,4.411,0,0,0,59.1,48.089V46.4H2.9Zm40.676-4.513H59.1V25.405H56.561a4.705,4.705,0,0,1,.289,1.387,9.362,9.362,0,0,1-.156,2.372,7.806,7.806,0,0,1-1.212,3.12l0,.007a6.837,6.837,0,0,1-2.06,1.967,7.957,7.957,0,0,1-2.521.993,12.612,12.612,0,0,1-2.6.272H45.03Zm-4.157,0h1.255L43.929,25.4H36.8Zm-13.443,0H36.481l-.7-5.378H28.642Zm-4.288,0H22.9L32.172,25.4H24.941Zm-12.114,0h9.211l1.622-9.069H11.2Zm-6.674,0h3.77L9.923,25.4H2.9Zm27.218-8.31h5.228l-1.112-8.318Zm15.431-2.677h3.094a11.368,11.368,0,0,0,2.033-.167,3.945,3.945,0,0,0,1.467-.565,3.439,3.439,0,0,0,1.04-1.1,5.768,5.768,0,0,0,.672-1.947l.6.1h0V28.9l-.582-.182a2.764,2.764,0,0,0-.423-2.412,3.823,3.823,0,0,0-2.82-.8H46.819ZM11.715,31.568h9.2L22.033,25.4H12.825ZM2.9,20.911v1.665H59.1V20.911A4.407,4.407,0,0,0,56.885,17.1L33.228,3.514a4.5,4.5,0,0,0-4.458,0L5.114,17.1A4.409,4.409,0,0,0,2.9,20.911Z" transform="translate(9 5.5)" fill="#fff"/>
  </g>
</svg>
